<?xml version="1.0" encoding="utf-8"?>
<!-- Generator: Adobe Illustrator 27.7.0, SVG Export Plug-In . SVG Version: 6.00 Build 0)  -->
<svg version="1.1" id="Ebene_1" xmlns="http://www.w3.org/2000/svg" xmlns:xlink="http://www.w3.org/1999/xlink" x="0px" y="0px"
	 viewBox="0 0 392.1 387.1" style="enable-background:new 0 0 392.1 387.1;" xml:space="preserve">
<style type="text/css">
	.st0{display:none;}
	.st1{display:inline;}
	.st2{fill:#2F2F41;}
	.st3{fill:#E5261F;}
	.st4{fill:#2F2E41;}
	.st5{fill:#010101;}
	.st6{fill:url(#SVGID_1_);}
	.st7{fill:url(#SVGID_00000010295248192852765800000008407810657448006054_);}
</style>
<g id="Page-1" class="st0">
	<g id="logo" transform="translate(2.000000, 0.000000)" class="st1">
		<path id="Jekyll" class="st2" d="M29.5,61c3.7,0,6.6-0.8,8.7-2.3c2.1-1.5,3.5-3.4,4.2-5.6c0.3-1.1,0.5-2.4,0.6-3.8
			c0.1-1.4,0.2-2.9,0.2-4.4l0,0V23.1c0-1.2,0.1-2.1,0.3-2.6c0.2-0.6,0.5-0.9,1.1-1.2s1.3-0.3,2.3-0.4l0,0v-1c-0.9,0-2,0.1-3.4,0.1
			s-2.8,0-4.2,0s-2.8,0-4.1,0s-2.5,0-3.3,0l0,0v1c1,0,1.8,0.2,2.3,0.4s0.9,0.6,1,1.2c0.2,0.6,0.3,1.4,0.3,2.6l0,0v26.3
			c0,2.7-0.2,4.8-0.7,6.3s-1.2,2.6-2.1,3.2s-2,1-3.3,1.1l0,0L29.5,61L29.5,61z M60.9,52.7c1.8,0,3.3-0.4,4.6-1.1s2.3-1.7,3.2-2.8
			s1.4-2.3,1.8-3.6l0,0l-0.9-0.3c-1,1.6-2.1,2.6-3.2,3.1s-2.2,0.7-3.1,0.7c-1,0-2-0.3-2.9-0.9s-1.8-1.6-2.4-3s-0.9-3.2-0.9-5.4
			c0-0.4,0-0.9,0-1.3c0-0.4,0-0.8,0.1-1.2v0.2h13.5c0-3.6-0.7-6.3-2.2-8L68.2,29c-1.6-1.7-3.8-2.5-6.6-2.5c-2.3,0-4.3,0.5-6.1,1.5
			s-3.2,2.5-4.2,4.4c-1,2-1.5,4.5-1.5,7.4s0.5,5.3,1.4,7.2s2.2,3.3,3.9,4.2C56.8,52.2,58.7,52.7,60.9,52.7z M57,36.2
			c0.2-3,0.6-5.2,1.4-6.6s1.7-2.1,2.9-2.1c0.8,0,1.4,0.4,1.9,1.2c0.5,0.8,0.8,1.9,1.1,3.2c0.3,1.3,0.3,2.8,0.3,4.3l0,0H57L57,36.2z
			 M100.3,52v-1c-0.5-0.2-1-0.5-1.4-1c-0.4-0.4-0.8-1-1.1-1.5l0,0L89.7,35l3.1-3.2c0.9-0.9,1.8-1.6,2.7-2.2l0.4-0.2
			c1-0.6,2-1.1,3-1.2l0,0v-1c-0.4,0-0.9,0.1-1.5,0.1s-1.3,0-2,0s-1.4,0-2,0c-0.7,0-1.6,0-2.7,0s-2-0.1-2.9-0.1l0,0v1
			c1.1,0,2,0.3,2.7,0.8s1,1.1,1,1.9s-0.5,1.7-1.6,2.7l0,0l-3.6,3.6c-0.4,0.4-0.9,0.8-1.4,0.9s-1.1,0.3-1.8,0.3h0.2V14.5
			c-0.8,0.2-1.7,0.3-2.7,0.4L80,15c-1.2,0.1-2.4,0.2-3.7,0.2c-1,0-2,0-3-0.1l0,0v1c1.2,0,2,0.3,2.4,1s0.6,1.8,0.6,3.2l0,0v27.4
			c0,1.3-0.2,2.3-0.7,2.7S74.3,51,73.2,51l0,0v1c0.6,0,1.6-0.1,2.9-0.1s2.5-0.1,3.8-0.1c1.2,0,2.4,0,3.6,0.1s2.1,0.1,2.7,0.1l0,0v-1
			c-1.1,0-1.8-0.2-2.2-0.7s-0.6-1.4-0.6-2.7l0,0v-8.2l0,0c0.4,0,0.8,0.1,1,0.2l0.2,0.1c0.4,0.2,0.7,0.6,1.1,1.2l0,0l4.8,8.6
			c0.3,0.5,0.3,0.9,0.1,1.2c-0.2,0.3-0.7,0.5-1.3,0.5l0,0v1c0.6,0,1.5-0.1,2.6-0.1s2.4-0.1,3.6-0.1c1,0,1.9,0,2.9,0.1
			S99.8,52,100.3,52L100.3,52z M106.8,61c0.9,0,1.7-0.1,2.4-0.3c0.7-0.2,1.3-0.5,1.7-0.9c0.8-0.6,1.5-1.8,2.1-3.4l0,0l1.8-5.1
			l6.8-19c0.5-1.4,1-2.4,1.6-3c0.5-0.6,1.1-1,1.7-1.1l0,0v-1c-0.4,0-1,0.1-1.7,0.1s-1.4,0-2,0s-1.4,0-2.3,0s-1.7-0.1-2.4-0.1l0,0v1
			c1.5,0.1,2.6,0.8,3.2,2s0.5,3.1-0.4,5.7l0,0l-3.3,9.2l-5.8-14.2c-0.4-0.8-0.5-1.4-0.3-1.8V29c0.2-0.4,0.6-0.6,1.2-0.7
			s1.2-0.1,1.8-0.1l0,0v-1c-1,0.1-2,0.1-3.1,0.2s-2.3,0.1-3.6,0.1c-1.1,0-2.2,0-3.3-0.1s-2.2-0.1-3.3-0.2l0,0v1
			c0.4,0,0.8,0.1,1.4,0.4c0.5,0.3,1.1,1,1.6,2.3l0,0L112.8,54l-0.8,2.3c-0.4,1.2-1,2.1-1.7,2.7l-0.2,0.1c-0.7,0.6-1.6,0.9-2.5,0.9
			l0,0h-0.4c-0.2,0-0.4,0-0.6,0c0.8-0.3,1.4-0.7,1.8-1.3s0.6-1.2,0.6-1.8c0-1-0.3-1.7-1-2.3s-1.5-0.8-2.6-0.8
			c-1.2,0-2.1,0.3-2.8,0.9c-0.7,0.6-1.1,1.4-1.1,2.4c0,0.9,0.3,1.6,0.8,2.2c0.5,0.6,1.2,1,2,1.2C105.2,60.9,106,61,106.8,61z
			 M139.3,52v-1c-1.1,0-1.9-0.2-2.4-0.7s-0.7-1.4-0.7-2.7l0,0V14.4c-1,0.2-2.1,0.4-3.3,0.5s-2.4,0.2-3.7,0.2c-1,0-2,0-3-0.1l0,0v1
			c1.2,0,2,0.3,2.4,1s0.6,1.8,0.6,3.2l0,0v27.4c0,1.3-0.2,2.3-0.7,2.7c-0.5,0.5-1.3,0.7-2.4,0.7l0,0v1c0.6,0,1.6-0.1,2.9-0.1
			s2.5-0.1,3.8-0.1c1.2,0,2.5,0,3.7,0.1C137.8,51.9,138.7,52,139.3,52L139.3,52z M154.2,52v-1c-1.1,0-1.9-0.2-2.4-0.7
			s-0.7-1.4-0.7-2.7l0,0V14.4c-1,0.2-2.1,0.4-3.3,0.5s-2.4,0.2-3.7,0.2c-1,0-2,0-3-0.1l0,0v1c1.2,0,2,0.3,2.4,1s0.6,1.8,0.6,3.2l0,0
			v27.4c0,1.3-0.2,2.3-0.7,2.7s-1.1,0.7-2.2,0.7l0,0v1c0.6,0,1.6-0.1,2.9-0.1c1.3,0,2.5-0.1,3.8-0.1s2.5,0,3.7,0.1
			S153.6,52,154.2,52L154.2,52z"/>
		<path id="Serif" class="st3" d="M171.7,52.7c2.1,0,4.1-0.3,5.9-1c1.8-0.7,3.2-1.7,4.3-3.1c1.1-1.4,1.7-3.1,1.7-5.2
			c0-1.7-0.4-3.2-1.1-4.5c-0.7-1.2-1.7-2.4-2.9-3.4s-2.6-2-4.1-3c-1.8-1.2-3.3-2.3-4.5-3.1s-2.2-1.8-2.8-2.7c-0.6-0.9-1-2-1-3.3
			c0-1.5,0.5-2.7,1.5-3.6s2.3-1.3,3.8-1.3c1.7,0,3.1,0.5,4.3,1.5s2.1,2.3,2.7,3.9s1,3.2,1.2,4.8l0,0h1.1c0-2.2,0-4,0-5.4
			s0-2.5,0.1-3.3c0-0.8,0.1-1.6,0.1-2.2l0,0h-1.1c-0.2,1.4-0.5,2.1-1.1,2.1c-0.2,0-0.5-0.1-0.7-0.2s-0.6-0.3-0.9-0.5
			c-0.7-0.4-1.6-0.9-2.6-1.3s-2.5-0.6-4.4-0.6s-3.6,0.3-5.3,0.9c-1.6,0.6-3,1.6-4,2.9s-1.5,3-1.5,5c0,1.8,0.4,3.3,1.2,4.6
			c0.8,1.3,1.8,2.4,3.1,3.4s2.7,2,4.2,3c2.1,1.4,3.8,2.7,5.2,4c1.3,1.3,2,2.9,2,4.9c0,1.8-0.6,3.1-1.7,4c-1.2,0.9-2.6,1.3-4.2,1.3
			c-2,0-3.7-0.6-4.9-1.7s-2.1-2.6-2.7-4.4c-0.6-1.8-1-3.8-1.1-5.9l0,0h-1.1c0,2.5,0,4.6,0,6.3c0,1.6,0,3,0,4s-0.1,1.9-0.1,2.7l0,0
			h1.1c0.2-1.4,0.5-2.1,1.1-2.1c0.4,0,0.9,0.2,1.6,0.7c0.8,0.4,1.8,0.8,3,1.2C168.1,52.5,169.7,52.7,171.7,52.7z M198.4,52.7
			c1.8,0,3.3-0.4,4.6-1.1s2.3-1.7,3.2-2.8s1.4-2.3,1.8-3.6l0,0l-0.9-0.3c-1,1.6-2.1,2.6-3.2,3.1s-2.2,0.7-3.1,0.7
			c-1,0-2-0.3-2.9-0.9c-1-0.6-1.8-1.6-2.4-3c-0.6-1.4-0.9-3.2-0.9-5.4c0-0.4,0-0.9,0-1.3c0-0.4,0-0.8,0.1-1.2v0.2h13.5
			c0-3.6-0.7-6.3-2.2-8l-0.2-0.2c-1.6-1.7-3.8-2.5-6.6-2.5c-2.3,0-4.3,0.5-6.1,1.5s-3.2,2.5-4.2,4.4c-1,2-1.5,4.5-1.5,7.4
			s0.5,5.3,1.4,7.2s2.2,3.3,3.9,4.2C194.3,52.2,196.3,52.7,198.4,52.7z M194.6,36.2c0.2-3,0.6-5.2,1.4-6.6c0.8-1.4,1.7-2.1,2.9-2.1
			c0.8,0,1.4,0.4,1.9,1.2c0.5,0.8,0.8,1.9,1.1,3.2c0.3,1.3,0.3,2.8,0.3,4.3l0,0H194.6L194.6,36.2z M225.4,52v-1
			c-1.5,0-2.6-0.3-3.4-0.8c-0.8-0.5-1.1-1.6-1.1-3.1l0,0V34.3c0-0.9,0.2-1.7,0.6-2.6s0.9-1.7,1.6-2.3c0.7-0.7,1.4-1,2.2-1.2
			c0.4-0.2,0.9-0.2,1.3,0c-0.6,0.4-1.1,0.9-1.5,1.5s-0.6,1.3-0.6,2.2c0,0.9,0.3,1.7,0.9,2.2c0.6,0.6,1.5,0.8,2.6,0.8s2-0.4,2.7-1.1
			c0.7-0.8,1-1.7,1-2.9c0-0.7-0.2-1.4-0.5-2.1s-0.8-1.2-1.4-1.7s-1.5-0.6-2.5-0.6s-2,0.2-2.8,0.6s-1.6,1-2.2,1.7s-1.2,1.5-1.5,2.4
			l0,0v-4.5c-1,0.2-2.1,0.4-3.2,0.5s-2.4,0.2-3.8,0.2c-1,0-2,0-3-0.1l0,0v1c1.2,0,2,0.3,2.4,1s0.6,1.8,0.6,3.2l0,0v15.1
			c0,1.3-0.2,2.3-0.7,2.7c-0.5,0.5-1.3,0.7-2.4,0.7l0,0v1c0.7,0,1.7-0.1,3-0.1s2.6-0.1,3.9-0.1c1.5,0,3,0,4.4,0.1
			C223.6,51.9,224.7,52,225.4,52L225.4,52z M239.6,22.2c1.3,0,2.4-0.3,3.2-1s1.2-1.6,1.2-2.7s-0.4-2.1-1.2-2.7c-0.8-0.7-1.8-1-3.2-1
			s-2.4,0.3-3.2,1s-1.2,1.6-1.2,2.7s0.4,2.1,1.2,2.7S238.2,22.2,239.6,22.2z M246.4,52v-1c-1.1,0-1.9-0.2-2.4-0.7s-0.7-1.4-0.7-2.7
			l0,0V26.7c-1,0.2-2.1,0.4-3.2,0.5s-2.4,0.2-3.8,0.2c-1,0-2,0-3-0.1l0,0v1c1.2,0,2,0.3,2.4,1s0.6,1.8,0.6,3.2l0,0v15.1
			c0,1.3-0.2,2.3-0.7,2.7c-0.5,0.5-1.3,0.7-2.4,0.7l0,0v1c0.6,0,1.6-0.1,2.9-0.1s2.5-0.1,3.8-0.1c1.2,0,2.5,0,3.7,0.1
			C244.9,51.9,245.8,52,246.4,52L246.4,52z M263,52v-1c-1.4,0-2.5-0.3-3.3-0.8s-1.2-1.6-1.2-3.1l0,0V28.2h5.1v-1h-5.1v-4.4
			c0-1.9,0.1-3.3,0.2-4.2s0.4-1.6,0.7-2.1c0.3-0.4,0.6-0.7,1-0.9s0.9-0.3,1.6-0.3c0.5,0,0.9,0.1,1.2,0.2c0.3,0.1,0.5,0.3,0.6,0.5
			c-0.9,0.3-1.6,0.7-2.1,1.3s-0.7,1.4-0.7,2.2c0,1.1,0.3,1.9,1,2.5s1.6,0.9,2.6,0.9s1.8-0.3,2.5-1c0.6-0.7,0.9-1.4,0.9-2.3
			c0-0.8-0.2-1.5-0.5-2.1s-0.7-1.1-1.2-1.5c-0.6-0.5-1.4-0.9-2.2-1.2s-1.8-0.4-2.9-0.4c-1.3,0-2.6,0.2-3.8,0.7s-2.1,1-2.8,1.7
			c-1.1,1.1-1.9,2.4-2.4,3.9c-0.4,1.5-0.7,3.7-0.7,6.5l0,0h-3.3v1h3.3v19.3c0,1.3-0.2,2.3-0.7,2.7s-1.3,0.7-2.4,0.7l0,0v1
			c0.6,0,1.5-0.1,2.7-0.1s2.4-0.1,3.6-0.1c1.7,0,3.2,0,4.8,0.1S262.1,52,263,52L263,52z"/>
	</g>
</g>
<g class="st0">
	<g class="st1">
		<path class="st4" d="M8.5,21.6c0,1.7,0.1,3.2,0.2,4.3H7.5c-0.3-2.7-0.6-4.7-1-6S5.4,17.6,4.3,17c-1-0.6-2.6-0.9-4.8-0.9h-3.3
			c-1.2,0-2.2,0.1-2.7,0.3c-0.6,0.2-1,0.6-1.2,1.2S-8,19.1-8,20.5v12.8h3.8c1.2,0,2.1-0.3,2.8-0.9c0.7-0.6,1.1-1.2,1.3-2
			s0.4-1.8,0.5-2.9l0.2-1h1.2c-0.1,1.5-0.2,3.1-0.2,4.9v2.5c0,1.8,0.1,4.2,0.3,7.4H0.7c0-0.2-0.1-1.1-0.3-2.5s-0.6-2.5-1.4-3.2
			s-1.9-1.1-3.2-1.1H-8v12c0,1.3,0.1,2.3,0.4,2.9c0.3,0.6,0.8,1,1.5,1.2s1.8,0.3,3.4,0.4v1c-1.8-0.1-4.4-0.2-7.6-0.2
			c-3,0-5.2,0.1-6.7,0.2v-1c1.2-0.1,2.2-0.2,2.7-0.4c0.6-0.2,1-0.6,1.2-1.2s0.3-1.5,0.3-2.9v-26c0-1.3-0.1-2.3-0.3-2.9
			s-0.6-1-1.2-1.2c-0.6-0.2-1.5-0.3-2.8-0.4v-1c3.4,0.1,8.4,0.2,15.1,0.2c5.1,0,8.7-0.1,10.9-0.2C8.6,17.4,8.5,19.6,8.5,21.6z"/>
		<path class="st4" d="M31.4,25.5c0.9,0.8,1.3,1.8,1.3,2.9c0,0.9-0.3,1.7-0.8,2.3c-0.5,0.6-1.3,1-2.2,1c-0.8,0-1.4-0.2-2-0.7
			c-0.5-0.5-0.8-1.1-0.8-2c0-1.1,0.6-2.1,1.8-2.8c-0.2-0.3-0.6-0.5-1.1-0.5c-1.4,0-2.6,0.5-3.7,1.6s-2,2.3-2.6,3.9s-0.9,3-0.9,4.3
			v11c0,1.6,0.5,2.7,1.4,3.3s2.3,0.9,4.1,0.9v1.1l-1.2-0.1c-3.5-0.1-5.8-0.2-6.8-0.2c-0.9,0-2.9,0.1-6.1,0.2v-1.1
			c1.5,0,2.5-0.3,3.1-0.8s0.9-1.5,0.9-2.9V30.7c0-1.6-0.3-2.8-0.9-3.5c-0.6-0.7-1.6-1.1-3.1-1.1V25c1.1,0.1,2.2,0.2,3.2,0.2
			c2.2,0,4-0.2,5.4-0.7V31c0.6-1.7,1.6-3.3,3-4.6c1.4-1.4,2.9-2,4.6-2C29.4,24.3,30.5,24.7,31.4,25.5z"/>
		<path class="st4" d="M37.1,50.5c-1.1-1.1-1.6-2.6-1.6-4.6c0-1.6,0.4-2.8,1.3-3.8c0.8-1,1.9-1.8,3-2.4c1.2-0.6,2.7-1.2,4.6-1.9
			s3.4-1.3,4.3-1.8c0.9-0.6,1.4-1.3,1.4-2.2v-3.2c0-2-0.4-3.4-1.3-4.1s-2-1.1-3.6-1.1c-2.4,0-4.1,0.6-5.1,1.9
			c0.7,0.2,1.3,0.5,1.7,1.1c0.5,0.6,0.7,1.2,0.7,2.1s-0.3,1.6-0.8,2.1c-0.6,0.5-1.3,0.8-2.1,0.8c-1,0-1.7-0.3-2.2-0.9
			c-0.5-0.6-0.7-1.3-0.7-2.2c0-0.8,0.2-1.5,0.6-2.1c0.4-0.6,1-1.1,1.8-1.7s1.9-1.1,3.2-1.5s2.7-0.6,4.2-0.6c2.7,0,4.7,0.6,6.1,1.9
			c0.9,0.8,1.4,1.8,1.7,2.9s0.4,2.6,0.4,4.4V48c0,0.9,0.1,1.5,0.4,1.9c0.2,0.4,0.7,0.6,1.2,0.6c0.4,0,0.8-0.1,1.2-0.3
			s0.8-0.5,1.2-0.8l0.6,0.9c-0.9,0.7-1.7,1.2-2.3,1.5s-1.4,0.4-2.4,0.4c-1.7,0-2.8-0.4-3.5-1.2s-1-2-1-3.4c-1,1.7-2.2,2.9-3.6,3.6
			c-1.4,0.7-2.9,1-4.6,1C39.8,52.1,38.1,51.6,37.1,50.5z M50.1,46.1V35.9c-0.3,0.5-0.7,0.9-1.3,1.2s-1.4,0.7-2.5,1.2
			c-1.3,0.6-2.4,1.1-3.2,1.6S41.6,41.1,41,42s-0.9,2-0.9,3.3c0,1.6,0.4,2.7,1.1,3.5c0.8,0.8,1.8,1.2,3,1.2
			C46.5,50.1,48.5,48.7,50.1,46.1z"/>
		<path class="st4" d="M83.9,26.2c0.7,0.7,1.1,1.6,1.4,2.6s0.4,2.4,0.4,4.2v13.9c0,1.4,0.3,2.4,0.9,2.9s1.6,0.8,3.1,0.8v1.1
			c-3.2-0.1-5.3-0.2-6.2-0.2c-1,0-2.9,0.1-5.8,0.2v-1.1c1.3,0,2.2-0.3,2.7-0.8s0.8-1.5,0.8-2.9v-15c0-1.9-0.3-3.4-0.8-4.4
			c-0.6-1-1.7-1.5-3.4-1.5c-1.4,0-2.7,0.4-3.8,1.2c-1.1,0.8-2,2-2.6,3.4c-0.6,1.4-0.9,3-0.9,4.8v11.5c0,1.4,0.3,2.4,0.8,2.9
			s1.4,0.8,2.7,0.8v1.1c-2.9-0.1-4.9-0.2-5.8-0.2c-1,0-3.1,0.1-6.2,0.2v-1.1c1.5,0,2.5-0.3,3.1-0.8c0.6-0.5,0.9-1.5,0.9-2.9V30.7
			c0-1.6-0.3-2.8-0.9-3.5s-1.6-1.1-3.1-1.1V25c1.1,0.1,2.2,0.2,3.2,0.2c2.2,0,4-0.2,5.4-0.7v6.1c0.9-2.2,2.1-3.8,3.6-4.8
			c1.5-1,3.3-1.5,5.2-1.5C80.8,24.3,82.6,24.9,83.9,26.2z"/>
		<path class="st4" d="M98.2,51h5.7c2.1,0,3.8-0.7,5-2s1.9-3.5,2.2-6.4h1.2c0,4.5,0.1,7.7,0.2,9.4c-2.7-0.1-6-0.2-9.7-0.2
			c-3.3,0-6.8,0.1-10.5,0.3l15-26.3h-5.7c-2.3,0-4,0.6-5.2,2c-1.1,1.3-1.8,3.4-2.1,6.4h-1.2c0-4.5-0.1-7.7-0.2-9.4
			c2.7,0.1,6,0.2,9.7,0.2c3.3,0,6.8-0.1,10.5-0.3L98.2,51z"/>
		<path class="st4" d="M125.3,46.9c0,1.4,0.3,2.4,0.9,2.9s1.6,0.8,3.1,0.8v1.1c-3.2-0.1-5.3-0.2-6.3-0.2s-3.1,0.1-6.3,0.2v-1.1
			c1.5,0,2.5-0.3,3.1-0.8s0.9-1.5,0.9-2.9V30.7c0-1.6-0.3-2.8-0.9-3.5s-1.6-1.1-3.1-1.1V25c1.1,0.1,2.2,0.2,3.2,0.2
			c2.2,0,4-0.2,5.4-0.7L125.3,46.9L125.3,46.9z M124.9,13c0.7,0.7,1,1.4,1,2.3s-0.3,1.7-1,2.3c-0.7,0.7-1.4,1-2.3,1s-1.7-0.3-2.3-1
			c-0.7-0.7-1-1.4-1-2.3c0-0.9,0.3-1.7,1-2.3c0.7-0.7,1.4-1,2.3-1S124.3,12.3,124.9,13z"/>
		<path class="st4" d="M144.5,24.8c1,0.4,1.8,0.8,2.3,1.4c0.4,0.3,0.7,0.4,0.9,0.4c0.6,0,1-0.8,1.1-2.3h1.2
			c-0.1,1.7-0.2,4.6-0.2,8.8h-1.2c-0.4-2.3-1.1-4.2-2.2-5.7c-1.1-1.5-2.7-2.2-4.9-2.2c-1.2,0-2.3,0.4-3.1,1.1s-1.2,1.7-1.2,2.9
			c0,1.2,0.4,2.2,1.2,3s2.2,1.8,4,2.9c0.3,0.2,0.8,0.5,1.4,0.9c1.6,1,2.9,2,3.8,2.8c1,0.8,1.8,1.7,2.4,2.8c0.6,1,0.9,2.2,0.9,3.6
			c0,2.3-0.9,4.1-2.6,5.4c-1.7,1.3-3.8,1.9-6.3,1.9c-1.6,0-2.9-0.2-4.1-0.7c-0.8-0.4-1.5-0.8-2.1-1.4c-0.1-0.1-0.3-0.2-0.5-0.2
			s-0.5,0.2-0.7,0.5s-0.3,0.8-0.4,1.5H133c0.1-2,0.2-5.4,0.2-10.4h1.2c0.4,3.3,1.1,5.7,2.1,7.3s2.7,2.4,5.1,2.4
			c1.2,0,2.3-0.4,3.2-1.2s1.4-2,1.4-3.7c0-1.4-0.5-2.5-1.4-3.4s-2.4-2.1-4.5-3.4c-1.7-1.1-3-2-3.9-2.7s-1.7-1.5-2.3-2.5
			s-0.9-2.2-0.9-3.5c0-2.2,0.7-3.8,2.2-5s3.3-1.7,5.5-1.7C142.5,24.3,143.6,24.5,144.5,24.8z"/>
		<path class="st4" d="M180,49.9c0.5,0.4,1.1,0.7,1.9,0.8v1.1c-2.1-0.1-3.5-0.2-4.2-0.2c-0.9,0-2.9,0.1-5.8,0.2v-1.1
			c0.5,0,0.9-0.1,1.2-0.3s0.4-0.4,0.4-0.7s-0.1-0.5-0.3-0.8l-6-8.7c-0.6-0.9-1.2-1.4-1.7-1.7s-1.3-0.5-2.2-0.5v9
			c0,1.4,0.3,2.4,0.8,2.9s1.4,0.8,2.7,0.8v1.1c-2.9-0.1-4.8-0.2-5.8-0.2s-3.1,0.1-6.3,0.2v-1.1c1.5,0,2.5-0.3,3.1-0.8
			s0.9-1.5,0.9-2.9V17.2c0-1.6-0.3-2.8-0.9-3.5c-0.6-0.7-1.6-1.1-3.1-1.1v-1.1c1.1,0.1,2.2,0.2,3.2,0.2c2.2,0,4-0.2,5.4-0.7v25.8
			c1-0.1,1.8-0.4,2.5-0.7s1.3-0.8,1.9-1.4l3.8-4c1.1-1.1,1.7-2.1,1.7-2.9c0-0.6-0.4-1-1.1-1.3c-0.7-0.3-1.6-0.4-2.8-0.4v-1
			c2.4,0.1,4.4,0.2,5.9,0.2c1.6,0,3.1-0.1,4.5-0.2v1c-1.7,0.1-3.3,1-4.7,2.4l-6.3,6.7l9.5,12.8C178.9,48.8,179.5,49.5,180,49.9z"/>
		<path class="st4" d="M185.9,50.5c-1.1-1.1-1.6-2.6-1.6-4.6c0-1.6,0.4-2.8,1.3-3.8c0.8-1,1.9-1.8,3-2.4c1.2-0.6,2.7-1.2,4.6-1.9
			c1.9-0.7,3.4-1.3,4.3-1.8c0.9-0.6,1.4-1.3,1.4-2.2v-3.2c0-2-0.4-3.4-1.3-4.1c-0.8-0.7-2-1.1-3.6-1.1c-2.4,0-4.1,0.6-5.1,1.9
			c0.7,0.2,1.3,0.5,1.7,1.1c0.5,0.6,0.7,1.2,0.7,2.1s-0.3,1.6-0.8,2.1c-0.6,0.5-1.3,0.8-2.1,0.8c-1,0-1.7-0.3-2.2-0.9
			c-0.5-0.6-0.7-1.3-0.7-2.2c0-0.8,0.2-1.5,0.6-2.1c0.4-0.6,1-1.1,1.8-1.7s1.9-1.1,3.2-1.5s2.7-0.6,4.2-0.6c2.7,0,4.7,0.6,6.1,1.9
			c0.9,0.8,1.4,1.8,1.7,2.9s0.4,2.6,0.4,4.4V48c0,0.9,0.1,1.5,0.4,1.9c0.2,0.4,0.7,0.6,1.2,0.6c0.4,0,0.8-0.1,1.2-0.3
			s0.8-0.5,1.2-0.8l0.6,0.9c-0.9,0.7-1.7,1.2-2.3,1.5s-1.4,0.4-2.4,0.4c-1.7,0-2.8-0.4-3.5-1.2s-1-2-1-3.4c-1,1.7-2.2,2.9-3.6,3.6
			c-1.4,0.7-2.9,1-4.6,1C188.5,52.1,186.9,51.6,185.9,50.5z M198.9,46.1V35.9c-0.3,0.5-0.7,0.9-1.3,1.2s-1.4,0.7-2.5,1.2
			c-1.3,0.6-2.4,1.1-3.2,1.6s-1.5,1.2-2.1,2.1c-0.6,0.9-0.9,2-0.9,3.3c0,1.6,0.4,2.7,1.1,3.5c0.8,0.8,1.8,1.2,3,1.2
			C195.3,50.1,197.3,48.7,198.9,46.1z"/>
		<path class="st3" d="M232.3,36.9v9.4c0,1.3,0.1,2.3,0.4,2.9c0.3,0.6,0.8,1,1.5,1.2s1.8,0.3,3.4,0.4v1c-1.8-0.1-4.4-0.2-7.6-0.2
			c-3,0-5.2,0.1-6.7,0.2v-1c1.2-0.1,2.2-0.2,2.7-0.4s1-0.6,1.2-1.2s0.3-1.5,0.3-2.9V20.5c0-1.3-0.1-2.3-0.3-2.9s-0.6-1-1.2-1.2
			s-1.5-0.3-2.7-0.4v-1c1.5,0.1,3.6,0.2,6.3,0.2l5.6-0.1c0.7,0,1.4-0.1,2.2-0.1c4.1,0,7.2,0.9,9.3,2.8s3.2,4.3,3.2,7.5
			c0,1.9-0.4,3.7-1.3,5.5c-0.8,1.8-2.3,3.2-4.3,4.4s-4.7,1.8-8.1,1.8L232.3,36.9L232.3,36.9z M233.7,16.4c-0.5,0.2-0.9,0.7-1.1,1.3
			s-0.3,1.6-0.3,2.8v15.4h3.5c3.4,0,5.7-0.9,7-2.7s2-4.3,2-7.3c0-3.4-0.7-5.8-2-7.4s-3.5-2.4-6.6-2.4
			C235.1,16,234.3,16.1,233.7,16.4z"/>
		<path class="st3" d="M255.1,50.5c-1.1-1.1-1.6-2.6-1.6-4.6c0-1.6,0.4-2.8,1.3-3.8c0.8-1,1.9-1.8,3-2.4c1.2-0.6,2.7-1.2,4.6-1.9
			s3.4-1.3,4.3-1.8c0.9-0.6,1.4-1.3,1.4-2.2v-3.2c0-2-0.4-3.4-1.3-4.1c-0.8-0.7-2-1.1-3.6-1.1c-2.4,0-4.1,0.6-5.1,1.9
			c0.7,0.2,1.3,0.5,1.7,1.1c0.5,0.6,0.7,1.2,0.7,2.1s-0.3,1.6-0.8,2.1c-0.6,0.5-1.3,0.8-2.1,0.8c-1,0-1.7-0.3-2.2-0.9
			c-0.5-0.6-0.7-1.3-0.7-2.2c0-0.8,0.2-1.5,0.6-2.1s1-1.1,1.8-1.7s1.9-1.1,3.2-1.5c1.3-0.4,2.7-0.6,4.2-0.6c2.7,0,4.7,0.6,6.1,1.9
			c0.9,0.8,1.4,1.8,1.7,2.9c0.3,1.1,0.4,2.6,0.4,4.4V48c0,0.9,0.1,1.5,0.4,1.9c0.2,0.4,0.7,0.6,1.2,0.6c0.4,0,0.8-0.1,1.2-0.3
			c0.4-0.2,0.8-0.5,1.2-0.8l0.6,0.9c-0.9,0.7-1.7,1.2-2.3,1.5c-0.6,0.3-1.4,0.4-2.4,0.4c-1.7,0-2.8-0.4-3.5-1.2s-1-2-1-3.4
			c-1,1.7-2.2,2.9-3.6,3.6c-1.4,0.7-2.9,1-4.6,1C257.8,52.1,256.2,51.6,255.1,50.5z M260.9,14c0.6,0.6,0.9,1.3,0.9,2.1
			c0,0.8-0.3,1.5-0.9,2.1s-1.3,0.9-2.1,0.9c-0.8,0-1.5-0.3-2.1-0.9s-0.9-1.3-0.9-2.1c0-0.8,0.3-1.5,0.9-2.1s1.3-0.9,2.1-0.9
			S260.3,13.4,260.9,14z M268.1,46.1V35.9c-0.3,0.5-0.7,0.9-1.3,1.2c-0.6,0.3-1.4,0.7-2.5,1.2c-1.3,0.6-2.4,1.1-3.2,1.6
			c-0.8,0.5-1.5,1.2-2.1,2.1c-0.6,0.9-0.9,2-0.9,3.3c0,1.6,0.4,2.7,1.1,3.5c0.8,0.8,1.8,1.2,3,1.2C264.6,50.1,266.5,48.7,268.1,46.1
			z M272,14c0.6,0.6,0.9,1.3,0.9,2.1c0,0.8-0.3,1.5-0.9,2.1s-1.3,0.9-2.1,0.9c-0.8,0-1.5-0.3-2.1-0.9s-0.9-1.3-0.9-2.1
			c0-0.8,0.3-1.5,0.9-2.1s1.3-0.9,2.1-0.9S271.4,13.4,272,14z"/>
		<path class="st3" d="M287.3,25h7.7v1h-7.7v20.1c0,1.6,0.3,2.7,0.9,3.4s1.4,1,2.5,1s2-0.4,2.8-1.3s1.4-2.3,1.9-4.3l1,0.3
			c-0.9,4.8-3.1,7.2-6.8,7.2c-1.2,0-2.1-0.1-2.9-0.4c-0.8-0.3-1.4-0.7-2-1.3c-0.8-0.8-1.3-1.7-1.6-2.8c-0.3-1.1-0.4-2.6-0.4-4.5
			V26.1h-5v-1h5v-8c1.9-0.1,3.5-0.3,4.7-0.7V25H287.3z"/>
		<path class="st3" d="M303.6,51h5.7c2.1,0,3.8-0.7,5-2s1.9-3.5,2.2-6.4h1.2c0,4.5,0.1,7.7,0.2,9.4c-2.7-0.1-6-0.2-9.7-0.2
			c-3.3,0-6.8,0.1-10.5,0.3l15-26.3H307c-2.3,0-4,0.6-5.2,2c-1.1,1.3-1.8,3.4-2.1,6.4h-1.2c0-4.5-0.1-7.7-0.2-9.4
			c2.7,0.1,6,0.2,9.7,0.2c3.3,0,6.8-0.1,10.5-0.3L303.6,51z"/>
		<path class="st3" d="M343.4,27.8c2.2,2.3,3.2,5.9,3.2,10.6s-1.1,8.3-3.2,10.6c-2.2,2.3-5,3.5-8.6,3.5s-6.4-1.2-8.6-3.5
			s-3.2-5.9-3.2-10.6c0-4.8,1.1-8.3,3.2-10.6c2.2-2.3,5-3.5,8.6-3.5S341.2,25.4,343.4,27.8z M329.9,28.5c-1.2,2.1-1.8,5.4-1.8,9.9
			s0.6,7.8,1.8,9.9s2.9,3.2,4.9,3.2s3.7-1.1,4.9-3.2c1.2-2.1,1.8-5.4,1.8-9.9s-0.6-7.8-1.8-9.9c-1.2-2.1-2.9-3.2-4.9-3.2
			S331.1,26.4,329.9,28.5z"/>
		<path class="st3" d="M358.8,46.9c0,1.4,0.3,2.4,0.9,2.9s1.6,0.8,3.1,0.8v1.1c-3.2-0.1-5.3-0.2-6.3-0.2s-3.1,0.1-6.3,0.2v-1.1
			c1.5,0,2.5-0.3,3.1-0.8s0.9-1.5,0.9-2.9V17.2c0-1.6-0.3-2.8-0.9-3.5s-1.6-1.1-3.1-1.1v-1.1c1.1,0.1,2.1,0.2,3.2,0.2
			c2.2,0,4-0.2,5.4-0.7L358.8,46.9L358.8,46.9z"/>
		<path class="st3" d="M390,49.6c0.6,0.7,1.6,1.1,3.1,1.1v1.1c-1.1-0.1-2.2-0.2-3.2-0.2c-2.2,0-4,0.2-5.4,0.7v-4.6
			c-0.6,1.6-1.6,2.7-2.8,3.6c-1.2,0.8-2.8,1.2-4.6,1.2c-3.3,0-5.9-1.2-7.8-3.6c-1.9-2.4-2.8-5.9-2.8-10.5c0-3,0.5-5.6,1.6-7.7
			s2.5-3.7,4.3-4.8c1.8-1.1,3.8-1.6,5.9-1.6c1.3,0,2.5,0.3,3.6,0.8s2,1.3,2.6,2.3V17.2c0-1.6-0.3-2.8-0.9-3.5s-1.6-1.1-3.1-1.1v-1.1
			c1.1,0.1,2.2,0.2,3.2,0.2c2.2,0,4-0.2,5.4-0.7v35.1C389.1,47.7,389.4,48.9,390,49.6z M382.2,49.4c1.1-1,1.8-2.5,2.2-4.4V29.5
			c-0.9-2.7-2.9-4-5.8-4c-2.2,0-3.9,1.1-5.2,3.3c-1.3,2.2-2,5.4-1.9,9.6c0,4.2,0.6,7.3,1.8,9.4s3,3.1,5.3,3.1
			C379.9,50.9,381.1,50.4,382.2,49.4z"/>
	</g>
</g>
<g>
	<path class="st5" d="M387.6,93.9c-2.1,21.4-9.7,41.9-17.9,54.7c-0.6,0.9-1.2,1.8-1.8,2.7c-3.5-5.4-7.1-10.7-10.4-16.2
		c-0.7-1.2-0.9-3.3-0.3-4.6c4.1-8.8,7.3-17.7,8.8-27.4c1.8-11.5,1.6-22.9,0.3-34.5c-1.4-12.5-4.7-24.5-8.8-36.3
		c-2.1-6.2-6.6-9.8-13-8.9c-8.1,1.2-16.2,2.9-24.1,5.2C304,33.7,288.6,41,275.2,51.9c-3.2,2.6-6.3,5.5-9.2,8.5
		c-1.8,1.9-3.1,2.5-5.9,1.4c-5-1.9-10.4-3-15.6-4.5c-0.5-0.2-1-0.5-1.6-0.9c13.5-16.9,30.2-29.3,49.7-38.2
		c13.3-6.1,27.2-10.6,41.4-13.9c7.5-1.7,15.2-2.3,22.9-3.1c5.6-0.5,10.1,2.7,12.4,7.8c6.6,14.6,11.4,29.7,14.9,45.2
		c1,4.4,1.8,8.9,2.7,13.3C387.9,74.4,388,81.8,387.6,93.9z"/>
	<linearGradient id="SVGID_1_" gradientUnits="userSpaceOnUse" x1="277" y1="79" x2="354.3785" y2="79">
		<stop  offset="0" style="stop-color:#2AEAFF"/>
		<stop  offset="1" style="stop-color:#FFEC15"/>
	</linearGradient>
	<path class="st6" d="M346.5,121.6c12.7-29.2,8.4-57.3-1.3-85.2c-25.4,4.8-48.7,13.4-68.2,30.9C304.4,80.1,327.4,97.8,346.5,121.6z"
		/>
	<path d="M148.6,55.6c-7.7,2.4-14.3,4.4-20.8,6.3c-0.6,0.2-1.7-0.6-2.3-1.2C113,47.7,97.8,38.8,81,32.8c-9.8-3.5-19.9-6.3-30-8.9
		c-9.9-2.6-16.4,1.6-19.4,12.6c-2.9,10.8-5.9,21.8-7.5,32.9c-1.2,8.5-0.3,17.3-0.1,26c0.3,11.1,3.6,21.4,8.2,31.4
		c0.1,0.1,0,0.3,0.1,0.4c4.4,5.3,1.5,9.6-1.6,14.1c-1.9,2.7-3.4,5.6-5,8.4c-1.1,2-1.8,2.6-3.4,0.2c-7.7-11.5-12.6-24.1-15.9-37.4
		C2.7,97.3,3.1,82,4.6,67c2-19.4,7.5-38.1,15.7-55.9C24.6,2,29.2-0.1,39.2,1.8c8.4,1.6,17,2.9,25.3,5.2c10.8,3,21.5,6.3,31.8,10.5
		c11.6,4.7,22.5,11.1,32.1,19.3C135.2,42.6,141.4,48.9,148.6,55.6z"/>
	
		<linearGradient id="SVGID_00000163773040539882470470000005806864654531550348_" gradientUnits="userSpaceOnUse" x1="36.4215" y1="79.1" x2="113.8" y2="79.1">
		<stop  offset="0" style="stop-color:#EC2AFF"/>
		<stop  offset="3.285784e-02" style="stop-color:#E335F7"/>
		<stop  offset="0.2294" style="stop-color:#B272CE"/>
		<stop  offset="0.4183" style="stop-color:#89A4AB"/>
		<stop  offset="0.5946" style="stop-color:#69CC90"/>
		<stop  offset="0.7556" style="stop-color:#52E87C"/>
		<stop  offset="0.8959" style="stop-color:#44F970"/>
		<stop  offset="1" style="stop-color:#3FFF6C"/>
	</linearGradient>
	<path style="fill:url(#SVGID_00000163773040539882470470000005806864654531550348_);" d="M44.3,121.7c-12.7-29.2-8.4-57.3,1.3-85.2
		c25.4,4.8,48.7,13.4,68.2,30.9C86.4,80.1,63.3,97.8,44.3,121.7z"/>
</g>
<g>
	<g>
		<path d="M12.4,231.4c0.5-2.9,1.1-5.8,1.4-8.8c1.7-16.4,6.3-32,12.6-47.2c6.1-14.7,14-28.4,23.8-41c8.3-10.7,17.6-20.4,28.1-29.1
			C89.5,96,101.6,88,114.6,81.5c15.3-7.7,31.5-12.9,48.3-16c7.8-1.5,15.9-1.9,23.9-2.2c8-0.4,16.2-0.9,24.1,0.1
			c12,1.5,24,3.5,35.7,6.4c19,4.8,36.4,13.4,52.7,24.3c12.2,8.2,23.4,17.7,33.3,28.6c12.3,13.6,22.6,28.7,30.4,45.3
			c6.3,13.4,11.2,27.3,13.9,41.8c1.8,9.9,2.7,20.1,2.9,30.2c0.6,29.7,0.7,59.3,0.8,89c0,9.5-2.4,18.4-9.1,25.3
			c-5.6,5.8-12.8,9.3-21,10c-4.2,0.3-8.4,0.1-12.8,0.1c0-35.9,0-71.6,0-108.2c7,0.5,14,1.1,21.2,1.6c1.9-53.8-15.4-100.3-57.3-134.7
			c-54.6-44.5-115-50.6-179-21.6c-61.1,34.2-90.4,86.4-88.9,156.2c7.5-0.5,14.5-1,21.7-1.5c0,36.4,0,72.1,0,108.1
			c-10.2,0.4-20.2,1.1-29-5.5c-6.6-4.9-11.2-11.1-13.2-19.2c-0.1-0.4-0.5-0.7-0.7-1C12.4,302.8,12.4,267.1,12.4,231.4z"/>
	</g>
	<g>
		<path d="M120.2,310.6c0,20.7,0,41.5,0,62.2c0,4.1-0.6,8.2-4.3,10.6c-2,1.3-4.4,2.5-6.7,2.5c-6.2-0.1-12.5,1.2-18.6-1.2
			c-7.1-2.8-13.6-11.1-13.6-19.1c0.1-36.8,0.1-73.6,0-110.3c0-8.7,7.5-18.4,17-19.3c5.4-0.5,11.1-0.8,16.5,0c7.2,1,9.7,4.7,9.7,12.2
			C120.2,268.9,120.2,289.7,120.2,310.6z"/>
	</g>
	<g>
		<path d="M272.6,310.6c0-21.2,0-42.4,0-63.6c0-7,2.4-10.9,9-11.6c8-0.9,16.3-1.4,23.7,3.2c5.5,3.4,9.6,8.2,9.7,15
			c0.4,30.2,0.6,60.5,0.7,90.8c0,8-0.4,15.9-0.7,23.9c-0.3,6.2-7.1,14-13.6,16.4c-6.9,2.6-13.9,1.2-20.8,1.2c-4.2,0-7.9-5.5-7.9-9.8
			C272.6,354.2,272.6,332.4,272.6,310.6L272.6,310.6z"/>
	</g>
</g>
</svg>
