<?xml version="1.0" encoding="utf-8"?>
<!-- Generator: Adobe Illustrator 27.7.0, SVG Export Plug-In . SVG Version: 6.00 Build 0)  -->
<svg version="1.1" id="Ebene_1" xmlns="http://www.w3.org/2000/svg" xmlns:xlink="http://www.w3.org/1999/xlink" x="0px" y="0px"
	 viewBox="0 0 704 745.2" style="enable-background:new 0 0 704 745.2;" xml:space="preserve">
<style type="text/css">
	.st0{fill:#BB1C16;}
	.st1{fill:#3F3D56;}
	.st2{fill:#FFFFFF;}
	.st3{fill:#E6E6E6;}
	.st4{fill:#4E342E;}
	.st5{fill:#FFB8B8;}
	.st6{fill:#2F2E41;}
	.st7{opacity:0.2;enable-background:new    ;}
</style>
<path class="st0" d="M96.7,583.8l-8.4-33.1c-14.9-6.3-30.1-11.8-45.6-16.3l-1.1,15.4l-4.3-16.9C18.2,527.4,5.1,525,5.1,525
	s17.6,67.1,54.7,118.4l43.1,7.6l-33.5,4.8c4.7,5.6,9.7,10.9,15,15.9c53.8,50,113.8,72.9,133.9,51.2s-7.2-79.8-61-129.8
	c-16.7-15.5-37.7-27.9-58.6-37.7L96.7,583.8z"/>
<path class="st0" d="M176.4,547.9l9.9-32.6c-9.5-13.1-19.7-25.6-30.6-37.5l-8.9,12.6l5.1-16.7c-13.6-14.6-23.5-23.4-23.5-23.4
	s-19.6,66.6-14.4,129.6l33,28.8l-31.2-13.2c1.1,7.2,2.6,14.3,4.6,21.3c20.3,70.6,59.7,121.2,88.2,113.1s35.1-72,14.8-142.6
	c-6.3-21.9-17.8-43.4-30.7-62.6L176.4,547.9z"/>
<ellipse class="st1" cx="352" cy="727.2" rx="352" ry="18"/>
<path class="st1" d="M557.7,172.9h-4V63.4c0-35-28.4-63.4-63.4-63.4c0,0,0,0,0,0H258.2c-35,0-63.4,28.4-63.4,63.4c0,0,0,0,0,0v601
	c0,35,28.4,63.4,63.4,63.4c0,0,0,0,0,0h232.1c35,0,63.4-28.4,63.4-63.4c0,0,0,0,0,0V250.9h4L557.7,172.9z"/>
<path class="st2" d="M540.2,63.8v600.1c0,26.2-21.2,47.3-47.3,47.3H259.6c-26.2,0-47.3-21.2-47.4-47.3V63.8
	c0-26.2,21.2-47.3,47.4-47.3h28.3c-4.7,11.5,0.8,24.6,12.4,29.3c2.7,1.1,5.6,1.7,8.5,1.7h133c12.4,0,22.5-10.1,22.5-22.5
	c0-2.9-0.6-5.8-1.7-8.5h30.3C519,16.5,540.2,37.7,540.2,63.8z"/>
<path class="st3" d="M540.2,535v128.9c0,26.2-21.2,47.3-47.3,47.3H259.6c-26.2,0-47.3-21.2-47.4-47.3V547.6
	c79.9-93.7,220.6-105,314.3-25.1C531.3,526.4,535.8,530.6,540.2,535z"/>
<polygon class="st3" points="322.2,511.2 312.8,511.2 315.9,327.1 319,327.1 "/>
<path class="st3" d="M330,211.2l15.2-23.5c-4.5-12.5-9.7-24.7-15.6-36.5l-9.8,7.9l7.8-12c-7.4-14.6-13.3-23.8-13.3-23.8
	s-30.5,48.1-40.7,99l19.5,30.2l-21.6-17.5c-0.8,5.9-1.2,11.9-1.2,17.9c0,60.3,19.7,109.2,44,109.2s44-48.9,44-109.2
	c0-18.7-4.2-38.2-10.1-56.3L330,211.2z"/>
<polygon class="st3" points="267.5,524.2 262.9,524.2 264.4,434.9 266,434.9 "/>
<path class="st3" d="M271.3,378.7l7.4-11.4c-2.2-6-4.7-12-7.6-17.7l-4.8,3.9l3.8-5.8c-3.6-7.1-6.4-11.6-6.4-11.6s-14.8,23.3-19.7,48
	l9.5,14.6l-10.5-8.5c-0.4,2.9-0.6,5.8-0.6,8.7c0,29.2,9.5,52.9,21.3,52.9s21.3-23.7,21.3-52.9c0-9.1-2.1-18.5-4.9-27.3L271.3,378.7z
	"/>
<polygon class="st3" points="386.5,524.2 381.9,524.2 383.4,434.9 385,434.9 "/>
<path class="st3" d="M390.3,378.7l7.4-11.4c-2.2-6-4.7-12-7.6-17.7l-4.8,3.9l3.8-5.8c-3.6-7.1-6.4-11.6-6.4-11.6s-14.8,23.3-19.7,48
	l9.5,14.6l-10.5-8.5c-0.4,2.9-0.6,5.8-0.6,8.7c0,29.2,9.5,52.9,21.3,52.9s21.3-23.7,21.3-52.9c0-9.1-2.1-18.5-4.9-27.3L390.3,378.7z
	"/>
<circle class="st3" cx="264" cy="186.2" r="42"/>
<polygon class="st4" points="415.9,234.2 492.5,236.1 502.9,144.7 415.9,144.7 "/>
<path class="st5" d="M396.8,162.6l-21.1-81.1c0,0,5.8-38.9,20-38.3s-3.7,38-3.7,38l23.9,70L396.8,162.6z"/>
<path class="st6" d="M438.2,365.7l3.3,33.1c0,0-104.3,71.2-104.3,101S333.9,624,333.9,624l38.1,1.7l3.3-44.7c0,0,8.3-49.7,3.3-67.9
	l54.6-41.4c0,0-16.6,19.9-13.2,54.6S415,629,415,629l39.7,3.3c0,0,5-36.4,6.6-39.7s9.9-62.9,1.7-79.5l67.9-79.5
	c0,0,23.2-29.8,0-59.6l-13.2-6.6L438.2,365.7z"/>
<path class="st6" d="M335.6,617.4l-3.3,21.5l-21.5,51.3c0,0-36.4,18.2-9.9,21.5s36.4-3.3,41.4-11.6s14.9-21.5,14.9-21.5l-1.7,34.8
	h8.3l13.6-47.5c2.7-9.2,0.8-19.2-5.1-26.8c-0.1-0.1-0.1-0.2-0.2-0.2c-6.6-8.3-3.3-19.9-3.3-19.9L335.6,617.4z"/>
<path class="st6" d="M418.4,617.4l-3.3,21.5l-21.5,51.3c0,0-36.4,18.2-9.9,21.5s36.4-3.3,41.4-11.6s14.9-21.5,14.9-21.5l-1.7,34.8
	h8.3l13.6-47.5c2.7-9.2,0.8-19.2-5.1-26.8c-0.1-0.1-0.1-0.2-0.2-0.2c-6.6-8.3-3.3-19.9-3.3-19.9L418.4,617.4z"/>
<circle class="st5" cx="458.1" cy="162.1" r="33.1"/>
<path class="st5" d="M456.4,190.2l14.9,34.8l29.8-23.2c0,0-18.2-24.8-18.2-28.1L456.4,190.2z"/>
<path class="st0" d="M459.7,210.1l7.1,4.3c0,0,22.8-12.1,28.6-20.6c0,0,20.7-6.9,28.9,9.7s-5,130.8-5,130.8s8.3,11.6,6.6,16.6
	s5,13.2,5,13.2v9.9c0,0-94.4,1.7-94.4-6.6v-26.5l-9.9-3.3c0,0-9.9,21.5-13.2,19.9s-19.9-14.9-19.9-14.9s26.5-87.8,41.4-102.7
	l18.2-31.5L459.7,210.1z"/>
<path class="st0" d="M456.4,211.7c0,0-3.3-6.6-8.3-8.3S418.4,167,418.4,167l3.3-18.2l-33.1-5c0,0,1.7,18.2,8.3,29.8s43,71.2,43,71.2
	l18.2-33.1L456.4,211.7z"/>
<path class="st5" d="M482.1,343.4L462.2,403c0,0-41.4,46.4-18.2,46.4s34.8-41.4,34.8-41.4l28.1-59.6L482.1,343.4z"/>
<path class="st4" d="M418.4,162.5c26.5-10.6,52.7-12.9,78.1,0v-21.4c0-7.7-6.2-14-14-14h0h-53.2c-6.1,0-11,4.9-11,11c0,0,0,0,0,0
	V162.5z"/>
<path class="st0" d="M502.8,208.4c0,0,15.1-12.8,23.3,1.9s3.2,77.6,1.6,85.9s-13.2,59.6-13.2,59.6l-39.7-8.3c0,0-3.3-23.2,6.6-21.5
	L502.8,208.4z"/>
<path class="st4" d="M519.3,194.2c-7.5-4.1-11-13.3-11.2-21.8c-0.2-8.5,1.8-17,2-25.5c0.1-1.7-0.1-3.5-0.4-5.2
	c-0.6-2.1-1.6-4.1-2.9-5.9c-9.7-14.9-26.6-25.4-44.4-25.5c-2.6,0-5.1,0.4-7.5,1.4c-1.8,0.7-2.4,0.6-2.8,2.9
	c-4.2-1.4-8.8-1.2-12.9,0.4c-4.1,1.7-7.9,3.9-11.3,6.7c-2,1.5-3.9,3.2-5.7,4.9c-9.4,9.7-11.6,24.8-8.8,38c0.9,4.3-3.4,8.5-6.9,11.1
	s-7.6,5.1-9.3,9.1c-1.7,3.9-0.7,8.4-1.1,12.6c-0.8,8.1-6.1,15.1-13.7,18.1c1.6,1.9,4,2.7,6.4,2.2c2.4-0.5,4.7-1.6,6.7-3.2
	c7.3-5.4,12.5-13.1,14.8-21.9c1,4.7,0.6,9.5,0.6,14.4c0.1,5.4-0.9,10.7-2.9,15.7c-2,5-5.8,9.1-10.6,11.6c4.6,2.3,9.7,0.6,13.6-2.7
	c3.9-3.3,6.2-8.2,7.8-13c2.6-7.9,3.7-16.3,3.1-24.7c4.3,7.2,5.9,15.7,4.4,24c-1.5,8.4-5.9,16.1-12.5,21.6
	c11.4-0.1,22.6-2.9,32.8-8.2c2.6-1.2,4.9-3,6.7-5.2c3.3-4.5,2.5-10.7,1.6-16.1c-0.7-4.3,4.7-10.6,1.6-13.7c-0.9-0.9-2.2-1.4-3.4-1.5
	c-9.5-0.9-18.2-5.7-23.3-13.7c-3.5-5.6-5.9-12.1-5.9-18.1c0-18.2,14.8-32.9,32.9-32.9s32.9,14.8,32.9,32.9c0,3.3-0.5,6.6-1.5,9.7
	c-1.1,3.6-1.9,7.4-2.4,11.2c-0.6,4.4-1.5,8.7-2.7,13c-2.3,8.2-6.3,16.5-13.7,20.8c2.5,1.4,5.3,1.4,8.1,1.7c9.2,1,18.9,0.8,27.3-3.3
	C513.2,212.1,519.9,203.5,519.3,194.2z"/>
<polygon class="st7" points="490.4,252.3 481.7,323.4 482.1,255.6 "/>
<polygon class="st7" points="518.8,336.3 515.2,358.3 523.5,361.6 "/>
</svg>
