<?xml version="1.0" encoding="utf-8"?>
<!-- Generator: Adobe Illustrator 27.7.0, SVG Export Plug-In . SVG Version: 6.00 Build 0)  -->
<svg version="1.1" id="Ebene_1" xmlns="http://www.w3.org/2000/svg" xmlns:xlink="http://www.w3.org/1999/xlink" x="0px" y="0px"
	 viewBox="0 0 864.7 644.3" style="enable-background:new 0 0 864.7 644.3;" xml:space="preserve">
<style type="text/css">
	.st0{fill:#F2F2F2;}
	.st1{fill:#FFFFFF;}
	.st2{fill:#3F3D56;}
	.st3{fill:#FFB6B6;}
	.st4{fill:#2F2E41;}
	.st5{opacity:0.17;enable-background:new    ;}
	.st6{fill:#BB1C16;}
	.st7{fill:#E6E6E6;}
	.st8{fill:#4E342E;}
	.st9{fill:#CCCCCC;}
	.st10{fill:#E4E4E4;}
	.st11{fill:#CACACA;}
</style>
<path class="st0" d="M828.5,559.3c1-28.4-12.1-56.7-37.4-66.4c6,29.1,0.9,61.8-14.2,90.5c-5.9,11.2-13.5,23.2-11.4,34.6
	c1.3,7.1,6.3,12.6,12.4,16.1c6.1,3.5,13.1,5.2,20.1,6.9l1.2,1.2C814.8,616.2,827.6,587.7,828.5,559.3z"/>
<path class="st1" d="M790.8,493.4c12.7,17.7,19.2,40.5,17.8,63.9c-0.2,5.2-1.2,10.3-2.9,15.2c-1.9,4.9-4.9,9.3-8.9,12.8
	c-3.6,3.4-7.7,6.5-10.5,10.5c-2.8,4-3.9,9-3,13.9c1.1,5.7,4.2,10.4,7.4,14.8c3.6,4.9,7.4,10,8.2,16.4c0.1,0.8,1.3,0.4,1.2-0.4
	c-1.5-11.2-11.2-17.8-14.8-28c-1.7-4.7-1.8-10.2,1.2-15.2c2.6-4.3,6.8-7.5,10.5-10.9c3.9-3.4,7-7.6,9.1-12.2c2-4.8,3.1-9.9,3.5-15.1
	c0.9-11.2,0-22.4-2.7-33.3c-2.9-12-8.1-23.3-15.2-33.4C791.3,491.9,790.4,492.8,790.8,493.4L790.8,493.4z"/>
<path class="st1" d="M809.4,549.7c8.4-1.9,14.6-9,15.5-17.5c0.1-0.8-1.2-0.8-1.3,0c-0.8,7.9-6.6,14.5-14.4,16.2
	c-0.3,0.1-0.6,0.4-0.5,0.7C808.7,549.5,809.1,549.7,809.4,549.7C809.4,549.7,809.4,549.7,809.4,549.7L809.4,549.7z"/>
<path class="st1" d="M798.8,583.8c-6.4-4.4-10.5-11.3-11.4-19c-0.1-0.8-1.3-0.4-1.2,0.4c1,8,5.3,15.2,12,19.7
	C798.7,585.3,799.4,584.2,798.8,583.8L798.8,583.8z"/>
<path class="st1" d="M802.6,514.9c-2.9,1.3-6.2,1.1-8.9-0.6c-0.6-0.4-1.4,0.7-0.7,1.1c2.9,1.9,6.6,2.2,9.8,0.7
	c0.3-0.1,0.6-0.4,0.5-0.8C803.3,515,803,514.8,802.6,514.9C802.7,514.9,802.7,514.9,802.6,514.9z"/>
<path class="st0" d="M701.6,542.2c0.4,0.3,0.8,0.6,1.1,0.9c5,3.8,9.7,8.1,14,12.8c0.3,0.4,0.7,0.7,1,1.1
	c10.2,11.6,17.8,25.2,22.3,40c1.9,6,3.3,12.2,4.1,18.4c1.2,8.7,1.8,18.3,5.8,25.5c0.4,0.8,0.9,1.5,1.4,2.2l46.1,0.8
	c0.1-0.1,0.2-0.1,0.3-0.1l1.8,0.1c0-0.3-0.1-0.7-0.1-1c0-0.2,0-0.4,0-0.6c0-0.1,0-0.3,0-0.4c0,0,0-0.1,0-0.1c0-0.1,0-0.2,0-0.3
	c-0.2-1.9-0.3-3.8-0.5-5.7c0,0,0,0,0,0c-1.5-14.6-4.3-29-9.2-42.2c-0.1-0.4-0.3-0.8-0.5-1.2c-2.2-5.9-5-11.6-8.3-17
	c-1.8-2.9-3.8-5.7-5.9-8.4c-5.5-6.9-12.2-12.8-19.7-17.3c-15.2-9.1-33.8-12.8-52.3-7.7C702.6,541.9,702.1,542.1,701.6,542.2z"/>
<path class="st1" d="M701.6,542.8c22,4.9,41.6,17.2,54.6,34.8c2.9,3.8,5.2,8,6.7,12.6c1.3,4.8,1.3,9.8,0,14.5
	c-1.1,4.6-2.8,9.3-2.9,13.9c-0.1,4.6,2.1,9,5.8,11.7c4.4,3.4,10,4.8,15.5,6.1c6.2,1.3,12.6,2.6,17.3,6.7c0.6,0.5,1.4-0.5,0.9-1
	c-8.1-7.1-20.7-5.9-30.1-11c-4.3-2.4-7.8-6.2-8.1-11.6c-0.3-4.7,1.4-9.5,2.6-14.1c1.4-4.6,1.6-9.5,0.6-14.3c-1.2-4.6-3.3-9-6.1-12.9
	c-6.2-8.7-13.8-16.2-22.7-22.2c-10.2-7-21.7-11.9-33.7-14.6C701.2,541.4,700.9,542.6,701.6,542.8L701.6,542.8z"/>
<path class="st1" d="M752.3,571.6c6.2-6.3,7.5-15.6,3-21.9c-0.4-0.6-1.5,0.2-1.1,0.8c4.2,5.9,2.9,14.5-2.9,20.4
	C750.8,571.5,751.7,572.2,752.3,571.6L752.3,571.6z"/>
<path class="st1" d="M763.7,602.4c-7.8,0.9-15.7-1.5-21.7-6.6c-0.6-0.5-1.4,0.5-0.9,1c6.3,5.3,14.4,7.7,22.6,6.8
	C764.5,603.5,764.5,602.3,763.7,602.4L763.7,602.4z"/>
<path class="st1" d="M725.2,550.9c-1.9,2.8-4.9,4.6-8.2,5c-0.8,0.1-0.8,1.3,0,1.2c3.7-0.4,7-2.4,9.1-5.5c0.2-0.3,0.2-0.6,0-0.9
	C725.8,550.6,725.4,550.6,725.2,550.9z"/>
<path class="st2" d="M687.9,527c0.1-0.1-0.6-0.2-2-0.3V481h-66v3.7h-29.7c-7.3,0-13.1,5.9-13.1,13.1v18.9c0,7.3,5.9,13.1,13.1,13.1
	l30.5,0l13.4,0h0.9l13.4,0l37.4,0h3.2C689.4,529.5,687.5,527.5,687.9,527z"/>
<path class="st2" d="M688.6,527.8c-2.2,3.2-4,3.1-5.5,1c-0.8-1.2-1.5-2.5-2-3.8c-4.7-12.1-7.8-39.7-16.6-30.1
	c-1.8,1.9-3.5,3.8-5.3,5.7c-3.3,3.5-6.8,7.3-10.2,10.6c0,0,0.1-0.4,0.1-0.4c-1.7,1.7-0.4-12.7-1.1-16.7c-0.1-0.9-0.4-1.3-0.7-0.9
	c0-0.4,0-0.8,0-1.2c0-0.6,0-1.2,0.1-1.9c0.1-0.6,0.1-1.1,0.2-1.7l29-155.1c1.6-8.3,8.4-14.7,16.8-15.7c1.9-0.2,3.9-0.1,5.8,0.2
	l5.3,1c2.1,0.4,4.1,1.1,5.9,2.2l0,0c7.2,4.1,11.1,12.3,9.6,20.5L688.6,527.8z"/>
<polygon class="st3" points="441,616.2 427.4,609.7 446.1,552.8 466.2,562.4 "/>
<path class="st3" d="M532.3,607c-1,0.6-2,1.2-3,1.8c-2,1.2-4,2.4-6,3.6c-1,0.6-2,1.2-3,1.8v0l-0.1,0l0,0l-1.5,0.4l-2.2-5.8l-1-2.7
	l-1.4-3.8l-2.6-7l-13.9-36.7l21.6-5.3l0.8,3.3h0l0.4,1.6l7.6,30.6l1.5,6.3l0,0.2l0.9,3.7l0.8,3.2l0.9,3.6L532.3,607z"/>
<path class="st4" d="M661.2,478.1c-1.4,2.2-2.8,4.4-4.2,6.6c-2.6,4-5.3,8-8.1,11.9c0,0,0,0,0,0c-1.6,1.5-3.4,2.8-5.3,3.9
	c-0.1,0.1-0.2,0.1-0.2,0.2c-1.4,0.8-2.9,1.4-4.5,1.8c-0.6,0.1-1.1,0.3-1.7,0.4c-2,0.5-4,0.9-6,1.2c-3.5,0.6-7,1.1-10.5,1.4
	c-0.3,0-0.6,0-0.8,0.1c-14.3,1-28.2-0.6-42.8-3.4c-7.2-1.4-14.5-3-22.1-4.7c-2.5-0.6-5-1.1-7.5-1.7c-0.2,0-0.4-0.1-0.6-0.1
	c-3.6-0.8-7.3-1.6-11-2.3c-4.7-1-9.6-1.9-14.7-2.8l0.4,7.1c0.3,5.5,1.4,10.9,3.4,16c2.2,6.3,3.9,11.3,0.3,21.7l-1.7,5
	c1.8,5.1,1.2,10.7-1.8,15.2l-0.3,0.5l14.5,36.7l0.9,2.4h-7.4l-9.1,0h-15.5l-22.3-44.8l-1.1-2.1v-0.1l2.3-86.2c0-0.8,0.1-1.5,0.2-2.3
	c0.8-7,4.4-13.3,10-17.6c5.3-4.2,12.1-6,18.8-5.1l7.7,1l15.6,2l11,1.4l0.2,0l32.5,4.2l2.3-9.5l0.4-0.2l13.7-5l47.3-17.3l0.1,0
	l3.1-1.1l0.4,0.6c0.1,0.2,0.2,0.4,0.3,0.5c3.1,5.5,5.6,11.3,7.5,17.3c3.2,9.8,5.8,19.8,7.8,30c0.1,0.4,0.2,0.8,0.2,1.2l0,0.1
	c0,0.2,0,0.3,0.1,0.3C664,467.1,663.2,472.6,661.2,478.1z"/>
<path class="st4" d="M663.2,446.4c-0.2-0.6-0.3-1.3-0.5-1.9c-1.6-4.8-3.4-9.5-5.5-14c-2.4-5.2-5.2-10.8-8.6-16.8
	c-1.6-2.9-3.4-6-5.3-9.1c-0.9-1.6-1.9-3.2-2.9-4.8c0-0.1-0.1-0.1-0.1-0.2l-0.3-0.5l-46.8,6.3l-17.4,2.3l-1,8.7l-0.2,2.2c0,0,0,0,0,0
	l-0.7,5.9v0l-0.9,7.7l-0.1,0l-25.8-3.3l-26.6-3.5l-14.3-1.8c-6.7-0.9-13.5,1-18.8,5.1c-5.6,4.3-9.1,10.7-10,17.6
	c-0.1,0.7-0.2,1.4-0.2,2.1l-13.5,32c-8.1,19.1-13.2,39.4-15.3,60l-9.9,31.7l1.4,0.1l21,2l5.5,0.5l12.2-17.8c1.4-2,2.7-4.1,3.9-6.3
	c2-3.5,3.8-7.1,5.4-10.8l26.4-62.8c2,0.4,4.1,0.7,6.1,1c9.3,1.5,18.1,2.7,26.6,3.7c27.7,3.1,51.6,3.3,73,0.7
	c6-0.7,11.8-1.7,17.4-2.9c2.1-0.4,4.1-0.9,6.1-1.4c0.5-0.1,0.9-0.2,1.4-0.3c8.4-2.2,15.1-8.4,17.8-16.7
	C664.1,456.2,664.4,451.2,663.2,446.4z"/>
<path class="st4" d="M445.4,606.9l-14.7-7.1l-2.3-1.1l-3.7,9.1l-25.8,5.7c-3.3,0.7-5.4,4-4.7,7.3c0.4,2,1.8,3.6,3.7,4.4l25.2,10.3
	l8-7.2l-2,9.7l9.5,3.9l10.4-33.1L445.4,606.9z"/>
<polygon class="st4" points="535.9,592.9 536.8,595.3 535.9,595.3 "/>
<path class="st2" d="M359.9,419.9c0-5.4-1.8-9.7-4-9.7H189.4c-2.2,0-4,4.4-4,9.7v220.6c0,1-0.8,1.9-1.8,2c-1.6,0.2-3.2,0.3-4.9,0.4
	c0,0-0.1,0-0.1,0c-0.9,0.1-1.8,0.1-2.6,0.2h0c-0.5-0.8-0.9-1.7-1.3-2.5c-0.1-0.3-0.2-0.6-0.2-0.9V407.2c0-1.5,0.1-3,0.2-4.4
	c0.1-2,0.4-4,0.8-6c1.7-9.3,5.5-15.6,9.9-15.6h175c0.6,0,1.3,0.1,1.8,0.4c0.9,0.4,1.6,0.9,2.3,1.6c0.9,0.9,1.6,1.9,2.2,3
	c2.1,3.8,3.7,9.4,4.2,15.9c0,0.1,0,0.1,0,0.2c0.1,1.6,0.2,3.3,0.2,4.9l0.1,21.4l0.1,12.8l0.3,40.1l0.1,14.2l0.4,146.2l0,0
	c0,1.1-0.9,2-2,2h-8c-1.1,0-2-0.9-2-2L359.9,419.9z"/>
<polygon class="st2" points="241.2,321.7 229.6,372.7 222.2,380.8 216.9,380.8 238.9,288.2 240,303.9 240,303.9 "/>
<path class="st2" d="M296.9,373.8l-67.9-0.4l-6,0l-4.3,0l-5,0h0c-0.7,0-1.4,0.3-1.9,0.8l-8.5,8.5c-0.2,0.2-0.3,0.4-0.5,0.6
	c-0.1,0.1-0.1,0.1-0.1,0.2c-0.6,1.4,0,3.1,1.5,3.7c0.3,0.1,0.7,0.2,1.1,0.2h88c1.1,0,2.1-0.6,2.5-1.6l0.7-1.5l1.4-3l1.6-3.4
	c0.2-0.4,0.3-0.8,0.3-1.2C299.7,375.1,298.5,373.8,296.9,373.8z"/>
<path class="st5" d="M296.4,384.2l-0.7,1.5c-0.5,1-1.4,1.6-2.5,1.6h-88c-1.6,0-2.8-1.3-2.8-2.9c0-0.4,0.1-0.7,0.2-1.1
	c0-0.1,0.1-0.2,0.1-0.2L296.4,384.2z"/>
<polygon class="st5" points="240,303.9 240,303.9 221.1,380.8 216.9,380.8 238.9,288.2 "/>
<path class="st2" d="M263.1,318l-26.7-202.9c-0.1-0.8-0.5-1.5-1.1-1.9l-18.4-23l-1.6-1.3c-0.6-0.5-1.4-0.7-2.1-0.6l-2.8,0.4
	c-1.6,0.2-2.7,1.7-2.5,3.2l0,0l27.6,210.2v0l1.7,12.9l2,15.3v0l3.1,23.8c0.1,0.8,0.6,1.6,1.2,2c0.7,0.5,1.5,0.6,2.3,0.4l1.8-0.4
	c0.7-0.2,1.3-0.6,1.7-1.1l0.8-1.1l0.4-0.5l12.1-33.3C263,319.4,263.2,318.7,263.1,318z"/>
<path class="st5" d="M217,90.2l33.5,263.2l-0.4,0.5l-0.8,1.1c-0.4,0.6-1,1-1.7,1.1l-1.8,0.4c-1.6,0.4-3.1-0.6-3.5-2.1
	c0-0.1,0-0.2-0.1-0.3L207.9,91.9c-0.2-1.6,0.9-3,2.5-3.2l2.8-0.4c0.8-0.1,1.5,0.1,2.1,0.6L217,90.2z"/>
<polygon class="st6" points="218,97.7 235.8,123.1 256.9,284.1 245.4,306.9 "/>
<polygon class="st2" points="600.6,642.3 588.3,642.6 622.3,524.7 634.5,528.4 "/>
<path class="st2" d="M680.6,642.5l-12.2-0.2L635,529.9l-0.5-1.5l7.8-2.4c1.5,0,3.2,0,4.8,0.1l1.2,3.8L680.6,642.5z"/>
<path class="st4" d="M530.8,595.8l-15.4,5.3l-2.4,0.8l3.8,9l-14.3,22.2c-1.8,2.8-1,6.6,1.8,8.5c1.7,1.1,3.8,1.3,5.7,0.5l25.1-10.4
	l0.6-10.7l5.4,8.2l9.5-3.9l-15.9-30.8L530.8,595.8z"/>
<path class="st3" d="M437.1,264.9c2.8,5.4,9.4,7.5,14.8,4.7c0.6-0.3,1.1-0.6,1.6-1l32.5,21.5L486,270l-30.8-17.4
	c-4-4.6-11-5.1-15.6-1.1C435.8,254.9,434.7,260.4,437.1,264.9L437.1,264.9z"/>
<path class="st7" d="M461.3,274.3l15.1-17.2l61.7,36.6l81.7-7.5c15.2-1.4,28.7,9.8,30,25c0.2,1.7,0.2,3.4,0,5.1l0,0
	c-1.4,15.2-14.9,26.4-30.1,25l-92-8.5L461.3,274.3z"/>
<path class="st7" d="M651,274.6l-0.1-0.2l-38.6-3.8l-26.1,46c-22.4,27.4-6.1,46.3-5.2,49.2l-7.8,35.9l1.7,12l0.9,3.6l88.9,46.5
	l-18.3-60.9l17.8-55.5C672.3,322.3,667.3,295.1,651,274.6z"/>
<path class="st8" d="M693.3,234.1c0,0.5,0,1,0,1.5c0,18.5-15.1,33.5-33.6,33.5c-3.5,0-7-0.6-10.4-1.7l-6.2-2c0,0-0.1,0-0.2,0
	l-10.2-3.3c0-0.4,0-0.9,0-1.3c-15.2-6.5,5.8-27.8,11-43.8c0.8-2.5-27-0.6-25.7-2.8c-0.3-0.1-0.6-0.3-0.8-0.5
	c9.7-15.2,28.1-22.4,45.5-17.7c0.2,0,0.5,0.1,0.7,0.2c19.8,0.5,30.1,14.3,30.1,32.1C693.7,230.3,693.6,232.2,693.3,234.1z"/>
<path class="st3" d="M676.2,241.1c-5.5,16.9-23.7,26.1-40.6,20.6c-0.9-0.3-1.8-0.6-2.7-1c-15.3-6.6-23.1-23.7-17.9-39.6
	c0.8-2.4,1.9-4.8,3.2-6.9c9.3-15.1,29.2-19.8,44.3-10.5C675.2,211.6,680.8,227,676.2,241.1L676.2,241.1z"/>
<path class="st8" d="M643.2,265.4c0,0-0.1,0-0.2,0l-10.2-3.3c0-0.4,0-0.9,0-1.3c0.3-3.3,2.7-6.9,5.8-10.6c6.9-8.2,5.8-20.5-2.4-27.5
	c-1.8-1.5-3.9-2.7-6.2-3.5c-0.1,0-0.2-0.1-0.3-0.1c-4-1.3-7.9-3-11.7-4.8c-0.3-0.1-0.6-0.3-0.8-0.5c-2.5-1.4-4.4-2.8-5.2-4.1
	c5.1-15.6,21.9-24.2,37.5-19.1c0,0,0,0,0,0l5.9,1.9c7.4,2.4,13.6,7.7,17.2,14.6c4.2,3,7.4,7.4,10,12.5
	C695.7,245.6,670.8,274.3,643.2,265.4z"/>
<path class="st2" d="M662.7,422.3c0,3.6-2.2,6.8-5.6,8.1c-0.8,0.3-1.6,0.5-2.4,0.5c-0.2,0-0.5,0-0.7,0h-16.8v81.5
	c-0.2,0.3-0.5,0.7-0.8,1c-1.4,1.8-2.9,3.7-4.4,5.5c-0.3,0.4-0.6,0.8-1,1.2c-0.5,0.6-1,1.2-1.5,1.8c-0.2,0.2-0.3,0.4-0.5,0.6
	c-0.8,1-1.6,2-2.5,2.9v0c0,0,0,0,0,0l-0.4,0.5c-0.7,0.8-1.3,1.6-2,2.4c-0.9-0.5-1.8-1.2-2.4-2c-0.4-0.5-0.8-1.1-1.1-1.6c0,0,0,0,0,0
	c0,0,0,0,0-0.1c-0.6-1.2-0.8-2.5-0.8-3.8V431h-37.6c-1.1,0-2.2-0.2-3.2-0.6c-2.6-1-4.6-3.3-5.2-6.1v0c-0.5-2-0.2-4.1,0.7-5.9
	c0,0,0,0,0,0c0.4-0.8,0.9-1.5,1.5-2.1v0c0,0,0,0,0,0c1.6-1.7,3.9-2.6,6.2-2.6H654C658.8,413.6,662.7,417.5,662.7,422.3z"/>
<path class="st2" d="M710.5,254.2c-14.8-2.8-29,7-31.8,21.7c0,0,0,0,0,0v0c-2.4,12.8,4.6,25.5,16.7,30.3l-8.2,43.8l17.1,3.2
	l18.1-96.8L710.5,254.2z"/>
<circle class="st8" cx="685.9" cy="208" r="14"/>
<path class="st8" d="M849.1,248.2c-6.1,2-12.6,2.4-19,2.5c-18.6,0.3-37.7-1.3-54.7-9s-31.6-22.4-35.3-40.7
	c-1.6-7.9-1.4-16.6-6.4-22.9c-5.9-7.5-17.7-8.5-25.9-3.7s-13,14.1-14.4,23.6l-3.3,5.4c0.1,3.5,3.8,5.8,7.3,6.1
	c3.5,0.3,6.9-0.6,10.4-0.4c7.6,0.6,13.8,7.1,16,14.3s1.1,15.2-0.7,22.5s-4.6,14.6-5.7,22.1s-0.3,15.7,4.1,21.9
	c3.3,4.6,8.4,7.7,13.5,10.2c45.6,21.8,100.1,2.5,121.9-43.1c3.1-6.5,5.4-13.4,6.9-20.4C860.9,242.3,855.2,246.2,849.1,248.2z"/>
<path class="st6" d="M580.3,544.2h-28.5c-3.2,0-6-2.4-6.4-5.6c-1.8-13-1.8-26.1,0-39c0.4-3.2,3.1-5.5,6.3-5.6c9-4,18.6-4,28.7,0
	c1.9,0,3.7,0.9,4.9,2.4c1.3,1.5,1.8,3.5,1.4,5.5c-2.3,11.4-2.3,23.1,0,34.5c0.4,1.9-0.1,4-1.4,5.5
	C584.1,543.4,582.3,544.2,580.3,544.2z"/>
<path class="st1" d="M577.3,508.9h-24c-0.8,0-1.5-0.7-1.5-1.5s0.7-1.5,1.5-1.5h24c0.8,0,1.5,0.7,1.5,1.5S578.2,508.9,577.3,508.9z"
	/>
<path class="st1" d="M577.3,520.9h-24c-0.8,0-1.5-0.7-1.5-1.5s0.7-1.5,1.5-1.5h24c0.8,0,1.5,0.7,1.5,1.5S578.2,520.9,577.3,520.9z"
	/>
<path class="st1" d="M577.3,532.9h-24c-0.8,0-1.5-0.7-1.5-1.5s0.7-1.5,1.5-1.5h24c0.8,0,1.5,0.7,1.5,1.5S578.2,532.9,577.3,532.9z"
	/>
<path class="st2" d="M239.6,226.4L239.6,226.4c0.1-0.5,0.5-0.9,1-0.8l154.3,0.4c0.5,0,1,0.3,1,0.8v0c-0.1,0.5-0.5,0.9-1,0.8
	l-154.3-0.4C240.1,227.3,239.7,226.9,239.6,226.4z"/>
<path class="st6" d="M280.4,321.4l-6.6,7.2c-0.6,0.5-1.5,0.6-2.2,0.3c-1.1-0.4-2.1-1-2.8-1.9c-4.7-5.3-9.9-10.1-15.7-14.2
	c-0.9-0.7-1.7-1.6-2.2-2.6c-0.4-0.7-0.4-1.5,0-2.2c0.1-3.9,2.3-6.4,6.6-7.3c0.8-0.8,2.5-0.5,4,0.7c6.3,4.9,12.2,10.3,17.7,16.1
	C280.7,318.9,281.1,320.6,280.4,321.4z"/>
<path class="st1" d="M263.6,305.9L258,312c-0.2,0.2-0.6,0.1-1-0.2s-0.5-0.8-0.3-1l5.5-6.1c0.2-0.2,0.6-0.1,1,0.2
	S263.7,305.7,263.6,305.9z"/>
<path class="st1" d="M269,310.9l-5.5,6.1c-0.2,0.2-0.6,0.1-1-0.2s-0.5-0.8-0.3-1l5.5-6.1c0.2-0.2,0.6-0.1,1,0.2
	S269.2,310.7,269,310.9z"/>
<path class="st1" d="M274.4,315.8l-5.5,6.1c-0.2,0.2-0.6,0.1-1-0.2s-0.5-0.8-0.3-1l5.5-6.1c0.2-0.2,0.6-0.1,1,0.2
	S274.6,315.6,274.4,315.8z"/>
<path class="st9" d="M864.7,643.1c0,0.7-0.5,1.2-1.2,1.2c0,0,0,0,0,0H1.2c-0.7,0-1.2-0.5-1.2-1.2s0.5-1.2,1.2-1.2h862.3
	C864.1,641.9,864.7,642.5,864.7,643.1C864.7,643.1,864.7,643.1,864.7,643.1z"/>
<path class="st3" d="M588.7,507.8c5.2-3.1,6.9-9.8,3.9-15c-0.3-0.6-0.7-1.1-1.1-1.6l19.6-33.7l-20.2,1.1l-15.5,31.8
	c-4.3,4.3-4.4,11.2-0.1,15.6C578.7,509.7,584.3,510.4,588.7,507.8z"/>
<path class="st7" d="M596.6,483l-18.1-14.1l32.9-63.7l-12.3-81.1c-2.3-15.1,8.1-29.2,23.2-31.5c1.7-0.3,3.4-0.4,5.1-0.3l0,0
	c15.2,0.5,27.2,13.3,26.7,28.5l-3,92.4L596.6,483z"/>
<path class="st7" d="M439.7,282.3h-61.1c-3.4,0-6.2-2.8-6.2-6.2v-80.9c0-3.4,2.8-6.2,6.2-6.2h61.1c3.4,0,6.2,2.8,6.2,6.2v80.9
	C445.8,279.5,443.1,282.3,439.7,282.3z"/>
<path class="st1" d="M435.4,277.1h-52.5c-3,0-5.5-2.5-5.5-5.5v-72c0-3,2.5-5.5,5.5-5.5h52.5c3,0,5.5,2.5,5.5,5.5v72
	C440.9,274.7,438.4,277.1,435.4,277.1z"/>
<path class="st6" d="M430.1,207.8h-42c-0.8,0-1.4-0.6-1.4-1.4s0.6-1.4,1.4-1.4h42c0.8,0,1.4,0.6,1.4,1.4S430.9,207.8,430.1,207.8
	L430.1,207.8z"/>
<path class="st6" d="M430.1,213.2h-42c-0.8,0-1.4-0.6-1.4-1.4s0.6-1.4,1.4-1.4h42c0.8,0,1.4,0.6,1.4,1.4S430.9,213.2,430.1,213.2z"
	/>
<path class="st6" d="M406.3,218.7h-18.2c-0.8,0-1.4-0.6-1.4-1.4s0.6-1.4,1.4-1.4h18.2c0.8,0,1.4,0.6,1.4,1.4
	S407.1,218.7,406.3,218.7z"/>
<path class="st10" d="M430.1,230h-42c-0.8,0-1.4-0.6-1.4-1.4s0.6-1.4,1.4-1.4h42c0.8,0,1.4,0.6,1.4,1.4S430.9,230,430.1,230
	L430.1,230z"/>
<path class="st10" d="M430.1,235.4h-42c-0.8,0-1.4-0.6-1.4-1.4s0.6-1.4,1.4-1.4h42c0.8,0,1.4,0.6,1.4,1.4S430.9,235.4,430.1,235.4z"
	/>
<path class="st10" d="M406.3,240.8h-18.2c-0.8,0-1.4-0.6-1.4-1.4s0.6-1.4,1.4-1.4h18.2c0.8,0,1.4,0.6,1.4,1.4
	S407.1,240.8,406.3,240.8z"/>
<path class="st10" d="M430.1,252.2h-42c-0.8,0-1.4-0.6-1.4-1.4c0-0.8,0.6-1.4,1.4-1.4c0,0,0,0,0,0h42c0.8,0,1.4,0.6,1.4,1.4
	C431.5,251.6,430.9,252.2,430.1,252.2C430.1,252.2,430.1,252.2,430.1,252.2z"/>
<path class="st10" d="M430.1,257.6h-42c-0.8,0-1.4-0.6-1.4-1.4s0.6-1.4,1.4-1.4h42c0.8,0,1.4,0.6,1.4,1.4S430.9,257.6,430.1,257.6z"
	/>
<path class="st10" d="M406.3,263h-18.2c-0.8,0-1.4-0.6-1.4-1.4s0.6-1.4,1.4-1.4h18.2c0.8,0,1.4,0.6,1.4,1.4S407.1,263,406.3,263z"/>
<polygon class="st4" points="231.7,174.5 395.7,34.3 395.9,34.3 395.9,36.3 396.4,36.3 233.1,176 "/>
<path class="st1" d="M344.9,335.5h-75.4c-2.5,0-4.4,2-4.4,4.4v46.9c0,2.5,2,4.4,4.4,4.4h75.4c2.5,0,4.4-2,4.4-4.4v-46.9
	C349.4,337.5,347.4,335.5,344.9,335.5z"/>
<path class="st11" d="M344.9,335.5h-75.4c-2.5,0-4.4,2-4.4,4.4v46.9c0,2.5,2,4.4,4.4,4.4h75.4c2.5,0,4.4-2,4.4-4.4v-46.9
	C349.4,337.5,347.4,335.5,344.9,335.5z M346.4,369.2c0,9.9-8,18-18,18.2c-7.6,0.1,4.2,0.1-5,0.1c-21.1,0-43.1-0.2-51.3-0.3
	c-2.2,0-4-1.9-4.1-4.1v-43.1c0-0.8,0.7-1.5,1.5-1.5h75.4c0.8,0,1.5,0.7,1.5,1.5V369.2z"/>
<path class="st11" d="M335,365.4h-57.4c-1,0-2-0.7-2.3-1.6l-8.9-24.9c-0.5-1.3,0.2-2.7,1.5-3.1c0.3-0.1,0.5-0.1,0.8-0.1l77-0.1h0
	c1.4,0,2.5,1.1,2.5,2.5c0,0.3-0.1,0.7-0.2,1l-0.1-0.1l0.1,0.1l-10.7,25C336.9,364.8,336,365.4,335,365.4z"/>
<circle class="st2" cx="307.2" cy="365.4" r="6.1"/>
<path class="st7" d="M142.1,612.4c-1.2,8.8-7.2,16.8-14.9,22c-1.8,1.2-3.8,2.3-5.8,3.2c-2.2,1-4.5,1.8-6.9,2.5
	c-10.3,3-21.4,3.1-32.3,3.2c-11,0.1-21.9,0.1-32.8,0.2c-8.6,0-17.5,0-25.5-3.3c-0.1,0-0.2-0.1-0.4-0.2c-7.8-3.4-14.5-10.8-14.3-19.3
	c0.1-3,0.9-5.9,2.5-8.5c1-1.7,2.2-3.3,3.6-4.8c4.3-4.5,10.4-8,16-10.9c9.3-4.7,19.8-10.7,22.5-20.3c0.3-1,0.5-2,0.6-3.1
	c0.6-6.6-2.6-12.7-6.7-18.1c-0.4-0.5-0.8-1.1-1.2-1.6c-0.9-1.2-1.9-2.3-2.8-3.4c-0.4-0.5-0.8-0.9-1.2-1.4c-3.8-4.4-7.6-9.1-9.6-14.3
	c-0.9-2.2-1.3-4.5-1.4-6.9c-0.2-8.5,9.3-17,16.4-13c3.5-0.3,7-0.7,10.6-1c4.3-0.4,8.6-0.9,12.9-1.3h0c1-0.1,1.9-0.2,2.9-0.3
	c9-0.9,17.9-1.8,26.9-2.7c4-0.4,8.7-0.5,11.2,2.5c2.8,3.3,1.4,8.6-1.4,12c-2.8,3.4-6.7,5.7-9.3,9.2c-3.4,4.5-4.2,10.2-3.2,15.8
	c0.3,1.6,0.7,3.2,1.3,4.8c1,2.8,2.3,5.4,4,7.8c5.9,8.2,14.6,13.9,22.3,20.5c7.7,6.5,15,14.8,16,24.9c0,0.3,0.1,0.6,0.1,0.9
	C142.4,609.2,142.4,610.8,142.1,612.4z"/>
<path class="st7" d="M79.2,520.8c-7.8-7.7-14.4-16.5-19.7-26.1c-5.3-9.6-9.2-19.8-11.6-30.5c-2.4-10.8-3.2-21.9-2.4-33
	c1.8-22.5,10.1-44,23.9-61.8c0.8-1.1,1.7-2.2,2.6-3.2c1-1.2,2.7,0.5,1.7,1.7c-14.1,16.9-23,37.6-25.5,59.6
	c-3.6,33.9,8.4,67.7,32.6,91.6C82,520.2,80.3,521.9,79.2,520.8L79.2,520.8z"/>
<path class="st7" d="M68.5,371.5c1-0.4,1.9-0.8,2.8-1.2c0,0.1,0.1,0.1,0.1,0.2L68.5,371.5z"/>
<path class="st7" d="M86.9,350.5c-0.4,2.2-1.1,4.3-2.1,6.3c-2.8,5.5-7.1,10.1-12.6,13c-0.3,0.2-0.6,0.3-0.9,0.5
	c-0.4-0.6-0.8-1.2-1.1-1.7c-2.6-3.8-4.4-8-5.6-12.4c-1.2-5.2-0.5-11.1,2.8-15.2c3.3-4.2,9.7-6,14.3-3.3c1.3,0.8,2.5,1.9,3.3,3.2
	c-0.5,0.6-0.9,1.1-1.4,1.7c0,0.1-0.1,0.1-0.1,0.1c-0.4,0.5-0.8,1-1.2,1.5c-1.7,2-3.3,4.1-5,6.1c2.4,0.4,4.7,0.6,7.1,0.5
	c0.2,0,0.4,0,0.6,0C85.7,350.6,86.3,350.6,86.9,350.5z"/>
<path class="st7" d="M53.2,391.5l-0.6,8.3l-0.2,2.3c-0.2-0.1-0.4-0.2-0.6-0.3c-12.6-6.2-21.9-17.6-25.5-31.2c-0.6-2.3-1-4.7-1.2-7.1
	c3.2-0.5,6.5-1,9.7-1.5c-2.6-3.4-5.9-6.3-9.7-8.4c0.9-8.3,3.9-16.3,8.8-23.1c0.8,14,15.5,22.9,20.8,35.8
	C58.1,374.5,57.5,383.8,53.2,391.5z"/>
<path class="st7" d="M50.4,464.7c-0.8,0-1.6,0.1-2.3,0c-13.4-0.1-26.3-5.7-35.4-15.5c-3.7-4-6.6-8.6-8.7-13.7c0.1,0,0.1,0,0.2,0
	c3.2-0.5,6.5-1,9.7-1.5c-3.4-4.5-8-8-13.2-10.1c-0.7-4.5-0.8-9.1-0.2-13.7c7.3,11.9,24.4,12.9,35.2,21.8c5.2,4.3,8.7,10.2,9.9,16.8
	c0.3,1.6,0.5,3.3,0.5,4.9c0,0.4,0,0.8,0,1.2l0.2,0.5L50.4,464.7z"/>
<path class="st7" d="M82.6,478.5c-2.1,2.5-4.1,5.1-6.2,7.6c2.5,0.5,5.1,0.6,7.7,0.5c-2.3,8.2-6.7,15.7-12.8,21.7
	c-0.6,0.6-1.2,1.1-1.8,1.6c-0.1,0.1-0.2,0.2-0.4,0.3l-0.5-1.5l0,0l-3.1-8.5c-3.9-3.9-6.6-8.8-7.8-14.2v0c-0.7-3.1-0.9-6.4-0.5-9.6
	c1.7-13.9,13.4-26.4,10.5-40.1c6.4,5.2,11.4,12,14.5,19.7c-1.7,2-3.3,4.1-5,6.2c2.4,0.4,4.7,0.6,7.1,0.5c0.8,3.4,1.3,6.9,1.4,10.3
	c0,0.5,0,1,0,1.5c-1.1,1.3-2.1,2.6-3.2,3.9C82.7,478.5,82.6,478.5,82.6,478.5z"/>
<path class="st7" d="M448.7,68.3h-61.1c-3.4,0-6.2-2.8-6.2-6.2V6.2c0-3.4,2.8-6.2,6.2-6.2h61.1c3.4,0,6.2,2.8,6.2,6.2v55.9
	C454.8,65.5,452.1,68.3,448.7,68.3z"/>
<path class="st1" d="M444.4,63.1h-52.5c-3,0-5.5-2.5-5.5-5.5v-47c0-3,2.5-5.5,5.5-5.5h52.5c3,0,5.5,2.5,5.5,5.5v47
	C449.9,60.7,447.4,63.1,444.4,63.1z"/>
<path class="st6" d="M439.1,18.8h-42c-0.8,0-1.4-0.6-1.4-1.4s0.6-1.4,1.4-1.4c0,0,0,0,0,0h42c0.8,0,1.4,0.6,1.4,1.4
	S439.9,18.8,439.1,18.8C439.1,18.8,439.1,18.8,439.1,18.8z"/>
<path class="st6" d="M439.1,24.2h-42c-0.8,0-1.4-0.6-1.4-1.4s0.6-1.4,1.4-1.4l0,0h42c0.8,0,1.4,0.6,1.4,1.4S439.9,24.2,439.1,24.2z"
	/>
<path class="st6" d="M415.3,29.7h-18.2c-0.8,0-1.4-0.6-1.4-1.4s0.6-1.4,1.4-1.4l0,0h18.2c0.8,0,1.4,0.6,1.4,1.4
	S416.1,29.7,415.3,29.7z"/>
<path class="st10" d="M439.1,41h-42c-0.8,0-1.4-0.6-1.4-1.4s0.6-1.4,1.4-1.4c0,0,0,0,0,0h42c0.8,0,1.4,0.6,1.4,1.4
	S439.9,41,439.1,41C439.1,41,439.1,41,439.1,41z"/>
<path class="st10" d="M439.1,46.4h-42c-0.8,0-1.4-0.6-1.4-1.4s0.6-1.4,1.4-1.4c0,0,0,0,0,0h42c0.8,0,1.4,0.6,1.4,1.4
	S439.9,46.4,439.1,46.4C439.1,46.4,439.1,46.4,439.1,46.4z"/>
<path class="st10" d="M415.3,51.8h-18.2c-0.8,0-1.4-0.6-1.4-1.4s0.6-1.4,1.4-1.4l0,0h18.2c0.8,0,1.4,0.6,1.4,1.4
	S416.1,51.8,415.3,51.8z"/>
</svg>
