<?xml version="1.0" encoding="utf-8"?>
<!-- Generator: Adobe Illustrator 27.7.0, SVG Export Plug-In . SVG Version: 6.00 Build 0)  -->
<svg version="1.1" id="Ebene_1" xmlns="http://www.w3.org/2000/svg" xmlns:xlink="http://www.w3.org/1999/xlink" x="0px" y="0px"
	 viewBox="0 0 1003.7 595.3" style="enable-background:new 0 0 1003.7 595.3;" xml:space="preserve">
<style type="text/css">
	.st0{fill:#F2F2F2;}
	.st1{fill:#FFB6B6;}
	.st2{fill:#BB1C16;}
	.st3{fill:#2F2E41;}
	.st4{fill:#E6E6E6;}
	.st5{fill:#FFFFFF;}
	.st6{fill:#FD6584;}
	.st7{fill:#4E342E;}
	.st8{fill:#FFB7B7;}
	.st9{fill:#A0616A;}
	.st10{fill:#3F3D56;}
	.st11{fill:#CCCCCC;}
</style>
<path class="st0" d="M231.3,556.3l16.1-5.1c2-8.7,1.9-17.7-0.4-26.2c-6.5,14.4-25.5,17.9-36.3,29.4c-6.8,7.3-9.9,17.3-8.4,27.2
	L199,593c16-1.4,30.7-9.7,40-22.8c2.6-3.7,4.7-7.6,6.2-11.8C238.3,557.8,231.3,556.3,231.3,556.3z"/>
<path class="st0" d="M802.5,556.3l-16.1-5.1c-2-8.7-1.9-17.7,0.4-26.2c6.5,14.4,25.5,17.9,36.3,29.4c6.8,7.3,9.9,17.3,8.4,27.2
	l3.4,11.5c-16-1.4-30.7-9.7-40-22.8c-2.6-3.7-4.7-7.6-6.2-11.8C795.5,557.8,802.5,556.3,802.5,556.3z"/>
<path class="st0" d="M214.1,535l12.1-11.8c-2.1-8.6-6.2-16.6-12.1-23.3c0.6,15.8-14.8,27.4-19.4,42.5c-2.8,9.6-1.1,19.9,4.6,28.1
	l2.1,11.8c13.7-8.4,23.1-22.3,25.7-38.2c0.7-4.4,0.8-8.9,0.3-13.3C221,533.2,214.1,535,214.1,535z"/>
<path class="st1" d="M246.6,316c-5,0.7-9.6-2.8-10.3-7.9c-0.1-0.5-0.1-1.1-0.1-1.6l-58.5-59.4l16.3-11.4l52.4,62
	c5.1,0.6,8.7,5.1,8.1,10.2C254.1,312.1,250.8,315.4,246.6,316L246.6,316z"/>
<path class="st2" d="M159.6,221.4c0,0-4.1,2.5,2.8,10.1c5.5,6.1,29.7,35.2,39.3,41.3c-1.1,3.1,0.1,6.5,2.8,8.4l14.8-18.5
	c-0.8-5.3-4.4-5-6.4-4.4l-9.3-11.5l-21-35.3l-19.9,8.1L159.6,221.4z"/>
<polygon class="st1" points="113.4,575.3 124.4,575.3 129.7,532.8 113.4,532.8 "/>
<path class="st3" d="M109.8,567.8l17.6-1.1v7.6l16.8,11.6c2.1,1.5,2.7,4.4,1.2,6.6c-0.9,1.3-2.3,2-3.9,2h-21l-3.6-7.5l-1.4,7.5h-7.9
	L109.8,567.8z"/>
<polygon class="st1" points="175.4,575.3 186.4,575.3 191.7,532.8 175.4,532.8 "/>
<path class="st3" d="M171.8,567.8l17.6-1.1v7.6l16.8,11.6c2.1,1.5,2.7,4.4,1.2,6.6c-0.9,1.3-2.3,2-3.9,2h-21l-3.6-7.5l-1.4,7.5h-7.9
	L171.8,567.8z"/>
<path class="st3" d="M108.6,538.6h0.1l2.1-69.2c-2.8-5.4-2.7-11.8,0.2-17.1l0.3-0.6l-0.8-3.7c-1-4.7-0.5-9.6,1.3-14l2-64.6
	c-7.1-45.9,26.6-75.8,26.6-75.8l-6.2-25.9l61-6l-4.3,31.9l10.8,37.3c7.2,69.8,5.9,137.9-5.5,203.8l0.3,0.2c1.1,0.4,1.6,1.9,1.1,3.5
	c-0.5,1.5-1.9,2.4-3,2.1l-26.7-0.9c-1.1-0.4-1.6-1.9-1.1-3.5c0.5-1.5,1.9-2.4,3-2.1l1.8,0.9l-3.9-66.8l0.4-12.2l-0.9-13.8l-4.1-62.3
	L148,456.5l-15.8,82.9c1.2,1.1,1.3,2.9,0.2,4.1c-0.6,0.6-1.3,1-2.2,1h-21.6c-1.6,0-2.9-1.3-2.9-2.9
	C105.7,539.9,107,538.6,108.6,538.6z"/>
<path class="st4" d="M693.6,281.7H316.3c-26.4,0-47.8-21.4-47.8-47.8V71.7c0-26.4,21.3-47.7,47.7-47.8C374.8,7.6,437-0.4,501.1,0
	c61,0.4,125.8,8.4,192.6,23.8c26.4,0.1,47.7,21.5,47.7,47.8v162.2C741.4,260.3,720,281.7,693.6,281.7z M316.3,25.9
	c-25.3,0-45.8,20.5-45.8,45.8v162.2c0,25.3,20.5,45.8,45.8,45.8h377.3c25.3,0,45.8-20.5,45.8-45.8V71.7c0-25.3-20.5-45.8-45.8-45.8
	l-0.2,0c-138.2-32-261.4-32-376.8,0L316.3,25.9z"/>
<path class="st4" d="M309.7,239.4c-0.6,0-1.1-0.5-1.1-1.1c0,0,0,0,0,0V67.3c0-0.6,0.5-1.1,1.1-1.1s1.1,0.5,1.1,1.1l0,0v170.9
	C310.8,238.9,310.3,239.4,309.7,239.4C309.7,239.4,309.7,239.4,309.7,239.4z"/>
<path class="st4" d="M408.7,239.4c-0.6,0-1.1-0.5-1.1-1.1c0,0,0,0,0,0V67.3c0-0.6,0.5-1.1,1.1-1.1s1.1,0.5,1.1,1.1l0,0v170.9
	C409.8,238.9,409.3,239.4,408.7,239.4C408.7,239.4,408.7,239.4,408.7,239.4z"/>
<path class="st4" d="M507.7,239.4c-0.6,0-1.1-0.5-1.1-1.1c0,0,0,0,0,0V67.3c0-0.6,0.5-1.1,1.1-1.1c0.6,0,1.1,0.5,1.1,1.1l0,0v170.9
	C508.8,238.9,508.3,239.4,507.7,239.4C507.7,239.4,507.7,239.4,507.7,239.4z"/>
<path class="st4" d="M606.7,239.4c-0.6,0-1.1-0.5-1.1-1.1c0,0,0,0,0,0V67.3c0-0.6,0.5-1.1,1.1-1.1c0.6,0,1.1,0.5,1.1,1.1l0,0v170.9
	C607.8,238.9,607.3,239.4,606.7,239.4C606.7,239.4,606.7,239.4,606.7,239.4z"/>
<path class="st4" d="M300.8,92.8c0-0.6,0.5-1.1,1.1-1.1c0,0,0,0,0,0h405.9c0.6,0,1.1,0.5,1.1,1.1s-0.5,1.1-1.1,1.1H302
	C301.4,93.9,300.8,93.4,300.8,92.8C300.8,92.8,300.8,92.8,300.8,92.8z"/>
<path class="st4" d="M300.8,218.8c0-0.6,0.5-1.1,1.1-1.1c0,0,0,0,0,0h405.9c0.6,0,1.1,0.5,1.1,1.1s-0.5,1.1-1.1,1.1H302
	C301.4,219.9,300.8,219.4,300.8,218.8C300.8,218.8,300.8,218.8,300.8,218.8z"/>
<path class="st4" d="M300.8,155.8c0-0.6,0.5-1.1,1.1-1.1c0,0,0,0,0,0h405.9c0.6,0,1.1,0.5,1.1,1.1s-0.5,1.1-1.1,1.1H302
	C301.4,156.9,300.8,156.4,300.8,155.8C300.8,155.8,300.8,155.8,300.8,155.8z"/>
<path class="st4" d="M702.5,239.4c0.6,0,1.1-0.5,1.1-1.1c0,0,0,0,0,0V67.3c0-0.6-0.5-1.1-1.1-1.1c-0.6,0-1.1,0.5-1.1,1.1l0,0v170.9
	C701.4,238.9,701.9,239.4,702.5,239.4C702.5,239.4,702.5,239.4,702.5,239.4z"/>
<path class="st2" d="M371.4,148.1h-28.5c-3.2,0-6-2.4-6.4-5.6c-1.8-13-1.8-26.1,0-39c0.4-3.2,3.1-5.5,6.3-5.6c9-4,18.6-4,28.7,0
	c1.9,0,3.7,0.9,4.9,2.4c1.3,1.5,1.8,3.5,1.4,5.5c-2.3,11.4-2.3,23.1,0,34.5c0.4,1.9-0.1,4-1.4,5.5
	C375.2,147.3,373.3,148.1,371.4,148.1z"/>
<path class="st5" d="M368.4,112.8h-24c-0.8,0-1.5-0.7-1.5-1.5s0.7-1.5,1.5-1.5h24c0.8,0,1.5,0.7,1.5,1.5S369.3,112.8,368.4,112.8
	L368.4,112.8z"/>
<path class="st5" d="M368.4,124.8h-24c-0.8,0-1.5-0.7-1.5-1.5s0.7-1.5,1.5-1.5h24c0.8,0,1.5,0.7,1.5,1.5S369.3,124.8,368.4,124.8
	L368.4,124.8z"/>
<path class="st5" d="M368.4,136.8h-24c-0.8,0-1.5-0.7-1.5-1.5s0.7-1.5,1.5-1.5h24c0.8,0,1.5,0.7,1.5,1.5S369.3,136.8,368.4,136.8
	L368.4,136.8z"/>
<path class="st2" d="M576.4,214.1h-28.5c-3.2,0-6-2.4-6.4-5.6c-1.8-13-1.8-26.1,0-39c0.4-3.2,3.1-5.5,6.3-5.6c9-4,18.6-4,28.7,0
	c1.9,0,3.7,0.9,4.9,2.4c1.3,1.5,1.8,3.5,1.4,5.5c-2.3,11.4-2.3,23.1,0,34.5c0.4,1.9-0.1,4-1.4,5.5
	C580.2,213.3,578.3,214.1,576.4,214.1z"/>
<path class="st5" d="M573.4,178.8h-24c-0.8,0-1.5-0.7-1.5-1.5s0.7-1.5,1.5-1.5h24c0.8,0,1.5,0.7,1.5,1.5S574.3,178.8,573.4,178.8z"
	/>
<path class="st5" d="M573.4,190.8h-24c-0.8,0-1.5-0.7-1.5-1.5s0.7-1.5,1.5-1.5h24c0.8,0,1.5,0.7,1.5,1.5S574.3,190.8,573.4,190.8z"
	/>
<path class="st6" d="M663.4,148.1h-28.5c-3.2,0-6-2.4-6.4-5.6c-1.8-13-1.8-26.1,0-39c0.4-3.2,3.1-5.5,6.3-5.6c9-4,18.6-4,28.7,0
	c1.9,0,3.7,0.9,4.9,2.4c1.3,1.5,1.8,3.5,1.4,5.5c-2.3,11.4-2.3,23.1,0,34.5c0.4,1.9-0.1,4-1.4,5.5
	C667.2,147.3,665.3,148.1,663.4,148.1z"/>
<path class="st5" d="M660.4,124.8h-24c-0.8,0-1.5-0.7-1.5-1.5s0.7-1.5,1.5-1.5h24c0.8,0,1.5,0.7,1.5,1.5S661.3,124.8,660.4,124.8z"
	/>
<path class="st5" d="M660.4,136.8h-24c-0.8,0-1.5-0.7-1.5-1.5s0.7-1.5,1.5-1.5h24c0.8,0,1.5,0.7,1.5,1.5S661.3,136.8,660.4,136.8z"
	/>
<path class="st7" d="M182.1,143.7c-5.7-8.7-14.9-15.5-25.3-16.1c-10.3-0.6-22.7,8.2-27.8,17.2c-9.3,16.5-9.4,80.5,3.4,92
	c1.7-0.6,9-1.4,10.8-2l1.1-2l1.4,1.2c15.9,1.6,20.7-9.2,46.1-16C190.3,207.8,187.8,152.4,182.1,143.7z"/>
<circle class="st8" cx="160.3" cy="163.7" r="21"/>
<path class="st2" d="M183.5,202.6l-12-7.2l-24-2.4l-21.2,10.8l0.2,33L140,271l52.4,10.8l6.1-30.1c0,0,15.6-20.9-1.2-32.9
	L183.5,202.6z"/>
<path class="st7" d="M168.2,131.8c-14-3.9-28.5,4.2-32.5,18.2c-1.4,4.8-1.3,9.9,0.1,14.7c12.8,1,25.4-0.2,35.3-9.2l0.9-7.7l3.6,6.5
	c3.7-1,7.3-2.1,11-3.1C184.4,141.9,177.3,134.5,168.2,131.8z"/>
<path class="st1" d="M132.2,345.1c-4.3-2.7-5.6-8.3-3-12.6c0.3-0.5,0.6-0.9,1-1.3l-7.7-83l19.9,1.5l1.4,81.2c3.6,3.6,3.5,9.5-0.1,13
	C140.5,346.8,135.8,347.3,132.2,345.1L132.2,345.1z"/>
<path class="st2" d="M127.1,204.2c0,0-4.8-0.7-4.2,9.5c0.4,8.2-1.7,58.7,1.9,69.5c-2.8,1.7-4.1,5.1-3.1,8.3l23.2-4.9
	c2.7-4.6,2.1-9.4,0.2-10.2l0.1-14.8l5.1-48.9l-19.7-8.1L127.1,204.2z"/>
<path class="st2" d="M245.4,352.8c-1.3-1.5-1.8-3.5-1.4-5.5c2.3-11.4,2.3-23.1,0-34.5c-0.4-1.9,0.1-4,1.4-5.5c1.2-1.5,3-2.3,4.9-2.4
	c10.1-4,19.8-4,28.7,0c3.2,0.1,5.9,2.4,6.3,5.6c1.8,13,1.8,26.1,0,39c-0.5,3.2-3.2,5.6-6.4,5.6h-28.5
	C248.5,355.1,246.7,354.3,245.4,352.8z"/>
<path class="st5" d="M253.4,319.8h24c0.8,0,1.5-0.7,1.5-1.5s-0.7-1.5-1.5-1.5h-24c-0.8,0-1.5,0.7-1.5,1.5S252.6,319.8,253.4,319.8z"
	/>
<path class="st5" d="M253.4,331.8h24c0.8,0,1.5-0.7,1.5-1.5s-0.7-1.5-1.5-1.5h-24c-0.8,0-1.5,0.7-1.5,1.5S252.6,331.8,253.4,331.8z"
	/>
<path class="st5" d="M253.4,343.8h24c0.8,0,1.5-0.7,1.5-1.5s-0.7-1.5-1.5-1.5h-24c-0.8,0-1.5,0.7-1.5,1.5S252.6,343.8,253.4,343.8z"
	/>
<polygon class="st9" points="913.1,582.5 900.8,582.5 894.9,535.1 913.1,535.1 "/>
<path class="st3" d="M916.2,594.5l-39.7,0V594c0-8.5,6.9-15.4,15.4-15.4h0l7.2-5.5l13.5,5.5l3.5,0L916.2,594.5z"/>
<polygon class="st9" points="856,582.5 843.7,582.5 837.8,535.1 856,535.1 "/>
<path class="st3" d="M859.1,594.5l-39.7,0V594c0-8.5,6.9-15.4,15.4-15.4h0l7.2-5.5l13.5,5.5l3.5,0L859.1,594.5z"/>
<polygon class="st3" points="922.9,278.8 906.6,328.8 855.4,327.1 871.1,278.8 "/>
<path class="st3" d="M846.1,322.9l96.6,2.5l-1.7,47.1c0,0,1.7,12.6-1.7,16s-5,3.4-3.4,9.2s-7.2,15.5-6.1,16.6s3.6,7,3.6,7l-8.4,47.9
	c0,0-5.9,83.2-7.6,84.9c-1.7,1.7-3.4,0-1.7,4.2c1.7,4.2,3.4,2.5,1.7,4.2c-1.5,1.6-2.9,3.3-4.2,5H893c0,0-1.5-8.4-1.5-9.2
	c0-0.8-1.7-5.9-1.7-6.7s1.5-2.3,1.5-2.3c0.5-1.7,0.9-3.5,1-5.2c0-1.7,5-66.4,5-66.4l-10.1-84l-24.4,82.3c0,0,0,72.3-1.7,73.9
	c-1.7,1.7-1.7,0.8-0.8,4.2s4.2,2.5,1.7,5c-2.5,2.5-3.4-1.7-2.5,2.5l0.8,4.2l-25.2,0.4c0,0-3.4-7.1-1.7-9.6s1.6-1.8-0.5-6
	c-2.1-4.1-2.9-5-2.1-5.8s0.8-5.3,0.8-5.3L836,459c0,0,0.8-84.9,0.8-87.4c0.1-1.3-0.2-2.6-0.7-3.8v-3.4l3.2-12.1L846.1,322.9z"/>
<path class="st4" d="M854.9,200.7l29.4-10.9l48.7,3.4l11.3,5.3c8.2,3.8,12.7,12.7,10.9,21.6l-14.6,72.3l3.8,34.8
	c0,0-61.3,46.3-109.2,32c0,0,0.8-13.4,1.7-18.5s2.5-5,3.4-7.6s2.5,0,0.8-5s13.4-40.3,13.4-40.3L854.9,200.7z"/>
<polygon class="st4" points="901.4,207.1 925.4,192.6 917.5,178.4 892.1,178.4 882,190.6 "/>
<path class="st9" d="M909.7,326.2c5.2,0.3,9.6-3.7,9.9-8.8c0-0.6,0-1.1-0.1-1.7l30-14.6l-14.9-8.8l-26.2,15.2c-5.1,1-8.5,5.9-7.5,11
	C901.7,322.8,905.3,325.9,909.7,326.2L909.7,326.2z"/>
<path class="st4" d="M921.5,320.1l-5.2-19.2l28.5-37.7c-9.2-11.1-12.4-27.5-10.2-51.6c-1.1-5.7,2.6-11.1,8.3-12.2
	c5.1-1,10.2,1.9,11.9,6.9c6.4,18.8,17.6,59.2,16.2,61.4c-1.7,2.5-2.3,3.6,0.4,6c3.1,2.9,1.5,15,0,16.8
	C970,292.1,921.5,320.1,921.5,320.1z"/>
<path class="st9" d="M770.7,296.4c4.8,1.9,10.3-0.5,12.1-5.4c0.2-0.5,0.4-1,0.5-1.6l33-4.7l-11.5-13l-29.6,6.4
	c-5.2-0.7-9.9,3-10.6,8.2C764.2,290.7,766.7,294.9,770.7,296.4L770.7,296.4z"/>
<path class="st4" d="M784.9,293.6l5-19.2l41.5-23.4c3-19,4.9-25.2,18.8-44.9c1.9-5.5,7.8-8.4,13.3-6.5c4.9,1.7,7.9,6.7,6.9,11.9
	c-3.8,19.5-20.8,71.8-23,72.6C845.5,284.8,784.9,293.6,784.9,293.6z"/>
<circle class="st9" cx="904.5" cy="143.5" r="26"/>
<path class="st3" d="M876.9,124.6c0.7-6.2,9.7-12.5,25.6-16.6s24.2,13.8,24.2,13.8c11.1,5.5,4.5,35,1,32.2c0,0-0.1-0.1-0.1-0.1
	c-4.6-3.4-7.5-8.4-8.2-14.1l-0.8-7.2c-3.6,2.8-7.8,5.2-12.2,4.5l5.4-5.3c-5.1,2.2-10.2,4.5-15.3,6.7l5.1-7l-0.2-0.2
	c-2.4,2-5.1,3.6-8.1,4.6c-3.4,1-7.4,0.4-9.7-2.2c-0.6-0.7-1.1-1.6-1.4-2.5c-4.2,2.9-5,9-5,9S876.2,130.9,876.9,124.6z"/>
<path class="st10" d="M772.4,313.3h-28.5c-3.2,0-6-2.4-6.4-5.6c-1.8-13-1.8-26.1,0-39c0.4-3.2,3.1-5.5,6.3-5.6c9-4,18.6-4,28.7,0
	c1.9,0,3.7,0.9,4.9,2.4c1.3,1.5,1.8,3.5,1.4,5.5c-2.3,11.4-2.3,23.1,0,34.5c0.4,1.9-0.1,4-1.4,5.5
	C776.2,312.5,774.3,313.3,772.4,313.3z"/>
<path class="st5" d="M769.4,278h-24c-0.8,0-1.5-0.7-1.5-1.5s0.7-1.5,1.5-1.5h24c0.8,0,1.5,0.7,1.5,1.5S770.3,278,769.4,278z"/>
<path class="st5" d="M769.4,290h-24c-0.8,0-1.5-0.7-1.5-1.5s0.7-1.5,1.5-1.5h24c0.8,0,1.5,0.7,1.5,1.5S770.3,290,769.4,290z"/>
<path class="st5" d="M769.4,302h-24c-0.8,0-1.5-0.7-1.5-1.5s0.7-1.5,1.5-1.5h24c0.8,0,1.5,0.7,1.5,1.5S770.3,302,769.4,302z"/>
<circle class="st4" cx="650.4" cy="53.8" r="19"/>
<path class="st5" d="M660.2,45.9c-0.6-0.6-1.5-0.6-2.1,0c-4,3.2-7.7,6.9-10.8,11c-0.8-1.5-1.5-3-2.3-4.5c-0.9-1.7-3.5-0.2-2.6,1.5
	c1.1,2.2,2.2,4.3,3.4,6.5c0.4,0.7,1.4,0.9,2.1,0.5c0.2-0.1,0.4-0.3,0.5-0.5c3.3-4.7,7.3-8.9,11.8-12.5
	C660.8,47.5,660.8,46.5,660.2,45.9z"/>
<circle class="st4" cx="557.4" cy="53.8" r="19"/>
<path class="st5" d="M567.2,45.9c-0.6-0.6-1.5-0.6-2.1,0c-4,3.2-7.7,6.9-10.8,11c-0.8-1.5-1.5-3-2.3-4.5c-0.9-1.7-3.5-0.2-2.6,1.5
	c1.1,2.2,2.2,4.3,3.4,6.5c0.4,0.7,1.4,0.9,2.1,0.5c0.2-0.1,0.4-0.3,0.5-0.5c3.3-4.7,7.3-8.9,11.8-12.5
	C567.8,47.5,567.8,46.5,567.2,45.9z"/>
<circle class="st4" cx="361.4" cy="51.8" r="19"/>
<path class="st5" d="M371.2,43.9c-0.6-0.6-1.5-0.6-2.1,0c-4,3.2-7.7,6.9-10.8,11c-0.8-1.5-1.5-3-2.3-4.5c-0.9-1.7-3.5-0.2-2.6,1.5
	c1.1,2.2,2.2,4.3,3.4,6.5c0.4,0.7,1.4,0.9,2.1,0.5c0.2-0.1,0.4-0.3,0.5-0.5c3.3-4.7,7.3-8.9,11.8-12.5
	C371.8,45.5,371.8,44.5,371.2,43.9z"/>
<circle class="st7" cx="134.4" cy="135.8" r="13"/>
<path class="st11" d="M282.7,594.1c0,0.7-0.5,1.2-1.2,1.2c0,0,0,0,0,0H1.2c-0.7,0-1.2-0.5-1.2-1.2s0.5-1.2,1.2-1.2h280.3
	C282.1,592.9,282.7,593.4,282.7,594.1C282.7,594.1,282.7,594.1,282.7,594.1z"/>
<path class="st11" d="M1003.7,594.1c0,0.7-0.5,1.2-1.2,1.2c0,0,0,0,0,0H722.2c-0.7,0-1.2-0.5-1.2-1.2s0.5-1.2,1.2-1.2h280.3
	C1003.1,592.9,1003.7,593.4,1003.7,594.1C1003.7,594.1,1003.7,594.1,1003.7,594.1z"/>
<path class="st7" d="M130.5,122.8c-2.3-0.6-4.6,0.4-6.7,1.4l-7.5,3.6c5.2,0.5,10.3,0.9,15.5,1.4l0.6-1.1
	C134.2,126.7,132.8,123.4,130.5,122.8z"/>
</svg>
