<?xml version="1.0" encoding="utf-8"?>
<!-- Generator: Adobe Illustrator 27.7.0, SVG Export Plug-In . SVG Version: 6.00 Build 0)  -->
<svg version="1.1" id="Ebene_1" xmlns="http://www.w3.org/2000/svg" xmlns:xlink="http://www.w3.org/1999/xlink" x="0px" y="0px"
	 viewBox="0 0 667.5 581.1" style="enable-background:new 0 0 667.5 581.1;" xml:space="preserve">
<style type="text/css">
	.st0{fill:#F2F2F2;}
	.st1{fill:#BB1C16;}
	.st2{fill:#3F3D56;}
	.st3{fill:#FFB6B6;}
	.st4{fill:#E6E6E6;}
	.st5{fill:#2F2E41;}
	.st6{fill:#CCCCCC;}
	.st7{fill:#4E342E;}
</style>
<path class="st0" d="M575,147h-82c-6.9,0-12.5-5.6-12.5-12.5v-82c0-6.9,5.6-12.5,12.5-12.5h82c6.9,0,12.5,5.6,12.5,12.5v82
	C587.5,141.4,581.8,147,575,147z M493,42c-5.8,0-10.5,4.7-10.5,10.5v82c0,5.8,4.7,10.5,10.5,10.5h57.4c19.4,0,35.1-15.7,35.1-35.1
	V52.5c0-5.8-4.7-10.5-10.5-10.5H493z"/>
<path class="st1" d="M575,147h-82c-6.9,0-12.5-5.6-12.5-12.5v-82c0-6.9,5.6-12.5,12.5-12.5h82c6.9,0,12.5,5.6,12.5,12.5v82
	C587.5,141.4,581.8,147,575,147z"/>
<circle class="st0" cx="533.5" cy="11" r="11"/>
<path class="st0" d="M467.5,308.7h-82c-6.9,0-12.5-5.6-12.5-12.5v-82c0-6.9,5.6-12.5,12.5-12.5h82c6.9,0,12.5,5.6,12.5,12.5v82
	C480,303.1,474.4,308.7,467.5,308.7z M385.5,203.7c-5.8,0-10.5,4.7-10.5,10.5v82c0,5.8,4.7,10.5,10.5,10.5h0
	c51.1,0,92.5-41.4,92.5-92.5v0c0-5.8-4.7-10.5-10.5-10.5L385.5,203.7L385.5,203.7z"/>
<circle class="st0" cx="426" cy="172.7" r="11"/>
<path class="st0" d="M429.3,249.7c-3.7,1-8-1.5-8.8-5.3c-0.8-3.9,2.7-8.2,6.7-8.3c4.1,0,7.6,4.1,6.9,8.1c-0.4,2.5-2,4.8-3.4,6.8
	c-1.6,2.3-3.3,4.6-5,6.8c-3.9,5-8,9.9-12.1,14.7c-0.9,1-0.3,2.4,1.1,2.6l23.5,2.1c1.9,0.2,1.9-2.8,0-3l-23.5-2.1l1.1,2.6
	c4.5-5.3,9.1-10.7,13.3-16.3c2-2.7,4.1-5.4,5.8-8.3c1.5-2.5,2.7-5.4,2.3-8.4c-0.8-5.2-5.9-9.3-11.1-8.6c-5.2,0.7-9.2,6.1-8.5,11.3
	c0.8,5.7,7.1,9.5,12.6,8.1C432,252.1,431.2,249.2,429.3,249.7L429.3,249.7L429.3,249.7z"/>
<path class="st0" d="M655,409h-82c-6.9,0-12.5-5.6-12.5-12.5v-82c0-6.9,5.6-12.5,12.5-12.5h82c6.9,0,12.5,5.6,12.5,12.5v82
	C667.5,403.4,661.8,409,655,409z M573,304c-5.8,0-10.5,4.7-10.5,10.5v82c0,5.8,4.7,10.5,10.5,10.5h0c51.1,0,92.5-41.4,92.5-92.5v0
	c0-5.8-4.7-10.5-10.5-10.5H573z"/>
<circle class="st0" cx="613.5" cy="273" r="11"/>
<path class="st0" d="M604.8,338c5.1-2.6,12-0.7,13.8,5.1c0.8,2.5,0.5,5.2-1.1,7.3c-1.7,2.1-4.2,3.3-6.9,3v3c3.4,0.2,6.7,1.4,9.1,3.9
	c2.1,2.2,3.2,5.7,2.4,8.7c-0.8,2.9-3.7,5.1-6.7,5.3c-3,0.2-6.1-1.8-7.2-4.6c-0.7-1.8-3.6-1-2.9,0.8c2.6,6.3,10.3,8.9,15.9,4.7
	c5.7-4.3,5.1-12.7,0.2-17.4c-2.9-2.8-6.8-4.1-10.8-4.4c-1.9-0.1-1.9,2.8,0,3c3.6,0.4,7.1-1.4,9.3-4.2c2.2-2.8,2.7-6.6,1.6-9.9
	c-2.5-7.7-11.3-10.4-18.2-6.9C601.6,336.2,603.1,338.8,604.8,338L604.8,338L604.8,338z"/>
<path class="st2" d="M158,416H76c-6.9,0-12.5-5.6-12.5-12.5v-82c0-6.9,5.6-12.5,12.5-12.5h82c6.9,0,12.5,5.6,12.5,12.5v82
	C170.5,410.4,164.8,416,158,416z"/>
<g>
	<path class="st3" d="M127,322.6c5-2.6,6.9-8.8,4.3-13.8c-0.3-0.5-0.6-1-0.9-1.4L144,216l-20.1,0.1l-8.4,89.7
		c-3.5,3-4.6,8.2-2.3,12.4C115.8,323.2,122,325.2,127,322.6L127,322.6z"/>
	<path class="st4" d="M130.3,152.2c0,0-6-1.6-6.9,11.5c-0.7,10.5-11.2,74.7-8.3,89.1c-3.7,1.7-6,5.8-5.2,10.1l30.3-2.7
		c4.2-5.5,4.2-11.7,1.8-13l2.4-18.9l14.1-61.6l-23.9-13.4L130.3,152.2L130.3,152.2z"/>
</g>
<g>
	<polygon class="st3" points="150.2,556.7 161.7,556.7 167.2,512.2 150.2,512.2 	"/>
	<path class="st5" d="M165.6,557.7v-7.8l-3,0.2l-12.3,0.7l-2.9,0.2l-2.2,26.2l-0.1,1.4h8.2l0.3-1.4l1.2-6.3l3.1,6.3l0.7,1.4h21.7
		c1.3,0,2.5-0.5,3.3-1.3c0.9-0.9,1.5-2.1,1.5-3.5C185.9,569.4,167.9,560.2,165.6,557.7L165.6,557.7z"/>
</g>
<g>
	<polygon class="st3" points="99.6,543.5 112.5,546 124.5,505 111.5,500.6 	"/>
	<path class="st5" d="M114.1,548.6l2.1-7.5l-3-0.6l-12.1-2.6l-2.8-0.6l-9.1,24.6l-0.5,1.3l7.9,2.2l0.6-1.3l2.8-5.8l1.3,6.9l0.3,1.5
		l20.9,5.8c1.2,0.3,2.5,0.2,3.6-0.4c1.1-0.6,2.1-1.7,2.4-3C130.6,565.3,115.7,551.6,114.1,548.6L114.1,548.6z"/>
</g>
<path class="st5" d="M207.3,306.1l0.3-3.1l-12.8-35.2l-54.7,10.5c0,0-28.2,34.7-21.9,57.7c1.7,6.2,5.3,79.6,4.2,82
	c-25.2,54.4-18.1,92.7-18.1,92.7s8,6.9,21.6,10.4c3.6,0.9,30.6-121.1,30.6-121.1s-1.2,7.6-2.9,19.2c-5.1,35.8-13.2,107.7-6,111.5
	c9.5,4.9,18.5,4,18.5,4s29.6-88.8,23.3-109.7"/>
<path class="st4" d="M180.5,155l-16.9-18.2l0,0l-12.8-0.7L133.5,154l-6.4,18.1v0c-7.2,17.4-8.8,36.6-4.7,55l9.8,44
	c0,0,1.5,5.2-2.5,5.8s-3.5,8.3-3.5,8.3s0.8,6.6-3.1,7.2c-3.9,0.6-14.2,0.6-5.1,12.2c9,11.6,80.2-32.2,80.2-32.2l0.3-54.3
	c0,0,20.1-26.9-1.5-42.4L180.5,155L180.5,155z"/>
<path class="st1" d="M223,346h-82c-6.9,0-12.5-5.6-12.5-12.5v-82c0-6.9,5.6-12.5,12.5-12.5h82c6.9,0,12.5,5.6,12.5,12.5v82
	C235.5,340.4,229.8,346,223,346z"/>
<g>
	<path class="st3" d="M210.5,305.7c3.8-4.2,3.4-10.7-0.8-14.4c-0.4-0.4-0.9-0.7-1.3-1l-19.1-90.4l-18.8,7.1l23.4,87
		c-2.2,4.1-1.4,9.2,2.1,12.5C200.3,310.2,206.7,309.9,210.5,305.7z"/>
	<path class="st4" d="M172.6,154.5c0,0,5.7-2.6,8.6,10.3c2.4,10.3,22.9,72,22.3,86.6c4,1.1,6.9,4.8,6.8,9.1l-30.4,2.1
		c-5-4.8-6-10.9-3.8-12.5l-5.4-18.3l-23.7-58.6l21.5-17L172.6,154.5L172.6,154.5z"/>
</g>
<path class="st0" d="M203.2,563c2.1,0.1,3.2-2.4,1.6-3.9l-0.2-0.6c0,0,0-0.1,0.1-0.1c2.1-5,9.2-4.9,11.2,0c1.8,4.4,4.2,8.9,4.8,13.5
	c0.3,2.1,0.1,4.2-0.3,6.2c4.3-9.4,6.6-19.7,6.6-30c0-2.6-0.1-5.2-0.4-7.8c-0.2-2.1-0.6-4.2-1-6.3c-2.3-11.3-7.3-22-14.5-31
	c-3.5-1.9-6.3-4.9-8.1-8.4c-0.6-1.3-1.1-2.7-1.3-4.1c0.4,0.1,1.5-5.9,1.2-6.3c0.5-0.8,1.5-1.2,2.1-2.1c3-4,7.1-3.3,9.2,2.2
	c4.6,2.3,4.6,6.1,1.8,9.8c-1.8,2.3-2,5.5-3.6,8c0.2,0.2,0.3,0.4,0.5,0.6c3,3.8,5.5,7.9,7.7,12.2c-0.6-4.8,0.3-10.5,1.8-14.2
	c1.7-4.2,5-7.8,7.9-11.4c3.5-4.4,10.6-2.5,11.2,3.1c0,0.1,0,0.1,0,0.2c-0.4,0.2-0.8,0.5-1.3,0.8c-2.3,1.5-1.5,5.2,1.2,5.6l0.1,0
	c-0.2,1.5-0.4,3.1-0.8,4.6c3.7,14.3-4.3,19.5-15.7,19.8c-0.3,0.1-0.5,0.3-0.7,0.4c1.2,3.3,2.1,6.6,2.8,10c0.6,3,1,6,1.3,9
	c0.3,3.8,0.3,7.7-0.1,11.5l0-0.1c0.8-4.2,3.1-8.1,6.4-10.9c4.9-4.1,11.9-5.6,17.3-8.8c2.6-1.6,5.9,0.5,5.4,3.4l0,0.1
	c-0.8,0.3-1.6,0.7-2.3,1.1c-0.4,0.2-0.8,0.5-1.3,0.8c-2.3,1.5-1.5,5.2,1.2,5.6l0.1,0c0,0,0.1,0,0.1,0c-1.4,3.2-3.3,6.2-5.6,8.8
	c-2.3,12.5-12.3,13.7-22.9,10h0c-1.2,5.1-2.9,10-5,14.7h-18c-0.1-0.2-0.1-0.4-0.2-0.6c1.7,0.1,3.3,0,5-0.3c-1.3-1.6-2.7-3.3-4-4.9
	c0,0-0.1-0.1-0.1-0.1c-0.7-0.8-1.4-1.7-2-2.5l0,0C202.3,568,202.6,565.5,203.2,563L203.2,563L203.2,563z"/>
<path class="st0" d="M61.6,565c-2.1,0.1-3.2-2.4-1.6-3.9l0.2-0.6c0,0,0-0.1-0.1-0.1c-2.1-5-9.2-4.9-11.2,0
	c-1.8,4.4-4.2,8.9-4.8,13.5c-0.3,2.1-0.1,4.2,0.3,6.2c-4.3-9.4-6.6-19.7-6.6-30c0-2.6,0.1-5.2,0.4-7.8c0.2-2.1,0.6-4.2,1-6.3
	c2.3-11.3,7.3-22,14.5-31c3.5-1.9,6.3-4.9,8.1-8.4c0.6-1.3,1.1-2.7,1.3-4.1c-0.4,0.1-1.5-5.9-1.2-6.3c-0.5-0.8-1.5-1.2-2.1-2.1
	c-3-4-7.1-3.3-9.2,2.2c-4.6,2.3-4.6,6.1-1.8,9.8c1.8,2.3,2,5.5,3.6,8c-0.2,0.2-0.3,0.4-0.5,0.6c-3,3.8-5.5,7.9-7.7,12.2
	c0.6-4.8-0.3-10.5-1.8-14.2c-1.7-4.2-5-7.8-7.9-11.4c-3.5-4.4-10.6-2.5-11.2,3.1c0,0.1,0,0.1,0,0.2c0.4,0.2,0.8,0.5,1.3,0.8
	c2.3,1.5,1.5,5.2-1.2,5.6l-0.1,0c0.2,1.5,0.4,3.1,0.8,4.6c-3.7,14.3,4.3,19.5,15.7,19.8c0.3,0.1,0.5,0.3,0.7,0.4
	c-1.2,3.3-2.1,6.6-2.8,10c-0.6,3-1,6-1.3,9c-0.3,3.8-0.3,7.7,0.1,11.5l0-0.1c-0.8-4.2-3.1-8.1-6.4-10.9c-4.9-4.1-11.9-5.6-17.3-8.8
	c-2.6-1.6-5.9,0.5-5.4,3.4l0,0.1c0.8,0.3,1.6,0.7,2.3,1.1c0.4,0.2,0.8,0.5,1.3,0.8c2.3,1.5,1.5,5.2-1.2,5.6l-0.1,0c0,0-0.1,0-0.1,0
	c1.4,3.2,3.3,6.2,5.6,8.8c2.3,12.5,12.3,13.7,22.9,10h0c1.2,5.1,2.9,10,5,14.7h18c0.1-0.2,0.1-0.4,0.2-0.6c-1.7,0.1-3.3,0-5-0.3
	c1.3-1.6,2.7-3.3,4-4.9c0,0,0.1-0.1,0.1-0.1c0.7-0.8,1.4-1.7,2-2.5l0,0C62.5,570,62.2,567.5,61.6,565L61.6,565L61.6,565z"/>
<path class="st6" d="M0,579.5c0,0.7,0.5,1.2,1.2,1.2h253.3c0.7,0,1.2-0.5,1.2-1.2c0-0.7-0.5-1.2-1.2-1.2H1.2
	C0.5,578.3,0,578.8,0,579.5z"/>
<g>
	<circle class="st3" cx="163.5" cy="99.8" r="24.4"/>
	<path class="st5" d="M186.3,98.8c0.1,0,0.2,0,0.6,0C187.8,98.9,186.6,98.9,186.3,98.8z"/>
	<path class="st7" d="M199.4,96.5c-0.2,0.4-0.8,0.8-1.6,1.1c-1.6-2-3.6-3.6-6-4.7c1,1.7,1.9,3.5,2.5,5.4c-2.3,0.3-4.8,0.5-6.4,0.5
		c-0.4,0-0.7,0-1,0c-0.4-0.7-1-1.9-1.6-3.1c0,3.2-4.6,12.8-4.2,20.9c0.5,9.7,1,20.3,1,20.3c-1.6,0.4-3.6,0.7-5.9,0.9
		c-2.5-4.5-4.3-9.6-5.3-14.8c-0.1-0.5-0.2-1.1-0.3-1.7c-0.2,0.6-0.4,1.3-0.6,1.9c-0.8,2.7-1.2,5.6-1.3,8.6c-0.1,2-0.1,4,0.1,6.1
		c-12.3,2.5-27.6,2.2-38.6-3.9c0.4-1,0.7-2,0.8-3.1c0.6-3.5-4.2-4-7.5-1.8c-3.2-3.2-5.7-7.3-7-12.5c21-9.2-1.1-20.6,15.1-37
		c-2-14.2,37.3-18.3,44.9-5.7c1.7-1.3,6.8-1.2,9-0.3s3.9,2.5,5.6,4c1.1,1,0.6,3-0.1,4.6C194.5,80.7,202.3,89.4,199.4,96.5z"/>
</g>
</svg>
