<?xml version="1.0" encoding="utf-8"?>
<!-- Generator: Adobe Illustrator 27.7.0, SVG Export Plug-In . SVG Version: 6.00 Build 0)  -->
<svg version="1.1" id="Ebene_1" xmlns="http://www.w3.org/2000/svg" xmlns:xlink="http://www.w3.org/1999/xlink" x="0px" y="0px"
	 viewBox="0 0 1000 689.4" style="enable-background:new 0 0 1000 689.4;" xml:space="preserve">
<style type="text/css">
	.st0{fill:#3F3D56;}
	.st1{fill:#BB1C16;}
	.st2{fill:#E6E6E6;}
	.st3{fill:#FFB8B8;}
	.st4{fill:#2F2E41;}
	.st5{display:none;fill:#4E342E;}
	.st6{fill:#4E342E;}
	.st7{fill:#FFB6B6;}
</style>
<polygon class="st0" points="261,492.3 261,442.8 231.5,442.8 231.5,521.7 310.5,521.7 310.5,492.3 "/>
<rect x="270.5" y="403.8" class="st1" width="78.9" height="78.9"/>
<circle class="st2" cx="792" cy="175.3" r="131"/>
<path class="st0" d="M817.6,199c-4,14.6-17.5,23.7-17.5,23.7s-7.1-14.6-3.2-29.3s17.5-23.7,17.5-23.7S821.6,184.4,817.6,199z"/>
<path class="st0" d="M786.9,275.4c7.5,13.1,4.4,29.1,4.4,29.1s-15.4-5.3-22.9-18.4S764,257,764,257S779.4,262.3,786.9,275.4z"/>
<path class="st0" d="M779.1,105.4c7.5,13.1,4.4,29.1,4.4,29.1s-15.4-5.3-22.9-18.4s-4.4-29.1-4.4-29.1S771.5,92.3,779.1,105.4z"/>
<path class="st0" d="M791.2,305.9l-0.4-1.7l0.2,0.8l-0.2-0.8c0.1,0,6.1-1.6,10.7-9.8c6-10.9,9.7-33.8-6.5-81.5
	c-14.9-43.9-13.2-77.8-9.1-98.4c4.5-22.5,12.3-34.4,12.7-34.9l1.4,1c-0.1,0.1-8.1,12.2-12.4,34.3c-4,20.5-5.7,54,9,97.4
	c16.5,48.4,12.5,71.8,6.3,83C798,304.2,791.5,305.8,791.2,305.9z"/>
<circle class="st1" cx="799.2" cy="80" r="21.8"/>
<path class="st2" d="M131.4,580.4c-3.9,14.4-17.2,23.3-17.2,23.3s-7-14.4-3.1-28.8s17.2-23.3,17.2-23.3S135.3,566,131.4,580.4z"/>
<path class="st2" d="M101.2,655.8c7.4,12.9,4.3,28.7,4.3,28.7s-15.2-5.2-22.6-18.2s-4.3-28.7-4.3-28.7S93.8,642.8,101.2,655.8z"/>
<path class="st2" d="M93.4,488.2c7.4,12.9,4.3,28.7,4.3,28.7s-15.2-5.2-22.6-18.2S70.8,470,70.8,470S86,475.3,93.4,488.2z"/>
<path class="st2" d="M105.4,685.7l-0.4-1.7l0.2,0.8l-0.2-0.8c0.1,0,6-1.5,10.5-9.7c5.9-10.7,9.6-33.3-6.4-80.3
	c-14.7-43.2-13-76.6-8.9-97c4.4-22.1,12.2-33.9,12.5-34.4l1.4,1c-0.1,0.1-7.9,12-12.2,33.8c-4,20.2-5.7,53.2,8.9,96
	c16.2,47.6,12.3,70.8,6.2,81.8C112.1,684.1,105.7,685.7,105.4,685.7z"/>
<circle class="st2" cx="113.3" cy="463.2" r="21.5"/>
<rect y="686.9" class="st0" width="1000" height="2"/>
<path class="st3" d="M478,230.8l13.8,35.7l35.7,75.4c0,0,36.6,49.2,17.2,52.9s-32-44.3-32-44.3l-49.9-77.3L478,230.8z"/>
<circle class="st3" cx="449.5" cy="121.4" r="30"/>
<path class="st3" d="M426.5,132.4c0,0,1,33-12,40c0,0,27-1,41,21h13c0,0-20-14-10-48L426.5,132.4z"/>
<path class="st4" d="M570.5,554.4c0,0-63,15-108-3s-50-6-93-1s-18-18-18-18s73-190,84-210s6-33,6-33l-21-29c0,0-4.9-12.6-10.2-27.3
	c-6.1-17-12.8-36.8-12.8-42.7c0-6.5,7.3-12.7,13.2-16.8c2.5-1.7,5-3.2,7.7-4.6c12.9-3.3,42.1,18.3,42.1,18.3s8,6,29,21s12,46,12,46
	l6,81C547.5,375.4,570.5,554.4,570.5,554.4z"/>
<path class="st3" d="M426.5,181.4c0,0-18-21-32,21s-17,75-17,75l-26,87c0,0-28,47-7,50s27-50,27-50l52-138
	C423.5,226.4,440.5,195.4,426.5,181.4z"/>
<path class="st4" d="M368.5,539.4l-27,42c0,0-25,3-28,19s-12,25-12,25l4,4l19-13l2,26c0,0,11,31,29,24s-3-28-3-28l10-35l56-70
	L368.5,539.4z"/>
<path class="st4" d="M515.5,550.4l16,72c0,0-12,22-6,36s6,30,6,30h9l4-24l22,23c0,0,48,8,48-8s-26-16-26-16l-24-40l-10-73H515.5z"/>
<path class="st5" d="M434.5,76.3L434.5,76.3c1.6,0,3.3,0.2,4.9,0.5c2.9-1.4,6.1-2.1,9.3-2.2h0.8c16.3,0,29.6,14.8,29.6,33v0h-5.5
	l-0.9-6.7l-1.3,6.7h-4.6c-11.9,5.2-5.5,107.2,2.1,107.2h-8.3l-4.8-12.5l1.2,12.5h-53.2l-4.4-11.3l1.1,11.3h-6v-83.4
	C394.7,101,412.5,76.3,434.5,76.3z"/>
<circle class="st6" cx="435.2" cy="101" r="41.7"/>
<circle class="st7" cx="450.5" cy="118.6" r="31.6"/>
<circle class="st6" cx="390" cy="46.1" r="41.7"/>
<path class="st6" d="M354.1,80.7c18.6,13.5,44.7,9.3,58.2-9.4c2.7-3.8,4.8-8,6.2-12.5c-2.9,22.9-23.7,39-46.6,36.2
	c-22.9-2.9-39-23.7-36.2-46.6c0.3-2.3,0.8-4.5,1.4-6.7C335.2,56.8,341.7,71.7,354.1,80.7z"/>
<circle class="st6" cx="426.6" cy="108" r="30.6"/>
<ellipse class="st6" cx="449.7" cy="96.5" rx="27.1" ry="21.2"/>
<ellipse class="st7" cx="451" cy="121.8" rx="6" ry="10.7"/>
</svg>
