<?xml version="1.0" encoding="utf-8"?>
<!-- Generator: Adobe Illustrator 27.7.0, SVG Export Plug-In . SVG Version: 6.00 Build 0)  -->
<svg version="1.1" id="Ebene_1" xmlns="http://www.w3.org/2000/svg" xmlns:xlink="http://www.w3.org/1999/xlink" x="0px" y="0px"
	 viewBox="0 0 905.7 561.3" style="enable-background:new 0 0 905.7 561.3;" xml:space="preserve">
<style type="text/css">
	.st0{fill:#F2F2F2;}
	.st1{fill:#FFFFFF;}
	.st2{fill:#2F2E41;}
	.st3{fill:#3F3D56;}
	.st4{fill:#BB1C16;}
	.st5{fill:#E6E6E6;}
	.st6{fill:#FFB6B6;}
	.st7{fill:#FFB8B8;}
	.st8{fill:#4E342E;}
	.st9{fill:#CACACA;}
</style>
<path id="bfbd69ed-0a30-4239-a70d-8568b89194ba-440" class="st0" d="M787.1,440.1c-0.2-0.3-0.4-0.5-0.6-0.8s-0.4-0.5-0.6-0.8
	c-0.2-0.3-0.4-0.5-0.6-0.8s-0.4-0.5-0.6-0.8c-0.3-7.5-0.3-15,0-22.4c0.3-7.3,0.9-14.6,1.9-21.7c0.9-7.1,2.1-14.1,3.7-21
	c1.5-6.8,3.3-13.5,5.4-20.1c0.2-0.8,0.5-1.5,0.7-2.3c0.2-0.8,0.5-1.5,0.8-2.2c0.3-0.7,0.5-1.5,0.8-2.2s0.5-1.5,0.8-2.2
	c2-5.5,4.2-10.8,6.6-16.1c2.4-5.2,5-10.2,7.8-15.1c2.8-4.9,5.7-9.6,8.8-14.1c3.1-4.5,6.4-8.9,9.8-13.1l0.5-0.7l0.5-0.7l0.5-0.7
	l0.5-0.7l0.4-0.5l0.4-0.5c0.1-0.2,0.3-0.3,0.4-0.5c0.1-0.2,0.3-0.3,0.4-0.5l0.3-0.2l0.3-0.2l0.3-0.2l0.3-0.2l0,0l0,0l0,0l0,0
	l0.1-0.1l0.1-0.1l0.1-0.1l0.1-0.1l0.6-0.3l0.6-0.3l0.6-0.3l0.6-0.3l-0.4-0.2l-1.1-0.5l0,0c0.1,0,0.2,0.1,0.3,0.1s0.2,0.1,0.3,0.1
	c0.1,0,0.2,0.1,0.3,0.1c0.1,0,0.2,0.1,0.3,0.1l0.1,0l0.1,0l0.1,0c0,0,0.1,0,0.1,0.1c0,0,0.1,0,0.1,0l0.1,0l0.1,0l0.1,0
	c3.9,1.8,7.8,3.6,11.7,5.5c3.9,1.9,7.6,3.9,11.3,6c3.7,2.1,7.2,4.4,10.7,6.9c3.4,2.5,6.7,5.2,9.7,8.1c3.2,3.1,6.1,6.6,8.6,10.3
	c2.5,3.7,4.5,7.6,6,11.7c1.5,3.9,2.4,8.1,2.6,12.3c0.2,4-0.3,8.1-1.7,11.9c-0.2,0.5-0.4,1-0.6,1.5c-0.2,0.5-0.4,1-0.7,1.4
	c-0.2,0.5-0.5,0.9-0.8,1.4c-0.3,0.5-0.5,0.9-0.8,1.3c-0.1,0.2-0.2,0.4-0.4,0.5c-0.1,0.2-0.3,0.4-0.4,0.5c-0.1,0.2-0.3,0.3-0.4,0.5
	s-0.3,0.3-0.4,0.5c-2.6,3.2-5.8,5.8-9.5,7.6c-3.7,1.8-7.7,2.8-11.9,2.9c-4.3,0.2-8.6-0.4-12.7-1.8c-4.4-1.5-8.5-3.8-12-6.7
	c-1.2-1-2.4-2.1-3.5-3.3c-1.1-1.2-2.1-2.4-3-3.6c-0.9-1.3-1.8-2.6-2.5-4c-0.8-1.4-1.4-2.8-2-4.2c-0.3,4.5,0.4,9,2,13.2
	c1.7,4.4,4,8.6,6.9,12.4c3,4,6.4,7.8,10,11.2c3.7,3.5,7.6,6.8,11.5,9.9s7.9,6.2,11.7,9.4c3.9,3.2,7.5,6.6,11,10.2
	c3.4,3.5,6.4,7.3,8.9,11.5c2.5,4.1,4.3,8.6,5.3,13.2c1.1,5.1,1.1,10.4-0.2,15.4c-0.6,2.5-1.4,4.9-2.5,7.2c-1.1,2.3-2.4,4.5-3.9,6.6
	l-0.1,0.2l-0.1,0.2l-0.1,0.2l-0.1,0.2c-3.7,4.8-8.3,8.8-13.6,11.8c-2.7,1.5-5.5,2.7-8.4,3.7c-3,1-6,1.6-9.1,2
	c-5.9,0.5-11.9,0.2-17.7-1c-6-1.3-11.8-3.2-17.3-5.8c-5.7-2.7-11.2-5.9-16.3-9.5c-5.2-3.7-10.1-7.7-14.7-12.1
	c-1.2-1.2-2.4-2.3-3.6-3.6c-1.2-1.2-2.3-2.4-3.5-3.7c-1.1-1.2-2.2-2.5-3.3-3.8C789.2,442.8,788.1,441.4,787.1,440.1z"/>
<path id="a2347809-d406-465d-97ee-6d57ebf46a78-441" class="st1" d="M882,353c-3.7-1.9-7.2-4-10.5-6.4c-6.7-4.8-12.6-10.5-17.7-17
	c-2.5-3.2-4.8-6.6-6.8-10.1c-1.7-3-3.2-6.1-4.5-9.3c-1.3-3.1-2.3-6.3-3.2-9.5c-0.8-3.2-1.5-6.4-1.9-9.6c-0.4-3.2-0.6-6.4-0.5-9.6
	c0-0.2,0-0.4,0-0.5c0-0.2,0-0.4,0-0.5c0-0.2,0-0.4,0-0.5l0-0.5c-0.2,0.1-0.3,0.2-0.5,0.4l-0.5,0.4l-0.5,0.4l-0.5,0.4l-0.3,0.2
	l-0.3,0.2l-0.3,0.2l-0.3,0.2l0.4-0.5l0.4-0.5c0.1-0.2,0.3-0.3,0.4-0.5c0.1-0.2,0.3-0.3,0.4-0.5l0.3-0.2l0.3-0.2l0.3-0.2l0.3-0.2l0,0
	l0,0l0,0l0,0l0.1-0.1l0.1-0.1l0.1-0.1l0.1-0.1l0.6-0.3l0.6-0.3l0.6-0.3l0.6-0.3l-0.4-0.2l-1.1-0.5l0,0c0.1,0,0.2,0.1,0.3,0.1
	c0.1,0,0.2,0.1,0.3,0.1c0.1,0,0.2,0.1,0.3,0.1c0.1,0,0.2,0.1,0.3,0.1l0.1,0l0.1,0l0.1,0c0,0,0.1,0,0.1,0l0,0.2l0,0.2l0,0.2l0,0.2
	c-0.4,5.4-0.1,10.8,0.8,16.1c1,5.5,2.6,10.8,4.8,16c2.3,5.3,5.1,10.3,8.5,15c3.5,4.8,7.4,9.3,11.9,13.3c4.4,4,9.3,7.5,14.5,10.4
	c2.6,1.5,5.2,2.8,7.9,4c2.7,1.2,5.4,2.2,8.2,3.1c-0.1,0.2-0.2,0.4-0.4,0.5c-0.1,0.2-0.3,0.4-0.4,0.5c-0.1,0.2-0.3,0.3-0.4,0.5
	s-0.3,0.3-0.4,0.5c-1.1-0.4-2.1-0.7-3.2-1.1c-1.1-0.4-2.1-0.8-3.2-1.3c-1.1-0.4-2.1-0.9-3.1-1.4C884.1,354,883,353.5,882,353z"/>
<path id="fd435d97-ab67-4bbc-9247-61e184ba81ed-442" class="st1" d="M809.8,393.3c-1.2-1.8-2.3-3.6-3.4-5.5c-1.1-1.9-2.1-3.7-3-5.6
	c-0.9-1.9-1.8-3.8-2.6-5.8s-1.5-3.9-2.1-5.9c-0.3-1.1-0.6-2.1-0.9-3.2c-0.3-1.1-0.5-2.1-0.7-3.2c-0.2-1.1-0.4-2.1-0.6-3.2
	c-0.2-1.1-0.3-2.1-0.4-3.2c-0.1-0.5-0.1-1-0.2-1.5c0-0.5-0.1-1-0.1-1.5c0-0.5-0.1-1-0.1-1.5c0-0.5,0-1-0.1-1.5
	c0.2-0.8,0.5-1.5,0.7-2.3c0.2-0.8,0.5-1.5,0.8-2.2s0.5-1.5,0.8-2.2s0.5-1.5,0.8-2.2c-0.1,0.6-0.1,1.2-0.2,1.8s-0.1,1.2-0.1,1.9
	c0,0.6,0,1.2,0,1.9s0,1.3,0,1.9c0,0.3,0,0.7,0,1c0,0.3,0,0.7,0,1c0,0.3,0,0.7,0,1c0,0.3,0,0.7,0.1,1c0.3,3.8,0.9,7.6,1.8,11.4
	c0.9,3.8,2.2,7.5,3.7,11.1c1.5,3.7,3.3,7.2,5.3,10.6c2,3.5,4.3,6.9,6.7,10.1c2.6,3.5,5.3,6.9,8.2,10.2c2.9,3.3,5.9,6.5,9,9.7
	c3.1,3.1,6.3,6.2,9.6,9.1c3.3,2.9,6.6,5.8,10,8.5c3.5,2.8,7,5.5,10.6,8.1c3.6,2.6,7.3,5.1,11,7.4c3.7,2.4,7.5,4.6,11.4,6.7
	s7.7,4.1,11.7,6c0.2,0.1,0.3,0.2,0.5,0.4c0.1,0.1,0.2,0.3,0.3,0.5c0.1,0.2,0.1,0.4,0.1,0.6c0,0.2,0,0.4-0.1,0.6c0,0.1,0,0.2-0.1,0.2
	c0,0.1-0.1,0.1-0.1,0.2c0,0.1-0.1,0.1-0.2,0.2c-0.1,0.1-0.1,0.1-0.2,0.1c-0.1,0-0.2,0.1-0.2,0.1c-0.1,0-0.2,0-0.2,0
	c-0.1,0-0.2,0-0.2,0c-0.1,0-0.2-0.1-0.2-0.1c-0.5-0.2-1-0.5-1.5-0.7c-0.5-0.2-1-0.5-1.5-0.7c-0.5-0.2-1-0.5-1.4-0.7s-1-0.5-1.4-0.7
	c-4-2.1-8-4.2-11.9-6.5c-3.9-2.3-7.7-4.7-11.5-7.3c-3.8-2.5-7.5-5.2-11.1-8c-3.6-2.8-7.2-5.7-10.7-8.7c-3.4-2.9-6.7-5.9-10-8.9
	s-6.4-6.3-9.5-9.5s-6-6.7-8.8-10.1S812.2,397,809.8,393.3z"/>
<path id="e3ba7b84-95ab-4be0-b084-77760c6da15d-443" class="st2" d="M885.3,106.9l-2.9,0.4L901.6,35c1.4-4.8,1.6-9.9,0.7-14.9
	c-0.8-4-2.9-7.7-6-10.5c-3.2-2.8-7.1-4.6-11.3-5.2c-5.1-0.8-10.3-0.6-15.3,0.7l0,0L739,34.9c-4.6,1.1-8.9,2.9-13,5.3
	c-4.4,2.6-8.4,5.7-12.1,9.2c-3.8,3.6-7.2,7.6-10.2,11.8c-2.9,4.2-5.2,8.7-7,13.4l0,0L559.8,451.2c-2.3,6.2-3.8,12.6-4.4,19.2
	c-0.6,5.8-0.3,11.7,0.8,17.5c1,5,3,9.7,5.9,13.9c2.7,3.8,6.5,6.6,10.8,8.2l0,0l138.2,47.6c6.1,2.1,12.7,2.5,19.1,1.1
	c6.8-1.5,13.2-4.4,18.7-8.6c6.2-4.7,11.6-10.4,15.8-16.9c4.7-7.2,8.2-15,10.4-23.3l0,0L867.8,162l2.9-0.2L885.3,106.9z"/>
<path id="b5993d63-c6a8-428b-8f96-914fd0c3ef98-444" class="st3" d="M875.3,102.9l-2.9,0.4L891.6,31c1.4-4.8,1.6-9.9,0.7-14.9
	c-0.8-4-2.9-7.7-6-10.5c-3.2-2.8-7.1-4.6-11.3-5.2c-5.1-0.8-10.3-0.6-15.3,0.7l0,0L729,30.9c-4.6,1.1-8.9,2.9-13,5.3
	c-4.4,2.6-8.4,5.7-12.1,9.2c-3.8,3.6-7.2,7.6-10.2,11.8c-2.9,4.2-5.2,8.7-7,13.4l0,0L549.8,447.2c-2.3,6.2-3.8,12.6-4.4,19.2
	c-0.6,5.8-0.3,11.7,0.8,17.5c1,5,3,9.7,5.9,13.9c2.7,3.8,6.5,6.6,10.8,8.2l0,0l138.2,47.6c6.1,2.1,12.7,2.5,19.1,1.1
	c6.8-1.5,13.2-4.4,18.7-8.6c6.2-4.7,11.6-10.4,15.8-16.9c4.7-7.2,8.2-15,10.4-23.3l0,0L857.8,158l2.9-0.2L875.3,102.9z"/>
<path id="f76bb9a3-d246-4a39-a954-55c4fdcd575d-445" class="st1" d="M858.6,10.6l-19.2,4.2c0.2,1.7,0,3.4-0.5,4.9
	c-0.6,1.9-1.5,3.6-2.6,5.2c-2.5,3.7-5.8,6.7-9.7,8.8c-0.5,0.2-0.9,0.5-1.4,0.7c-0.5,0.2-0.9,0.4-1.4,0.6c-0.5,0.2-0.9,0.3-1.4,0.5
	s-0.9,0.2-1.3,0.3L745.9,51c-1.4,0.3-2.8,0.3-4.2,0c-1.1-0.3-2.1-1-2.8-1.9c-0.7-1-1.1-2.2-1.1-3.4c-0.1-1.5,0.2-3.1,0.7-4.5
	c0.1-0.4,0.3-0.8,0.5-1.2s0.4-0.8,0.6-1.2c0.2-0.4,0.4-0.8,0.7-1.2s0.5-0.8,0.7-1.2l-14.2,3.1c-3.4,0.8-6.7,2.1-9.7,3.9
	c-3.3,1.9-6.4,4.3-9.2,6.9c-2.9,2.7-5.4,5.7-7.7,8.9c-2.2,3.1-3.9,6.5-5.3,10.1L558.2,449.1c-1.7,4.7-2.8,9.5-3.2,14.5
	c-0.4,4.4-0.2,8.8,0.7,13.1c0.8,3.7,2.3,7.2,4.5,10.3c2,2.8,4.9,4.8,8.2,5.9l0,0l139.2,45.2c4.6,1.5,9.5,1.7,14.2,0.6
	c5-1.1,9.7-3.4,13.8-6.5c4.6-3.5,8.5-7.7,11.6-12.5c3.5-5.3,6.1-11.1,7.7-17.2l0,0L882.2,33.1c1.1-3.6,1.3-7.4,0.6-11
	c-0.6-3-2.1-5.8-4.4-7.9c-2.3-2.1-5.2-3.5-8.3-4C866.3,9.5,862.4,9.7,858.6,10.6z"/>
<path class="st1" d="M784,190.4H507V96.6h277V190.4z"/>
<rect x="431.5" y="223.6" class="st1" width="271.5" height="131.6"/>
<circle class="st4" cx="475.6" cy="267.1" r="19.6"/>
<path class="st5" d="M520.9,254c-1.8,0-3.3,1.5-3.3,3.3c0,1.8,1.5,3.3,3.3,3.3h154.3c1.8,0,3.3-1.5,3.3-3.3c0-1.8-1.5-3.3-3.3-3.3
	H520.9z"/>
<path class="st5" d="M520.9,273.7c-1.8,0-3.3,1.5-3.3,3.3c0,1.8,1.5,3.3,3.3,3.3h66.4c1.8,0,3.3-1.5,3.3-3.3c0-1.8-1.5-3.3-3.3-3.3
	H520.9z"/>
<path class="st5" d="M460.5,305.1c-2.5,0-4.5,1.5-4.5,3.3s2,3.3,4.5,3.3h212.9c2.5,0,4.5-1.5,4.5-3.3s-2-3.3-4.5-3.3H460.5z"/>
<path class="st5" d="M460.5,324.7c-2.5,0-4.5,1.5-4.5,3.3s2,3.3,4.5,3.3h163.9c2.5,0,4.5-1.5,4.5-3.3c0-1.8-2-3.3-4.5-3.3H460.5z"/>
<path class="st5" d="M705.7,357.9h-277V220.8h277V357.9z M434.3,352.4h266V226.3h-266V352.4z"/>
<circle class="st4" cx="553.8" cy="142.9" r="19.6"/>
<path class="st5" d="M599.2,129.8c-1.8,0-3.3,1.5-3.3,3.3s1.5,3.3,3.3,3.3h154.3c1.8,0,3.3-1.5,3.3-3.3c0-1.8-1.5-3.3-3.3-3.3H599.2
	z"/>
<path class="st5" d="M599.2,149.4c-1.8,0-3.3,1.5-3.3,3.3c0,1.8,1.5,3.3,3.3,3.3h121.4c1.8,0,3.3-1.5,3.3-3.3s-1.5-3.3-3.3-3.3
	H599.2z"/>
<path class="st5" d="M784,190.4H507V96.6h277V190.4z M512.5,184.9h266v-82.8h-266V184.9z"/>
<polygon class="st6" points="239.7,548 253.6,548 260.3,494.1 239.7,494.1 "/>
<path class="st2" d="M280.6,561l-43.9,0l0,0l0-17l0,0l29,0c8.2,0,14.9,6.7,14.9,14.9L280.6,561L280.6,561z"/>
<polygon class="st6" points="100.1,529.9 112.3,536.6 144.1,492.6 126,482.7 "/>
<path class="st2" d="M129.6,561l-38.5-21.1l0,0l8.2-14.9l0,0l25.4,14c7.2,4,9.8,13,5.9,20.2L129.6,561L129.6,561z"/>
<path class="st2" d="M239,518.1c-2.6,0-4.7-1.9-5.1-4.5l-17.5-134.6c-0.2-1.6-1.6-2.7-3.2-2.5c-0.9,0.1-1.7,0.7-2.1,1.4l-72.8,132
	c-1.2,2.2-3.9,3.2-6.3,2.3l-15.9-6c-2.6-1-4-4-3-6.6c0,0,0-0.1,0-0.1l50.4-123.8c0.1-0.3,0.2-0.6,0.3-1
	c6.8-52.9,24.2-79.7,29.4-86.7c0.8-1,1-2.4,0.6-3.6l-0.7-2.1c-0.6-1.7-0.2-3.6,1-5c18.6-21.2,51-9.6,51.3-9.5l0.2,0.1l0.1,0.1
	c36.4,49.9,22.9,211.8,19.8,243.7c-0.2,2.5-2.2,4.4-4.7,4.6l-21.5,1.7C239.3,518.1,239.2,518.1,239,518.1z"/>
<circle class="st7" cx="229.2" cy="113.1" r="31.1"/>
<path class="st4" d="M181.1,310.8l91.4,8.3c-8-27.7-15.3-55.3-9.3-82.9c7.6-24.6,8.3-38.2-11.7-49.8l-13.5-30l-24.4-0.9l-11.9-3.3
	c-9.6,15.4-13.5,33.7-11.1,51.8C195.9,243.3,194.5,279.7,181.1,310.8z"/>
<path class="st8" d="M195,172.2l-9.2-42.2c-1.9-10-1.4-20.3,1.4-30.1c0.3-1,0.7-2,1.1-2.9c5.2-11.3,16.2-18.8,28.6-19.6
	c20.9-1.4,24,0.8,24.7,1.8c11.8-0.5,21,4.1,25.1,12.5c1.5,3.2,0.2,7-2.9,8.5c-0.3,0.2-0.7,0.3-1.1,0.4c-5.8,1.7-14,3.6-20.2,3
	c-12.3,14.8-7.3,41.9,5.2,58.1l0.5,0.6l-12.4,2.5l-14.4-20.1c-0.7-1-2-1.2-3-0.5c-0.7,0.5-1,1.3-0.8,2.2l4.4,21.3L195,172.2z"/>
<polygon class="st9" points="867.1,561.3 0,561.3 0,559.1 867.5,559.1 "/>
<path class="st1" d="M372.6,285.9L146.5,445.8l-54.2-76.6l226.2-159.9L372.6,285.9z"/>
<ellipse transform="matrix(0.8165 -0.5774 0.5774 0.8165 -190.4836 160.531)" class="st4" cx="157.3" cy="379.9" rx="19.6" ry="19.6"/>
<path class="st5" d="M186.7,343c-1.5,1-1.8,3.1-0.8,4.6c1,1.5,3.1,1.8,4.6,0.8l126-89.1c1.5-1,1.8-3.1,0.8-4.6
	c-1-1.5-3.1-1.8-4.5-0.8L186.7,343z"/>
<path class="st5" d="M198.1,359.1c-1.5,1-1.8,3.1-0.8,4.6c1,1.5,3.1,1.8,4.6,0.8l0,0l99.1-70.1c1.5-1,1.8-3.1,0.8-4.6
	c-1-1.5-3.1-1.8-4.6-0.8L198.1,359.1z"/>
<path class="st5" d="M372.6,285.9L146.5,445.8l-54.2-76.6l226.2-159.9L372.6,285.9z M147.8,438.1l217.1-153.6l-47.8-67.6L100,370.5
	L147.8,438.1z"/>
<path id="ecbdc040-0b9a-4be9-8952-5ef77de340c4-446" class="st0" d="M889,257.5c0.8,0,1.6,0.1,2.3,0.4c0.7,0.3,1.4,0.7,1.9,1.3
	c0.5,0.5,1,1.2,1.2,1.9c0.3,0.8,0.4,1.6,0.4,2.4c0,0.8-0.2,1.7-0.6,2.4c-0.3,0.7-0.8,1.4-1.4,2c-0.6,0.6-1.2,1-2,1.4
	c-0.8,0.3-1.6,0.5-2.4,0.5c-0.8,0-1.6-0.1-2.3-0.4c-0.7-0.3-1.3-0.7-1.9-1.3c-0.5-0.5-0.9-1.2-1.2-1.9c-0.3-0.8-0.4-1.6-0.4-2.4
	c0-0.8,0.2-1.6,0.6-2.4c0.3-0.7,0.8-1.4,1.4-2c0.6-0.6,1.2-1,2-1.4C887.4,257.7,888.2,257.5,889,257.5z"/>
<path class="st7" d="M253.2,335.4L238.5,255l1-49.7l-33.1-1l6.2,55.9l21.4,77.6c-4.9,6-4.1,14.8,1.9,19.7s14.8,4.1,19.7-1.9
	c4.9-6,4.1-14.8-1.9-19.7C253.6,335.7,253.4,335.6,253.2,335.4L253.2,335.4z"/>
<path class="st4" d="M204.3,209.4c12-4.6,25.3-4.6,37.3,0l-2.1-41.4c0-9.2-7.4-16.6-16.6-16.6c0,0,0,0,0,0l0,0
	c-9.2,0-16.6,7.4-16.6,16.6c0,0,0,0,0,0L204.3,209.4z"/>
</svg>
