<?xml version="1.0" encoding="utf-8"?>
<!-- Generator: Adobe Illustrator 27.7.0, SVG Export Plug-In . SVG Version: 6.00 Build 0)  -->
<svg version="1.1" id="Ebene_1" xmlns="http://www.w3.org/2000/svg" xmlns:xlink="http://www.w3.org/1999/xlink" x="0px" y="0px"
	 viewBox="0 0 888.8 728.5" style="enable-background:new 0 0 888.8 728.5;" xml:space="preserve">
<style type="text/css">
	.st0{fill:#BB1C16;}
	.st1{fill:#D0CDE1;}
	.st2{fill:#3F3D56;}
	.st3{fill:#4E342E;}
	.st4{fill:#FFB6B6;}
	.st5{fill:#2F2E41;}
	.st6{opacity:0.2;enable-background:new    ;}
	.st7{fill:#FFB8B8;}
	.st8{fill:#575A89;}
</style>
<path class="st0" d="M40.1,683.1c16,9.6,22.2,28.8,22.2,28.8s-19.8,3.5-35.8-6.1S4.3,676.9,4.3,676.9S24.1,673.4,40.1,683.1z"/>
<rect x="549.6" y="70.3" class="st1" width="9.5" height="588.1"/>
<circle class="st0" cx="421.5" cy="85.3" r="19"/>
<ellipse class="st1" cx="423.1" cy="71.9" rx="52.9" ry="8.7"/>
<path class="st1" d="M558.9,70.3h-9.5c0-33.6-27.2-60.8-60.8-60.8c-33.6,0-60.8,27.2-60.8,60.8h-9.5c0-38.8,31.5-70.3,70.3-70.2
	C527.5,0.1,558.9,31.5,558.9,70.3z"/>
<circle class="st0" cx="686.8" cy="85.3" r="19"/>
<ellipse class="st1" cx="685.3" cy="71.9" rx="52.9" ry="8.7"/>
<path class="st1" d="M549.4,70.3h9.5c0-33.6,27.2-60.8,60.8-60.8c33.6,0,60.8,27.2,60.8,60.8c0,0,0,0,0,0h9.5
	c0-38.8-31.5-70.3-70.3-70.2C580.9,0.1,549.5,31.5,549.4,70.3z"/>
<rect x="536.7" y="615.2" class="st1" width="35" height="44.2"/>
<ellipse class="st2" cx="261.1" cy="714.8" rx="261.1" ry="4.6"/>
<ellipse class="st2" cx="675.5" cy="659.7" rx="213.3" ry="4.6"/>
<circle class="st3" cx="299.3" cy="335.3" r="28.4"/>
<path class="st4" d="M339.7,507.3l4.3,8.6c0,0,13.8,22.4,4.3,25c-9.5,2.6-12.5-16.8-12.5-16.8l-1.7-10.3L339.7,507.3z"/>
<polygon class="st0" points="322.4,463.4 333.2,491.8 344,511.6 330.6,520.2 319.9,501.2 307,471.5 "/>
<path class="st4" d="M291.9,596.3l-21.5,22.8l-37.9,64.1l-16.4-5.2l19.4-38.3c0,0,11.2-29.3,16.8-33.1c5.6-3.9,15.1-29.3,15.1-29.3
	l10.3-8.2L291.9,596.3z"/>
<path class="st4" d="M336.2,608.8l1.7,7.3c0,0,5.6,22.8,14.2,33.1l20.7,35.7l15.5-5.2l-30.6-72.3L336.2,608.8z"/>
<circle class="st4" cx="304.2" cy="345.2" r="23.2"/>
<path class="st4" d="M285.9,356.6l-3,25l19.4,9.5c0,0,0-21.5,5.2-27.1L285.9,356.6z"/>
<path class="st4" d="M225.2,517.6l-2.2,7.3c0,0-14.2,28-2.2,28s14.2-25.8,14.2-25.8l1.3-6.5L225.2,517.6z"/>
<path class="st5" d="M324.2,488.3l-3,21.1l36.6,77l2.2,22.4l-68.4,8.6l-15.1-41.7l-24.1,31l13.8-31.8c0,0,4.3-21.5,3-27.1
	c-1.3-5.6,0.9-33.6,4.7-40.5C277.7,500.4,324.2,488.3,324.2,488.3z"/>
<path class="st5" d="M235.1,683.3l-20.7-6.9l-6.5,10.3c0,0-12.5,3.4-12,12.5s-2.2,24.5-2.2,24.5l9,0.9l3.4-17.6l17.6,21.1
	c0,0,31.4,1.7,32.7-3.4c1.3-5.2-22.4-10.8-22.4-10.8l-3.9-18.5L235.1,683.3z"/>
<path class="st5" d="M389.6,677.3l-18.9,6v4.3c0,0-5.6,8.6-4.7,15.9s4.7,25,4.7,25h9.9l-0.4-16.4l19.8,16.4c0,0,35.3-2.6,35.3-8.2
	s-27.1-9.5-27.1-9.5L389.6,677.3z"/>
<path class="st0" d="M303.5,385.9c0,0-17.6-17.6-25.8-13.3v7.7c0,0-12,5.6-12.5,14.2c-0.4,8.6-12.9,86.9-12.9,86.9l-29.3,102
	c0,0,9,14.2,42.2-1.7l20.7-70.1c0,0-21.9,79.2-11.2,77.9c10.8-1.3,52.9-99.4,52.9-99.4l-3-46.5c0,0,6.9-20.2-6.9-34L303.5,385.9z"/>
<path class="st0" d="M273.4,388.5c0,0-7.3,2.6-12.5,13.8c-5.2,11.2-31,89.9-31,89.9l-6.9,28l19.4,4.7l9.5-28.8l35.3-65.4
	C287.2,430.7,292.8,396.2,273.4,388.5z"/>
<path class="st3" d="M275.1,326.7c0.4-5.3,3-10.8,7.7-13.3c-2.4-4.7-4.5-10.2-2.9-15.2c1.3-4,4.6-7,8.8-7.8c2.3-0.3,4.6-0.3,6.8,0.1
	l10.6,1.2c3.4,0.4,7,0.8,9.9,2.7c5.4,3.4,7,10.5,3.6,15.9c-0.6,1-1.4,1.8-2.2,2.6c7.4,5.9,12.4,10.4,15.8,19.3
	c-6.2-5-12.1-6.7-20-7.2c-10.3-0.6-19.2,7.2-20.1,17.5c-0.2,2.5,0.1,5-0.7,7.4c-0.7,2.4-2.9,4.6-5.4,4.3c0.3,0,2.4-6.3,1-9.2l0,0
	c-0.3-0.6-0.9-1.1-1.5-1.3c-2.2-0.9-4.7,0.3-5.6,2.5c-0.1,0.2-0.1,0.3-0.2,0.5c-0.8,3.2-2.1,7.2-3.3,6.1c-1.5-1.4-0.9-13.8-1.3-15.7
	C275.2,333.7,274.9,330.2,275.1,326.7z"/>
<path class="st0" d="M282.9,313.4c0,0,23.3,1.5,34.5-0.5"/>
<path class="st3" d="M284.2,310.2c-2.4-4.7-4.5-10.2-2.9-15.2c0.7-2.3,2.1-4.3,4.1-5.7c-3,1.4-5.2,3.9-6.2,7
	c-1.6,5.1,0.6,10.5,2.9,15.2C283.9,311.2,279.5,312.7,284.2,310.2z"/>
<polygon class="st6" points="291.7,430.9 258.1,490.3 245.2,522.5 263.3,491.6 "/>
<polygon class="st7" points="765.1,622.8 768.2,644.4 783.6,642.8 782,620.5 "/>
<polygon class="st7" points="691.9,622.8 688.8,644.4 673.4,642.8 675,620.5 "/>
<path class="st5" d="M669.6,399.4c0,0-13.9,16.2-10.8,41.6c3.1,25.4,8.5,83.2,8.5,83.2l3.9,102.4l24.6-1.5l3.9-87l12.3-70.1
	l33.1,81.6c0,0,16.2,76.3,16.9,76.3s23.1-2.3,23.1-2.3l-10.8-90.1c0,0-16.9-130.9-27-133.2S669.6,399.4,669.6,399.4z"/>
<path class="st5" d="M785.1,639.7c0,0-13.9-9.2-19.3,1.5s-0.8,18.5-0.8,18.5s4.6,3.1,2.3,6.2s-3.1,23.1,16.9,20s10-23.9,10-23.9
	L785.1,639.7z"/>
<path class="st5" d="M671.9,639.7c0,0,13.9-9.2,19.3,1.5s0.8,18.5,0.8,18.5s-4.6,3.1-2.3,6.2s3.1,23.1-16.9,20s-10-23.9-10-23.9
	L671.9,639.7z"/>
<path class="st7" d="M688.4,249.6c0,0,6.9,19.3,1.5,30s8.5,23.1,8.5,23.1s36.2-18.5,31.6-27.7s-12.3-21.6-10.8-29.3L688.4,249.6z"/>
<circle class="st7" cx="701.9" cy="232.3" r="24.6"/>
<path class="st0" d="M684.2,278.5c0,0,24.7,20.6,43.2-8.6l19.2,10.9l10,117.1c0,0-56.2,32.3-83.2,4.6l3.9-108.6L684.2,278.5z"/>
<polygon class="st8" points="692,267 657.2,290.1 669.6,347.1 653.4,435.6 679.6,396.4 "/>
<path class="st8" d="M722.7,260.6l8.5,5.6l34.7,12.3l-5.4,95.5l14.6,61.6l-20.8,10.8c0,0-3.9-29.3-27.7-43.9
	S717.2,264.9,722.7,260.6z"/>
<path class="st7" d="M664.9,410.2l10,6.9c0,0-12.7,13.5-15,11.2c-1.4-1.3-2.1-3.1-1.9-5l-2.3-5.4L664.9,410.2z"/>
<path class="st7" d="M731.5,408.7l-3.4,5.3c0,0-10,4.6-7.7,7.7s21.6,10,25.4,3.1l3.9-6.9L731.5,408.7z"/>
<path class="st8" d="M661.9,289.3l-5.4,0.8l-8.9,57.4c0,0-3.5,10.4,0.4,35s7.7,40.7,7.7,40.7l17-12.2l-7.7-20l10-73.2L661.9,289.3z"
	/>
<path class="st8" d="M753.5,277l12.3,1.5c0,0,13.9,14.6,16.2,30s1.5,59.3,1.5,59.3l-35.4,56.2l-19.3-13.9l27-47.8l-13.1-57
	L753.5,277z"/>
<path class="st5" d="M725.4,210c-3.7-6.1-9.6-10.5-16.4-12.5l-5,4l1.9-4.7c-1.6-0.2-3.3-0.3-4.9-0.3l-4.5,5.8l1.9-5.6
	c-7.9,1-15,5.2-19.7,11.7c-5.7,8.3-6.7,19.8-1.1,28.1c1.5-4.8,3.4-9.2,5-14c1.2,0.2,2.5,0.2,3.7,0l1.9-4.4l0.5,4.2
	c5.8-0.5,14.5-1.6,20-2.6l-0.5-3.2l3.2,2.7c1.7-0.4,2.7-0.7,2.6-1c4.1,6.6,8.2,10.9,12.3,17.5C727.9,226.3,730.7,218.5,725.4,210z"
	/>
<ellipse class="st7" cx="724.1" cy="231.5" rx="1.7" ry="3.3"/>
</svg>
