<?xml version="1.0" encoding="utf-8"?>
<!-- Generator: Adobe Illustrator 27.7.0, SVG Export Plug-In . SVG Version: 6.00 Build 0)  -->
<svg version="1.1" id="Ebene_1" xmlns="http://www.w3.org/2000/svg" xmlns:xlink="http://www.w3.org/1999/xlink" x="0px" y="0px"
	 viewBox="0 0 356.4 578.3" style="enable-background:new 0 0 356.4 578.3;" xml:space="preserve">
<style type="text/css">
	.st0{fill:#4E342E;}
	.st1{fill:#FFB6B6;}
	.st2{fill:#2F2E41;}
	.st3{fill:#BB1C16;}
	.st4{fill:#E6E6E6;}
	.st5{fill:#FFFFFF;}
	.st6{fill:#3F3D56;}
	.st7{fill:#FF6584;}
	.st8{fill:#F2F2F2;}
	.st9{fill:#CCCCCC;}
</style>
<path class="st0" d="M108.1,110.2c-1.9,7.4-7.9,22.2-7.9,29.8l0.4-0.5c1.1,1.4,2.4,2.8,3.7,4c1.8-2.5,4.1-4.5,6.7-6.1
	c-1.1,3.3-1.5,6.8-1.2,10.3c4.3,8.9,17.5,2.9,25.4,0.8c9.3,8.1,20.4,9.1,33.7,1.9c4-0.1,8.4-0.5,10.9-3.2s-10.2-16.5-9.2-19.9
	c7.4-24.6,7-21.9-2.7-31.3c-2.1-2.1-2.6-5.5-5.1-7.4c-3.5-2.6-8.3-2.9-12.8-3.1c2.3-0.2,4.4-1.6,5.4-3.6c0.9-2.1,0.5-4.5-0.9-6.2
	c-1.9-2.4-5.3-3.4-8.5-3.4c-3.1,0.2-6.1,0.9-9,2c-1.9,0.5-3.7,1.4-5.3,2.5c-1.5,1.1-2.2,3.1-1.7,4.9c0.8,1.6,2.2,2.8,4,3.3
	c1.3,0.4,2.7,0.5,4.1,0.5c-6.3,0-12.5,2-17.6,5.6C113.8,95.7,110,102.8,108.1,110.2z"/>
<ellipse transform="matrix(0.2336 -0.9723 0.9723 0.2336 -2.6817 235.093)" class="st1" cx="147.8" cy="119.2" rx="25.1" ry="25.1"/>
<path class="st0" d="M131,109.2c2,4.2,6.4,5,10.3,5.4c1.2,0.1,2.5,0.2,3.7,0.3c0.4-0.6,0.8-1.2,1.2-1.8c1.8-2.5,4.1-4.5,6.7-6.1
	c-0.9,2.6-1.3,5.4-1.3,8.1c2.4,0,4.7,0,7.1-0.1c4.2,0.3,7.9-2.7,8.5-6.9c2.6,3.2,5.5,6.1,9.2,7c4.2,0.9-2.5-1.1-0.4-4.8
	c1.7-2.8,2.4-6.3,2.8-9.7c0.4-4,0.4-8.5-1.9-10.7c-1.8-1.8-8.9,3.9-11.3,4.4c-5.3,1.1,4.9-2.5,0-0.3l-0.3,1
	c0.2-5.5-2.5-10.4-6.3-11.7c-2.6-0.9-5.5-0.3-8.2,0.3c-3.6,0.7-7.1,1.8-10.3,3.5c-3.7,2-6.7,5.2-8.6,9
	C129.8,100.2,129.3,105.6,131,109.2z"/>
<path class="st0" d="M154.3,81.1c-0.3,0,0.4,0,0.2,0c0.1,0,0.2-0.1,0.3-0.1c0,0,0.3-0.1,0.1,0c0.4-0.2,0.7-0.4,0.9-0.7
	c0.5-0.8,0.8-1.7,1-2.6c0.2-1.2,0.7-2.4,1.4-3.4c0.7-0.9,2.1-1.1,3-0.4c0.2,0.1,0.3,0.3,0.5,0.5c0.6,1,0.4,2.4,0.2,3.5
	c-0.2,1.1-0.6,2.2-1.2,3.3c-0.9,1.7-2.3,3-4,3.9c-2,1-4.2,1.4-6.4,1.1c-0.8-0.2-1.3-1.1-1.1-1.9c0.1-0.4,0.3-0.7,0.7-0.9l3.3-1.9
	c0.7-0.4,1.7-0.2,2.1,0.5c0.4,0.7,0.2,1.7-0.5,2.1l-3.3,1.9L151,83c0.5,0.1,0.9,0.1,1.4,0c0.5,0,1-0.1,1.5-0.3
	c0.5-0.1,0.9-0.3,1.3-0.5c0.3-0.1,0.5-0.3,0.8-0.5c0.1-0.1,0.2-0.1,0.3-0.2c0,0,0.4-0.3,0.2-0.2c0.4-0.4,0.8-0.7,1.1-1.2
	c0.1-0.2,0.2-0.3,0.3-0.5c0.2-0.3,0.3-0.6,0.5-0.8c0.3-0.6,0.5-1.3,0.6-1.9c0.1-0.3,0.1-0.6,0.1-0.8c0-0.2,0-0.3,0-0.5
	c0.1-0.4,0,0.2,0.2,0.3l0.7,0.4c0.3,0,0.5,0,0.7-0.2c0.1-0.1,0-0.1,0,0.1c-0.1,0.2-0.2,0.4-0.3,0.6c-0.2,0.5-0.3,0.9-0.4,1.4
	c-0.3,1-0.6,2-1.1,3c-0.9,2-3,3.1-5.2,2.8c-0.8-0.2-1.3-1-1.1-1.9C152.7,81.4,153.5,80.9,154.3,81.1z"/>
<polygon class="st1" points="145.2,555.3 156.7,555.2 162.2,510.8 145.2,510.8 "/>
<path class="st2" d="M160.5,556.3v-7.8l-3,0.2l-12.3,0.7l-2.9,0.2l-2.2,26.2l-0.1,1.4h8.2l0.3-1.4l1.2-6.3l3.1,6.3l0.7,1.4h21.7
	c2.7,0,4.9-2.2,4.9-4.9C180.9,568,162.8,558.7,160.5,556.3z"/>
<polygon class="st1" points="16.8,541.4 26.3,547.9 56,514.4 42,504.7 "/>
<path class="st2" d="M28.9,550.9l4.4-6.4l-2.6-1.6l-10.6-6.4l-2.5-1.5L1,555.4l-0.9,1.1l6.7,4.6l1-1l4.6-4.5l-1.1,7l-0.2,1.5
	L29,576.4c2.2,1.5,5.2,1,6.8-1.3C39,572.1,29.4,554.3,28.9,550.9z"/>
<path class="st1" d="M303.9,103.1c-1.9,4-6.6,5.9-10.7,4.1c-0.4-0.2-0.8-0.4-1.1-0.6l-49.5,37.5l-15.6-13.2l63.3-35.8
	c2.3-2.9,6.2-3.9,9.7-2.5c4,1.7,5.7,6.3,4,10.3C304,103,304,103.1,303.9,103.1z"/>
<path class="st3" d="M158.6,208.4c0,0-17.5-4.5-5.2-27.4s59.4-48.6,62.6-48.9s0.6,2.8,6.3-2.3c4.6-4.2,6.5-0.2,6.6-2.2
	c0.5-5.3,7.4,3.8,6.5-2.8s14.8,14.5,14.8,14.5s0,3.9-8.3,7.1c-4.6,1.8-7.9,0.3-7.8,4.3s-9.4,2.5-10.6,3.4s-22.1,28.6-22.1,28.6
	L158.6,208.4z"/>
<path class="st4" d="M324,182.2c-21.4-5.3-39.7-15.8-54.1-33.1c-2.3-1.4-3-4.4-1.6-6.7l25-40.9c1.4-2.3,4.4-3,6.7-1.6l54.1,33.1
	c2.3,1.4,3,4.4,1.6,6.7l-25,40.9C329.3,182.9,326.3,183.6,324,182.2z"/>
<path class="st5" d="M309.6,169.1c-11.3-1.2-23-10.2-34.8-21.3c-2.1-1.3-2.8-4.1-1.5-6.2l21.5-35.1c1.3-2.1,4.1-2.8,6.2-1.5
	l48.1,29.4c2.1,1.3,2.8,4.1,1.5,6.2l-13.3,21.7C331.5,171.9,319.1,174.9,309.6,169.1z"/>
<ellipse transform="matrix(0.2457 -0.9694 0.9694 0.2457 116.706 414.9099)" class="st5" cx="324.9" cy="132.5" rx="3.6" ry="5.2"/>
<ellipse transform="matrix(0.2457 -0.9694 0.9694 0.2457 91.3878 381.9388)" class="st6" cx="291.1" cy="132.3" rx="3.6" ry="5.2"/>
<ellipse transform="matrix(0.2457 -0.9694 0.9694 0.2457 94.2788 442.247)" class="st7" cx="331.3" cy="160.5" rx="3.6" ry="5.2"/>
<ellipse transform="matrix(0.111 -0.9938 0.9938 0.111 132.8757 492.8586)" class="st4" cx="341.9" cy="172.2" rx="3.3" ry="2.3"/>
<ellipse transform="matrix(0.111 -0.9938 0.9938 0.111 114.2729 514.4771)" class="st6" cx="344.7" cy="193.4" rx="3.3" ry="2.3"/>
<ellipse transform="matrix(0.111 -0.9938 0.9938 0.111 123.6808 444.163)" class="st4" cx="310.1" cy="152.9" rx="3.3" ry="2.3"/>
<ellipse transform="matrix(0.111 -0.9938 0.9938 0.111 145.1801 455.4014)" class="st7" cx="327.2" cy="146.5" rx="3.3" ry="2.3"/>
<ellipse transform="matrix(0.111 -0.9938 0.9938 0.111 143.7074 419.1819)" class="st6" cx="306.2" cy="129.3" rx="3.3" ry="2.3"/>
<path class="st2" d="M202.3,304.6l0.3-3.1l-12.8-35.2l-54.7,10.5c0,0-28.2,34.7-21.9,57.7c1.7,6.2-19.7,47.6-12.6,43.1
	s-7.3,8-3.6,8.2s-2.1,4.6-3.2,7c-25.2,54.4-65.4,125.4-65.4,125.4s8.4,23.5,21.6,10.4s101.6-130.1,101.6-130.1s-1.2,7.6-2.9,19.2
	c-5.1,35.8-13.2,107.7-6,111.5c5.7,3,12.1,4.3,18.5,4c0,0,47.4-109.6,41.1-130.5"/>
<path class="st3" d="M169.9,158l-5.1-10.6l-27.6,3.3l-2.8,8.6c-8,8-14.6,17.3-19.5,27.4c-7.6,16.3,17.8,88.2,13.6,92.4
	s-19.6,6.4-12.7,11.5s0,1.8-1.7,7.7s-5.1,29.1-5.1,29.1s26.5,22.2,43.2-11.2c24.4,2.1,29.2-20.9,29.2-20.9l8.2-13.6
	c10.6-4.9-5.8-60.6-1.6-71.7S169.9,158,169.9,158z"/>
<path class="st2" d="M195.1,277.2c0.1-4.1,0.1-8.5,1.9-12.3c1.4-2.8,3.9-5.7,7.2-5.9c2.8-0.2,6.1,1.5,6.3,4.6
	c0.3,3.7-2.8,7.2-5.3,9.5c-3,2.8-6.7,4.7-10.7,5.7c-0.8,0.2-1.3,1.1-1,1.9c0.1,0.4,0.3,0.7,0.7,0.9c3.2,1.8,6,4.1,8.3,6.9
	c2.1,2.6,4.3,6,4.7,9.4c0.2,1.4-0.1,3.2-1.6,3.8c-1.5,0.6-3.2-0.2-4.5-0.9c-2.9-1.9-5.2-4.7-6.6-8c-1.7-3.7-2.3-7.8-1.6-11.8
	c0.3-1.9-2.6-2.7-2.9-0.8c-1.4,8.4,2,18.4,9.5,23c3.4,2.1,8.6,2.5,10.3-2c1.6-4-1-8.9-3.2-12.2c-2.8-4.2-6.5-7.7-10.9-10.2l-0.4,2.7
	c4.4-1.1,8.4-3.2,11.7-6.2c3.2-2.9,6.6-7.1,6.5-11.7c-0.2-4.1-3.4-7-7.3-7.6c-4.3-0.6-8,1.7-10.5,5c-3.3,4.6-3.5,10.5-3.6,16
	c0,0.8,0.7,1.5,1.6,1.4C194.5,278.6,195.1,278,195.1,277.2L195.1,277.2z"/>
<path class="st1" d="M73.3,334.5c3.9-2,5.5-6.9,3.6-10.8c-0.2-0.4-0.4-0.8-0.7-1.1l35-51.3l-13.9-14.9l-32.7,65
	c-2.8,2.4-3.6,6.4-2,9.8c1.9,3.9,6.6,5.4,10.5,3.5C73.2,334.6,73.2,334.5,73.3,334.5z"/>
<path class="st3" d="M171.3,184.1c0,0-5.3-17.2-27.7-3.9s-45.6,61.7-45.7,65s2.8,0.5-2,6.4c-3.9,4.8,0.1,6.5-1.9,6.7
	c-5.3,0.7,4.1,7.2-2.5,6.6s15.3,14.1,15.3,14.1s3.9-0.2,6.7-8.6c1.6-4.7-0.1-7.9,3.9-8s2-9.5,2.8-10.8s27.5-23.5,27.5-23.5
	L171.3,184.1z"/>
<path class="st0" d="M136.3,99c16.4-18.9-12.8,31.2,9,50.8c-8.9,7.1-41.5,4.6-39.7,0s7.9-48,14.4-50.8S136.3,99,136.3,99z"/>
<ellipse transform="matrix(0.2457 -0.9694 0.9694 0.2457 -243.0114 358.6604)" class="st5" cx="108.9" cy="335.5" rx="3.6" ry="5.2"/>
<ellipse transform="matrix(0.2457 -0.9694 0.9694 0.2457 -268.3296 325.6893)" class="st6" cx="75.1" cy="335.3" rx="3.6" ry="5.2"/>
<ellipse transform="matrix(0.2457 -0.9694 0.9694 0.2457 -265.4387 385.9976)" class="st7" cx="115.3" cy="363.5" rx="3.6" ry="5.2"/>
<ellipse transform="matrix(0.111 -0.9938 0.9938 0.111 -260.8827 458.652)" class="st4" cx="125.9" cy="375.2" rx="3.3" ry="2.3"/>
<ellipse transform="matrix(0.111 -0.9938 0.9938 0.111 -279.4854 480.2705)" class="st6" cx="128.7" cy="396.4" rx="3.3" ry="2.3"/>
<ellipse transform="matrix(0.111 -0.9938 0.9938 0.111 -270.0775 409.9564)" class="st4" cx="94.1" cy="355.9" rx="3.3" ry="2.3"/>
<ellipse transform="matrix(0.111 -0.9938 0.9938 0.111 -248.5782 421.1948)" class="st7" cx="111.2" cy="349.5" rx="3.3" ry="2.3"/>
<ellipse transform="matrix(0.111 -0.9938 0.9938 0.111 -250.0509 384.9754)" class="st6" cx="90.2" cy="332.3" rx="3.3" ry="2.3"/>
<ellipse transform="matrix(0.2457 -0.9694 0.9694 0.2457 -44.4294 513.8453)" class="st5" cx="307.9" cy="285.5" rx="3.6" ry="5.2"/>
<ellipse transform="matrix(0.2457 -0.9694 0.9694 0.2457 -69.7476 480.8742)" class="st6" cx="274.1" cy="285.3" rx="3.6" ry="5.2"/>
<ellipse transform="matrix(0.2457 -0.9694 0.9694 0.2457 -66.8566 541.1824)" class="st7" cx="314.3" cy="313.5" rx="3.6" ry="5.2"/>
<ellipse transform="matrix(0.111 -0.9938 0.9938 0.111 -34.2902 611.9736)" class="st4" cx="324.9" cy="325.2" rx="3.3" ry="2.3"/>
<ellipse transform="matrix(0.111 -0.9938 0.9938 0.111 -52.893 633.5921)" class="st6" cx="327.7" cy="346.4" rx="3.3" ry="2.3"/>
<ellipse transform="matrix(0.111 -0.9938 0.9938 0.111 -43.4851 563.278)" class="st4" cx="293.1" cy="305.9" rx="3.3" ry="2.3"/>
<ellipse transform="matrix(0.111 -0.9938 0.9938 0.111 -21.9858 574.5164)" class="st7" cx="310.2" cy="299.5" rx="3.3" ry="2.3"/>
<ellipse transform="matrix(0.111 -0.9938 0.9938 0.111 -23.4585 538.2969)" class="st6" cx="289.2" cy="282.3" rx="3.3" ry="2.3"/>
<ellipse transform="matrix(0.2457 -0.9694 0.9694 0.2457 -101.9441 139.9369)" class="st5" cx="38.9" cy="135.5" rx="3.6" ry="5.2"/>
<ellipse transform="matrix(0.2457 -0.9694 0.9694 0.2457 -127.2623 106.9658)" class="st6" cx="5.1" cy="135.3" rx="3.6" ry="5.2"/>
<ellipse transform="matrix(0.2457 -0.9694 0.9694 0.2457 -124.3713 167.274)" class="st7" cx="45.3" cy="163.5" rx="3.6" ry="5.2"/>
<ellipse transform="matrix(0.111 -0.9938 0.9938 0.111 -124.3464 211.2944)" class="st4" cx="55.9" cy="175.2" rx="3.3" ry="2.3"/>
<ellipse transform="matrix(0.111 -0.9938 0.9938 0.111 -142.9491 232.9129)" class="st6" cx="58.7" cy="196.4" rx="3.3" ry="2.3"/>
<ellipse transform="matrix(0.111 -0.9938 0.9938 0.111 -133.5412 162.5987)" class="st4" cx="24.1" cy="155.9" rx="3.3" ry="2.3"/>
<ellipse transform="matrix(0.111 -0.9938 0.9938 0.111 -112.0419 173.8371)" class="st7" cx="41.2" cy="149.5" rx="3.3" ry="2.3"/>
<ellipse transform="matrix(0.111 -0.9938 0.9938 0.111 -113.5146 137.6177)" class="st6" cx="20.2" cy="132.3" rx="3.3" ry="2.3"/>
<ellipse transform="matrix(0.2457 -0.9694 0.9694 0.2457 143.0434 196.7544)" class="st5" cx="197.9" cy="6.5" rx="3.6" ry="5.2"/>
<ellipse transform="matrix(0.2457 -0.9694 0.9694 0.2457 117.7252 163.7833)" class="st6" cx="164.1" cy="6.3" rx="3.6" ry="5.2"/>
<ellipse transform="matrix(0.2457 -0.9694 0.9694 0.2457 120.6162 224.0915)" class="st7" cx="204.3" cy="34.5" rx="3.6" ry="5.2"/>
<ellipse transform="matrix(0.111 -0.9938 0.9938 0.111 145.1993 254.636)" class="st4" cx="214.9" cy="46.2" rx="3.3" ry="2.3"/>
<ellipse transform="matrix(0.111 -0.9938 0.9938 0.111 126.5966 276.2545)" class="st6" cx="217.7" cy="67.4" rx="3.3" ry="2.3"/>
<ellipse transform="matrix(0.111 -0.9938 0.9938 0.111 136.0045 205.9404)" class="st4" cx="183.1" cy="26.9" rx="3.3" ry="2.3"/>
<ellipse transform="matrix(0.111 -0.9938 0.9938 0.111 157.5037 217.1788)" class="st7" cx="200.2" cy="20.5" rx="3.3" ry="2.3"/>
<ellipse transform="matrix(0.111 -0.9938 0.9938 0.111 156.0311 180.9593)" class="st6" cx="179.2" cy="3.3" rx="3.3" ry="2.3"/>
<path class="st8" d="M245.4,560.9c1.3,0.1,2.3-0.9,2.4-2.2c0-0.7-0.2-1.3-0.7-1.8l-0.2-0.6c0,0,0-0.1,0.1-0.1c1.3-3.1,4.9-4.5,8-3.2
	c1.5,0.6,2.6,1.8,3.3,3.3c1.8,4.4,4.2,8.9,4.8,13.5c0.3,2.1,0.1,4.2-0.3,6.2c4.3-9.4,6.6-19.7,6.6-30c0-2.6-0.1-5.2-0.4-7.8
	c-0.2-2.1-0.6-4.2-1-6.3c-2.3-11.3-7.3-22-14.5-31c-3.5-1.9-6.3-4.8-8.1-8.4c-0.6-1.3-1.1-2.6-1.3-4.1c0.4,0.1,1.5-5.9,1.2-6.3
	c0.5-0.8,1.5-1.2,2.1-2.1c3-4,7.1-3.3,9.2,2.2c4.6,2.3,4.6,6.1,1.8,9.8c-1.8,2.3-2,5.5-3.6,8c0.2,0.2,0.3,0.4,0.5,0.6
	c3,3.8,5.5,7.9,7.7,12.2c-0.5-4.8,0.1-9.7,1.8-14.2c1.7-4.2,5-7.8,7.9-11.4c2.1-2.7,6.1-3.2,8.8-1.1c1.3,1,2.2,2.5,2.4,4.2
	c0,0.1,0,0.1,0,0.2c-0.4,0.2-0.8,0.5-1.3,0.8c-1.4,0.9-1.8,2.9-0.8,4.3c0.5,0.7,1.2,1.2,2.1,1.3l0.1,0c-0.2,1.5-0.4,3.1-0.8,4.6
	c3.7,14.3-4.3,19.5-15.7,19.8c-0.3,0.1-0.5,0.3-0.7,0.4c2.2,6.1,3.5,12.5,4,19c0.3,3.8,0.3,7.7-0.1,11.5l0-0.1
	c0.8-4.3,3.1-8.1,6.4-10.9c4.9-4.1,11.9-5.6,17.3-8.8c1.6-1.1,3.8-0.6,4.9,1.1c0.5,0.7,0.6,1.5,0.5,2.4l0,0.1
	c-0.8,0.3-1.6,0.7-2.3,1.1c-0.4,0.2-0.8,0.5-1.3,0.8c-1.4,0.9-1.8,2.9-0.8,4.3c0.5,0.7,1.2,1.2,2.1,1.3l0.1,0c0,0,0.1,0,0.1,0
	c-1.4,3.2-3.3,6.2-5.6,8.8c-2.3,12.5-12.3,13.7-22.9,10h0c-1.2,5.1-2.9,10-5,14.7h-18c-0.1-0.2-0.1-0.4-0.2-0.6c1.7,0.1,3.3,0,5-0.3
	c-1.3-1.6-2.7-3.3-4-4.9c0,0-0.1-0.1-0.1-0.1c-0.7-0.8-1.4-1.7-2-2.5l0,0C244.5,566,244.8,563.4,245.4,560.9L245.4,560.9z"/>
<path class="st9" d="M43.9,577.1c0,0.7,0.5,1.2,1.2,1.2c0,0,0,0,0,0h253.3c0.7,0,1.2-0.5,1.2-1.2s-0.5-1.2-1.2-1.2H45.1
	C44.4,575.9,43.9,576.4,43.9,577.1C43.9,577.1,43.9,577.1,43.9,577.1z"/>
</svg>
