<?xml version="1.0" encoding="utf-8"?>
<!-- Generator: Adobe Illustrator 27.7.0, SVG Export Plug-In . SVG Version: 6.00 Build 0)  -->
<svg version="1.1" id="Ebene_1" xmlns="http://www.w3.org/2000/svg" xmlns:xlink="http://www.w3.org/1999/xlink" x="0px" y="0px"
	 viewBox="0 0 563.2 596.8" style="enable-background:new 0 0 563.2 596.8;" xml:space="preserve">
<style type="text/css">
	.st0{fill:#FD6584;}
	.st1{fill:#E6E6E6;}
	.st2{fill:#F2F2F2;}
	.st3{fill:#3F3D56;}
	.st4{fill:#2F2E41;}
	.st5{fill:#BB1C16;}
	.st6{fill:#FFFFFF;}
	.st7{fill:#FFB6B6;}
	.st8{fill:#4E342E;}
	.st9{opacity:0.2;enable-background:new    ;}
</style>
<circle class="st0" cx="215.6" cy="68.3" r="26.7"/>
<path class="st1" d="M275.4,55.6c-1.5-5-5.9-8.7-11.2-9.3c-0.1,0-0.1,0-0.2,0c-0.1,0-0.1,0-0.2-0.1c-8.9-1.2-18.9,1.7-25.6,7.8
	c-2.5,2.2-4.5,5-5.8,8c-2.5-3.4-6.6-5.4-10.8-5.3c-5.5,0.4-10.3,4.2-11.8,9.5c-0.2,0.7,0.1,1.3,0.7,1.7c0.8,0.7,1.8,1.2,2.8,1.4
	c2.2,0.5,4.4,0.9,6.7,1.3c4.4,0.8,8.7,1.4,13.2,1.9c2.9,0.3,5.8,0.6,8.8,0.7c6,0.4,12.1,0.5,18.2,0.3c3-0.1,5.9-0.2,8.6-1.5
	c2-1,3.7-2.5,5-4.3C275.9,64.2,276.6,59.7,275.4,55.6z"/>
<path class="st1" d="M220.4,94.5c-0.1-1.1-0.2-2.2-0.6-3.3c-1.5-5-5.9-8.7-11.2-9.3c-0.1,0-0.1,0-0.2,0c-0.1,0-0.2,0-0.2,0
	c-4.9-0.6-10-0.1-14.7,1.5c-7.3,2.4-13.6,7.3-16.7,14.3c-2.5-3.4-6.6-5.4-10.8-5.3c-5.5,0.4-10.3,4.2-11.8,9.5
	c-0.2,0.7,0.1,1.3,0.7,1.7c0.8,0.7,1.8,1.2,2.8,1.4c2.2,0.5,4.4,0.9,6.7,1.3c4.4,0.8,8.7,1.4,13.1,1.9c8.9,1,17.9,1.3,26.9,1
	c3-0.1,5.9-0.2,8.6-1.5c2-1,3.7-2.5,4.9-4.3C219.8,100.8,220.6,97.7,220.4,94.5z"/>
<path class="st2" d="M418.1,431.5h-24.3v-380c-1.6-1.2-3.3-2.4-5-3.6c-0.3-0.2-0.7-0.5-1-0.7c-19.3-13.5-40.1-24.5-62-32.9
	l-4.7,65.1l0,0h-30.4v-76c-2-0.5-4-0.9-6-1.4v77.4H170.1V0c-2,0.4-4,0.8-6,1.2v78.2h-31.4l0,0l-5-68.3C106.5,18.5,86.1,28.4,67,40.6
	c-0.7,0.4-1.3,0.8-2,1.3c-1.3,0.9-2.7,1.7-4,2.6v387H26.8C12,431.5,0,443.5,0,458.3c0,3.4,0.7,6.8,1.9,10c0.5,1.2,1.1,2.4,1.8,3.6
	c0.9,1.5,1.9,2.9,3,4.2c5.1,5.8,12.4,9.1,20.1,9.1h391.3c14.8,0,26.8-12,26.8-26.8S432.9,431.5,418.1,431.5L418.1,431.5z
	 M314.6,169.8l-18.9,261.7H158.2l-18.9-261.7H314.6z M320.7,85.4l-4.7,64.6h-25.3V85.4H320.7z M284.8,85.4v64.6h-45.6
	c-1.9-3.7-5.6-6-9.7-6h-6c-4.1,0-7.9,2.3-9.7,6h-43.6V85.4H284.8z M164.1,149.9h-26.3l-4.7-64.6h30.9L164.1,149.9z"/>
<path class="st3" d="M2.4,474.7c8.7,10.3,18.1,20,28.1,29l379.6,1c10-9,19.4-18.7,28.1-29L2.4,474.7z"/>
<path class="st4" d="M194.1,377.9v102.6h71.8V377.9c0-1.5-1-2.9-2.4-3.3c-0.3-0.1-0.7-0.2-1-0.2h-64.9
	C195.6,374.5,194.1,376,194.1,377.9C194.1,377.9,194.1,377.9,194.1,377.9z M222.1,413.2c0-4.2,3.5-7.6,7.7-7.6
	c4.2,0,7.6,3.4,7.6,7.6v11.9c0,4.2-3.5,7.7-7.7,7.6c-4.2,0-7.6-3.4-7.6-7.6V413.2z"/>
<path class="st3" d="M193.8,477.2v9.9c0,1.1,0.9,1.9,1.9,1.9h68.4c1.1,0,1.9-0.9,1.9-1.9v-9.9H193.8z"/>
<path class="st3" d="M81,223.4v187.3c0,5,4,9,9,9h277.5c5,0,9-4,9-9V223.4c0-5-4-9-9-9H90C85.1,214.4,81,218.4,81,223.4z"/>
<path class="st5" d="M87.5,225.7v182.6c0,2.7,2.2,4.8,4.8,4.8h272.9c2.7,0,4.8-2.2,4.8-4.8V225.7c0-2.7-2.2-4.8-4.8-4.8H92.3
	C89.7,220.9,87.5,223.1,87.5,225.7z"/>
<path class="st4" d="M143.2,491.4c0.6,0.7,1.4,1.1,2.3,1.1h162.3c1.6,0,3-1.3,3-3c0-0.2,0-0.4-0.1-0.6l-2.5-12
	c-0.2-1-0.9-1.8-1.9-2.2c-0.3-0.1-0.7-0.2-1.1-0.2H148c-0.4,0-0.7,0.1-1.1,0.2c-0.9,0.4-1.6,1.2-1.9,2.2l-2.5,12
	C142.4,489.7,142.6,490.7,143.2,491.4z"/>
<path class="st6" d="M148,477c0,0-0.1,0-0.1,0c-0.2,0.1-0.3,0.2-0.3,0.4l-2.5,12c0,0.1,0,0.3,0.1,0.4l0,0c0.1,0.1,0.2,0.2,0.4,0.2
	h162.3c0.1,0,0.3-0.1,0.4-0.2c0.1-0.1,0.1-0.3,0.1-0.4l-2.5-12c0-0.2-0.2-0.3-0.3-0.3c-0.1,0-0.1,0-0.2,0H148z"/>
<path class="st3" d="M101.1,246.1h255.3c0.6,0,1-0.5,1-1c0-0.5-0.4-1-1-1H101.1c-0.6,0-1,0.5-1,1
	C100.1,245.6,100.6,246.1,101.1,246.1z"/>
<ellipse class="st3" cx="339.1" cy="232.8" rx="6" ry="6.1"/>
<ellipse class="st3" cx="318.5" cy="232.8" rx="6" ry="6.1"/>
<ellipse class="st3" cx="298" cy="232.8" rx="6" ry="6.1"/>
<path class="st3" d="M112.4,229.3c0,0.6,0.5,1.1,1.1,1.1c0,0,0,0,0,0h14.6c0.6,0,1.1-0.5,1.1-1.1c0-0.6-0.5-1.1-1.1-1.1h-14.6
	C112.9,228.2,112.4,228.7,112.4,229.3z"/>
<path class="st3" d="M112.4,233.4c0,0.6,0.5,1.1,1.1,1.1c0,0,0,0,0,0h14.6c0.6,0,1.1-0.5,1.1-1.1c0-0.6-0.5-1.1-1.1-1.1h-14.6
	C112.9,232.3,112.4,232.8,112.4,233.4z"/>
<path class="st3" d="M112.4,237.6c0,0.6,0.5,1.1,1.1,1.1h14.6c0.6,0,1.1-0.5,1.1-1.1c0-0.6-0.5-1.1-1.1-1.1h-14.6
	C112.9,236.5,112.4,237,112.4,237.6C112.4,237.6,112.4,237.6,112.4,237.6z"/>
<path class="st3" d="M318.4,277.1H139.2c-4.9,0-8.9,4-8.9,8.9v87.2c0,4.9,4,8.9,8.9,8.9h179.2c4.9,0,8.9-4,8.9-8.9v-87.2
	C327.3,281,323.3,277.1,318.4,277.1z M325.3,285.9v25.5h-63v-32.3h56.1C322.2,279.1,325.3,282.1,325.3,285.9L325.3,285.9z
	 M197.3,345.7v-32.3h63v32.3H197.3z M260.3,347.7v32.3h-63v-32.3H260.3z M195.3,345.7h-63v-32.3h63V345.7z M197.3,311.4v-32.3h63
	v32.3H197.3z M262.3,313.4h63v32.3h-63V313.4z M139.2,279.1h56.1v32.3h-63v-25.5C132.3,282.1,135.4,279.1,139.2,279.1L139.2,279.1z
	 M132.3,373.2v-25.5h63v32.3h-56.1C135.4,380.1,132.3,377,132.3,373.2z M318.4,380.1h-56.1v-32.3h63v25.5
	C325.3,377,322.2,380.1,318.4,380.1L318.4,380.1z"/>
<path class="st6" d="M219.7,299.2c-1.6-2.6-3.5-5.4-6.4-6.3c-3.4-1-6.9,1-9.9,2.9c-8.9,5.8-17.5,12.2-25.7,18.9l0,0.1l19.2-1.3
	c4.6-0.3,9.4-0.7,13.5-2.9c1.5-0.8,3.1-1.9,4.8-2c2.2-0.1,4.1,1.4,5.6,3c8.8,9.4,11.4,23.8,21.3,32.1
	C235.7,328.3,228.3,313.4,219.7,299.2z"/>
<path class="st6" d="M274,379c-1-1.2-1.4-1.5-2.3-2.8c-7.8-10.2-15.2-20.6-22.1-31.5c-4.7-7.4-9.1-14.9-13.4-22.5
	c-2-3.6-4-7.3-5.9-11c-1.5-2.9-2.9-5.7-4.3-8.6c-0.4-0.8-0.8-1.7-1.2-2.5c-0.9-2-1.8-3.9-2.8-5.9c-1-2.3-2.5-4.4-4.5-6
	c-0.9-0.7-2-1.1-3.2-1.2c-1.6,0-3.2,0.5-4.6,1.3c-10.5,5.5-20.2,12.2-29.1,20.1c-8.9,7.8-16.8,16.6-23.7,26.3
	c-0.2,0.3-0.7,0-0.5-0.3c0.8-1.2,1.7-2.3,2.5-3.5c10.7-14.3,23.9-26.6,38.9-36.3c2.5-1.6,5.1-3.2,7.7-4.7c1.3-0.7,2.6-1.5,4-2.2
	c1.3-0.8,2.7-1.2,4.2-1.3c5.1-0.1,7.8,5.7,9.6,9.7c0.6,1.2,1.2,2.5,1.7,3.7c2.2,4.6,4.5,9.3,6.9,13.8c1.5,2.8,3,5.6,4.5,8.4
	c4.8,8.7,9.9,17.2,15.3,25.5c7.2,11,14.3,20.8,22.4,31.1C274.6,378.9,274.2,379.3,274,379z"/>
<path class="st6" d="M180.1,305.6c-0.3-0.3-0.6-0.7-0.9-1c-2.4-2.6-4.9-5.2-8.2-6.7c-1.6-0.7-3.2-1.1-5-1.2c-1.8,0-3.5,0.4-5.2,1.1
	c-0.8,0.3-1.5,0.7-2.3,1c-0.9,0.4-1.7,0.9-2.5,1.3c-1.6,0.9-3.1,1.8-4.6,2.7c-3,1.9-6,3.9-8.8,6.1c-1.5,1.1-2.9,2.3-4.3,3.5
	c-1.3,1.1-2.6,2.3-3.9,3.4c-0.3,0.2-0.7-0.2-0.4-0.4c0.3-0.3,0.7-0.6,1-0.9c1-0.9,1.9-1.7,2.9-2.5c1.8-1.5,3.6-3,5.5-4.4
	c2.9-2.2,6-4.2,9.1-6.1c1.6-0.9,3.1-1.8,4.8-2.7c0.5-0.3,1-0.5,1.5-0.8c1.1-0.6,2.3-1,3.5-1.4c1.7-0.6,3.5-0.7,5.3-0.5
	c1.7,0.2,3.4,0.8,4.9,1.7c3.2,1.8,5.7,4.5,8.1,7.2C180.8,305.5,180.4,305.9,180.1,305.6z"/>
<path class="st6" d="M245.6,332.8l7.7-2.8l3.8-1.4c1.2-0.5,2.5-0.9,3.8-1.3c1.1-0.3,2.3-0.3,3.4,0c1,0.4,1.9,0.9,2.6,1.6
	c0.8,0.7,1.5,1.5,2.2,2.3c0.8,1,1.6,2,2.5,3c3.4,4.1,6.7,8.3,10.1,12.5c3.3,4.2,6.6,8.4,9.9,12.6c3.3,4.2,6.6,8.4,9.8,12.7
	c0.4,0.5,0.8,1,1.2,1.6c0.2,0.3,0.7,0,0.5-0.3c-3.3-4.3-6.6-8.6-9.9-12.8c-3.3-4.3-6.7-8.5-10.1-12.7c-3.4-4.2-6.8-8.4-10.2-12.6
	c-0.9-1-1.7-2.1-2.6-3.1c-0.7-0.9-1.4-1.8-2.2-2.6c-1.4-1.6-3.3-2.7-5.4-2.9c-1.3,0-2.5,0.3-3.7,0.8c-1.3,0.5-2.6,0.9-3.8,1.4
	l-7.7,2.8l-1.9,0.7C245.1,332.3,245.2,332.9,245.6,332.8L245.6,332.8z"/>
<path class="st6" d="M170,301.2c-4-2-8.8-1.6-12.4,0.9c6.8,1.2,13.6,2.7,20.2,4.7C175,305.2,172.9,302.7,170,301.2z"/>
<path class="st6" d="M157.6,302.1l-0.7,0.6C157.1,302.5,157.3,302.3,157.6,302.1L157.6,302.1z"/>
<path class="st6" d="M266.5,332.8c-0.7-1-1.6-1.8-2.7-2.2l-1.1,0c8,14.2,18.8,26.5,31.8,36.3L266.5,332.8z"/>
<circle class="st6" cx="261.6" cy="311.2" r="6.1"/>
<path class="st3" d="M349.5,378.6c2.5,0,4.5-2,4.5-4.5v-93c0-2.5-2-4.5-4.5-4.5s-4.5,2-4.5,4.5v93C345,376.5,347,378.6,349.5,378.6z
	"/>
<path class="st4" d="M349.5,378.6c2.5,0,4.5-2,4.5-4.5v-19.7c-1.8-2.5-5.3-3-7.8-1.2c-0.5,0.3-0.9,0.7-1.2,1.2v19.7
	C345,376.5,347,378.6,349.5,378.6z"/>
<path class="st5" d="M349.5,359.6c2.7,0,4.8-2.2,4.8-4.8v-21.2c-2-2.7-5.7-3.3-8.4-1.3c-0.5,0.4-0.9,0.8-1.3,1.3v21.2
	C344.7,357.4,346.9,359.6,349.5,359.6z"/>
<path class="st3" d="M349.5,355.7c1.9,0,3.5-1.6,3.5-3.5v-15.5c-1.4-1.9-4.2-2.4-6.1-0.9c-0.4,0.3-0.7,0.6-0.9,0.9v15.5
	C346,354.1,347.6,355.7,349.5,355.7z"/>
<path class="st5" d="M210.7,483c-1.6-1.5-1.8-4-0.3-5.6l39.3-44c1.5-1.6,4-1.8,5.6-0.3s1.8,4,0.3,5.6l-39.3,44
	C214.9,484.4,212.3,484.5,210.7,483z"/>
<path class="st1" d="M536.8,555.5c0,7.3-1.7,12.9-1.5,17.3c-11.8,5.1-23.9,9.5-36.3,13c-1.4,0.4-2.8,0.8-4.2,1.2
	c-7.6-23.4-15.3-44.8-18.3-47c-6.9-5.2-10.3,16.2-10.3,11.1c0-5.2,3.5-5.2-5.2-12.1c-8.6-6.9-3.5-37.9-3.5-37.9l-12.1-31l13.5-49.5
	l17.5-64.2h17.2c0,0,0.5,0.4,1.4,1.1c4.3,3.5,17.3,15.3,15.9,28.2c-0.4,3.9,0.5,15.1,2.2,30c5.1,45.1,16.8,94.2,16.8,107.1
	C530,540,536.8,545.1,536.8,555.5z"/>
<path class="st3" d="M522.4,415.5c0,0,0-0.1,0-0.1c-0.4-1-0.8-2.1-1.4-3c-2.9-5.5,0.2-13.9-3.1-23.2c-5.3-15-11.8-23.9-21.2-31.9
	c-0.3-0.2-0.6-0.5-0.8-0.7l0,0c-6.3-5.2-13.9-10-23.4-16.1c-2-1.3-4-2.6-6.2-4c-2.8-1.8-2.6-7.7-2.4-13.9c0.2-6.9,0.4-14.1-3-18.6
	l-0.2-0.3l-0.4-0.1c-11.7-2.3-23.5-3.2-35.4-2.7h0c-5,0.2-10,0.9-14.9,2.2c-0.4,0.1-0.7,0.2-1.1,0.3c-0.3,0.1-0.5,0.2-0.8,0.2
	l-0.2,0.1l-0.2,0.2c-3.3,3.3-4,9.2-4.4,15.3v0c-0.1,1.1-0.1,2.2-0.2,3.4c-0.3,6-0.5,11.6-2.7,14.1c-4.9,5.6-10.8,10.1-17.5,13.4
	c-10.3,5.1-18.5,4.9-18.6,4.9l-1,0l-0.1,0.9c-6.9,13.1-6.6,46.8-6.8,82.9c0,2,0,4,0,6.1c-0.1,16.8-0.4,33.9-1.7,49.5
	c-0.5,6.7-1.3,13.1-2.2,19.1c-4.6,29.2-25.5,4.9-35.6,24.4c0.3,1.9,0.9,3.8,1.7,5.5c1.2,0.7,2.3,1.3,3.5,2
	c5.2,2.9,10.5,5.6,15.9,8.1c0.3,0.1,0.6,0.3,0.9,0.4c9.9,4.6,20.1,8.5,30.5,11.6c2,0.6,4.1,1.2,6.1,1.8c18.1,5,36.8,7.8,55.6,8.3
	c0.1,0,0.2,0,0.2,0c22.2-0.6,44.3-3.8,65.8-9.5c0.3-0.1,0.6-0.2,0.9-0.2c1.4-0.4,2.8-0.8,4.2-1.2c12.4-3.5,24.5-7.9,36.3-13
	c0,0.4,0.1,0.9,0.1,1.3c0,0.1,0,0.3,0.1,0.4c0-0.2,0-0.3,0.1-0.5c0.1-0.5,0.1-1,0.2-1.4C544.9,491.9,532.2,441.3,522.4,415.5z"/>
<path class="st7" d="M385,269.2c14.8,27.1,48.9,37.1,76,22.3c27.1-14.8,37.1-48.9,22.3-76c-14.8-27.1-48.9-37.1-76-22.3
	c-11.4,6.2-20.3,16.2-25.1,28.3c-0.3,0.6-0.5,1.3-0.7,1.9C376,238.5,377.3,255.2,385,269.2z"/>
<path class="st8" d="M376.9,223.5c2.4-6.7,1.4-3.2,3.8-9.9c-1.6,5.9,0.9,9.3,0.7,9.9h66.7v-38.7c-19.5-7.7-38.6-14.3-50.2,0
	c-21.4,0-38.7,17.3-38.7,38.7H376.9z"/>
<path class="st8" d="M400.5,331.2c0.1-0.7,0.1-1.5,0.2-2.2c0.7-5.3,2.5-10.4,4.3-15.4c1.9-5.4,3.9-10.8,5.8-16.2
	c-2.5,9.8-1.7,20.2,2.2,29.5c11.3-8.8,4.2-28.8,18.9-28.8c35.4,0,71.8-28.7,71.8-64.1c0-35.4-15.2-61.8-50.5-61.8
	c-35.4,0-64.1,16.2-64.8,51.6C432,234,392.3,327.6,400.5,331.2z"/>
<ellipse transform="matrix(0.7071 -0.7071 0.7071 0.7071 13.5992 408.0072)" class="st8" cx="499.3" cy="187.6" rx="41" ry="41"/>
<path class="st4" d="M563.2,422.7c-0.1,2.1-0.3,4.4-0.4,6.7c-2.1,44.9-0.3,105.3-14.6,138.1c-3.2,1.7-6.4,3.4-9.7,5
	c-0.1,0.1-0.3,0.1-0.4,0.2c-0.9,0.4-1.8,0.8-2.6,1.2c0,0-0.1,0-0.1,0.1c-9.7,4.6-19.6,8.5-29.8,11.7c-1.2,0.4-2.5,0.8-3.8,1.2
	c-0.3,0.1-0.5,0.2-0.8,0.2c-19.2,5.7-39,8.9-59,9.5c-1,0-2.1,0-3,0.1c-0.3,0-0.7,0-1,0c-1.1,0-2.2,0-3.3,0c-2.3,0-4.5,0-6.8-0.1
	c-18.8-0.5-37.5-3.3-55.6-8.3c-2.1-0.6-4.1-1.2-6.1-1.8c-10.4-3.2-20.6-7.1-30.5-11.6c-0.3-0.1-0.6-0.3-0.9-0.4
	c-5.4-2.5-10.7-5.2-15.9-8.1c-1.2-0.7-2.3-1.3-3.5-2c-0.8-1.8-1.3-3.6-1.7-5.5c-2.3-10.9-4.1-3.5-5.4-26.2
	c-1.2-20.8-2-41.7-2.2-53.6c-0.1-3.2-0.1-5.7-0.1-7.5c1.1-7.6,18.1-16.2,43-24.3c2.4-0.8,4.8-1.5,7.3-2.3c6.7-2.1,13.9-4.1,21.4-6.1
	c19.1-5,40.3-9.6,61.4-13.4c10.4-1.9,20.7-3.5,30.8-5c17.6-2.5,34.3-4.2,48.6-4.9c1.4-0.1,2.7-0.1,4-0.2c1.4-0.1,2.8-0.1,4.2-0.1
	C547.1,414.9,561.2,417,563.2,422.7z"/>
<path class="st9" d="M563.2,422.7c-0.1,2.1-0.3,4.4-0.4,6.7c-15.6-16.8-183.4,58.2-254.5,103.2c-1.2-20.8-2-41.7-2.2-53.6
	c-0.1-3.2-0.1-5.7-0.1-7.5c1.1-7.6,18.1-16.2,43-24.3c2.4-0.8,4.8-1.5,7.3-2.3c6.7-2.1,13.9-4.1,21.4-6.1c19.1-5,40.3-9.6,61.4-13.4
	c10.4-1.9,20.7-3.5,30.8-5c17.6-2.5,34.3-4.2,48.6-4.9c1.4-0.1,2.7-0.1,4-0.2c1.4-0.1,2.8-0.1,4.2-0.1
	C547.1,414.9,561.2,417,563.2,422.7z"/>
<path class="st7" d="M221.9,474.8c5.9,7.5,16.8,8.8,24.3,2.8c0.8-0.6,1.5-1.3,2.2-2.1l56.9,23.4l-6.1-31.4l-53.1-17.4
	c-7.6-5.9-18.6-4.5-24.4,3.1C216.8,459.6,216.9,468.5,221.9,474.8z"/>
<path class="st3" d="M411.3,344l-0.3,0l-33.2,2.4c-8.5,0.6-16.4,4.9-21.6,11.7c-1.2,1.6-2.2,3.2-3.1,5l0,0
	c-2.9,5.9-3.7,12.5-2.5,18.9l15.6,78.7l-37.6-3.4l-13.7,2.3l-16.2-6.5l-33.3,0.6l-0.8,2.5l-7,23.1l-0.5,1.8l50.8,32l14.7-4.5
	l6.9,5.3l0.3,0l13.8,0.3l58.6,1.1l16-28.4l2.5-4.5c18.6-41.7,23.2-70.8,21.8-90.9c-0.8-10.6-3.2-18.7-6.2-24.7
	C427.3,348.2,412,344.2,411.3,344z"/>
<path class="st5" d="M504.5,224c-15.8-3.6-28.7-14.9-34.2-30.2c-2.4-7-3.3-14.6-7.4-20.9c6.2-8.4,11.1-17.7,14.7-27.5
	c1.4-3.8,4.6-10.7-0.9-12.8c-4.4-1.7-9.3,2.4-11.9,5.5c-2,2.4-3.4,5.2-4.1,8.2c-0.9-3.9-1.8-7.9-2.7-11.8c-0.2-0.8-1-1.2-1.8-1
	c-7.3,1.2-12.6,8-13.6,15.2c-0.5,3.7,0.3,7.4,2.4,10.5c2.4,3.6,5.8,6.1,9.1,8.8c3.5,2.8,6.4,5.9,8.3,10c1.9,4.3,2.8,9,4.1,13.6
	c5,17.7,19.3,31.3,37.2,35.3C505.6,227.3,506.4,224.4,504.5,224z M463.1,152.3c-0.2-3.8,0.8-7.5,2.8-10.7c1-1.6,2.3-3,3.9-4.2
	c1.4-1.1,3.5-2.5,5.4-2.1c2.5,0.5,1.5,3.3,0.9,4.9c-0.7,2.2-1.4,4.3-2.3,6.5c-1.6,4.1-3.5,8.2-5.6,12.1c-1.1,2-2.3,4-3.5,6
	c-0.8-3.7-1.7-7.5-2.5-11.2C462.9,153.4,463.2,152.9,463.1,152.3z M445.6,152.9c-1-7,3.1-13.8,9.8-16.1c2.4,10.5,4.8,21,7.1,31.5
	c-0.5,0.7-1,1.4-1.5,2.2c-0.1-0.2-0.3-0.3-0.4-0.5C455.7,164.6,447,160.9,445.6,152.9z"/>
</svg>
