<?xml version="1.0" encoding="utf-8"?>
<!-- Generator: Adobe Illustrator 27.7.0, SVG Export Plug-In . SVG Version: 6.00 Build 0)  -->
<svg version="1.1" id="Ebene_1" xmlns="http://www.w3.org/2000/svg" xmlns:xlink="http://www.w3.org/1999/xlink" x="0px" y="0px"
	 viewBox="0 0 886 654.3" style="enable-background:new 0 0 886 654.3;" xml:space="preserve">
<style type="text/css">
	.st0{fill:#FBBEBE;}
	.st1{opacity:0.1;enable-background:new    ;}
	.st2{fill:#BB1C16;}
	.st3{fill:#3F3D56;}
	.st4{fill:none;stroke:#3F3D56;stroke-miterlimit:10;}
	.st5{fill:#57B894;}
	.st6{opacity:0.3;}
</style>
<path class="st0" d="M377.7,443.7c0,0,117.7-14.1,158.8-36.5s347.1-32.9,347.1,36.5s-351.8,100-351.8,100l-184.7-10.6L377.7,443.7z"
	/>
<path class="st1" d="M377.7,443.7c0,0,117.7-14.1,158.8-36.5s347.1-32.9,347.1,36.5s-351.8,100-351.8,100l-184.7-10.6L377.7,443.7z"
	/>
<path class="st2" d="M411.8,430.7l-24.7,71.8L0,507.2V401.3c0,0,148.3-34.1,265.9,38.8C265.9,440.2,404.8,423.7,411.8,430.7z"/>
<path class="st1" d="M411.8,430.6l-24.7,71.8L0,507.1V401.2c0,0,148.3-34.1,265.9,38.8C265.9,440,404.8,423.6,411.8,430.6z"/>
<path class="st3" d="M854.4,400.7c0,4-9,7-9.9,10.9c-0.9,3.8,4.5,9.7,2.8,13.3c-1.7,3.7-3.8,7.3-6.2,10.7c-2.2,3.2-9.1,2.7-11.9,5.7
	c-2.7,2.7-5.7,5.2-8.7,7.6c-3,2.5-7,3-10.4,5.3c-3.2,2.2-2.8,10.1-6.4,12.1c-3.4,1.9-8.6,0.4-12.3,2.1c-3.5,1.6-5.4,7.5-9.2,8.9
	c-3.7,1.4-8.2,0.8-12,2c-3.7,1.2-7.9,1-11.8,2c-3.8,1-6.7,6.7-10.7,7.4c-3.9,0.7-8.4-1.2-12.4-0.7c-3.9,0.6-8.4-4.4-12.4-4
	c-3.9,0.4-7.6,2.6-11.6,2.8c-3.9,0.2-7.8,1.9-11.8,1.9c-4,0-8.2,3.8-12.1,3.6c-4-0.2-7.6-5.9-11.6-6.3c-4-0.4-8.8,5.6-12.7,5
	c-4-0.6-7.1-6.4-11-7.2c-4-0.8-9.1,3.4-12.9,2.5c-3.9-1-6.2-7.8-10-8.9c-3.9-1.2-8.6,0.4-12.3-1c-3.8-1.4-8.4-1.2-11.9-2.8
	c-3.7-1.7-6.3-5.7-9.7-7.6c-3.6-2-5.2-6.9-8.4-9c-3.4-2.3-8.5-2-11.5-4.5c-3.1-2.6-9-2.8-11.7-5.6c-2.8-3-3.9-8-6.2-11.1
	c-2.3-3.3,2.2-10.4,0.6-13.9c-1.7-3.7-8.8-5.2-9.6-9c-0.9-4-1.4-8.1-1.4-12.2c0-4,6-7.1,6.9-10.9c0.9-3.8-3.6-9.3-1.9-13
	c1.6-3.5,1.4-9,3.8-12.3c2.2-3.2,7.7-4.4,10.5-7.4c2.7-2.8,7.4-3.6,10.5-6.2c3-2.5,2.6-9.9,6-12.2c3.2-2.2,7.7-3.2,11.3-5.1
	c3.4-1.9,8.2-1.6,11.9-3.3c3.5-1.6,9.1,1.6,12.9,0.1c3.7-1.4,6.6-4.4,10.5-5.6c3.7-1.2,5.5-10,9.4-11c3.8-1,8.5,0.6,12.4-0.1
	c3.9-0.7,9,6.3,13,5.7c3.9-0.6,6.8-9.9,10.8-10.3c3.9-0.4,8.3,4.5,12.3,4.3c3.9-0.2,7.9,2.7,11.9,2.7c4,0,8-3.9,11.9-3.7
	c4,0.2,7.6,5.3,11.5,5.7c4,0.4,8.9-7.4,12.8-6.9c4,0.6,7.1,6.6,10.9,7.4c4,0.8,8.9-3,12.7-2c3.9,1,6.3,7.4,10,8.6
	c3.9,1.2,6.2,5.7,9.9,7.1c3.8,1.4,10.8-5.3,14.4-3.7c3.7,1.7,6.9,4.6,10.3,6.5c3.6,2,9.2,1,12.4,3.1c3.4,2.3,4.2,8.4,7.2,10.9
	c3.1,2.6,8.3,3.4,11,6.2c2.8,3,3.2,8.3,5.4,11.5c2.3,3.3,2.3,8,3.9,11.5c1.7,3.7,6.2,6.4,7.1,10.3
	C851.8,392.3,854.4,396.7,854.4,400.7z"/>
<path class="st0" d="M430.6,474.3c0,0,133-68.2,218.9-42.4s205.9-18.8,220-3.5c14.1,15.3,34.1,180-135.3,189.4
	s-314.2-28.2-314.2-28.2L430.6,474.3z"/>
<path class="st2" d="M399.3,467c0,0,52.5-3.3,50.1,15.5s-4.7,164.7-18.8,168.3s-125.9,3.5-171.8,3.5H0V428.7
	c0,0,183.6-10.9,275.3,35C275.3,463.7,385.7,462.1,399.3,467z"/>
<path class="st4" d="M645.2,114.2c-10.2,0.6-19.3,6.9-23.3,16.3c-5.8,14.1,1.7,30.6,12.9,40.9s25.7,16.1,38.9,23.9
	c17.7,10.4,33.5,24.8,42.4,43.2s9.8,41.4-0.6,59c-9.6,16.4-27.2,26.2-43.9,35.2"/>
<path class="st4" d="M692.3,28.3c-10.2,0.6-19.3,6.9-23.3,16.3c-5.8,14.1,1.7,30.6,12.9,40.9s25.7,16.1,38.9,23.9
	c17.7,10.4,33.5,24.8,42.4,43.2s9.8,41.4-0.6,59c-9.6,16.4-27.2,26.2-43.9,35.2"/>
<path class="st4" d="M847.1,48c-8.4-5.8-19.4-6.3-28.4-1.4c-13.2,7.6-17.4,25.3-14.8,40.3s10.5,28.5,16.1,42.7
	c7.6,19,11.4,40.1,7,60.1s-17.6,38.7-36.6,46.3c-17.7,7.1-37.5,4.1-56.3,1"/>
<ellipse class="st5" cx="710.7" cy="211.9" rx="28.2" ry="13.7"/>
<ellipse class="st4" cx="707.2" cy="209.5" rx="28.2" ry="13.7"/>
<ellipse class="st5" cx="771.9" cy="200.1" rx="28.2" ry="13.7"/>
<ellipse class="st4" cx="768.3" cy="197.8" rx="28.2" ry="13.7"/>
<ellipse class="st5" cx="781.3" cy="251.9" rx="28.2" ry="13.7"/>
<ellipse class="st4" cx="777.8" cy="249.5" rx="28.2" ry="13.7"/>
<ellipse class="st5" cx="775.4" cy="122.5" rx="28.2" ry="13.7"/>
<ellipse class="st4" cx="771.9" cy="120.1" rx="28.2" ry="13.7"/>
<ellipse class="st5" cx="704.8" cy="114.2" rx="28.2" ry="13.7"/>
<ellipse class="st4" cx="701.3" cy="111.9" rx="28.2" ry="13.7"/>
<ellipse class="st5" cx="736.6" cy="84.8" rx="28.2" ry="13.7"/>
<ellipse class="st4" cx="733" cy="82.5" rx="28.2" ry="13.7"/>
<ellipse class="st5" cx="806" cy="90.7" rx="28.2" ry="13.7"/>
<ellipse class="st4" cx="802.5" cy="88.3" rx="28.2" ry="13.7"/>
<ellipse class="st5" cx="857.8" cy="129.5" rx="28.2" ry="13.7"/>
<ellipse class="st4" cx="854.2" cy="127.2" rx="28.2" ry="13.7"/>
<ellipse class="st5" cx="675.4" cy="61.3" rx="28.2" ry="13.7"/>
<ellipse class="st4" cx="671.9" cy="58.9" rx="28.2" ry="13.7"/>
<ellipse class="st5" cx="693" cy="16.6" rx="28.2" ry="13.7"/>
<ellipse class="st4" cx="689.5" cy="14.2" rx="28.2" ry="13.7"/>
<ellipse class="st5" cx="856.6" cy="49.5" rx="28.2" ry="13.7"/>
<ellipse class="st4" cx="853.1" cy="47.2" rx="28.2" ry="13.7"/>
<ellipse class="st5" cx="596.5" cy="157.8" rx="28.2" ry="13.7"/>
<ellipse class="st4" cx="593" cy="155.4" rx="28.2" ry="13.7"/>
<ellipse class="st5" cx="694.2" cy="150.7" rx="28.2" ry="13.7"/>
<ellipse class="st4" cx="690.7" cy="148.4" rx="28.2" ry="13.7"/>
<ellipse class="st5" cx="822.5" cy="161.3" rx="28.2" ry="13.7"/>
<ellipse class="st4" cx="818.9" cy="158.9" rx="28.2" ry="13.7"/>
<ellipse class="st5" cx="754.2" cy="166" rx="28.2" ry="13.7"/>
<ellipse class="st4" cx="750.7" cy="163.6" rx="28.2" ry="13.7"/>
<ellipse class="st5" cx="758.9" cy="48.3" rx="28.2" ry="13.7"/>
<ellipse class="st4" cx="755.4" cy="46" rx="28.2" ry="13.7"/>
<ellipse class="st5" cx="637.7" cy="121.3" rx="28.2" ry="13.7"/>
<ellipse class="st4" cx="634.2" cy="118.9" rx="28.2" ry="13.7"/>
<ellipse class="st5" cx="654.2" cy="174.2" rx="28.2" ry="13.7"/>
<ellipse class="st4" cx="650.7" cy="171.9" rx="28.2" ry="13.7"/>
<g class="st6">
	
		<ellipse transform="matrix(0.4879 -0.8729 0.8729 0.4879 101.3925 702.3525)" class="st5" cx="649.3" cy="264.8" rx="14.8" ry="6.4"/>
	
		<ellipse transform="matrix(0.4879 -0.8729 0.8729 0.4879 99.498 701.2795)" class="st4" cx="647.4" cy="265.8" rx="14.8" ry="6.4"/>
</g>
<g class="st6">
	<ellipse transform="matrix(0.6669 -0.7452 0.7452 0.6669 45.7514 686.7784)" class="st5" cx="791" cy="292.2" rx="6.4" ry="14.8"/>
	
		<ellipse transform="matrix(0.6669 -0.7452 0.7452 0.6669 47.066 685.6142)" class="st4" cx="790.4" cy="290.2" rx="6.4" ry="14.8"/>
</g>
<g class="st6">
	
		<ellipse transform="matrix(0.6669 -0.7452 0.7452 0.6669 57.0904 563.8883)" class="st5" cx="659.2" cy="218.1" rx="6.4" ry="14.8"/>
	<ellipse transform="matrix(0.6669 -0.7452 0.7452 0.6669 58.4048 562.7241)" class="st4" cx="658.6" cy="216" rx="6.4" ry="14.8"/>
</g>
</svg>
