<?xml version="1.0" encoding="utf-8"?>
<!-- Generator: Adobe Illustrator 27.7.0, SVG Export Plug-In . SVG Version: 6.00 Build 0)  -->
<svg version="1.1" id="Ebene_1" xmlns="http://www.w3.org/2000/svg" xmlns:xlink="http://www.w3.org/1999/xlink" x="0px" y="0px"
	 viewBox="0 0 900.9 507.8" style="enable-background:new 0 0 900.9 507.8;" xml:space="preserve">
<style type="text/css">
	.st0{fill:#A0616A;}
	.st1{opacity:0.1;enable-background:new    ;}
	.st2{fill:#E6E6E6;}
	.st3{fill:#2F2E41;}
	.st4{fill:#FFB6B6;}
	.st5{fill:#BB1C16;}
	.st6{fill:#4E342E;}
	.st7{fill:#3F3D56;}
	.st8{fill:#FFFFFF;}
</style>
<polygon class="st0" points="344.2,110.4 349.8,89.8 324.5,80.5 321.7,99.2 "/>
<polygon class="st1" points="344.2,111.4 349.8,90.8 334.9,84.6 339.5,108.8 "/>
<g>
	<path class="st0" d="M470.6,219.5c3-4.7-0.6-12.4-8-17.2c-3.3-2.1-6.7-3.2-9.8-3.5l-4.3-2.7l-56.9-38.6c0,0-38.6-44-47-47.4
		c-8.4-3.4-15.4,1.9-15.4,1.9l-3.8,9.5l60.5,59.3l51.5,27.2l7,3.9c1.5,2.7,4.1,5.3,7.3,7.4C459.1,224.2,467.6,224.2,470.6,219.5
		L470.6,219.5z"/>
	<path class="st2" d="M323.8,89.4c0,0-9.7,4.4-12,14.8s71.1,77.9,71.1,77.9l25.2-13.8L323.8,89.4L323.8,89.4z"/>
</g>
<path class="st0" d="M369,67.9c0,14.5-11.7,26.2-26.2,26.2s-26.2-11.7-26.2-26.2s11.7-26.2,26.2-26.2S369,53.5,369,67.9z"/>
<polygon class="st0" points="404,448.1 421.8,492.1 432.1,481.8 435.8,462.1 420.9,443.4 "/>
<polygon class="st0" points="303.2,439.2 295.3,465.2 309.8,477.2 325.8,467 323.7,439.3 "/>
<polygon class="st0" points="355.9,186.7 358.2,224.6 300.2,214.3 304,190.9 "/>
<path class="st3" d="M358.7,225.1l-58.5-19.2c0,0-21.5,43,1.9,70.1c23.4,27.1,101,181.4,101,181.4l23.4-11.2L392.8,348l-37.4-90.7
	L358.7,225.1L358.7,225.1z"/>
<polygon class="st3" points="292.3,255.7 311.6,354.6 299.7,442.8 327.6,445.7 351,337.1 342.5,265.1 "/>
<path class="st3" d="M444.3,458.4h16.2c0,0,18.9-7.5,23.3,0S464,487.1,464,487.1s-33.8,19-38.5,18.1S419,493,419,493l-5.6-13.1
	l8.4,2.8c0,0,11.2-6.5,8.4-17.8L444.3,458.4L444.3,458.4z"/>
<path class="st3" d="M299.8,466.2l-3.8-8.5l-6.1,13c0,0-13.9,13.3,4.6,20.5s40.8,13.6,40.8,13.6s28.7-4.5,27-13s-4.8-10.8-4.8-10.8
	l-11.4-0.4l-18.4-18.4l-12.9,7.8L299.8,466.2L299.8,466.2z"/>
<path class="st3" d="M334.8,73.1l8.4-0.9l15.4-15.4c0,0,14,7.5,14,1.9c0-26.2-15.9-25.3-29-27.1s-11.7-2.3-15.9,4.7
	c-1.9,3.2-8.9,5.1-8.9,5.1s-13.1-17.8-19.6,3.7s1.9,87.9-4.7,93.5s26.9,11.2,23.3-10.8s-10.2-55.6-6.4-63.1c3.7-7.5,4.7-5.6,4.7-5.6
	c-4.6-1.9-7.7,31.4,9.8,33.1l0.5-16.2C326.4,75.9,329.2,67.5,334.8,73.1L334.8,73.1z"/>
<path class="st2" d="M346.5,105.3l-28.1-11.2l-37.4,112.2l77-2.8L365,170c0,0,6.8-17.4,1.2-27.7C360.5,132,346.5,105.3,346.5,105.3
	L346.5,105.3z"/>
<g>
	<path class="st0" d="M273.5,293.3c5.6,0.5,10.7-6.3,11.5-15c0.3-3.8-0.2-7.4-1.4-10.3l0.4-5.1l7.8-68.3c0,0,14.5-55.9,13.6-64.9
		c-0.9-9-2.2-11.4-2.2-11.4l-10.2,1.1l-24.6,81.1l-0.3,58.2l-0.2,8c-1.7,2.6-2.9,6.1-3.2,9.9C264,285.3,267.9,292.9,273.5,293.3z"/>
	<path class="st2" d="M320.8,103c0,0-8.4-6.5-18.7-3.7c-10.3,2.8-36.1,99.1-36.1,99.1l23.9,15.9C289.9,214.3,320.8,103,320.8,103z"
		/>
</g>
<g>
	<polygon class="st4" points="883.1,79.4 866.7,48.9 843.9,67.1 852.6,89.9 	"/>
	<polygon class="st1" points="883.1,79.4 866.7,48.9 843.9,67.1 852.6,89.9 	"/>
	<circle class="st4" cx="843.9" cy="40.7" r="27.3"/>
	<g>
		<path id="uuid-3dc7f3b0-930d-4ec2-8f7c-5a97dd96fd74-963" class="st4" d="M791.8,54.9c-2.2-7.8-8-13-12.9-11.6
			c-5,1.4-7.2,8.8-5,16.6c0.8,3.1,2.4,6,4.6,8.4l9.6,32.9l15.3-4.8l-11.1-31.9C792.8,61.3,792.7,58,791.8,54.9z"/>
		<path class="st2" d="M869.5,75.1l-49.7,37.2l-25-39l-16.5-0.3c0,0,2.2,64.8,25.2,70.3s86.2-25.2,88.4-44.3S869.5,75.1,869.5,75.1
			L869.5,75.1z"/>
	</g>
	<g>
		<polygon class="st4" points="801,497.7 786.7,497.7 779.9,442.5 801,442.6 		"/>
		<path class="st3" d="M752,497.3L752,497.3c-0.4,0.7-0.7,3.2-0.7,4l0,0c0,2.7,2.2,4.9,4.9,4.9h44.3c1.8,0,3.3-1.5,3.3-3.3v-1.8
			c0,0,2.2-5.5-2.3-12.4c0,0-5.6,5.3-14-3l-2.5-4.5l-17.9,13.1l-9.9,1.2C755.1,495.8,753.2,495.5,752,497.3L752,497.3L752,497.3z"/>
	</g>
	<g>
		<polygon class="st4" points="845.8,497.7 831.5,497.7 824.7,442.5 845.8,442.6 		"/>
		<path class="st3" d="M796.8,497.3L796.8,497.3c-0.4,0.7-0.7,3.2-0.7,4l0,0c0,2.7,2.2,4.9,4.9,4.9h44.3c1.8,0,3.3-1.5,3.3-3.3v-1.8
			c0,0,2.2-5.5-2.3-12.4c0,0-5.6,5.3-14-3l-2.5-4.5l-17.9,13.1l-9.9,1.2C799.8,495.8,797.9,495.5,796.8,497.3L796.8,497.3
			L796.8,497.3z"/>
	</g>
	<path class="st3" d="M783.3,222.2l-13,36.7l9.1,210.4l23.2,1.7L820,315.2l2.5,161.5l25.7,1.7l18.9-244.8c0,0,5.9-17.4-12.4-25.7
		C836.5,199.7,783.3,222.2,783.3,222.2L783.3,222.2z"/>
	<path class="st2" d="M779.5,220.1l90.1,8.7c0,0-2.9-35.7,21.7-73.2s-9.4-82.6-9.4-82.6l-33.4-2.3L812.2,87l-6,68.7L779.5,220.1
		L779.5,220.1z"/>
	<path class="st3" d="M872,63.6c0,0,16.4-30.5,4.7-43.4C864.9,7.3,857.3-5,843.3,2c-14.1,7-45.1,26.4-33.4,31.1
		c11.7,4.7,22.3,3.5,22.3,3.5s-1.8,8.8,4.4,12c6.2,3.2,10.3,8.5,10.3,8.5s7-8.2,10.5-3.5C860.8,58.3,872,63.6,872,63.6L872,63.6z"/>
	<path class="st3" d="M791.7,68.8l-34,19.9c0,0-7.3,13.8,12.5,23L806.4,87l9.8,8.7l13-8.1l-9.4-29.3l-10.5-8.2l-9.4,1.2l-7-4.7
		l-14.1,15.2L791.7,68.8L791.7,68.8z"/>
	<g>
		<path id="uuid-379f57e5-a8a0-4df7-80a8-31866b6f202a-964" class="st4" d="M800.5,76.8c-2.2-7.8-8-13-12.9-11.6
			c-5,1.4-7.2,8.8-5,16.6c0.8,3.1,2.4,6,4.6,8.4l9.6,32.9l15.3-4.8l-11.1-31.9C801.6,83.1,801.4,79.9,800.5,76.8L800.5,76.8z"/>
		<path class="st2" d="M878.2,96.9l-49.7,37.2l-25-39L787,94.9c0,0,2.2,64.8,25.2,70.3c23,5.5,86.2-25.2,88.4-44.3
			S878.2,96.9,878.2,96.9z"/>
	</g>
</g>
<path class="st2" d="M167.5,332.5c0,3.7-9-69.7-9-69.7l-65.4,7.9c-11.8,1.4-19.9,12.6-17.7,24.2l12.2,63.5c1.1,1.3,2.7,2.5,4.8,3.6
	v143.8h9V365.5c7.2,2.2,16.6,3.9,26.9,5v135.2h9V371.3c15.2,1.1,31.8,0.9,47-0.8v135.3h9V369.3c2.7-0.4,5.4-0.9,7.9-1.5v138h9V365.5
	c4.9-1.5,9.3-3.2,12.9-5.3C256.6,341.7,167.5,328.8,167.5,332.5L167.5,332.5z"/>
<polygon class="st4" points="233.3,466.7 244.4,477.7 259.7,485.7 258.1,499.4 229.1,496.2 225.4,488.8 226.5,482.5 224.4,472.5 "/>
<path class="st3" d="M256,494.1l0.9-11.6l31.2,14.8c0,0,2.4,6.9-5.1,7.9s-57.6,1.1-57.6-1.6s-1.4-16.1-1.4-16.1l30.4,8.7L256,494.1
	L256,494.1z"/>
<polygon class="st4" points="193.5,435.9 185.5,449.4 181.6,466.1 168,468 163.9,439.1 170.1,433.7 176.5,433.2 185.7,428.7 "/>
<path class="st3" d="M172.5,464.6l11.5-2l-6.7,33.9c0,0-6,4-8.9-3s-15.2-55.6-12.6-56.2s15.3-5.3,15.3-5.3l-1,31.6L172.5,464.6z"/>
<polygon class="st4" points="158.8,184.2 157.2,216.5 182.6,217 182.6,189.3 "/>
<polygon class="st1" points="158.8,184.2 157.2,216.5 182.6,217 182.6,189.3 "/>
<path class="st3" d="M116,317.4c0,0-11.6,30.1-3.2,42.3s48.1,19,48.1,19l16.4,15.3l43.3,83.5l25.4-5.8l-35.9-85.6
	c0,0-21.1-34.3-29.1-39.1c-7.9-4.8-22.7-22.6-22.7-22.6S116,317.4,116,317.4z"/>
<path class="st3" d="M187.9,320l16.3,11.5c0,0,57.7,15.4,39.2,51.3s-46,61.8-46,61.8L173.1,431l39.1-54.9l-68.7-41.7L187.9,320
	L187.9,320z"/>
<path id="uuid-8b72ca2c-8770-47cf-940c-27f120eabdaa-965" class="st4" d="M335.8,276.2c7.6,1.5,13.1,6.7,12.1,11.6s-8,7.6-15.6,6
	c-3.1-0.6-5.9-1.9-8.4-3.8l-32.3-6.9l2.8-12.8l32.3,6.1C329.6,275.6,332.8,275.6,335.8,276.2L335.8,276.2z"/>
<path class="st5" d="M181.3,205.1h-32.9l-24.2,16.4l2.1,64.5c0,0,4.4,16.2-10.6,31.2c-9,9-5.8,14.3-5.8,14.3l53.4,4.2l32-9.2
	l-11.6-29.1l2.1-9c0,0,21.7-15.3,18-31.2c-3.7-15.9-8.5-48.6-8.5-48.6L181.3,205.1L181.3,205.1z"/>
<path class="st5" d="M258.6,259.6l-63.8-51.1c0,0-12.4,3.4-10.8,15.1c1.6,11.7,29.9,41.3,29.9,41.3l48.7,22.1l55.7,2.8l2.3-16.3
	L258.6,259.6L258.6,259.6z"/>
<circle class="st4" cx="173.9" cy="177.1" r="22.2"/>
<path class="st6" d="M167.8,181.6c0,0,10.6-10,14.8-14.8c4.2-4.8,22.2,7.4,18.5-1.6c-3.7-9-9-11.1-9-11.1s-9.5-19-28-7.9
	c0,0,0-11.6-14.8-6.9s-21.7,48.6-17.4,52.8c4.2,4.2,8.5,7.4,5.3,15.3c-3.2,7.9,0,43.3,11.6,48.1c11.6,4.8,13.7,8.1,10.6,15.7
	s-11.1,24.5,3.7,20.2s-1.1,1.1,5.3-12.7c6.3-13.7,21.7-20.1,9.5-32.2c-12.2-12.2-11.6-37.5-14.3-40.2s-7.6-24.6-7.6-24.6
	S164.6,176.3,167.8,181.6L167.8,181.6z"/>
<path class="st7" d="M887,506.7H0v-2h887c0.6,0,1,0.4,1,1l0,0C888,506.3,887.6,506.7,887,506.7z"/>
<g>
	<path class="st8" d="M426.1,504.9H226.3c-13.2,0-24-10.8-24-24V196.1c0-13.2,10.8-24,24-24h199.8c13.2,0,24,10.8,24,24v284.8
		C450.1,494.1,439.3,504.9,426.1,504.9z"/>
	<path class="st7" d="M426.1,507.8H226.3c-14.8,0-26.9-12-26.9-26.9V196.1c0-14.8,12-26.9,26.9-26.9h199.8c14.8,0,26.9,12,26.9,26.9
		v284.8C453,495.7,440.9,507.8,426.1,507.8z M226.3,171.3c-13.7,0-24.9,11.2-24.9,24.9v284.8c0,13.7,11.2,24.9,24.9,24.9h199.8
		c13.7,0,24.9-11.2,24.9-24.9V196.1c0-13.7-11.2-24.9-24.9-24.9H226.3z"/>
	<path class="st5" d="M247.5,280.7l156.2-4.7c10.8-0.3,11.9-17.3,0.9-17l-156.2,4.7C237.6,264.1,236.6,281,247.5,280.7L247.5,280.7
		L247.5,280.7z"/>
	<path class="st5" d="M247.5,337.4l156.2-4.7c10.8-0.3,11.9-17.3,0.9-17l-156.2,4.7C237.6,320.7,236.6,337.7,247.5,337.4
		L247.5,337.4L247.5,337.4z"/>
	<path class="st5" d="M247.5,394l156.2-4.7c10.8-0.3,11.9-17.3,0.9-17L248.4,377C237.6,377.4,236.6,394.3,247.5,394L247.5,394
		L247.5,394z"/>
</g>
<path id="uuid-0373391a-705f-4801-95e2-9fea66d9d55f-966" class="st4" d="M213.8,358.8c5.6,5.4,7.3,12.7,3.8,16.3s-10.8,2-16.4-3.4
	c-2.3-2.1-4-4.8-5-7.7l-23.4-23.4l9.3-9.2l23.8,22.6C208.9,354.9,211.6,356.6,213.8,358.8z"/>
<path class="st5" d="M158.3,300l-23.8-78.2c0,0-12.2-4.2-17.4,6.3s1.4,51,1.4,51l27.7,45.7l44.4,33.8l11.1-12.2L158.3,300L158.3,300
	z"/>
</svg>
