<?xml version="1.0" encoding="UTF-8"?><svg xmlns="http://www.w3.org/2000/svg" viewBox="0 0 921.2 727.9"><defs><style>.cls-1,.cls-2{fill:#ffb6b6;}.cls-2,.cls-3,.cls-4{isolation:isolate;}.cls-2,.cls-4{opacity:.1;}.cls-5{fill:#2f2e41;}.cls-6{fill:#fff;}.cls-7,.cls-8{fill:#4e342e;}.cls-9{fill:#3f3d56;}.cls-10{fill:#fbbebe;}.cls-11{fill:#bb1c16;}.cls-12{fill:#57b894;}.cls-13{fill:#e6e6e6;}.cls-8{stroke:#4e342e;}.cls-8,.cls-14{stroke-miterlimit:10;}.cls-3{opacity:.2;}.cls-15{fill:#e4e4e4;}.cls-16{fill:#ffb8b8;}.cls-17{opacity:.3;}.cls-17,.cls-18,.cls-14,.cls-19{fill:none;}.cls-20{fill:#a0616a;}.cls-21{fill:#9e616a;}.cls-18{stroke-miterlimit:10;stroke-width:1px;}.cls-18,.cls-14,.cls-19{stroke:#3f3d56;}.cls-19{stroke-miterlimit:10;stroke-width:1px;}.cls-22{fill:#f2f2f2;}</style></defs><g id="Ebene_4"><circle class="cls-6" cx="410" cy="429" r="295"/><path class="cls-20" d="m671.6,251.5l8.8,50.4s93.2-9.9,99.7,8.8,8.8,24.1,8.8,24.1l-18.6,6.6-8.8-16.4c-5.4-1.9-11.3-1.5-16.4,1.1-8.8,4.4-85.5,15.3-91,1.1s-20.8-66.9-20.8-66.9l23-18.6,15.3,9.8Z"/><path class="cls-2" d="m671.6,251.5l8.8,50.4s93.2-9.9,99.7,8.8,8.8,24.1,8.8,24.1l-18.6,6.6-8.8-16.4c-5.4-1.9-11.3-1.5-16.4,1.1-8.8,4.4-85.5,15.3-91,1.1s-20.8-66.9-20.8-66.9l23-18.6,15.3,9.8Z"/></g><g id="Ebene_3"><ellipse class="cls-9" cx="530.5" cy="657.01" rx="236.5" ry="12.09"/><path class="cls-9" d="m668.7,284.59h-2.69v-73.57c0-23.52-19.08-42.6-42.6-42.6h-155.94c-23.52,0-42.6,19.08-42.6,42.6h0v403.8c0,23.52,19.08,42.6,42.6,42.6h155.94c23.52,0,42.6-19.08,42.6-42.6h0v-277.82h2.69v-52.41Z"/><path class="cls-6" d="m656.95,211.28v403.19c0,17.6-14.24,31.78-31.78,31.78h-156.75c-17.6,0-31.78-14.24-31.85-31.78V211.28c0-17.6,14.24-31.78,31.85-31.78h19.01c-3.16,7.73.54,16.53,8.33,19.69,1.81.74,3.76,1.14,5.71,1.14h89.36c8.33,0,15.12-6.79,15.12-15.12,0-1.95-.4-3.9-1.14-5.71h20.36c17.54,0,31.78,14.24,31.78,31.78Z"/><path class="cls-13" d="m656.95,527.87v86.6c0,17.6-14.24,31.78-31.78,31.78h-156.75c-17.6,0-31.78-14.24-31.85-31.78v-78.14c53.68-62.95,148.22-70.55,211.17-16.86,3.22,2.62,6.25,5.44,9.2,8.4Z"/><polygon class="cls-13" points="510.48 511.88 504.16 511.88 506.25 388.19 508.33 388.19 510.48 511.88"/><path class="cls-13" d="m515.72,310.32l10.21-15.79c-3.02-8.4-6.52-16.6-10.48-24.52l-6.58,5.31,5.24-8.06c-4.97-9.81-8.94-15.99-8.94-15.99,0,0-20.49,32.32-27.35,66.52l13.1,20.29-14.51-11.76c-.54,3.96-.81,8-.81,12.03,0,40.51,13.24,73.37,29.56,73.37s29.56-32.85,29.56-73.37c0-12.56-2.82-25.67-6.79-37.83l-12.23,9.81Z"/><polygon class="cls-13" points="473.73 520.62 470.64 520.62 471.64 460.62 472.72 460.62 473.73 520.62"/><path class="cls-13" d="m476.28,422.86l4.97-7.66c-1.48-4.03-3.16-8.06-5.11-11.89l-3.22,2.62,2.55-3.9c-2.42-4.77-4.3-7.79-4.3-7.79,0,0-9.94,15.65-13.24,32.25l6.38,9.81-7.05-5.71c-.27,1.95-.4,3.9-.4,5.85,0,19.62,6.38,35.54,14.31,35.54s14.31-15.92,14.31-35.54c0-6.11-1.41-12.43-3.29-18.34l-5.91,4.77Z"/><polygon class="cls-13" points="553.68 520.62 550.59 520.62 551.6 460.62 552.67 460.62 553.68 520.62"/><path class="cls-13" d="m556.23,422.86l4.97-7.66c-1.48-4.03-3.16-8.06-5.11-11.89l-3.22,2.62,2.55-3.9c-2.42-4.77-4.3-7.79-4.3-7.79,0,0-9.94,15.65-13.24,32.25l6.38,9.81-7.05-5.71c-.27,1.95-.4,3.9-.4,5.85,0,19.62,6.38,35.54,14.31,35.54s14.31-15.92,14.31-35.54c0-6.11-1.41-12.43-3.29-18.34l-5.91,4.77Z"/><circle class="cls-13" cx="471.38" cy="293.52" r="28.22"/><polygon class="cls-7" points="573.43 325.77 624.9 327.05 631.89 265.64 573.43 265.64 573.43 325.77"/><path class="cls-16" d="m560.6,277.67l-14.18-54.49s3.9-26.14,13.44-25.73-2.49,25.53-2.49,25.53l16.06,47.03-12.83,7.66Z"/><path class="cls-5" d="m588.42,414.12l2.22,22.24s-70.08,47.84-70.08,67.86-2.22,83.45-2.22,83.45l25.6,1.14,2.22-30.03s5.58-33.39,2.22-45.62l36.68-27.82s-11.15,13.37-8.87,36.68-3.36,69-3.36,69l26.67,2.22s3.36-24.46,4.43-26.67,6.65-42.26,1.14-53.41l45.62-53.41s15.59-20.02,0-40.04l-8.87-4.43-53.41-1.14Z"/><path class="cls-5" d="m519.48,583.23l-2.22,14.45-14.45,34.47s-24.46,12.23-6.65,14.45,24.46-2.22,27.82-7.79,10.01-14.45,10.01-14.45l-1.14,23.38h5.58l9.14-31.91c1.81-6.18.54-12.9-3.43-18.01-.07-.07-.07-.13-.13-.13-4.43-5.58-2.22-13.37-2.22-13.37l-22.31-1.07Z"/><path class="cls-5" d="m575.11,583.23l-2.22,14.45-14.45,34.47s-24.46,12.23-6.65,14.45,24.46-2.22,27.82-7.79,10.01-14.45,10.01-14.45l-1.14,23.38h5.58l9.14-31.91c1.81-6.18.54-12.9-3.43-18.01-.07-.07-.07-.13-.13-.13-4.43-5.58-2.22-13.37-2.22-13.37l-22.31-1.07Z"/><circle class="cls-16" cx="601.79" cy="277.33" r="22.24"/><path class="cls-16" d="m600.64,296.21l10.01,23.38,20.02-15.59s-12.23-16.66-12.23-18.88l-17.8,11.09Z"/><path class="cls-11" d="m602.86,309.58l4.77,2.89s15.32-8.13,19.22-13.84c0,0,13.91-4.64,19.42,6.52s-3.36,87.88-3.36,87.88c0,0,5.58,7.79,4.43,11.15s3.36,8.87,3.36,8.87v6.65s-63.42,1.14-63.42-4.43v-17.8l-6.65-2.22s-6.65,14.45-8.87,13.37-13.37-10.01-13.37-10.01c0,0,17.8-58.99,27.82-69l12.23-21.16,4.43,1.14Z"/><path class="cls-11" d="m600.64,310.65s-2.22-4.43-5.58-5.58-19.95-24.46-19.95-24.46l2.22-12.23-22.24-3.36s1.14,12.23,5.58,20.02,28.89,47.84,28.89,47.84l12.23-22.24h-1.14Z"/><path class="cls-16" d="m617.91,399.14l-13.37,40.04s-27.82,31.17-12.23,31.17,23.38-27.82,23.38-27.82l18.88-40.04-16.66-3.36Z"/><path class="cls-7" d="m575.11,277.6c17.8-7.12,35.41-8.67,52.47,0v-14.38c0-5.17-4.17-9.41-9.41-9.41h-35.74c-4.1,0-7.39,3.29-7.39,7.39h0v16.39h.07Z"/><path class="cls-11" d="m631.82,308.44s10.15-8.6,15.65,1.28,2.15,52.14,1.07,57.71-8.87,40.04-8.87,40.04l-26.67-5.58s-2.22-15.59,4.43-14.45l14.38-79.01Z"/><path class="cls-7" d="m642.9,298.9c-5.04-2.75-7.39-8.94-7.53-14.65s1.21-11.42,1.34-17.13c.07-1.14-.07-2.35-.27-3.49-.4-1.41-1.08-2.75-1.95-3.96-6.52-10.01-17.87-17.07-29.83-17.13-1.75,0-3.43.27-5.04.94-1.21.47-1.61.4-1.88,1.95-2.82-.94-5.91-.81-8.67.27-2.75,1.14-5.31,2.62-7.59,4.5-1.34,1.01-2.62,2.15-3.83,3.29-6.32,6.52-7.79,16.66-5.91,25.53.6,2.89-2.28,5.71-4.64,7.46s-5.11,3.43-6.25,6.11c-1.14,2.62-.47,5.64-.74,8.47-.54,5.44-4.1,10.15-9.2,12.16,1.08,1.28,2.69,1.81,4.3,1.48s3.16-1.08,4.5-2.15c4.9-3.63,8.4-8.8,9.94-14.71.67,3.16.4,6.38.4,9.67.07,3.63-.6,7.19-1.95,10.55s-3.9,6.11-7.12,7.79c3.09,1.55,6.52.4,9.14-1.81s4.17-5.51,5.24-8.73c1.75-5.31,2.49-10.95,2.08-16.6,2.89,4.84,3.96,10.55,2.96,16.12-1.01,5.64-3.96,10.82-8.4,14.51,7.66-.07,15.18-1.95,22.04-5.51,1.75-.81,3.29-2.02,4.5-3.49,2.22-3.02,1.68-7.19,1.08-10.82-.47-2.89,3.16-7.12,1.08-9.2-.6-.6-1.48-.94-2.28-1.01-6.38-.6-12.23-3.83-15.65-9.2-2.35-3.76-3.96-8.13-3.96-12.16,0-12.23,9.94-22.1,22.1-22.1s22.1,9.94,22.1,22.1c0,2.22-.34,4.43-1.01,6.52-.74,2.42-1.28,4.97-1.61,7.52-.4,2.96-1.01,5.85-1.81,8.73-1.55,5.51-4.23,11.09-9.2,13.98,1.68.94,3.56.94,5.44,1.14,6.18.67,12.7.54,18.34-2.22,5.64-2.69,10.15-8.47,9.74-14.71Z"/><polygon class="cls-3" points="623.49 337.93 617.64 385.7 617.91 340.15 623.49 337.93"/><polygon class="cls-3" points="642.57 394.37 640.15 409.15 645.73 411.37 642.57 394.37"/></g><g id="Ebene_2"><path class="cls-22" d="m144.96,674.08c-2.19,0-4.44.11-6.63.27h-.32c-14.32,1.34-24.85,8.71-24.43,17.21l.11,1.55c.05.96.11,2.03.16,3.15,0,.59.8,1.02,1.76,1.02h353.6c24.91-.16,49.76-.32,73.81-.59,4.49,0,9.03-.21,13.52-.69,6.68-.8,11.33-2.35,14.16-4.81h0c3.58-3.05,3.69-6.84,3.47-11.12-.43-8.66-.86-17.8-1.28-26.88-.37-8.02-.75-15.98-1.12-23.62-.21-4.54-.75-8.55-4.81-11.6-4.38-3.31-12.35-4.97-23.73-4.97h-.43c-35.65.11-70.98,12.4-87.87,30.52-1.92,2.08-3.74,4.33-5.51,6.47-2.62,3.21-5.29,6.47-8.5,9.46-1.71,1.6-3.63,3.1-5.61,4.38-.16.11-.32.21-.48.27-.37.27-.8.48-1.18.69-2.24,1.34-4.65,2.41-7.16,3.26l-.27.11c-.21.05-.37.16-.59.21-1.44.48-2.94.86-4.44,1.18-6.47,1.44-13.79,1.76-21.81,1.02-7.38-.69-14.64-2.19-21.7-4.44-7.43-2.35-14.38-5.29-21.11-8.12-2.94-1.23-5.99-2.51-9.03-3.74-.59-.21-1.12-.43-1.71-.69-3.74-1.44-7.11-2.67-10.32-3.69-7.96-2.51-16.25-4.06-24.59-4.54-8.87-.48-16.68.43-23.2,2.73-1.82.64-3.58,1.39-5.24,2.24-7.75,4.01-12.51,9.94-17.16,15.71-5.72,7.16-11.7,14.54-23.41,18.33-13.52,4.44-33.3,2.57-47.25-.59-4.38-1.02-8.77-2.14-13.04-3.26-1.71-.43-3.42-.91-5.13-1.34-3.37-.86-6.15-1.55-8.71-2.08l-.8-.16c-.43-.11-.91-.21-1.34-.27-3.05-.64-5.88-1.12-8.66-1.55l-.64-.11c-1.34-.16-2.57-.32-3.74-.43l-.48-.05c-2.3-.32-4.76-.43-7.22-.43Z"/><path class="cls-13" d="m510.65,683.6c9.94-8.98,24.75-13.47,37.15-8.44-12.72,7.05-22.55,18.44-27.74,32.01-1.98,5.24-3.63,11.33-8.5,14.11-3.05,1.76-6.79,1.82-10.15,1.02-3.37-.86-6.52-2.57-9.57-4.22h-.86c3.9-12.83,9.73-25.49,19.67-34.47Z"/><path class="cls-6" d="m547.74,675.42c-11.01,1.44-21.27,6.25-29.34,13.84-1.76,1.6-3.26,3.47-4.44,5.56-1.07,2.03-1.6,4.38-1.5,6.68.05,2.19.37,4.38-.11,6.52-.53,2.19-1.98,4.12-3.96,5.18-2.41,1.39-5.24,1.82-7.96,2.19-3.05.37-6.2.69-8.82,2.41-.32.21-.64-.32-.32-.48,4.6-2.99,10.37-1.87,15.29-3.85,2.3-.91,4.33-2.57,5.08-5.02.64-2.14.32-4.44.27-6.63-.16-2.24.27-4.54,1.23-6.57,1.07-2.14,2.51-4.06,4.22-5.72,3.79-3.74,8.23-6.89,12.99-9.3,5.45-2.78,11.33-4.6,17.42-5.4.32-.05.32.53-.05.59h0Z"/><path class="cls-6" d="m520.85,686.7c-2.24-3.15-1.87-7.48.86-10.21.27-.27.69.16.43.43-2.57,2.51-2.89,6.57-.8,9.51.27.27-.27.53-.48.27h0Z"/><path class="cls-6" d="m512.25,700.43c3.79.69,7.7-.11,10.9-2.19.32-.21.64.32.32.48-3.37,2.14-7.43,2.94-11.33,2.24-.43-.05-.27-.64.11-.53Z"/><path class="cls-6" d="m535.82,678.2c.59,1.39,1.87,2.35,3.37,2.62.37.05.21.64-.16.59-1.66-.27-3.05-1.39-3.69-2.89-.05-.16-.05-.32.11-.43.11-.05.27,0,.37.11h0Z"/><path class="cls-13" d="m561.47,718.39c-.21-.05-.48-.05-.69-.11-3.15-.43-6.36-.59-9.57-.48h-.75c-7.7.32-15.23,2.08-22.34,5.13-2.83,1.23-5.51,2.67-8.12,4.33-3.58,2.24-7.27,5.02-11.28,5.93-.43.11-.86.16-1.28.21l-16.41-14.27c0-.05-.05-.11-.05-.16l-.69-.53c.11-.11.27-.21.37-.27.05-.05.16-.11.21-.16.05-.05.11-.05.16-.11,0,0,.05,0,.05-.05.05-.05.11-.05.11-.11.75-.53,1.5-1.07,2.24-1.6h0c5.77-4.01,11.97-7.38,18.49-9.94.21-.05.37-.16.59-.21,2.94-1.07,5.99-1.92,9.03-2.57,1.71-.32,3.37-.59,5.13-.69,4.44-.37,8.87-.05,13.2.96,8.6,1.98,16.52,6.73,21.22,14.11.16.21.27.37.37.59Z"/><path class="cls-6" d="m561.26,718.55c-9.62-5.51-20.74-7.8-31.8-6.63-2.35.21-4.7.8-6.89,1.76-2.08.96-3.9,2.51-5.24,4.44-1.28,1.76-2.35,3.74-4.01,5.13-1.76,1.44-4.06,2.08-6.31,1.76-2.78-.37-5.29-1.66-7.64-3.05-2.67-1.55-5.4-3.15-8.5-3.37-.37-.05-.32-.59.05-.59,5.45.37,9.41,4.76,14.54,6.15,2.41.64,4.97.59,7.05-.96,1.82-1.34,2.94-3.37,4.17-5.13,1.28-1.87,2.94-3.42,4.97-4.54,2.14-1.07,4.44-1.71,6.79-1.98,5.29-.69,10.69-.59,15.98.37,6.04,1.07,11.81,3.15,17.16,6.2.37.16,0,.64-.32.43h0Z"/><path class="cls-6" d="m533.04,711.39c.11-3.9,2.99-7.11,6.84-7.64.37-.05.48.53.11.59-3.58.48-6.25,3.47-6.36,7.11-.05.37-.64.32-.59-.05h0Z"/><path class="cls-6" d="m517.86,717.16c2.62,2.83,6.2,4.54,9.99,4.81.37.05.32.64-.05.59-3.96-.32-7.7-2.08-10.42-5.02-.21-.27.27-.64.48-.37Z"/><path class="cls-6" d="m550.09,713.64c-.32,1.44.05,2.99,1.12,4.12.27.27-.21.64-.48.37-1.12-1.23-1.6-2.94-1.23-4.54,0-.16.16-.27.32-.27.16,0,.27.16.27.32h0Z"/><path class="cls-13" d="m250.15,692.52c8.12-12.35,22.71-21.27,37.41-19.35-11.65,11.12-19.03,25.98-20.74,41.96-.64,6.2-.75,13.09-5.13,17.48-2.73,2.73-6.73,3.85-10.64,3.9-3.85.05-7.64-.91-11.38-1.87l-.96.21c.64-14.8,3.31-29.98,11.44-42.33Z"/><path class="cls-6" d="m287.56,673.44c-11.38,4.6-21,12.61-27.53,22.98-1.44,2.19-2.51,4.65-3.21,7.16-.59,2.51-.53,5.13.27,7.59.64,2.3,1.6,4.6,1.71,7,.05,2.51-.96,4.92-2.78,6.63-2.19,2.19-5.08,3.42-7.91,4.54-3.15,1.23-6.47,2.51-8.77,5.02-.27.32-.75-.16-.48-.48,4.06-4.44,10.58-4.92,15.29-8.39,2.19-1.6,3.9-3.96,4.01-6.73.05-2.46-.91-4.81-1.6-7.16-.75-2.41-.96-4.92-.53-7.38.53-2.57,1.55-5.02,2.94-7.27,3.05-5.08,6.84-9.67,11.33-13.58,5.08-4.49,10.85-8.07,17.16-10.58.32-.16.48.48.11.64h0Z"/><path class="cls-6" d="m261.96,692.95c-3.26-2.73-4.12-7.48-1.92-11.17.21-.37.8-.05.59.32-2.03,3.42-1.28,7.86,1.82,10.37.27.32-.16.75-.48.48h0Z"/><path class="cls-6" d="m256.56,710.05c4.22-.32,8.18-2.24,11.06-5.34.27-.32.75.16.48.48-2.99,3.26-7.11,5.24-11.49,5.56-.48,0-.48-.64-.05-.69h0Z"/><path class="cls-6" d="m275.59,679.75c1.02,1.28,2.67,2.03,4.33,1.87.43-.05.43.64,0,.64-1.82.16-3.63-.64-4.76-2.03-.11-.11-.11-.32,0-.48.11-.11.32-.11.43,0h0Z"/><path class="cls-13" d="m314.23,715.56c-.27.05-.53.05-.8.11-3.53.43-6.95,1.12-10.37,2.14-.27.05-.53.16-.8.21-8.12,2.46-15.77,6.47-22.45,11.7-2.67,2.08-5.13,4.38-7.48,6.84-3.21,3.42-6.36,7.38-10.42,9.46-.43.21-.86.43-1.28.59l-21.65-10.69c-.05-.05-.05-.11-.11-.16l-.91-.37c.11-.16.21-.27.32-.43.05-.05.11-.16.21-.21.05-.05.11-.11.11-.16l.05-.05c.05-.05.05-.11.11-.16.64-.8,1.34-1.55,1.98-2.3h0c5.08-5.83,10.74-11.33,17-15.77.21-.16.37-.27.59-.43,2.83-1.98,5.83-3.74,8.98-5.24,1.71-.8,3.47-1.55,5.24-2.19,4.65-1.66,9.46-2.57,14.38-2.67,9.78-.27,19.56,2.62,26.62,9.19.32.27.48.43.69.59Z"/><path class="cls-6" d="m314.01,715.83c-11.81-3.21-24.37-2.57-35.81,1.76-2.46.91-4.81,2.19-6.89,3.79-1.98,1.66-3.47,3.79-4.38,6.2-.86,2.24-1.5,4.65-2.89,6.63-1.44,2.03-3.74,3.37-6.25,3.63-3.05.43-6.09-.32-9.03-1.12-3.26-.91-6.63-1.87-10.05-1.28-.43.05-.53-.59-.11-.64,5.93-1.12,11.38,2.46,17.26,2.51,2.73,0,5.51-.75,7.27-2.99,1.55-1.92,2.19-4.38,3.05-6.68.8-2.35,2.19-4.49,4.06-6.2,1.98-1.71,4.28-3.1,6.73-4.01,5.51-2.24,11.28-3.58,17.21-4.01,6.73-.53,13.52.11,20.04,1.87.43.05.21.64-.21.53h0Z"/><path class="cls-6" d="m281.84,715.99c-.96-4.17,1.23-8.44,5.18-10.05.37-.16.64.43.27.59-3.69,1.5-5.72,5.51-4.81,9.35.11.43-.59.53-.64.11h0Z"/><path class="cls-6" d="m267.25,726.41c3.58,2.3,7.86,3.1,12.08,2.35.43-.05.53.59.11.64-4.33.8-8.82-.11-12.56-2.51-.37-.21,0-.69.37-.48Z"/><path class="cls-6" d="m300.65,713.64c.05,1.66.91,3.21,2.3,4.06.37.21-.05.75-.37.53-1.55-.96-2.51-2.67-2.57-4.49,0-.16.11-.32.27-.37.21,0,.37.11.37.27Z"/><path class="cls-1" d="m308.14,599.85c2.03-2.03,2.03-5.34,0-7.38-.21-.21-.43-.43-.69-.59l8.5-41.21-9.19,2.89-6.84,39.87c-1.5,2.46-.69,5.72,1.76,7.22,2.14,1.28,4.76.91,6.47-.8h0Z"/><path class="cls-13" d="m327.86,489.69l-5.67-4.28s-5.02-.37-5.93,8.71-6.47,43.83-6.47,43.83l-8.71,40.35,12.08,2.67,9.35-43.51,9.35-30.04-4.01-17.74Z"/><path class="cls-9" d="m323.53,564.36l-27.31-21.22c-.91-.69-1.07-1.98-.37-2.83l18.6-23.89c.69-.91,1.98-1.07,2.83-.37l27.31,21.22c.91.69,1.07,1.98.37,2.83l-18.6,23.89c-.69.86-1.98,1.02-2.83.37Z"/><path class="cls-6" d="m323.37,562.11l-24.96-19.4c-.8-.59-.91-1.76-.32-2.51l16.84-21.65c.59-.8,1.76-.91,2.51-.32l24.96,19.4c.8.59.91,1.76.32,2.51l-16.84,21.65c-.59.8-1.76.96-2.51.32Z"/><path class="cls-15" d="m301.67,542.18c-.21-.16-.21-.43-.05-.64l8.5-10.9c.16-.21.43-.21.64-.05.21.16.21.43.05.64h0l-8.55,10.85c-.11.21-.43.27-.59.11Z"/><path class="cls-15" d="m303.06,543.25c-.21-.16-.21-.43-.05-.64l8.5-10.9c.16-.21.43-.21.64-.05.21.16.21.43.05.64l-8.5,10.9c-.16.16-.43.21-.64.05Z"/><path class="cls-15" d="m309.26,538.17c-.21-.16-.21-.43-.05-.64l3.69-4.76c.16-.21.43-.21.64-.05.21.16.21.43.05.64h0l-3.69,4.76c-.16.16-.43.21-.64.05Z"/><path class="cls-15" d="m311.18,547.47c-.21-.16-.21-.43-.05-.64l13.42-17.26c.16-.21.43-.21.64-.05.21.16.21.43.05.64h0l-13.42,17.26c-.16.16-.48.21-.64.05Z"/><path class="cls-15" d="m312.57,548.54c-.21-.16-.21-.43-.05-.64l13.42-17.26c.16-.21.43-.21.64-.05.21.16.21.43.05.64l-13.42,17.26c-.16.16-.43.21-.64.05Z"/><path class="cls-15" d="m315.78,551.05c-.21-.16-.21-.43-.05-.64l13.42-17.26c.16-.21.43-.21.64-.05.21.16.21.43.05.64l-13.42,17.26c-.16.16-.43.21-.64.05Z"/><path class="cls-15" d="m317.17,552.12c-.21-.16-.21-.43-.05-.64l13.42-17.26c.16-.21.43-.21.64-.05.21.16.21.43.05.64l-13.42,17.26c-.16.16-.43.21-.64.05Z"/><path class="cls-15" d="m320.37,554.63c-.21-.16-.21-.43-.05-.64l13.42-17.26c.16-.21.43-.21.64-.05.21.16.21.43.05.64h0l-13.42,17.21c-.16.21-.43.27-.64.11Z"/><path class="cls-15" d="m321.76,555.7c-.21-.16-.21-.43-.05-.64l13.42-17.26c.16-.21.43-.21.64-.05.21.16.21.43.05.64l-13.42,17.26c-.16.16-.43.21-.64.05Z"/><circle class="cls-6" cx="299.37" cy="575.53" r=".16"/><path class="cls-8" d="m326.36,452.87c-.64,4.97-1.71,9.78-3.21,14.38-8.39,25.07,15.5,16.89,24,16.89,9.3,0,18.23,6.95,16.89-23.84-.53-13.2-7.54-23.89-16.84-23.89-7.96,0-19.19,5.02-20.84,16.46Z"/><polygon class="cls-1" points="355.86 707.97 347.95 707.97 344.16 677.35 355.86 677.35 355.86 707.97"/><path class="cls-5" d="m360.09,721.71h-5.72l-1.02-5.4-2.62,5.4h-15.13c-1.87,0-3.42-1.5-3.42-3.42,0-1.12.53-2.14,1.44-2.78l12.08-8.34v-5.45l12.67.75,1.71,19.24Z"/><polygon class="cls-1" points="403.06 697.92 396.7 702.68 375.37 680.34 384.78 673.34 403.06 697.92"/><path class="cls-5" d="m414.65,706.47l-4.6,3.42-4.01-3.69,1.12,5.88-12.13,9.03c-1.5,1.12-3.63.8-4.76-.69-.64-.91-.86-2.08-.48-3.1l4.7-13.9-3.26-4.38,10.64-6.95,12.77,14.38Z"/><polygon class="cls-1" points="329.89 566.98 367.57 561.1 360.09 538.54 329.89 538.54 329.89 566.98"/><path class="cls-5" d="m365.11,549.93s15.07,13.04,8.12,50.13l-8.5,36.34,23.14,40.14-11.76,6.41-28.49-39.6-13.04-30.57-6.89-53.61,37.41-9.25Z"/><polygon class="cls-5" points="341.75 621.49 340.84 635.55 343.52 677.08 356.72 681.62 359.18 639.02 341.75 621.49"/><path class="cls-13" d="m337.74,474.84l14.59.59,5.83,9.62,13.25,2.57-7.91,40.03,1.44,22.77-13.2-.11c-9.51-.05-18.71,3.42-25.81,9.73h0l.37-29.56-5.67-22.07,1.28-23.14,10.64-1.34,5.18-9.09Z"/><circle class="cls-1" cx="345.82" cy="456.45" r="13.74"/><path class="cls-7" d="m336.46,442.45c7.43-4.54,17.05-2.19,21.59,5.24,1.55,2.57,2.35,5.51,2.3,8.5-7,1.76-14.32,3.1-21.81.43l-1.76-4.33-1.02,4.33c-2.24.91-4.54,1.71-6.84,0-.16-5.72,2.73-11.12,7.54-14.16Z"/><path class="cls-11" d="m368.8,578.09l1.87,16.78c.27.86,1.07,1.44,1.98,1.44h8.5c.91,0,1.71-.59,1.98-1.44l1.55-12.88c1.55.75,3.42.11,4.17-1.44.75-1.55.11-3.42-1.44-4.17-.59-.32-1.28-.37-1.92-.27-.37-.48-.96-.69-1.55-.69h-13.09c-1.12,0-2.03.91-2.03,2.03-.05.21-.05.43,0,.64Zm16.09,3.05l.96-3.05c.11-.37.11-.75.05-1.07h.11c1.23,0,2.24,1.02,2.24,2.24s-1.02,2.24-2.24,2.24h0c-.37-.11-.75-.21-1.12-.37Z"/><path class="cls-1" d="m381.68,596.32c-2.03-2.03-2.03-5.34,0-7.38.21-.21.43-.43.69-.59l-8.28-41.26,9.19,2.94,6.63,39.92c1.5,2.46.69,5.72-1.82,7.22-2.08,1.23-4.7.86-6.41-.86Z"/><path class="cls-13" d="m365.64,491.94l5.67-4.28s5.02-.37,5.93,8.71c.91,9.09,6.47,43.83,6.47,43.83l8.71,40.35-12.08,2.67-9.3-43.67-9.35-30.04,3.96-17.58Z"/><circle class="cls-11" cx="316.53" cy="526.25" r="3.21"/><polygon class="cls-1" points="213.8 745.33 220.54 745.33 223.74 719.46 213.8 719.46 213.8 745.33"/><polygon class="cls-1" points="239.83 741.11 246.4 742.6 255.22 718.02 245.55 715.83 239.83 741.11"/><path class="cls-5" d="m201.51,612.14l6.09,67.98s-2.3,40.83,5.08,55.21h10.64l5.29-58.95.64-39.55,22.82,33.35-14.54,64.14,13.09,1.18,23.57-69.64-25.92-65.37-46.77,11.65Z"/><circle class="cls-16" cx="207.87" cy="488.14" r="15.66"/><path class="cls-9" d="m235.39,518.72l-12.83-5.51-6.25-6.63-15.61,2.51-4.17,7.11-13.42,12.45,15.71,71.08-.48,15.5s10.05,4.54,53.71-5.88c.53-.11-.59-.69-.59-.69l-16.09-89.95Z"/><path class="cls-5" d="m191.62,497.07c-.11-.16-.21-.32-.32-.43-.05.11-.05.16-.11.27l.43.16Z"/><path class="cls-5" d="m223.48,476.71c-1.07-2.3-2.89-4.06-5.24-5.02-2.3-.91-4.86-.91-7.16,0-2.08-1.28-4.38-2.35-6.79-2.46s-4.97.75-6.47,2.73c-.32.53-.69,1.02-1.12,1.44-1.18,1.12-3.05.96-4.6.75.69.59,1.44,1.23,2.14,1.82-.86.21-1.71.43-2.62.69,1.02.59,2.03,1.23,3.05,1.82-2.94,1.76-4.28,5.61-3.9,9.09.32,3.31,1.92,6.31,3.85,9.03.75-1.6.59-3.53.59-5.34,0-1.92.32-4.06,1.87-5.13,1.02-.69,2.35-.75,3.58-.75,6.31.05,12.56.43,18.81,1.18.86.05,1.66.27,2.41.69,1.39.96,1.66,2.89,1.76,4.6.75-2.83,1.07-5.72,1.07-8.6,0-2.24-.37-4.44-1.23-6.52Z"/><circle class="cls-6" cx="228.34" cy="635.18" r="24.64"/><path class="cls-9" d="m228.34,610c-1.28,0-2.51.11-3.79.27-.64.11-1.28.21-1.87.37-13.58,3.1-22.02,16.62-18.87,30.2,1.23,5.29,4.12,9.99,8.23,13.52.43.37.86.69,1.28,1.02,11.17,8.34,26.94,6.04,35.22-5.13,8.28-11.17,6.04-26.94-5.13-35.22-4.38-3.31-9.62-5.02-15.07-5.02h0Zm0,49.28c-5.13,0-10.1-1.66-14.22-4.65-.43-.32-.86-.64-1.28-1.02-10.15-8.55-11.44-23.78-2.89-33.94,3.53-4.17,8.28-7,13.63-8.07.59-.11,1.23-.21,1.87-.32.96-.11,1.98-.16,2.94-.16,13.31,0,24.1,10.8,24.1,24.1s-10.85,24.05-24.16,24.05h0Z"/><path class="cls-11" d="m240.42,630.26h-24.16c-.91,0-1.6-.69-1.6-1.6v-.05c0-.91.69-1.6,1.6-1.6h24.16c.91,0,1.6.69,1.6,1.6v.05c0,.86-.69,1.6-1.6,1.6Z"/><path class="cls-11" d="m240.42,636.83h-24.16c-.91,0-1.6-.69-1.6-1.6v-.05c0-.91.69-1.6,1.6-1.6h24.16c.91,0,1.6.69,1.6,1.6v.05c0,.86-.69,1.6-1.6,1.6Z"/><path class="cls-11" d="m240.42,643.41h-24.16c-.91,0-1.6-.69-1.6-1.6v-.05c0-.91.69-1.6,1.6-1.6h24.16c.91,0,1.6.69,1.6,1.6v.05c0,.86-.69,1.6-1.6,1.6Z"/><polygon class="cls-21" points="504.02 744.47 496.96 744.47 493.65 717.32 504.02 717.32 504.02 744.47"/><polygon class="cls-21" points="470.72 744.47 463.67 744.47 460.35 717.32 470.72 717.32 470.72 744.47"/><path class="cls-5" d="m463.83,583.81l-10.69,65.15,2.89,9.73-3.79,6.89,5.61,60.39-2.3,5.02,6.36,3.9h12.93l.69-54.68,3.21-8.02v-4.44l6.52-33.35,1.18,46.66,1.87,8.02-1.6,5.72,2.08,4.01,5.51,37.2h14.54l-1.12-8.66h0c2.62-1.34,4.01-4.22,3.37-7.05l-.86-3.79,1.87-11.22,3.47-62.53-.96-50.45-17-12.99-33.78,4.49Z"/><circle id="ab6171fa-7d69-4734-b81c-8dff60f9761b" class="cls-21" cx="488.36" cy="486.65" r="13.47"/><path class="cls-21" d="m458.86,609.63c2.19-2.3,2.14-5.93-.11-8.18-.27-.21-.53-.43-.8-.64l5.24-19.83-10.1,3.42-3.42,18.33c-1.6,2.78-.69,6.31,2.08,7.91,2.35,1.39,5.29.96,7.11-1.02h0Z"/><path id="bc44dde2-a388-4b93-9ca4-c442728432a9-950" class="cls-13" d="m464.41,514.44l-2.19-.43-1.87,1.02s-5.18,6.89-5.18,13.2-6.31,67.18-6.31,67.18l11.49,5.18,9.19-47.67-5.13-38.48Z"/><path id="bf427902-b9bf-4946-b5d7-5c1c7e04535e-951" class="cls-5" d="m500.17,476.76s3.53-6.73-4.22-7.38c0,0-6.63-5.99-13.36-1.12,0,0-3.69,0-5.67,4.17,0,0-2.89-1.12-3.53,1.82,0,0-2.14,6.15,0,11.65,2.14,5.51,2.83,6.15,2.83,6.15,0,0-3.47-11.54,4.97-12.19,8.44-.59,17.96-5.88,18.65.86.69,6.73,1.76,8.39,1.76,8.39,0,0,6.68-9.57-1.44-12.35Z"/><path class="cls-6" d="m549.45,665.53c-1.02,0-1.98-.37-2.78-1.07l-40.83-36.34c-1.71-1.55-1.87-4.17-.32-5.88l26.14-29.4c1.55-1.71,4.17-1.87,5.88-.32l40.83,36.34c1.71,1.55,1.87,4.17.32,5.88l-26.14,29.4c-.75.8-1.76,1.34-2.89,1.39h-.21Z"/><path class="cls-9" d="m549.45,665.8c-1.07,0-2.14-.37-2.94-1.12l-40.83-36.34c-1.82-1.6-1.98-4.44-.37-6.25l26.14-29.4c1.6-1.82,4.44-1.98,6.25-.37l40.83,36.34c1.82,1.6,1.98,4.44.37,6.25l-26.14,29.4c-.8.86-1.87,1.39-3.05,1.5-.11,0-.21,0-.27,0Zm-14.7-73.49c-.96,0-1.87.43-2.51,1.12l-26.14,29.4c-1.23,1.39-1.12,3.53.27,4.76l40.83,36.34c1.39,1.23,3.53,1.12,4.76-.27h0l26.14-29.4c1.23-1.39,1.12-3.53-.27-4.76l-40.83-36.34c-.59-.59-1.39-.86-2.24-.86h0Z"/><path class="cls-11" d="m564.25,637.69c-.43,0-.86-.16-1.18-.48l-32.07-28.54c-.75-.64-.8-1.82-.16-2.57s1.82-.8,2.57-.16h0l32.07,28.54c.75.64.8,1.82.16,2.57-.37.43-.91.64-1.39.64Z"/><path class="cls-11" d="m558.11,644.58c-.43,0-.86-.16-1.18-.48l-32.07-28.54c-.75-.64-.8-1.82-.16-2.57s1.82-.8,2.57-.16h0l32.07,28.54c.75.64.8,1.82.16,2.57-.37.43-.86.64-1.39.64h0Z"/><path class="cls-11" d="m552.01,651.42c-.43,0-.86-.16-1.18-.48l-32.07-28.54c-.75-.64-.8-1.82-.16-2.57s1.82-.8,2.57-.16l32.07,28.54c.75.64.8,1.82.16,2.57-.37.43-.86.64-1.39.64h0Z"/><path class="cls-21" d="m515.35,610.8c-1.55-2.78-.53-6.31,2.24-7.86.32-.16.59-.32.91-.43l.05-20.52,8.87,5.88-1.39,18.6c.86,3.1-.96,6.31-4.06,7.11-2.57.75-5.29-.43-6.63-2.78Z"/><path id="f348f81f-b961-4ae4-bc6b-758f6acfb12a-952" class="cls-13" d="m516.2,520.05l3.96-3.85,2.94,2.08s2.89,3.42,5.18,13.79c2.3,10.37,0,67.18,0,67.18l-12.61-1.71,1.71-29.88-5.18-25.28,4.01-22.34Z"/><path class="cls-9" d="m522.03,517.17l-13.36-6.41-9.09-8.44-16.57-.11-5.34,6.95-14.11,4.81,2.35,48.64-1.6,3.74s1.12,1.02,1.6,1.55-.69,5.29-.69,5.29l-.69,5.13,1.92,1.34-2.46,2.94-.59,4.6s43.13-10.74,51.31,7.05c.43.96-.64-8.23-.64-8.23l-1.07-6.73,1.07-6.04,1.6-1.6-2.67-2.67,1.71-12.77,7.32-39.02Z"/><path class="cls-16" d="m218.56,625.02c1.23-3.21-.32-6.79-3.47-8.02-.32-.16-.69-.21-1.07-.32l-2.99-21.81-8.6,7.54,4.17,19.56c-.48,3.42,1.92,6.52,5.34,7,2.83.32,5.61-1.28,6.63-3.96Z"/><path id="e1bf2fad-858c-4bea-9733-320cc40b59f5-953" class="cls-9" d="m184.78,528.28l-2.35.43-1.39,1.76s-2.3,8.98.32,15.23c2.62,6.25,21.43,69.21,21.43,69.21l13.52.37-10.53-51.04-21-35.97Z"/><path class="cls-16" d="m238.07,621.81c-2.35-2.51-2.24-6.41.27-8.77.27-.27.53-.48.86-.69l-5.4-21.38,10.8,3.79,3.47,19.72c1.71,2.99.64,6.79-2.35,8.5-2.51,1.39-5.67.91-7.64-1.18Z"/><path id="ff35f29e-9865-4218-824f-c5cf71e1b056-954" class="cls-9" d="m233.36,519.46l2.35-.48,1.98,1.12s5.45,7.48,5.4,14.27,5.93,72.21,5.93,72.21l-12.4,5.4-9.25-51.31,5.99-41.21Z"/></g><g id="Ebene_5"><path class="cls-10" d="m196.63,366.3s43.2-5.18,58.29-13.4,127.4-12.08,127.4,13.4-129.13,36.7-129.13,36.7l-67.79-3.89,11.23-32.81Z"/><path class="cls-4" d="m196.63,366.3s43.2-5.18,58.29-13.4,127.4-12.08,127.4,13.4-129.13,36.7-129.13,36.7l-67.79-3.89,11.23-32.81Z"/><path class="cls-11" d="m209.15,361.53l-9.07,26.35-142.08,1.73v-38.87s54.43-12.52,97.6,14.24c0,.04,50.98-6.02,53.55-3.45Z"/><path class="cls-4" d="m209.15,361.49l-9.07,26.35-142.08,1.73v-38.87s54.43-12.52,97.6,14.24c0,0,50.98-6.02,53.55-3.45Z"/><path class="cls-9" d="m371.6,350.52c0,1.47-3.3,2.57-3.63,4-.33,1.39,1.65,3.56,1.03,4.88-.62,1.36-1.39,2.68-2.28,3.93-.81,1.17-3.34.99-4.37,2.09-.99.99-2.09,1.91-3.19,2.79-1.1.92-2.57,1.1-3.82,1.95-1.17.81-1.03,3.71-2.35,4.44-1.25.7-3.16.15-4.51.77-1.28.59-1.98,2.75-3.38,3.27-1.36.51-3.01.29-4.4.73-1.36.44-2.9.37-4.33.73-1.39.37-2.46,2.46-3.93,2.72-1.43.26-3.08-.44-4.55-.26-1.43.22-3.08-1.61-4.55-1.47-1.43.15-2.79.95-4.26,1.03-1.43.07-2.86.7-4.33.7s-3.01,1.39-4.44,1.32c-1.47-.07-2.79-2.17-4.26-2.31s-3.23,2.06-4.66,1.84c-1.47-.22-2.61-2.35-4.04-2.64-1.47-.29-3.34,1.25-4.73.92-1.43-.37-2.28-2.86-3.67-3.27-1.43-.44-3.16.15-4.51-.37-1.39-.51-3.08-.44-4.37-1.03-1.36-.62-2.31-2.09-3.56-2.79-1.32-.73-1.91-2.53-3.08-3.3-1.25-.84-3.12-.73-4.22-1.65-1.14-.95-3.3-1.03-4.29-2.06-1.03-1.1-1.43-2.94-2.28-4.07-.84-1.21.81-3.82.22-5.1-.62-1.36-3.23-1.91-3.52-3.3-.33-1.47-.51-2.97-.51-4.48s2.2-2.61,2.53-4-1.32-3.41-.7-4.77c.59-1.28.51-3.3,1.39-4.51.81-1.17,2.83-1.61,3.85-2.72.99-1.03,2.72-1.32,3.85-2.28,1.1-.92.95-3.63,2.2-4.48,1.17-.81,2.83-1.17,4.15-1.87,1.25-.7,3.01-.59,4.37-1.21,1.28-.59,3.34.59,4.73.04,1.36-.51,2.42-1.61,3.85-2.06,1.36-.44,2.02-3.67,3.45-4.04,1.39-.37,3.12.22,4.55-.04s3.3,2.31,4.77,2.09c1.43-.22,2.5-3.63,3.96-3.78,1.43-.15,3.05,1.65,4.51,1.58,1.43-.07,2.9.99,4.37.99s2.94-1.43,4.37-1.36c1.47.07,2.79,1.95,4.22,2.09,1.47.15,3.27-2.72,4.7-2.53,1.47.22,2.61,2.42,4,2.72,1.47.29,3.27-1.1,4.66-.73,1.43.37,2.31,2.72,3.67,3.16,1.43.44,2.28,2.09,3.63,2.61,1.39.51,3.96-1.95,5.29-1.36,1.36.62,2.53,1.69,3.78,2.39,1.32.73,3.38.37,4.55,1.14,1.25.84,1.54,3.08,2.64,4,1.14.95,3.05,1.25,4.04,2.28,1.03,1.1,1.17,3.05,1.98,4.22.84,1.21.84,2.94,1.43,4.22.62,1.36,2.28,2.35,2.61,3.78.4,1.36,1.36,2.97,1.36,4.44Z"/><path class="cls-10" d="m216.05,377.53s48.82-25.03,80.35-15.56c31.53,9.47,75.57-6.9,80.75-1.28,5.18,5.62,12.52,66.07-49.66,69.52-62.18,3.45-115.32-10.35-115.32-10.35l3.89-42.32Z"/><path class="cls-11" d="m204.56,374.85s19.27-1.21,18.39,5.69-1.73,60.45-6.9,61.77-46.21,1.28-63.06,1.28H58v-82.8s67.39-4,101.05,12.85c0,0,40.52-.59,45.51,1.21Z"/><path class="cls-14" d="m294.82,245.36c-3.74.22-7.08,2.53-8.55,5.98-2.13,5.18.62,11.23,4.73,15.01,4.11,3.78,9.43,5.91,14.28,8.77,6.5,3.82,12.3,9.1,15.56,15.86,3.27,6.75,3.6,15.2-.22,21.66-3.52,6.02-9.98,9.62-16.11,12.92"/><path class="cls-14" d="m312.1,213.83c-3.74.22-7.08,2.53-8.55,5.98-2.13,5.18.62,11.23,4.73,15.01s9.43,5.91,14.28,8.77c6.5,3.82,12.3,9.1,15.56,15.86s3.6,15.2-.22,21.66c-3.52,6.02-9.98,9.62-16.11,12.92"/><path class="cls-14" d="m368.92,221.06c-3.08-2.13-7.12-2.31-10.42-.51-4.84,2.79-6.39,9.29-5.43,14.79.95,5.51,3.85,10.46,5.91,15.67,2.79,6.97,4.18,14.72,2.57,22.06-1.61,7.34-6.46,14.2-13.43,16.99-6.5,2.61-13.76,1.5-20.66.37"/><ellipse class="cls-12" cx="318.86" cy="281.22" rx="10.35" ry="5.03"/><ellipse class="cls-14" cx="317.57" cy="280.34" rx="10.35" ry="5.03"/><ellipse class="cls-12" cx="341.32" cy="276.89" rx="10.35" ry="5.03"/><ellipse class="cls-14" cx="340" cy="276.05" rx="10.35" ry="5.03"/><ellipse class="cls-12" cx="344.77" cy="295.9" rx="10.35" ry="5.03"/><ellipse class="cls-14" cx="343.49" cy="295.02" rx="10.35" ry="5.03"/><ellipse class="cls-12" cx="342.61" cy="248.41" rx="10.35" ry="5.03"/><ellipse class="cls-14" cx="341.32" cy="247.53" rx="10.35" ry="5.03"/><ellipse class="cls-12" cx="316.69" cy="245.36" rx="10.35" ry="5.03"/><ellipse class="cls-14" cx="315.41" cy="244.52" rx="10.35" ry="5.03"/><ellipse class="cls-12" cx="328.36" cy="234.57" rx="10.35" ry="5.03"/><ellipse class="cls-14" cx="327.04" cy="233.73" rx="10.35" ry="5.03"/><ellipse class="cls-12" cx="353.84" cy="236.73" rx="10.35" ry="5.03"/><ellipse class="cls-14" cx="352.55" cy="235.85" rx="10.35" ry="5.03"/><ellipse class="cls-12" cx="372.85" cy="250.98" rx="10.35" ry="5.03"/><ellipse class="cls-14" cx="371.53" cy="250.13" rx="10.35" ry="5.03"/><ellipse class="cls-12" cx="305.9" cy="225.94" rx="10.35" ry="5.03"/><ellipse class="cls-14" cx="304.62" cy="225.06" rx="10.35" ry="5.03"/><ellipse class="cls-12" cx="312.36" cy="209.54" rx="10.35" ry="5.03"/><ellipse class="cls-14" cx="311.08" cy="208.66" rx="10.35" ry="5.03"/><ellipse class="cls-12" cx="372.41" cy="221.61" rx="10.35" ry="5.03"/><ellipse class="cls-14" cx="371.12" cy="220.77" rx="10.35" ry="5.03"/><ellipse class="cls-12" cx="276.94" cy="261.36" rx="10.35" ry="5.03"/><ellipse class="cls-14" cx="275.66" cy="260.48" rx="10.35" ry="5.03"/><ellipse class="cls-12" cx="312.8" cy="258.76" rx="10.35" ry="5.03"/><ellipse class="cls-14" cx="311.52" cy="257.91" rx="10.35" ry="5.03"/><ellipse class="cls-12" cx="359.89" cy="262.65" rx="10.35" ry="5.03"/><ellipse class="cls-14" cx="358.57" cy="261.77" rx="10.35" ry="5.03"/><ellipse class="cls-12" cx="334.82" cy="264.37" rx="10.35" ry="5.03"/><ellipse class="cls-14" cx="333.54" cy="263.49" rx="10.35" ry="5.03"/><ellipse class="cls-12" cx="336.55" cy="221.17" rx="10.35" ry="5.03"/><ellipse class="cls-14" cx="335.26" cy="220.33" rx="10.35" ry="5.03"/><ellipse class="cls-12" cx="292.06" cy="247.97" rx="10.35" ry="5.03"/><ellipse class="cls-14" cx="290.78" cy="247.09" rx="10.35" ry="5.03"/><ellipse class="cls-12" cx="298.12" cy="267.38" rx="10.35" ry="5.03"/><ellipse class="cls-14" cx="296.83" cy="266.54" rx="10.35" ry="5.03"/><g class="cls-17"><ellipse class="cls-12" cx="296.33" cy="300.63" rx="5.43" ry="2.35" transform="translate(-110.67 412.62) rotate(-60.8)"/><ellipse class="cls-19" cx="295.62" cy="301.02" rx="5.43" ry="2.35" transform="translate(-111.38 412.2) rotate(-60.8)"/></g><g class="cls-17"><ellipse class="cls-12" cx="348.34" cy="310.69" rx="2.35" ry="5.43" transform="translate(-115.48 363.07) rotate(-48.17)"/><ellipse class="cls-18" cx="348.13" cy="309.94" rx="2.35" ry="5.43" transform="translate(-114.99 362.66) rotate(-48.17)"/></g><g class="cls-17"><ellipse class="cls-12" cx="299.97" cy="283.5" rx="2.35" ry="5.43" transform="translate(-111.33 317.97) rotate(-48.17)"/><ellipse class="cls-18" cx="299.73" cy="282.72" rx="2.35" ry="5.43" transform="translate(-110.83 317.53) rotate(-48.17)"/></g></g><g id="Ebene_6"><path class="cls-6" d="m-5-13v750h952V-13H-5Zm415,737c-162.92,0-295-132.08-295-295S247.08,134,410,134s295,132.08,295,295-132.08,295-295,295Z"/></g><g id="Ebene_1"><path class="cls-5" d="m410.4,727c-164.3,0-297.5-133.2-297.5-297.5S246.1,132,410.4,132s297.5,133.2,297.5,297.5c0,78.9-31.3,154.6-87.1,210.3-55.7,56-131.5,87.4-210.4,87.2Zm0-592.7c-162.8,0-295.2,132.4-295.2,295.2s132.4,295.2,295.2,295.2,295.2-132.4,295.2-295.2-132.4-295.2-295.2-295.2h0Z"/><path class="cls-1" d="m665.6,163.3s-9.9,29.6-4.4,36.2-32.9-19.7-32.9-19.7l20.8-24.1,16.5,7.6Z"/><circle class="cls-7" cx="643.1" cy="114" r="49.2"/><polygon class="cls-1" points="834.4 496.4 809.2 516.2 794.9 493.1 820.1 475.6 834.4 496.4"/><path class="cls-5" d="m798.8,644.9l6.6,31.8,18.6,25.2s50.4,15.3,16.4,23-41.6-5.5-41.6-5.5l-24.1-20.8v28.5h-15.3l-3.3-40.6s-2.2-12.1,7.7-25.2l2.2-19.7,32.8,3.3Z"/><path class="cls-5" d="m723.2,397.2l7.7,26.3,19.7,100.8s2.2,74.5,5.5,83.3,3.3,9.9,0,13.2-9.9,14.2,0,20.8,44.9,14.2,46,6.6,1.1-19.7,0-25.2,3.3-91,3.3-91l-13.2-130.4-44.9-20.8-24.1,16.4Z"/><path class="cls-4" d="m723.2,397.2l7.7,26.3,19.7,100.8s2.2,74.5,5.5,83.3,3.3,9.9,0,13.2-9.9,14.2,0,20.8,44.9,14.2,46,6.6,1.1-19.7,0-25.2,3.3-91,3.3-91l-13.2-130.4-44.9-20.8-24.1,16.4Z"/><path class="cls-5" d="m770.3,294.2l24.1,46s138.1,61.4,126,86.6c-12.1,25.2-78.9,72.3-78.9,72.3,0,0-3.3,18.6-13.2,13.2-9.9-5.5-34-34-31.8-37.3s9.9-11,13.2-9.9,41.6-28.5,41.6-28.5l-65.8-16.4s-78.9-2.2-83.3-39.5,0-43.8,0-43.8l-5.5-12.1,44.9-27.4,28.7-3.2Z"/><path class="cls-5" d="m804.3,476.1l-23,20.8s-19.7-8.8-31.8-5.5-32.9,5.5-32.9,5.5l3.3,18.6,28-5.2-22.5,31.5s0,49.3,14.2,49.3,9.9-29.6,9.9-29.6l43.8-34s21.9-8.8,24.1-8.8-13.1-42.6-13.1-42.6Z"/><circle class="cls-1" cx="661.2" cy="134.8" r="37.3"/><path class="cls-11" d="m624.5,163.8s17.5-4.4,23,0,6.6,14.2,14.2,15.3,14.2,1.1,15.3,2.2,26.3,31.8,26.3,31.8c0,0,15.3,8.8,18.6,20.8s36.2,52.6,40.6,57-28.5,26.3-39.5,34-42.7,11-52.6-6.6-63.4-131.5-45.9-154.5Z"/><path class="cls-1" d="m666.2,235l8.8,50.4s93.2-9.9,99.7,8.8,8.8,24.1,8.8,24.1l-18.6,6.6-8.8-16.4c-5.4-1.9-11.3-1.5-16.4,1.1-8.8,4.4-85.5,15.3-91,1.1s-20.8-66.9-20.8-66.9l23-18.6,15.3,9.8Z"/><path class="cls-11" d="m645.2,168.4s26.4,55.7,24.2,71-9.9,4.4-9.9,4.4c0,0-9.9-15.3-14.2-6.6s-9.9,20.8-14.2,19.7-28.5-82.2-15.3-89.9,29.4,1.4,29.4,1.4Z"/><circle class="cls-7" cx="589.8" cy="49.2" r="49.2"/><path class="cls-7" d="m547.4,90c22,15.9,52.8,11,68.7-11.1,3.2-4.5,5.7-9.5,7.3-14.8-3.4,27-28,46.1-55,42.7s-46.1-28-42.7-55c.3-2.7.9-5.3,1.7-7.9-2.3,17.9,5.4,35.5,20,46.1Z"/><circle class="cls-7" cx="633" cy="122.2" r="36.1"/><ellipse class="cls-7" cx="660.3" cy="108.7" rx="32" ry="25"/><ellipse class="cls-1" cx="661.8" cy="138.6" rx="7.1" ry="12.6"/><path class="cls-5" d="m759.6,324.4s19.4-11.1,23-8.3,5.2,11.5,5.2,11.5l-22.4,8.8-6.6-12.1.8.1Z"/></g></svg>