<?xml version="1.0" encoding="utf-8"?>
<!-- Generator: Adobe Illustrator 27.7.0, SVG Export Plug-In . SVG Version: 6.00 Build 0)  -->
<svg version="1.1" id="Ebene_1" xmlns="http://www.w3.org/2000/svg" xmlns:xlink="http://www.w3.org/1999/xlink" x="0px" y="0px"
	 viewBox="0 0 717.7 596.3" style="enable-background:new 0 0 717.7 596.3;" xml:space="preserve">
<style type="text/css">
	.st0{fill:#3F3D56;}
	.st1{fill:#FFFFFF;}
	.st2{fill:#F2F2F2;}
	.st3{fill:#E6E6E6;}
	.st4{fill:#BB1C16;}
	.st5{fill:#CCCCCC;}
	.st6{fill:#FFB6B6;}
	.st7{fill:#2F2E41;}
	.st8{fill:#4E342E;}
</style>
<path class="st0" d="M162.6,0h208.5c32.4,0,58.7,26.3,58.7,58.7v476.5c0,32.4-26.3,58.7-58.7,58.7H162.6
	c-32.4,0-58.7-26.3-58.7-58.7V58.7C103.9,26.3,130.1,0,162.6,0z"/>
<path class="st1" d="M424.4,58.7v476.5c0,29.4-23.8,53.2-53.2,53.2H162.6c-29.4,0-53.2-23.8-53.2-53.2V58.7
	c0-29.4,23.8-53.2,53.2-53.2h27.3v9.4c0,8.9,7.2,16.1,16.1,16.1h121.8c8.9,0,16.1-7.2,16.1-16.1V5.5h27.3
	C400.5,5.5,424.3,29.3,424.4,58.7z"/>
<path class="st2" d="M335.1,262.1c-12.1-5.5-25.6,6.9-16.6,18.4c-30.3,27.6-75.3,37.3-114.4,25.8c-1,2.3-2,4.6-3,6.9
	c-15.6,34.5-37.9,65.5-65.6,91.2c36.5-30.3,81.5-4.7,120.1,5.3c7.5,1.3,12.5,8.4,11.2,15.9c-0.6,3.4-2.4,6.5-5.2,8.6
	c-4.9-1.8-10-3.2-15.2-4c-6.5-1-12.7,3.5-13.6,10c-0.5,3.6,0.6,7.2,3,9.9c-40.5,19.4-90.9,12.3-125.6-15.6v-16.6
	c36.8-28.2,66.1-65,85.5-107.2c6.8-14.8,12.3-30.2,16.4-45.9c4.5-17.2,7.3-34.9,8.3-52.7c-6.7-19.6-5.5-42.7,5.5-60.5
	c4.6,8.3,17.8,10.5,19.2-1.1c0.3-4.7,0.5-9.3,0.8-13.9c49.8-3.8,41.3,65.8-19.6,76.7c-1.2,17.9-4.1,35.6-8.7,53
	c-0.4,1.7-0.9,3.4-1.4,5.2c11.1-15.2,25.7-27.5,42.5-36c16.1-7.5,34.8-9.1,52.7-12C333.2,219.9,348.6,244.7,335.1,262.1z"/>
<path class="st0" d="M102.4,120.5c-2.2,0-4-1.8-4-4v-8c0-2.2,1.8-4,4-4s4,1.8,4,4v8C106.4,118.7,104.6,120.5,102.4,120.5z"/>
<path class="st0" d="M102.4,161.5c-2.2,0-4-1.8-4-4v-22c0-2.2,1.8-4,4-4s4,1.8,4,4v22C106.4,159.7,104.6,161.5,102.4,161.5z"/>
<path class="st0" d="M102.4,194.5c-2.2,0-4-1.8-4-4v-22c0-2.2,1.8-4,4-4s4,1.8,4,4v22C106.4,192.7,104.6,194.5,102.4,194.5z"/>
<path class="st0" d="M430.4,176.5c-2.2,0-4-1.8-4-4v-53.7c0-2.2,1.8-4,4-4s4,1.8,4,4v53.7C434.4,174.7,432.6,176.5,430.4,176.5z"/>
<path class="st1" d="M275.4,18.3h-31c-1.4,0-2.5-1.1-2.5-2.5s1.1-2.5,2.5-2.5h31c1.4,0,2.5,1.1,2.5,2.5S276.8,18.3,275.4,18.3z"/>
<circle class="st1" cx="291.4" cy="15.8" r="2"/>
<path class="st3" d="M198.7,150.5H164c-10,0-18.1-8.1-18.1-18.1V97.7c0-10,8.1-18.1,18.1-18.1h34.7c10,0,18.1,8.1,18.1,18.1v34.7
	C216.8,142.4,208.7,150.5,198.7,150.5z M164,81.5c-8.9,0-16.1,7.2-16.1,16.1v34.7c0,8.9,7.2,16.1,16.1,16.1h34.7
	c8.9,0,16.1-7.2,16.1-16.1V97.7c0-8.9-7.2-16.1-16.1-16.1L164,81.5z"/>
<path class="st3" d="M284.2,151h-34.7c-10,0-18.1-8.1-18.1-18.1V98.2c0-10,8.1-18.1,18.1-18.1h34.7c10,0,18.1,8.1,18.1,18.1v34.7
	C302.3,142.9,294.2,151,284.2,151z M249.5,82c-8.9,0-16.1,7.2-16.1,16.1v34.7c0,8.9,7.2,16.1,16.1,16.1h34.7
	c8.9,0,16.1-7.2,16.1-16.1V98.2c0-8.9-7.2-16.1-16.1-16.1L249.5,82z"/>
<path class="st3" d="M369.7,151.5H335c-10,0-18.1-8.1-18.1-18.1V98.7c0-10,8.1-18.1,18.1-18.1h34.7c10,0,18.1,8.1,18.1,18.1v34.7
	C387.8,143.4,379.7,151.5,369.7,151.5z M335,82.5c-8.9,0-16.1,7.2-16.1,16.1v34.7c0,8.9,7.2,16.1,16.1,16.1h34.7
	c8.9,0,16.1-7.2,16.1-16.1V98.7c0-8.9-7.2-16.1-16.1-16.1L335,82.5z"/>
<path class="st3" d="M198.7,249.5H164c-10,0-18.1-8.1-18.1-18.1v-34.7c0-10,8.1-18.1,18.1-18.1h34.7c10,0,18.1,8.1,18.1,18.1v34.7
	C216.8,241.4,208.7,249.5,198.7,249.5z M164,180.5c-8.9,0-16.1,7.2-16.1,16.1v34.7c0,8.9,7.2,16.1,16.1,16.1h34.7
	c8.9,0,16.1-7.2,16.1-16.1v-34.7c0-8.9-7.2-16.1-16.1-16.1L164,180.5z"/>
<path class="st3" d="M284.2,250h-34.7c-10,0-18.1-8.1-18.1-18.1v-34.7c0-10,8.1-18.1,18.1-18.1h34.7c10,0,18.1,8.1,18.1,18.1v34.7
	C302.3,241.9,294.2,250,284.2,250z M249.5,181c-8.9,0-16.1,7.2-16.1,16.1v34.7c0,8.9,7.2,16.1,16.1,16.1h34.7
	c8.9,0,16.1-7.2,16.1-16.1v-34.7c0-8.9-7.2-16.1-16.1-16.1L249.5,181z"/>
<path class="st3" d="M369.7,250.5H335c-10,0-18.1-8.1-18.1-18.1v-34.7c0-10,8.1-18.1,18.1-18.1h34.7c10,0,18.1,8.1,18.1,18.1v34.7
	C387.8,242.4,379.7,250.5,369.7,250.5z M335,181.5c-8.9,0-16.1,7.2-16.1,16.1v34.7c0,8.9,7.2,16.1,16.1,16.1h34.7
	c8.9,0,16.1-7.2,16.1-16.1v-34.7c0-8.9-7.2-16.1-16.1-16.1L335,181.5z"/>
<path class="st4" d="M198.7,549.5H164c-9.5,0-17.1-7.7-17.1-17.1v-34.7c0-9.5,7.7-17.1,17.1-17.1h34.7c9.5,0,17.1,7.7,17.1,17.1
	v34.7C215.8,541.9,208.2,549.5,198.7,549.5z"/>
<path class="st3" d="M284.2,550h-34.7c-9.5,0-17.1-7.7-17.1-17.1v-34.7c0-9.5,7.7-17.1,17.1-17.1h34.7c9.5,0,17.1,7.7,17.1,17.1
	v34.7C301.3,542.4,293.7,550,284.2,550z"/>
<path class="st3" d="M369.7,550.5H335c-9.5,0-17.1-7.7-17.1-17.1v-34.7c0-9.5,7.7-17.1,17.1-17.1h34.7c9.5,0,17.1,7.7,17.1,17.1
	v34.7C386.8,542.9,379.2,550.5,369.7,550.5z"/>
<circle class="st5" cx="248.9" cy="447" r="5"/>
<circle class="st3" cx="266.9" cy="447" r="5"/>
<circle class="st3" cx="284.9" cy="447" r="5"/>
<path class="st3" d="M386.4,561H147.5c-11.3,0-20.5-9.2-20.5-20.5v-50.9c0-11.3,9.2-20.5,20.5-20.5h238.9c11.3,0,20.5,9.2,20.5,20.5
	v50.9C407,551.8,397.8,561,386.4,561z M147.5,471c-10.2,0-18.5,8.3-18.5,18.5v50.9c0,10.2,8.3,18.5,18.5,18.5h238.9
	c10.2,0,18.5-8.3,18.5-18.5v-50.9c0-10.2-8.3-18.5-18.5-18.5H147.5z"/>
<path class="st6" d="M594.1,129.7c-4.1,0.6-7,4.5-6.5,8.6c0.1,0.4,0.1,0.8,0.3,1.2l-21.5,16.4l4.5,13.8l27-25.6
	c3.3-1.3,5.2-4.7,4.8-8.1c-0.6-4-4.3-6.9-8.3-6.3l0,0C594.3,129.7,594.2,129.7,594.1,129.7z"/>
<path class="st0" d="M445.8,205.6L445.8,205.6c0.3,7,6.1,12.6,13.2,12.5l40.6-0.6l51.3-23.8c0,0,16.7-14.2,21.4-14.5s7.2,4,6.1,0
	s-2.5-6.6,1.1-6.2s3-6.9,3.8-9.7s-10.1-12.8-10.1-12.8s-7.9,0.2-8.4,1.2s1.3,3.6-2.9,3.5s-7.5,0.1-7.6,2s0.2,3.5-2.2,5
	s-12.9,9.4-12.9,9.4l-83.6,20.9C449.7,193.9,445.6,199.4,445.8,205.6z"/>
<polygon class="st6" points="467.6,574.8 478.6,574.8 483.8,532.2 467.6,532.2 "/>
<path class="st7" d="M464,567.2l17.6-1.1v7.6l16.8,11.6c2.1,1.5,2.7,4.4,1.2,6.6c-0.9,1.3-2.3,2-3.9,2h-21l-3.6-7.5l-1.4,7.5h-7.9
	L464,567.2z"/>
<polygon class="st6" points="486,302 492,265 450,255 450,293.4 "/>
<path class="st7" d="M433.5,337.5L454,471c0,0-1.2,58,8.1,71.3l2.3,14.3h21.1c0,0-0.4-8.8,1.8-13.9s5.2-1.7,2.2-6.4
	s-3.3-4.2-2.2-7.9s1.8-174.2,1.8-174.2L433.5,337.5z"/>
<polygon class="st6" points="446,509.2 452.4,518.2 490.1,497.8 480.7,484.6 "/>
<path class="st7" d="M450.1,501.9l11.1,13.8l-6.2,4.4l0.3,20.4c0,2.6-2,4.7-4.7,4.8c-1.6,0-3-0.7-3.9-2l-12.2-17.1l4-7.3l-6.9,3.2
	l-4.6-6.5L450.1,501.9z"/>
<path class="st7" d="M448,271l-0.3,15.5c0,0-38,33.3-9.3,73.9c0,0,3.6,11.7,8.6,11.1s7.6,2.3,6.3,4.9s47.4,34.3,47.4,34.3
	S468.6,481.4,461,497l5,16c0,0-2.6,6.2,1.4,3.8s2.1-2.7,6.6-3.5s10.1-2.8,9.8-3.8s56-88.1,56-88.1s13.5-14.3,3.6-31.1
	c-1.4-0.3-1.4,0-1.4,0l-48.2-54.9L488,299L448,271z"/>
<path class="st0" d="M491.4,171.8l-24.3-11.4l-7.3,12.7c0,0-19.5,27.9-19.8,48s3.2,26.1,3.2,26.1s-8.4,6.3-4.2,10.1
	c4.2,3.9,13.5,5.5,6.4,7.2c-7.2,1.7-5.3,18.6,2.7,21.6s51,3,51,3c-0.8-2.7-0.1-5.6,1.9-7.5c3.3-3.3,6.3-0.9,3.3-6.1
	c-3-5.2-8-2.2-4-9.2s4-9.1,4-9.1s9.7-16.8-4.1-32.4s-0.1-1.1-0.1-1.1l-9.9-33.2L491.4,171.8z"/>
<path class="st4" d="M589.9,270h-34.7c-9.5,0-17.1-7.7-17.1-17.1v-34.7c0-9.5,7.7-17.1,17.1-17.1h34.7c9.5,0,17.1,7.7,17.1,17.1
	v34.7C607,262.4,599.3,270,589.9,270z"/>
<path class="st4" d="M607.9,138h-34.7c-9.5,0-17.1-7.7-17.1-17.1V86.2c0-9.5,7.7-17.1,17.1-17.1h34.7c9.5,0,17.1,7.7,17.1,17.1v34.7
	C625,130.4,617.3,138,607.9,138z"/>
<path id="bbee2bee-8faa-4e0b-8a29-1ed5e19a1a55-436" class="st8" d="M513.9,158.5L513.9,158.5c2.4-0.3,4-2.4,3.7-4.7l-2.8-23.6
	c-0.5-4.2-1.8-8.3-3.9-12c-4.1-7.2-10.9-12.6-18.8-14.9c-4.1-1.2-8.4-1.6-12.7-1.1c-17.4,2-22.9,6.9-27.9,35.2s2.8,23.6,2.8,23.6
	c0.1,0.6,0.2,1.1,0.5,1.6c0.6,1,1.5,1.7,2.5,2c0.5,0.2,1.1,0.2,1.7,0.1C480.3,165.6,501.9,166.6,513.9,158.5L513.9,158.5z"/>
<path id="af2c28ec-c1d2-4535-bf5a-7c25bf61990b-437" class="st6" d="M467.9,127.5c-4.8,12,1,25.6,13,30.5c5.7,2.3,12.2,2.3,17.9-0.2
	c5.7-2.4,10.2-7,12.5-12.7c4.8-12-1-25.6-13-30.5c-5.7-2.3-12.1-2.3-17.8,0.1C474.8,117.2,470.2,121.8,467.9,127.5L467.9,127.5z"/>
<path id="ed097037-2d04-403a-be41-ce5d2710356f-438" class="st8" d="M522.5,131.2c-0.4-3.3-1.5-6.6-3.1-9.5
	c-1.9-7.6-5.6-14.1-14.9-11.8c-3.2-1-6.6-1.3-10-0.9l-4.7,0.5c-0.1,0-0.1,0-0.2,0c-13.8,1.6-23.6,14.1-21.9,27.9l0,0l0.1,0.5l10-1.1
	l2.3-9.9l1.8,9.5l5.2-0.6l1.2-5l0.9,4.8c8.9,5,20.4,2.9,33.5-3.8L522.5,131.2z"/>
<path id="b879d9dd-b2ba-47e8-86a3-e5c83aca3b22-439" class="st8" d="M495.9,159.9c0.2,0.7,0.3,1.5,0.1,2.3c-0.1,0.4-0.2,0.8-0.4,1.1
	c-0.2,0.3-0.4,0.6-0.6,0.8c-0.7,0.7-1.6,1.2-2.6,1.3c-0.1,0-0.1,0-0.2,0s-0.1,0-0.2,0c-0.1,0-0.1,0-0.2,0s-0.1,0-0.2,0l-3.6-0.2
	l-6.1-9.9l1.1,9.6l-16.5-1l-4.8-40.6l27-3.1l-0.6,0.9c-1.9,2.9-3,6.2-3.1,9.6c-0.1,3.5,0.4,7,1.4,10.3c1,3.4,2.4,6.6,4.1,9.7
	c1.5,2.8,3.1,5.4,4.8,8C495.6,159.1,495.8,159.5,495.9,159.9z"/>
<path class="st6" d="M559.6,197.3c-3.9,1.5-5.9,5.9-4.4,9.8c0.1,0.4,0.3,0.8,0.5,1.1L538.3,229l7.4,12.5l20.7-30.9
	c2.9-2,4.1-5.7,2.9-9c-1.4-3.8-5.7-5.8-9.5-4.3l0,0C559.7,197.3,559.6,197.3,559.6,197.3z"/>
<path class="st0" d="M468.6,193.2L468.6,193.2c-6.7,3-9.7,11-6.7,17.7c0.3,0.6,0.6,1.2,0.9,1.7l16.6,26l39,35c0,0,32-23,33-31
	s-2-10,1-8s6,1,5,0s-0.6-1.1,0.2-2.5s3.8-8.5,3.8-8.5L550.9,213c0,0-11.4,5.5-12.4,8.5s3,2-1,3s-9.3-3.5-5.2,1.2s3.8,6.8,0,6.8
	s-10.8,10-10.8,10l-37-45.6C480.7,192.2,474.1,190.7,468.6,193.2z"/>
<path class="st2" d="M587.8,570c2,0.1,3.6-1.5,3.7-3.4c0-1.1-0.4-2.1-1.2-2.8c-0.1-0.4-0.2-0.6-0.3-1c1.9-4.9,7.4-7.4,12.4-5.5
	c2.4,0.9,4.4,2.8,5.4,5.2c4.3,9.8,9.9,20,7.3,30.9c17.6-38.2,11-85.5-15.8-117.8c-7.4-4-13.4-11.1-15-19.4c3.6,1.2,8.1-1.8,5.4-5.6
	c-1.2-1.5-2.4-2.9-3.6-4.3c13.7-14.8,30.3,8.1,15.3,28.1c5,6.2,9.4,12.9,13,20c-0.9-7.6,0-15.2,2.7-22.3c2.7-6.6,7.8-12.3,12.3-18
	c5.4-7,16.8-3.9,17.6,4.9c-5.1,1.7-5.7,9.1,0.2,10c-1.4,16.5-12,31.7-26.7,39.1c5.6,15.3,7.9,31.6,6.7,47.9
	c2.4-19,22.8-23.8,36.9-31.5c2.6-1.7,6-1,7.7,1.6c0.8,1.2,1.1,2.6,0.8,3.9c-2,0.8-3.8,1.8-5.6,3c-2.2,1.5-2.8,4.5-1.3,6.7
	c0.8,1.2,2.1,2,3.6,2.1c-7,17.8-25.5,29.9-44.5,30.1c-1.8,8-4.3,15.8-7.7,23.2l-28.3,0.3c-0.1-0.3-0.2-0.6-0.3-1
	c2.6,0.1,5.2,0,7.8-0.5C589.2,585.7,583.8,581.5,587.8,570L587.8,570z"/>
<path class="st5" d="M0,595.1c0,0.7,0.5,1.2,1.2,1.2c0,0,0,0,0,0h715.3c0.7,0,1.2-0.5,1.2-1.2s-0.5-1.2-1.2-1.2H1.2
	C0.5,593.9,0,594.5,0,595.1C0,595.1,0,595.1,0,595.1z"/>
<path class="st3" d="M177.9,29.1h-27c-2.8,0-5-2.2-5-5s2.2-5,5-5h27c2.8,0,5,2.2,5,5S180.7,29.1,177.9,29.1z"/>
<circle class="st3" cx="354.9" cy="24.1" r="4.5"/>
<circle class="st3" cx="368.9" cy="24.1" r="4.5"/>
<circle class="st3" cx="382.9" cy="24.1" r="4.5"/>
<circle class="st5" cx="209.4" cy="184.6" r="12"/>
<circle class="st5" cx="296.4" cy="488.6" r="12"/>
<path class="st3" d="M198.7,348.5H164c-10,0-18.1-8.1-18.1-18.1v-34.7c0-10,8.1-18.1,18.1-18.1h34.7c10,0,18.1,8.1,18.1,18.1v34.7
	C216.8,340.4,208.7,348.5,198.7,348.5z M164,279.5c-8.9,0-16.1,7.2-16.1,16.1v34.7c0,8.9,7.2,16.1,16.1,16.1h34.7
	c8.9,0,16.1-7.2,16.1-16.1v-34.7c0-8.9-7.2-16.1-16.1-16.1L164,279.5z"/>
<path class="st3" d="M284.2,349h-34.7c-10,0-18.1-8.1-18.1-18.1v-34.7c0-10,8.1-18.1,18.1-18.1h34.7c10,0,18.1,8.1,18.1,18.1v34.7
	C302.3,340.9,294.2,349,284.2,349z M249.5,280c-8.9,0-16.1,7.2-16.1,16.1v34.7c0,8.9,7.2,16.1,16.1,16.1h34.7
	c8.9,0,16.1-7.2,16.1-16.1v-34.7c0-8.9-7.2-16.1-16.1-16.1L249.5,280z"/>
<path class="st3" d="M369.7,349.5H335c-10,0-18.1-8.1-18.1-18.1v-34.7c0-10,8.1-18.1,18.1-18.1h34.7c10,0,18.1,8.1,18.1,18.1v34.7
	C387.8,341.4,379.7,349.5,369.7,349.5z M335,280.5c-8.9,0-16.1,7.2-16.1,16.1v34.7c0,8.9,7.2,16.1,16.1,16.1h34.7
	c8.9,0,16.1-7.2,16.1-16.1v-34.7c0-8.9-7.2-16.1-16.1-16.1L335,280.5z"/>
<circle class="st5" cx="296.4" cy="285.6" r="12"/>
</svg>
