<?xml version="1.0" encoding="utf-8"?>
<!-- Generator: Adobe Illustrator 27.7.0, SVG Export Plug-In . SVG Version: 6.00 Build 0)  -->
<svg version="1.1" id="Ebene_1" xmlns="http://www.w3.org/2000/svg" xmlns:xlink="http://www.w3.org/1999/xlink" x="0px" y="0px"
	 viewBox="0 0 649.7 568.2" style="enable-background:new 0 0 649.7 568.2;" xml:space="preserve">
<style type="text/css">
	.st0{fill:#F2F2F2;}
	.st1{fill:#FFFFFF;}
	.st2{fill:#3F3D56;}
	.st3{fill:#BB1C16;}
	.st4{fill:#E4E4E4;}
	.st5{fill:#4E342E;}
	.st6{fill:#FFB6B6;}
	.st7{fill:#2F2E41;}
</style>
<path class="st0" d="M122.1,400.2l-6.7,52.8l-9.9-60C58.1,374.8,2.7,371.3,2.7,371.3S-9.5,485.8,30.9,533.6s82.9,40.6,118,11
	c35.1-29.6,49.5-70.3,9.1-118.2C149,415.8,136.4,407.2,122.1,400.2z"/>
<path class="st1" d="M108.9,460.9l2,2.4c23,27.6,36.4,52.9,40,75.6c0.1,0.3,0.1,0.7,0.2,1l-1.5,0.2l-1.5,0.2
	c-3.6-24.8-19.5-50.8-39.5-74.8c-0.6-0.8-1.3-1.6-2-2.3C98,453,88.8,443.3,79.4,434.2c-0.7-0.7-1.5-1.4-2.2-2.1
	c-12.4-12-25-22.8-36.2-32c-0.8-0.7-1.6-1.3-2.4-1.9C19.5,382.6,4.7,372.3,1.4,370c-0.4-0.3-0.6-0.4-0.7-0.5l0.8-1.3l0,0l0.9-1.3
	c0.1,0,0.8,0.5,2.2,1.5c5.2,3.6,19,13.4,36.1,27.3c0.8,0.6,1.6,1.3,2.4,1.9c9.1,7.4,19.1,16,29.1,25.3c2.5,2.3,5,4.7,7.4,7
	c0.8,0.7,1.5,1.4,2.2,2.1C91.9,441.9,101,451.5,108.9,460.9z"/>
<path class="st1" d="M40.7,395.8c-0.7,0.8-1.4,1.5-2.1,2.3c-2,2.1-4.1,4-6.3,5.9c-9.4,7.9-20.4,13.6-32.3,16.7c0,1,0.1,2.1,0.1,3.1
	c12.6-3.2,24.2-9.1,34.1-17.5c2.3-2,4.6-4.1,6.7-6.3c0.7-0.8,1.4-1.5,2.1-2.3c5.7-6.4,10.4-13.6,13.9-21.4c-1-0.2-2.1-0.4-3.1-0.7
	C50.5,383,46.1,389.8,40.7,395.8z"/>
<path class="st1" d="M79.6,429.9c-0.8,0.7-1.6,1.4-2.4,2.1c-0.2,0.2-0.5,0.4-0.7,0.6C55.8,450.1,28,456.3,1.9,449.3
	c0.1,1.1,0.2,2.2,0.4,3.3c26.7,6.8,55.1,0.3,76.1-17.5c0.3-0.3,0.7-0.6,1-0.8c0.8-0.7,1.6-1.4,2.4-2.1
	c11.9-11.2,20.4-25.5,24.4-41.4c-1-0.4-1.9-0.7-2.9-1.1C99.5,405.1,91.2,419.1,79.6,429.9z"/>
<path class="st1" d="M108.9,460.9c-0.8,0.8-1.5,1.5-2.3,2.2c-0.8,0.8-1.7,1.5-2.6,2.3C76,489,35.7,491.3,5.1,471
	c0.3,1.4,0.5,2.8,0.8,4.1c31.5,19.4,71.8,16.4,100.1-7.4c0.9-0.7,1.7-1.5,2.6-2.3c0.8-0.7,1.6-1.5,2.4-2.2
	c15.4-15.2,24.5-35.7,25.4-57.4c-1-0.7-2-1.3-3-1.9C132.9,425.4,124.2,445.8,108.9,460.9z"/>
<path class="st2" d="M372.9,134.3V49.2c0-27.2-22-49.2-49.2-49.2H143.4c-27.2,0-49.2,22-49.2,49.2c0,0,0,0,0,0v56.5H91v19.9h3.2
	v21.2H91v30.5h3.2v13.3H91v30.5h3.2V516c0,27.2,22,49.2,49.2,49.2c0,0,0,0,0,0h180.2c27.2,0,49.2-22,49.2-49.2l0,0V194.9h3.1v-60.6
	H372.9z"/>
<path class="st1" d="M325.6,12.8h-23.5c3.6,8.9-0.6,19.1-9.6,22.8c-2.1,0.9-4.3,1.3-6.6,1.3H182.7c-9.6,0-17.5-7.8-17.5-17.5
	c0-2.3,0.4-4.5,1.3-6.6h-22c-20.3,0-36.8,16.5-36.8,36.8l0,0v466.1c0,20.3,16.5,36.8,36.8,36.8h0h181.1c20.3,0,36.8-16.5,36.8-36.8
	l0,0V49.6C362.4,29.3,345.9,12.8,325.6,12.8L325.6,12.8z"/>
<path class="st3" d="M330.2,175H139.9c-2.8,0-5-2.2-5-5V92.8c0-2.8,2.2-5,5-5h190.2c2.8,0,5,2.2,5,5V170
	C335.2,172.8,332.9,175,330.2,175z"/>
<path class="st3" d="M312.1,211.5h-154c-3,0-5.5-2.5-5.5-5.5s2.5-5.5,5.5-5.5h154c3,0,5.5,2.5,5.5,5.5S315.1,211.5,312.1,211.5z"/>
<path class="st4" d="M312.1,239.5h-154c-3.3,0-6-2.7-6-6s2.7-6,6-6l0,0h154c3.3,0,6,2.7,6,6S315.4,239.5,312.1,239.5z"/>
<path class="st4" d="M312.1,267h-154c-3.3,0-6-2.7-6-6s2.7-6,6-6l0,0h154c3.3,0,6,2.7,6,6S315.4,267,312.1,267z"/>
<path class="st4" d="M330.2,406H139.9c-2.8,0-5-2.2-5-5v-77.2c0-2.8,2.2-5,5-5h190.2c2.8,0,5,2.2,5,5V401
	C335.2,403.8,332.9,406,330.2,406z"/>
<path class="st4" d="M312.1,443h-154c-3.3,0-6-2.7-6-6s2.7-6,6-6l0,0h154c3.3,0,6,2.7,6,6S315.4,443,312.1,443z"/>
<path class="st4" d="M312.1,470.5h-154c-3.3,0-6-2.7-6-6s2.7-6,6-6l0,0h154c3.3,0,6,2.7,6,6S315.4,470.5,312.1,470.5z"/>
<path class="st4" d="M312.1,498h-154c-3.3,0-6-2.7-6-6s2.7-6,6-6l0,0h154c3.3,0,6,2.7,6,6S315.4,498,312.1,498z"/>
<path class="st5" d="M484.9,146.3c-1.9-14.2-4.4-29.4-14.4-39.7c-13-13.3-34.3-13.5-47.6-0.6c-0.4,0.3-0.7,0.7-1,1.1
	c-7.3,7.8-10.5,18.7-10.8,29.3s2.1,71.2,4.7,81.5c13.9,0.3,27.7-2.4,40.5-8c3.1-1.5,6.4-2.8,9.7-3.8c3.4-0.9,5.8,1.3,8.9,2.8
	l1.7-3.3c1.4,2.6,5.8,1.8,7.4-0.7C485.7,202.5,485.3,149.3,484.9,146.3z"/>
<polygon class="st6" points="612.4,535 602.2,541.8 571.3,505.5 586.3,495.6 "/>
<path class="st7" d="M621.6,543.2l-33,21.8l-0.3-0.4c-4.7-7.1-2.7-16.6,4.3-21.3l0,0l20.1-13.3L621.6,543.2z"/>
<polygon class="st6" points="480.4,553.1 468.2,553.1 462.3,505.8 480.4,505.8 "/>
<path class="st7" d="M483.6,565l-39.5,0v-0.5c0-8.5,6.9-15.4,15.4-15.4h0l24.1,0L483.6,565z"/>
<path class="st6" d="M393.2,228.1l-46.3-33.1c0.6-4.9-2.9-9.4-7.9-10s-9.4,2.9-10,7.9c-0.5,4.6,2.5,8.9,7.1,9.9
	c5.8,4.9,48,46.9,54.1,44.7c6.1-2.3,33-6.3,33-6.3l0.7-25.5L393.2,228.1z"/>
<path class="st7" d="M429.6,288.3l0.4,58.2c0,0,10,86.2,13.7,100.8s18.7,81.9,18.7,81.9l24.4-3.9l-15.7-88.1l4.7-73l27.4,73.2
	l69.5,72.6l17.6-14.2l-60.5-88.9l-18.5-72.8c0,0,2.3-37.7-18.4-52.2L429.6,288.3z"/>
<circle class="st6" cx="443.6" cy="133.7" r="26.7"/>
<rect x="447.8" y="299.4" transform="matrix(0.4088 -0.9126 0.9126 0.4088 -15.7723 606.1222)" class="st7" width="24.3" height="31.6"/>
<path class="st3" d="M318.1,196.8"/>
<path class="st3" d="M486.4,185.1c-3.1-6.3-4.7-14-11.4-16c-4.5-1.4-22.9,0.7-27,3c-6.9,3.9-0.6,11.1-4.7,17.8
	c-4.4,7.3-8.8,14.7-13.2,22c-3,5-6.1,10.2-7.7,15.8c-1.6,5.7-1.7,12,1.1,17.2c2.5,4.6,7,7.9,9.5,12.6c2.6,4.8-2.1,26.3-4.5,31.2
	l1.2,0.5c16.2,0.9,32.4,0.4,48.4-1.6c4-0.5,8.1-1.2,11.4-3.5c4.8-3.4,6.8-9.6,7.9-15.4C503.2,240.4,499.3,210.9,486.4,185.1z"/>
<path class="st3" d="M431.7,245.8c7.2-7.1,14.5-14.3,20.5-22.5s10.6-17.6,11.9-27.7c0.6-3.2,0.3-6.5-0.6-9.6c-1.1-3-3.6-5.8-6.7-6.5
	c-5.1-1.1-9.7,2.9-13.3,6.7c-10.7,11-21.3,22-32,32.9c6.8,8.9,13.6,17.9,20.4,26.8L431.7,245.8z"/>
<path class="st6" d="M510.6,251.2c-2.2-6.1-6.3-33-6.3-33l-25.5-0.7l12.5,30.7l-34,47.6c0,0,0.1,0.1,0.2,0.3
	c-4.9-0.8-9.5,2.6-10.3,7.5c-0.8,4.9,2.6,9.5,7.5,10.3c4.9,0.8,9.5-2.6,10.3-7.5c0-0.2,0.1-0.5,0.1-0.7c0.3,0.1,0.6,0.1,0.8-0.1
	C469.5,300.8,512.8,257.4,510.6,251.2z"/>
<path class="st3" d="M513.2,234.3c-2.3-9.9-4.7-19.8-8.6-29.2s-9.6-18.2-17.5-24.5c-2.5-2.1-5.4-3.7-8.6-4.4c-3.2-0.6-6.8,0.1-9,2.4
	c-3.6,3.8-2.5,9.8-1.2,14.8c3.9,14.8,7.7,29.6,11.6,44.4c11.2-1.2,22.3-2.4,33.5-3.6L513.2,234.3z"/>
<path class="st5" d="M477,135.7c-0.8-6.5-1.7-13-3.7-19.1c-2-6.1-5.1-11.8-9.7-15.2c-7.2-5.5-16.5-4.4-24.5-1.3
	c-6.2,2.4-12.3,6.1-16.7,12.1c-4.4,5.9-6.9,14.4-5.2,22.2c8.6-2.4,17.2-4.8,25.8-7.2L442,128c5.6,3.1,9.8,9.6,11.1,17
	c1.3,7.3-0.4,64.9-4.5,71c5.9-2.4,11.7-4.9,17.6-7.3c3.6-1.5,7.5-3.3,9.6-7.1C478.3,197.1,477.7,141.1,477,135.7z"/>
<path class="st3" d="M350.8,177.6l-17.2,25.8c-0.8,1.3-2.2,2-3.8,2c-1.8,0-3.4-1.1-4.1-2.8c-0.1-0.3-0.2-0.6-0.3-0.9
	c-0.2-1.2,0-2.4,0.7-3.4l17.2-25.8c1.4-2.1,4.2-2.6,6.2-1.2C351.6,172.8,352.2,175.6,350.8,177.6L350.8,177.6L350.8,177.6z"/>
<path class="st2" d="M335,201.3l-3.5,5.2l-6.2,5.4c-1,0.9-2.6,0.8-3.5-0.2c-0.6-0.7-0.8-1.6-0.5-2.4l2.7-7.9l3.4-5.1L335,201.3z"/>
<path class="st2" d="M351.6,164.1l-8.6,7.6c-1,0.9-1.1,2.4-0.2,3.5c0.1,0.2,0.3,0.3,0.5,0.4l1.6,1.1l-4.7,7.1
	c-0.3,0.5-0.2,1.1,0.3,1.4c0.5,0.3,1.1,0.2,1.4-0.3l0,0l4.7-7.1l1.6,1.1c1.1,0.7,2.6,0.4,3.4-0.7c0.1-0.2,0.2-0.4,0.3-0.6l3.7-10.9
	c0.4-1.3-0.3-2.7-1.5-3.1C353.2,163.3,352.2,163.5,351.6,164.1L351.6,164.1z"/>
<path class="st2" d="M648.5,567.1H1.2c-0.7,0-1.2-0.5-1.2-1.2c0-0.7,0.5-1.2,1.2-1.2h647.3c0.7,0,1.2,0.5,1.2,1.2
	C649.7,566.6,649.1,567.1,648.5,567.1z"/>
<path class="st1" d="M241.8,21.5h-27c-1.1,0-2-0.9-2-2s0.9-2,2-2h27c1.1,0,2,0.9,2,2S242.9,21.5,241.8,21.5z"/>
<ellipse transform="matrix(0.1602 -0.9871 0.9871 0.1602 195.1404 268.4163)" class="st1" cx="255.3" cy="19.5" rx="2" ry="2"/>
</svg>
