<?xml version="1.0" encoding="utf-8"?>
<!-- Generator: Adobe Illustrator 27.7.0, SVG Export Plug-In . SVG Version: 6.00 Build 0)  -->
<svg version="1.1" id="Ebene_1" xmlns="http://www.w3.org/2000/svg" xmlns:xlink="http://www.w3.org/1999/xlink" x="0px" y="0px"
	 viewBox="0 0 864.8 663.1" style="enable-background:new 0 0 864.8 663.1;" xml:space="preserve">
<style type="text/css">
	.st0{fill:#F2F2F2;}
	.st1{fill:#FFFFFF;}
	.st2{fill:#3F3D56;}
	.st3{fill:#BB1C16;}
	.st4{fill:#A0616A;}
	.st5{fill:#2F2E41;}
	.st6{fill:#E6E6E6;}
	.st7{fill:#FFB8B8;}
	.st8{fill:#FFB6B6;}
	.st9{fill:#4E342E;}
	.st10{fill:none;}
	.st11{opacity:0.2;enable-background:new    ;}
</style>
<path class="st0" d="M792.5,475.1l27-3.1c5.9-13,8.4-27.3,7.5-41.6c-14.7,20.7-45.8,20.4-66.4,35.2c-13,9.4-21,24.3-21.7,40.3
	l-8.9,17.1c25.7,2.8,51.4-5.8,70.2-23.5c5.2-5,9.7-10.6,13.5-16.7C803.1,479.7,792.5,475.1,792.5,475.1z"/>
<path class="st0" d="M771.9,436.2l22.8-14.8c-0.6-14.3-4.6-28.2-11.8-40.6c-3.9,25.1-31.9,38.7-43.8,61.1
	c-7.4,14.2-7.9,31.1-1.4,45.7l-0.4,19.3c24.3-9,43.4-28.1,52.4-52.4c2.4-6.8,4-13.8,4.6-20.9C783.5,435.5,771.9,436.2,771.9,436.2z"
	/>
<circle class="st1" cx="672.9" cy="535.4" r="81.9"/>
<path class="st2" d="M672.9,618.3c-45.8,0-82.9-37.1-82.9-82.9s37.1-82.9,82.9-82.9c45.8,0,82.9,37.1,82.9,82.9
	C755.7,581.1,718.6,618.2,672.9,618.3z M672.9,454.5c-44.7,0-80.9,36.2-80.9,80.9s36.2,80.9,80.9,80.9s80.9-36.2,80.9-80.9
	c0,0,0,0,0,0C753.7,490.7,717.5,454.5,672.9,454.5z"/>
<path class="st3" d="M666.7,568.1c-0.2,0-0.3,0-0.5,0c-3.1-0.2-6-1.7-7.9-4.1l-13.7-17.6c-3.6-4.7-2.8-11.4,1.9-15c0,0,0,0,0,0
	l0.5-0.4c4.7-3.6,11.4-2.8,15,1.9c0,0,0,0,0,0c2.7,3.4,7.6,4,11,1.4c0.3-0.2,0.6-0.5,0.9-0.8l27.8-29.3c4.1-4.3,10.9-4.5,15.2-0.4
	l0.5,0.4c4.3,4.1,4.5,10.9,0.4,15.1c0,0,0,0,0,0l-43.1,45.5C672.5,566.9,669.7,568.1,666.7,568.1z"/>
<polygon class="st4" points="630,640.1 618.6,641.3 607.9,597.2 624.6,595.4 "/>
<path class="st5" d="M704.8,441.9c-0.4-0.4-0.7-0.7-1.1-1c-2.9-2.4-6-4.7-9.2-6.8c-3.6-2.4-7.6-4.8-12.2-7.4c-2.2-1.2-4.6-2.5-7-3.8
	c-1.2-0.6-2.5-1.3-3.8-1.9c-0.1,0-0.1-0.1-0.2-0.1l-0.4-0.2l-27.6,22.8l-2,1.5l5.1,6.3c0,0-0.4,5-0.4,5l-5,12.6l-0.1,0l-18,8.2
	l-18.5,8.4l-9.9,4.5c-4.7,2.1-8.3,6-10,10.8c-1.8,5-1.6,10.5,0.7,15.3c0.2,0.5,0.5,1,0.7,1.4l4.1,26c2.5,15.5,7.3,30.6,14.2,44.7
	l6.3,24.3l1-0.5l14.3-7.1l3.8-1.9l0.7-16.3c0.1-1.9,0.1-3.7,0-5.6c-0.1-3.1-0.4-6.1-0.9-9.1l-8.2-50.9c1.5-0.6,2.9-1.2,4.3-1.8
	c6.5-2.7,12.7-5.5,18.6-8.3c19-9.1,34.5-18.5,47.2-28.8c3.6-2.9,6.9-5.8,10-8.8c1.1-1.1,2.3-2.2,3.3-3.3c0.3-0.3,0.5-0.5,0.8-0.8
	c4.5-4.8,6.3-11.5,4.8-17.9C709.4,447.9,707.5,444.5,704.8,441.9z"/>
<path class="st5" d="M629.1,632.3l-12.3,1.4l-1.9,0.2l1.3,7.3l-14.3,14c-1.8,1.8-1.9,4.7-0.1,6.5c1.1,1.1,2.6,1.6,4.1,1.3l20.3-3.5
	l2.3-7.8l2.6,7l7.6-1.3l-6.6-25.4L629.1,632.3z"/>
<path class="st4" d="M640.8,379.5l10.5-11.2l-14.9-32.5l-2.2-11.4c-0.9-4.7-5.4-7.7-10.1-6.8c-1.5,0.3-2.8,0.9-4,1.9l0,0
	c-3.5,3-4,8.3-1.1,11.9l8.2,10.3L640.8,379.5z"/>
<path class="st6" d="M651.3,363.3l-12,12l2.3,17.5c1.5,4.7,5.3,8.2,10.1,9.3l0,0c5.9,1.4,12.1-1.2,15.2-6.4l27-46.3
	c4-6.6,1.9-15.2-4.6-19.4l0,0c-6.6-4.2-15.4-2.2-19.7,4.4c-0.3,0.4-0.5,0.9-0.7,1.3L652.4,371L651.3,363.3z"/>
<path class="st4" d="M639.2,540.4c-0.6,0.6-1.2,1.3-1.9,1.9c-1.3,1.2-2.5,2.5-3.8,3.7c-0.6,0.6-1.3,1.2-1.9,1.8l0,0l0,0l0,0
	l-1.1,0.6l-2.7-3.9l-1.2-1.8l-1.7-2.6l-3.2-4.7L605,510.9l15-7.7l1.2,2.3l0,0l0.6,1.1l11,21.2l2.2,4.3l0.1,0.1l1.3,2.6l1.2,2.2
	l1.3,2.5L639.2,540.4z"/>
<path class="st5" d="M636.1,532.4l-10.4,6.7l-1.6,1l4.4,6l-6.6,18.8c-0.9,2.4,0.4,5.1,2.8,5.9c1.4,0.5,3,0.3,4.3-0.6l16.7-12.1
	l-1.4-8l5.4,5.1l6.3-4.6l-17.1-19.9L636.1,532.4z"/>
<path class="st0" d="M274.1,163.7l8-26c-9.6-10.6-21.7-18.6-35.1-23.5c13.1,21.7,0.4,50.1,5.7,74.9c3.5,15.7,13.9,28.9,28.3,36
	l12.1,15c12.9-22.5,15.2-49.4,6.5-73.8c-2.5-6.7-5.8-13.1-9.9-19C282.5,155.8,274.1,163.7,274.1,163.7z"/>
<path class="st0" d="M230.2,167.1l-4.5-26.8c-13.3-5.2-27.7-7-41.9-5.4c21.4,13.6,22.7,44.7,38.5,64.5
	c10.1,12.5,25.3,19.7,41.4,19.6l17.5,8c1.5-25.8-8.4-51-27.1-68.9c-5.2-4.9-11.1-9.2-17.3-12.6C234.2,156.2,230.2,167.1,230.2,167.1
	z"/>
<path class="st7" d="M383,88.2l8.2-10.3c2.9-3.6,2.4-8.9-1.1-11.9l0,0c-3.6-3.1-9.1-2.7-12.2,0.9c-1,1.1-1.6,2.5-1.9,4l-2.2,11.4
	l-8.4,22.6l10.1,5L383,88.2z"/>
<path class="st5" d="M357.8,117.6l-16.5-35.1c-3.5-7.1-12-10-19.1-6.5c-0.5,0.2-0.9,0.5-1.3,0.7l0,0c-6.5,4.1-8.6,12.7-4.6,19.4
	l27,46.3c3.1,5.2,9.3,7.8,15.2,6.4l0,0c4.8-1.1,8.6-4.7,10.1-9.3l10.2-31.9l-13.4-6.7L357.8,117.6z"/>
<path class="st2" d="M388.9,106.3l-10.8-0.9c-3.5-0.3-6.1-3.4-5.9-6.9l4.2-49.5c0.3-3.5,3.4-6.1,6.9-5.9l10.8,0.9
	c3.5,0.3,6.1,3.4,5.9,6.9l-4.2,49.5C395.6,104,392.5,106.6,388.9,106.3z"/>
<path class="st3" d="M381.9,45.5c-1.9-0.2-3.6,1.3-3.7,3.2L374,98.2c-0.2,1.9,1.3,3.6,3.2,3.7l10.8,0.9c1.9,0.2,3.6-1.3,3.7-3.2
	l4.2-49.5c0.2-1.9-1.3-3.6-3.2-3.7L381.9,45.5z"/>
<rect x="314.9" y="150.9" class="st7" width="44.9" height="44.9"/>
<circle class="st5" cx="368.5" cy="144.6" r="2.4"/>
<polygon class="st8" points="408.6,340.5 420.6,340.5 426.3,294.3 408.6,294.3 "/>
<path class="st5" d="M405.6,334.6l18.9-1.1v8.1l18,12.4c2.3,1.6,2.9,4.7,1.3,7c-0.9,1.4-2.5,2.2-4.2,2.2h-22.5l-3.9-8l-1.5,8h-8.5
	L405.6,334.6z"/>
<polygon class="st8" points="319.7,373.5 330,379.7 358.7,343 343.5,333.9 "/>
<path class="st5" d="M320.2,366.9l16.8,8.8l-4.2,7l9,19.9c1.2,2.5,0,5.6-2.5,6.7c-1.5,0.7-3.3,0.6-4.7-0.3l-19.3-11.6l0.8-8.9
	l-5.4,6.1l-7.3-4.4L320.2,366.9z"/>
<path class="st3" d="M78.9,369.5c-0.1,0-0.2,0-0.4,0c-2.8-0.1-5.4-1.6-7-4c-5.7-8.5-12.6-16-20.6-22.3c-4.8-3.9-9.9-7.4-14.7-10.9
	c-12.6-8.9-24.4-17.4-31-29c-14.3-25.4,2.5-60.8,26.7-76.6c27.1-17.8,62.7-20.6,97.1-20.9c3.6,0,7.2-0.1,10.7-0.1l0,0
	c62.1,0,124,5.7,185,16.9c20.3,3.7,41.5,8.3,58.6,19.5c17,11.1,27.3,28.5,26.3,44.4c-1.5,23.2-26.1,40.6-48.5,45.1
	c-21.4,4.3-43.6,1.4-67-1.7c-5.2-0.7-10.5-1.4-15.9-2c-57.6-6.7-165.9,13.9-170.5,14.7l-4.5,0.9l-17.6,22.7
	C84.1,368.3,81.6,369.5,78.9,369.5z"/>
<path class="st1" d="M335.6,256.2H92c-2.9,0-5.3-2.4-5.3-5.3c0-2.9,2.4-5.3,5.3-5.3h243.6c2.9,0,5.3,2.4,5.3,5.3
	C340.8,253.9,338.5,256.2,335.6,256.2z"/>
<path class="st1" d="M335.6,288.8H92c-2.9,0-5.3-2.4-5.3-5.3s2.4-5.3,5.3-5.3h243.6c2.9,0,5.3,2.4,5.3,5.3
	C340.9,286.4,338.5,288.8,335.6,288.8z"/>
<path class="st1" d="M120.4,321.3H92c-2.9,0-5.3-2.4-5.3-5.3c0-2.9,2.4-5.3,5.3-5.3h28.4c2.9,0,5.3,2.4,5.3,5.3
	C125.7,318.9,123.3,321.3,120.4,321.3z"/>
<path class="st5" d="M361.4,182.9l-48-5.7l1.4,9.1c0,0-32.5,26.2-10.3,55.1l10.7,10.5l-1,4.9h6.9l0.7,5.9l29.7,24.6l1.7,5h4.9
	l-2.4,5.7l-22,51.2l18.3,8.5l33.6-64.5l-8.6-19.4l-31-39.2l48,19l0.8,4.2l4.4-0.8l-0.9,6.1l9.4,48.2l19.8-2.6l-2-60
	c-0.3-6.7-4.2-12.7-10.1-15.7c-10.2-5.2-47.7-19.7-47.7-19.7L361.4,182.9z"/>
<path class="st2" d="M342.2,77.9l-9-11.6l-12.9-0.6l-1.3,10.9l-6.4,2.9c-6.4,24.2-7.4,49.6-2.9,74.2l0,0l0,0
	c1.7,1.6,2.5,4.1,1.9,6.4l-0.4,1.7l0,0.1c1.4,2.1,1.8,4.7,1.3,7.2l0,0l-11.7,20.8c24.8,10.1,43-8.7,59.8-33.4l10.4-36.1L342.2,77.9z
	"/>
<polygon class="st5" points="369.3,144.7 371.8,120.3 339.5,72.5 338.1,73.4 370.1,120.8 367.7,144.5 "/>
<circle class="st7" cx="333.8" cy="41.5" r="23.8"/>
<path class="st9" d="M336.8,12.4l-3,0.1l-1,0l-11.4,0.4c-10.1,0.3-18,9.8-17.6,21.1c-7.4,7.9-4.8,17.4,1.6,27.5
	c10.9,1,21.7,3.5,32,7.5l1.2-6.2l3.1,8c2.6,1.1,5.1,2.4,7.6,3.8c-3.3-13.5-4.9-27-3.3-37.6l5.2-0.2l-0.2-5.7l2,5.6l9.5-0.3l0,0
	C362,22.7,350.5,12,336.8,12.4C336.8,12.4,336.8,12.4,336.8,12.4z"/>
<circle class="st9" cx="316.2" cy="11.2" r="11.2"/>
<path class="st7" d="M390,100.2l8.2-10.3c2.9-3.6,2.4-8.9-1.1-11.9l0,0c-3.6-3.1-9.1-2.7-12.2,0.9c-1,1.1-1.6,2.5-1.9,4l-2.2,11.4
	l-8.4,22.6l10.1,5L390,100.2z"/>
<path class="st5" d="M364.8,129.6l-16.5-35.1c-3.5-7.1-12-10-19.1-6.5c-0.5,0.2-0.9,0.5-1.3,0.7l0,0c-6.5,4.1-8.6,12.7-4.6,19.4
	l27,46.3c3.1,5.2,9.3,7.8,15.2,6.4l0,0c4.8-1.1,8.6-4.7,10.1-9.3l10.2-31.9l-13.4-6.7L364.8,129.6z"/>
<path class="st5" d="M711.3,462.2c-1,1.7-2.1,3.3-3.2,5c-2,3.1-4,6.1-6.1,9c0,0,0,0,0,0c-1.2,1.1-2.6,2.1-4,2.9
	c-0.1,0-0.1,0.1-0.2,0.1c-1.1,0.6-2.2,1-3.4,1.4c-0.4,0.1-0.9,0.2-1.3,0.3c-1.5,0.4-3,0.7-4.6,0.9c-2.7,0.5-5.3,0.8-8,1
	c-0.2,0-0.4,0-0.6,0.1c-10.8,0.8-21.4-0.5-32.4-2.6c-5.4-1-11-2.3-16.7-3.5c-1.9-0.4-3.8-0.8-5.7-1.3c-0.1,0-0.3-0.1-0.4-0.1
	c-2.7-0.6-5.5-1.2-8.3-1.8c-3.6-0.7-1.7-0.8-5.6-1.5c0,0,8.8,9,10.3,12.9c1.6,4.8,2.9,8.6,0.2,16.5l8.5,16.7l-29.5,5
	c-16.3-31.9-29.3-52.9-23.5-65.2c0-0.6,0.1-1.2,0.1-1.7c0.6-5.3,3.3-10.1,7.6-13.4c4-3.2,9.2-4.6,14.2-3.9l5.8,0.7l44.9-2.2l1.8-7.2
	l0.3-0.1l10.4-3.8l35.8-13.1l0.1,0l2.4-0.9l0.3,0.5c0.1,0.1,0.2,0.3,0.2,0.4c2.3,4.2,4.2,8.6,5.7,13.1c2.4,7.4,4.4,15,5.9,22.7
	c0.1,0.3,0.1,0.6,0.2,0.9l0,0.1c0,0.1,0,0.2,0,0.2C713.4,453.9,712.8,458.1,711.3,462.2z"/>
<line class="st10" x1="617.1" y1="551" x2="616.4" y2="551"/>
<path class="st6" d="M703.8,322.3l-0.3-14.4l-22.7-2.6l-2.4,12.1l-23.9,22.5c-17,20.8-4.6,35.1-3.9,37.2l2.1,26.2l1.3,9.1l-5.2,24.9
	l65.2,14c2.1-17.2-0.2-33.2-13.8-46.1l6.9-21.4l0,0c3.5-5.6,5.7-11.9,6.4-18.4l0.2-2.2C719.7,344.2,716.1,337.8,703.8,322.3z"/>
<path class="st5" d="M735.7,277.4c0,0.4,0,0.7,0,1.1c0,14-11.4,25.4-25.5,25.4c-2.7,0-5.3-0.4-7.8-1.3l-4.7-1.5c0,0-0.1,0-0.1,0
	l-7.7-2.5c0-0.3,0-0.7,0-1c-11.5-4.9,4.4-21,8.3-33.1c0.6-1.9-20.5-0.5-19.5-2.1c-0.2-0.1-0.4-0.2-0.6-0.3
	c7.3-11.5,21.3-17,34.5-13.4c0.2,0,0.3,0.1,0.5,0.1c15,0.4,22.8,10.8,22.8,24.3C735.9,274.5,735.8,276,735.7,277.4z"/>
<path class="st4" d="M722.7,282.8c-4.2,12.8-17.9,19.8-30.8,15.6c-0.7-0.2-1.4-0.5-2-0.8c-11.6-5-17.5-18-13.6-30
	c0.6-1.8,1.4-3.6,2.4-5.3c7.1-11.5,22.1-15,33.6-7.9C721.9,260.3,726.2,272,722.7,282.8z"/>
<path class="st5" d="M697.7,301.1c0,0-0.1,0-0.1,0l-7.7-2.5c0-0.3-14.2,9-14.1,8.7c0.2-2.5,16.2-14.9,18.5-17.7
	c5.2-6.2,4.4-15.6-1.8-20.8c-1.4-1.2-3-2.1-4.7-2.6c-0.1,0-0.1,0-0.2-0.1c-1.5-0.5-2.9-1-4.3-1.6c-0.7-2.8-1-1.8-2.6-4.2
	c0.3,2.1-2.4,3.7-2.4,5.9c-0.5-0.2-1.1-0.5-1.6-0.8c-0.2-0.1-0.4-0.2-0.6-0.3c-1.5-0.7-2.9-1.8-3.9-3.1
	c3.8-11.8,18.6-21.3,30.4-17.4l4.5,1.5c5.6,1.8,10.3,5.8,13,11.1c3.3,2.5,5.9,5.8,7.6,9.5C737.5,286.1,718.6,307.8,697.7,301.1z"/>
<circle class="st5" cx="730" cy="257.6" r="10.6"/>
<path class="st5" d="M864.8,279.3c-4.6,20.7-18.2,38.2-37.1,47.7c-1.2,0.6-2.4,1.1-3.6,1.6c0.1-4.9-1.3-9.8-4.1-13.9
	c0.4,3.3,0.5,6.7,0.2,10c-0.2,1.9-0.5,3.8-0.9,5.7c-7.8,2.6-16.1,3.8-24.3,3.5c-0.5-3.7-1.8-7.2-3.9-10.2c0.4,3.3,0.5,6.7,0.2,10
	c-8.3-0.7-16.4-2.8-23.9-6.4c-3.9-1.9-7.8-4.2-10.3-7.7c-3.3-4.7-3.9-10.9-3.1-16.6c0.8-5.7,2.9-11.2,4.3-16.7
	c1.4-5.6,2.2-11.5,0.6-17.1c-1.7-5.5-6.4-10.4-12.1-10.9c-2.6-0.2-5.2,0.5-7.9,0.3c-2.6-0.2-5.5-2-5.5-4.6l2.5-4.1
	c1.1-7.1,4.7-14.2,10.9-17.9c6.2-3.6,15.2-2.9,19.6,2.8c3.8,4.8,3.6,11.4,4.8,17.4c2.9,13.8,13.9,24.9,26.8,30.8
	c12.8,5.8,27.3,7.1,41.4,6.8c4.8-0.1,9.8-0.3,14.4-1.9C858.3,286.6,862.6,283.6,864.8,279.3z"/>
<path class="st2" d="M624.3,343l-4.2-49.5c-0.3-3.5,2.3-6.6,5.9-6.9l10.8-0.9c3.5-0.3,6.6,2.3,6.9,5.9l4.2,49.5
	c0.3,3.5-2.3,6.6-5.9,6.9l-10.8,0.9C627.7,349.1,624.6,346.5,624.3,343z"/>
<path class="st3" d="M627.5,289c-1.9,0.2-3.3,1.8-3.2,3.7l4.2,49.5c0.2,1.9,1.8,3.3,3.7,3.2l10.8-0.9c1.9-0.2,3.3-1.8,3.2-3.7
	l-4.2-49.5c-0.2-1.9-1.8-3.3-3.7-3.2L627.5,289z"/>
<path class="st4" d="M645.7,360l10.5-4l-6.1-23.4l-1.1-11.6c-0.4-4.7-4.6-8.2-9.4-7.8c-1.5,0.1-2.9,0.7-4.1,1.5l0,0
	c-3.8,2.7-4.8,7.9-2.3,11.8l7.1,11L645.7,360z"/>
<path class="st6" d="M656.6,351.8l-14,5.3l7,32.7c1,4.8,4.5,8.7,9.1,10.3l0,0c5.7,2,12.1,0,15.8-4.9l31.4-43.4
	c4.6-6.2,3.4-15-2.7-19.7l0,0c-6.2-4.8-15.1-3.8-20,2.4c-0.3,0.4-0.6,0.8-0.9,1.3l-19.9,33.3L656.6,351.8z"/>
<path class="st11" d="M645.2,369.4l7.1,28.8l1.5,1.8c4,4.9,11.2,5.6,16.1,1.6c1-0.8,1.9-1.8,2.5-2.9l22.4-37.3l-20.2,28
	c-3.7,5.1-10.9,6.3-16,2.6c-1.4-1-2.5-2.3-3.4-3.8L645.2,369.4z"/>
</svg>
