<?xml version="1.0" encoding="utf-8"?>
<!-- Generator: Adobe Illustrator 27.7.0, SVG Export Plug-In . SVG Version: 6.00 Build 0)  -->
<svg version="1.1" id="Ebene_1" xmlns="http://www.w3.org/2000/svg" xmlns:xlink="http://www.w3.org/1999/xlink" x="0px" y="0px"
	 viewBox="0 0 723 474" style="enable-background:new 0 0 723 474;" xml:space="preserve">
<style type="text/css">
	.st0{fill:#CCCCCC;}
	.st1{fill:#3F3D56;}
	.st2{fill:#BB1C16;}
	.st3{fill:#FFB8B8;}
	.st4{fill:#2F2E41;}
	.st5{fill:#4E342E;}
	.st6{fill:#A0616A;}
</style>
<path class="st0" d="M358.6,62h-43c-5.2,0-9.5-4.3-9.5-9.5v-43c0-5.2,4.3-9.5,9.5-9.5h43c5.2,0,9.5,4.3,9.5,9.5v43
	C368.1,57.7,363.9,62,358.6,62z M315.6,2c-4.1,0-7.5,3.4-7.5,7.5v43c0,4.1,3.4,7.5,7.5,7.5h43c4.1,0,7.5-3.4,7.5-7.5v-43
	c0-4.1-3.4-7.5-7.5-7.5H315.6z"/>
<path class="st0" d="M350.1,50h-26c-1.7,0-3-1.3-3-3V15c0-1.7,1.3-3,3-3h18.8c0.7,0,1.3,0.2,1.9,0.7l7.2,5.8
	c0.7,0.6,1.1,1.4,1.1,2.3V47C353.1,48.7,351.8,50,350.1,50z M324.1,14c-0.6,0-1,0.4-1,1v32c0,0.6,0.4,1,1,1h26c0.6,0,1-0.4,1-1V20.8
	c0-0.3-0.1-0.6-0.4-0.8l-7.2-5.8c-0.2-0.1-0.4-0.2-0.6-0.2H324.1z"/>
<path class="st0" d="M345.1,26h-16c-0.6,0-1-0.4-1-1s0.4-1,1-1h16c0.6,0,1,0.4,1,1S345.7,26,345.1,26z"/>
<path class="st0" d="M345.1,32h-16c-0.6,0-1-0.4-1-1s0.4-1,1-1h16c0.6,0,1,0.4,1,1S345.7,32,345.1,32z"/>
<path class="st0" d="M345.1,38h-16c-0.6,0-1-0.4-1-1s0.4-1,1-1h16c0.6,0,1,0.4,1,1S345.7,38,345.1,38z"/>
<path class="st0" d="M460.6,62h-43c-5.2,0-9.5-4.3-9.5-9.5v-43c0-5.2,4.3-9.5,9.5-9.5h43c5.2,0,9.5,4.3,9.5,9.5v43
	C470.1,57.7,465.9,62,460.6,62z M417.6,2c-4.1,0-7.5,3.4-7.5,7.5v43c0,4.1,3.4,7.5,7.5,7.5h43c4.1,0,7.5-3.4,7.5-7.5v-43
	c0-4.1-3.4-7.5-7.5-7.5H417.6z"/>
<path class="st0" d="M453.1,42h-28c-1.7,0-3-1.3-3-3V23c0-1.7,1.3-3,3-3h28c1.7,0,3,1.3,3,3v16C456.1,40.7,454.8,42,453.1,42z
	 M425.1,22c-0.6,0-1,0.4-1,1v16c0,0.6,0.4,1,1,1h28c0.6,0,1-0.4,1-1V23c0-0.6-0.4-1-1-1H425.1z"/>
<path class="st0" d="M439.1,33.6c-0.6,0-1.1-0.2-1.6-0.5l-14.9-9.3c-0.5-0.3-0.6-0.9-0.3-1.4c0.3-0.5,0.9-0.6,1.4-0.3l14.9,9.3
	c0.3,0.2,0.7,0.2,1.1,0l14.9-9.3c0.5-0.3,1.1-0.1,1.4,0.3c0.3,0.5,0.1,1.1-0.3,1.4l-14.9,9.3C440.2,33.5,439.7,33.6,439.1,33.6z"/>
<path class="st0" d="M256.6,62h-43c-5.2,0-9.5-4.3-9.5-9.5v-43c0-5.2,4.3-9.5,9.5-9.5h43c5.2,0,9.5,4.3,9.5,9.5v43
	C266.1,57.7,261.9,62,256.6,62z M213.6,2c-4.1,0-7.5,3.4-7.5,7.5v43c0,4.1,3.4,7.5,7.5,7.5h43c4.1,0,7.5-3.4,7.5-7.5v-43
	c0-4.1-3.4-7.5-7.5-7.5H213.6z"/>
<path class="st0" d="M249.1,42h-28c-1.7,0-3-1.3-3-3V23c0-1.7,1.3-3,3-3h28c1.7,0,3,1.3,3,3v16C252.1,40.7,250.8,42,249.1,42z
	 M221.1,22c-0.6,0-1,0.4-1,1v16c0,0.6,0.4,1,1,1h28c0.6,0,1-0.4,1-1V23c0-0.6-0.4-1-1-1H221.1z"/>
<path class="st0" d="M244.7,42h-20.1c-1.1,0-2-0.9-2-2c0-0.4,0.1-0.7,0.3-1l6.1-10.5c0.6-1,1.8-1.3,2.7-0.7c0.3,0.2,0.6,0.4,0.7,0.7
	l3.9,6.8l2.3-3.9c0.6-1,1.8-1.3,2.7-0.7c0.3,0.2,0.6,0.4,0.7,0.7l4.4,7.6c0.6,1,0.2,2.2-0.7,2.7C245.4,41.9,245,42,244.7,42z
	 M244.7,40L244.7,40l-4.4-7.6l-3.1,5.4c-0.2,0.3-0.5,0.5-0.9,0.5l0,0c-0.4,0-0.7-0.2-0.9-0.5l-4.8-8.3L224.5,40H244.7z"/>
<circle class="st0" cx="246.1" cy="26" r="2"/>
<path class="st1" d="M228.6,156h-43c-5.2,0-9.5-4.3-9.5-9.5v-43c0-5.2,4.3-9.5,9.5-9.5h43c5.2,0,9.5,4.3,9.5,9.5v43
	C238.1,151.7,233.9,156,228.6,156z M185.6,96c-4.1,0-7.5,3.4-7.5,7.5v43c0,4.1,3.4,7.5,7.5,7.5h43c4.1,0,7.5-3.4,7.5-7.5v-43
	c0-4.1-3.4-7.5-7.5-7.5H185.6z"/>
<path class="st2" d="M221.1,138.5h-28c-1.7,0-3-1.3-3-3v-21c0-1.7,1.3-3,3-3h7.9c1,0,2,0.5,2.6,1.4l2.2,3.6h15.4c1.7,0,3,1.3,3,3v16
	C224.1,137.2,222.8,138.5,221.1,138.5z"/>
<circle class="st3" cx="101.2" cy="139.2" r="23.2"/>
<path class="st3" d="M92.8,276.3c-0.3,0-0.6,0-0.9,0c-5.7-0.5-10-5.5-9.5-11.2c0-0.4,0.1-0.8,0.2-1.2c0.1-0.3,0.2-0.7,0.3-1
	l-34.2-40.4c-2.3-2.7-2.5-6.6-0.6-9.6l0.1-0.1l30.8-30.4c3.5-3.5,9.1-3.4,12.6,0.1s3.4,9.1-0.1,12.6c0,0-0.1,0.1-0.1,0.1L69,216.4
	l24.4,39.2c0.5,0,0.9,0.1,1.4,0.2c5.6,1.1,9.3,6.6,8.1,12.2C102,272.8,97.7,276.3,92.8,276.3L92.8,276.3z"/>
<polygon class="st3" points="139.3,461.7 150.9,461.7 156.4,417.1 139.3,417.1 "/>
<path class="st4" d="M136.4,457.9l22.8,0h0c8,0,14.5,6.5,14.5,14.5c0,0,0,0,0,0v0.5l-37.3,0L136.4,457.9z"/>
<polygon class="st3" points="24.4,445.7 34.3,451.6 61.9,416.1 47.2,407.4 "/>
<path class="st4" d="M23.8,441l19.6,11.7l0,0c6.9,4.1,9.1,13,5,19.9c0,0,0,0,0,0l-0.2,0.4l-32-19.1L23.8,441z"/>
<path class="st4" d="M153.6,445.9h-13c-2.2,0-4-1.6-4.2-3.8l-13.1-122.7c-0.1-0.8-0.8-1.3-1.6-1.3c-0.5,0.1-0.9,0.4-1.1,0.8
	l-23.6,52.2l-41.7,68c-1.1,1.8-3.4,2.5-5.3,1.7l-16.7-7.3c-2.1-0.9-3.1-3.5-2.2-5.6c0.1-0.2,0.2-0.3,0.2-0.5l38.3-64.2l11.8-54.1
	c-3.7-23.5,12.2-58.3,12.3-58.7l0.1-0.2l43.7-17.1l0.2,0.3c17.2,56.5,27.7,117.3,20,208.6C157.7,444.2,155.8,445.9,153.6,445.9z"/>
<path class="st2" d="M92.2,256l-0.2-0.4c-0.1-0.2-9.8-20.7-17.3-42.6c-2.9-8.6-2.1-17.9,2.2-25.9c4.4-8,11.9-13.8,20.8-16l0,0
	c15.7-3.8,31.9,4.6,37.9,19.6c5.9,14.8,4,30.7,2.3,43.2l0,0.2l-0.2,0.1L92.2,256z"/>
<path class="st3" d="M188.2,138.1c0.1,0.3,0.3,0.5,0.4,0.8c2.3,5.2,0,11.4-5.3,13.7c-0.4,0.2-0.7,0.3-1.1,0.4
	c-0.3,0.1-0.7,0.2-1,0.2l-19.1,49.4c-1.3,3.3-4.6,5.4-8.2,5.1l-0.1,0l-41.4-12.5c-4.7-1.4-7.4-6.4-6-11.1c1.4-4.7,6.4-7.4,11.1-6
	c0.1,0,0.1,0,0.2,0l29.3,9.4l22.7-40.2c-0.2-0.4-0.4-0.8-0.5-1.3c-1.7-5.5,1.3-11.3,6.8-13C180.7,131.7,185.8,133.8,188.2,138.1
	L188.2,138.1z"/>
<path class="st1" d="M486.6,156h-43c-5.2,0-9.5-4.3-9.5-9.5v-43c0-5.2,4.3-9.5,9.5-9.5h43c5.2,0,9.5,4.3,9.5,9.5v43
	C496.1,151.7,491.9,156,486.6,156z M443.6,96c-4.1,0-7.5,3.4-7.5,7.5v43c0,4.1,3.4,7.5,7.5,7.5h43c4.1,0,7.5-3.4,7.5-7.5v-43
	c0-4.1-3.4-7.5-7.5-7.5H443.6z"/>
<path class="st2" d="M465.1,125.5c-5,0-9-4-9-9s4-9,9-9s9,4,9,9C474.1,121.5,470.1,125.5,465.1,125.5z"/>
<path class="st2" d="M474.1,142.5h-18c-2,0.1-3.8-1.5-3.9-3.5c0-6.3,5.8-11.5,12.9-11.5S478,132.7,478,139
	C477.9,141,476.1,142.6,474.1,142.5z"/>
<path class="st5" d="M129.3,126.1H92.5v-16c8.1-3.2,16-5.9,20.8,0C122.1,110.1,129.3,117.3,129.3,126.1L129.3,126.1z"/>
<path class="st5" d="M90.4,107.3c-32.2,3.2-28.2,67.6-28.2,83.1c0,8.7,3.9,11.8,10.1,12.8l2.2-11.6l5.1,12.1c1.7,0,3.6,0,5.4-0.1
	l1.7-3.6l3.9,3.5c15.4,0,26,2.2,27.9-13.2C126.8,123.6,112.9,105,90.4,107.3z"/>
<polygon class="st6" points="601.1,461.5 588.8,461.5 583,414.2 601.1,414.2 "/>
<path class="st4" d="M580,458h23.6l0,0v14.9l0,0h-38.5l0,0l0,0C565.2,464.7,571.8,458,580,458z"/>
<polygon class="st6" points="690.8,427.6 681.8,435.9 645.6,404.9 658.9,392.7 "/>
<path class="st4" d="M672.9,439.2l17.5-15.9l0,0l10,11l0,0l-28.5,26l0,0l0,0C666.4,454.2,666.8,444.7,672.9,439.2z"/>
<path class="st4" d="M589,450.7c-2.2,0-4.1-1.6-4.4-3.9L573.9,373c-0.5-3.7-0.6-7.4-0.2-11.1l10.4-89l66.5,5.6l-10,84.3l38,47.3
	c1.5,1.9,1.3,4.6-0.6,6.2l-9.6,8.3c-1.9,1.6-4.7,1.4-6.3-0.4c0,0,0,0,0,0l-36-42.1c-5.6-6.5-9.6-14.2-11.7-22.6l-5.1-20
	c-0.2-0.8-1-1.3-1.8-1.1c-0.5,0.1-0.9,0.5-1,1l-6.8,19.6l4.3,86.4c0.1,2.5-1.8,4.6-4.2,4.7l-10.4,0.6
	C589.2,450.7,589.1,450.7,589,450.7z"/>
<circle class="st6" cx="626" cy="128.1" r="24.6"/>
<path class="st6" d="M483.3,156.6c2.2,5.1,8.2,7.4,13.2,5.2c0.5-0.2,1.1-0.5,1.6-0.9l32.2,19.5l-2.5-16.5l-27.3-17.6
	c-3.4-4.4-9.8-5.3-14.2-1.8C482.7,147.4,481.4,152.4,483.3,156.6z"/>
<path class="st0" d="M624.8,289.9L624.8,289.9c-13,0-26.6-4-40.3-12c-2.1-1.2-3-3.8-2.2-6.1l12.8-34.4l-2.9-40.5
	c-1-13.8,5.9-26.9,17.5-33.3c8.5-4.7,18.6-5.3,27.6-1.6c9.6,4,16.8,12.3,19.6,22.3l4.1,14.3c5,17.4,4.4,36-1.6,53.1l-11.9,33.3
	l-0.3,0.2C647,285.1,638.9,289.9,624.8,289.9z"/>
<path class="st0" d="M500.3,168.1c-1.1-1.7-1.1-3.9,0.1-5.6l6.2-9c1.4-2.1,4.2-2.7,6.4-1.6l46.2,24l50.9-5.1
	c6.6-0.6,12.8,3.4,14.9,9.7c2.4,7.4-1.6,15.4-9.1,17.8c-1.4,0.4-2.8,0.7-4.2,0.7l-47.5,0.5c-5,0-9.9-1.2-14.3-3.6l-47.8-26.2
	C501.4,169.3,500.8,168.8,500.3,168.1z"/>
<path class="st6" d="M647.1,311.8c4.4-3.4,5.1-9.8,1.7-14.1c-0.4-0.5-0.8-0.9-1.2-1.3l12-33l-16.5,3.5l-10.2,30.8
	c-3.4,4.4-2.6,10.8,1.8,14.2C638.3,314.8,643.5,314.8,647.1,311.8z"/>
<path class="st0" d="M651.5,292.6c-0.6,0-1.2-0.1-1.7-0.3l-10.3-3.8c-2.4-0.9-3.7-3.4-3.2-5.8l11.6-50.7l-17.7-48
	c-2.3-6.2,0.1-13.2,5.6-16.8c6.6-4.2,15.3-2.3,19.5,4.3c0.8,1.2,1.4,2.5,1.7,3.9l12.4,45.8c1.3,4.8,1.3,9.9,0.1,14.8l-13.4,52.8
	C655.8,291.1,653.8,292.6,651.5,292.6L651.5,292.6L651.5,292.6z"/>
<path d="M627.6,145.4c1.2-5.2,1.9-8.1,3.1-13.2c0.8-3.5-1.7-7-4.8-8.6s-6.8-1.8-10.3-2.1s-7.2-1-9.9-3.2c-3.7-3-4.7-8.6-2.9-13.1
	c2-4.4,5.9-7.6,10.7-8.5c4.7-0.9,9.5-0.1,13.7,2.1c1.6-3.9,6.4-5.6,10.5-4.9s7.7,3.2,11,5.7c6.2,4.7,12.6,10.4,13.9,18.1
	c1.3,7.5-2.5,15-7.5,20.6c-6.9,7.6-16.2,12.6-26.3,14.3C627.6,150.3,627.1,147.8,627.6,145.4z"/>
<path class="st0" d="M722,474H530c-0.6,0-1-0.4-1-1s0.4-1,1-1h192c0.6,0,1,0.4,1,1S722.6,474,722,474z"/>
<path class="st0" d="M193,474H1c-0.6,0-1-0.4-1-1s0.4-1,1-1h192c0.6,0,1,0.4,1,1S193.6,474,193,474z"/>
</svg>
