<?xml version="1.0" encoding="utf-8"?>
<!-- Generator: Adobe Illustrator 27.7.0, SVG Export Plug-In . SVG Version: 6.00 Build 0)  -->
<svg version="1.1" id="Ebene_1" xmlns="http://www.w3.org/2000/svg" xmlns:xlink="http://www.w3.org/1999/xlink" x="0px" y="0px"
	 viewBox="0 0 872.7 590.2" style="enable-background:new 0 0 872.7 590.2;" xml:space="preserve">
<style type="text/css">
	.st0{fill:#F2F2F2;}
	.st1{fill:#E6E6E6;}
	.st2{fill:#FFFFFF;}
	.st3{fill:#FFB6B6;}
	.st4{fill:#3F3D56;}
	.st5{fill:#E4E4E4;}
	.st6{fill:#4E342E;stroke:#4E342E;stroke-miterlimit:10;}
	.st7{fill:#2F2E41;}
	.st8{fill:#4E342E;}
	.st9{fill:#BB1C16;}
	.st10{fill:#FFB8B8;}
	.st11{fill:#9E616A;}
</style>
<path class="st0" d="M58.7,444.7c-4.1,0-8.3,0.2-12.4,0.5l-0.6,0C18.9,447.7-0.8,461.5,0,477.4l0.2,2.9c0.1,1.8,0.2,3.8,0.3,5.9
	c0,1.1,1.5,1.9,3.3,1.9h661.6c46.6-0.3,93.1-0.6,138.1-1.1c8.4,0,16.9-0.4,25.3-1.3c12.5-1.5,21.2-4.4,26.5-9h0
	c6.7-5.7,6.9-12.8,6.5-20.8c-0.8-16.2-1.6-33.3-2.4-50.3c-0.7-15-1.4-29.9-2.1-44.2c-0.4-8.5-1.4-16-9-21.7
	c-8.2-6.2-23.1-9.3-44.4-9.3c-0.3,0-0.5,0-0.8,0c-66.7,0.2-132.8,23.2-164.4,57.1c-3.6,3.9-7,8.1-10.3,12.1
	c-4.9,6-9.9,12.1-15.9,17.7c-3.2,3-6.8,5.8-10.5,8.2c-0.3,0.2-0.6,0.4-0.9,0.5c-0.7,0.5-1.5,0.9-2.2,1.3c-4.2,2.5-8.7,4.5-13.4,6.1
	l-0.5,0.2c-0.4,0.1-0.7,0.3-1.1,0.4c-2.7,0.9-5.5,1.6-8.3,2.2c-12.1,2.7-25.8,3.3-40.8,1.9c-13.8-1.3-27.4-4.1-40.6-8.3
	c-13.9-4.4-26.9-9.9-39.5-15.2c-5.5-2.3-11.2-4.7-16.9-7c-1.1-0.4-2.1-0.8-3.2-1.3c-7-2.7-13.3-5-19.3-6.9
	c-14.9-4.7-30.4-7.6-46-8.5c-16.6-0.9-31.2,0.8-43.4,5.1c-3.4,1.2-6.7,2.6-9.8,4.2c-14.5,7.5-23.4,18.6-32.1,29.4
	c-10.7,13.4-21.9,27.2-43.8,34.3c-25.3,8.3-62.3,4.8-88.4-1.1c-8.2-1.9-16.4-4-24.4-6.1c-3.2-0.8-6.4-1.7-9.6-2.5
	c-6.3-1.6-11.5-2.9-16.3-3.9l-1.5-0.3c-0.8-0.2-1.7-0.4-2.5-0.5c-5.7-1.2-11-2.1-16.2-2.9l-1.2-0.2c-2.5-0.3-4.8-0.6-7-0.8l-0.9-0.1
	C67.9,444.9,63.3,444.7,58.7,444.7z"/>
<path class="st1" d="M742.9,462.5c18.6-16.8,46.3-25.2,69.5-15.8c-23.8,13.2-42.2,34.5-51.9,59.9c-3.7,9.8-6.8,21.2-15.9,26.4
	c-5.7,3.3-12.7,3.4-19,1.9c-6.3-1.6-12.2-4.8-17.9-7.9l-1.6,0C713.4,503,724.3,479.3,742.9,462.5z"/>
<path class="st2" d="M812.3,447.2c-20.6,2.7-39.8,11.7-54.9,25.9c-3.3,3-6.1,6.5-8.3,10.4c-2,3.8-3,8.2-2.8,12.5
	c0.1,4.1,0.7,8.2-0.2,12.2c-1,4.1-3.7,7.7-7.4,9.7c-4.5,2.6-9.8,3.4-14.9,4.1c-5.7,0.7-11.6,1.3-16.5,4.5c-0.6,0.4-1.2-0.6-0.6-0.9
	c8.6-5.6,19.4-3.5,28.6-7.2c4.3-1.7,8.1-4.8,9.5-9.4c1.2-4,0.6-8.3,0.5-12.4c-0.3-4.2,0.5-8.5,2.3-12.3c2-4,4.7-7.6,7.9-10.7
	c7.1-7,15.4-12.9,24.3-17.4c10.2-5.2,21.2-8.6,32.6-10.1C813,446,813,447.1,812.3,447.2L812.3,447.2z"/>
<path class="st2" d="M762,468.3c-4.2-5.9-3.5-14,1.6-19.1c0.5-0.5,1.3,0.3,0.8,0.8c-4.8,4.7-5.4,12.3-1.5,17.8
	C763.4,468.3,762.4,468.8,762,468.3L762,468.3z"/>
<path class="st2" d="M745.9,494c7.1,1.3,14.4-0.2,20.4-4.1c0.6-0.4,1.2,0.6,0.6,0.9c-6.3,4-13.9,5.5-21.2,4.2
	C744.9,494.9,745.2,493.8,745.9,494z"/>
<path class="st2" d="M790,452.4c1.1,2.6,3.5,4.4,6.3,4.9c0.7,0.1,0.4,1.2-0.3,1.1c-3.1-0.5-5.7-2.6-6.9-5.4
	c-0.1-0.3-0.1-0.6,0.2-0.8C789.5,452.1,789.8,452.2,790,452.4L790,452.4z"/>
<path class="st1" d="M838,527.6c-0.4-0.1-0.9-0.1-1.3-0.2c-5.9-0.8-11.9-1.1-17.9-0.9c-0.5,0-0.9,0-1.4,0
	c-14.4,0.6-28.5,3.9-41.8,9.6c-5.3,2.3-10.3,5-15.2,8.1c-6.7,4.2-13.6,9.4-21.1,11.1c-0.8,0.2-1.6,0.3-2.4,0.4L706.2,529
	c0-0.1-0.1-0.2-0.1-0.3l-1.3-1c0.2-0.2,0.5-0.4,0.7-0.5c0.1-0.1,0.3-0.2,0.4-0.3c0.1-0.1,0.2-0.1,0.3-0.2c0,0,0.1,0,0.1-0.1
	c0.1-0.1,0.2-0.1,0.2-0.2c1.4-1,2.8-2,4.2-3c0,0,0,0,0,0c10.8-7.5,22.4-13.8,34.6-18.6c0.4-0.1,0.7-0.3,1.1-0.4
	c5.5-2,11.2-3.6,16.9-4.8c3.2-0.6,6.3-1.1,9.6-1.3c8.3-0.7,16.6-0.1,24.7,1.8c16.1,3.7,30.9,12.6,39.7,26.4
	C837.6,526.9,837.8,527.2,838,527.6z"/>
<path class="st2" d="M837.6,527.9c-18-10.3-38.8-14.6-59.5-12.4c-4.4,0.4-8.8,1.5-12.9,3.3c-3.9,1.8-7.3,4.7-9.8,8.3
	c-2.4,3.3-4.4,7-7.5,9.6c-3.3,2.7-7.6,3.9-11.8,3.3c-5.2-0.7-9.9-3.1-14.3-5.7c-5-2.9-10.1-5.9-15.9-6.3c-0.7-0.1-0.6-1.1,0.1-1.1
	c10.2,0.7,17.6,8.9,27.2,11.5c4.5,1.2,9.3,1.1,13.2-1.8c3.4-2.5,5.5-6.3,7.8-9.6c2.4-3.5,5.5-6.4,9.3-8.5c4-2,8.3-3.2,12.7-3.7
	c9.9-1.3,20-1.1,29.9,0.7c11.3,2,22.1,5.9,32.1,11.6C838.9,527.4,838.2,528.3,837.6,527.9L837.6,527.9z"/>
<path class="st2" d="M784.8,514.5c0.2-7.3,5.6-13.3,12.8-14.3c0.7-0.1,0.9,1,0.2,1.1c-6.7,0.9-11.7,6.5-11.9,13.3
	C785.8,515.3,784.7,515.2,784.8,514.5L784.8,514.5z"/>
<path class="st2" d="M756.4,525.3c4.9,5.3,11.6,8.5,18.7,9c0.7,0.1,0.6,1.2-0.1,1.1c-7.4-0.6-14.4-3.9-19.5-9.4
	C755.1,525.5,756,524.8,756.4,525.3z"/>
<path class="st2" d="M816.7,518.7c-0.6,2.7,0.1,5.6,2.1,7.7c0.5,0.5-0.4,1.2-0.9,0.7c-2.1-2.3-3-5.5-2.3-8.5c0-0.3,0.3-0.5,0.6-0.5
	C816.5,518.1,816.7,518.4,816.7,518.7L816.7,518.7z"/>
<path class="st1" d="M255.5,479.2c15.2-23.1,42.5-39.8,70-36.2c-21.8,20.8-35.6,48.6-38.8,78.5c-1.2,11.6-1.4,24.5-9.6,32.7
	c-5.1,5.1-12.6,7.2-19.9,7.3c-7.2,0.1-14.3-1.7-21.3-3.5l-1.8,0.4C235.3,530.7,240.3,502.3,255.5,479.2z"/>
<path class="st2" d="M325.5,443.5c-21.3,8.6-39.3,23.6-51.5,43c-2.7,4.1-4.7,8.7-6,13.4c-1.1,4.7-1,9.6,0.5,14.2
	c1.2,4.3,3,8.6,3.2,13.1c0.1,4.7-1.8,9.2-5.2,12.4c-4.1,4.1-9.5,6.4-14.8,8.5c-5.9,2.3-12.1,4.7-16.4,9.4c-0.5,0.6-1.4-0.3-0.9-0.9
	c7.6-8.3,19.8-9.2,28.6-15.7c4.1-3,7.3-7.4,7.5-12.6c0.1-4.6-1.7-9-3-13.4c-1.4-4.5-1.8-9.2-1-13.8c1-4.8,2.9-9.4,5.5-13.6
	c5.7-9.5,12.8-18.1,21.2-25.4c9.5-8.4,20.3-15.1,32.1-19.8C325.9,442,326.2,443.2,325.5,443.5L325.5,443.5z"/>
<path class="st2" d="M277.6,480c-6.1-5.1-7.7-14-3.6-20.9c0.4-0.7,1.5-0.1,1.1,0.6c-3.8,6.4-2.4,14.7,3.4,19.4
	C279,479.7,278.2,480.5,277.6,480L277.6,480z"/>
<path class="st2" d="M267.5,512c7.9-0.6,15.3-4.2,20.7-10c0.5-0.6,1.4,0.3,0.9,0.9c-5.6,6.1-13.3,9.8-21.5,10.4
	C266.7,513.3,266.7,512.1,267.5,512L267.5,512z"/>
<path class="st2" d="M303.1,455.3c1.9,2.4,5,3.8,8.1,3.5c0.8-0.1,0.8,1.2,0,1.2c-3.4,0.3-6.8-1.2-8.9-3.8c-0.2-0.2-0.2-0.6,0-0.9
	C302.5,455.1,302.9,455.1,303.1,455.3L303.1,455.3z"/>
<path class="st1" d="M375.4,522.3c-0.5,0.1-1,0.1-1.5,0.2c-6.6,0.8-13,2.1-19.4,4c-0.5,0.1-1,0.3-1.5,0.4
	c-15.2,4.6-29.5,12.1-42,21.9c-5,3.9-9.6,8.2-14,12.8c-6,6.4-11.9,13.8-19.5,17.7c-0.8,0.4-1.6,0.8-2.4,1.1l-40.5-20
	c-0.1-0.1-0.1-0.2-0.2-0.3l-1.7-0.7c0.2-0.3,0.4-0.5,0.6-0.8c0.1-0.1,0.2-0.3,0.4-0.4c0.1-0.1,0.2-0.2,0.2-0.3c0,0,0.1-0.1,0.1-0.1
	c0.1-0.1,0.1-0.2,0.2-0.3c1.2-1.5,2.5-2.9,3.7-4.3c0,0,0,0,0,0c9.5-10.9,20.1-21.2,31.8-29.5c0.4-0.3,0.7-0.5,1.1-0.8
	c5.3-3.7,10.9-7,16.8-9.8c3.2-1.5,6.5-2.9,9.8-4.1c8.7-3.1,17.7-4.8,26.9-5c18.3-0.5,36.6,4.9,49.8,17.2
	C374.7,521.7,375,522,375.4,522.3z"/>
<path class="st2" d="M375,522.8c-22.1-6-45.6-4.8-67,3.3c-4.6,1.7-9,4.1-12.9,7.1c-3.7,3.1-6.5,7.1-8.2,11.6
	c-1.6,4.2-2.8,8.7-5.4,12.4c-2.7,3.8-7,6.3-11.7,6.8c-5.7,0.8-11.4-0.6-16.9-2.1c-6.1-1.7-12.4-3.5-18.8-2.4c-0.8,0.1-1-1.1-0.2-1.2
	c11.1-2.1,21.3,4.6,32.3,4.7c5.1,0,10.3-1.4,13.6-5.6c2.9-3.6,4.1-8.2,5.7-12.5c1.5-4.4,4.1-8.4,7.6-11.6c3.7-3.2,8-5.8,12.6-7.5
	c10.3-4.2,21.1-6.7,32.2-7.5c12.6-1,25.3,0.2,37.5,3.5C376.2,521.9,375.8,523,375,522.8L375,522.8z"/>
<path class="st2" d="M314.8,523.1c-1.8-7.8,2.3-15.8,9.7-18.8c0.7-0.3,1.2,0.8,0.5,1.1c-6.9,2.8-10.7,10.3-9,17.5
	C316.2,523.7,314.9,523.9,314.8,523.1L314.8,523.1z"/>
<path class="st2" d="M287.5,542.6c6.7,4.3,14.7,5.8,22.6,4.4c0.8-0.1,1,1.1,0.2,1.2c-8.1,1.5-16.5-0.2-23.5-4.7
	C286.1,543.1,286.8,542.2,287.5,542.6z"/>
<path class="st2" d="M350,518.7c0.1,3.1,1.7,6,4.3,7.6c0.7,0.4-0.1,1.4-0.7,1c-2.9-1.8-4.7-5-4.8-8.4c0-0.3,0.2-0.6,0.5-0.7
	C349.7,518.2,350,518.4,350,518.7z"/>
<path class="st3" d="M364,305.8c3.8-3.8,3.8-10,0-13.8c-0.4-0.4-0.8-0.8-1.3-1.1l15.9-77.1l-17.2,5.4l-12.8,74.6
	c-2.8,4.6-1.3,10.7,3.3,13.5C355.9,309.7,360.8,309,364,305.8L364,305.8z"/>
<path class="st1" d="M400.9,99.7l-10.6-8c0,0-9.4-0.7-11.1,16.3s-12.1,82-12.1,82l-16.3,75.5l22.6,5l17.5-81.4l17.5-56.2L400.9,99.7
	z"/>
<path class="st4" d="M392.8,239.4l-51.1-39.7c-1.7-1.3-2-3.7-0.7-5.3l34.8-44.7c1.3-1.7,3.7-2,5.3-0.7l51.1,39.7
	c1.7,1.3,2,3.7,0.7,5.3l-34.8,44.7C396.8,240.3,394.4,240.6,392.8,239.4z"/>
<path class="st2" d="M392.5,235.2l-46.7-36.3c-1.5-1.1-1.7-3.3-0.6-4.7l31.5-40.5c1.1-1.5,3.3-1.7,4.7-0.6l46.7,36.3
	c1.5,1.1,1.7,3.3,0.6,4.7l-31.5,40.5C396.1,236.1,393.9,236.4,392.5,235.2z"/>
<path class="st5" d="M351.9,197.9c-0.4-0.3-0.4-0.8-0.1-1.2l15.9-20.4c0.3-0.4,0.8-0.4,1.2-0.1c0.4,0.3,0.4,0.8,0.1,1.2l0,0
	L353,197.7C352.8,198.1,352.2,198.2,351.9,197.9z"/>
<path class="st5" d="M354.5,199.9c-0.4-0.3-0.4-0.8-0.1-1.2l15.9-20.4c0.3-0.4,0.8-0.4,1.2-0.1c0.4,0.3,0.4,0.8,0.1,1.2l-15.9,20.4
	C355.4,200.1,354.9,200.2,354.5,199.9z"/>
<path class="st5" d="M366.1,190.4c-0.4-0.3-0.4-0.8-0.1-1.2l6.9-8.9c0.3-0.4,0.8-0.4,1.2-0.1c0.4,0.3,0.4,0.8,0.1,1.2l0,0l-6.9,8.9
	C367,190.6,366.5,190.7,366.1,190.4z"/>
<path class="st5" d="M369.7,207.8c-0.4-0.3-0.4-0.8-0.1-1.2l25.1-32.3c0.3-0.4,0.8-0.4,1.2-0.1c0.4,0.3,0.4,0.8,0.1,1.2l0,0
	l-25.1,32.3C370.6,208,370,208.1,369.7,207.8z"/>
<path class="st5" d="M372.3,209.8c-0.4-0.3-0.4-0.8-0.1-1.2l25.1-32.3c0.3-0.4,0.8-0.4,1.2-0.1c0.4,0.3,0.4,0.8,0.1,1.2l-25.1,32.3
	C373.2,210,372.7,210.1,372.3,209.8z"/>
<path class="st5" d="M378.3,214.5c-0.4-0.3-0.4-0.8-0.1-1.2l25.1-32.3c0.3-0.4,0.8-0.4,1.2-0.1c0.4,0.3,0.4,0.8,0.1,1.2l-25.1,32.3
	C379.2,214.7,378.7,214.8,378.3,214.5z"/>
<path class="st5" d="M380.9,216.5c-0.4-0.3-0.4-0.8-0.1-1.2l25.1-32.3c0.3-0.4,0.8-0.4,1.2-0.1c0.4,0.3,0.4,0.8,0.1,1.2l-25.1,32.3
	C381.8,216.7,381.3,216.8,380.9,216.5z"/>
<path class="st5" d="M386.9,221.2c-0.4-0.3-0.4-0.8-0.1-1.2l25.1-32.3c0.3-0.4,0.8-0.4,1.2-0.1c0.4,0.3,0.4,0.8,0.1,1.2l0,0
	L388.1,221C387.8,221.4,387.3,221.5,386.9,221.2z"/>
<path class="st5" d="M389.5,223.2c-0.4-0.3-0.4-0.8-0.1-1.2l25.1-32.3c0.3-0.4,0.8-0.4,1.2-0.1c0.4,0.3,0.4,0.8,0.1,1.2l-25.1,32.3
	C390.4,223.4,389.9,223.5,389.5,223.2z"/>
<circle class="st2" cx="347.6" cy="260.3" r="0.3"/>
<path class="st6" d="M398.1,30.8c-1.2,9.3-3.2,18.3-6,26.9c-15.7,46.9,29,31.6,44.9,31.6c17.4,0,34.1,13,31.6-44.6
	C467.6,20,454.5,0,437.1,0C422.2,0,401.2,9.4,398.1,30.8z"/>
<polygon class="st3" points="453.3,508.1 438.5,508.1 431.4,450.8 453.3,450.8 "/>
<path class="st7" d="M461.2,533.8h-10.7l-1.9-10.1l-4.9,10.1h-28.3c-3.5,0-6.4-2.8-6.4-6.4c0-2.1,1-4,2.7-5.2l22.6-15.6v-10.2
	l23.7,1.4L461.2,533.8z"/>
<polygon class="st3" points="541.6,489.3 529.7,498.2 489.8,456.4 507.4,443.3 "/>
<path class="st7" d="M563.3,505.3l-8.6,6.4l-7.5-6.9l2.1,11l-22.7,16.9c-2.8,2.1-6.8,1.5-8.9-1.3c-1.2-1.7-1.6-3.9-0.9-5.8l8.8-26
	l-6.1-8.2l19.9-13L563.3,505.3z"/>
<polygon class="st3" points="404.7,244.3 475.2,233.3 461.2,191.1 404.7,191.1 "/>
<path class="st7" d="M470.6,212.4c0,0,28.2,24.4,15.2,93.8l-15.9,68l43.3,75.1l-22,12l-53.3-74.1L413.5,330l-12.9-100.3L470.6,212.4
	z"/>
<polygon class="st7" points="426.9,346.3 425.2,372.6 430.2,450.3 454.9,458.8 459.5,379.1 "/>
<path class="st1" d="M419.4,71.9l27.3,1.1l10.9,18l24.8,4.8l-14.8,74.9l2.7,42.6l-24.7-0.2c-17.8-0.1-35,6.4-48.3,18.2l0,0l0.7-55.3
	l-10.6-41.3l2.4-43.3l19.9-2.5L419.4,71.9z"/>
<circle class="st3" cx="434.5" cy="37.5" r="25.7"/>
<path class="st8" d="M417,11.3c13.9-8.5,31.9-4.1,40.4,9.8c2.9,4.8,4.4,10.3,4.3,15.9c-13.1,3.3-26.8,5.8-40.8,0.8l-3.3-8.1
	l-1.9,8.1c-4.2,1.7-8.5,3.2-12.8,0C402.6,27.1,408,17,417,11.3z"/>
<path class="st9" d="M477.5,265.1l3.5,31.4c0.5,1.6,2,2.7,3.7,2.7h15.9c1.7,0,3.2-1.1,3.7-2.7l2.9-24.1c2.9,1.4,6.4,0.2,7.8-2.7
	c1.4-2.9,0.2-6.4-2.7-7.8c-1.1-0.6-2.4-0.7-3.6-0.5c-0.7-0.9-1.8-1.3-2.9-1.3h-24.5c-2.1,0-3.8,1.7-3.8,3.8
	C477.4,264.3,477.4,264.7,477.5,265.1z M507.6,270.8l1.8-5.7c0.2-0.7,0.2-1.4,0.1-2c0.1,0,0.1,0,0.2,0c2.3,0,4.2,1.9,4.2,4.2
	c0,2.3-1.9,4.2-4.2,4.2c0,0,0,0,0,0C509,271.3,508.3,271.1,507.6,270.8z"/>
<path class="st3" d="M501.6,299.2c-3.8-3.8-3.8-10,0-13.8c0.4-0.4,0.8-0.8,1.3-1.1l-15.5-77.2l17.2,5.5l12.4,74.7
	c2.8,4.6,1.3,10.7-3.4,13.5C509.7,303.1,504.8,302.4,501.6,299.2z"/>
<path class="st1" d="M471.6,103.9l10.6-8c0,0,9.4-0.7,11.1,16.3s12.1,82,12.1,82l16.3,75.5l-22.6,5L481.7,193l-17.5-56.2
	L471.6,103.9z"/>
<circle class="st9" cx="379.7" cy="168.1" r="6"/>
<polygon class="st3" points="187.5,578 200.1,578 206.1,529.6 187.5,529.6 "/>
<path class="st7" d="M184.3,573.9l3.5,0l13.8-5.6l7.4,5.6h0c8.7,0,15.8,7.1,15.8,15.8v0.5l-40.5,0L184.3,573.9z"/>
<polygon class="st3" points="236.2,570.1 248.5,572.9 265,526.9 246.9,522.8 "/>
<path class="st7" d="M234,565.4l3.4,0.8l14.7-2.4l6,7.1l0,0c8.5,1.9,13.8,10.4,11.9,18.8l-0.1,0.5l-39.5-8.9L234,565.4z"/>
<path class="st7" d="M164.5,328.8L175.9,456c0,0-4.3,76.4,9.5,103.3h19.9l9.9-110.3l1.2-74l42.7,62.4l-27.2,120l24.5,2.2l44.1-130.3
	l-48.5-122.3L164.5,328.8z"/>
<circle class="st10" cx="176.4" cy="96.8" r="29.3"/>
<path class="st4" d="M227.9,154l-24-10.3l-11.7-12.4L163,136l-7.8,13.3l-25.1,23.3l29.4,133l-0.9,29c0,0,18.8,8.5,100.5-11
	c1-0.2-1.1-1.3-1.1-1.3L227.9,154z"/>
<path class="st7" d="M146,113.5c-0.2-0.3-0.4-0.6-0.6-0.8c-0.1,0.2-0.1,0.3-0.2,0.5L146,113.5z"/>
<path class="st7" d="M205.6,75.4c-2-4.3-5.4-7.6-9.8-9.4c-4.3-1.7-9.1-1.7-13.4,0c-3.9-2.4-8.2-4.4-12.7-4.6s-9.3,1.4-12.1,5.1
	c-0.6,1-1.3,1.9-2.1,2.7c-2.2,2.1-5.7,1.8-8.6,1.4c1.3,1.1,2.7,2.3,4,3.4c-1.6,0.4-3.2,0.8-4.9,1.3c1.9,1.1,3.8,2.3,5.7,3.4
	c-5.5,3.3-8,10.5-7.3,17c0.6,6.2,3.6,11.8,7.2,16.9c1.4-3,1.1-6.6,1.1-10c0-3.6,0.6-7.6,3.5-9.6c1.9-1.3,4.4-1.4,6.7-1.4
	c11.8,0.1,23.5,0.8,35.2,2.2c1.6,0.1,3.1,0.5,4.5,1.3c2.6,1.8,3.1,5.4,3.3,8.6c1.4-5.3,2-10.7,2-16.1
	C207.9,83.4,207.2,79.3,205.6,75.4z"/>
<circle class="st2" cx="214.7" cy="371.9" r="46.1"/>
<path class="st4" d="M214.7,324.8c-2.4,0-4.7,0.2-7.1,0.5c-1.2,0.2-2.4,0.4-3.5,0.7c-25.4,5.8-41.2,31.1-35.3,56.5
	c2.3,9.9,7.7,18.7,15.4,25.3c0.8,0.7,1.6,1.3,2.4,1.9c20.9,15.6,50.4,11.3,65.9-9.6s11.3-50.4-9.6-65.9
	C234.7,328,224.9,324.8,214.7,324.8L214.7,324.8z M214.7,417c-9.6,0-18.9-3.1-26.6-8.7c-0.8-0.6-1.6-1.2-2.4-1.9
	c-19-16-21.4-44.5-5.4-63.5c6.6-7.8,15.5-13.1,25.5-15.1c1.1-0.2,2.3-0.4,3.5-0.6c1.8-0.2,3.7-0.3,5.5-0.3
	c24.9,0,45.1,20.2,45.1,45.1S239.6,417,214.7,417L214.7,417L214.7,417z"/>
<path class="st9" d="M237.3,362.7h-45.2c-1.7,0-3-1.3-3-3v-0.1c0-1.7,1.3-3,3-3h45.2c1.7,0,3,1.3,3,3v0.1
	C240.3,361.3,239,362.7,237.3,362.7z"/>
<path class="st9" d="M237.3,375h-45.2c-1.7,0-3-1.3-3-3v-0.1c0-1.7,1.3-3,3-3h45.2c1.7,0,3,1.3,3,3v0.1
	C240.3,373.6,239,375,237.3,375z"/>
<path class="st9" d="M237.3,387.3h-45.2c-1.7,0-3-1.3-3-3v-0.1c0-1.7,1.3-3,3-3h45.2c1.7,0,3,1.3,3,3v0.1
	C240.3,385.9,239,387.3,237.3,387.3z"/>
<polygon class="st11" points="730.5,576.4 717.3,576.4 711.1,525.6 730.5,525.6 "/>
<polygon class="st11" points="668.2,576.4 655,576.4 648.8,525.6 668.2,525.6 "/>
<path class="st7" d="M668.7,590.2l-40.5,0v-0.5c0-8.7,7.1-15.8,15.8-15.8h0l7.4-5.6l13.8,5.6l3.5,0L668.7,590.2z"/>
<path class="st7" d="M732.7,590.2l-40.5,0v-0.5c0-8.7,7.1-15.8,15.8-15.8h0l7.4-5.6l13.8,5.6l3.5,0L732.7,590.2z"/>
<path class="st7" d="M655.3,275.8l-20,121.9l5.4,18.2l-7.1,12.9l10.5,113l-4.3,9.4l11.9,7.3h24.2l1.3-102.3l6-15v-8.3l12.2-62.4
	l2.2,87.3l3.5,15l-3,10.7l3.9,7.5l10.3,69.6h27.2l-2.1-16.2l0,0c4.9-2.5,7.5-7.9,6.3-13.2l-1.6-7.1l3.5-21l6.5-117l-1.8-94.4
	l-31.8-24.3L655.3,275.8z"/>
<circle id="ab6171fa-7d69-4734-b81c-8dff60f9761b" class="st11" cx="701.2" cy="94" r="25.2"/>
<path class="st11" d="M646,324.1c4.1-4.3,4-11.1-0.2-15.3c-0.5-0.4-1-0.8-1.5-1.2l9.8-37.1l-18.9,6.4l-6.4,34.3
	c-3,5.2-1.3,11.8,3.9,14.8C637.1,328.6,642.6,327.8,646,324.1L646,324.1z"/>
<path id="bc44dde2-a388-4b93-9ca4-c442728432a9-950" class="st1" d="M656.4,146l-4.1-0.8l-3.5,1.9c0,0-9.7,12.9-9.7,24.7
	s-11.8,125.7-11.8,125.7l21.5,9.7l17.2-89.2L656.4,146z"/>
<path id="bf427902-b9bf-4946-b5d7-5c1c7e04535e-951" class="st7" d="M723.3,75.5c0,0,6.6-12.6-7.9-13.8c0,0-12.4-11.2-25-2.1
	c0,0-6.9,0-10.6,7.8c0,0-5.4-2.1-6.6,3.4c0,0-4,11.5,0,21.8c4,10.3,5.3,11.5,5.3,11.5s-6.5-21.6,9.3-22.8c15.8-1.1,33.6-11,34.9,1.6
	s3.3,15.7,3.3,15.7S738.5,80.7,723.3,75.5z"/>
<path class="st2" d="M815.5,428.7c-1.9,0-3.7-0.7-5.2-2l-76.4-68c-3.2-2.9-3.5-7.8-0.6-11l48.9-55c2.9-3.2,7.8-3.5,11-0.6l76.4,68
	c3.2,2.9,3.5,7.8,0.6,11l-48.9,55c-1.4,1.5-3.3,2.5-5.4,2.6C815.8,428.7,815.6,428.7,815.5,428.7z"/>
<path class="st4" d="M815.5,429.2c-2,0-4-0.7-5.5-2.1l-76.4-68c-3.4-3-3.7-8.3-0.7-11.7l48.9-55c3-3.4,8.3-3.7,11.7-0.7l76.4,68
	c3.4,3,3.7,8.3,0.7,11.7l-48.9,55c-1.5,1.6-3.5,2.6-5.7,2.8C815.8,429.2,815.6,429.2,815.5,429.2z M788,291.7
	c-1.8,0-3.5,0.8-4.7,2.1l-48.9,55c-2.3,2.6-2.1,6.6,0.5,8.9l76.4,68c2.6,2.3,6.6,2.1,8.9-0.5c0,0,0,0,0,0l48.9-55
	c2.3-2.6,2.1-6.6-0.5-8.9l-76.4-68C791.1,292.2,789.6,291.7,788,291.7L788,291.7z"/>
<path class="st9" d="M843.2,376.6c-0.8,0-1.6-0.3-2.2-0.9l-60-53.4c-1.4-1.2-1.5-3.4-0.3-4.8s3.4-1.5,4.8-0.3c0,0,0,0,0,0l60,53.4
	c1.4,1.2,1.5,3.4,0.3,4.8C845.1,376.2,844.1,376.6,843.2,376.6z"/>
<path class="st9" d="M831.7,389.5c-0.8,0-1.6-0.3-2.2-0.9l-60-53.4c-1.4-1.2-1.5-3.4-0.3-4.8c1.2-1.4,3.4-1.5,4.8-0.3l0,0l60,53.4
	c1.4,1.2,1.5,3.4,0.3,4.8C833.6,389.1,832.7,389.5,831.7,389.5L831.7,389.5z"/>
<path class="st9" d="M820.3,402.3c-0.8,0-1.6-0.3-2.2-0.9l-60-53.4c-1.4-1.2-1.5-3.4-0.3-4.8s3.4-1.5,4.8-0.3l60,53.4
	c1.4,1.2,1.5,3.4,0.3,4.8C822.2,401.9,821.3,402.3,820.3,402.3L820.3,402.3z"/>
<path class="st11" d="M751.7,326.3c-2.9-5.2-1-11.8,4.2-14.7c0.6-0.3,1.1-0.6,1.7-0.8l0.1-38.4l16.6,11l-2.6,34.8
	c1.6,5.8-1.8,11.8-7.6,13.3C759.3,332.9,754.2,330.7,751.7,326.3z"/>
<path id="f348f81f-b961-4ae4-bc6b-758f6acfb12a-952" class="st1" d="M753.3,156.5l7.4-7.2l5.5,3.9c0,0,5.4,6.4,9.7,25.8
	s0,125.7,0,125.7l-23.6-3.2l3.2-55.9l-9.7-47.3L753.3,156.5z"/>
<path class="st4" d="M764.2,151.1l-25-12l-17-15.8l-31-0.2l-10,13l-26.4,9l4.4,91l-3,7c0,0,2.1,1.9,3,2.9s-1.3,9.9-1.3,9.9l-1.3,9.6
	l3.6,2.5l-4.6,5.5l-1.1,8.6c0,0,80.7-20.1,96,13.2c0.8,1.8-1.2-15.4-1.2-15.4l-2-12.6l2-11.3l3-3l-5-5l3.2-23.9L764.2,151.1z"/>
<path class="st10" d="M196.4,352.9c2.3-6-0.6-12.7-6.5-15c-0.6-0.3-1.3-0.4-2-0.6l-5.6-40.8l-16.1,14.1l7.8,36.6
	c-0.9,6.4,3.6,12.2,10,13.1C189.3,360.9,194.5,357.9,196.4,352.9z"/>
<path id="e1bf2fad-858c-4bea-9733-320cc40b59f5-953" class="st4" d="M133.2,171.9l-4.4,0.8l-2.6,3.3c0,0-4.3,16.8,0.6,28.5
	s40.1,129.5,40.1,129.5l25.3,0.7l-19.7-95.5L133.2,171.9z"/>
<path class="st10" d="M232.9,346.9c-4.4-4.7-4.2-12,0.5-16.4c0.5-0.5,1-0.9,1.6-1.3l-10.1-40l20.2,7.1l6.5,36.9
	c3.2,5.6,1.2,12.7-4.4,15.9C242.5,351.7,236.6,350.8,232.9,346.9z"/>
<path id="ff35f29e-9865-4218-824f-c5cf71e1b056-954" class="st4" d="M224.1,155.4l4.4-0.9l3.7,2.1c0,0,10.2,14,10.1,26.7
	s11.1,135.1,11.1,135.1l-23.2,10.1l-17.3-96L224.1,155.4z"/>
</svg>
