<?xml version="1.0" encoding="utf-8"?>
<!-- Generator: Adobe Illustrator 27.7.0, SVG Export Plug-In . SVG Version: 6.00 Build 0)  -->
<svg version="1.1" id="Ebene_1" xmlns="http://www.w3.org/2000/svg" xmlns:xlink="http://www.w3.org/1999/xlink" x="0px" y="0px"
	 viewBox="0 0 272.6 598.3" style="enable-background:new 0 0 272.6 598.3;" xml:space="preserve">
<style type="text/css">
	.st0{fill:#4E342E;}
	.st1{fill:#F2F2F2;}
	.st2{fill:#FFB6B6;}
	.st3{fill:#2F2E41;}
	.st4{fill:#BB1C16;}
	.st5{fill:#CCCCCC;}
	.st6{fill:#E6E6E6;}
	.st7{fill:#FFFFFF;}
	.st8{fill:#3F3D56;}
	.st9{fill-rule:evenodd;clip-rule:evenodd;fill:#FFFFFF;}
</style>
<path class="st0" d="M174.6,92.5l-38-37l3.9-18.6c1.6-16.8,20.7-28.1,18.3-33.2l26.8,10.8L174.6,92.5z"/>
<path class="st1" d="M54.3,581c-1.3,0.1-2.3-0.9-2.4-2.2c0-0.7,0.2-1.3,0.7-1.8l0.2-0.6c0,0,0-0.1-0.1-0.1c-1.3-3.1-4.9-4.5-8-3.2
	c-1.5,0.6-2.6,1.8-3.3,3.3c-1.8,4.4-4.2,8.9-4.8,13.5c-0.3,2.1-0.1,4.2,0.3,6.2c-4.3-9.4-6.6-19.7-6.6-30c0-2.6,0.1-5.2,0.4-7.8
	c0.2-2.1,0.6-4.2,1-6.3c2.3-11.3,7.3-22,14.5-31c3.5-1.9,6.3-4.8,8.1-8.4c0.6-1.3,1.1-2.6,1.3-4.1c-0.4,0.1-1.5-5.9-1.2-6.3
	c-0.5-0.8-1.5-1.2-2.1-2.1c-3-4-7.1-3.3-9.2,2.2c-4.6,2.3-4.6,6.1-1.8,9.8c1.8,2.3,2,5.5,3.6,8c-0.2,0.2-0.3,0.4-0.5,0.6
	c-3,3.8-5.5,7.9-7.7,12.2c0.5-4.8-0.1-9.7-1.8-14.2c-1.7-4.2-5-7.8-7.9-11.4c-2.1-2.7-6.1-3.2-8.8-1.1c-1.3,1-2.2,2.5-2.4,4.2
	c0,0.1,0,0.1,0,0.2c0.4,0.2,0.8,0.5,1.3,0.8c1.4,0.9,1.8,2.9,0.8,4.3c-0.5,0.7-1.2,1.2-2.1,1.3l-0.1,0c0.2,1.5,0.4,3.1,0.8,4.6
	c-3.7,14.3,4.3,19.5,15.7,19.8c0.3,0.1,0.5,0.3,0.7,0.4c-2.2,6.1-3.5,12.5-4,19c-0.3,3.8-0.3,7.7,0.1,11.5l0-0.1
	c-0.8-4.3-3.1-8.1-6.4-10.9c-4.9-4.1-11.9-5.6-17.3-8.8c-1.6-1.1-3.8-0.6-4.9,1.1c-0.5,0.7-0.6,1.5-0.5,2.4l0,0.1
	c0.8,0.3,1.6,0.7,2.3,1.1c0.4,0.2,0.8,0.5,1.3,0.8c1.4,0.9,1.8,2.9,0.8,4.3c-0.5,0.7-1.2,1.2-2.1,1.3l-0.1,0c0,0-0.1,0-0.1,0
	c1.4,3.2,3.3,6.2,5.6,8.8c2.3,12.5,12.3,13.7,22.9,10h0c1.2,5.1,2.9,10,5,14.7h18c0.1-0.2,0.1-0.4,0.2-0.6c-1.7,0.1-3.3,0-5-0.3
	c1.3-1.6,2.7-3.3,4-4.9c0,0,0.1-0.1,0.1-0.1c0.7-0.8,1.4-1.7,2-2.5l0,0C55.2,586,54.9,583.5,54.3,581L54.3,581z"/>
<polygon class="st2" points="199.7,522 196.8,542.2 196.8,542.2 195.9,548.9 194.3,559.7 194.3,559.7 193.7,564.2 192.7,571 
	184.2,570.8 181.6,570.7 180.3,570.7 180.4,564.7 180.7,549 181.3,521.7 181.4,521.7 184,521.7 194.2,521.9 196.7,522 "/>
<path class="st3" d="M219.6,591.6c-0.1,3.1-2.6,5.5-5.7,5.4l-4.1-0.1l-2.6-0.1l-10.2-0.2l-2.6-0.1l-5.3-0.1l-4.1-8.9l-0.8,3.8v0
	l-1,4.9l-1.5,0l-7.8-0.2l3.3-31.4l3.3-0.1l1.2-0.1l2.6-0.1l9.5-0.4h0l0.7,0l2.6-0.1l1.1,0l-0.2,8.9l9.4,6.8l2.6,1.8l7.5,5.4
	C218.7,588.1,219.6,589.8,219.6,591.6z"/>
<polygon class="st2" points="73.6,493.5 62.8,510.7 62.7,510.8 59.1,516.5 53.4,525.7 53.3,525.7 50.9,529.6 47.3,535.3 39.6,531.7 
	37.3,530.6 36,530 38.6,524.6 45.3,510.4 57,485.7 57.1,485.7 59.4,486.8 68.6,491.2 70.9,492.2 "/>
<path class="st3" d="M63.3,565.1c-1.3,2.8-4.6,4-7.4,2.7l-3.7-1.8l-2.3-1.1l-9.2-4.4l-2.3-1.1l-4.8-2.3l-0.1-9.8l-2.3,3.2l0,0
	l-3,4.1l-1.4-0.6l-7.1-3.4l15.8-27.3l3,1.2l1.1,0.4l2.4,0.9l8.8,3.6l0,0l0.6,0.2l2.4,0.9l1,0.4l-3.8,8l5.8,10l1.6,2.7l4.6,8
	C64,561.6,64.1,563.5,63.3,565.1z"/>
<path class="st2" d="M252.1,255.3l-24.9-40.7l13.3-12.7l22.7,46.9c5.4,0.9,9.1,6.1,8.2,11.5c-0.9,5.4-6.1,9.1-11.5,8.2
	c-5.4-0.9-9.1-6.1-8.2-11.5C251.8,256.4,251.9,255.8,252.1,255.3L252.1,255.3z"/>
<path class="st3" d="M174.8,126l11.3-11c0,0,9.8-3,18.9,12.7s29.1,58.4,29.1,58.4l7.5,7.1l1,2.4l6.5,6.1l-1.3,3l7.6,2.3L233,227.2
	L221.6,215l0-7.2l-5-2.1l-4.9-4.1l-1.8-6.7L174.8,126z"/>
<polygon class="st2" points="130.1,158 130.1,222.5 205.1,209 186.1,151 "/>
<path class="st3" d="M204.6,203.5l-81,10l-9,70l-8,115l-63,100l30,7l81-98l17-90.9l5,224.9l26,1l26-226
	C228.6,316.5,227.6,210.5,204.6,203.5z"/>
<path class="st4" d="M169.1,78l-32-9l-15,21l14.5,124.5c0,0,54-40,60-3l2.5-48.5c0,0,2.7-32-3.1-34.5S168.1,95,168.1,95L169.1,78z"
	/>
<path class="st3" d="M115.1,76l-11.5,11.5L88.1,201l38.9,38.9c0,0,42.1-74.9,12.1-136.9l-5.6-29L115.1,76z"/>
<polygon class="st3" points="168.1,91 211.1,131 225.1,243 191.1,235 194.1,152 164.1,98 "/>
<path class="st5" d="M255.8,597.1c0,0.7-0.5,1.2-1.2,1.2c0,0,0,0,0,0H1.3c-0.7,0-1.2-0.5-1.2-1.2s0.5-1.2,1.2-1.2h253.3
	C255.3,595.9,255.8,596.5,255.8,597.1C255.8,597.1,255.8,597.1,255.8,597.1z"/>
<path class="st4" d="M163.7,336H42.4c-6.3,0-11.4-5.1-11.4-11.4v-46.8c0-22.6,18.3-40.8,40.9-40.9h47.4c30.8,0,55.7,25,55.7,55.7
	v31.9C175,330.9,170,336,163.7,336z"/>
<path class="st4" d="M86.2,238.9l10.9-56.3l3.1-16.2c0.4-1.9-2.5-2.7-2.9-0.8L86.4,222l-3.1,16.2C82.9,240,85.8,240.8,86.2,238.9
	L86.2,238.9z"/>
<path class="st6" d="M236.6,83.8l-14.6,3.5l-2,0.5l-50.2,12c-3.6,0-6.5,2.9-6.5,6.5v66c0,3.6,2.9,6.5,6.5,6.5l32.4-7.8l2-0.5
	l32.4-7.8c3.6,0,6.5-2.9,6.5-6.5v-66C243.2,86.7,240.2,83.8,236.6,83.8z"/>
<path class="st7" d="M241.2,131.7v-40c0-3.3-2.7-6-6-6c0,0,0,0,0,0l-13.2,4l-2,0.6l-37.8,11.4c-9.4,0-17,7.6-17,17c0,0,0,0,0,0v52.1
	c0,3.3,2.7,6,6,6c0,0,0,0,0,0l31-7.9l2-0.5l27.3-6.9c8.9,0,10.9-4.2,10.9-10.8C242.5,145.5,241.2,138.8,241.2,131.7z"/>
<path class="st6" d="M204.2,125v45.6l-2,0.5V126h-37c-0.6,0-1-0.4-1-1s0.4-1,1-1h38C203.8,124,204.2,124.4,204.2,125
	C204.2,125,204.2,125,204.2,125z"/>
<path class="st6" d="M243.2,110.7v1.6c-0.2,0.1-0.4,0.2-0.6,0.2h-21.5c-0.6,0-1-0.4-1-1c0,0,0,0,0,0V87.7l2-0.5v23.3h20.5
	C242.8,110.5,243,110.6,243.2,110.7z"/>
<circle class="st4" cx="202.6" cy="124.5" r="6"/>
<circle class="st2" cx="158" cy="38.3" r="30.8"/>
<path class="st0" d="M195,39.3l-2.2,6.2l-3.5-0.7c0.3-2.2,0.1-4.4-0.4-6.6c-0.5,2-1.6,3.8-3.2,5.3l-10.9-4
	c-16.8-0.1-20.2,26-23.1,53.1l-31.2-24.4c0.1-1.6-0.1-3.3-0.6-4.9c-0.3,1.2-0.8,2.3-1.5,3.3l-3.8-2.9l2.9-35.3
	c1.4-16.9,16.2-29.5,33.1-28.1c2.1,0.2,4.2,0.6,6.2,1.2l19.4,8.9l6.4-0.7C193.7,13.6,199,28.2,195,39.3z"/>
<path class="st8" d="M120.8,236.5H73.4c-11.6,0-22.6,4.9-30.3,13.5c7.5-6.8,17.2-10.5,27.3-10.5h47.4c30.8,0,55.7,25,55.7,55.7v31.9
	c0,2.3-0.7,4.5-2,6.4c3.1-2.1,5-5.6,5-9.4v-31.9C176.5,261.5,151.6,236.6,120.8,236.5z"/>
<path class="st4" d="M100.4,89.2c3.1-2.7,8-1.5,10.8,1c3.5,3.2,4.9,7.9,6.1,12.3c2.7,10.7,4.2,21.7,4.5,32.7
	c0.4,11.1,0,22.2-0.6,33.2c-0.6,11.5-1.4,22.9-2,34.4l-2.4,39.2c-0.1,1.9,2.9,1.9,3,0c1.5-24.2,3-48.4,4.3-72.6
	c1.3-23,2-46.6-4.2-69c-1.4-5-3.5-10.4-7.9-13.5c-4-2.8-9.8-3.2-13.6,0.1C96.8,88.4,99,90.5,100.4,89.2L100.4,89.2z"/>
<path class="st2" d="M158.6,142.3l-42.7,30.8l8.1,18.6l43.1-38.1c5.9,1.4,11.8-2.3,13.2-8.2s-2.3-11.8-8.2-13.2s-11.8,2.3-13.2,8.2
	C158.7,141,158.6,141.7,158.6,142.3L158.6,142.3z"/>
<path class="st3" d="M102.5,88.4L102.5,88.4c0,0,11.2,1.9,12.4,21.9s0.9,57.7,0.9,57.7l10.6-8.3l10.7-3l7.6,18.9l-6,10l-6.9,3.3
	l-2.5-1.5l-3.9,5.3c-11.7,6.1-26.1,1.9-32.7-9.5l0,0l-3.9-4.5l-2.8-6.4l1.6-7.5L86.4,111C86.1,100.7,92.7,91.5,102.5,88.4z"/>
<path class="st8" d="M251.2,274.4l-20.9-8.1c-2.3-0.9-3.4-3.4-2.5-5.7l15.5-40c0.9-2.3,3.4-3.4,5.7-2.5l20.9,8.1
	c2.3,0.9,3.4,3.4,2.5,5.7l-15.5,40C256,274.1,253.5,275.3,251.2,274.4z"/>
<path class="st8" d="M268.3,242.5c-0.1,0-0.2,0-0.2,0.1l-2.2,5.6c0,0.1,0,0.2,0.1,0.2c0.1,0,0.2,0,0.2-0.1l2.2-5.6
	C268.4,242.6,268.3,242.5,268.3,242.5z"/>
<path class="st4" d="M272,231.7l-15.5,40c-0.8,2-2.9,3-4.9,2.4l0,0c0,0-0.1,0-0.1,0c-0.1,0-0.1,0-0.2-0.1c0,0-0.2-0.1-0.5-0.2
	c-0.3-0.2-0.8-0.4-1.5-0.7c-0.2-0.1-0.4-0.2-0.6-0.3c-0.4-0.2-0.9-0.4-1.4-0.7c-0.2-0.1-0.4-0.2-0.6-0.3c-1-0.5-2.2-1.1-3.4-1.7
	c-0.2-0.1-0.4-0.2-0.6-0.3c-0.1,0-0.1-0.1-0.2-0.1c-0.9-0.4-1.8-0.9-2.7-1.4l-0.2-0.1c-1.5-0.8-3.1-1.6-4.5-2.4
	c-1.1-0.6-2.1-1.2-3.1-1.8c-0.3-0.2-0.6-0.4-0.9-0.5c-0.1,0-0.1-0.1-0.2-0.1c-1.9-1.2-3.1-2.2-3-2.7l15.4-40
	c0.8-2.1,3.1-3.1,5.2-2.3c0,0,0,0,0,0l2.2,0.9c0.4,0.1,0.5,0.5,0.4,0.9c0,0,0,0,0,0.1c-0.1,0.4,0.2,0.8,0.5,0.9l13.6,5.3
	c0.4,0.1,0.8,0,1-0.3c0,0,0,0,0-0.1c0.2-0.3,0.6-0.5,0.9-0.4l2.2,0.9C271.7,227.4,272.7,229.7,272,231.7
	C272,231.7,272,231.7,272,231.7z"/>
<path class="st8" d="M240.6,227c-0.1,0-0.2,0-0.2,0.1l-0.5,1.4c0,0.1,0,0.2,0.1,0.2c0.1,0,0.2,0,0.2-0.1l0.5-1.4
	C240.8,227.2,240.7,227,240.6,227z"/>
<path class="st8" d="M239,231.2c-0.1,0-0.2,0-0.2,0.1l-1,2.7c0,0.1,0,0.2,0.1,0.2c0.1,0,0.2,0,0.2-0.1l1-2.7
	C239.2,231.3,239.1,231.2,239,231.2z"/>
<path class="st8" d="M237.5,235c-0.1,0-0.2,0-0.2,0.1l-1,2.7c0,0.1,0,0.2,0.1,0.2s0.2,0,0.2-0.1c0,0,0,0,0,0l1-2.7
	C237.7,235.2,237.6,235.1,237.5,235z"/>
<path class="st8" d="M247.5,218.7l3,1.1c0.1,0,0.2,0.2,0.1,0.3l0,0c0,0.1-0.2,0.2-0.3,0.1l-3-1.1c-0.1,0-0.2-0.2-0.1-0.3l0,0
	C247.3,218.7,247.4,218.7,247.5,218.7z"/>
<circle class="st8" cx="267.7" cy="226.6" r="0.4"/>
<circle class="st8" cx="268.7" cy="227" r="0.4"/>
<circle class="st8" cx="269.6" cy="227.4" r="0.4"/>
<path class="st9" d="M255.1,241.5c-0.6,1.6-2.3,2.5-3.9,2.2l-3.9,10.1c-0.1,0.4-0.6,0.6-0.9,0.4c-0.4-0.1-0.6-0.6-0.4-0.9l0,0
	l3.9-10.1c-1.7-1.1-2.1-3.3-1.1-4.9c1.1-1.7,3.3-2.1,4.9-1.1C255.1,238.1,255.7,239.9,255.1,241.5z"/>
<path class="st4" d="M214.2,108c-0.7,1.8-2.6,2.9-4.5,2.6l-4.5,11.6c-0.2,0.4-0.6,0.6-1.1,0.5c-0.4-0.2-0.6-0.6-0.5-1.1c0,0,0,0,0,0
	l4.5-11.6c-1.9-1.2-2.5-3.8-1.2-5.7c1.2-1.9,3.8-2.5,5.7-1.2C214.3,104,214.9,106.1,214.2,108z"/>
</svg>
