<?xml version="1.0" encoding="utf-8"?>
<!-- Generator: Adobe Illustrator 27.7.0, SVG Export Plug-In . SVG Version: 6.00 Build 0)  -->
<svg version="1.1" id="Ebene_1" xmlns="http://www.w3.org/2000/svg" xmlns:xlink="http://www.w3.org/1999/xlink" x="0px" y="0px"
	 viewBox="0 0 994.4 678.1" style="enable-background:new 0 0 994.4 678.1;" xml:space="preserve">
<style type="text/css">
	.st0{fill:#E6E6E6;}
	.st1{fill:#3F3D56;}
	.st2{fill:#BB1C16;}
	.st3{fill:none;stroke:#3F3D56;stroke-miterlimit:10;}
	.st4{fill:#FFB6B6;}
	.st5{fill:#2F2E41;}
	.st6{fill:#4E342E;}
	.st7{fill:#FFB8B8;}
	.st8{fill:#D0CDE1;}
	.st9{opacity:0.2;enable-background:new    ;}
</style>
<ellipse transform="matrix(1 -1.605003e-03 1.605003e-03 1 -1.0037 0.2895)" class="st0" cx="179.9" cy="625.5" rx="179.9" ry="11.7"/>
<ellipse transform="matrix(1 -1.605002e-03 1.605002e-03 1 -0.7614 0.8999)" class="st0" cx="560.3" cy="474.8" rx="141.2" ry="9.2"/>
<ellipse transform="matrix(1 -1.605002e-03 1.605002e-03 1 -0.9802 1.3104)" class="st0" cx="816" cy="611.4" rx="178.4" ry="31.5"/>
<path class="st1" d="M206.6,307.2l20.3-5.6c0,0,7.9-1.6,3.1-17.1s-14.5-11.2-14.5-11.2l-18,5.2l-7.1,2.2l10,14l0.8,9.3L206.6,307.2z
	"/>
<polygon class="st1" points="167.4,266.3 161.1,291.7 193.6,323.2 196.4,323.9 203.9,321.8 210.2,296.4 203.8,289.7 210.4,287.9 
	196.3,274.3 189,275.8 183.1,270 187.1,268.4 187.5,266.9 182.7,263.2 "/>
<polygon class="st2" points="197.9,302.1 193.7,318.9 174.3,300.5 179.2,283.5 "/>
<polygon class="st3" points="167.4,266.3 166.5,269.8 198.9,301.3 201.7,302 208.9,300.1 209.3,300.1 210.2,296.4 203.8,289.7 
	210.4,287.9 196.3,274.3 189,275.8 183.1,270 187.1,268.4 187.5,266.9 182.7,263.2 "/>
<ellipse transform="matrix(0.2429 -0.9701 0.9701 0.2429 -119.9105 378.2713)" class="st2" cx="182.4" cy="266" rx="1.8" ry="2.7"/>
<ellipse transform="matrix(0.2429 -0.9701 0.9701 0.2429 -130.6887 418.7896)" class="st2" cx="202.9" cy="293.1" rx="1.8" ry="2.7"/>
<path class="st4" d="M220,338.8l-4.4-15c0,0,11.5-27.4-1.8-30s-14.1,25.6-14.1,25.6l5.3,16.8L220,338.8z"/>
<circle class="st4" cx="138" cy="274.5" r="35.1"/>
<path class="st4" d="M149.4,299.3c0,0,2.1,25.8,7.2,27.9c5.2,2.1-46.1,16.5-46.1,16.5l15.5-17.5c0,0-6.5-26.8-13.7-33L149.4,299.3z"
	/>
<path class="st2" d="M198.8,330.9l14.1-1.8c0,0,16.8,8.8,16.8,20.3s9.7,30,9.7,30s7.1,24.7-8.8,26.5s-30-26.5-30-26.5L198.8,330.9z"
	/>
<path class="st5" d="M206.8,471.3l28.5-19.6c9.2-6.5,21.4-6.7,30.9-0.6c3.9,2.6,6.9,6.1,6.9,10.5c0,13.2-29.1,44.2-29.1,44.2
	s-22.1,48.6-43.3,50.3c-13.9,1.3-27.8,3.3-41.5,6.2c0,0,9.7,35.3,4.4,45s-25.6,21.2-27.4,20.3s-26.5-23.8-37.1-56.5
	S81.3,513.7,91,512C100.8,510.2,206.8,471.3,206.8,471.3z"/>
<path class="st5" d="M270.4,459c0,0,6.2-0.9,5.3,14.1s-3.5,68.9-8,79.5s-5.3,23-3.5,27.4s5.3,11.5-0.9,12.4s-31.8-2.7-34.4-3.5
	s10.6-35.3,8.8-37.1s-3.5-43.3-3.5-43.3L270.4,459z"/>
<path class="st5" d="M261.5,589.7c0,0,15-4.4,16.8,5.3c0,0,2.6,15-8.8,20.3c-7.4,3.5-14.5,7.6-21.2,12.4c0,0-18.5,7.1-19.4-1.8
	s3.5-40.6,3.5-40.6L261.5,589.7z"/>
<path class="st5" d="M161.7,600.3l-28.3-23c0,0,5.3,28.3-1.8,33.6l-3.2,9.4l9,7.4C137.5,627.7,165.2,623.3,161.7,600.3z"/>
<path class="st5" d="M122,561.4c0,0,18.6,5.3,15.9,23.8s-6,38.7-6,38.7s-1,49.6-14.3,53.2s-16.8-3.5-16.8-3.5s-15.1-38.8-10.6-50.3
	c5.4-14,13.2-29.7,10.6-34.4C98.2,584.2,102.5,558.8,122,561.4z"/>
<path class="st2" d="M111.4,317.6c0,0,7.1,0.9,18.6,2.6s19.4-7.1,25.6-5.3s57.4,14.1,57.4,14.1l-4.4,34c-1.5,11.1-5.1,21.8-9.7,32
	c-7.5,16.5,3.6,68.2,14.1,78c9.2,8.5,21.2,10.6,8,25.6c-13.2,15-36.2,28.3-83,23.9s-53-3.5-53-10.6c0-7.1,16.7-99.8,11.4-105.1
	s-7.9-10.6-7.9-13.2c0-1.8-5.5-21.7-9.2-34.7c-2.7-9.2-1.7-19.1,2.8-27.5c1.7-3.1,3.6-5.5,5.5-5.8c6.2-0.9,1.9-5.3,6.3-5.3
	s7.1,0.9,9.7,0L111.4,317.6z"/>
<path class="st6" d="M179.1,250.9c0,0-0.8-43.4-43.4-22.8c0,0-32.7-1.2-37.3,40.2L94,371.6l4.7-3.6l3.2,4.9l8.7,0.9l2.5-7.6l3,8.4
	l69.4-3.3c0,0-33.3-73.6-38.6-106l6.7,5.3L179.1,250.9z"/>
<circle class="st6" cx="99.1" cy="233.9" r="17.4"/>
<path class="st6" d="M116.2,227c-1.9-9-10.5-14.9-19.6-13.6c0.3-0.1,0.7-0.2,1.1-0.3c9.4-2,18.6,4,20.6,13.4c2,9.4-4,18.6-13.4,20.6
	c-0.4,0.1-0.7,0.1-1.1,0.2C112.7,244.9,118.1,236,116.2,227z"/>
<circle class="st5" cx="541.8" cy="76.5" r="28.7"/>
<path class="st7" d="M556.9,95.6c0,0-0.4,17.7,1.3,18.1s-23.7,7.3-23.7,7.3l-2.6-24.2L556.9,95.6z"/>
<path class="st7" d="M355.7,246.6c0,0-19,0-19.4-2.2s-4.3,17.7-4.3,17.7l7.8,2.6c0,0,14.7-6.5,16-6.5S355.7,246.6,355.7,246.6z"/>
<path class="st5" d="M335,254.4c0,0,3.5-11.7,7.8-12.1c0,0-14.7-9.5-15.1-12.5s-5.6-10.8-7.8-8.2s-2.2,43.6,1.7,47.9
	s21.2-6.1,21.2-6.1S332,258.7,335,254.4z"/>
<polygon class="st7" points="569.4,419.8 572.9,438.3 556.9,440.9 556.9,419.8 "/>
<path class="st5" d="M569.4,436.2c0,0,2.6-8.2,4.3-6.9c1.7,1.3,4.3,9.5,3.9,11.7c-0.4,2.2-3.5,19-2.2,22c1.3,3-6.5,18.6-16.4,17.3
	s-9.1-9.9-9.1-9.9l3.5-13.4l1.3-21.2C554.8,435.7,566,434,569.4,436.2z"/>
<circle class="st5" cx="551.8" cy="46.3" r="11.9"/>
<path class="st5" d="M567.7,39.9c0-6.1-4.6-11.2-10.6-11.8c0.4,0,0.8-0.1,1.2-0.1c6.6,0,11.9,5.3,11.9,11.9
	c0,6.5-5.3,11.8-11.9,11.9c-0.4,0-0.8,0-1.2-0.1C563.1,51,567.7,45.9,567.7,39.9z"/>
<circle class="st7" cx="541.8" cy="89.5" r="18.1"/>
<path class="st5" d="M577.6,215.6c0,0-0.9,21.6-4.3,32.8s-15.9,91.2-13.3,97.2c2.6,6,15.9,72.9,12.9,76.8c-3,3.9-17.3,2.6-17.3,2.6
	l-19.4-81.1c0,0,3.8-89.4-28.1-91.6s-84.2-3.5-84.2-3.5s-33.7,9.9-48.8,9.5s-23.7,3.9-23.7,3.9l-2.6-17.7l66.9-14.7
	c0,0,61.3-21.2,95-15.5S577.6,215.6,577.6,215.6z"/>
<path class="st8" d="M553.5,108.1c0,0,5.2-3,6.5,0s10.4,5.6,13.8,3c3.5-2.6,12.1,0.9,12.1,0.9l9.5,28.1c0,0-4.7,24.2-9.1,37.6
	c-4.3,13.4-6,41-4.3,43.6s-34.5,13-52.2,6.5c-17.7-6.5-21.6-13.8-21.6-13.8s19.4-27.6,13-40.6c-6.5-13-1.3-27.6-1.3-27.6l-2.6-14.7
	l14.7-8.2c0,0,0.9-7.8,4.3-7.8S553.5,108.1,553.5,108.1z"/>
<path class="st8" d="M523.7,131.4h-6.5c-3.7,3.4-5.3,8.5-4.3,13.4c1.7,8.2,9.5,35.4,9.5,35.4l6.5-16.8L523.7,131.4z"/>
<path class="st7" d="M505.1,200.7c0,0-12.9,14-3.4,21.3s11.8-16.8,11.8-16.8L505.1,200.7z"/>
<path class="st8" d="M523.7,171.5l-3,12.1l-5.2,9.5c0,0-17.7,11.7-17.7,16c0,0,7.8-9.9,17.7,0l8.8-21.4L523.7,171.5z"/>
<ellipse class="st5" cx="538.5" cy="70.4" rx="19.8" ry="11.9"/>
<path class="st7" d="M577.6,71.4c0,0-13.8-7.8-19.4-2.2c-5.6,5.6,16.8,14.2,16.8,14.2L577.6,71.4z"/>
<path class="st8" d="M582.8,114.1l3-2.2c0,0,3.5-5.2,6.5-3.5S613,102,613,102s-6.5,3-6.5-2.2s-0.9-4.3-5.2-4.3s-4.3,2.2-6-0.9
	s-0.9-4.7-3.9-3s-6.5,0.4-7.3-0.9s-16.4-3.5-16.4-3.5s6-17.7,7.3-19s34.5,13.4,34.5,13.4s41.9,11.7,31.1,25
	c-10.8,13.4-49.6,33.7-49.6,33.7L582.8,114.1z"/>
<path class="st2" d="M663.6,0l77.9,0.5c0,0,128.2,68.2,38.2,209.5c0,0-36.8-8.7-77.4,21.3C702.3,231.2,678.6,5.3,663.6,0z"/>
<path class="st9" d="M686.8,0.7c14,58.3,29.7,208.6,29.7,208.6c36.3-26.8,69.5-22.7,76.2-21.5c-3.9,7.8-8.3,15.4-13,22.7
	c0,0-36.8-8.7-77.4,21.3c0,0-23.7-225.9-38.7-231.2L686.8,0.7z"/>
<polygon class="st1" points="780.2,73 787,105.9 872.1,90.5 872.1,90.5 874,51.8 857.6,51.8 "/>
<polygon class="st9" points="859,51.8 872.1,90.5 872.1,90.5 874,51.8 "/>
<ellipse class="st1" cx="783.1" cy="87.6" rx="9.7" ry="22.3"/>
<path class="st1" d="M833.4,557.8c-1.6,0-3-1.3-3-3v0V87.6c0-1.6,1.3-3,3-3s3,1.3,3,3v467.3C836.4,556.5,835,557.8,833.4,557.8
	L833.4,557.8L833.4,557.8z"/>
<path class="st1" d="M792.8,640c-1.6,0-3-1.3-3-3c0-0.2,0-0.4,0.1-0.6L827.6,443l-99.1,151.2c-0.9,1.4-2.7,1.8-4.1,0.9
	s-1.8-2.7-0.9-4.1c0,0,0,0,0,0l0,0l107.4-163.8c0.9-1.4,2.7-1.7,4.1-0.9c1,0.7,1.5,1.9,1.3,3l-40.6,208.3
	C795.4,639,794.2,640,792.8,640z"/>
<path class="st1" d="M945.6,603.3c-1,0-1.9-0.5-2.5-1.3L830.9,430.7c-0.9-1.4-0.5-3.2,0.8-4.1c1.4-0.9,3.2-0.5,4.1,0.8c0,0,0,0,0,0
	l0,0l112.2,171.2c0.9,1.4,0.5,3.2-0.9,4.1C946.8,603.1,946.2,603.3,945.6,603.3z"/>
</svg>
