<?xml version="1.0" encoding="utf-8"?>
<!-- Generator: Adobe Illustrator 27.7.0, SVG Export Plug-In . SVG Version: 6.00 Build 0)  -->
<svg version="1.1" id="Ebene_1" xmlns="http://www.w3.org/2000/svg" xmlns:xlink="http://www.w3.org/1999/xlink" x="0px" y="0px"
	 viewBox="0 0 389.7 551.5" style="enable-background:new 0 0 389.7 551.5;" xml:space="preserve">
<style type="text/css">
	.st0{fill:#CCCCCC;}
	.st1{opacity:0.5;fill:#CCCCCC;enable-background:new    ;}
	.st2{fill:#F2F2F2;}
	.st3{opacity:0.2;enable-background:new    ;}
	.st4{fill:#FFFFFF;}
	.st5{fill:#4E342E;}
	.st6{fill:#FFB6B6;}
	.st7{fill:#2F2E41;}
	.st8{fill:#E6E6E6;}
	.st9{fill:#BB1C16;}
	.st10{fill:#3F3D56;}
	.st11{fill:#FF6584;}
</style>
<path class="st0" d="M0,550.3c0,0.7,0.5,1.2,1.2,1.2c0,0,0,0,0,0h387.3c0.7,0,1.2-0.5,1.2-1.2s-0.5-1.2-1.2-1.2H1.2
	C0.5,549.1,0,549.7,0,550.3C0,550.3,0,550.3,0,550.3L0,550.3z"/>
<path class="st1" d="M154.8,387.4c4.2-0.9,8.5-1.1,12.8-0.7c0.8,0,1.5-0.7,1.5-1.5c0-0.8-0.7-1.5-1.5-1.5c-4.6-0.4-9.1-0.1-13.6,0.8
	c-0.8,0.2-1.3,1-1,1.8C153.2,387.1,154,387.6,154.8,387.4L154.8,387.4z"/>
<path class="st2" d="M51.8,361.3c-8.2-11-13-23.2-13.2-37.2c-0.6-1.6,0.3-3.3,1.8-3.8l28.1-9.9c1.6-0.6,3.3,0.3,3.8,1.8l13.2,37.2
	c0.6,1.6-0.3,3.3-1.8,3.8l-28.1,9.9C54.1,363.7,52.4,362.8,51.8,361.3z"/>
<path class="st3" d="M58.1,360.6c-1.6,0.6-3.3-0.3-3.8-1.8c-8.2-11-13-23.2-13.2-37.2c-0.2-0.5-0.2-1-0.1-1.5l-0.6,0.2
	c-1.6,0.6-2.4,2.3-1.8,3.8c0.2,14,4.9,26.3,13.2,37.2c0.6,1.6,2.3,2.4,3.8,1.8l28.1-9.9c1-0.4,1.8-1.2,1.9-2.3L58.1,360.6z"/>
<path class="st4" d="M71.3,332.7l-18.8,6.7c-0.6,0.2-1.3-0.1-1.5-0.7c-0.2-0.6,0.1-1.3,0.7-1.5l18.8-6.7c0.6-0.2,1.3,0.1,1.5,0.7
	C72.3,331.8,71.9,332.5,71.3,332.7L71.3,332.7z"/>
<path class="st4" d="M54.4,331.8l-4.1,1.5c-0.6,0.2-1.3-0.1-1.5-0.7c-0.2-0.6,0.1-1.3,0.7-1.5c0,0,0,0,0,0l0,0l4.1-1.5
	c0.6-0.2,1.3,0.1,1.5,0.7C55.4,330.9,55,331.6,54.4,331.8z"/>
<path class="st4" d="M74.9,342.7L56,349.4c-0.6,0.2-1.3-0.1-1.5-0.7c-0.2-0.6,0.1-1.3,0.7-1.5l18.8-6.7c0.6-0.2,1.3,0.1,1.5,0.7
	C75.8,341.8,75.5,342.4,74.9,342.7L74.9,342.7z"/>
<path class="st4" d="M73.1,337.7l-18.8,6.7c-0.6,0.2-1.3-0.1-1.5-0.7c-0.2-0.6,0.1-1.3,0.7-1.5l0,0l0,0l18.8-6.7
	c0.6-0.2,1.3,0.1,1.5,0.7C74,336.8,73.7,337.5,73.1,337.7L73.1,337.7z"/>
<circle class="st0" cx="53.8" cy="315.6" r="5"/>
<path class="st5" d="M236.8,99.6c0.1,7.3,2.4,22.6,0.7,29.7l-0.3-0.6c-1.4,1.1-2.9,2.1-4.4,3c-1.1-2.7-2.8-5.2-4.9-7.2
	c0.3,3.4-0.1,6.8-1.2,10c-6.2,2.2-17.2-4.8-24-5c-10.9-0.2-21.6-3-32-5.9c-3.7-1-7.8-2.4-9.5-5.4s1.3-6.4,1.1-9.9
	c-1.4-24.8,10.4-28.9,21.6-35.5c2.5-1.5,3.7-4.6,6.5-5.8c3.9-1.7,8.5-0.9,12.7,0c-2.1-0.7-3.7-2.5-4.2-4.6c-0.4-2.1,0.5-4.3,2.3-5.6
	c2.3-1.8,5.8-2,8.7-1.2c2.9,0.9,5.6,2.2,8,3.9c1.7,0.9,3.2,2.1,4.4,3.6c1.2,1.4,1.4,3.4,0.5,5c-1.1,1.4-2.7,2.2-4.5,2.2
	c-1.3,0-2.7-0.1-3.9-0.4c5.9,1.5,11.2,4.7,15.3,9.2C234.7,84.8,236.7,92.3,236.8,99.6z"/>
<path class="st6" d="M62,170.2c2.1,4.5,7.4,6.5,12,4.5c0.4-0.2,0.9-0.4,1.3-0.7l25.7,18.9l14.2-9.7l-38.1-22.1
	c-2.6-3.2-7-4.3-10.8-2.7c-4.4,2-6.4,7.2-4.4,11.6c0,0,0,0,0,0l0,0C61.9,170,61.9,170.1,62,170.2z"/>
<path class="st6" d="M327.4,153c-4.9,0.6-8.5,5-8,10c0.1,0.5,0.1,1,0.3,1.4l-26,18.6l4.8,16.5l32.8-29.3c3.9-1.4,6.3-5.3,5.9-9.5
	c-0.5-4.8-4.8-8.3-9.6-7.8l0,0C327.5,153,327.4,153,327.4,153z"/>
<polygon class="st6" points="138.9,533.9 130.5,533.8 126.8,500.8 139.2,500.9 "/>
<path class="st7" d="M112.1,547.2c0,2.1,1.6,3.8,3.7,3.8l16.6,0.1l2.9-5.9l1.1,5.9l6.3,0.1l-1.6-21.2l-2.2-0.1l-8.9-0.6l-2.9-0.2
	l-0.1,6l-13.4,9.1C112.7,544.8,112.1,546,112.1,547.2z"/>
<polygon class="st6" points="249.2,496.8 242.4,501.7 220.1,477 230.2,469.9 "/>
<path class="st7" d="M235.2,523.3c1.2,1.7,3.5,2.1,5.2,0.9l13.6-9.6l-1.1-6.5l4.3,4.2l5.1-3.6l-13.7-16.3l-1.9,1.2l-7.6,4.7
	l-2.4,1.5l3.5,4.9l-5.6,15.2C234.4,521,234.5,522.3,235.2,523.3z"/>
<polygon class="st6" points="145.2,266.1 169.5,209.6 225.5,209.6 209.3,268.5 "/>
<path class="st2" d="M93.8,534.2c-1.3,0.1-2.3-0.9-2.4-2.2c0-0.7,0.2-1.3,0.7-1.8l0.2-0.6c0,0,0-0.1-0.1-0.1c-1.3-3.1-4.9-4.5-8-3.2
	c-1.5,0.6-2.6,1.8-3.3,3.3c-1.8,4.4-4.2,8.9-4.8,13.5c-0.3,2.1-0.1,4.2,0.3,6.2c-4.3-9.4-6.6-19.7-6.6-30c0-2.6,0.1-5.2,0.4-7.8
	c0.2-2.1,0.6-4.2,1-6.3c2.3-11.3,7.3-22,14.5-31c3.5-1.9,6.3-4.8,8.1-8.4c0.6-1.3,1.1-2.6,1.3-4.1c-0.4,0.1-1.5-5.9-1.2-6.3
	c-0.5-0.8-1.5-1.2-2.1-2.1c-3-4-7.1-3.3-9.2,2.2c-4.6,2.3-4.6,6.1-1.8,9.8c1.8,2.3,2,5.5,3.6,8c-0.2,0.2-0.3,0.4-0.5,0.6
	c-3,3.8-5.5,7.9-7.7,12.2c0.5-4.8-0.1-9.7-1.8-14.2c-1.7-4.2-5-7.8-7.9-11.4c-2.1-2.7-6.1-3.2-8.8-1.1c-1.3,1-2.2,2.5-2.4,4.2
	c0,0.1,0,0.1,0,0.2c0.4,0.2,0.8,0.5,1.3,0.8c1.4,0.9,1.8,2.9,0.8,4.3c-0.5,0.7-1.2,1.2-2.1,1.3l-0.1,0c0.2,1.5,0.4,3.1,0.8,4.6
	c-3.7,14.3,4.3,19.5,15.7,19.8c0.3,0.1,0.5,0.3,0.7,0.4c-2.2,6.1-3.5,12.5-4,19c-0.3,3.8-0.3,7.7,0.1,11.5l0-0.1
	c-0.8-4.3-3.1-8.1-6.4-10.9c-4.9-4.1-11.9-5.6-17.3-8.8c-1.6-1.1-3.8-0.6-4.9,1.1c-0.5,0.7-0.6,1.5-0.5,2.4l0,0.1
	c0.8,0.3,1.6,0.7,2.3,1.1c0.4,0.2,0.8,0.5,1.3,0.8c1.4,0.9,1.8,2.9,0.8,4.3c-0.5,0.7-1.2,1.2-2.1,1.3l-0.1,0c0,0-0.1,0-0.1,0
	c1.4,3.2,3.3,6.2,5.6,8.8c2.3,12.5,12.3,13.7,22.9,10h0c1.2,5.1,2.9,10,5,14.7h18c0.1-0.2,0.1-0.4,0.2-0.6c-1.7,0.1-3.3,0-5-0.3
	c1.3-1.6,2.7-3.3,4-4.9c0,0,0.1-0.1,0.1-0.1c0.7-0.8,1.4-1.7,2-2.5l0,0C94.7,539.2,94.4,536.7,93.8,534.2L93.8,534.2z"/>
<path class="st2" d="M288.8,534.2c1.3,0.1,2.3-0.9,2.4-2.2c0-0.7-0.2-1.3-0.7-1.8l-0.2-0.6c0,0,0-0.1,0.1-0.1c1.3-3.1,4.9-4.5,8-3.2
	c1.5,0.6,2.6,1.8,3.3,3.3c1.8,4.4,4.2,8.9,4.8,13.5c0.3,2.1,0.1,4.2-0.3,6.2c4.3-9.4,6.6-19.7,6.6-30c0-2.6-0.1-5.2-0.4-7.8
	c-0.2-2.1-0.6-4.2-1-6.3c-2.3-11.3-7.3-22-14.5-31c-3.5-1.9-6.3-4.8-8.1-8.4c-0.6-1.3-1.1-2.6-1.3-4.1c0.4,0.1,1.5-5.9,1.2-6.3
	c0.5-0.8,1.5-1.2,2.1-2.1c3-4,7.1-3.3,9.2,2.2c4.6,2.3,4.6,6.1,1.8,9.8c-1.8,2.3-2,5.5-3.6,8c0.2,0.2,0.3,0.4,0.5,0.6
	c3,3.8,5.5,7.9,7.7,12.2c-0.5-4.8,0.1-9.7,1.8-14.2c1.7-4.2,5-7.8,7.9-11.4c2.1-2.7,6.1-3.2,8.8-1.1c1.3,1,2.2,2.5,2.4,4.2
	c0,0.1,0,0.1,0,0.2c-0.4,0.2-0.8,0.5-1.3,0.8c-1.4,0.9-1.8,2.9-0.8,4.3c0.5,0.7,1.2,1.2,2.1,1.3l0.1,0c-0.2,1.5-0.4,3.1-0.8,4.6
	c3.7,14.3-4.3,19.5-15.7,19.8c-0.3,0.1-0.5,0.3-0.7,0.4c2.2,6.1,3.5,12.5,4,19c0.3,3.8,0.3,7.7-0.1,11.5l0-0.1
	c0.8-4.3,3.1-8.1,6.4-10.9c4.9-4.1,11.9-5.6,17.3-8.8c1.6-1.1,3.8-0.6,4.9,1.1c0.5,0.7,0.6,1.5,0.5,2.4l0,0.1
	c-0.8,0.3-1.6,0.7-2.3,1.1c-0.4,0.2-0.8,0.5-1.3,0.8c-1.4,0.9-1.8,2.9-0.8,4.3c0.5,0.7,1.2,1.2,2.1,1.3l0.1,0c0,0,0.1,0,0.1,0
	c-1.4,3.2-3.3,6.2-5.6,8.8c-2.3,12.5-12.3,13.7-22.9,10h0c-1.2,5.1-2.9,10-5,14.7h-18c-0.1-0.2-0.1-0.4-0.2-0.6c1.7,0.1,3.3,0,5-0.3
	c-1.3-1.6-2.7-3.3-4-4.9c0,0-0.1-0.1-0.1-0.1c-0.7-0.8-1.4-1.7-2-2.5l0,0C287.9,539.2,288.1,536.7,288.8,534.2L288.8,534.2z"/>
<path class="st7" d="M145.2,261.8L121,312.2l1.7,200.7h20.7c0,0,4-5.4,4-9.2s-6.8-4.3-2.3-9s6.1-6.2,6.1-10.7v-72.9l16.3-70.7
	l-1.7,77.7l58.6,69.9l13.6-13.6c0,0,4-1.8,0-5.5s-6.5,2.9-6.8-7.7s2-8.3-0.3-10.6s-34.2-40.4-34.2-40.4s28.9-123,14.4-146.5
	L145.2,261.8z"/>
<path class="st8" d="M212.8,267.4c0,0-62.3-22-57.7-34.2s12.2-9.8,3.1-13.6s-15.2-4.6-9.5-9.9s14-10.6,14-16s6.8-47.1,6.8-47.1h10.9
	l11.1-19h15.7l7.9,17.5h16.7l0.8,26.6c0,0,1.1,51.4-4,53.4s-9.7,2-5.1,6.6s7.2,6.9,5.1,11.1S212.8,267.4,212.8,267.4z"/>
<path class="st8" d="M221.9,152.6l9.8-7.6c0,0,16.8,0,19,9.1s16,31.4,16,31.4s13.6-7.9,18.9-7.9s9.1,3.8,9.1-0.8s-3-5.3,1.5-5.3
	s16.7-4.6,16.7-4.6l13,13c0,0-1.6,12.1-6.9,11.3s-8.4-4.6-8.4,0s3,11.4-3.8,12.2s-52.4,12.2-52.4,12.2l-31.1-45.6L221.9,152.6z"/>
<path class="st8" d="M182.4,152.6l-9.8-7.6c0,0-16.8,0-19,9.1s-16.8,31.4-16.8,31.4s-12.9-7.9-18.2-7.9s-9.1,3.8-9.1-0.8
	s3-5.3-1.5-5.3s-16.7-4.6-16.7-4.6l-13,13c0,0,1.6,12.1,6.9,11.3s8.4-4.6,8.4,0s-3,11.4,3.8,12.2s52.4,12.2,52.4,12.2l31.1-45.6
	L182.4,152.6z"/>
<circle class="st6" cx="197.5" cy="99.2" r="24.2"/>
<path class="st5" d="M224,95.5c-2.8,3.5-7.1,3.3-10.9,2.7c-1.2-0.2-2.4-0.4-3.6-0.6c-0.2-0.7-0.5-1.3-0.7-2
	c-1.1-2.7-2.8-5.2-4.9-7.2c0.2,2.7,0,5.3-0.6,7.9c-2.2-0.5-4.4-1.1-6.6-1.7c-4-0.7-6.8-4.3-6.4-8.4c-3.2,2.4-6.6,4.5-10.2,4.5
	c-4.2-0.1-7.8-2.9-8.9-6.9c-1-3-0.8-6.5-0.4-9.7c0.5-3.9,1.6-8.1,4.2-9.6c2.1-1.3,4.5-0.4,6.7,0.7c4.7,2.3,9.2,5,13.4,8.2l0,1.1
	c1.1-5.2,4.7-9.2,8.5-9.6c2.6-0.3,5.2,0.9,7.7,2.2c3.2,1.4,6.2,3.3,8.9,5.6c3,2.8,5.1,6.4,6,10.4C227.1,87.4,226.4,92.6,224,95.5z"
	/>
<path class="st5" d="M200,61.9c0.2,0-0.4-0.1-0.2,0c-0.1,0-0.2-0.1-0.3-0.2c0,0-0.2-0.2-0.1-0.1c-0.3-0.2-0.5-0.5-0.6-0.9
	c-0.3-0.9-0.4-1.8-0.4-2.7c0-1.2-0.2-2.4-0.6-3.5c-0.5-1.1-1.7-1.5-2.7-1.1c-0.2,0.1-0.4,0.2-0.5,0.3c-0.8,0.8-0.9,2.2-0.9,3.2
	c-0.1,1.1,0.1,2.2,0.4,3.3c0.5,1.8,1.5,3.4,2.9,4.6c1.6,1.4,3.6,2.3,5.8,2.4c0.8,0,1.5-0.7,1.5-1.5c0-0.4-0.2-0.7-0.4-1l-2.7-2.5
	c-0.6-0.6-1.5-0.6-2.1,0c-0.6,0.6-0.6,1.5,0,2.1l2.7,2.5l1.1-2.6c-0.4,0-0.9-0.1-1.3-0.3c-0.5-0.1-0.9-0.3-1.3-0.6
	c-0.4-0.2-0.8-0.5-1.1-0.8c-0.2-0.2-0.4-0.4-0.6-0.6c-0.1-0.1-0.1-0.2-0.2-0.2c0,0-0.3-0.4-0.2-0.2c-0.3-0.4-0.6-0.9-0.8-1.4
	c-0.1-0.2-0.1-0.3-0.2-0.5c-0.1-0.3-0.2-0.6-0.2-0.9c-0.1-0.6-0.1-1.3-0.1-1.9c0-0.3,0-0.5,0.1-0.8c0-0.1,0.1-0.3,0.1-0.4
	c0-0.4,0,0.2-0.2,0.3l-0.8,0.2c-0.2,0-0.5-0.2-0.6-0.4c0-0.1,0-0.1,0,0.1c0.1,0.2,0.1,0.4,0.1,0.6c0.1,0.5,0.1,1,0.1,1.4
	c0,1,0.1,2,0.4,3c0.4,2,2.1,3.6,4.2,3.8c0.8,0,1.5-0.7,1.5-1.5C201.5,62.6,200.8,61.9,200,61.9z"/>
<path class="st9" d="M323.8,159.3c-8.2-11-13-23.2-13.2-37.2c-0.6-1.6,0.3-3.3,1.8-3.8l28.1-9.9c1.6-0.6,3.3,0.3,3.8,1.8l13.2,37.2
	c0.6,1.6-0.3,3.3-1.8,3.8l-28.1,9.9C326.1,161.7,324.4,160.8,323.8,159.3z"/>
<path class="st3" d="M330.1,158.6c-1.6,0.6-3.3-0.3-3.8-1.8c-8.2-11-13-23.2-13.2-37.2c-0.2-0.5-0.2-1-0.1-1.5l-0.6,0.2
	c-1.6,0.6-2.4,2.3-1.8,3.8c0.2,14,4.9,26.3,13.2,37.2c0.6,1.6,2.3,2.4,3.8,1.8l28.1-9.9c1-0.4,1.8-1.2,1.9-2.3L330.1,158.6z"/>
<path class="st4" d="M343.3,130.7l-18.8,6.7c-0.6,0.2-1.3-0.1-1.5-0.7c-0.2-0.6,0.1-1.3,0.7-1.5l18.8-6.7c0.6-0.2,1.3,0.1,1.5,0.7
	C344.3,129.8,343.9,130.5,343.3,130.7z"/>
<path class="st4" d="M326.4,129.8l-4.1,1.5c-0.6,0.2-1.3-0.1-1.5-0.7c-0.2-0.6,0.1-1.3,0.7-1.5l0,0l4.1-1.5c0.6-0.2,1.3,0.1,1.5,0.7
	C327.4,128.9,327,129.6,326.4,129.8L326.4,129.8z"/>
<path class="st4" d="M346.9,140.7l-18.8,6.7c-0.6,0.2-1.3-0.1-1.5-0.7c-0.2-0.6,0.1-1.3,0.7-1.5l0,0l0,0l18.8-6.7
	c0.6-0.2,1.3,0.1,1.5,0.7C347.8,139.8,347.5,140.4,346.9,140.7z"/>
<path class="st4" d="M345.1,135.7l-18.8,6.7c-0.6,0.2-1.3-0.1-1.5-0.7c-0.2-0.6,0.1-1.3,0.7-1.5l0,0l18.8-6.7
	c0.6-0.2,1.3,0.1,1.5,0.7C346,134.8,345.7,135.5,345.1,135.7L345.1,135.7L345.1,135.7z"/>
<circle class="st10" cx="325.8" cy="113.6" r="5"/>
<path class="st9" d="M78.9,31.8c5-12.8,13-23.3,24.8-30.7c1-1.3,2.9-1.5,4.2-0.4l23.2,18.8c1.3,1,1.5,2.9,0.4,4.2l-24.8,30.7
	c-1,1.3-2.9,1.5-4.2,0.4L79.3,36.1C78,35,77.8,33.1,78.9,31.8z"/>
<path class="st3" d="M82.8,36.9c-1.3-1-1.5-2.9-0.4-4.2c5-12.8,13-23.3,24.8-30.7c0.3-0.4,0.8-0.7,1.3-0.9l-0.5-0.4
	c-1.3-1-3.2-0.8-4.2,0.4C91.9,8.6,83.9,19,78.9,31.8c-1,1.3-0.8,3.2,0.4,4.2l23.2,18.8c0.8,0.7,2,0.8,3,0.5L82.8,36.9z"/>
<path class="st4" d="M113.4,33.5L97.8,21c-0.5-0.4-0.6-1.2-0.2-1.7c0.4-0.5,1.2-0.6,1.7-0.2l15.6,12.5c0.5,0.4,0.6,1.2,0.2,1.7
	C114.7,33.9,113.9,33.9,113.4,33.5L113.4,33.5z"/>
<path class="st4" d="M105.4,18.6l-3.4-2.8c-0.5-0.4-0.6-1.2-0.2-1.7c0.4-0.5,1.2-0.6,1.7-0.2l3.4,2.8c0.5,0.4,0.6,1.2,0.2,1.7
	C106.6,19,105.9,19,105.4,18.6L105.4,18.6z"/>
<path class="st4" d="M106.8,41.7L91.2,29.2c-0.5-0.4-0.6-1.2-0.2-1.7c0.4-0.5,1.2-0.6,1.7-0.2l15.6,12.5c0.5,0.4,0.6,1.2,0.2,1.7
	C108.1,42.1,107.3,42.2,106.8,41.7L106.8,41.7z"/>
<path class="st4" d="M110.1,37.6L94.5,25.1c-0.5-0.4-0.6-1.2-0.2-1.7s1.2-0.6,1.7-0.2c0,0,0,0,0,0l0,0l15.6,12.5
	c0.5,0.4,0.6,1.2,0.2,1.7C111.4,38,110.6,38.1,110.1,37.6L110.1,37.6L110.1,37.6L110.1,37.6z"/>
<circle class="st10" cx="118.8" cy="9.6" r="5"/>
<path class="st9" d="M21.5,181.3C9.3,165.1,2.3,146.9,2,126.2c-0.8-2.3,0.4-4.9,2.7-5.7l41.6-14.7c2.3-0.8,4.9,0.4,5.7,2.7
	l19.5,55.1c0.8,2.3-0.4,4.9-2.7,5.7L27.2,184C24.9,184.8,22.3,183.6,21.5,181.3z"/>
<path class="st3" d="M30.9,180.3c-2.3,0.8-4.9-0.4-5.7-2.7C13,161.4,6,143.2,5.7,122.5c-0.3-0.7-0.3-1.5-0.2-2.3l-0.8,0.3
	c-2.3,0.8-3.5,3.4-2.7,5.7c0.2,20.7,7.3,38.8,19.5,55.1c0.8,2.3,3.4,3.5,5.7,2.7l41.6-14.7c1.5-0.5,2.6-1.8,2.9-3.4L30.9,180.3z"/>
<path class="st4" d="M50.4,139.1L22.5,149c-0.9,0.3-1.9-0.1-2.3-1.1c-0.3-0.9,0.1-1.9,1.1-2.3c0,0,0,0,0,0l27.8-9.9
	c0.9-0.3,1.9,0.2,2.3,1.1S51.3,138.8,50.4,139.1z"/>
<path class="st4" d="M25.4,137.7l-6.1,2.2c-0.9,0.3-1.9-0.2-2.3-1.1c-0.3-0.9,0.2-1.9,1.1-2.3l0,0l6.1-2.2c0.9-0.3,1.9,0.2,2.3,1.1
	C26.8,136.4,26.3,137.4,25.4,137.7z"/>
<path class="st4" d="M55.6,153.8l-27.8,9.9c-0.9,0.3-1.9-0.2-2.3-1.1s0.2-1.9,1.1-2.3l0,0l27.8-9.9c0.9-0.3,1.9,0.2,2.3,1.1
	S56.6,153.5,55.6,153.8z"/>
<path class="st4" d="M53,146.4l-27.8,9.9c-0.9,0.3-1.9-0.2-2.3-1.1s0.2-1.9,1.1-2.3l0,0l0,0l27.8-9.9c0.9-0.3,1.9,0.2,2.3,1.1
	S53.9,146.1,53,146.4L53,146.4z"/>
<circle class="st10" cx="24.4" cy="113.7" r="7.4"/>
<path class="st2" d="M296,448.8c-13.7-0.1-26.4-3.7-37.6-12c-1.6-0.5-2.5-2.2-2-3.8l9.1-28.4c0.5-1.6,2.2-2.5,3.8-2l37.6,12
	c1.6,0.5,2.5,2.2,2,3.8l-9.1,28.4C299.2,448.4,297.5,449.3,296,448.8z"/>
<path class="st3" d="M299.3,443.3c-0.5,1.6-2.2,2.5-3.8,2c-13.7-0.1-26.4-3.7-37.6-12c-0.5-0.2-0.9-0.5-1.3-0.8l-0.2,0.6
	c-0.5,1.6,0.4,3.3,2,3.8c11.2,8.3,23.9,12,37.6,12c1.6,0.5,3.3-0.4,3.8-2l9.1-28.4c0.3-1,0.1-2.2-0.7-2.9L299.3,443.3z"/>
<path class="st4" d="M285.1,416l-6,19.1c-0.2,0.6-0.9,1-1.5,0.8c-0.6-0.2-1-0.9-0.8-1.5c0,0,0,0,0,0l0,0l6-19.1
	c0.2-0.6,0.9-1,1.5-0.8C284.9,414.7,285.2,415.4,285.1,416z"/>
<path class="st4" d="M274.1,428.9l-1.3,4.2c-0.2,0.6-0.9,1-1.5,0.8c-0.6-0.2-1-0.9-0.8-1.5l0,0l1.3-4.2c0.2-0.6,0.9-1,1.5-0.8
	C273.9,427.5,274.3,428.2,274.1,428.9L274.1,428.9L274.1,428.9z"/>
<path class="st4" d="M295.1,419.2l-6,19.1c-0.2,0.6-0.9,1-1.5,0.8c-0.6-0.2-1-0.9-0.8-1.5l0,0l6-19.1c0.2-0.6,0.9-1,1.5-0.8
	C294.9,417.8,295.3,418.5,295.1,419.2C295.1,419.2,295.1,419.2,295.1,419.2L295.1,419.2z"/>
<path class="st4" d="M290.1,417.6l-6,19.1c-0.2,0.6-0.9,1-1.5,0.8c-0.6-0.2-1-0.9-0.8-1.5c0,0,0,0,0,0l0,0l6-19.1
	c0.2-0.6,0.9-1,1.5-0.8C289.9,416.3,290.3,416.9,290.1,417.6L290.1,417.6L290.1,417.6z"/>
<circle class="st0" cx="260.8" cy="419.6" r="5"/>
<ellipse transform="matrix(0.2457 -0.9694 0.9694 0.2457 59.7158 522.8857)" class="st4" cx="365.8" cy="223.1" rx="3.6" ry="5.2"/>
<ellipse transform="matrix(0.2457 -0.9694 0.9694 0.2457 34.3975 489.9146)" class="st10" cx="332" cy="222.9" rx="3.6" ry="5.2"/>
<ellipse transform="matrix(0.2457 -0.9694 0.9694 0.2457 37.2886 550.2228)" class="st11" cx="372.2" cy="251.2" rx="3.6" ry="5.2"/>
<ellipse transform="matrix(0.111 -0.9938 0.9938 0.111 79.1724 614.0308)" class="st8" cx="382.8" cy="262.8" rx="3.3" ry="2.3"/>
<ellipse transform="matrix(0.111 -0.9938 0.9938 0.111 60.5697 635.6492)" class="st10" cx="385.6" cy="284" rx="3.3" ry="2.3"/>
<ellipse transform="matrix(0.111 -0.9938 0.9938 0.111 69.9776 565.3351)" class="st8" cx="351" cy="243.6" rx="3.3" ry="2.3"/>
<ellipse transform="matrix(0.111 -0.9938 0.9938 0.111 91.4769 576.5735)" class="st11" cx="368" cy="237.2" rx="3.3" ry="2.3"/>
<ellipse transform="matrix(0.111 -0.9938 0.9938 0.111 90.0041 540.3541)" class="st10" cx="347" cy="219.9" rx="3.3" ry="2.3"/>
<ellipse transform="matrix(0.2457 -0.9694 0.9694 0.2457 -167.0242 207.5169)" class="st4" cx="49.8" cy="211.1" rx="3.6" ry="5.2"/>
<ellipse transform="matrix(0.2457 -0.9694 0.9694 0.2457 -192.3425 174.5458)" class="st10" cx="16" cy="210.9" rx="3.6" ry="5.2"/>
<ellipse transform="matrix(0.2457 -0.9694 0.9694 0.2457 -189.4515 234.8541)" class="st11" cx="56.2" cy="239.2" rx="3.6" ry="5.2"/>
<ellipse transform="matrix(0.111 -0.9938 0.9938 0.111 -189.811 289.3177)" class="st8" cx="66.8" cy="250.8" rx="3.3" ry="2.3"/>
<ellipse transform="matrix(0.111 -0.9938 0.9938 0.111 -208.4136 310.9361)" class="st10" cx="69.6" cy="272" rx="3.3" ry="2.3"/>
<ellipse transform="matrix(0.111 -0.9938 0.9938 0.111 -199.0058 240.622)" class="st8" cx="35" cy="231.6" rx="3.3" ry="2.3"/>
<ellipse transform="matrix(0.111 -0.9938 0.9938 0.111 -177.5065 251.8605)" class="st11" cx="52" cy="225.2" rx="3.3" ry="2.3"/>
<ellipse transform="matrix(0.111 -0.9938 0.9938 0.111 -178.9793 215.6411)" class="st10" cx="31" cy="207.9" rx="3.3" ry="2.3"/>
<path class="st2" d="M270.8,308.3c-8.2-11-13-23.2-13.2-37.2c-0.6-1.6,0.3-3.3,1.8-3.8l28.1-9.9c1.6-0.6,3.3,0.3,3.8,1.8l13.2,37.2
	c0.6,1.6-0.3,3.3-1.8,3.8l-28.1,9.9C273.1,310.7,271.4,309.8,270.8,308.3z"/>
<path class="st3" d="M277.1,307.6c-1.6,0.6-3.3-0.3-3.8-1.8c-8.2-11-13-23.2-13.2-37.2c-0.2-0.5-0.2-1-0.1-1.5l-0.6,0.2
	c-1.6,0.6-2.4,2.3-1.8,3.8c0.2,14,4.9,26.3,13.2,37.2c0.6,1.6,2.3,2.4,3.8,1.8l28.1-9.9c1-0.4,1.8-1.2,1.9-2.3L277.1,307.6z"/>
<path class="st4" d="M290.3,279.7l-18.8,6.7c-0.6,0.2-1.3-0.1-1.5-0.7c-0.2-0.6,0.1-1.3,0.7-1.5l18.8-6.7c0.6-0.2,1.3,0.1,1.5,0.7
	C291.3,278.8,290.9,279.5,290.3,279.7z"/>
<path class="st4" d="M273.4,278.8l-4.1,1.5c-0.6,0.2-1.3-0.1-1.5-0.7c-0.2-0.6,0.1-1.3,0.7-1.5l0,0l0,0l4.1-1.5
	c0.6-0.2,1.3,0.1,1.5,0.7C274.4,277.9,274,278.6,273.4,278.8L273.4,278.8z"/>
<path class="st4" d="M293.9,289.7l-18.8,6.7c-0.6,0.2-1.3-0.1-1.5-0.7c-0.2-0.6,0.1-1.3,0.7-1.5l0,0l0,0l18.8-6.7
	c0.6-0.2,1.3,0.1,1.5,0.7C294.8,288.8,294.5,289.4,293.9,289.7z"/>
<path class="st4" d="M292.1,284.7l-18.8,6.7c-0.6,0.2-1.3-0.1-1.5-0.7c-0.2-0.6,0.1-1.3,0.7-1.5l0,0l18.8-6.7
	c0.6-0.2,1.3,0.1,1.5,0.7C293,283.8,292.7,284.5,292.1,284.7L292.1,284.7z"/>
<circle class="st0" cx="272.8" cy="262.6" r="5"/>
</svg>
