<?xml version="1.0" encoding="utf-8"?>
<!-- Generator: Adobe Illustrator 27.7.0, SVG Export Plug-In . SVG Version: 6.00 Build 0)  -->
<svg version="1.1" id="Ebene_1" xmlns="http://www.w3.org/2000/svg" xmlns:xlink="http://www.w3.org/1999/xlink" x="0px" y="0px"
	 viewBox="0 0 821 545" style="enable-background:new 0 0 821 545;" xml:space="preserve">
<style type="text/css">
	.st0{fill:#F0F0F0;}
	.st1{fill:#CACACA;}
	.st2{fill:#FFFFFF;}
	.st3{fill:#E6E6E6;}
	.st4{fill:#BB1C16;}
	.st5{fill:#FFB6B6;}
	.st6{fill:#2F2E41;}
	.st7{fill:#4E342E;}
</style>
<path class="st0" d="M45.4,544.7c18.2-5.4,28.5-24.6,23.1-42.8c-0.2-0.6-0.4-1.1-0.6-1.7c-3.3-9.3-10.8-16.2-15.2-24.9
	c-9.1-17.6-3.1-39.3,13.7-49.8c0.9-0.6,1.9-1.1,2.9-1.6c0.9-0.5,0.1-1.9-0.8-1.4c-17.2,9-25.5,29-19.6,47.5c1.6,4.7,3.9,9,6.8,13
	c2.8,4,5.8,7.8,8.2,12.1c5,8.7,5.8,19.3,2.3,28.7c-3.3,8.3-9.8,14.9-18,18.3c-1,0.4-2,0.8-3.1,1.1c-0.4,0.1-0.7,0.6-0.5,1
	C44.5,544.6,45,544.8,45.4,544.7L45.4,544.7z"/>
<circle class="st0" cx="68.8" cy="423" r="16"/>
<circle class="st0" cx="59.8" cy="469" r="10"/>
<path class="st0" d="M559.3,293.7c-18.2-5.4-28.5-24.6-23.1-42.8c0.2-0.6,0.4-1.1,0.6-1.7c3.3-9.3,10.8-16.2,15.2-24.9
	c9.1-17.6,3.1-39.3-13.7-49.8c-0.9-0.6-1.9-1.1-2.9-1.6c-0.9-0.5-0.1-1.9,0.8-1.4c17.2,9,25.5,29,19.6,47.5c-1.6,4.7-3.9,9-6.8,13
	c-2.8,4-5.8,7.8-8.2,12.1c-5,8.7-5.8,19.3-2.3,28.7c3.3,8.3,9.8,14.9,18,18.3c1,0.4,2,0.8,3.1,1.1c0.4,0.1,0.7,0.6,0.5,1
	C560.1,293.6,559.7,293.8,559.3,293.7L559.3,293.7z"/>
<circle class="st0" cx="535.8" cy="172" r="16"/>
<circle class="st0" cx="544.8" cy="218" r="10"/>
<path class="st1" d="M414.1,129h-3V47.3C411.1,21.2,390,0,363.9,0H190.8c-26.1,0-47.3,21.2-47.3,47.3c0,0,0,0,0,0v448.1
	c0,26.1,21.2,47.3,47.3,47.3h173.1c26.1,0,47.3-21.2,47.3-47.3V187.1h3V129z"/>
<path class="st2" d="M365.8,12.3h-22.6c3.5,8.6-0.6,18.4-9.2,21.9c-2,0.8-4.2,1.2-6.3,1.2h-99.1c-9.3,0-16.8-7.5-16.8-16.8
	c0-2.2,0.4-4.3,1.2-6.3h-21.1c-19.5,0-35.3,15.8-35.3,35.3c0,0,0,0,0,0v447.5c0,19.5,15.8,35.3,35.3,35.3l0,0h173.9
	c19.5,0,35.3-15.8,35.3-35.3l0,0l0,0V47.6C401.1,28.1,385.3,12.3,365.8,12.3L365.8,12.3z"/>
<path class="st2" d="M348.2,389.4c-30.2-0.5-30.2-45.4,0-45.9C378.4,344.1,378.4,388.9,348.2,389.4z"/>
<path class="st3" d="M348.2,389.4c-30.2-0.5-30.2-45.4,0-45.9C378.4,344.1,378.4,388.9,348.2,389.4z M348.2,344.9
	c-28.3,0.5-28.3,42.6,0,43.1C376.6,387.5,376.6,345.4,348.2,344.9z"/>
<path class="st1" d="M353.1,354.7c-5.7,0.2-16.7-1.9-16.7,6.9c0.2,5.7-1.9,16.7,6.9,16.7c5.7-0.2,16.7,1.9,16.7-6.9
	C359.8,365.7,361.8,354.7,353.1,354.7z"/>
<path class="st2" d="M354.6,361.6c-0.8,0-1.4-0.7-1.4-1.5c0-0.8,0.7-1.4,1.4-1.4c0.8,0,1.4,0.7,1.4,1.5
	C356,360.9,355.4,361.6,354.6,361.6z"/>
<path class="st2" d="M348.2,362.6c5.1-0.1,5.1,7.9,0,7.8C343.1,370.5,343.1,362.5,348.2,362.6z M348.2,360.6
	c-7.6-0.1-7.6,11.9,0,11.8C355.8,372.5,355.8,360.5,348.2,360.6z"/>
<path class="st2" d="M209.3,389.4c-30.2-0.5-30.2-45.4,0-45.9C239.4,344.1,239.4,388.9,209.3,389.4z"/>
<path class="st3" d="M209.3,389.4c-30.2-0.5-30.2-45.4,0-45.9C239.4,344.1,239.4,388.9,209.3,389.4z M209.3,344.9
	c-28.3,0.5-28.3,42.6,0,43.1C237.6,387.5,237.6,345.4,209.3,344.9z"/>
<path class="st1" d="M221.7,360.7c-0.7,0.8-1.5,1.6-2.3,2.3c-1,11.2-8,13.8-13.6,13.8c-4,0-7.4-1.3-7.3-1.7c6,0.1,6.5-2.3,6.5-2.3
	c-3.5-0.5-4.2-2.8-4.2-2.8c0.6,0.3,1.4,0.1,1.9-0.5c-2.1-0.5-3.5-2.5-3.2-4.6c0.7,0.5,1.5,0.8,2.3,0.9c-0.4-0.5-3.9-4.7-1.8-6.9
	c2.3,3.2,6,5.1,9.9,5c-0.5-2.7,1.2-5.3,3.8-5.8c0.3-0.1,0.6-0.1,0.9-0.1c3.3,0,4,1.9,4,1.9l2.3-1.4c0,0-0.3,2.3-1.4,2.8L221.7,360.7
	z"/>
<path class="st2" d="M278.7,389.4c-30.2-0.5-30.2-45.4,0-45.9C308.9,344.1,308.9,388.9,278.7,389.4z"/>
<path class="st3" d="M278.7,389.4c-30.2-0.5-30.2-45.4,0-45.9C308.9,344.1,308.9,388.9,278.7,389.4z M278.7,344.9
	c-28.3,0.5-28.3,42.6,0,43.1C307.1,387.5,307.1,345.4,278.7,344.9z"/>
<path class="st1" d="M291.4,366.6c0,6.3-4.6,11.6-10.8,12.6v-8.9h3l0.6-3.7h-3.5c-0.1-3.1-0.2-4.8,3.7-4.4V359
	c-5.9-1.3-8.3,1.7-7.7,7.5h-3.2v3.7h3.2v8.9c-15.2-2.3-13.5-25.4,2-25.4C285.7,353.8,291.4,359.5,291.4,366.6L291.4,366.6z"/>
<path class="st2" d="M366.8,255H190.9c-2.3,0-4.1-1.8-4.1-4.1V142.2c0-2.3,1.8-4.1,4.1-4.1h175.8c2.3,0,4.1,1.8,4.1,4.1V251
	C370.8,253.2,369,255,366.8,255z"/>
<path class="st1" d="M366.8,255H190.9c-2.3,0-4.1-1.8-4.1-4.1V142.2c0-2.3,1.8-4.1,4.1-4.1h175.8c2.3,0,4.1,1.8,4.1,4.1V251
	C370.8,253.2,369,255,366.8,255z M190.9,139.7c-1.4,0-2.5,1.1-2.5,2.5V251c0,1.4,1.1,2.5,2.5,2.5h175.8c1.4,0,2.5-1.1,2.5-2.5V142.2
	c0-1.4-1.1-2.5-2.5-2.5H190.9z"/>
<path class="st4" d="M332,187.6H225.7c-2,0-3.7-1.7-3.7-3.7c0-2,1.6-3.7,3.7-3.7H332c2,0,3.7,1.6,3.7,3.7S334.1,187.6,332,187.6
	C332,187.6,332,187.6,332,187.6z"/>
<path class="st4" d="M332,212.9H225.7c-2,0-3.7-1.7-3.7-3.7c0-2,1.6-3.7,3.7-3.7H332c2,0,3.7,1.6,3.7,3.7S334.1,212.9,332,212.9
	C332,212.9,332,212.9,332,212.9z"/>
<path class="st5" d="M552.7,348c-0.2,0.6-0.3,1.3-0.4,1.9l-51.4,27l-11.9-7.5l-13.7,16.5l19.8,15.4c3.3,2.6,7.9,2.6,11.2,0.2
	l53.5-38.8c6.3,2.6,13.5-0.4,16.1-6.6s-0.4-13.5-6.6-16.1s-13.5,0.4-16.1,6.6C553,347,552.9,347.5,552.7,348L552.7,348z"/>
<polygon class="st5" points="614.8,531 625.1,524.4 604.4,481.4 589.2,491.2 "/>
<path class="st6" d="M610,529.3l20.3-13.1l0,0c7.1-4.6,16.7-2.5,21.3,4.6l0.3,0.4l-33.2,21.4L610,529.3z"/>
<path class="st6" d="M466.2,457.3l79.2-50.7c0,0,14.5-1.4,23.3,15.8l52.7,75.7l-22.5,15.2l-58.5-60.7l-40.1,39.7
	c0,0,59.1-9.7,57.1,29.3c-1.6,31-82.5,20.3-115.9,14.6c-12.8-2.1-24-9.8-30.6-21c-3.6-6.2-5.5-13.2-2.5-19.9
	C416.3,477.6,466.2,457.3,466.2,457.3z"/>
<path class="st4" d="M426.9,499.6l-22.8-4.6l6.5-112l26.2-32.1l15.6-2.8c9.7-1.8,19.1,4.2,21.6,13.7L481,387
	c11.7,19.8-4.7,42.8-6.2,44.8l0.9,34.7L426.9,499.6z"/>
<path class="st4" d="M448.2,355.3l1.4-5.1c0,0,15.7-11.6,39.7,18.4l-11.5,20.5l-25-1L448.2,355.3z"/>
<path class="st7" d="M484.3,315.4c4.4,18.2-13.1,19.6-33.9,24.7s-37,11.9-41.4-6.3s-4.1-52.6,25.3-59.8
	C464.8,266.6,479.9,297.2,484.3,315.4z"/>
<circle class="st5" cx="444.1" cy="314.8" r="26.1"/>
<path class="st7" d="M414.2,319.4L414.2,319.4l10-2.4l1.4-13.5l3.9,12.2l4.8-1.2l0.8-7.9l2.3,7.1l35.6-8.7l0,0
	c-3.6-14.8-18.6-23.9-33.4-20.3c0,0,0,0,0,0l-5.2,1.3C419.7,289.7,410.6,304.6,414.2,319.4C414.2,319.4,414.2,319.4,414.2,319.4z"/>
<path class="st2" d="M739.8,351.2H564c-2.3,0-4.1-1.8-4.1-4.1V238.3c0-2.3,1.8-4.1,4.1-4.1h175.8c2.3,0,4.1,1.8,4.1,4.1v108.8
	C743.9,349.4,742.1,351.2,739.8,351.2z"/>
<path class="st1" d="M739.8,351.2H564c-2.3,0-4.1-1.8-4.1-4.1V238.3c0-2.3,1.8-4.1,4.1-4.1h175.8c2.3,0,4.1,1.8,4.1,4.1v108.8
	C743.9,349.4,742.1,351.2,739.8,351.2z M564,235.9c-1.4,0-2.5,1.1-2.5,2.5v108.8c0,1.4,1.1,2.5,2.5,2.5h175.8c1.4,0,2.5-1.1,2.5-2.5
	V238.3c0-1.4-1.1-2.5-2.5-2.5L564,235.9z"/>
<path class="st4" d="M705.1,283.7H598.8c-2,0-3.7-1.6-3.7-3.7c0-2,1.6-3.7,3.7-3.7c0,0,0,0,0,0h106.3c2,0,3.7,1.6,3.7,3.7
	C708.8,282.1,707.1,283.7,705.1,283.7z"/>
<path class="st4" d="M705.1,309.1H598.8c-2,0-3.7-1.6-3.7-3.7s1.6-3.7,3.7-3.7c0,0,0,0,0,0h106.3c2,0,3.7,1.7,3.7,3.7
	C708.7,307.5,707.1,309.1,705.1,309.1z"/>
<path class="st5" d="M488.8,443.8c-0.6,0.2-1.2,0.4-1.8,0.6l-49-31.3l0.6-14.1l-21.2-3.7l-3.5,24.9c-0.6,4.1,1.6,8.1,5.4,9.9
	l60.2,27.2c0.8,6.7,7,11.5,13.7,10.7c6.7-0.8,11.5-7,10.7-13.7c-0.8-6.7-7-11.5-13.7-10.7C489.8,443.6,489.3,443.7,488.8,443.8
	L488.8,443.8z"/>
<path class="st4" d="M440.8,356l-3.7-4.7c0,0-14.8-4.8-22.8,15.2s-0.5,39.5-0.5,39.5l35,3l2.5-32.5L440.8,356z"/>
<path class="st1" d="M820,545H1c-0.6,0-1-0.4-1-1s0.4-1,1-1h819c0.6,0,1,0.4,1,1S820.6,545,820,545z"/>
</svg>
