<?xml version="1.0" encoding="utf-8"?>
<!-- Generator: Adobe Illustrator 27.7.0, SVG Export Plug-In . SVG Version: 6.00 Build 0)  -->
<svg version="1.1" id="Ebene_1" xmlns="http://www.w3.org/2000/svg" xmlns:xlink="http://www.w3.org/1999/xlink" x="0px" y="0px"
	 viewBox="0 0 766.1 517" style="enable-background:new 0 0 766.1 517;" xml:space="preserve">
<style type="text/css">
	.st0{fill:#3F3D56;}
	.st1{fill:#F2F2F2;}
	.st2{fill:#BB1C16;}
	.st3{fill:#CCCCCC;}
	.st4{fill:#FFFFFF;}
	.st5{fill:#FFB6B6;}
	.st6{fill:#2F2E41;}
	.st7{fill:#4E342E;}
</style>
<path class="st0" d="M761.1,427h-379c-2.8,0-5-2.2-5-5V5c0-2.8,2.2-5,5-5h379c2.8,0,5,2.2,5,5v417C766.1,424.8,763.8,427,761.1,427z
	 M382.1,2c-1.7,0-3,1.3-3,3v417c0,1.7,1.3,3,3,3h379c1.7,0,3-1.3,3-3V5c0-1.7-1.3-3-3-3H382.1z"/>
<path class="st1" d="M545.6,159h-94c-2.8,0-5-2.2-5-5V60c0-2.8,2.2-5,5-5h94c2.8,0,5,2.2,5,5v94C550.6,156.8,548.3,159,545.6,159z
	 M451.6,57c-1.7,0-3,1.3-3,3v94c0,1.7,1.3,3,3,3h94c1.7,0,3-1.3,3-3V60c0-1.7-1.3-3-3-3H451.6z"/>
<path class="st2" d="M518.6,170.5h-94c-2.5,0-4.5-2-4.5-4.5V72c0-2.5,2-4.5,4.5-4.5h94c2.5,0,4.5,2,4.5,4.5v94
	C523.1,168.5,521.1,170.5,518.6,170.5z"/>
<path class="st3" d="M718.6,216.5h-294c-2.5,0-4.5-2-4.5-4.5s2-4.5,4.5-4.5h294c2.5,0,4.5,2,4.5,4.5S721.1,216.5,718.6,216.5z"/>
<path class="st3" d="M647.6,247.5h-223c-2.5,0-4.5-2-4.5-4.5s2-4.5,4.5-4.5h223c2.5,0,4.5,2,4.5,4.5S650.1,247.5,647.6,247.5z"/>
<path class="st3" d="M717.6,102.5h-130c-2.5,0-4.5-2-4.5-4.5s2-4.5,4.5-4.5h130c2.5,0,4.5,2,4.5,4.5S720.1,102.5,717.6,102.5z"/>
<path class="st3" d="M685.1,133.5h-97.6c-2.5,0-4.5-2-4.5-4.5s2-4.5,4.5-4.5h97.6c2.5,0,4.5,2,4.5,4.5S687.6,133.5,685.1,133.5z"/>
<path class="st3" d="M718.6,278.5h-294c-2.5,0-4.5-2-4.5-4.5s2-4.5,4.5-4.5h294c2.5,0,4.5,2,4.5,4.5S721.1,278.5,718.6,278.5z"/>
<path class="st3" d="M647.6,309.5h-223c-2.5,0-4.5-2-4.5-4.5s2-4.5,4.5-4.5h223c2.5,0,4.5,2,4.5,4.5S650.1,309.5,647.6,309.5z"/>
<path class="st3" d="M718.6,340.5h-294c-2.5,0-4.5-2-4.5-4.5s2-4.5,4.5-4.5h294c2.5,0,4.5,2,4.5,4.5S721.1,340.5,718.6,340.5z"/>
<path class="st3" d="M718.6,371.5h-294c-2.5,0-4.5-2-4.5-4.5s2-4.5,4.5-4.5h294c2.5,0,4.5,2,4.5,4.5S721.1,371.5,718.6,371.5z"/>
<path class="st4" d="M481.5,388.3h-215c-2.8,0-5-2.2-5-5v-133c0-2.8,2.2-5,5-5h215c2.8,0,5,2.2,5,5v133
	C486.5,386.1,484.3,388.3,481.5,388.3z"/>
<path class="st0" d="M481.5,388.3h-215c-2.8,0-5-2.2-5-5v-133c0-2.8,2.2-5,5-5h215c2.8,0,5,2.2,5,5v133
	C486.5,386.1,484.3,388.3,481.5,388.3z M266.5,247.3c-1.7,0-3,1.3-3,3v133c0,1.7,1.3,3,3,3h215c1.7,0,3-1.3,3-3v-133
	c0-1.7-1.3-3-3-3L266.5,247.3L266.5,247.3z"/>
<path class="st3" d="M439,305.8H309c-2.5,0-4.5-2-4.5-4.5s2-4.5,4.5-4.5h130c2.5,0,4.5,2,4.5,4.5S441.5,305.8,439,305.8z"/>
<path class="st3" d="M439,336.8H309c-2.5,0-4.5-2-4.5-4.5s2-4.5,4.5-4.5h130c2.5,0,4.5,2,4.5,4.5S441.5,336.8,439,336.8z"/>
<polygon class="st5" points="230.3,504.9 242.6,504.9 248.4,457.6 230.3,457.6 "/>
<path class="st6" d="M227.2,500.9h24.1l0,0c8.5,0,15.4,6.9,15.4,15.4v0.5h-39.5L227.2,500.9z"/>
<polygon class="st5" points="134.9,499.6 147,501.4 159.8,455.5 143.9,452.8 "/>
<path class="st6" d="M132.4,495.2l23.9,3.6l0,0c8.4,1.3,14.2,9.1,12.9,17.5l-0.1,0.5l-39.1-5.9L132.4,495.2z"/>
<path class="st5" d="M172.7,270.5l13.6,3.6l-0.9,22.1l-0.1,40.2c3.7,2.5,4.6,7.5,2,11.2c-2.5,3.7-7.5,4.6-11.2,2
	c-3.7-2.5-4.6-7.5-2-11.2c0.2-0.2,0.4-0.5,0.5-0.7l-4.2-40.3L172.7,270.5z"/>
<path class="st2" d="M170.3,245.3c0.2-4.4,2.8-8.2,6.9-9.9c3.8-1.7,8.2-1,11.2,1.8c2.2,1.9,3.4,4.7,3.3,7.7c0,12.9-2.9,31.8-2.9,32
	v0.3l-19.9,6.7L170.3,245.3z"/>
<path class="st6" d="M205.9,282l30.4-7.9l14.1,47.4l0.5,176.5l-23.3-0.1L217.9,355l-62,132l-25-3l54.5-141.5c0,0-3-25,6.5-37.5
	l-2-13L205.9,282z"/>
<path class="st2" d="M185.4,293.8c-0.9-1-1.2-2.4-1-3.8l-13.9-41.6c-1.3-4-0.2-8.4,2.9-11.2l6-5.5l4.1-16.3l23.5,5.7l-1.9,7.7
	l10.6-1.9l22.4,49.8l-46.8,18.7H189C187.6,295.5,186.3,294.8,185.4,293.8z"/>
<path class="st5" d="M217.9,258.6l13.4-4.3l11,19.1l21.4,34c4.4,0.2,7.9,3.9,7.7,8.4c-0.2,4.4-3.9,7.9-8.4,7.7
	c-4.4-0.2-7.9-3.9-7.7-8.4c0-0.3,0-0.6,0.1-0.9l-25.1-31.8L217.9,258.6z"/>
<path class="st2" d="M202.4,238.5c-2.2-3.8-2-8.5,0.5-12c2.3-3.4,6.4-5.2,10.5-4.5c2.9,0.5,5.4,2.2,6.9,4.7
	c6.9,10.9,14.5,28.4,14.6,28.6l0.1,0.3l-13.2,16.3L202.4,238.5z"/>
<circle class="st5" cx="200.9" cy="193.7" r="18.6"/>
<circle class="st7" cx="167.9" cy="167.8" r="18"/>
<path class="st7" d="M152.4,182.7c8,5.8,19.3,4,25.1-4c1.2-1.6,2.1-3.5,2.7-5.4c-1.2,9.8-10.2,16.8-20.1,15.6s-16.8-10.2-15.6-20.1
	c0.1-1,0.3-1.9,0.6-2.9C144.3,172.4,147.1,178.9,152.4,182.7z"/>
<path class="st7" d="M223.3,182.7c-3.1-5.6-4.3-8-8.4-11.4c-3.6-3-8-3.9-11.5-1c-10.8-4.7-23.3,0.3-27.9,11.1
	c-4.7,10.8,0.3,23.3,11.1,27.9c10.8,4.7,23.3-0.3,27.9-11.1c1.1-2.7,1.7-5.5,1.7-8.4c0-0.8-0.1-1.6-0.1-2.4
	C219.2,187,220.2,183.2,223.3,182.7z"/>
<path class="st3" d="M382,517H1c-0.6,0-1-0.4-1-1s0.4-1,1-1h381c0.6,0,1,0.4,1,1S382.6,517,382,517z"/>
</svg>
