<?xml version="1.0" encoding="utf-8"?>
<!-- Generator: Adobe Illustrator 27.7.0, SVG Export Plug-In . SVG Version: 6.00 Build 0)  -->
<svg version="1.1" id="Ebene_1" xmlns="http://www.w3.org/2000/svg" xmlns:xlink="http://www.w3.org/1999/xlink" x="0px" y="0px"
	 viewBox="0 0 793 551.7" style="enable-background:new 0 0 793 551.7;" xml:space="preserve">
<style type="text/css">
	.st0{fill:#E6E6E6;}
	.st1{fill:#4E342E;stroke:#4E342E;stroke-miterlimit:10;}
	.st2{fill:#2F2E41;}
	.st3{fill:#3F3D56;}
	.st4{fill:#FFFFFF;}
	.st5{fill:#BB1C16;}
	.st6{fill:#FFB8B8;}
	.st7{fill:#4E342E;}
	.st8{display:none;fill:#F5F5F5;}
	.st9{fill:#F5F5F5;}
</style>
<ellipse class="st0" cx="158" cy="539.7" rx="158" ry="12"/>
<path class="st1" d="M120,177.1c44-14.7,61.7-4.3,95.2,0.9c0.3-6.2,13.4-47.6,2.2-71.6c-1.9-6.3-6.7-6.4-5-16.2
	c5.5-17.5-1.7-30.1-12.4-42.8c-4.9-5.8-12.2-8.8-19.8-8.3l-19.8,1.4c-9.9,0.7-18.3,7.5-21.1,16.9l0,0c-16.9,20.7-0.1,38.2-10.9,48.6
	C112.5,124,120,177.1,120,177.1z"/>
<path class="st2" d="M774.2,477H213.8c-10.4,0-18.8-8.4-18.8-18.8l0,0l0,0c203.2-23.6,402.5-23.6,598,0l0,0
	C793,468.5,784.6,477,774.2,477L774.2,477z"/>
<path class="st3" d="M793,459.3l-598-1.1l69.3-116.6l0.3-0.6V84c0-13.1,10.6-23.8,23.8-23.8c0,0,0,0,0,0h407.9
	c13.1,0,23.8,10.6,23.8,23.8c0,0,0,0,0,0v258.8L793,459.3z"/>
<path class="st4" d="M287.9,76.8c-4.3,0-7.7,3.5-7.7,7.7v234.3c0,4.3,3.5,7.7,7.7,7.7h412.3c4.3,0,7.7-3.5,7.7-7.7V84.6
	c0-4.3-3.5-7.7-7.7-7.7L287.9,76.8z"/>
<path class="st2" d="M289.6,357.6c-1.3,0-2.5,0.8-3,1.9l-21.4,46.4c-0.8,1.7,0,3.6,1.6,4.4c0.4,0.2,0.9,0.3,1.4,0.3h449.1
	c1.8,0,3.3-1.5,3.3-3.3c0-0.5-0.1-1-0.4-1.5l-23.2-46.4c-0.6-1.1-1.7-1.8-3-1.8L289.6,357.6z"/>
<circle class="st4" cx="492.3" cy="68" r="5"/>
<path class="st2" d="M448.2,419.5c-1.5,0-2.8,1-3.2,2.5l-5.4,19.9c-0.5,1.8,0.6,3.6,2.3,4.1c0.3,0.1,0.6,0.1,0.9,0.1h101.9
	c1.8,0,3.3-1.5,3.3-3.3c0-0.4-0.1-0.7-0.2-1.1l-6.9-19.9c-0.5-1.3-1.7-2.2-3.1-2.2L448.2,419.5z"/>
<polygon class="st2" points="720,337.1 720,341.6 264.3,341.6 264.6,341 264.6,337.1 "/>
<circle class="st5" cx="707.3" cy="77.4" r="77.4"/>
<path class="st0" d="M653.3,247.1H334.7c-3.3,0-5.9-2.6-5.9-5.9v-79c0-3.3,2.6-5.9,5.9-5.9h318.6c3.3,0,5.9,2.6,5.9,5.9v79
	C659.2,244.5,656.6,247.1,653.3,247.1z M334.7,158.7c-2,0-3.5,1.6-3.5,3.5v79c0,2,1.6,3.5,3.5,3.5h318.6c2,0,3.5-1.6,3.5-3.5v-79
	c0-2-1.6-3.5-3.5-3.5L334.7,158.7z"/>
<circle class="st0" cx="384.2" cy="198.7" r="24"/>
<path class="st0" d="M439.7,182.7c-2.2,0-4,1.8-4,4c0,2.2,1.8,4,4,4c0,0,0,0,0,0h188.9c2.2,0,4-1.8,4-4s-1.8-4-4-4H439.7z"/>
<path class="st0" d="M439.7,206.7c-2.2,0-4,1.8-4,4s1.8,4,4,4H521c2.2,0,4-1.8,4-4s-1.8-4-4-4H439.7z"/>
<path class="st6" d="M263.5,208.3l-58.9,31.3l-0.7-26.1c19.2-3.2,37.5-8.8,54.4-17.9l6.2-15.2c2.1-5.3,8.2-7.8,13.4-5.7
	c1.6,0.6,3,1.7,4.1,3l0,0c3.4,4.2,3.1,10.3-0.9,14.1L263.5,208.3z"/>
<path class="st2" d="M119.6,389.1L119.6,389.1c-0.9-3.2-0.3-6.6,1.5-9.4l12.9-19.9c6.3-9.7,19-13.1,29.3-7.7l0,0
	c-5.4,9.3-4.7,17.4,1.9,24.4c-10.2,5-19.6,11.4-27.9,19c-5.3,3.6-12.5,2.2-16.1-3C120.5,391.5,119.9,390.4,119.6,389.1z"/>
<path class="st2" d="M266.2,363.2L266.2,363.2c-4,6.6-11.1,10.7-18.9,10.8l-86,0.7l-3.7-21.6l38-11.2l-32.1-24.6l35-41l63.6,59.3
	C270,342.6,271.6,354.2,266.2,363.2z"/>
<path class="st2" d="M148,511h-20.1c-18.1-123.9-36.5-248.1,17.9-294.5l64.1,10.4l-8.2,54.4l-35.8,41L148,511z"/>
<path class="st2" d="M165.6,539.1L165.6,539.1c-3.2,0.9-6.6,0.3-9.4-1.5l-21.9-2.9c-9.7-6.3-13.1-19-7.7-29.3l0,0
	c9.3,5.4,17.4,4.7,24.4-1.9c5,10.1,13.2,9.5,21,17.9c3.6,5.3,2.2,12.5-3,16.1C168.1,538.2,166.9,538.8,165.6,539.1z"/>
<path class="st6" d="M195.7,133.8l-37.3-8.9c6.2-12.7,6.7-26.8,3.7-41.8l25.4-0.7C188.3,100.9,190.7,118.3,195.7,133.8z"/>
<path class="st5" d="M205.9,249.4c-27.1,18.5-46.3,0.6-60.9-26.9c2-16.9-1.3-37-7.4-59c-5.6-20,5-41.1,24.5-48.4l0,0l32.1,13.4
	c27.2,22.2,32.6,46.2,22.4,71.6L205.9,249.4z"/>
<path class="st6" d="M127.8,152.4L98,168.1l52.9,31.3l7.4,18.2c2,4.9-0.4,10.6-5.3,12.6c-0.2,0.1-0.3,0.1-0.5,0.2l0,0
	c-5,1.7-10.5-0.9-12.3-6c-0.3-0.8-0.5-1.7-0.5-2.6l-0.7-12.7l-67.3-22.2c-4.6-1.5-8.2-5.1-9.9-9.6l0,0c-2.4-6.7,0-14.3,5.9-18.3
	l54.1-37.1L127.8,152.4z"/>
<path class="st5" d="M157.6,155.4c-12.4-5.5-23.7,0.5-38,5.2l-2.2-39.5c14.2-7.6,27.7-9.6,40.3-3.7L157.6,155.4z"/>
<circle class="st6" cx="172.5" cy="78.1" r="23.8"/>
<path class="st7" d="M201,75.1c-23.6,2.3-41.5-1.5-53-12.5v-8.8h51L201,75.1z"/>
<g>
	<path class="st8" d="M697.5,124.7c-12.3,0-24.6,0-36.9,0c0-31.3,0-62.7,0-94c31.3,0,62.7,0,94,0c0,31.3,0,62.7,0,94
		c-12.1,0-24.1,0-36.2,0c2-2.2,4.2-4.3,6-6.7c1.1-1.5,2.2-1.8,3.7-1.6c2.6,0.2,5.2,0.6,7.8,0.7c2.3,0.1,2.9-0.8,2.1-2.9
		c-1.7-4.5-3.4-8.9-5.2-13.3c-1.2-2.8-2.4-5.5-0.7-8.6c1.2-2.2,1.5-4.9,3.7-6.5c1.4-1,2.8-1.9,4-3.1c1.1-1.1,2.2-2.4,2.6-3.8
		c0.4-1.2-0.3-2.6-0.5-3.9c-0.5-2.6-1.4-5.3-1.3-7.9c0.1-2.4,1.3-4.8,1.8-7.2c0.2-1,0-2.5-0.6-3.3c-1.1-1.5-2.7-2.6-4-3.9
		c-1.4-1.4-3.1-2.6-4.1-4.3c-1-1.6-1.2-3.6-1.9-5.4c-1.5-3.4-2.4-5-6.7-4.7c-4.7,0.3-8.8-0.9-12.5-3.9c-0.3-0.2-0.6-0.3-0.9-0.6
		c-1.7-1.5-3.6-1.8-5.6-1c-1.2,0.5-2.2,1.3-3.3,1.9c-1.7,1-3.2,2.4-5.1,3c-1.9,0.6-4.1,0.4-6.2,0.5c-4.3,0.1-5.7,1-7.2,5
		c-0.2,0.4-0.3,0.9-0.4,1.3c-0.8,3.6-3,6.1-6,8.3c-5.1,3.7-5.1,4.5-3.4,10.2c0.5,1.6,1.1,3.3,1,4.9c-0.2,2.5-0.9,5-1.6,7.5
		c-0.9,3.1-0.1,5.4,2.5,7.3c3.1,2.3,6.2,4.5,7.2,8.5c0.5,2,1.9,3.8,0.9,6.2c-2.3,5.6-4.3,11.3-6.4,17.1c-0.7,2-0.3,2.6,1.9,2.5
		c3.1-0.1,6.3-0.5,9.4-0.7c0.5,0,1.1,0.1,1.4,0.4c1.3,1.3,2.5,2.7,3.7,4.1C695.6,122.2,696.5,123.5,697.5,124.7z"/>
	<path class="st9" d="M697.5,124.7c-1-1.3-1.9-2.5-2.9-3.7c-1.2-1.4-2.4-2.8-3.7-4.1c-0.3-0.3-0.9-0.4-1.4-0.4
		c-3.1,0.2-6.3,0.5-9.4,0.7c-2.2,0.1-2.6-0.5-1.9-2.5c2.1-5.7,4.1-11.4,6.4-17.1c1-2.4-0.4-4.2-0.9-6.2c-1-4-4.1-6.3-7.2-8.5
		c-2.6-1.9-3.3-4.2-2.5-7.3c0.7-2.5,1.4-5,1.6-7.5c0.1-1.6-0.5-3.3-1-4.9c-1.6-5.7-1.7-6.5,3.4-10.2c3-2.2,5.2-4.7,6-8.3
		c0.1-0.5,0.2-0.9,0.4-1.3c1.4-4,2.9-5,7.2-5c2.1,0,4.3,0.1,6.2-0.5c1.8-0.5,3.4-2,5.1-3c1.1-0.7,2.1-1.5,3.3-1.9
		c2-0.8,3.9-0.4,5.6,1c0.3,0.2,0.6,0.3,0.9,0.6c3.6,2.9,7.7,4.1,12.5,3.9c4.3-0.2,5.2,1.3,6.7,4.7c0.8,1.8,1,3.8,1.9,5.4
		c1,1.6,2.7,2.9,4.1,4.3c1.3,1.3,2.9,2.4,4,3.9c0.6,0.8,0.8,2.2,0.6,3.3c-0.5,2.4-1.7,4.8-1.8,7.2c-0.1,2.6,0.9,5.3,1.3,7.9
		c0.2,1.3,0.9,2.8,0.5,3.9c-0.4,1.4-1.6,2.7-2.6,3.8c-1.2,1.2-2.7,2.1-4,3.1c-2.2,1.6-2.5,4.3-3.7,6.5c-1.6,3.1-0.4,5.8,0.7,8.6
		c1.8,4.4,3.5,8.8,5.2,13.3c0.8,2.2,0.1,3.1-2.1,2.9c-2.6-0.1-5.2-0.5-7.8-0.7c-1.6-0.1-2.7,0.1-3.7,1.6c-1.7,2.4-3.9,4.5-6,6.7
		c-0.4,0-0.7,0-1.1,0c-1.6-3.5-3.2-6.9-4.7-10.4c-1.2-2.8-2.2-5.6-3.3-8.4c-0.2-0.5-0.8-1-1.1-1.4c-0.4,0.4-0.9,0.7-1.2,1.1
		c-0.2,0.2-0.1,0.6-0.2,0.8c-2.6,6.1-5.3,12.2-7.9,18.3C698.4,124.7,697.9,124.7,697.5,124.7z M692.6,42c-0.3,0-0.6,0-0.9,0
		c-2-0.3-3.2,0.5-3.9,2.5c-1,2.7-1.3,5.8-3.7,7.8c-1.3,1.1-2.6,2.4-4,3.4c-3.3,2.4-3.3,2.4-2.2,6.3c0.6,2.1,1.4,4.3,1.4,6.4
		c-0.1,2.4-0.9,4.8-1.5,7.1c-0.8,2.9-0.7,3.5,1.6,5.3c0.1,0.1,0.3,0.1,0.5,0.2c1.5,1.3,3.5,2.4,4.5,4.1c1.7,2.7,2.7,5.8,4.1,8.6
		c0.3,0.6,1,1.2,1.6,1.3c2.4,0.3,4.9,0.3,7.3,0.4c0.5,0,0.9,0.2,1.4,0.3c3.2,0.4,5.1,2.9,7.6,4.4c1.2,0.7,2.1,1,3.3,0
		c4.3-3.5,9.2-5.3,14.9-5.1c3,0.1,3.1,0,4-3c1.4-4.8,3.9-8.8,8.4-11.4c1.9-1,3.1-2.4,1.8-4.7c-0.3-0.5-0.4-1.2-0.5-1.8
		c-0.7-2.8-1.9-5.4-0.9-8.4c0.6-1.8,1.1-3.6,1.7-5.5c0.4-1.3,0.3-2.3-1.1-3.2c-2.1-1.4-4.2-2.9-5.7-4.9c-1.6-2.2-2.6-4.9-3.6-7.5
		c-1-2.5-1.2-2.7-3.8-2.7c-3.2,0-6.5,0.4-9.5-1.4c-2-1.2-3.9-2.6-5.9-3.7c-0.7-0.4-1.8-0.5-2.5-0.2c-1.1,0.4-2.3,1.1-3.1,1.9
		C700.6,41.4,696.7,42,692.6,42z M733.9,113.3c-1.8-4.7-3.6-9.2-5.4-13.6c-0.2-0.4-0.7-0.9-1-0.9c-5.1,0-10.2-0.4-14.4,3.5
		c-0.9,0.8-0.9,1.2-0.5,2.2c0.8,1.8,1.5,3.6,2.2,5.5c1.2,3.2,2.5,6.3,3.8,9.8c1.6-1.9,3.1-3.6,4.5-5.3c0.8-0.9,1.6-1.6,2.9-1.5
		C728.6,113,731.2,113.1,733.9,113.3z M682.5,113.6c2.3-0.3,4.1-0.6,5.9-0.7c2.3-0.2,4.3,0,5.6,2.4c0.9,1.6,2.4,2.8,3.6,4.1
		c0.2-0.2,0.4-0.3,0.5-0.5c1.7-4.6,3.3-9.3,5.3-13.8c0.6-1.5,0.5-2.3-0.6-3.1c-1.6-1-3.1-2.3-4.9-2.6c-3-0.6-6.1-0.5-9.2-0.7
		c-0.3,0-0.8,0.5-0.9,0.9c-1.5,3.6-2.9,7.2-4.3,10.8C683.1,111.4,682.8,112.4,682.5,113.6z"/>
	<path class="st8" d="M698.9,124.7c2.6-6.1,5.3-12.2,7.9-18.3c0.1-0.3,0-0.6,0.2-0.8c0.3-0.4,0.8-0.7,1.2-1.1
		c0.4,0.5,0.9,0.9,1.1,1.4c1.1,2.8,2.1,5.6,3.3,8.4c1.5,3.5,3.1,6.9,4.7,10.4C711.2,124.7,705.1,124.7,698.9,124.7z"/>
	<path class="st8" d="M692.6,42c4.1,0,8-0.5,11.1-3.5c0.9-0.8,2-1.5,3.1-1.9c0.7-0.3,1.8-0.2,2.5,0.2c2,1.1,3.9,2.5,5.9,3.7
		c3,1.8,6.3,1.4,9.5,1.4c2.6,0,2.8,0.3,3.8,2.7c1,2.6,2,5.3,3.6,7.5c1.4,2,3.6,3.5,5.7,4.9c1.3,0.9,1.5,1.9,1.1,3.2
		c-0.6,1.8-1.1,3.7-1.7,5.5c-1,2.9,0.2,5.6,0.9,8.4c0.2,0.6,0.2,1.3,0.5,1.8c1.3,2.3,0.1,3.7-1.8,4.7c-4.5,2.5-6.9,6.5-8.4,11.4
		c-0.9,3-1,3.1-4,3c-5.7-0.2-10.6,1.6-14.9,5.1c-1.2,1-2.2,0.7-3.3,0c-2.5-1.5-4.5-4-7.6-4.4c-0.5-0.1-0.9-0.3-1.4-0.3
		c-2.4-0.1-4.9-0.2-7.3-0.4c-0.6-0.1-1.3-0.7-1.6-1.3c-1.4-2.9-2.4-5.9-4.1-8.6c-1-1.7-3-2.8-4.5-4.1c-0.1-0.1-0.3-0.1-0.5-0.2
		c-2.3-1.8-2.4-2.4-1.6-5.3c0.7-2.3,1.5-4.7,1.5-7.1c0-2.1-0.7-4.3-1.4-6.4c-1.1-3.9-1.1-3.9,2.2-6.3c1.4-1,2.7-2.2,4-3.4
		c2.4-2,2.7-5.1,3.7-7.8c0.8-2.1,1.9-2.8,3.9-2.5C692,42,692.3,42,692.6,42z M708.1,45.2c-13.6-0.5-23.6,11-23.6,23.2
		c0,13.3,10.7,23.2,22.5,23.7c14,0.6,25.1-11,24.7-24.5C731.5,56,721.3,44.6,708.1,45.2z"/>
	<path class="st8" d="M733.9,113.3c-2.7-0.2-5.3-0.3-7.8-0.5c-1.3-0.1-2.2,0.6-2.9,1.5c-1.4,1.7-2.9,3.4-4.5,5.3
		c-1.3-3.4-2.6-6.6-3.8-9.8c-0.7-1.8-1.4-3.7-2.2-5.5c-0.4-1-0.4-1.4,0.5-2.2c4.2-3.9,9.3-3.5,14.4-3.5c0.4,0,0.9,0.5,1,0.9
		C730.3,104.1,732,108.6,733.9,113.3z"/>
	<path class="st8" d="M682.5,113.6c0.4-1.2,0.6-2.2,1-3.1c1.4-3.6,2.8-7.2,4.3-10.8c0.1-0.4,0.6-0.9,0.9-0.9
		c3.1,0.1,6.2,0.1,9.2,0.7c1.7,0.3,3.3,1.6,4.9,2.6c1.2,0.8,1.3,1.6,0.6,3.1c-2,4.5-3.5,9.2-5.3,13.8c-0.1,0.1-0.3,0.2-0.5,0.5
		c-1.2-1.4-2.7-2.6-3.6-4.1c-1.4-2.3-3.4-2.6-5.6-2.4C686.5,113,684.7,113.3,682.5,113.6z"/>
	<path class="st9" d="M708.1,45.2c13.2-0.6,23.4,10.8,23.7,22.5c0.3,13.5-10.7,25.1-24.7,24.5c-11.8-0.5-22.6-10.4-22.5-23.7
		C684.5,56.2,694.5,44.7,708.1,45.2z M728.2,68.5c0.5-10.9-8.8-20.6-21.2-20C696.5,49,688.8,56.7,688,67
		c-0.9,12.3,9.3,22.5,21.4,21.6C719,88,728.8,80,728.2,68.5z"/>
	<path class="st8" d="M728.2,68.5C728.8,80,719,88,709.4,88.6c-12.1,0.8-22.3-9.3-21.4-21.6c0.8-10.3,8.5-18,18.9-18.5
		C719.4,47.8,728.7,57.6,728.2,68.5z M715.4,81.3c1.5-0.1,1.9-1.2,1.9-2.2c0-1.1-0.3-2.2-0.6-3.3c-0.6-2.4-0.8-4.6,1.7-6.3
		c1.1-0.7,1.9-1.8,2.8-2.8c1.2-1.3,0.7-2.7-0.9-3.1c-1.1-0.2-2.2-0.3-3.3-0.4c-2.4-0.2-4.6-0.7-5.4-3.4c-0.3-1.1-0.9-2.2-1.5-3.1
		c-0.5-0.7-1.3-1.6-1.9-1.6c-0.6,0-1.4,1-1.8,1.7c-0.9,1.4-1.6,3-2.3,4.5c-0.5,1-1.2,1.6-2.4,1.7c-1.9,0.1-3.7,0.4-5.6,0.7
		c-1.3,0.2-2.1,1.5-1.5,2.2c0.9,1,1.9,1.9,2.8,2.9c1.1,1.2,3,1.9,2.8,4c-0.2,2-0.6,3.9-0.9,5.9c-0.1,0.7,0,1.7,0.4,2
		c0.5,0.4,1.5,0.5,2.1,0.2c1.6-0.6,3.1-1.4,4.5-2.3c1.4-0.9,2.4-0.9,3.8,0C711.7,79.6,713.6,80.4,715.4,81.3z"/>
	<path class="st9" d="M715.4,81.3c-1.8-0.9-3.7-1.7-5.4-2.7c-1.4-0.9-2.5-0.9-3.8,0c-1.4,0.9-2.9,1.7-4.5,2.3
		c-0.6,0.2-1.7,0.2-2.1-0.2c-0.4-0.3-0.4-1.3-0.4-2c0.2-2,0.7-3.9,0.9-5.9c0.2-2-1.8-2.7-2.8-4c-0.9-1-1.9-1.9-2.8-2.9
		c-0.6-0.7,0.2-1.9,1.5-2.2c1.8-0.3,3.7-0.6,5.6-0.7c1.3-0.1,1.9-0.6,2.4-1.7c0.7-1.5,1.5-3.1,2.3-4.5c0.4-0.7,1.2-1.7,1.8-1.7
		c0.7,0,1.5,0.9,1.9,1.6c0.6,1,1.2,2,1.5,3.1c0.8,2.8,3,3.3,5.4,3.4c1.1,0.1,2.2,0.2,3.3,0.4c1.7,0.4,2.1,1.8,0.9,3.1
		c-0.9,1-1.7,2.1-2.8,2.8c-2.5,1.6-2.3,3.8-1.7,6.3c0.3,1.1,0.6,2.2,0.6,3.3C717.3,80.1,717,81.1,715.4,81.3z M716.3,66.7
		c-3.5-0.1-6.2-1-7.2-4.6c0-0.1,0-0.1-0.1-0.2c-0.3-0.3-0.6-0.6-0.9-0.8c-0.3,0.3-0.6,0.7-0.8,1c-0.9,1.2-1.4,2.8-2.6,3.6
		c-1.2,0.8-3,0.7-5,1.1c0.9,0.7,1.6,1.3,2.3,1.9c1.9,1.5,2,3.4,1.4,5.6c-0.1,0.5,0.1,1.1,0.1,1.7c0.5-0.1,1-0.2,1.4-0.5
		c2.1-1.5,4.2-2,6.4-0.1c0.4,0.3,1,0.4,2.2,0.9C711.8,72,712.8,69,716.3,66.7z"/>
	<path class="st8" d="M716.3,66.7c-3.5,2.3-4.5,5.3-2.8,9.6c-1.2-0.4-1.8-0.5-2.2-0.9c-2.2-1.9-4.2-1.4-6.4,0.1
		c-0.4,0.3-1,0.3-1.4,0.5c-0.1-0.6-0.3-1.2-0.1-1.7c0.6-2.2,0.5-4.1-1.4-5.6c-0.7-0.6-1.4-1.1-2.3-1.9c2-0.4,3.8-0.3,5-1.1
		c1.2-0.7,1.8-2.3,2.6-3.6c0.2-0.4,0.5-0.7,0.8-1c0.3,0.3,0.6,0.6,0.9,0.8c0,0,0,0.1,0.1,0.2C710,65.7,712.8,66.6,716.3,66.7z"/>
</g>
</svg>
