<?xml version="1.0" encoding="utf-8"?>
<!-- Generator: Adobe Illustrator 27.7.0, SVG Export Plug-In . SVG Version: 6.00 Build 0)  -->
<svg version="1.1" id="Ebene_1" xmlns="http://www.w3.org/2000/svg" xmlns:xlink="http://www.w3.org/1999/xlink" x="0px" y="0px"
	 viewBox="0 0 936.1 505.3" style="enable-background:new 0 0 936.1 505.3;" xml:space="preserve">
<style type="text/css">
	.st0{fill:#E4E4E4;}
	.st1{fill:#F2F2F2;}
	.st2{fill:#E6E6E6;}
	.st3{fill:#3F3D56;}
	.st4{fill:#FFB6B6;}
	.st5{fill:#BB1C16;}
	.st6{fill:#2F2E41;}
	.st7{fill:#CCCCCC;}
	.st8{fill:#FFFFFF;}
	.st9{fill:#CACACA;}
	.st10{fill:#9E616A;}
	.st11{fill:#4E342E;}
</style>
<path class="st0" d="M59.3,422l-2.9,14.7c-0.2,1.1-0.4,2.3-0.7,3.4c-2.4-0.5-5-0.4-7.3,0.4c1.9,2.7,3.6,5.5,5,8.4
	c-1.8,5.7-4.5,10.9-9.1,14.7c-6.1,5-14.5,6.5-21.9,3.9l0.1-0.6c-4.9-9.4-2.2-21.3,3.8-30c3.1-4.3,6.7-8.2,10.9-11.5
	c4.1-3.4,8.5-6.5,12.9-9.5c2.7-1.9,6.5-1.2,8.3,1.5C59.3,418.8,59.6,420.4,59.3,422z"/>
<path id="b311a411-101b-4365-a37b-2cdfec47a637-959" class="st1" d="M23.4,502.7c-1.2-9-2.5-18-1.6-27.1c0.8-8,3.2-15.9,8.2-22.3
	c2.6-3.4,5.9-6.3,9.5-8.6c1-0.6,1.8,0.9,0.9,1.5c-6.3,4-11.2,9.9-14,16.8c-3,7.7-3.5,16.2-3,24.4c0.3,5,1,9.9,1.7,14.8
	c0.1,0.5-0.2,0.9-0.6,1.1C24,503.4,23.5,503.2,23.4,502.7L23.4,502.7z"/>
<path class="st2" d="M34,53.6c42.8-0.7,85.7-0.9,128.5-0.3c42.8,0.5,85.7,1.7,128.5,3.5c24,1,48,2.2,72,3.7c1.9,0.1,1.9-2.9,0-3
	c-42.8-2.5-85.6-4.4-128.4-5.7c-42.8-1.3-85.7-1.9-128.5-1.8C82,50,58,50.2,34,50.6C32,50.7,32,53.7,34,53.6L34,53.6z"/>
<path class="st2" d="M332.5,34.8l18.7-1.4c1.9-0.1,1.9-3.1,0-3l-18.7,1.4C330.6,32,330.6,35,332.5,34.8z"/>
<path class="st2" d="M332.5,52.8l18.7-1.4c1.9-0.1,1.9-3.1,0-3l-18.7,1.4C330.6,50,330.6,53,332.5,52.8z"/>
<path class="st2" d="M331.1,44.6l26.6,2.4c1.9,0.2,1.9-2.8,0-3l-26.6-2.4C329.2,41.4,329.2,44.4,331.1,44.6z"/>
<path class="st2" d="M45,30.8c-2.7,0-5.1,1.6-6.1,4c-1.2,2.4-0.6,5.3,1.4,7.1c1.9,1.6,4.4,2.1,6.7,1.4c2.4-0.8,4-3.1,4-5.6
	c0.1-2.8-1.6-5.4-4.2-6.5c-0.8-0.2-1.6,0.3-1.8,1c-0.2,0.8,0.3,1.6,1,1.8c0.3,0.1-0.2-0.1,0,0c0.1,0.1,0.2,0.1,0.3,0.2
	c0.1,0,0.2,0.1,0.2,0.2c0.3,0.2-0.1-0.1,0,0c0.2,0.1,0.3,0.3,0.5,0.4c0.1,0.1,0.3,0.2,0.1,0.1c-0.1-0.1,0-0.1,0,0
	c0,0.1,0.1,0.1,0.1,0.2c0.1,0.2,0.2,0.4,0.3,0.6c0,0,0,0.1,0.1,0.1c0,0.1,0.1,0.1,0,0c-0.1-0.1,0-0.1,0,0c0,0.1,0,0.1,0.1,0.2
	c0.1,0.2,0.1,0.4,0.2,0.6c0,0.1,0,0.2,0.1,0.3c0.1,0.3,0-0.2,0,0c0,0.2,0,0.4,0,0.6c0,0.1,0,0.2,0,0.3c0,0,0,0.1,0,0.1
	c0,0.2,0-0.1,0-0.1c-0.1,0.2-0.1,0.4-0.1,0.6c0,0.1-0.1,0.2-0.1,0.3c-0.1,0.3,0.1-0.2,0,0c-0.1,0.2-0.2,0.4-0.3,0.5
	c0,0.1-0.2,0.2-0.1,0.1c0.2-0.1-0.1,0.1-0.1,0.1c-0.1,0.1-0.1,0.1-0.2,0.2c0,0-0.1,0.1-0.1,0.1c0,0,0.3-0.2,0.1-0.1
	c-0.2,0.1-0.3,0.2-0.5,0.3c0,0-0.3,0.1-0.3,0.1c0,0,0.3-0.1,0.1,0c0,0-0.1,0-0.1,0c-0.2,0.1-0.4,0.1-0.6,0.2c0,0-0.1,0-0.1,0
	c-0.2,0,0.1,0,0.2,0c-0.1,0-0.2,0-0.3,0c-0.2,0-0.4,0-0.6,0c0,0-0.1,0-0.1,0c-0.1,0-0.2-0.1,0,0c0.1,0.1,0.1,0,0,0c0,0-0.1,0-0.1,0
	c-0.2,0-0.4-0.1-0.6-0.2c-0.1,0-0.2-0.1-0.3-0.1c0,0-0.1,0-0.1-0.1c0,0,0.3,0.1,0.1,0.1c-0.2-0.1-0.4-0.2-0.6-0.3
	c-0.1-0.1-0.2-0.1-0.3-0.2c0,0-0.1-0.1-0.1-0.1c0,0,0.2,0.2,0.1,0.1c-0.2-0.1-0.3-0.3-0.5-0.4c0,0-0.1-0.1-0.1-0.1l0,0
	c-0.1-0.1-0.1-0.1,0,0c0.1,0,0.1,0.1,0,0c0,0-0.1-0.1-0.1-0.1c-0.1-0.2-0.2-0.4-0.3-0.6c0,0,0.1,0.4,0,0.1c0-0.1,0-0.1-0.1-0.2
	c0-0.1-0.1-0.2-0.1-0.3c0-0.1,0-0.2-0.1-0.3c0-0.2,0,0.1,0,0.1c0,0,0-0.2,0-0.2c0-0.2,0-0.5,0-0.7c0-0.2,0,0.1,0,0.1
	c0-0.1,0-0.1,0-0.2c0-0.1,0.1-0.2,0.1-0.4c0-0.1,0.1-0.3,0.1-0.4c0-0.1,0-0.1,0.1-0.2c0.1-0.2-0.1,0.2,0,0.1
	c0.1-0.2,0.2-0.5,0.4-0.7c0-0.1,0.3-0.4,0.1-0.2c-0.1,0.2,0.1-0.1,0.2-0.2c0.2-0.2,0.4-0.4,0.6-0.6c0.1-0.1-0.1,0.1-0.1,0.1
	c0.1,0,0.1-0.1,0.2-0.1c0.1-0.1,0.2-0.1,0.3-0.2c0.1-0.1,0.3-0.1,0.4-0.2c0.1-0.1-0.1,0-0.1,0c0.1,0,0.1-0.1,0.2-0.1
	c0.1,0,0.6-0.3,0.7-0.2c0,0-0.4,0-0.1,0c0.1,0,0.1,0,0.2,0c0.1,0,0.3,0,0.4,0c0.8,0,1.5-0.7,1.5-1.5C46.5,31.5,45.9,30.8,45,30.8
	L45,30.8z"/>
<path class="st2" d="M66,30.8c-2.7,0-5.1,1.6-6.1,4c-1.2,2.4-0.6,5.3,1.4,7.1c1.9,1.6,4.4,2.1,6.7,1.4c2.4-0.8,4-3.1,4-5.6
	c0.1-2.8-1.6-5.4-4.2-6.5c-0.8-0.2-1.6,0.3-1.8,1c-0.2,0.8,0.3,1.6,1,1.8c0.3,0.1-0.2-0.1,0,0c0.1,0.1,0.2,0.1,0.3,0.2
	c0.1,0,0.2,0.1,0.2,0.2c0.3,0.2-0.1-0.1,0,0c0.2,0.1,0.3,0.3,0.5,0.4c0.1,0.1,0.3,0.2,0.1,0.1c-0.1-0.1,0-0.1,0,0
	c0,0.1,0.1,0.1,0.1,0.2c0.1,0.2,0.2,0.4,0.3,0.6c0,0,0,0.1,0.1,0.1c0,0.1,0.1,0.1,0,0c-0.1-0.1,0-0.1,0,0c0,0.1,0,0.1,0.1,0.2
	c0.1,0.2,0.1,0.4,0.2,0.6c0,0.1,0,0.2,0.1,0.3c0.1,0.3,0-0.2,0,0c0,0.2,0,0.4,0,0.6c0,0.1,0,0.2,0,0.3c0,0,0,0.1,0,0.1
	c0,0.2,0-0.1,0-0.1c-0.1,0.2-0.1,0.4-0.1,0.6c0,0.1-0.1,0.2-0.1,0.3c-0.1,0.3,0.1-0.2,0,0c-0.1,0.2-0.2,0.4-0.3,0.5
	c0,0.1-0.2,0.2-0.1,0.1c0.2-0.1-0.1,0.1-0.1,0.1c-0.1,0.1-0.1,0.1-0.2,0.2c0,0-0.1,0.1-0.1,0.1c0,0,0.3-0.2,0.1-0.1
	c-0.2,0.1-0.3,0.2-0.5,0.3c0,0-0.3,0.1-0.3,0.1c0,0,0.3-0.1,0.1,0c0,0-0.1,0-0.1,0c-0.2,0.1-0.4,0.1-0.6,0.2c0,0-0.1,0-0.1,0
	c-0.2,0,0.1,0,0.2,0c-0.1,0-0.2,0-0.3,0c-0.2,0-0.4,0-0.6,0c0,0-0.1,0-0.1,0c-0.1,0-0.2-0.1,0,0c0.1,0.1,0.1,0,0,0c0,0-0.1,0-0.1,0
	c-0.2,0-0.4-0.1-0.6-0.2c-0.1,0-0.2-0.1-0.3-0.1c0,0-0.1,0-0.1-0.1c0,0,0.3,0.1,0.1,0.1c-0.2-0.1-0.4-0.2-0.6-0.3
	c-0.1-0.1-0.2-0.1-0.3-0.2c0,0-0.1-0.1-0.1-0.1c0,0,0.2,0.2,0.1,0.1c-0.2-0.1-0.3-0.3-0.5-0.4c0,0-0.1-0.1-0.1-0.1l0,0
	c-0.1-0.1-0.1-0.1,0,0c0.1,0,0.1,0.1,0,0c0,0-0.1-0.1-0.1-0.1c-0.1-0.2-0.2-0.4-0.3-0.6c0,0,0.1,0.4,0,0.1c0-0.1,0-0.1-0.1-0.2
	c0-0.1-0.1-0.2-0.1-0.3c0-0.1,0-0.2-0.1-0.3c0-0.2,0,0.1,0,0.1c0,0,0-0.2,0-0.2c0-0.2,0-0.5,0-0.7c0-0.2,0,0.1,0,0.1
	c0-0.1,0-0.1,0-0.2c0-0.1,0.1-0.2,0.1-0.4c0-0.1,0.1-0.3,0.1-0.4c0-0.1,0-0.1,0.1-0.2c0.1-0.2-0.1,0.2,0,0.1
	c0.1-0.2,0.2-0.5,0.4-0.7c0-0.1,0.3-0.4,0.1-0.2c-0.1,0.2,0.1-0.1,0.2-0.2c0.2-0.2,0.4-0.4,0.6-0.6c0.1-0.1-0.1,0.1-0.1,0.1
	c0.1,0,0.1-0.1,0.2-0.1c0.1-0.1,0.2-0.1,0.3-0.2c0.1-0.1,0.3-0.1,0.4-0.2c0.1-0.1-0.1,0-0.1,0c0.1,0,0.1-0.1,0.2-0.1
	c0.1,0,0.6-0.3,0.7-0.2c0,0-0.4,0-0.1,0c0.1,0,0.1,0,0.2,0c0.1,0,0.3,0,0.4,0c0.8,0,1.5-0.7,1.5-1.5C67.5,31.5,66.9,30.8,66,30.8
	L66,30.8z"/>
<path class="st2" d="M87,30.8c-2.7,0-5.1,1.6-6.1,4c-1.2,2.4-0.6,5.3,1.4,7.1c1.9,1.6,4.4,2.1,6.7,1.4c2.4-0.8,4-3.1,4-5.6
	c0.1-2.8-1.6-5.4-4.2-6.5c-0.8-0.2-1.6,0.3-1.8,1c-0.2,0.8,0.3,1.6,1,1.8c0.3,0.1-0.2-0.1,0,0c0.1,0.1,0.2,0.1,0.3,0.2
	c0.1,0,0.2,0.1,0.2,0.2c0.3,0.2-0.1-0.1,0,0c0.2,0.1,0.3,0.3,0.5,0.4c0.1,0.1,0.3,0.2,0.1,0.1c-0.1-0.1,0-0.1,0,0
	c0,0.1,0.1,0.1,0.1,0.2c0.1,0.2,0.2,0.4,0.3,0.6c0,0,0,0.1,0.1,0.1c0,0.1,0.1,0.1,0,0c-0.1-0.1,0-0.1,0,0c0,0.1,0,0.1,0.1,0.2
	c0.1,0.2,0.1,0.4,0.2,0.6c0,0.1,0,0.2,0.1,0.3c0.1,0.3,0-0.2,0,0c0,0.2,0,0.4,0,0.6c0,0.1,0,0.2,0,0.3c0,0,0,0.1,0,0.1
	c0,0.2,0-0.1,0-0.1c-0.1,0.2-0.1,0.4-0.1,0.6c0,0.1-0.1,0.2-0.1,0.3c-0.1,0.3,0.1-0.2,0,0c-0.1,0.2-0.2,0.4-0.3,0.5
	c0,0.1-0.2,0.2-0.1,0.1c0.2-0.1-0.1,0.1-0.1,0.1c-0.1,0.1-0.1,0.1-0.2,0.2c0,0-0.1,0.1-0.1,0.1c0,0,0.3-0.2,0.1-0.1
	c-0.2,0.1-0.3,0.2-0.5,0.3c0,0-0.3,0.1-0.3,0.1c0,0,0.3-0.1,0.1,0c0,0-0.1,0-0.1,0c-0.2,0.1-0.4,0.1-0.6,0.2c0,0-0.1,0-0.1,0
	c-0.2,0,0.1,0,0.2,0c-0.1,0-0.2,0-0.3,0c-0.2,0-0.4,0-0.6,0c0,0-0.1,0-0.1,0c-0.1,0-0.2-0.1,0,0c0.1,0.1,0.1,0,0,0c0,0-0.1,0-0.1,0
	c-0.2,0-0.4-0.1-0.6-0.2c-0.1,0-0.2-0.1-0.3-0.1c0,0-0.1,0-0.1-0.1c0,0,0.3,0.1,0.1,0.1c-0.2-0.1-0.4-0.2-0.6-0.3
	c-0.1-0.1-0.2-0.1-0.3-0.2c0,0-0.1-0.1-0.1-0.1c0,0,0.2,0.2,0.1,0.1c-0.2-0.1-0.3-0.3-0.5-0.4c0,0-0.1-0.1-0.1-0.1l0,0
	c-0.1-0.1-0.1-0.1,0,0c0.1,0,0.1,0.1,0,0c0,0-0.1-0.1-0.1-0.1c-0.1-0.2-0.2-0.4-0.3-0.6c0,0,0.1,0.4,0,0.1c0-0.1,0-0.1-0.1-0.2
	c0-0.1-0.1-0.2-0.1-0.3c0-0.1,0-0.2-0.1-0.3c0-0.2,0,0.1,0,0.1c0,0,0-0.2,0-0.2c0-0.2,0-0.5,0-0.7c0-0.2,0,0.1,0,0.1
	c0-0.1,0-0.1,0-0.2c0-0.1,0.1-0.2,0.1-0.4c0-0.1,0.1-0.3,0.1-0.4c0-0.1,0-0.1,0.1-0.2c0.1-0.2-0.1,0.2,0,0.1
	c0.1-0.2,0.2-0.5,0.4-0.7c0-0.1,0.3-0.4,0.1-0.2c-0.1,0.2,0.1-0.1,0.2-0.2c0.2-0.2,0.4-0.4,0.6-0.6c0.1-0.1-0.1,0.1-0.1,0.1
	c0.1,0,0.1-0.1,0.2-0.1c0.1-0.1,0.2-0.1,0.3-0.2c0.1-0.1,0.3-0.1,0.4-0.2c0.1-0.1-0.1,0-0.1,0c0.1,0,0.1-0.1,0.2-0.1
	c0.1,0,0.6-0.3,0.7-0.2c0,0-0.4,0-0.1,0c0.1,0,0.1,0,0.2,0c0.1,0,0.3,0,0.4,0c0.8,0,1.5-0.7,1.5-1.5C88.5,31.5,87.9,30.8,87,30.8
	L87,30.8z"/>
<path class="st2" d="M390.4,363H22.5C12.8,363,5,355.1,5,345.5V17.5C5,7.9,12.8,0,22.5,0h367.9c9.7,0,17.5,7.9,17.5,17.5v327.9
	C407.9,355.1,400.1,363,390.4,363z M22.5,2C13.9,2,7,9,7,17.5v327.9c0,8.6,7,15.5,15.5,15.5h367.9c8.6,0,15.5-7,15.5-15.5V17.5
	C405.9,9,399,2,390.4,2L22.5,2z"/>
<path class="st2" d="M21.9,223.1l129.4-0.4l128.7-0.4l72.6-0.2c0.8,0,1.5-0.7,1.4-1.6c0-0.8-0.7-1.4-1.4-1.4l-129.4,0.4l-128.7,0.4
	l-72.6,0.2c-0.8,0-1.5,0.7-1.4,1.6C20.5,222.4,21.1,223.1,21.9,223.1z"/>
<path class="st2" d="M87.2,220.7l0.8-47.2c0-1.9-3-1.9-3,0l-0.8,47.2C84.1,222.6,87.1,222.6,87.2,220.7z"/>
<path class="st2" d="M149,221.2l1.9-59.4l0.6-17c0.1-1.9-2.9-1.9-3,0l-1.9,59.4l-0.6,17C145.9,223.1,148.9,223.1,149,221.2z"/>
<path class="st2" d="M210.7,116.7c-1.2,21-3.4,83.1-4.5,104.1c-0.1,1.9,2.9,1.9,3,0c1.2-21,3.4-83.1,4.5-104.1
	C213.8,114.8,210.8,114.8,210.7,116.7z"/>
<path class="st2" d="M272,199.7l-0.4,20.2c0,1.9,3,1.9,3,0c0.4-23.9,1.5-23.1,1.7-29.8c0-1.9-3-1.9-3,0
	C273.3,190.1,272.5,175.8,272,199.7z"/>
<path class="st2" d="M332.2,146.6l0.3,56.7l0.1,16.2c0,0.8,0.7,1.5,1.6,1.4c0.8,0,1.4-0.7,1.4-1.4l-0.3-56.7l-0.1-16.2
	c0-0.8-0.7-1.5-1.6-1.4C332.8,145.2,332.2,145.8,332.2,146.6z"/>
<path class="st2" d="M22.1,221.4c-2.5-6.8,3.1-13.4,8.9-16.3c6.9-3.5,14.8-4.3,21.8-7.7c10.4-5.1,17.9-14.2,24.7-23.3
	c6.9-9.4,13.3-19.5,22.1-27.3c4.6-4.2,10.1-7.4,16.1-9.3c7.5-2.3,15.5-2.5,23.2-1.6c16,1.9,30.9,8.6,46.3,12.8
	c14.6,4,30.6,6.2,44.9,0c7.3-3.1,13.2-8.4,19.6-12.9c6.2-4.4,13.1-7.8,20.4-9.8c14.4-4,30-2.9,43.4,3.8c12.3,6.1,22,16.4,27.5,29
	c6.3,15.1,5.5,32.1,3.4,48c-0.5,4.1-1.2,8.2-1.8,12.3c-0.3,1.9,2.6,2.7,2.9,0.8c2.6-16.4,5.1-33.4,1.9-49.9
	c-2.8-14.4-10.7-27.4-22.3-36.4c-11.7-9-26.2-13.6-40.9-12.9c-7.7,0.4-15.3,2-22.5,5c-7.4,3.1-13.7,7.6-20.1,12.4
	c-6.6,4.9-13.3,9-21.5,10.6c-7.9,1.6-16.1,1-24-0.5c-16.2-3-31.4-10-47.5-13.5c-14.9-3.3-31-3.6-44.4,4.8
	c-10.3,6.5-17.5,16.5-24.5,26.3c-6.9,9.6-13.9,19.9-24,26.5c-6.2,4-13.1,5.5-20,7.7c-6.9,2.3-13.5,6.1-16.4,13.2
	c-1.2,2.9-1.3,6.2-0.3,9.2C19.9,224,22.8,223.2,22.1,221.4L22.1,221.4z"/>
<polygon class="st2" points="86.2,166.9 86.2,166.9 86.2,166.9 "/>
<path class="st2" d="M91.4,164.1c-1.4-2.5-4.5-3.7-7.2-2.7c-1.3,0.5-2.4,1.5-3,2.8c-0.1,0.1-0.1,0.3-0.1,0.4
	c-0.1,0.1-0.1,0.2-0.2,0.3c-1.5,2.9-0.3,6.5,2.7,8c2.2,1.1,4.8,0.7,6.6-0.9C92.4,170.1,92.9,166.8,91.4,164.1z M87.6,166.7
	C87.6,166.8,87.6,166.8,87.6,166.7z M87.2,165.8C87.2,165.8,87.2,165.8,87.2,165.8z M85.6,166.5C85.5,166.5,85.5,166.5,85.6,166.5z
	 M85.9,166.8C86,166.9,86,166.9,85.9,166.8z M86.1,166.9L86.1,166.9C86.2,166.9,86.1,166.9,86.1,166.9L86.1,166.9L86.1,166.9
	L86.1,166.9L86.1,166.9C86.2,166.9,86.2,166.9,86.1,166.9C86.4,166.8,86.2,166.9,86.1,166.9L86.1,166.9c-0.1-0.1-0.1-0.1-0.2-0.1
	c0,0,0,0,0,0c-0.1,0-0.3-0.3-0.1,0c-0.1-0.1-0.1-0.1-0.2-0.2c0,0-0.1-0.1-0.1-0.1c0-0.1-0.1-0.1-0.1-0.2l0,0c0,0,0,0,0-0.1
	c0,0,0,0,0-0.1c0-0.1,0-0.1,0-0.2l0,0c0-0.1,0.1-0.1,0.1-0.2c-0.2,0.3,0.1,0,0.1-0.1c0,0,0,0,0,0c0,0,0,0,0,0c0.1,0,0.1-0.1,0.2-0.1
	c0.1,0,0.4-0.1,0.1,0c0.1,0,0.1,0,0.2-0.1c0,0,0.1,0,0.2,0c0.1,0,0.1,0,0.1,0c0,0,0,0,0.1,0c-0.1,0,0.2,0.1,0.3,0.1c0,0,0,0,0,0
	c0.1,0,0.1,0.1,0.2,0.1c-0.3-0.2,0,0,0.1,0.1c0,0,0.1,0.1,0.1,0.1c0,0,0.1,0.1,0.1,0.1c0,0.1,0.1,0.2,0.1,0.3l0,0c0,0,0,0,0,0
	c0,0.1,0.1,0.3,0.1,0.4c0,0,0,0,0,0c0,0.1,0,0.2,0,0.2l0,0C87.2,166.7,86.6,166.7,86.1,166.9L86.1,166.9z"/>
<path class="st2" d="M86.2,166.9C86.2,166.9,86.2,166.9,86.2,166.9L86.2,166.9z"/>
<path class="st2" d="M86.2,166.9L86.2,166.9L86.2,166.9z"/>
<path class="st2" d="M86.2,166.9L86.2,166.9C86.2,166.9,86.2,166.9,86.2,166.9z"/>
<polygon class="st2" points="86.2,166.9 86.2,166.9 86.2,166.9 "/>
<polygon class="st2" points="150.2,138.9 150.2,138.9 150.2,138.9 "/>
<path class="st2" d="M155.4,136.1c-1.4-2.5-4.5-3.7-7.2-2.7c-1.3,0.5-2.4,1.5-3,2.8c-0.1,0.1-0.1,0.3-0.1,0.4
	c-0.1,0.1-0.1,0.2-0.2,0.3c-1.5,2.9-0.3,6.5,2.7,8c2.2,1.1,4.8,0.7,6.6-0.9C156.4,142.1,156.9,138.8,155.4,136.1z M151.6,138.7
	C151.6,138.8,151.6,138.8,151.6,138.7z M151.2,137.8C151.2,137.8,151.2,137.8,151.2,137.8z M149.6,138.5
	C149.5,138.5,149.5,138.5,149.6,138.5z M149.9,138.8C150,138.9,150,138.9,149.9,138.8z M150.1,138.9L150.1,138.9
	C150.2,138.9,150.1,138.9,150.1,138.9L150.1,138.9L150.1,138.9L150.1,138.9L150.1,138.9C150.2,138.9,150.2,138.9,150.1,138.9
	C150.4,138.8,150.2,138.9,150.1,138.9L150.1,138.9c-0.1-0.1-0.1-0.1-0.2-0.1c0,0,0,0,0,0c-0.1,0-0.3-0.3-0.1,0
	c-0.1-0.1-0.1-0.1-0.2-0.2c0,0-0.1-0.1-0.1-0.1c0-0.1-0.1-0.1-0.1-0.2l0,0c0,0,0,0,0-0.1c0,0,0,0,0-0.1c0-0.1,0-0.1,0-0.2l0,0
	c0-0.1,0.1-0.1,0.1-0.2c-0.2,0.3,0.1,0,0.1-0.1c0,0,0,0,0,0c0,0,0,0,0,0c0.1,0,0.1-0.1,0.2-0.1c0.1,0,0.4-0.1,0.1,0
	c0.1,0,0.1,0,0.2-0.1c0,0,0.1,0,0.2,0c0.1,0,0.1,0,0.1,0c0,0,0,0,0.1,0c-0.1,0,0.2,0.1,0.3,0.1c0,0,0,0,0,0c0.1,0,0.1,0.1,0.2,0.1
	c-0.3-0.2,0,0,0.1,0.1c0,0,0.1,0.1,0.1,0.1c0,0,0.1,0.1,0.1,0.1c0,0.1,0.1,0.2,0.1,0.3l0,0c0,0,0,0,0,0c0,0.1,0.1,0.3,0.1,0.4
	c0,0,0,0,0,0c0,0.1,0,0.2,0,0.2l0,0C151.2,138.7,150.6,138.7,150.1,138.9L150.1,138.9z"/>
<path class="st2" d="M150.2,138.9L150.2,138.9C150.2,138.9,150.2,138.9,150.2,138.9z"/>
<polygon class="st2" points="150.2,138.9 150.2,138.9 150.2,138.9 "/>
<path class="st2" d="M150.2,138.9C150.2,138.9,150.2,138.9,150.2,138.9L150.2,138.9z"/>
<path class="st2" d="M150.2,138.9L150.2,138.9L150.2,138.9z"/>
<polygon class="st2" points="212.2,152.9 212.2,152.9 212.2,152.9 "/>
<path class="st2" d="M217.4,108.1c-1.4-2.5-4.5-3.7-7.2-2.7c-1.3,0.5-2.4,1.5-3,2.8c-0.1,0.1-0.1,0.3-0.1,0.4
	c-0.1,0.1-0.1,0.2-0.2,0.3c-1.5,2.9-0.3,6.5,2.7,8c2.2,1.1,4.8,0.7,6.6-0.9C218.4,114.1,218.9,110.8,217.4,108.1z M213.6,110.7
	C213.6,110.8,213.6,110.8,213.6,110.7z M213.2,109.8C213.2,109.8,213.2,109.8,213.2,109.8z M211.6,110.5
	C211.5,110.5,211.5,110.5,211.6,110.5z M211.9,110.8C212,110.9,212,110.9,211.9,110.8z M212.1,110.9L212.1,110.9
	C212.2,110.9,212.1,110.9,212.1,110.9L212.1,110.9L212.1,110.9L212.1,110.9L212.1,110.9C212.2,110.9,212.2,110.9,212.1,110.9
	C212.4,110.8,212.2,110.9,212.1,110.9L212.1,110.9c-0.1-0.1-0.1-0.1-0.2-0.1c0,0,0,0,0,0c-0.1,0-0.3-0.3-0.1,0
	c-0.1-0.1-0.1-0.1-0.2-0.2c0,0-0.1-0.1-0.1-0.1c0-0.1-0.1-0.1-0.1-0.2l0,0c0,0,0,0,0-0.1c0,0,0,0,0-0.1c0-0.1,0-0.1,0-0.2l0,0
	c0-0.1,0.1-0.1,0.1-0.2c-0.2,0.3,0.1,0,0.1-0.1c0,0,0,0,0,0c0,0,0,0,0,0c0.1,0,0.1-0.1,0.2-0.1c0.1,0,0.4-0.1,0.1,0
	c0.1,0,0.1,0,0.2-0.1c0,0,0.1,0,0.2,0c0.1,0,0.1,0,0.1,0c0,0,0,0,0.1,0c-0.1,0,0.2,0.1,0.3,0.1c0,0,0,0,0,0c0.1,0,0.1,0.1,0.2,0.1
	c-0.3-0.2,0,0,0.1,0.1c0,0,0.1,0.1,0.1,0.1c0,0,0.1,0.1,0.1,0.1c0,0.1,0.1,0.2,0.1,0.3l0,0c0,0,0,0,0,0c0,0.1,0.1,0.3,0.1,0.4
	c0,0,0,0,0,0c0,0.1,0,0.2,0,0.2l0,0C213.2,110.7,212.6,110.7,212.1,110.9L212.1,110.9z"/>
<polygon class="st2" points="212.2,152.9 212.2,152.9 212.2,152.9 "/>
<path class="st2" d="M212.2,152.9L212.2,152.9L212.2,152.9z"/>
<path class="st2" d="M212.2,152.9L212.2,152.9C212.2,152.9,212.2,152.9,212.2,152.9z"/>
<path class="st2" d="M212.2,152.9C212.2,152.9,212.2,152.9,212.2,152.9L212.2,152.9z"/>
<path class="st2" d="M280.4,185.1c-1.4-2.5-4.5-3.7-7.2-2.7c-1.3,0.5-2.4,1.5-3,2.8c-0.1,0.1-0.1,0.3-0.1,0.4
	c-0.1,0.1-0.1,0.2-0.2,0.3c-1.5,2.9-0.3,6.5,2.7,8c2.2,1.1,4.8,0.7,6.6-0.9C281.4,191.1,281.9,187.8,280.4,185.1z M276.6,187.7
	C276.6,187.8,276.6,187.8,276.6,187.7z M276.2,186.8C276.2,186.8,276.2,186.8,276.2,186.8z M274.6,187.5
	C274.5,187.5,274.5,187.5,274.6,187.5z M274.9,187.8C275,187.9,275,187.9,274.9,187.8z M275.1,187.9L275.1,187.9
	C275.2,187.9,275.1,187.9,275.1,187.9L275.1,187.9L275.1,187.9L275.1,187.9L275.1,187.9C275.2,187.9,275.2,187.9,275.1,187.9
	C275.4,187.8,275.2,187.9,275.1,187.9L275.1,187.9c-0.1-0.1-0.1-0.1-0.2-0.1c0,0,0,0,0,0c-0.1,0-0.3-0.3-0.1,0
	c-0.1-0.1-0.1-0.1-0.2-0.2c0,0-0.1-0.1-0.1-0.1c0-0.1-0.1-0.1-0.1-0.2l0,0c0,0,0,0,0-0.1c0,0,0,0,0-0.1c0-0.1,0-0.1,0-0.2l0,0
	c0-0.1,0.1-0.1,0.1-0.2c-0.2,0.3,0.1,0,0.1-0.1c0,0,0,0,0,0c0,0,0,0,0,0c0.1,0,0.1-0.1,0.2-0.1c0.1,0,0.4-0.1,0.1,0
	c0.1,0,0.1,0,0.2-0.1c0,0,0.1,0,0.2,0c0.1,0,0.1,0,0.1,0c0,0,0,0,0.1,0c-0.1,0,0.2,0.1,0.3,0.1c0,0,0,0,0,0c0.1,0,0.1,0.1,0.2,0.1
	c-0.3-0.2,0,0,0.1,0.1c0,0,0.1,0.1,0.1,0.1c0,0,0.1,0.1,0.1,0.1c0,0.1,0.1,0.2,0.1,0.3l0,0c0,0,0,0,0,0c0,0.1,0.1,0.3,0.1,0.4
	c0,0,0,0,0,0c0,0.1,0,0.2,0,0.2l0,0C276.2,187.7,275.6,187.7,275.1,187.9L275.1,187.9z"/>
<polygon class="st2" points="275.2,121.9 275.2,121.9 275.2,121.9 "/>
<path class="st2" d="M275.2,121.9L275.2,121.9L275.2,121.9z"/>
<path class="st2" d="M275.2,121.9L275.2,121.9C275.2,121.9,275.2,121.9,275.2,121.9z"/>
<path class="st2" d="M275.2,121.9C275.2,121.9,275.2,121.9,275.2,121.9L275.2,121.9z"/>
<polygon class="st2" points="275.2,121.9 275.2,121.9 275.2,121.9 "/>
<path class="st2" d="M334.2,141.9L334.2,141.9L334.2,141.9z"/>
<path class="st2" d="M339.4,139.1c-1.4-2.5-4.5-3.7-7.2-2.7c-1.3,0.5-2.4,1.5-3,2.8c-0.1,0.1-0.1,0.3-0.1,0.4
	c-0.1,0.1-0.1,0.2-0.2,0.3c-1.5,2.9-0.3,6.5,2.7,8c2.2,1.1,4.8,0.7,6.6-0.9C340.4,145.1,340.9,141.8,339.4,139.1z M335.6,141.7
	C335.6,141.8,335.6,141.8,335.6,141.7z M335.2,140.8C335.2,140.8,335.2,140.8,335.2,140.8z M333.6,141.5
	C333.5,141.5,333.5,141.5,333.6,141.5z M333.9,141.8C334,141.9,334,141.9,333.9,141.8z M334.1,141.9L334.1,141.9
	C334.2,141.9,334.1,141.9,334.1,141.9L334.1,141.9L334.1,141.9L334.1,141.9L334.1,141.9C334.2,141.9,334.2,141.9,334.1,141.9
	C334.4,141.8,334.2,141.9,334.1,141.9L334.1,141.9c-0.1-0.1-0.1-0.1-0.2-0.1c0,0,0,0,0,0c-0.1,0-0.3-0.3-0.1,0
	c-0.1-0.1-0.1-0.1-0.2-0.2c0,0-0.1-0.1-0.1-0.1c0-0.1-0.1-0.1-0.1-0.2l0,0c0,0,0,0,0-0.1c0,0,0,0,0-0.1c0-0.1,0-0.1,0-0.2l0,0
	c0-0.1,0.1-0.1,0.1-0.2c-0.2,0.3,0.1,0,0.1-0.1c0,0,0,0,0,0c0,0,0,0,0,0c0.1,0,0.1-0.1,0.2-0.1c0.1,0,0.4-0.1,0.1,0
	c0.1,0,0.1,0,0.2-0.1c0,0,0.1,0,0.2,0c0.1,0,0.1,0,0.1,0c0,0,0,0,0.1,0c-0.1,0,0.2,0.1,0.3,0.1c0,0,0,0,0,0c0.1,0,0.1,0.1,0.2,0.1
	c-0.3-0.2,0,0,0.1,0.1c0,0,0.1,0.1,0.1,0.1c0,0,0.1,0.1,0.1,0.1c0,0.1,0.1,0.2,0.1,0.3l0,0c0,0,0,0,0,0c0,0.1,0.1,0.3,0.1,0.4
	c0,0,0,0,0,0c0,0.1,0,0.2,0,0.2l0,0C335.2,141.7,334.6,141.7,334.1,141.9L334.1,141.9z"/>
<polygon class="st2" points="334.2,141.9 334.2,141.9 334.2,141.9 "/>
<polygon class="st2" points="334.2,141.9 334.2,141.9 334.2,141.9 "/>
<path class="st2" d="M334.2,141.9C334.2,141.9,334.2,141.9,334.2,141.9L334.2,141.9z"/>
<path class="st2" d="M334.2,141.9L334.2,141.9C334.2,141.9,334.2,141.9,334.2,141.9z"/>
<path class="st3" d="M318,187.7l-46.5,2.6c-0.6,0-1-0.4-1.1-1c0-0.5,0.3-1,0.9-1.1l47.5-7.7L318,187.7z"/>
<path class="st4" d="M377.1,291.2l17.5-29.5l13,6.1c0,0-22.3,27.9-23,28.7c0.8,3.7-1.5,7.4-5.2,8.2c-3.7,0.8-7.4-1.5-8.2-5.2
	c-0.8-3.7,1.5-7.4,5.2-8.2C376.6,291.3,376.8,291.3,377.1,291.2L377.1,291.2z"/>
<path class="st5" d="M384.4,222.8l28.4,14.8c7,5.1,8.6,14.9,3.6,21.9c-0.3,0.4-0.6,0.8-0.9,1.1l-19.6,22.4l-8.5-11.6l6.6-13.7
	l-12.7-3.4L384.4,222.8z"/>
<path class="st4" d="M303.5,188.2l-3.2,34.1l-14.3,0c0,0,8.2-34.7,8.5-35.8c-2.3-3-1.8-7.3,1.2-9.6s7.3-1.8,9.6,1.2s1.8,7.3-1.2,9.6
	C303.9,187.9,303.7,188.1,303.5,188.2L303.5,188.2z"/>
<path class="st5" d="M332,258l-33-6c-13.9-1.7-19.6-10.8-17.1-19.7l8.1-28.7l12.7,6.8l0,15.2l17.7-2.4L332,258z"/>
<polygon class="st4" points="318.5,494 309.4,494 305.1,459 318.5,459 "/>
<path class="st6" d="M318.8,503.4l-27.9,0v-0.4c0-6,4.9-10.8,10.8-10.8h0l5.1-3.9l9.5,3.9l2.4,0L318.8,503.4z"/>
<polygon class="st4" points="382.6,494 391.7,494 396,459 382.6,459 "/>
<path class="st6" d="M382.3,503.4l27.9,0v-0.4c0-6-4.9-10.8-10.8-10.8h0l-5.1-3.9l-9.5,3.9l-2.4,0L382.3,503.4z"/>
<path class="st6" d="M304.7,433.3c0.1-2,1.2-13,1.2-13l2.5-23.4l4.5-62l4-16.3l19.8,7.7l16.1-7.7l19.1,6.1l14.9,5.6
	c0,0,0,2.4,0.1,5.3c0.2,3.8,0.4,8.4,1.1,9.6c1.1,2.1,0.8,13.6,0.8,13.6s1.1,23.3,2.4,25.8s1.6,7.9,1.2,8.9s1.3,29,1.3,29
	s4.4,49.4,1.7,56.9s-13.3,2.6-13.3,2.6s0.5-2-2.5-2.9s-12.4-71-12.4-71s-1.7-14.4-3.3-18.5s-3.1-15.7-3.1-15.7s-9.8-19.1-10-23.4
	c0,0-1.3-4-2.5,0.4s-4.8,14.9-4.8,14.9l-3.5,12.9l-4.1,19.3l-2.7,16.2c0,0-4,21.5-4.6,22.5s0,20.6,0,20.6s-3.1,16.8-7.4,19.7
	s-15.9,0-15.9,0S304.6,435.3,304.7,433.3z"/>
<path class="st5" d="M319.5,266.1L317,299l-3.8,3.9c-1.4,1.5-1.4,3.8,0.1,5.2c0,0,0.1,0.1,0.1,0.1l0,0l-2.1,3.6l-0.7,11.3
	c-0.8,3.3,1.2,6.6,4.5,7.4c0.4,0.1,0.8,0.1,1.1,0.2l65.6,3.1c3.4,0.2,6.3-2.5,6.4-5.9c0-0.4,0-0.7,0-1.1l-5.6-42v-3.1l-2.5-6.1
	l1.3-20.3l3-32.3l-17.4-4.5l-9.4-6.5l-16.4,0.3l-9.9,8.2l-13.2,2.1l-10,2l-1.3,2.8l2.5-0.6l9.2,36L319.5,266.1z"/>
<circle class="st4" cx="349.2" cy="188.4" r="19.3"/>
<path class="st6" d="M344.5,206.4l13.9-0.7c1.8-0.1,3.7-0.2,5-1.5c0.7-0.8,1.2-1.6,1.6-2.6c1.3-3,2.6-6,3.8-9c1.7-4.2,3.4-8.5,3-13
	c-0.1-2-1-4-2.4-5.4c-1.5-1.4-3.8-1.7-5.6-0.6c-0.4-2.9-2.2-5.4-4.7-6.8c-2.5-1.4-5.4-2-8.3-1.8c-4.2,0.3-8.1,1.8-11.4,4.5
	c-0.9,0.8-1.9,1.6-2.9,2.3c-1,0.7-2.3,0.9-3.5,0.7c-1.2-0.3-2-1.5-1.9-2.8c-2,1.5-2.6,4.3-1.3,6.5c-1.5,0.6-3.2,0.4-4.4-0.5
	c-2.7,1.3-3.8,4.6-2.4,7.3c1.3,2.7,4.6,3.8,7.3,2.4c0.3-0.2,0.6-0.3,0.9-0.5c0.8,1.2,0.5,2.8,0.4,4.2s0.3,3.3,1.7,3.7
	c1.9,0.5,3.4-2,5.4-2c1,0.1,1.9,0.6,2.3,1.5c0.5,0.9,0.8,1.8,0.9,2.7L344.5,206.4"/>
<path class="st2" d="M887.3,379.6c0-3-1-5.4-2.2-5.4H549.7c-1.2,0-2.2,2.4-2.2,5.4v122.8c0,0.6-0.4,1.1-1,1.1
	c-0.9,0.1-1.8,0.2-2.7,0.2c0,0,0,0-0.1,0c-0.5,0-1,0.1-1.5,0.1h0c-0.3-0.5-0.5-0.9-0.7-1.4c-0.1-0.2-0.1-0.3-0.1-0.5V372.6
	c0-0.8,0-1.7,0.1-2.5c0.1-1.1,0.2-2.2,0.4-3.4c0.9-5.2,3.1-8.7,5.5-8.7h340.1c0.4,0,0.7,0.1,1,0.2c0.5,0.2,0.9,0.5,1.3,0.9
	c0.5,0.5,0.9,1.1,1.2,1.7c1.4,2.8,2.2,5.8,2.3,8.9c0,0,0,0.1,0,0.1c0.1,0.9,0.1,1.8,0.1,2.7l0.1,11.9l0.1,7.1l0.2,22.3l0.1,7.9
	l0.2,81.4l0,0c0,0.6-0.5,1.1-1.1,1.1h-4.5c-0.6,0-1.1-0.5-1.1-1.1c0,0,0,0,0,0L887.3,379.6z"/>
<path class="st7" d="M796.1,302.3H760c-1.1,0-1.9,0.9-1.9,1.9v57.1h40v-57.1C798.1,303.2,797.2,302.3,796.1,302.3
	C796.1,302.3,796.1,302.3,796.1,302.3z M778.2,334.7c-2.4,0-4.3-1.9-4.3-4.3v-6.6c0-2.4,1.9-4.3,4.3-4.3c2.4,0,4.3,1.9,4.3,4.3v6.6
	C782.4,332.8,780.5,334.7,778.2,334.7z"/>
<path class="st3" d="M758,359.5v5.5c0,0.6,0.5,1.1,1.1,1.1h38.1c0.6,0,1.1-0.5,1.1-1.1v-5.5H758z"/>
<path class="st2" d="M856,213.2H701.5c-2.8,0-5,2.2-5,5v104.2c0,2.8,2.2,5,5,5H856c2.8,0,5-2.2,5-5V218.2
	C861,215.5,858.7,213.2,856,213.2z"/>
<path class="st8" d="M854.7,216.8H702.8c-1.5,0-2.7,1.2-2.7,2.7v101.6c0,1.5,1.2,2.7,2.7,2.7h151.9c1.5,0,2.7-1.2,2.7-2.7V219.5
	C857.4,218,856.2,216.8,854.7,216.8z"/>
<path class="st7" d="M825.1,368h-90.4c-0.9,0-1.7-0.7-1.7-1.7c0-0.1,0-0.2,0-0.3l1.4-6.7c0.2-0.8,0.8-1.3,1.6-1.3h87.6
	c0.8,0,1.5,0.6,1.6,1.3l1.4,6.7c0.2,0.9-0.4,1.8-1.3,2C825.3,368,825.2,368,825.1,368L825.1,368z"/>
<path class="st2" d="M737.3,359.2h1.8c0.3,0,0.5,0.2,0.5,0.5v0.7c0,0.3-0.2,0.5-0.5,0.5h-1.8c-0.3,0-0.5-0.2-0.5-0.5v-0.7
	C736.8,359.4,737,359.2,737.3,359.2z"/>
<path class="st2" d="M742.8,359.2h1.8c0.3,0,0.5,0.2,0.5,0.5v0.7c0,0.3-0.2,0.5-0.5,0.5h-1.8c-0.3,0-0.5-0.2-0.5-0.5v-0.7
	C742.3,359.4,742.6,359.2,742.8,359.2z"/>
<path class="st2" d="M748.4,359.2h1.8c0.3,0,0.5,0.2,0.5,0.5v0.7c0,0.3-0.2,0.5-0.5,0.5h-1.8c-0.3,0-0.5-0.2-0.5-0.5v-0.7
	C747.9,359.4,748.1,359.2,748.4,359.2z"/>
<path class="st2" d="M754,359.2h1.8c0.3,0,0.5,0.2,0.5,0.5v0.7c0,0.3-0.2,0.5-0.5,0.5H754c-0.3,0-0.5-0.2-0.5-0.5v-0.7
	C753.5,359.4,753.7,359.2,754,359.2z"/>
<path class="st2" d="M759.5,359.2h1.8c0.3,0,0.5,0.2,0.5,0.5v0.7c0,0.3-0.2,0.5-0.5,0.5h-1.8c-0.3,0-0.5-0.2-0.5-0.5v-0.7
	C759,359.4,759.3,359.2,759.5,359.2z"/>
<path class="st2" d="M765.1,359.2h1.8c0.3,0,0.5,0.2,0.5,0.5v0.7c0,0.3-0.2,0.5-0.5,0.5h-1.8c-0.3,0-0.5-0.2-0.5-0.5v-0.7
	C764.6,359.4,764.8,359.2,765.1,359.2z"/>
<path class="st2" d="M770.7,359.2h1.8c0.3,0,0.5,0.2,0.5,0.5v0.7c0,0.3-0.2,0.5-0.5,0.5h-1.8c-0.3,0-0.5-0.2-0.5-0.5v-0.7
	C770.2,359.4,770.4,359.2,770.7,359.2z"/>
<path class="st2" d="M776.2,359.2h1.8c0.3,0,0.5,0.2,0.5,0.5v0.7c0,0.3-0.2,0.5-0.5,0.5h-1.8c-0.3,0-0.5-0.2-0.5-0.5v-0.7
	C775.7,359.4,776,359.2,776.2,359.2z"/>
<path class="st2" d="M781.8,359.2h1.8c0.3,0,0.5,0.2,0.5,0.5v0.7c0,0.3-0.2,0.5-0.5,0.5h-1.8c-0.3,0-0.5-0.2-0.5-0.5v-0.7
	C781.3,359.4,781.5,359.2,781.8,359.2z"/>
<path class="st2" d="M787.4,359.2h1.8c0.3,0,0.5,0.2,0.5,0.5v0.7c0,0.3-0.2,0.5-0.5,0.5h-1.8c-0.3,0-0.5-0.2-0.5-0.5v-0.7
	C786.9,359.4,787.1,359.2,787.4,359.2z"/>
<path class="st2" d="M792.9,359.2h1.8c0.3,0,0.5,0.2,0.5,0.5v0.7c0,0.3-0.2,0.5-0.5,0.5h-1.8c-0.3,0-0.5-0.2-0.5-0.5v-0.7
	C792.4,359.4,792.7,359.2,792.9,359.2z"/>
<path class="st2" d="M798.5,359.2h1.8c0.3,0,0.5,0.2,0.5,0.5v0.7c0,0.3-0.2,0.5-0.5,0.5h-1.8c-0.3,0-0.5-0.2-0.5-0.5v-0.7
	C798,359.4,798.2,359.2,798.5,359.2z"/>
<path class="st2" d="M804.1,359.2h1.8c0.3,0,0.5,0.2,0.5,0.5v0.7c0,0.3-0.2,0.5-0.5,0.5h-1.8c-0.3,0-0.5-0.2-0.5-0.5v-0.7
	C803.6,359.4,803.8,359.2,804.1,359.2z"/>
<path class="st2" d="M809.6,359.2h1.8c0.3,0,0.5,0.2,0.5,0.5v0.7c0,0.3-0.2,0.5-0.5,0.5h-1.8c-0.3,0-0.5-0.2-0.5-0.5v-0.7
	C809.1,359.4,809.4,359.2,809.6,359.2z"/>
<path class="st2" d="M815.2,359.2h1.8c0.3,0,0.5,0.2,0.5,0.5v0.7c0,0.3-0.2,0.5-0.5,0.5h-1.8c-0.3,0-0.5-0.2-0.5-0.5v-0.7
	C814.7,359.4,814.9,359.2,815.2,359.2z"/>
<path class="st2" d="M820.8,359.2h1.8c0.3,0,0.5,0.2,0.5,0.5v0.7c0,0.3-0.2,0.5-0.5,0.5h-1.8c-0.3,0-0.5-0.2-0.5-0.5v-0.7
	C820.3,359.4,820.5,359.2,820.8,359.2z"/>
<path class="st2" d="M737.2,362h1.8c0.3,0,0.5,0.2,0.5,0.5v0.7c0,0.3-0.2,0.5-0.5,0.5h-1.8c-0.3,0-0.5-0.2-0.5-0.5v-0.7
	C736.7,362.2,736.9,362,737.2,362z"/>
<path class="st2" d="M742.8,362h1.8c0.3,0,0.5,0.2,0.5,0.5v0.7c0,0.3-0.2,0.5-0.5,0.5h-1.8c-0.3,0-0.5-0.2-0.5-0.5v-0.7
	C742.3,362.2,742.5,362,742.8,362z"/>
<path class="st2" d="M748.3,362h1.8c0.3,0,0.5,0.2,0.5,0.5v0.7c0,0.3-0.2,0.5-0.5,0.5h-1.8c-0.3,0-0.5-0.2-0.5-0.5v-0.7
	C747.8,362.2,748.1,362,748.3,362z"/>
<path class="st2" d="M753.9,362h1.8c0.3,0,0.5,0.2,0.5,0.5v0.7c0,0.3-0.2,0.5-0.5,0.5h-1.8c-0.3,0-0.5-0.2-0.5-0.5v-0.7
	C753.4,362.2,753.6,362,753.9,362z"/>
<path class="st2" d="M759.5,362h1.8c0.3,0,0.5,0.2,0.5,0.5v0.7c0,0.3-0.2,0.5-0.5,0.5h-1.8c-0.3,0-0.5-0.2-0.5-0.5v-0.7
	C759,362.2,759.2,362,759.5,362z"/>
<path class="st2" d="M765,362h1.8c0.3,0,0.5,0.2,0.5,0.5v0.7c0,0.3-0.2,0.5-0.5,0.5H765c-0.3,0-0.5-0.2-0.5-0.5v-0.7
	C764.5,362.2,764.8,362,765,362z"/>
<path class="st2" d="M770.6,362h1.8c0.3,0,0.5,0.2,0.5,0.5v0.7c0,0.3-0.2,0.5-0.5,0.5h-1.8c-0.3,0-0.5-0.2-0.5-0.5v-0.7
	C770.1,362.2,770.3,362,770.6,362z"/>
<path class="st2" d="M776.2,362h1.8c0.3,0,0.5,0.2,0.5,0.5v0.7c0,0.3-0.2,0.5-0.5,0.5h-1.8c-0.3,0-0.5-0.2-0.5-0.5v-0.7
	C775.7,362.2,775.9,362,776.2,362z"/>
<path class="st2" d="M781.7,362h1.8c0.3,0,0.5,0.2,0.5,0.5v0.7c0,0.3-0.2,0.5-0.5,0.5h-1.8c-0.3,0-0.5-0.2-0.5-0.5v-0.7
	C781.2,362.2,781.5,362,781.7,362z"/>
<path class="st2" d="M787.3,362h1.8c0.3,0,0.5,0.2,0.5,0.5v0.7c0,0.3-0.2,0.5-0.5,0.5h-1.8c-0.3,0-0.5-0.2-0.5-0.5v-0.7
	C786.8,362.2,787,362,787.3,362z"/>
<path class="st2" d="M792.9,362h1.8c0.3,0,0.5,0.2,0.5,0.5v0.7c0,0.3-0.2,0.5-0.5,0.5h-1.8c-0.3,0-0.5-0.2-0.5-0.5v-0.7
	C792.4,362.2,792.6,362,792.9,362z"/>
<path class="st2" d="M798.4,362h1.8c0.3,0,0.5,0.2,0.5,0.5v0.7c0,0.3-0.2,0.5-0.5,0.5h-1.8c-0.3,0-0.5-0.2-0.5-0.5v-0.7
	C797.9,362.2,798.2,362,798.4,362z"/>
<path class="st2" d="M804,362h1.8c0.3,0,0.5,0.2,0.5,0.5v0.7c0,0.3-0.2,0.5-0.5,0.5H804c-0.3,0-0.5-0.2-0.5-0.5v-0.7
	C803.5,362.2,803.7,362,804,362z"/>
<path class="st2" d="M809.6,362h1.8c0.3,0,0.5,0.2,0.5,0.5v0.7c0,0.3-0.2,0.5-0.5,0.5h-1.8c-0.3,0-0.5-0.2-0.5-0.5v-0.7
	C809.1,362.2,809.3,362,809.6,362z"/>
<path class="st2" d="M815.1,362h1.8c0.3,0,0.5,0.2,0.5,0.5v0.7c0,0.3-0.2,0.5-0.5,0.5h-1.8c-0.3,0-0.5-0.2-0.5-0.5v-0.7
	C814.6,362.2,814.9,362,815.1,362z"/>
<path class="st2" d="M820.7,362h1.8c0.3,0,0.5,0.2,0.5,0.5v0.7c0,0.3-0.2,0.5-0.5,0.5h-1.8c-0.3,0-0.5-0.2-0.5-0.5v-0.7
	C820.2,362.2,820.4,362,820.7,362z"/>
<path class="st2" d="M763.9,365.3h21.3c0.3,0,0.5,0.2,0.5,0.5v0.7c0,0.3-0.2,0.5-0.5,0.5h-21.3c-0.3,0-0.5-0.2-0.5-0.5v-0.7
	C763.4,365.5,763.6,365.3,763.9,365.3z"/>
<path class="st9" d="M847,230.8H704.9c-0.3,0-0.6-0.3-0.6-0.6c0-0.3,0.3-0.5,0.6-0.6H847c0.3,0,0.6,0.3,0.6,0.6
	C847.6,230.6,847.3,230.8,847,230.8z"/>
<ellipse class="st7" cx="714.6" cy="223.4" rx="3.3" ry="3.4"/>
<ellipse class="st7" cx="726" cy="223.4" rx="3.3" ry="3.4"/>
<ellipse class="st7" cx="737.5" cy="223.4" rx="3.3" ry="3.4"/>
<path class="st7" d="M840.2,220.9H832c-0.3,0-0.6,0.3-0.6,0.6c0,0.3,0.3,0.6,0.6,0.6h8.1c0.3,0,0.6-0.3,0.6-0.6
	C840.8,221.2,840.5,220.9,840.2,220.9L840.2,220.9z"/>
<path class="st7" d="M840.2,223.2H832c-0.3,0-0.6,0.3-0.6,0.6c0,0.3,0.3,0.6,0.6,0.6h8.1c0.3,0,0.6-0.3,0.6-0.6
	C840.8,223.5,840.5,223.2,840.2,223.2L840.2,223.2z"/>
<path class="st7" d="M840.2,225.5H832c-0.3,0-0.6,0.3-0.6,0.6c0,0.3,0.3,0.6,0.6,0.6h8.1c0.3,0,0.6-0.3,0.6-0.6
	C840.8,225.8,840.5,225.5,840.2,225.5L840.2,225.5z"/>
<path class="st5" d="M769.7,261.6h17.8c1.3,0,2.4,1.1,2.4,2.4l0,0c0,1.3-1.1,2.4-2.4,2.4h-17.8c-1.3,0-2.4-1.1-2.4-2.4l0,0
	C767.3,262.7,768.4,261.6,769.7,261.6z"/>
<path class="st2" d="M758.2,271.3h40.7c1.3,0,2.4,1.1,2.4,2.4l0,0c0,1.3-1.1,2.4-2.4,2.4h-40.7c-1.3,0-2.4-1.1-2.4-2.4l0,0
	C755.8,272.4,756.9,271.3,758.2,271.3z"/>
<path class="st2" d="M758.2,280.9h40.7c1.3,0,2.4,1.1,2.4,2.4l0,0c0,1.3-1.1,2.4-2.4,2.4h-40.7c-1.3,0-2.4-1.1-2.4-2.4l0,0
	C755.8,282,756.9,280.9,758.2,280.9z"/>
<polygon class="st4" points="524.7,431.4 516.5,427.5 527.8,393.3 539.9,399.1 "/>
<path class="st4" d="M579.6,425.9c-0.6,0.4-1.2,0.7-1.8,1.1c-1.2,0.7-2.4,1.5-3.6,2.2c-0.6,0.4-1.2,0.7-1.8,1.1v0l0,0l0,0l-0.9,0.2
	l-1.3-3.5l-0.6-1.6l-0.9-2.3l-1.6-4.2l-8.4-22.1l13-3.2l0.5,2h0l0.2,1l4.5,18.4l0.9,3.8l0,0.1l0.6,2.2l0.5,1.9l0.5,2.2L579.6,425.9z
	"/>
<path class="st6" d="M657.1,348.4c-0.8,1.3-1.7,2.6-2.5,3.9c-1.6,2.4-3.2,4.8-4.9,7.2c0,0,0,0,0,0c-1,0.9-2,1.7-3.2,2.3
	c0,0-0.1,0.1-0.2,0.1c-0.8,0.5-1.7,0.8-2.7,1.1c-0.3,0.1-0.7,0.2-1,0.3c-1.2,0.3-2.4,0.5-3.6,0.8c-2.1,0.4-4.2,0.6-6.3,0.8
	c-0.2,0-0.3,0-0.5,0c-8.6,0.6-17-0.4-25.7-2.1c-4.3-0.8-8.7-1.8-13.3-2.8c-1.5-0.3-3-0.7-4.5-1c-0.1,0-0.2-0.1-0.4-0.1
	c-2.2-0.5-4.4-0.9-6.6-1.4c-2.8-0.6-5.8-1.1-8.8-1.7l0.2,4.3c0.2,3.3,0.9,6.5,2,9.6c1.3,3.8,2.3,6.8,0.2,13.1l-1,3
	c1.1,3.1,0.7,6.4-1.1,9.2l-0.2,0.3l8.7,22.1l0.6,1.4h-4.5l-5.5,0h-9.3l-13.4-27l-0.6-1.3v-0.1l1.4-51.8c0-0.5,0.1-0.9,0.1-1.4
	c0.5-4.2,2.7-8,6-10.6c3.2-2.5,7.3-3.6,11.3-3.1l4.6,0.6l9.4,1.2l6.6,0.9l0.1,0l19.5,2.5l1.4-5.7l0.3-0.1l8.2-3l28.4-10.4l0.1,0
	l1.9-0.7l0.2,0.4c0.1,0.1,0.1,0.2,0.2,0.3c1.8,3.3,3.4,6.8,4.5,10.4c1.9,5.9,3.5,11.9,4.7,18c0.1,0.3,0.1,0.5,0.1,0.7l0,0.1
	c0,0.1,0,0.2,0,0.2C658.7,342.2,658.3,345.5,657.1,348.4z"/>
<path class="st6" d="M658.3,329.3c-0.1-0.4-0.2-0.8-0.3-1.2c-1-2.9-2.1-5.7-3.3-8.4c-1.4-3.1-3.1-6.5-5.1-10.1c-1-1.8-2-3.6-3.2-5.5
	c-0.6-1-1.2-1.9-1.8-2.9c0,0,0-0.1-0.1-0.1l-0.2-0.3l-28.1,3.8l-10.5,1.4l-0.6,5.2l-0.2,1.3c0,0,0,0,0,0l-0.4,3.5v0l-0.6,4.7l0,0
	l-15.5-2l-16-2.1l-8.6-1.1c-4-0.5-8.1,0.6-11.3,3.1c-3.3,2.6-5.5,6.4-6,10.6c-0.1,0.4-0.1,0.9-0.1,1.3l-8.1,19.2
	c-4.9,11.5-8,23.7-9.2,36.1l-6,19l0.8,0.1l12.6,1.2l3.3,0.3l7.3-10.7c0.8-1.2,1.6-2.5,2.4-3.8c1.2-2.1,2.3-4.3,3.2-6.5l15.9-37.8
	c1.2,0.2,2.4,0.4,3.6,0.6c5.6,0.9,10.9,1.6,16,2.2c16.6,1.9,31,2,43.9,0.4c3.6-0.4,7.1-1,10.4-1.7c1.2-0.3,2.4-0.5,3.6-0.8
	c0.3-0.1,0.6-0.1,0.8-0.2c5-1.3,9.1-5.1,10.7-10C658.9,335.3,659,332.2,658.3,329.3z"/>
<path class="st5" d="M527.3,425.9l-8.9-4.2l-1.4-0.7l-2.2,5.4l-15.5,3.4c-2,0.4-3.2,2.4-2.8,4.4c0.3,1.2,1.1,2.2,2.2,2.6l15.1,6.2
	l4.8-4.3l-1.2,5.8l5.7,2.3l6.2-19.9L527.3,425.9z"/>
<polygon class="st6" points="581.8,417.5 582.3,418.9 581.8,418.9 "/>
<path class="st5" d="M578.7,419.2l-9.3,3.2l-1.5,0.5l2.3,5.4l-8.6,13.3c-1.1,1.7-0.6,4,1.1,5.1c1,0.7,2.3,0.8,3.4,0.3l15.1-6.3
	l0.4-6.5l3.2,5l5.7-2.4l-9.6-18.5L578.7,419.2z"/>
<path class="st4" d="M522.4,220.2c1.7,3.2,5.6,4.5,8.9,2.9c0.3-0.2,0.7-0.4,1-0.6l19.5,13l0-12.2l-18.5-10.4c-2.4-2.8-6.6-3-9.4-0.6
	C521.6,214.2,520.9,217.5,522.4,220.2L522.4,220.2z"/>
<path class="st7" d="M536.9,225.9l9.1-10.4l37.1,22l49.1-4.5c9.1-0.8,17.2,5.9,18.1,15c0.1,1,0.1,2,0,3l0,0
	c-0.9,9.1-8.9,15.9-18.1,15l-55.4-5.1L536.9,225.9z"/>
<path class="st7" d="M651,226l-0.1-0.1l0,0c-14.1-1.4-27.7,5.7-34.8,18l-4.2,7.3c-13.5,16.5-3.7,27.9-3.1,29.6l-4.7,21.6l1,7.2
	l0.5,2.1l53.5,27.9c3-14.6,0.1-27.1-11-36.6l10.7-33.4C663.8,254.8,660.8,238.4,651,226z"/>
<path class="st5" d="M608.5,388.2h-17.1c-1.9,0-3.6-1.4-3.9-3.4c-1.1-7.8-1.1-15.7,0-23.5c0.3-1.9,1.9-3.3,3.8-3.4
	c5.4-2.4,11.2-2.4,17.3,0c1.1,0,2.2,0.5,2.9,1.4c0.8,0.9,1.1,2.1,0.8,3.3c-1.4,6.9-1.4,13.9,0,20.8c0.2,1.2-0.1,2.4-0.8,3.3
	C610.8,387.7,609.7,388.2,608.5,388.2z"/>
<path class="st8" d="M606.7,366.9h-14.4c-0.5,0-0.9-0.4-0.9-0.9c0-0.5,0.4-0.9,0.9-0.9c0,0,0,0,0,0h14.4c0.5,0,0.9,0.4,0.9,0.9
	C607.6,366.5,607.2,366.9,606.7,366.9C606.7,366.9,606.7,366.9,606.7,366.9z"/>
<path class="st8" d="M606.7,374.1h-14.4c-0.5,0-0.9-0.4-0.9-0.9c0-0.5,0.4-0.9,0.9-0.9c0,0,0,0,0,0h14.4c0.5,0,0.9,0.4,0.9,0.9
	C607.6,373.7,607.2,374.1,606.7,374.1C606.7,374.1,606.7,374.1,606.7,374.1z"/>
<path class="st8" d="M606.7,381.4h-14.4c-0.5,0-0.9-0.4-0.9-0.9c0-0.5,0.4-0.9,0.9-0.9c0,0,0,0,0,0h14.4c0.5,0,0.9,0.4,0.9,0.9
	C607.6,380.9,607.2,381.4,606.7,381.4C606.7,381.4,606.7,381.4,606.7,381.4z"/>
<path class="st5" d="M525.5,226.2h-17.1c-1.9,0-3.6-1.4-3.9-3.4c-1.1-7.8-1.1-15.7,0-23.5c0.3-1.9,1.9-3.3,3.8-3.4
	c5.4-2.4,11.2-2.4,17.3,0c1.1,0,2.2,0.5,2.9,1.4c0.8,0.9,1.1,2.1,0.8,3.3c-1.4,6.9-1.4,13.9,0,20.8c0.2,1.2-0.1,2.4-0.8,3.3
	C527.8,225.7,526.7,226.2,525.5,226.2z"/>
<path class="st8" d="M523.7,204.9h-14.4c-0.5,0-0.9-0.4-0.9-0.9s0.4-0.9,0.9-0.9c0,0,0,0,0,0h14.4c0.5,0,0.9,0.4,0.9,0.9
	S524.2,204.9,523.7,204.9C523.7,204.9,523.7,204.9,523.7,204.9z"/>
<path class="st8" d="M523.7,212.1h-14.4c-0.5,0-0.9-0.4-0.9-0.9s0.4-0.9,0.9-0.9c0,0,0,0,0,0h14.4c0.5,0,0.9,0.4,0.9,0.9
	S524.2,212.1,523.7,212.1C523.7,212.1,523.7,212.1,523.7,212.1z"/>
<path class="st8" d="M523.7,219.4h-14.4c-0.5,0-0.9-0.4-0.9-0.9s0.4-0.9,0.9-0.9c0,0,0,0,0,0h14.4c0.5,0,0.9,0.4,0.9,0.9
	S524.2,219.4,523.7,219.4C523.7,219.4,523.7,219.4,523.7,219.4z"/>
<path class="st5" d="M224.5,270.2h-17.1c-1.9,0-3.6-1.4-3.9-3.4c-1.1-7.8-1.1-15.7,0-23.5c0.3-1.9,1.9-3.3,3.8-3.4
	c5.4-2.4,11.2-2.4,17.3,0c1.1,0,2.2,0.5,2.9,1.4c0.8,0.9,1.1,2.1,0.8,3.3c-1.4,6.9-1.4,13.9,0,20.8c0.2,1.2-0.1,2.4-0.8,3.3
	C226.8,269.7,225.7,270.2,224.5,270.2z"/>
<path class="st8" d="M222.7,248.9h-14.4c-0.5,0-0.9-0.4-0.9-0.9s0.4-0.9,0.9-0.9c0,0,0,0,0,0h14.4c0.5,0,0.9,0.4,0.9,0.9
	S223.2,248.9,222.7,248.9C222.7,248.9,222.7,248.9,222.7,248.9z"/>
<path class="st8" d="M222.7,256.1h-14.4c-0.5,0-0.9-0.4-0.9-0.9s0.4-0.9,0.9-0.9c0,0,0,0,0,0h14.4c0.5,0,0.9,0.4,0.9,0.9
	S223.2,256.1,222.7,256.1C222.7,256.1,222.7,256.1,222.7,256.1z"/>
<path class="st8" d="M222.7,263.4h-14.4c-0.5,0-0.9-0.4-0.9-0.9c0-0.5,0.4-0.9,0.9-0.9c0,0,0,0,0,0h14.4c0.5,0,0.9,0.4,0.9,0.9
	C223.6,262.9,223.2,263.4,222.7,263.4C222.7,263.4,222.7,263.4,222.7,263.4z"/>
<path class="st4" d="M613.5,366.3c3.1-1.9,4.2-5.9,2.3-9c-0.2-0.3-0.4-0.7-0.7-0.9l11.8-20.2l-12.2,0.7l-9.3,19.1
	c-2.6,2.6-2.6,6.8-0.1,9.4C607.5,367.4,610.9,367.8,613.5,366.3L613.5,366.3z"/>
<path class="st7" d="M618.3,351.4l-10.9-8.5l19.8-38.3l-7.4-48.8c-1.4-9.1,4.9-17.5,13.9-18.9c1-0.2,2-0.2,3-0.2l0,0
	c9.2,0.3,16.4,8,16.1,17.2l-1.8,55.6L618.3,351.4z"/>
<path class="st10" d="M92.4,340.9c2.6-2.6,2.6-6.8,0-9.4c-0.3-0.3-0.6-0.5-0.9-0.8l10.6-52.6L90.4,282l-8.5,50.8
	c-1.9,3.2-0.9,7.3,2.3,9.2C86.8,343.6,90.2,343.1,92.4,340.9L92.4,340.9z"/>
<path class="st7" d="M108,229.7l-7.3-5.5c0,0-6.4-0.5-7.5,11.1s-3.5,34-3.5,34l-11.1,51.4l15.4,3.4l11.9-55.5l7.1-16.5L108,229.7z"
	/>
<polygon class="st10" points="96.1,313.6 136.9,312.9 140.3,285 96.1,285 "/>
<polygon class="st10" points="132.8,485.4 142.3,485.4 146.7,449 132.8,449 "/>
<polygon class="st10" points="73.7,486.3 83.2,486.2 87.4,449.8 75.1,452.6 "/>
<polygon class="st4" points="103.2,261 101.1,266.5 101.5,272.1 143.4,286.6 141.3,262.3 136.6,256.7 "/>
<circle class="st10" cx="121.2" cy="196" r="14.9"/>
<path class="st6" d="M130.5,480.8l14.9-0.9v6.4l14.2,9.8c1.8,1.3,2.3,3.7,1,5.6c-0.7,1.1-2,1.7-3.3,1.7h-17.8l-3.1-6.3l-1.2,6.3
	h-6.7L130.5,480.8z"/>
<path class="st6" d="M70.5,481.7l14.9-1l0,6.4l14.2,9.7c1.8,1.2,2.3,3.7,1.1,5.5c-0.7,1.1-2,1.7-3.3,1.7l-17.8,0.1l-3.1-6.3
	l-1.2,6.3l-6.7,0L70.5,481.7z"/>
<path class="st6" d="M70.8,458.4l6.9-54.9l8.2-57.9c-6-11.1,7.5-45.6,7.5-45.6l1.9,0.1l43.1,8.1l0,0c8.8,24,11.7,35.9,11.2,61.5
	l-1.7,91.9h0.5c1.9,0,3.4,1.5,3.4,3.4c0,1.9-1.5,3.4-3.4,3.4h-17c-1.9,0-3.4-1.5-3.4-3.4c0-1.9,1.5-3.4,3.4-3.4c0,0,0,0,0,0h0.4
	l-15.6-109.5l-13.2,46l-15,59.9c5.4-1.4,4.6,1.8,4.6,3.6c0,1.9-1.5,3.4-3.4,3.4h-17c-1.9,0-3.4-1.5-3.4-3.4
	C68.7,460.2,69.5,458.9,70.8,458.4L70.8,458.4z"/>
<path class="st7" d="M90,301.8l1.4-13.6c0.3-1.1,1.3-2,2.5-2c0.6-6.5,3-34.5,3.1-35.7l0-0.1l1.1-23.2c0.1-1.7,1.5-3.1,3.2-3.3
	l5.7-0.4c0.2,0,0.3-0.1,0.3-0.3c0-2.7,2.2-4.8,4.8-4.8c0,0,0,0,0,0h17c2.3,0,4.2,1.7,4.5,4c0,0.2,0.1,0.3,0.3,0.3h0
	c4-0.1,7.4,2.8,8.1,6.7c2.3,13.5,7,44.2,4.7,61.2c-0.8,5.9,0.9,1.2,1.2,6.2c0.1,1-0.3,1.9-0.9,2.6c1.4,0.5,2.1,2,1.6,3.3l0.3-0.1
	c-0.4,1.5-1.8,2.3-3.3,2c0,0,0,0,0,0l-44.4,6C99.6,310.3,89.6,303.3,90,301.8z"/>
<path class="st10" d="M208.7,246.4c-1.1,3.5-4.8,5.5-8.3,4.5c-0.4-0.1-0.7-0.3-1.1-0.4l-17.2,15.7l-2.3-12.1l16.7-13
	c1.9-3.2,6-4.2,9.2-2.4C208.3,240.3,209.6,243.5,208.7,246.4L208.7,246.4z"/>
<path class="st7" d="M148.9,234.4c0,0-6-13.5-13.5-10.8s-3.7,15.8-3.7,15.8l28.4,42.8c0,0,41-26.3,36-26.5s-6.5-9.2-6.5-9.2
	L168,257.3l-0.7-3.9l-1.2,1.2l-3-2.4L148.9,234.4z"/>
<circle class="st4" cx="638.7" cy="198.7" r="20.9"/>
<path class="st11" d="M705.6,229.4c-2.4,3.4-5.9,5.9-9.9,7c-1.6,0.5-3.3,0.8-4.9,0.8c-0.2-1.9-0.7-3.8-1.5-5.5
	c0.1,1.9-0.2,3.7-0.8,5.5c-2.5-0.1-5-0.8-7.2-1.9c-4.5-2.3-7.6-6.5-8.5-11.4c-0.9-5.7,1.7-11.3,2.6-17c0.9-5.7-0.8-12.9-6.4-14.4
	c-4.2-1.1-3.8-0.6-7.3,2c3.7,5.4-9.9,25.3-15.4,23.6c-3.1-1-5.1-3.9-5.8-3.9c-4.4,7.5,3.9,20.2-4.4,22.8l0.7-0.7
	c5-6.1-5.4-19.2-0.5-25.3c1.4-1.7,2.9-3.8,2.5-5.9c-0.4-2.1-3.7-3.2-4.6-1.5c1.7-4-0.8-9.2-5-10.3c-3.8-0.9-3.7,0.2-7.5,0.7
	c-0.2-1.6-0.7-3.2-1.4-4.7c0.1,1.6-0.1,3.2-0.6,4.8c-1.3,0-2.6-0.5-3.7-1.3c-3.1-2.5-2.4-7.7,0.3-10.5c2.7-2.8,6.8-3.9,10.7-4.5
	c1.1-7.9,22.9-8.7,25.7-0.8c1.2-5.9,8.6-8.9,14.3-7.1s9.7,7.2,11.8,12.8c2.1,5.6,2.7,11.7,4,17.5s3.5,11.8,7.9,15.8
	c4.5,4,11.8,5.3,16.5,1.6C708.6,221.5,708,225.9,705.6,229.4z"/>
<path class="st0" d="M901.3,277l-2.9,14.7c-0.2,1.1-0.4,2.3-0.7,3.4c-2.4-0.5-5-0.4-7.3,0.4c1.9,2.7,3.6,5.5,5,8.4
	c-1.8,5.7-4.5,10.9-9.1,14.7c-6.1,5-14.5,6.5-22,3.9l0.1-0.6c-4.9-9.4-2.2-21.3,3.8-30c3.1-4.3,6.7-8.2,10.8-11.5
	c4.1-3.4,8.5-6.5,12.9-9.5c2.7-1.9,6.5-1.2,8.3,1.5C901.3,273.8,901.6,275.4,901.3,277z"/>
<path id="a7585634-9c2c-4d81-a429-c019b32aabf2-960" class="st1" d="M865.4,357.7c-1.2-9-2.5-18-1.6-27.1c0.8-8,3.2-15.9,8.2-22.3
	c2.6-3.4,5.9-6.3,9.5-8.6c1-0.6,1.8,0.9,0.9,1.5c-6.3,4-11.2,9.9-14,16.8c-3,7.7-3.5,16.2-3,24.4c0.3,5,1,9.9,1.7,14.8
	c0.1,0.5-0.2,0.9-0.6,1.1C866,358.4,865.5,358.2,865.4,357.7L865.4,357.7z"/>
<path class="st9" d="M934.9,505L1.2,505.3c-0.7,0-1.2-0.5-1.2-1.2c0-0.7,0.5-1.2,1.2-1.2l933.8-0.3c0.7,0,1.2,0.5,1.2,1.2
	C936.1,504.5,935.6,505,934.9,505z"/>
<path class="st6" d="M103.6,186.9c-2.3,1.1-4.9-0.6-6.8-2.2l0.7,0.6c-3.5,3.4-5.1,8.3-5.9,13.1c-0.8,4.8-0.9,9.7-1.9,14.5
	c-1,4.8-3.1,9.6-7,12.5c-5.2,3.9-12.4,3.7-18.9,2.5c-0.1,0-0.2,0-0.3,0c1.7-5,2.4-10.3,2.1-15.5c-1.7,5.3-4.6,10.1-8.6,14
	c-4.3-1.2-8.4-2.7-12.4-4.5c-2.6-1.2-5.4-2.8-6.1-5.6c-0.7-2.7,1-5.6,3.2-7.4s5-2.6,7.5-3.9c2.5-1.2,5.1-3,6.1-5.6
	c2.4-6.1-4.4-13.1-1.7-19c1.3-2.9,4.4-4.5,7.4-5.8c4.5-1.9,9.2-3.4,13.9-4.7c4.2-1.1,8.5-2,12.8-1.2s8.4,3.3,9.9,7.3
	c2.5,0.9,5.3,1.8,6.9,4C106.2,182,106,185.7,103.6,186.9z"/>
<path class="st6" d="M124,179.8c-6.6-5.2-11.9-4.3-15.9-1.1c-0.7-0.8-3.6,1.3-4.6,1l-3.6,6.7c-1.8,3.3-2.6,6.6-2.3,8.4
	c-3.4,9.5,4.6,15.9,14.2,19.3c3.8,1.4,7.9,1.4,11.8,0.2l0.1-1.6l0.7,1.3c0,0,8.7,17.9,10.7,18.7c-1.2-3.2-4.5-18.6-5.5-21.8
	c-1.3-4.4-0.4-11.3,0.3-15.5c0.5-2.6,0.5-5.3,0.1-7.9l0-0.1l2,4.1l4.6-2.9C134.9,183.7,134.8,177.6,124,179.8z"/>
</svg>
