<?xml version="1.0" encoding="utf-8"?>
<!-- Generator: Adobe Illustrator 27.7.0, SVG Export Plug-In . SVG Version: 6.00 Build 0)  -->
<svg version="1.1" id="Ebene_1" xmlns="http://www.w3.org/2000/svg" xmlns:xlink="http://www.w3.org/1999/xlink" x="0px" y="0px"
	 viewBox="0 0 583 614.7" style="enable-background:new 0 0 583 614.7;" xml:space="preserve">
<style type="text/css">
	.st0{fill:#FFB6B6;}
	.st1{fill:#2F2E41;}
	.st2{fill:#F2F2F2;}
	.st3{fill:#A0616A;}
	.st4{fill:#CCCCCC;}
	.st5{fill:#3F3D56;}
	.st6{fill:#FFFFFF;}
	.st7{fill:#E6E6E6;}
	.st8{fill:#BB1C16;}
	.st9{fill:#4E342E;}
</style>
<g>
	<polygon class="st0" points="303.3,487.9 284.3,486.8 286.9,545.2 299.8,545.9 	"/>
	<path class="st1" d="M285.2,526.7l6.6,3v4c0,0,1.6-4.6,10.1-5.7l1,3.9c0,0,3.3,3.8,2.8,10.7l-2.1,18.5l-6.5-0.1l-1.1-12.8
		c0,0-1.8-2.9-9.9,11c0,0-3,4.6-17-0.1c-1.9-0.6-3.3-2.4-3.2-4.5c0-1.1,0.4-2.2,1.8-2.5c3.6-1,7,0.2,9.3-2.6
		S285.2,526.7,285.2,526.7L285.2,526.7L285.2,526.7z"/>
</g>
<g>
	<polygon class="st0" points="255.7,541.4 236.6,540.4 239.2,598.8 252.1,599.5 	"/>
	<path class="st1" d="M237.6,580.3l6.6,3v4c0,0,1.6-4.6,10.1-5.7l1,3.9c0,0,3.3,3.8,2.8,10.7l-2.1,18.5l-6.5-0.1l-1.1-12.8
		c0,0-1.8-2.9-9.9,11c0,0-3,4.6-17-0.1c-1.9-0.6-3.3-2.4-3.2-4.5c0-1.1,0.4-2.2,1.8-2.5c3.6-1,7,0.2,9.3-2.6
		S237.6,580.3,237.6,580.3L237.6,580.3L237.6,580.3z"/>
</g>
<g>
	<path class="st2" d="M494.5,367c-0.8-1.4-4.5,0.1-5.2-1.2c-0.7-1.3,2.7-3.2,4.7-7.7c0.3-0.8,2.6-5.9,0.9-7.5
		c-3.1-3-17.2,9.3-22.2,5.3c-1.1-0.9-1.8-2.6-5.1-5.5c-1.3-1.1-2.1-1.7-2.9-1.5c-1.1,0.3-1.2,1.7-2.3,4.6c-1.7,4.3-2.8,4-3.8,7.4
		c-0.8,2.5-0.6,4-1.5,4.3c-1.3,0.4-2.4-2.3-4-2c-1.6,0.2-2.6,3.4-2.9,5.7c-0.6,4.4,1,7.3,1.9,10.4c1,3.3,1.6,8.4-0.7,15.5
		l-22.3,62.8c4.9-12.9,19.2-48.2,25.1-61.3c1.7-3.8,3.6-7.6,7.6-9.1c3.8-1.5,8.9-0.6,15.6-2.2c0.8-0.2,2.9-0.7,3.2-2
		c0.2-1-1-1.6-0.8-2.6c0.3-1.3,2.7-1.3,5.8-2.8c2.1-1.1,3.5-2.3,4.6-3.4C490.4,373.8,495.6,368.9,494.5,367L494.5,367z"/>
	<path class="st2" d="M406.8,400c-0.9,0-1.2,2.2-2.1,2.2c-0.8,0-0.8-2.3-2.4-4.5c-0.3-0.4-2.2-3-3.4-2.6c-2.4,0.7-0.4,11.1-3.8,12.4
		c-0.7,0.3-1.8,0.1-4.2,0.9c-0.9,0.3-1.4,0.6-1.5,1c-0.2,0.6,0.5,1.1,1.6,2.5c1.6,2.1,1.2,2.5,2.6,4c1,1.1,1.8,1.4,1.7,2
		c-0.2,0.7-1.8,0.5-2.2,1.4c-0.3,0.9,0.9,2.3,2,3.1c2,1.6,3.9,1.6,5.6,2c1.9,0.5,4.6,1.7,7.4,4.8l24.4,29
		c-4.9-6.1-18.1-23.3-22.8-30c-1.4-1.9-2.7-4-2.3-6.3c0.4-2.3,2.3-4.6,3.4-8.3c0.1-0.4,0.5-1.6-0.1-2.1c-0.4-0.4-1.1,0-1.5-0.3
		c-0.6-0.5,0.1-1.7,0.3-3.7c0.1-1.4-0.1-2.4-0.3-3.3C409,404,408.1,400,406.8,400L406.8,400z"/>
	<path class="st2" d="M425.6,404.2l-0.6-5.1l0.3-0.4c1.2-1.8,1.8-3.5,1.8-5.2c0-0.3,0-0.5,0-0.8c0-1.1-0.1-2.4,0.6-3.9
		c0.4-0.9,1.5-2.8,3.1-2.6c0.4,0.1,0.8,0.3,1,0.5c0-0.1,0.1-0.1,0.1-0.2c0.5-0.8,0.9-1.1,1.3-1.4c0.3-0.2,0.6-0.5,1.1-1.1
		c0.2-0.3,0.4-0.5,0.5-0.7c0.4-0.6,1-1.3,1.9-1.3c1,0,1.6,0.9,1.9,1.5c0.6,1,0.9,1.7,1.1,2.2c0.1,0.2,0.1,0.4,0.2,0.4
		c0.3,0.5,3,0,4.1-0.1c2.3-0.4,4.3-0.7,5.1,0.7c0.6,1,0.2,2.4-1.3,4.2c-0.5,0.6-1,1-1.4,1.3c0.4,0.2,0.7,0.5,0.8,1.1l0,0
		c0.3,1.2-0.7,2.5-3.1,3.7c-0.6,0.3-1.4,0.7-2.5,0.9c-0.5,0.1-1,0.1-1.4,0.1c0,0.2-0.1,0.5-0.2,0.8c-0.4,0.8-1.3,1.1-2.6,1
		c-1.4-0.1-2.6-0.4-3.7-0.6c-0.9-0.2-1.7-0.4-2.3-0.3c-1.2,0.1-2,1-3.1,2.2L425.6,404.2L425.6,404.2z"/>
	<path class="st2" d="M428.2,374.1l-4.8,1.8l-0.4-0.2c-2-0.7-3.9-0.9-5.5-0.5c-0.3,0.1-0.5,0.1-0.8,0.2c-1,0.3-2.3,0.7-3.9,0.4
		c-0.9-0.2-3.1-0.7-3.3-2.3c-0.1-0.4,0.1-0.8,0.2-1.1c-0.1,0-0.1,0-0.2-0.1c-0.9-0.3-1.3-0.6-1.7-0.9c-0.3-0.2-0.6-0.5-1.3-0.8
		c-0.3-0.1-0.6-0.2-0.8-0.3c-0.7-0.3-1.5-0.6-1.7-1.5c-0.2-1,0.5-1.8,0.9-2.2c0.8-0.9,1.4-1.3,1.9-1.6c0.2-0.1,0.3-0.2,0.4-0.3
		c0.4-0.4-0.7-2.9-1.2-3.9c-0.9-2.1-1.8-4-0.6-5.1c0.9-0.8,2.3-0.8,4.4,0.2c0.6,0.3,1.2,0.7,1.6,1c0.1-0.4,0.4-0.8,0.8-1.1l0,0
		c1.1-0.6,2.6,0.1,4.3,2.1c0.4,0.5,1,1.2,1.5,2.2c0.2,0.5,0.4,0.9,0.5,1.3c0.2-0.1,0.5-0.1,0.8,0c0.9,0.2,1.4,1,1.7,2.3
		c0.3,1.4,0.3,2.6,0.4,3.7c0,0.9,0.1,1.8,0.3,2.3c0.4,1.1,1.5,1.7,2.9,2.4L428.2,374.1L428.2,374.1z"/>
	<path class="st2" d="M425.6,359.1l-0.6-5.1l0.3-0.4c1.2-1.8,1.8-3.5,1.8-5.2c0-0.3,0-0.5,0-0.8c0-1.1-0.1-2.4,0.6-3.9
		c0.4-0.9,1.5-2.8,3.1-2.6c0.4,0.1,0.8,0.3,1,0.5c0-0.1,0.1-0.1,0.1-0.2c0.5-0.8,0.9-1.1,1.3-1.4c0.3-0.2,0.6-0.5,1.1-1.1
		c0.2-0.3,0.4-0.5,0.5-0.7c0.4-0.6,1-1.3,1.9-1.3c1,0,1.6,0.9,1.9,1.5c0.6,1,0.9,1.7,1.1,2.2c0.1,0.2,0.1,0.4,0.2,0.4
		c0.3,0.5,3,0,4.1-0.1c2.3-0.4,4.3-0.7,5.1,0.7c0.6,1,0.2,2.4-1.3,4.2c-0.5,0.6-1,1-1.4,1.3c0.4,0.2,0.7,0.5,0.8,1.1l0,0
		c0.3,1.2-0.7,2.5-3.1,3.7c-0.6,0.3-1.4,0.7-2.5,0.9c-0.5,0.1-1,0.1-1.4,0.1c0,0.2-0.1,0.5-0.2,0.8c-0.4,0.8-1.3,1.1-2.6,1
		c-1.4-0.1-2.6-0.4-3.7-0.6c-0.9-0.2-1.7-0.4-2.3-0.3c-1.2,0.1-2,1-3.1,2.2L425.6,359.1L425.6,359.1z"/>
	<path class="st2" d="M430.8,457.5l-1.1-0.7l-0.3-1.2l0.3,1.2l-1.2,0.1c0-0.1-0.1-0.4-0.2-0.8c-0.6-2.3-2.2-9.2-3.7-20
		c-1-7.6-1.5-15.4-1.7-23.2c-0.1-7.8,0.3-13.7,0.6-18.5c0.2-3.6,0.5-7,0.8-10.3c0.7-8.9,1.4-17.3,0.9-26.5c-0.1-2.1-0.3-6.4-2.9-11
		c-1.5-2.7-3.5-5-6-7l1.6-2c2.8,2.2,5,4.8,6.6,7.8c2.8,5.1,3,9.8,3.2,12.1c0.5,9.4-0.2,17.9-0.9,26.9c-0.3,3.3-0.5,6.7-0.8,10.3
		c-0.3,4.7-0.7,10.6-0.5,18.3c0.1,7.7,0.7,15.4,1.6,22.9c1.4,10.7,3.1,17.5,3.6,19.7C431,456.8,431.1,457,430.8,457.5L430.8,457.5z"
		/>
	<path class="st2" d="M411.7,343.6c-0.1,0-0.2,0-0.3,0c-2.1-0.1-4.1-1.4-5.9-3.8c-0.8-1.1-1.3-2.4-2.1-5c-0.1-0.4-0.8-2.4-1.2-5.2
		c-0.3-1.8-0.2-2.6,0.1-3.2c0.4-0.7,1-1.3,1.8-1.6c0-0.2,0-0.5,0.1-0.7c0.4-1,1.6-0.9,2.2-0.8c0.3,0,0.7,0.1,1.1,0.1
		c0.7,0,1-0.2,1.5-0.5c0.5-0.3,1.2-0.6,2.1-0.8c1.9-0.4,3.4,0.1,3.9,0.3c2.7,0.9,4,3,5.6,5.4c0.3,0.5,1.4,2.3,2.1,4.7
		c0.5,1.8,0.4,2.5,0.3,3.1c-0.3,1.2-1,1.9-2.9,3.4c-1.9,1.6-2.9,2.4-3.7,2.9C414.6,342.9,413.4,343.6,411.7,343.6L411.7,343.6z"/>
</g>
<g>
	<polygon class="st3" points="146,451.6 157.9,451.6 163.5,405.8 146,405.8 	"/>
	<path class="st1" d="M186.6,451.3L186.6,451.3c0.4,0.6,0.6,2.6,0.6,3.4l0,0c0,2.2-1.8,4-4,4h-36.7c-1.5,0-2.7-1.2-2.7-2.7v-1.5
		c0,0-1.8-4.6,1.9-10.3c0,0,4.6,4.4,11.6-2.5l2-3.7l14.8,10.8l8.2,1C184.1,450,185.7,449.7,186.6,451.3L186.6,451.3z"/>
</g>
<g>
	<polygon class="st3" points="101,451.6 112.9,451.6 118.5,405.8 101,405.8 	"/>
	<path class="st1" d="M141.6,451.3L141.6,451.3c0.4,0.6,0.6,2.6,0.6,3.4l0,0c0,2.2-1.8,4-4,4h-36.7c-1.5,0-2.7-1.2-2.7-2.7v-1.5
		c0,0-1.8-4.6,1.9-10.3c0,0,4.6,4.4,11.6-2.5l2-3.7l14.8,10.8l8.2,1C139.1,450,140.7,449.7,141.6,451.3L141.6,451.3z"/>
</g>
<polygon class="st1" points="92.3,205.9 77.3,239.9 96.3,425.9 119.8,427.4 129.3,262.9 138.3,427.9 166.3,424.9 172.9,215.4 "/>
<path class="st4" d="M151.4,70.4l-30.1-5.5l-6.1,6.1L84.3,83.9l5,97c0,0-10,6.7-5,15.8s4,20.2,4,20.2h84.6l-3.6-55l10-70l-23.4-11.1
	L151.4,70.4C151.4,70.4,151.4,70.4,151.4,70.4z"/>
<path id="b-833" class="st0" d="M129.6,183.4c8.6,2,16.5-0.7,17.8-6.2c1.3-5.4-4.6-11.5-13.1-13.5c-3.4-0.9-7-0.9-10.4-0.1
	l-36.3-8.2l-3.5,17.1l36.2,6.3C122.9,181,126.1,182.6,129.6,183.4L129.6,183.4z"/>
<path class="st4" d="M90.3,88.9l-6-5c0,0-12,6-14,11s-14,53-14,53s-2.4,26.3,3.8,29.7s45.2,1.3,45.2,1.3l3-20l-16-6L90.3,88.9z"/>
<circle class="st3" cx="138.2" cy="35.6" r="26.4"/>
<path class="st1" d="M119.3,59c-3.2,0.3-8.3-7.8-8.1-15.7c0.1-5-4.2-6-4.6-12.5c-0.2-3.8,5.6-5,6-8c0.7-5.5,4.3-9.2,4.7-9.7
	c3.8-3.9,6.5-2.6,11-7.1c2.7-2.7,2-3.5,3.8-4.7c5.3-3.5,14.7,0.3,20.4,5.4c2,1.8,9.3-0.2,12.5,4.8c3.8,5.8,2.9,17.8,1.3,19.3
	c-1,1-3.2-1.4-9.3-2.9c-5.6-1.4-0.3,5.5-6.8,4.3c-7.7-1.4-9.2-3.7-12.1-2.3c-3,1.5-5.4,6.1-4.7,9.7c0.3,1.8,1.3,2.8,0.8,3.7
	c-1,1.7-2.2,0-3.5,1.7c-1.5,1.9,2.3,6.9,1.5,7.4c-0.1,0.1-0.6,0.1-4.7-3.8c-1.6-1.6-2.1-2.5-2.4-2.4c-0.5,0.2-3.9,3.4-2.6,5.9
	c2,3.9-0.6,4,0,6.6C123.2,61.4,121.3,58.9,119.3,59L119.3,59L119.3,59z"/>
<polygon class="st5" points="113.8,139.4 109.8,142.4 130.8,171.4 134.8,170.4 "/>
<g>
	<path class="st6" d="M167.8,165.9v50.6c0,4.5-3.6,8.1-8.1,8.1H109c-4.5,0-8.1-3.6-8.1-8.1v-50.6c0-4.5,3.6-8.1,8.1-8.1h50.6
		C164.1,157.8,167.8,161.4,167.8,165.9z"/>
	<g>
		<path class="st5" d="M141.1,178.5h-16.3c-0.4,0-0.7-0.3-0.7-0.7s0.3-0.7,0.7-0.7h16.3c0.4,0,0.7,0.3,0.7,0.7
			S141.5,178.5,141.1,178.5z"/>
		<path class="st5" d="M141.1,194.4h-16.3c-0.4,0-0.7-0.3-0.7-0.7s0.3-0.7,0.7-0.7h16.3c0.4,0,0.7,0.3,0.7,0.7
			S141.5,194.4,141.1,194.4z"/>
		<path class="st5" d="M133,216.4h-16.3c-0.4,0-0.7-0.3-0.7-0.7s0.3-0.7,0.7-0.7H133c0.4,0,0.7,0.3,0.7,0.7S133.4,216.4,133,216.4z"
			/>
		<path class="st5" d="M149.9,186.4H116c-0.4,0-0.7-0.3-0.7-0.7s0.3-0.7,0.7-0.7h33.9c0.4,0,0.7,0.3,0.7,0.7
			S150.3,186.4,149.9,186.4z"/>
	</g>
</g>
<path id="c-834" class="st3" d="M147.4,187.5c-7.8,4.1-12,11.4-9.4,16.3s11,5.7,18.8,1.6c3.1-1.6,5.8-3.9,7.9-6.7l32.8-17.7
	l-8.6-15.2l-31.4,19C153.9,184.9,150.5,185.8,147.4,187.5z"/>
<path class="st4" d="M173.3,92.9c0,0,9-6,15,10c4.7,12.6,13.5,49.8,17,65c0.9,4-0.4,8.2-3.5,11l-4,3.6l-19.5,14.5L165,177.5
	l16.1-9.7l-18.4-39.9L173.3,92.9C173.3,92.9,173.3,92.9,173.3,92.9z"/>
<path class="st7" d="M583,458.4L583,458.4c0,0.5-0.4,0.8-0.8,0.8H0v-1.7h582.2C582.7,457.5,583,457.9,583,458.4z"/>
<path id="d-835" class="st3" d="M267.6,453.8c0.2-2.1-0.1-4.2-0.9-6.2l3.3-21.9l-10.5-1.3l-2.2,22.4c-1.1,1.8-1.8,3.9-1.9,6
	c-0.5,5.3,1.9,9.8,5.3,10.1S267.1,459.1,267.6,453.8L267.6,453.8L267.6,453.8z"/>
<path class="st8" d="M297.9,324.3l-8.6,45.4l-10.7,23.8l-6.4,45.9l-16.4,5l5.1-58.2c0,0,16.6-54.1,21-59.6S297.9,324.3,297.9,324.3
	L297.9,324.3L297.9,324.3z"/>
<g>
	
		<rect x="301.2" y="284.7" transform="matrix(0.2931 -0.9561 0.9561 0.2931 -64.6691 519.4098)" class="st9" width="35.5" height="37.5"/>
	<circle class="st0" cx="324.5" cy="286.4" r="18.3"/>
	<path class="st9" d="M341.5,260.7c-5.6-2.7-16.3-1.4-20.1-1c-3.4,0.4-5.8,2.3-8.1,4.3c-5.3,4.4-7.6,9.8-8.3,11.6
		c-3.5,8.9-0.1,12.7-3.7,16.4c-3.9,4-9.3,1.3-11.7,5.2c-2.2,3.5,1.8,6.6,0.3,12.2c-1.8,6.5-8.6,7.9-7.9,10.4
		c0.8,2.8,10,3.9,17.4,0.6c1-0.4,9.7-4.5,10.1-11.1c0.3-4.2-3.2-4.7-4.1-10.7c-0.7-4.2,0.4-7.8,2.1-13.5c1.2-4,1.8-6,3.1-7.8
		c0.6-0.9,6.5-9,15.1-7.5c7.6,1.3,12.8,9.4,11.8,14.4c-0.6,3-3.4,5.2-2.3,7.4c0.8,1.6,2.9,1.5,3.1,3c0.2,1.4-1.3,2.8-2.6,3.9
		c-1.5,1.4-2.9,2-3.4,2.3c-3.7,2-5,8.2-5,12c0,5.7,3.2,12.7,9.6,15.1c7.2,2.7,15.9-1.3,16.2-4.5c0.2-1.9-2.6-2.5-3-5.6
		c-0.5-3.6,2.7-5.4,1.7-7.6c-0.9-2,0.4,0.9-2.1-2c-0.3-0.3-1.9-2.3-2-4.7c0-3.1,2.6-5.2,4.1-6.8c5.5-6.2,6.4-17.9,1.3-23.6
		C350.3,269.8,352.1,265.9,341.5,260.7L341.5,260.7L341.5,260.7z"/>
	<path class="st9" d="M344.1,278.4c1.7-3.7-2.7-8.5-3.3-9.1c-4.3-4.5-10.4-4.7-13.4-4.8c-2.6-0.1-8.3-0.2-12.6,3.6
		c-2.3,2.1-4.5,5.5-3.5,7c0.6,0.9,2.3,1,5.7,1.1c3.1,0.1,4.2-0.3,5.9,0.5c1.3,0.6,1.6,1.2,2.7,2.2c3,2.6,6.7,3,7.8,3.1
		C336.2,282.2,342.5,282.1,344.1,278.4L344.1,278.4z"/>
</g>
<polygon class="st8" points="300.6,320.3 285.1,325.1 286.3,339.4 281.5,427.5 361.3,429.9 362.3,421.7 354.2,392.2 357.7,333.4 
	335.1,321.5 329.1,309.6 307.7,308.4 "/>
<path class="st1" d="M335.7,412.6l-54.8,16.7c0,0-33.1,9.5-51,19c-17.9,9.5-15.7,18.2-15.7,18.2l22.6,101.2l21.4,1.2l-2.9-93.1
	l23.2-3.2l3.6,34.1l19.1,4.8l19.1-65.5l0,0c1.4,8.2,9,13.9,17.2,12.8c6.9-0.9,15.3-2.2,23.3-4.2c17.9-4.5,0-36,0-36L335.7,412.6
	L335.7,412.6z"/>
<path class="st1" d="M279.1,463.2c0,0,3.6-28.6,9.5-60.7s27.4-23.8,27.4-23.8l38.1,40.5l-31,20.2L279.1,463.2L279.1,463.2z"/>
<path id="e-836" class="st0" d="M311.4,432.4c1.6-1.4,2.8-3.2,3.5-5.2L332,413l-7-7.9l-16.6,15.2c-2,0.6-3.9,1.7-5.4,3.2
	c-3.9,3.6-5.1,8.6-2.8,11S307.6,436,311.4,432.4L311.4,432.4z"/>
<path class="st8" d="M325.6,353.7l13.6,26.6l-23.4,30.2l11.8,12.3l29.3-24.7l13.7-12.9c5-4.7,2.4-10.9-0.1-17.3
	c-9.9-25.5-7.5-35-17-37.4C345.8,328.5,325.6,353.7,325.6,353.7L325.6,353.7L325.6,353.7z"/>
<g>
	<polygon class="st7" points="263.2,403.6 265.4,397.4 306.9,404.5 342.1,386.7 343.8,391.6 305.5,414.3 	"/>
	<polygon class="st5" points="345.6,388.5 306,408.5 260.6,402 265,421 303.3,427.7 339.5,410.3 	"/>
</g>
<g>
	<polygon class="st7" points="104.6,172.3 106.8,166.1 148.3,173.2 183.5,155.4 185.3,160.3 147,183 	"/>
	<polygon class="st5" points="187.1,157.2 147.4,177.2 102.1,170.7 106.4,189.7 144.7,196.4 181,179 	"/>
</g>
</svg>
