<?xml version="1.0" encoding="utf-8"?>
<!-- Generator: Adobe Illustrator 27.7.0, SVG Export Plug-In . SVG Version: 6.00 Build 0)  -->
<svg version="1.1" id="Ebene_1" xmlns="http://www.w3.org/2000/svg" xmlns:xlink="http://www.w3.org/1999/xlink" x="0px" y="0px"
	 viewBox="0 0 835 540.8" style="enable-background:new 0 0 835 540.8;" xml:space="preserve">
<style type="text/css">
	.st0{fill:#3F3D56;}
	.st1{fill:#BB1C16;}
	.st2{fill:#E6E6E6;}
	.st3{fill:#F2F2F2;}
	.st4{fill:#E4E4E4;}
	.st5{fill:#FFB8B8;}
	.st6{fill:#4E342E;}
	.st7{fill:#FD6584;}
	.st8{fill:#2F2E41;}
	.st9{opacity:0.15;enable-background:new    ;}
	.st10{opacity:0.15;}
</style>
<path class="st0" d="M69.9,529.1c0,1-0.1,1.9-0.2,2.9c-1.2,1.5-2.3,3-3.4,4.4c-0.9,1.2-1.8,2.4-2.7,3.6c0,0,0,0,0,0.1
	c0,0.1-0.1,0.1-0.2,0.2L63,540l-1-0.7l-5.4-4c-11.2-2.2-20.8-9.5-26-19.7c-3.4-6.8-4.8-14.6-6.1-22.3c-1.9-10.6-3.8-21-11.4-28.4
	c5.2,0.4,10.3,1.6,15.1,3.3c-0.6,2-0.9,4.2-0.7,6.3c0.1,0.6,0.2,1.3,0.8,1.5c0.5,0,1-0.2,1.4-0.6c0.9-0.8,1.9-1.7,2.8-2.5
	c0.8-0.7,1.5-1.3,2.3-2c3.7,1.8,7.3,4,10.6,6.5c5.2,3.9,9.7,8.6,13.4,13.8c5.7,8.2,9.3,17.7,10.5,27.6
	C69.8,522.4,70,525.7,69.9,529.1z"/>
<path class="st1" d="M80.3,515.9c-0.3,1.5-0.8,2.9-1.3,4.3c-3.2,4-6.3,7.9-9.3,11.8c-1.2,1.5-2.3,3-3.4,4.4
	c-0.9,1.2-1.8,2.4-2.7,3.6c0,0,0,0,0,0.1c0,0,0,0-0.1-0.1c-0.4-0.3-0.8-0.7-1.1-1.1c-2.1-2.1-4.1-4.3-6-6.7
	c-7.1-9.2-11.6-20.1-12.9-31.6c-0.1-0.7-0.1-1.4-0.2-2.1c-0.5-7.1,0.2-14.1,2.1-21c3-10.8,8.8-20.5,16.8-28.3
	c-0.9,7.2,1.3,14,4.5,20.6c-1.2,2.6-1.8,5.5-1.5,8.4c0,0.6,0.2,1.3,0.8,1.5c0.5,0.1,1-0.2,1.4-0.6c0.9-0.8,1.9-1.7,2.8-2.5
	c3.3,6.1,6.9,12.1,9,18.6c0.5,1.5,0.9,2.9,1.2,4.4C81.6,505,81.5,510.6,80.3,515.9z"/>
<path class="st1" d="M66.3,536.4c-0.9,1.2-1.8,2.4-2.7,3.6c0,0,0,0,0,0.1c0,0.1-0.1,0.1-0.2,0.2L63,540H42.1l-0.2,0.8
	c-0.7-0.2-1.5-0.5-2.2-0.8c-7.3-2.8-13.9-6.9-19.7-12.2C6.5,515.2-0.8,497.4,0.1,478.9c4.2,5.7,10.1,9.1,16.6,11.7
	c-0.1,0.3-0.2,0.5-0.3,0.8c-0.7,2-0.9,4.2-0.7,6.3c0.1,0.6,0.2,1.3,0.8,1.5c0.5,0.1,1-0.2,1.4-0.6c0.9-0.8,1.9-1.7,2.9-2.5
	c0.8-0.7,1.5-1.3,2.3-2c0.4-0.3,0.7-0.6,1.1-0.9c0.2,0,0.3,0.1,0.5,0.2c6.5,2.1,13.1,4.1,19,7.2c1.5,0.8,2.9,1.6,4.3,2.6
	c8,5.6,13.5,14.1,15.3,23.6c0.3,1.6,0.5,3.2,0.6,4.8l1.7,3.2L66.3,536.4z"/>
<path class="st2" d="M592.3,525c0.1,4.9-0.6,9.8-2,14.5c-0.1,0.2-0.1,0.3-0.2,0.5h-29.4c0.4-2.1,1.1-4.1,2-6
	c2.5-5.2,6.5-9.7,10.4-14.1c5.4-6.1,10.8-12.1,11.6-20c2.2,3.3,3.9,6.8,5.1,10.6c-1.5,0.6-2.9,1.4-4.1,2.5c-0.3,0.3-0.7,0.8-0.5,1.2
	c0.2,0.4,0.6,0.5,1,0.6c0.9,0.2,1.9,0.4,2.8,0.5c0.7,0.2,1.5,0.3,2.2,0.4C591.9,518.8,592.3,521.9,592.3,525z"/>
<path class="st2" d="M617.1,521.8c-4.7,2.9-7.7,7.3-10.2,12.3c-2.1,0.5-4.1,1.5-5.7,3c-0.3,0.3-0.7,0.8-0.5,1.2
	c0.2,0.4,0.6,0.5,1,0.6c0.9,0.2,1.9,0.4,2.8,0.5c-0.1,0.2-0.2,0.4-0.3,0.6H573c1.4-1.9,3-3.7,4.7-5.4c0.4-0.4,0.8-0.7,1.1-1.1
	c4-3.6,8.5-6.5,13.5-8.5C600.1,521.8,608.7,520.7,617.1,521.8z"/>
<path class="st2" d="M578.2,540h-27.8c-0.2-2.2-0.1-4.5,0-6.7c1.2-13.9,8.5-26.6,19.8-34.7c-1.4,5.1-0.7,10.2,0.8,15.3
	c-0.2,0.1-0.4,0.1-0.6,0.2c-1.5,0.6-2.9,1.4-4.1,2.5c-0.3,0.3-0.7,0.8-0.5,1.2c0.2,0.4,0.6,0.5,1,0.6c0.9,0.2,1.9,0.4,2.8,0.5
	c0.8,0.2,1.5,0.3,2.2,0.4c0.3,0.1,0.7,0.1,1.1,0.2c0,0.1,0.1,0.2,0.1,0.3c1.8,4.8,3.7,9.7,4.6,14.7c0.2,1.2,0.4,2.5,0.5,3.8
	C578.2,538.9,578.2,539.5,578.2,540z"/>
<path class="st2" d="M378.3,525c0.1,4.9-0.6,9.8-2,14.5c0,0.2-0.1,0.3-0.2,0.5h-29.4c0.4-2.1,1.1-4.1,2-6c2.5-5.2,6.5-9.7,10.4-14.1
	c5.4-6.1,10.8-12.1,11.6-20c2.2,3.3,3.9,6.8,5.1,10.6c-1.5,0.6-2.9,1.4-4.1,2.5c-0.3,0.3-0.7,0.8-0.5,1.2c0.2,0.4,0.6,0.5,1,0.6
	c0.9,0.2,1.9,0.4,2.8,0.5c0.7,0.2,1.5,0.3,2.2,0.4C377.9,518.8,378.3,521.9,378.3,525z"/>
<path class="st2" d="M403.1,521.8c-4.7,2.9-7.7,7.3-10.2,12.3c-2.1,0.5-4.1,1.5-5.7,3c-0.3,0.3-0.7,0.8-0.5,1.2
	c0.2,0.4,0.6,0.5,1,0.6c0.9,0.2,1.9,0.4,2.8,0.5c-0.1,0.2-0.2,0.4-0.3,0.6H359c1.4-1.9,3-3.7,4.7-5.4c0.4-0.4,0.8-0.7,1.1-1.1
	c4-3.6,8.5-6.5,13.5-8.5C386.1,521.8,394.7,520.7,403.1,521.8z"/>
<path class="st2" d="M364.2,540h-27.8c-0.2-2.2-0.1-4.5,0-6.7c1.2-13.9,8.5-26.6,19.8-34.7c-1.4,5.1-0.7,10.2,0.8,15.3
	c-0.2,0.1-0.4,0.1-0.6,0.2c-1.5,0.6-2.9,1.4-4.1,2.5c-0.3,0.3-0.7,0.8-0.5,1.2c0.2,0.4,0.6,0.5,1,0.6c0.9,0.2,1.9,0.4,2.8,0.5
	c0.8,0.2,1.5,0.3,2.2,0.4c0.3,0.1,0.7,0.1,1,0.2c0,0.1,0.1,0.2,0.1,0.3c1.8,4.8,3.7,9.7,4.6,14.7c0.2,1.2,0.4,2.5,0.5,3.8
	C364.2,538.9,364.2,539.5,364.2,540z"/>
<path class="st3" d="M433.1,172.5c-7.7-12.7-16.8-26.2-31-30.4c-16.5-4.8-33.4,4.7-47.8,14.1c-42.9,28.1-84.3,58.6-123.9,91.3l0,0.5
	c30.8-2.1,61.6-4.3,92.5-6.4c22.3-1.5,45.3-3.3,65-13.8c7.5-4,14.7-9.3,23.2-9.7c10.5-0.5,19.7,6.9,26.9,14.5
	c42.6,45.4,54.9,114.8,102.7,154.6C510.6,312.9,474.6,241.1,433.1,172.5z"/>
<path class="st4" d="M684.9,540h-4.2C644,492.3,609.4,443,577,392.1c-22.6-35.5-44.1-71.6-64.5-108.5c-1.2-2.2-2.4-4.3-3.6-6.5
	c-8.4-15.4-16.7-30.9-24.7-46.5c-7.1-13.8-14.1-27.7-20.9-41.6c-1.9-4-3.8-8-5.7-12c-4.4-9.4-8.8-18.9-13.4-28.2
	c-4.7-9.4-10.3-19.2-18.3-26.3c-1-0.9-2.1-1.8-3.2-2.6c-1.3-0.9-2.6-1.8-4-2.5c-0.1-0.1-0.3-0.1-0.4-0.2c-3.4-1.8-7.1-2.9-10.9-3.1
	c-8-0.5-15.3,2.8-22.2,6.4c-11.6,6.1-23.1,12.5-34.4,19.3c-37.5,22.5-72.9,48.4-105.7,77.3c-0.1,0.1-0.2,0.1-0.2,0.2
	c-42.8,37.6-81.1,80.1-114,126.6c-1,1.4-3.4,0.1-2.4-1.4c4-5.7,8.1-11.3,12.2-16.8c31.1-41.4,66.4-79.3,105.5-113.2
	c4.4-3.8,8.8-7.5,13.3-11.2c21.9-18.2,44.9-35,68.8-50.5c7.3-4.8,14.7-9.4,22.2-13.8c5-3,10-5.9,15-8.7c6.4-3.6,12.8-7.2,19.2-10.5
	c6.4-3.3,13.1-6.2,20.4-6.3c5.2-0.1,10.4,1.2,15,3.7c0.1,0.1,0.3,0.1,0.4,0.2c2.8,1.6,5.4,3.5,7.8,5.7c10.6,9.8,17.6,25.1,23.1,36.9
	c2.8,5.9,5.6,11.9,8.4,17.8c10.7,22.4,21.8,44.6,33.4,66.6c6.2,11.8,12.5,23.5,18.9,35.1c1,1.8,2,3.6,3,5.4
	c23.1,41.8,47.7,82.8,73.8,122.9C619.8,453.2,650.5,495.9,684.9,540z"/>
<path class="st4" d="M242.3,203.3c-1.4-1.6-2.9-3.2-4.3-4.8c-11.4-12.6-23.7-25.1-39.4-32.4c-7.5-3.6-15.6-5.5-23.9-5.5
	c-8.6,0-16.9,2.3-24.8,5.4c-3.7,1.5-7.4,3.2-11,5c-4.1,2.1-8.2,4.3-12.2,6.5c-7.6,4.2-15,8.5-22.4,13.1c-14.6,9-28.8,18.8-42.5,29.2
	c-7.1,5.4-14.1,11-20.9,16.8c-6.3,5.4-12.6,10.9-18.6,16.5c-1.3,1.2-3.2-0.7-1.9-1.9c1.6-1.5,3.2-3,4.8-4.4c4.6-4.1,9.2-8.2,14-12.2
	c8.6-7.3,17.5-14.3,26.5-21c14.1-10.5,28.7-20.2,43.8-29.2c7.5-4.5,15.2-8.8,22.9-13c2.3-1.2,4.7-2.5,7.1-3.6
	c5.4-2.7,11.1-5,16.9-6.9c8.2-2.7,16.9-3.5,25.5-2.5c8.3,1.2,16.3,4,23.5,8.1c15.4,8.6,27.3,21.9,39,34.9
	C245.5,202.7,243.5,204.6,242.3,203.3z"/>
<path class="st4" d="M557.9,334.2l36.9-13.5l18.3-6.7c6-2.2,11.9-4.7,18.1-6.2c5.4-1.5,11.1-1.5,16.4,0.2c4.7,1.8,9.1,4.4,12.8,7.9
	c3.8,3.5,7.3,7.2,10.5,11.2c4,4.8,7.9,9.6,11.9,14.5c16.3,19.9,32.5,39.9,48.6,60c16.1,20.1,32.1,40.3,47.9,60.6
	c15.9,20.3,31.7,40.7,47.4,61.2c1.9,2.5,3.8,5,5.8,7.5c1.1,1.4,3.4,0,2.4-1.4c-15.8-20.7-31.7-41.3-47.7-61.8
	c-16.1-20.6-32.2-41.1-48.5-61.5c-16.3-20.4-32.7-40.7-49.2-60.9c-4.1-5-8.2-10.1-12.4-15.1c-3.5-4.2-6.9-8.5-10.7-12.5
	c-7-7.2-15.8-13.6-26.2-13.8c-6.2-0.1-12.1,1.9-17.8,3.9c-6.2,2.2-12.3,4.5-18.5,6.8l-37.2,13.6l-9.3,3.4
	C555.5,332.2,556.2,334.8,557.9,334.2L557.9,334.2z"/>
<path class="st3" d="M193.8,182c-18.8-9.6-42.8-7.8-60,4.3c32.9,5.7,65.4,13.3,97.4,22.7C217.9,201.3,207.5,189.1,193.8,182z"/>
<path class="st3" d="M133.6,186.3l-3.6,2.9c1.2-1,2.5-2,3.8-2.9C133.7,186.3,133.7,186.3,133.6,186.3z"/>
<path class="st3" d="M659,334.3c-3.6-4.4-7.6-9.1-13-10.8l-5.1,0.2c38.6,68.2,90.8,127.9,153.3,175.2
	C749.1,444.1,704,389.2,659,334.3z"/>
<path class="st0" d="M432.4,441.7l-28.5-216.6c-0.4-3.1-2-5.9-4.5-7.8l1.8-2.4c3.1,2.4,5.2,5.9,5.7,9.8l28.5,216.6L432.4,441.7z"/>
<circle class="st5" cx="440" cy="312.5" r="12.1"/>
<path class="st6" d="M379.4,359.8c2.3-3.6,5.1-6.9,8.4-9.6c-3,3.5-5,7.7-5.9,12.1c0.8,0.7,1.6,1.3,2.5,1.8c2.7,1.6,5.6,2.7,8.6,3.3
	c2.5-5.3,6.1-9.9,10.6-13.6c-3.4,4-5.6,9-6.2,14.2c3.5,0.2,7,0,10.4-0.7c5.1-0.9,10.2-2.7,14.2-6.1c4.3-3.7,6.9-9,8.3-14.4
	c1.4-5.5,1.7-11.1,2-16.8c0.1-2.7,2.8-5.4,2.9-8.1l-0.2,0c-1-1.7-1.7-3.6-2.1-5.5c-0.4-2,0.3-4,1.7-5.4c0.8-0.7,1.8-1.1,2.9-1.2
	c0.1-0.1,0.2-0.2,0.4-0.3c2.3-1.8,4.8-3.2,7.6-4.1c-1.8,0.9-3.3,2.3-4.3,4c1.6-0.1,3.3-0.2,4.9-0.3c0.6-0.5,1.3-0.9,1.9-1.4
	c0.8-0.4,1.6-0.8,2.4-1.2c-0.9,0.6-1.7,1.4-2.3,2.4c2.1-0.2,4.3-0.7,5.6-2.3c2.2-2.7,0.7-6.9-2-9.1c-4-3.1-9.6-3.3-13.8-0.5
	c-3.8-3.8-9.8-4.6-14.9-3c-3.4,1.1-6.4,3.1-8.8,5.6c1.2,0,2.4,0.1,3.6,0.3c-1.7,0-3.4,0.4-4.9,1.1c-0.8,0.9-1.5,1.8-2.1,2.7
	c-0.4,0.6-0.8,1.2-1.2,1.9c-2.3,3.9-4.4,8-6.1,12.3c-2.2,4.9-4.5,9.7-7.8,13.9c-5.1,6.3-12.4,10.5-20.4,11.8
	C373.6,349.3,375.6,355.3,379.4,359.8z"/>
<path class="st7" d="M437.9,297.4c-3.6,3.9-5.1,9.2-4.2,14.3L437.9,297.4z"/>
<path class="st5" d="M475.3,368.5c-1.2,2.3-4,3.2-6.3,2c-0.2-0.1-0.5-0.3-0.7-0.4l-13.9,9.1l0-8.7l13.2-7.4c1.7-2,4.7-2.1,6.6-0.4
	C475.9,364.2,476.3,366.5,475.3,368.5z"/>
<path class="st1" d="M425.3,335.2c0,0-5.7,7.9-5.5,17.2s8.1,39.9,12,39.8s34.8-17.7,34.8-17.7l-4.5-8.2l-22.3,10.2
	C439.7,376.4,441.8,331,425.3,335.2z"/>
<polygon class="st5" points="415.2,367.8 414,384.4 410.7,396.9 439.4,399.5 448,372.1 444.8,364.7 "/>
<path class="st1" d="M448.3,339.8l-2.4-2.2l-1.2-7.2l-13-4.2l-5.6,4.9l-9.7,2.6l-3.8,18.3l-3.5,22.7l35.3,9.6l6.4-15.5
	c0,0,11.1-9.8,3.2-18.4L448.3,339.8z"/>
<path class="st1" d="M452.7,429.9c-0.8-0.6-1.8-0.9-2.8-0.9h-61c-2.8,0-5,2.2-5,5s2.2,5,5,5h61c2.2,0,4.1-1.4,4.8-3.5
	c0.2-0.5,0.2-1,0.2-1.5C454.9,432.4,454.1,430.8,452.7,429.9z"/>
<path class="st8" d="M357.8,322.2C353,406,334.1,489.2,286.1,540H63.6c0,0,0,0,0,0.1c0,0.1-0.1,0.1-0.2,0.2L63,540H42.1l0.3-0.9
	c3.6-1.3,7.2-2.9,10.5-4.7c1.2-0.7,2.4-1.4,3.5-2.1c2.4-1.6,4.7-3.4,6.8-5.4c2.4-2.3,4.5-5,6.2-7.8c3.3-5.3,5.4-11,7.4-16.9
	c0.8-2.3,1.6-4.6,2.4-6.9c4.5-12.3,10.9-24.5,30.3-34.2c58.4-29.2,101.7-121.9,127.5-213.5c0.7-2.4,1.3-4.7,2-7
	c2.1-7.9,4.2-15.7,6-23.6c0.4-1.5,0.7-3.1,1.1-4.6c6.9-29.1,12.2-58.6,15.7-88.3c2.5-21.6,3.4-40.6,2.8-55.6
	c-0.2-7.3-1.1-14.5-2.6-21.6l73.7-3.1c0,0,1.1,5.2,2.9,14.6c1.8,9.6,4.2,23.5,6.8,40.7c1.7,11.2,3.4,23.9,5.1,37.6
	c0.1,1,0.2,1.9,0.3,2.9c0.7,5.7,1.3,11.6,2,17.6c2.6,24.6,4.7,51.9,5.8,80.4c0.1,3.5,0.2,7,0.3,10.5
	C359.5,272.4,359.2,297.3,357.8,322.2z"/>
<polygon class="st8" points="354,251 455.7,190.3 469.5,232.9 301.7,367.1 "/>
<path class="st0" d="M580.2,145.3c-0.1-0.2-0.2-0.4-0.3-0.6c-8.3-15.5-24.7-25-42.3-24.2c-8.2,0.4-16.1-2.7-21.9-8.5l-0.4-0.4
	c-3.7-3.8-7.9-7-12.4-9.8l-0.3-0.2l-0.3,0.3c-2.6,2.8-5.6,5.2-8.8,7.2c0.4-0.4,0.7-0.9,1-1.3c0,0,0,0,0,0c0,0,0,0,0,0
	c1.8-2.4,3.3-4.9,4.4-7.7l0.2-0.4l-0.4-0.2l-0.1,0c-24.8-12.6-54.8-7.9-74.5,11.7c-1.3,1.3-2.5,2.6-3.6,3.9
	c-0.6,0.8-1.3,1.5-1.9,2.3c-6,7.7-10.2,16.7-12.2,26.3v0c-0.1,0.6-0.2,1.1-0.3,1.7c-3.8,20.7,2.8,42,17.6,56.9
	c1.5,1.5,3,2.9,4.7,4.3c1.2,1,2.4,1.9,3.6,2.8c11.5,8.2,21.8,18,30.3,29.3c3.6,4.7,6.8,9.7,9.7,14.9c2.1,3.7,4.6,7.2,7.6,10.2
	c0.5,0.5,1.1,1,1.6,1.5l0.6,0.6l0.2-0.9c0.3-1.3,0.5-2.6,0.6-3.9v0c0.1-1.3,0.1-2.6,0.1-3.9c0.9,2.6,1.6,5.3,2,8v0
	c0.2,1,0.3,2,0.4,3l0,0.2l0.2,0.1c0.6,0.4,1.2,0.8,1.8,1.2c6.5,4.2,14,6.8,21.7,7.3c1.1,0.1,2.1,0.1,3.2,0.1c1.1,0,2.2,0,3.4-0.1
	c24.1-1.8,42.6-22,42.3-46.2c0-12.1,5-23.6,13.6-32c0-0.1,0.1-0.1,0.2-0.2l0.2-0.2c5.7-5.7,9.9-12.8,12-20.6l0.2-0.6l-0.4,0h-0.3
	c-1.5,0-3.1-0.1-4.6-0.3c-3.4-0.4-6.7-1.2-9.8-2.4c4.7,0.3,9.8-0.7,15.8-2.9l0.3-0.1l0-0.3C586,162.3,584.3,153.3,580.2,145.3z"/>
<path class="st9" d="M551.7,248.8c0,1.6-0.1,3.3-0.2,4.9c4-7.1,6.1-15.1,6-23.3c0-1.2,0-2.5,0.1-3.7
	C553.8,233.4,551.7,241.1,551.7,248.8z"/>
<path class="st9" d="M562.7,192.5c3.7,1.4,7.6,2.2,11.5,2.5c1.4-1.7,2.7-3.5,3.9-5.3C572.3,191.9,567.3,192.8,562.7,192.5z"/>
<path class="st9" d="M578.6,176.6c0.6,3.9,0.8,7.9,0.4,11.9c2-3.4,3.5-7.1,4.5-10.9l0.2-0.6l-0.6,0
	C581.5,176.9,580,176.7,578.6,176.6z"/>
<path class="st9" d="M571.8,133.5c-9.1-9.1-21.6-14-34.4-13.5c-8.2,0.4-16.1-2.7-21.9-8.5l-0.4-0.4c-3.7-3.8-7.9-7-12.4-9.8
	l-0.3-0.2l-0.3,0.3c-2.6,2.8-5.6,5.2-8.8,7.2c2.3-2.7,4.1-5.7,5.5-9l0.2-0.4l-0.4-0.2c-31.7-16.1-70.5-3.4-86.6,28.3
	c-3,6-5.1,12.4-6.2,19.1c15.7-31.9,54.4-45.1,86.3-29.3c0.2,0.1,0.5,0.2,0.7,0.3l0.4,0.2l-0.2,0.4c-1.3,3.3-3.2,6.3-5.5,9
	c3.2-2,6.2-4.4,8.8-7.2l0.3-0.3l0.3,0.2c4.5,2.7,8.7,6,12.4,9.8l0.4,0.4c5.7,5.8,13.7,8.9,21.9,8.5c21.8-0.9,41.2,13.7,46.4,34.8
	c2.2-0.5,4.4-1.2,6.5-2l0.3-0.1l0-0.3C586.3,157.1,581.5,143.3,571.8,133.5z"/>
<path class="st0" d="M26.1,0c0.7,11.6,2.8,23,6.1,34.1c6.5,22,17.8,42.4,33.1,59.5c0.5,0.5,0.9,1,1.4,1.5c0.5,0.5,0.9,1,1.4,1.5
	s0.9,1,1.4,1.5s1,1,1.4,1.5c1.9,1.9,3.9,3.8,5.9,5.6c0.5,0.5,1,0.9,1.5,1.4c1.5,1.4,3.1,2.7,4.7,4c0.5,0.4,1.1,0.9,1.6,1.3
	c0.5,0.4,1.1,0.8,1.6,1.3c0.5,0.4,1.1,0.8,1.6,1.2c1.1,0.8,2.2,1.6,3.3,2.4c0.5,0.3,0.9,0.6,1.4,1c1.2,0.8,2.4,1.7,3.6,2.5
	c0.5,0.3,1,0.6,1.5,1c0.1,0.1,0.3,0.2,0.5,0.3c0.5,0.3,1,0.6,1.5,0.9c0.6,0.4,1.1,0.7,1.7,1.1c1.2,0.7,2.3,1.4,3.5,2
	c1.2,0.7,2.4,1.3,3.6,2c1.2,0.6,2.4,1.2,3.6,1.8c0.5,0.3,1,0.5,1.5,0.8c0.2,0.1,0.4,0.2,0.6,0.3l1.5,0.7c0.6,0.3,1.2,0.6,1.9,0.9
	s1.2,0.5,1.9,0.8c1.2,0.5,2.5,1.1,3.8,1.6c0.6,0.2,1.3,0.5,1.9,0.8c0.6,0.2,1.3,0.5,1.9,0.7c1,0.4,2.1,0.8,3.1,1.1
	c0.6,0.2,1.2,0.4,1.8,0.6c0.3,0.1,0.6,0.2,0.9,0.3c0.8,0.3,1.6,0.5,2.4,0.8c2.1,0.6,4.2,1.3,6.3,1.8c1,0.3,1.9,0.5,2.9,0.7
	c0.8,0.2,1.6,0.4,2.3,0.5c0.5,0.1,0.9,0.2,1.4,0.3c1.9,0.4,3.8,0.8,5.8,1.1c0.8,0.1,1.5,0.3,2.2,0.4c0.2,0,0.4,0.1,0.5,0.1
	c0.9,0.1,1.8,0.3,2.8,0.4l0.4,0.1c0.8,0.1,1.6,0.2,2.4,0.3c0.3,0,0.6,0.1,0.9,0.1c0.7,0.1,1.4,0.2,2.1,0.2c0.5,0.1,1.1,0.1,1.7,0.2
	c0.7,0.1,1.4,0.1,2.1,0.2c1,0.1,2,0.1,3,0.2c1,0.1,1.9,0.1,2.9,0.1c0.9,0,1.8,0.1,2.7,0.1c0.4,0,0.7,0,1,0c0.9,0,1.9,0,2.8,0
	c14.8,0,29.6-2.1,43.8-6.4c8.4-2.5,16.5-5.6,24.4-9.5c4.1-2,8.2-3.9,12.3-5.7c26.6-12,54.7-20.3,83.5-25c14.4-2.3,29-3.5,43.6-3.6
	c10.3-0.1,20.5-1.6,30.4-4.5c1.7-0.5,3.4-1,5.1-1.6l2-0.7l-1.6-1.4c-4.8-4.1-10.1-7.6-15.8-10.3c9,1.4,17.8,3.9,26.2,7.5l0.5,0.2
	l0.5-0.2c33.2-16.1,56.1-47.8,61.1-84.4H26.1z"/>
<g class="st10">
	<path d="M497.4,0c-4.9,36.6-27.9,68.3-61.1,84.4l-0.5,0.2l-0.5-0.2c-8.4-3.6-17.2-6.2-26.2-7.5c5.7,2.8,11,6.2,15.8,10.3l1.6,1.4
		l-2,0.7c-1.7,0.6-3.5,1.2-5.1,1.6c-9.9,2.9-20.1,4.5-30.4,4.5c-14.6,0.1-29.2,1.4-43.6,3.6c-28.8,4.6-56.9,13-83.5,25
		c-4.1,1.8-8.2,3.7-12.3,5.7c-7.9,3.8-16,7-24.4,9.5c-14.2,4.2-29,6.3-43.8,6.4c-0.9,0-1.9,0-2.8,0c-0.3,0-0.7,0-1,0
		c-0.9,0-1.8,0-2.7-0.1c-1,0-1.9-0.1-2.9-0.1c-1-0.1-2-0.1-3-0.2c-0.7-0.1-1.4-0.1-2.1-0.2c-0.6,0-1.1-0.1-1.7-0.2
		c-0.7-0.1-1.4-0.1-2.1-0.2c-0.3,0-0.6-0.1-0.9-0.1c-0.8-0.1-1.6-0.2-2.4-0.3l-0.4-0.1c-0.9-0.1-1.8-0.3-2.8-0.4
		c-0.2,0-0.3-0.1-0.5-0.1c-0.8-0.1-1.5-0.2-2.2-0.4c-1.9-0.4-3.8-0.7-5.8-1.1c-0.5-0.1-0.9-0.2-1.4-0.3c-0.8-0.2-1.6-0.4-2.3-0.5
		c-1-0.2-1.9-0.5-2.9-0.7c-2.1-0.6-4.2-1.2-6.3-1.8c-0.8-0.2-1.6-0.5-2.4-0.8c-0.3-0.1-0.6-0.2-0.9-0.3c-0.6-0.2-1.2-0.4-1.8-0.6
		c-1-0.4-2.1-0.7-3.1-1.1c-0.6-0.2-1.3-0.5-1.9-0.7c-0.6-0.2-1.3-0.5-1.9-0.8c-1.2-0.5-2.5-1-3.8-1.6c-0.6-0.3-1.2-0.5-1.9-0.8
		s-1.2-0.6-1.9-0.9l-1.5-0.7c-0.2-0.1-0.4-0.2-0.6-0.3c-0.5-0.2-1-0.5-1.5-0.8c-1.2-0.6-2.4-1.2-3.6-1.8c-1.2-0.6-2.4-1.3-3.6-2
		c-1.2-0.7-2.4-1.4-3.5-2c-0.6-0.4-1.2-0.7-1.7-1.1c-0.5-0.3-1-0.6-1.5-0.9c-0.1-0.1-0.3-0.2-0.5-0.3c-0.5-0.3-1-0.6-1.5-1
		c-1.2-0.8-2.4-1.6-3.6-2.5c-0.5-0.3-0.9-0.6-1.4-1c-1.1-0.8-2.2-1.6-3.3-2.4c-0.5-0.4-1.1-0.8-1.6-1.2c-0.5-0.4-1.1-0.8-1.6-1.3
		c-0.5-0.4-1.1-0.9-1.6-1.3c-1.6-1.3-3.1-2.6-4.7-4c-0.5-0.5-1-0.9-1.5-1.4c-2-1.8-4-3.7-5.9-5.6c-0.5-0.5-1-1-1.4-1.5s-1-1-1.4-1.5
		s-0.9-1-1.4-1.5c-0.5-0.5-0.9-1-1.4-1.5c34.4,16.3,73.6,19.4,110.2,8.6c8.4-2.5,16.5-5.6,24.4-9.5c20.8-10.2,42.5-18.3,64.9-24.2
		c24.1-6.4,49-9.8,73.9-10.1c0.2,0,0.5,0,0.7,0c10.3-0.1,20.5-1.6,30.4-4.6c1.7-0.5,3.4-1.1,5.1-1.6l2-0.7l-1.6-1.4
		c-4.8-4.1-10.1-7.6-15.8-10.3c9,1.4,17.8,3.9,26.2,7.5l0.5,0.2l0.5-0.2c21-10.2,38.2-26.7,49.1-47.3H497.4z"/>
</g>
<polygon class="st5" points="471,496.5 477.3,495.7 477.4,470.5 468.2,471.7 "/>
<path class="st5" d="M435.8,480.7c0.3,0.4,0.6,0.8,0.9,1.1c0.6,0.8,1.3,1.5,1.9,2.2c0.3,0.4,0.7,0.7,1,1.1l0,0l0,0l0,0l0.6,0.4
	l1.7-2l0.8-0.9l1.1-1.3l2-2.4l10.4-12.8l-7.9-5l-0.8,1.2l0,0l-0.4,0.6l-7.1,11.2l-1.4,2.3l0,0.1l-0.9,1.4l-0.8,1.2l-0.8,1.3
	L435.8,480.7z"/>
<path class="st8" d="M401.6,412.1c0.3,1.1,0.5,2.1,0.8,3.2c0.5,2,1,3.9,1.6,5.8c0,0,0,0,0,0c0.4,0.8,1,1.6,1.6,2.2
	c0,0,0.1,0.1,0.1,0.1c0.5,0.5,1,0.9,1.5,1.3c0.2,0.1,0.4,0.3,0.6,0.4c0.7,0.5,1.5,0.9,2.2,1.3c1.3,0.7,2.7,1.4,4,1.9
	c0.1,0,0.2,0.1,0.3,0.1c5.6,2.2,11.5,3.7,17.5,4.3c3,0.4,6.2,0.7,9.4,1.1c1.1,0.1,2.1,0.2,3.2,0.3c0.1,0,0.2,0,0.3,0
	c1.5,0.2,3.1,0.3,4.7,0.5c2,0.2,4.1,0.5,6.2,0.8l-1.1,2.8c-0.9,2.1-2,4.2-3.5,5.9c-2.1,2.3-3.2,5.5-3,8.6l0,2.2
	c-1.4,1.8-1.9,4.1-1.3,6.3l0.1,0.3l-10.7,12.7l-0.7,0.8l3,1l3.6,1.2l6.2,2.1l14.9-14.9l0.7-0.7l0,0l10.6-34.7
	c0.1-0.3,0.2-0.6,0.2-0.9c0.6-2.9,0-5.9-1.6-8.4c-1.6-2.4-4-4-6.8-4.6l-3.2-0.6l-6.5-1.3l-4.6-0.9l-0.1,0l-13.5-2.7l0.3-4.1
	l-0.2-0.1l-4.8-3.8l-16.5-13.2l0,0l-1.1-0.9l-0.2,0.2c-0.1,0.1-0.1,0.1-0.2,0.2c-2,1.8-3.7,3.8-5.3,5.9c-2.6,3.5-5,7.1-7.1,10.9
	c-0.1,0.2-0.2,0.3-0.3,0.4l0,0c0,0.1-0.1,0.1-0.1,0.1C401.9,407.6,401.5,409.9,401.6,412.1z"/>
<path class="st8" d="M405,399.2c0.1-0.2,0.3-0.5,0.5-0.7c1.3-1.7,2.6-3.3,4.1-4.9c1.6-1.8,3.8-10.6,3.8-10.6l0,0l25.1,9.1l3.9-0.1
	l-2.7,7.3l0,0l3.3,6.2l0,0l10.8,2.1l11.1,2.2l6,1.2c2.8,0.5,5.2,2.2,6.8,4.6c1.6,2.5,2.2,5.5,1.6,8.4c-0.1,0.3-0.1,0.6-0.2,0.9
	l1.1,14.6c0.7,8.7,0,17.5-1.9,26l-0.3,13.9l-0.6-0.1l-8.6-2l-2.3-0.5l-2.5-8.7c-0.3-1-0.5-2-0.7-3c-0.3-1.7-0.6-3.3-0.7-5l-2.2-28.6
	c-0.9-0.1-1.7-0.3-2.6-0.4c-3.9-0.6-7.6-1.3-11.1-2.1c-10.1-2-19.9-5.2-29.2-9.4c-2.3-1.1-4.5-2.2-6.5-3.5c-0.8-0.4-1.5-0.9-2.2-1.4
	c-0.2-0.1-0.3-0.2-0.5-0.3c-3.1-2-4.9-5.4-4.9-9C403.3,403,403.9,401,405,399.2z"/>
<path class="st8" d="M470.5,492.2l6.8-0.9l1.1-0.1l0.3,4.1l9.5,5.7c1.2,0.7,1.6,2.3,0.9,3.5c-0.4,0.7-1.2,1.2-2,1.2l-11.4,0.7
	l-2.2-3.9l-0.5,4.1l-4.3,0.3l0.3-14.6L470.5,492.2z"/>
<polygon class="st8" points="436.3,474.6 435.6,475.4 436,475.5 "/>
<path class="st8" d="M437.9,476.4l5.4,4.2l0.9,0.7l-2.7,3.1l2.8,10.7c0.4,1.4-0.5,2.8-1.8,3.1c-0.8,0.2-1.7,0-2.3-0.5l-8.6-7.5
	l1.2-4.4l-3.2,2.6l-3.3-2.8l10.4-10.2L437.9,476.4z"/>
<path class="st5" d="M390.2,323.3c1.5,2.1,1,5-1.1,6.5c-0.2,0.2-0.5,0.3-0.7,0.4l1.8,16.6l-7.7-4l-0.5-15.1
	c-0.9-2.4,0.2-5.2,2.7-6.1C386.7,320.9,389,321.6,390.2,323.3L390.2,323.3z"/>
<path class="st1" d="M427.8,345c-1,2-2.3,3.8-3.9,5.5c-4.4,4.7-18.3,14.5-27.4,19.2c-4.1,2.1-7,2.9-8.1,2.4c-5.3-2.4-10-41.7-7-42.1
	l8,7v2l3.6,16c0,0,0.8-1,2.2-2.5c4.5-5.1,12.2-14.5,21.2-18.5c2.8,5.2,10.9,10.4,10.9,10.4S427.5,344.6,427.8,345z"/>
<path class="st0" d="M433.9,442h-27.8l-0.2-1.3l-28-212.1c-1.1-8,4.6-15.4,12.6-16.4c3.8-0.5,7.7,0.5,10.8,2.8l-1.8,2.4
	c-5.1-3.9-12.4-2.9-16.3,2.3c-1.8,2.4-2.7,5.5-2.3,8.5L408.7,439h25.2V442z"/>
<circle class="st7" cx="723.1" cy="118.9" r="26.7"/>
<path class="st2" d="M782.9,106.2c-1.5-5-5.9-8.7-11.2-9.3c-0.1,0-0.1,0-0.2,0c-0.1,0-0.1,0-0.2,0c-8.9-1.2-18.9,1.7-25.6,7.8
	c-2.5,2.2-4.5,5-5.8,8c-2.5-3.4-6.6-5.4-10.8-5.3c-5.5,0.4-10.3,4.2-11.8,9.5c-0.2,0.7,0.1,1.3,0.7,1.7c0.8,0.7,1.8,1.2,2.8,1.4
	c2.2,0.5,4.4,0.9,6.7,1.3c4.4,0.8,8.7,1.4,13.2,1.9c2.9,0.3,5.8,0.6,8.8,0.7c6,0.4,12.1,0.5,18.2,0.3c3-0.1,5.9-0.2,8.6-1.5
	c2-1,3.7-2.5,5-4.3C783.4,114.8,784.1,110.4,782.9,106.2z"/>
<path class="st2" d="M728,145.1c-0.1-1.1-0.2-2.2-0.6-3.3c-1.5-5-5.9-8.7-11.2-9.3c-0.1,0-0.1,0-0.2,0c-0.1,0-0.2,0-0.2,0
	c-4.9-0.6-10-0.1-14.7,1.5c-7.3,2.4-13.6,7.3-16.7,14.3c-2.5-3.4-6.6-5.4-10.8-5.3c-5.5,0.4-10.3,4.2-11.8,9.5
	c-0.2,0.7,0.1,1.3,0.7,1.7c0.8,0.7,1.8,1.2,2.8,1.4c2.2,0.5,4.4,0.9,6.7,1.3c4.4,0.8,8.7,1.4,13.1,1.9c8.9,1,17.9,1.3,26.9,1
	c3-0.1,5.9-0.2,8.6-1.5c2-1,3.7-2.5,4.9-4.3C727.3,151.4,728.2,148.3,728,145.1z"/>
<path class="st0" d="M737.9,210.4c-0.3,1.4-0.1,2.9,0.6,4.1c0.9,1.3,2.5,1.8,4,1.3c2.8-0.9,5.6-1.9,8.3-2.8c0.8-0.2,1.2-1,1-1.8
	c-0.2-0.8-1-1.3-1.8-1l-6.9,2.4c-0.5,0.2-1,0.4-1.6,0.5c-0.1,0-0.3,0.1-0.2,0.1c0,0,0.2,0,0,0c-0.1,0-0.1,0,0,0l-0.1-0.1
	c0.1,0.1,0,0-0.1-0.1c0,0-0.1-0.2-0.1-0.1c-0.1-0.1-0.1-0.2-0.2-0.3c0.1,0.2-0.1-0.2-0.1-0.3c-0.1-0.6,0-1.3,0.1-1.9
	c0-0.8-0.7-1.5-1.5-1.5C738.5,208.9,737.9,209.6,737.9,210.4L737.9,210.4z"/>
<path class="st0" d="M626.2,215.7l7.4,9.3c0.9,1.2,3-0.1,2.5-1.5c-0.9-2.8,2.3-4.3,4.5-4.8c2.9-0.6,5.8-0.5,8.6-1.8
	c1.8-0.8,0.2-3.4-1.5-2.6c-3.2,1.5-7,0.8-10.3,2.2c-2.9,1.3-5.2,4.4-4.2,7.7l2.5-1.5l-7.4-9.3c-0.6-0.6-1.5-0.6-2.1,0
	C625.6,214.1,625.6,215.1,626.2,215.7L626.2,215.7z"/>
<path class="st0" d="M611.2,106.7l7.4,9.3c0.9,1.2,3-0.1,2.5-1.5c-0.9-2.8,2.3-4.3,4.5-4.8c2.9-0.6,5.8-0.5,8.6-1.8
	c1.8-0.8,0.2-3.4-1.5-2.6c-3.2,1.5-7,0.8-10.3,2.2c-2.9,1.3-5.2,4.4-4.2,7.7l2.5-1.5l-7.4-9.3c-0.6-0.6-1.5-0.6-2.1,0
	C610.6,105.1,610.6,106.1,611.2,106.7L611.2,106.7z"/>
</svg>
