<?xml version="1.0" encoding="utf-8"?>
<!-- Generator: Adobe Illustrator 27.7.0, SVG Export Plug-In . SVG Version: 6.00 Build 0)  -->
<svg version="1.1" id="Ebene_1" xmlns="http://www.w3.org/2000/svg" xmlns:xlink="http://www.w3.org/1999/xlink" x="0px" y="0px"
	 viewBox="0 0 518.7 619.1" style="enable-background:new 0 0 518.7 619.1;" xml:space="preserve">
<style type="text/css">
	.st0{fill:#F2F2F2;}
	.st1{fill:#4E342E;}
	.st2{fill:#3F3D56;}
	.st3{fill:#FFB6B6;}
	.st4{fill:#BB1C16;}
	.st5{fill:#2F2E41;}
	.st6{fill:#FFFFFF;}
	.st7{fill:#CCCCCC;}
	.st8{fill:#E6E6E6;}
</style>
<path class="st0" d="M227,617.5h-35c-1.5,0-2.7-1.5-2.7-3.4v-37.2c0-1.9,1.2-3.4,2.7-3.4h35c1.5,0,2.7,1.5,2.7,3.4v37.2
	C229.7,616,228.5,617.5,227,617.5z"/>
<path class="st0" d="M67.6,599.7c-1.3,0.1-2.3-0.9-2.4-2.2c0-0.7,0.2-1.3,0.7-1.8l0.2-0.6c0,0,0-0.1-0.1-0.1c-1.3-3.1-4.9-4.5-8-3.2
	c-1.5,0.6-2.6,1.8-3.3,3.3c-1.8,4.4-4.2,8.9-4.8,13.5c-0.3,2.1-0.1,4.2,0.3,6.2c-4.3-9.4-6.6-19.7-6.6-30c0-2.6,0.1-5.2,0.4-7.8
	c0.2-2.1,0.6-4.2,1-6.3c2.3-11.3,7.3-22,14.5-31c3.5-1.9,6.3-4.8,8.1-8.4c0.6-1.3,1.1-2.6,1.3-4.1c-0.4,0.1-1.5-5.9-1.2-6.3
	c-0.5-0.8-1.5-1.2-2.1-2.1c-3-4-7.1-3.3-9.2,2.2c-4.6,2.3-4.6,6.1-1.8,9.8c1.8,2.3,2,5.5,3.6,8c-0.2,0.2-0.3,0.4-0.5,0.6
	c-3,3.8-5.5,7.9-7.7,12.2c0.5-4.8-0.1-9.7-1.8-14.2c-1.7-4.2-5-7.8-7.9-11.4c-2.1-2.7-6.1-3.2-8.8-1.1c-1.3,1-2.2,2.5-2.4,4.2
	c0,0.1,0,0.1,0,0.2c0.4,0.2,0.8,0.5,1.3,0.8c1.4,0.9,1.8,2.9,0.8,4.3c-0.5,0.7-1.2,1.2-2.1,1.3l-0.1,0c0.2,1.5,0.4,3.1,0.8,4.6
	c-3.7,14.3,4.3,19.5,15.7,19.8c0.3,0.1,0.5,0.3,0.7,0.4c-2.2,6.1-3.5,12.5-4,19c-0.3,3.8-0.3,7.7,0.1,11.5l0-0.1
	c-0.8-4.3-3.1-8.1-6.4-10.9c-4.9-4.1-11.9-5.6-17.3-8.8c-1.6-1.1-3.8-0.6-4.9,1.1c-0.5,0.7-0.6,1.5-0.5,2.4l0,0.1
	c0.8,0.3,1.6,0.7,2.3,1.1c0.4,0.2,0.8,0.5,1.3,0.8c1.4,0.9,1.8,2.9,0.8,4.3c-0.5,0.7-1.2,1.2-2.1,1.3l-0.1,0c0,0-0.1,0-0.1,0
	c1.4,3.2,3.3,6.2,5.6,8.8c2.3,12.5,12.3,13.7,22.9,10h0c1.2,5.1,2.9,10,5,14.7h18c0.1-0.2,0.1-0.4,0.2-0.6c-1.7,0.1-3.3,0-5-0.3
	c1.3-1.6,2.7-3.3,4-4.9c0,0,0.1-0.1,0.1-0.1c0.7-0.8,1.4-1.7,2-2.5l0,0C68.5,604.8,68.2,602.2,67.6,599.7L67.6,599.7z"/>
<path class="st0" d="M501.4,143.2c0-1.5-1.7-2.7-3.8-2.7c-2.1,0-3.8,1.2-3.8,2.7s1.7,2.7,3.8,2.7
	C499.7,145.9,501.4,144.7,501.4,143.2z"/>
<ellipse class="st0" cx="473.1" cy="149.3" rx="3.8" ry="2.7"/>
<ellipse class="st0" cx="507.2" cy="162.3" rx="3.8" ry="2.7"/>
<path class="st0" d="M517.4,171.2c-0.2,0-0.4,0-0.6,0c-0.8-0.4-1.4-1.2-1.5-2.1c-0.2-1,0.2-2,1-2.5c0.1-0.1,0.2-0.1,0.3-0.1
	c0.9-0.1,1.8,0.9,2,2.2S518.3,171,517.4,171.2z"/>
<path class="st0" d="M299.6,211.3c-0.2-1.3-1.1-2.3-2-2.2c-0.9,0.1-1.5,1.3-1.3,2.6c0.2,1.3,1.1,2.3,2,2.2
	C299.2,213.8,299.8,212.6,299.6,211.3z"/>
<path class="st0" d="M490.3,158.3c-0.9,0.1-1.5,1.3-1.3,2.6c0.2,1.3,1.1,2.3,2,2.2c0.9-0.1,1.5-1.3,1.3-2.6
	C492.1,159.1,491.2,158.2,490.3,158.3z"/>
<path class="st0" d="M503.4,152.8c-0.2-1.3-1.1-2.3-2-2.2c-0.9,0.1-1.5,1.3-1.3,2.6c0.2,1.3,1.1,2.3,2,2.2
	C503,155.3,503.6,154.1,503.4,152.8z"/>
<ellipse transform="matrix(0.9906 -0.1365 0.1365 0.9906 -15.1805 67.3388)" class="st0" cx="483.4" cy="144.4" rx="1.7" ry="2.4"/>
<path class="st0" d="M392.1,285.5h-62.6c-6.4,0-11.6,5.2-11.6,11.6s5.2,11.6,11.6,11.6h62.6c6.4,0,11.6-5.2,11.6-11.6
	S398.4,285.5,392.1,285.5L392.1,285.5z"/>
<path class="st0" d="M435.7,284.5c-3.8,0-7.5,1.5-10.2,4.2c-2.2,2.2-3.5,5.2-3.5,8.3c0,6.9,6.1,12.5,13.7,12.5h45.7
	c0.3-0.3,0.5-0.7,0.8-1c0.3-0.3,0.5-0.7,0.8-1h-47.3c-6.3,0-11.5-4.7-11.5-10.5c0-2.7,1.1-5.2,3-7.1c2.3-2.2,5.3-3.5,8.5-3.4h62.2
	c0.2-0.3,0.4-0.6,0.6-0.9c0.2-0.4,0.4-0.7,0.7-1.1H435.7z"/>
<path class="st0" d="M285,124.5h-10.6c-1.2,0-2.2,1-2.2,2.2c0,0,0,0,0,0v10.6c0,1.2,1,2.2,2.2,2.2c0,0,0,0,0,0H285
	c1.2,0,2.2-1,2.2-2.2v-10.6C287.1,125.5,286.2,124.5,285,124.5z"/>
<path class="st0" d="M285,411.5h-10.6c-1.2,0-2.2,1-2.2,2.2c0,0,0,0,0,0v10.6c0,1.2,1,2.2,2.2,2.2c0,0,0,0,0,0H285
	c1.2,0,2.2-1,2.2-2.2v-10.6C287.1,412.5,286.2,411.5,285,411.5z"/>
<path class="st0" d="M431.3,131h-33c-3.4,0-6.1,2.7-6.1,6.1c0,3.4,2.7,6.1,6.1,6.1l0,0h33c3.4,0,6.1-2.7,6.1-6.1
	C437.4,133.7,434.7,131,431.3,131z"/>
<path class="st0" d="M475.1,161.5H354.5c-12.2,0-22.1,9.9-22.2,22.1V220c0,12.2,9.9,22.2,22.2,22.2h120.6c12.2,0,22.2-9.9,22.2-22.2
	v-36.3C497.3,171.4,487.3,161.5,475.1,161.5z M494.8,220c0,10.9-8.8,19.7-19.7,19.7h-86.6c-2.4,0-4.8-0.2-7.2-0.5h0
	c-0.2,0-0.4,0-0.5-0.1c-26.4-3.8-46-26.5-46-53.2v-2.3c0-10.9,8.8-19.7,19.7-19.7h120.6c10.9,0,19.7,8.8,19.7,19.7V220z"/>
<path class="st0" d="M320.9,357.1L320.9,357.1c-69.1-12.8-122.4-95.2-122.4-194.9v-8.4c0-39.7,23.2-72.1,51.8-72.1l237.1-8
	c-1.5-3,0.7,2.1-0.9-0.9H250.3c-32.1,0-58.2,36.3-58.2,81.1v133c0,44.7,26.1,81.1,58.2,81.1h194.4c3-2.9-3.1,2.8-0.3-0.3l-104.6-8.7
	C333.4,358.8,327.1,358.3,320.9,357.1z"/>
<path class="st1" d="M109.2,268.1c-1.2,0.6-2.5,1.1-3.8,1.5c-1.6-2.5-3.5-4.8-5.7-6.7c0.6,2.7,0.9,5.5,0.8,8.2
	c-7,1.6-14.2,2.1-21.3,1.4c0.7-2.7,1.5-5.4,2.2-8.1c-4.1,4.3-10.3,5.9-16,4c4.8-2.1,8.9-5.6,11.8-10c2.8-4.5,8.6-59,7.1-64
	c-1.2-3.7-3.7-6.8-4.6-10.5c-1.2-4.8,2.9-8.9,3.7-13.8c1-5.9,27.4,2.9,26.4,5.8c2,1.3,2,4.2,1.2,6.4c-0.8,2.2-2.3,4.2-2.8,6.5
	c8.1,43.3,1.3,73.1-1.4,72C108.2,263,109,265.5,109.2,268.1z"/>
<path class="st2" d="M150.3,284.1l-51.6-24.3c-4.5-2.2-6.5-7.6-4.4-12.1l0,0c2.1-4.6,7.6-6.7,12.2-4.6c0.1,0.1,0.3,0.1,0.4,0.2
	l52.9,26.8l32.8,15c3.3-3,8.3-2.8,11.4,0.5c3,3.3,2.8,8.3-0.5,11.4c-3.3,3-8.3,2.8-11.4-0.5c-0.3-0.3-0.6-0.7-0.9-1.1L150.3,284.1z"
	/>
<path class="st2" d="M107,269.5L107,269.5c-1.1,0.4-2.4,0.1-3.2-0.9c-0.4-0.6-1.1-1-1.8-1.2c-0.1,0-0.3-0.1-0.4-0.1
	c-1.7-0.2-3.2-1.3-4-2.8c-1.3-2.5-3.9-4.6-6.4-6.1c-2.8-1.7-5.7-3.2-7.9-5.4c-3.3-3.3-5.2-8.5-1.4-12.8c1.7-1.8,3.9-3,6.4-3.3
	c5.1-0.8,9.9,1.3,14.5,3.3l-1.4-1.7c5,2.3,10.4,3.6,15.9,3.7c-0.7,1,0.5,2.5,1.7,2.6c1.2-0.1,2.5-0.4,3.5-1.1
	c1.4-0.7,3.3-1.1,4.3,0.6c0.5,0.8,0.6,1.8,0.3,2.7c-2.4,8.4-6.6,16.2-12.1,22.9c-1.2,1.5-2.7,3-4.7,3.2S106.2,271.3,107,269.5z"/>
<path class="st3" d="M150.3,284.1l-51.6-24.3c-4.5-2.2-6.5-7.6-4.4-12.1l0,0c2.1-4.6,7.6-6.7,12.2-4.6c0.1,0.1,0.3,0.1,0.4,0.2
	l52.9,26.8l32.8,15c3.3-3,8.3-2.8,11.4,0.5c3,3.3,2.8,8.3-0.5,11.4c-3.3,3-8.3,2.8-11.4-0.5c-0.3-0.3-0.6-0.7-0.9-1.1L150.3,284.1z"
	/>
<path class="st4" d="M107,269.5L107,269.5c-1.1,0.4-2.4,0.1-3.2-0.9c-0.4-0.6-1.1-1-1.8-1.2c-0.1,0-0.3-0.1-0.4-0.1
	c-1.7-0.2-3.2-1.3-4-2.8c-1.3-2.5-3.9-4.6-6.4-6.1c-2.8-1.7-5.7-3.2-7.9-5.4c-3.3-3.3-5.2-8.5-1.4-12.8c1.7-1.8,3.9-3,6.4-3.3
	c5.1-0.8,9.9,1.3,14.5,3.3l-1.4-1.7c5,2.3,10.4,3.6,15.9,3.7c-0.7,1,0.5,2.5,1.7,2.6c1.2-0.1,2.5-0.4,3.5-1.1
	c1.4-0.7,3.3-1.1,4.3,0.6c0.5,0.8,0.6,1.8,0.3,2.7c-2.4,8.4-6.6,16.2-12.1,22.9c-1.2,1.5-2.7,3-4.7,3.2S106.2,271.3,107,269.5z"/>
<polygon class="st3" points="104.5,595.1 116,595.1 121.4,550.8 104.5,550.8 "/>
<path class="st5" d="M119.8,596.1v-7.8l-3,0.2l-12.3,0.7l-2.8,0.2l-2.2,26.1l-0.1,1.4h8.1l0.3-1.4l1.2-6.3l3.1,6.3l0.7,1.4h21.6
	c2.7,0,4.8-2.2,4.9-4.9C140.1,607.8,122.1,598.6,119.8,596.1z"/>
<polygon class="st5" points="76.9,374.9 94.9,479.2 102.2,562.8 126.2,567.5 130.5,458.2 116.6,383.4 "/>
<polygon class="st3" points="194.7,552.6 206,550.5 203.5,506 186.8,509 "/>
<path class="st5" d="M209.9,550.9l-1.4-7.7l-2.9,0.7l-12,2.9l-2.8,0.7l2.5,26l0.1,1.4l8-1.4l0-1.4l0-6.4l4.1,5.7l0.9,1.2l21.3-3.8
	c2.6-0.5,4.4-3,3.9-5.6C231.9,558.8,212.6,552.9,209.9,550.9z"/>
<path class="st5" d="M63.1,334.2L62.3,354c0,0-10.2,44.8,21.8,50.7s75.4,16.5,75.4,16.5l28.6,100.4l17-3c0,0-2-85-5-97
	s2.5-25.5-24.3-36.7s-53.4-29.2-53.4-29.2l-5.9-33.5L63.1,334.2z"/>
<path class="st4" d="M65,237.5l3.8-11.5c1.8-5.3,6.5-8.9,12-9.3l3.4-0.2c6.3-0.4,12,3.6,13.8,9.5l0,0c1.6,5.3,6.3,9,11.7,9.5
	c10,0.9,11.3,21.5,11.3,31.9c0,15.7-10.4,30.6-7,34s9.5,18.9,5,23c-1.2,1.1,1.6,11.3,2,15c0.7,6.6-39.3-5.8-52.8-2
	c-13.5,3.8-6.7-24.7-9-27c-1.5-1.5,5.9-5.7,4.4-8.2c-0.8-1.3-1.4-2.8-1.7-4.3l-5.9-19.6c-0.1-0.3-0.1-0.6-0.2-1
	c-0.5-4.2-7.4-34.8,4.1-39C72.5,234,65,237.5,65,237.5z"/>
<path class="st6" d="M251.1,324.5c-3.1-6.3-9.3-10.4-15.3-14.2c-21-13.3-42-26.6-63.1-39.9c-7.2-4.6-15.2-9.3-23.7-8.3
	c-10.5,1.3-17.7,10.8-23.7,19.5c-5.4,7.9-11.1,16.3-11.7,25.9c-0.6,9.6,5.9,20.3,15.5,20.5c-8.8,7.6-17.7,15.2-26.5,22.8l37.7,0.6
	l1-4c18.1,9.5,36.2,19.1,54.3,28.6c5.5,2.9,11.3,5.9,17.5,5.8c11.2-0.2,19.6-9.8,26.4-18.7C248.2,351.7,257.3,337.2,251.1,324.5z"/>
<path class="st7" d="M254.5,331.7c-0.5-5.6-3.1-10.9-7.2-14.7c-4.3-4.1-9.5-7.2-14.5-10.3c-12.1-7.6-24.1-15.3-36.2-22.9
	c-6.2-3.9-12.3-7.8-18.5-11.7c-5.5-3.5-10.9-7.2-17-9.6c-5.5-2.1-11.5-2.8-17.1-0.7c-5,1.9-9.1,5.4-12.6,9.3
	c-3.7,4.3-7,8.9-10.1,13.6c-3.4,5.2-6.6,10.6-8.2,16.6c-1.5,5.1-1.3,10.6,0.5,15.6c1.7,4.4,4.7,8.4,8.9,10.7c1,0.5,2,0.9,3.1,1.2
	l-24.1,20.7c-0.6,0.6-0.6,1.6,0.1,2.1c0.3,0.3,0.6,0.4,1,0.4l37.7,0.6c0.8,0,1.5-0.7,1.4-1.6c0-0.8-0.7-1.4-1.4-1.4
	c-11.2-0.2-22.5-0.4-33.7-0.5c7.9-6.8,15.7-13.5,23.6-20.3c0.6-0.6,0.6-1.6-0.1-2.1c-0.3-0.3-0.6-0.4-1-0.4
	c-9.3-0.3-14.6-10.9-14-19.2c0.4-5.8,2.9-11.2,5.8-16.2c2.9-4.8,6-9.5,9.4-13.9c3-4,6.5-7.9,10.8-10.6c4.5-2.8,9.9-3.7,15.1-2.5
	c5.9,1.4,11.1,4.7,16.1,7.9c5.6,3.5,11.2,7.1,16.8,10.7c11.5,7.3,23,14.6,34.5,21.8c5.2,3.3,10.5,6.5,15.6,10
	c4.4,3,8.6,6.6,10.8,11.6c4.5,10.6-1.9,22.2-7.9,30.8c-3.1,4.5-6.5,8.8-10.2,12.8c-3.4,3.7-7.3,7.2-12,9.1
	c-5.3,2.1-10.7,1.6-15.9-0.4c-2.9-1.2-5.7-2.5-8.4-4c-3-1.6-6-3.2-9-4.8c-11.9-6.3-27.8-26.7-41-26.5c-3.3,0-6.8,4.8-5.1,5.7
	c12.8,6.7,25.6,13.5,38.4,20.2c6.2,3.3,12.4,6.6,18.7,9.8c5.5,2.8,11.4,5.1,17.7,4.4c11-1.4,18.9-10.7,25.2-19
	c3.9-4.8,7.2-10,10-15.5C253.2,343.3,255,337.5,254.5,331.7z"/>
<path class="st4" d="M193.5,310.3L193.5,310.3c0,0-0.1,0-0.1,0c-1.4-6.1-7.5-10-13.7-8.7l0,0c-6.2,1.3-10.2,7.4-8.9,13.6l0,0l0,0.2
	l0,0l4.8,22.5l22.6-4.9l0-0.1c0,0,0.1,0,0.1,0l0,0c6.3-1.3,10.2-7.5,8.9-13.8l0,0C205.9,313,199.7,309,193.5,310.3
	C193.5,310.3,193.5,310.3,193.5,310.3z"/>
<path class="st8" d="M433.4,268.2L433.4,268.2c0,0,0,0.1,0,0.1c-6.3-0.3-11.7,4.6-12,10.9l0,0c-0.4,6.3,4.4,11.8,10.7,12.2l0,0
	l0.2,0l0,0l23,1.4l1.4-23.1l-0.1,0c0,0,0-0.1,0-0.1l0,0c0.4-6.4-4.5-11.9-10.9-12.3l0,0l0,0C439.3,256.9,433.8,261.8,433.4,268.2
	C433.4,268.2,433.4,268.2,433.4,268.2z"/>
<path class="st8" d="M241.4,107.2L241.4,107.2c0,0,0,0.1,0,0.1c-6.3-0.3-11.7,4.6-12,10.9l0,0c-0.4,6.3,4.4,11.8,10.7,12.2l0,0
	l0.2,0l0,0l23,1.4l1.4-23.1l-0.1,0c0,0,0-0.1,0-0.1l0,0c0.4-6.4-4.5-11.9-10.9-12.3l0,0l0,0C247.3,95.9,241.8,100.8,241.4,107.2
	C241.4,107.2,241.4,107.2,241.4,107.2z"/>
<path class="st3" d="M130.8,303.8l-47.4-31.7c-4.2-2.8-5.3-8.4-2.6-12.7l0,0c2.8-4.3,8.5-5.5,12.7-2.7c0.1,0.1,0.3,0.2,0.4,0.3
	l48.3,34.4l30.2,19.7c3.7-2.5,8.7-1.5,11.2,2.2c2.5,3.7,1.5,8.7-2.2,11.2s-8.7,1.5-11.2-2.2c-0.3-0.4-0.5-0.8-0.7-1.2L130.8,303.8z"
	/>
<path class="st4" d="M90.2,283L90.2,283c-1.2,0.3-2.4-0.3-3-1.4c-0.4-0.6-0.9-1.2-1.6-1.5c-0.1-0.1-0.3-0.1-0.4-0.2
	c-1.7-0.5-3-1.7-3.6-3.4c-0.9-2.7-3.2-5.2-5.5-7c-2.5-2-5.1-4-7-6.6c-2.8-3.7-3.9-9.2,0.6-12.8c1.9-1.5,4.3-2.3,6.8-2.3
	c5.1,0,9.6,2.8,13.9,5.5l-1.2-1.9c4.6,3,9.8,5.1,15.2,6.1c-0.8,0.9,0.1,2.5,1.3,2.8c1.2,0.1,2.5-0.1,3.6-0.6
	c1.5-0.4,3.4-0.6,4.1,1.2c0.3,0.9,0.3,1.8-0.1,2.7c-3.6,7.9-8.9,15-15.4,20.8c-1.4,1.3-3.1,2.6-5.1,2.5
	C90.9,286.8,89.1,284.6,90.2,283z"/>
<circle class="st3" cx="83.9" cy="192.7" r="21.5"/>
<path class="st1" d="M109.8,183.4c-1,1.8-2.8,3.2-4.8,3.6c-1.4,0.3-2.9,0.5-4.4,0.4c-0.4-1.9-1.4-3.7-2.9-5.1
	c0.1,1.6-0.3,3.2-1.1,4.6c-3.3-0.5-6.5-1.4-9.5-2.5c1.4,1.9,0.5,4.6-1,6.5c-1.5,1.8-3.5,3.2-4.8,5.2c-1.1,1.8,1.2,7.1,1.7,7.6
	c15.5,32.2-1.7,52.4-2.1,54.2l10.6,10.4c-4.2,1.3-8.6,2.2-13,2.7c-1.1-2.7-2.8-5.1-5-7c0.7,2.5,0.6,5.2-0.1,7.7
	c-11.8,1.2-25.1,1.2-31.2-1.7c1.6-2.3,3.2-4.6,4.8-6.9c-5.3,2.7-7.7,1.4-12.4-2.2c28.5-6.5-6.8-25,15.4-53.8
	c3.4-5.6,5.3-8.3,5.5-13.6c0.1-3.9,0.1-7.6,0.5-11.4c0.5-4.9,3.8-9.3,8-11.8c4.4-2.4,9.3-3.5,14.2-3.1c4.9,0.3,9.8,1.1,14.6,2.4
	c1.3,0.3,2.5,0.6,3.8,0.9c2.1,0.4,4.2,1,6.2,1.7c2.4,0.8,4.5,2.3,6,4.3C110.5,178.3,110.8,181,109.8,183.4z"/>
<path class="st7" d="M0,617.9c0,0.7,0.5,1.2,1.2,1.2c0,0,0,0,0,0h253.3c0.7,0,1.2-0.5,1.2-1.2s-0.5-1.2-1.2-1.2H1.2
	C0.5,616.7,0,617.3,0,617.9C0,617.9,0,617.9,0,617.9z"/>
<path class="st0" d="M471.1,47.3H189.5c-0.6,0-1-0.4-1-1s0.4-1,1-1h280.4C470.3,46,470.7,46.6,471.1,47.3z"/>
<ellipse class="st0" cx="247.1" cy="8.6" rx="8.5" ry="8.6"/>
<ellipse class="st0" cx="276.3" cy="8.6" rx="8.5" ry="8.6"/>
<path class="st0" d="M309.6,15.5c-0.3,0-0.5-0.1-0.7-0.3l-5.7-5.8c-0.4-0.4-0.4-1,0-1.4l5.7-5.8c0.4-0.4,1-0.4,1.4,0
	c0.4,0.4,0.4,1,0,1.4l-5,5.1l5,5.1c0.4,0.4,0.4,1,0,1.4C310.1,15.4,309.9,15.5,309.6,15.5L309.6,15.5z"/>
<path class="st0" d="M319.2,15.5c-0.6,0-1-0.4-1-1c0-0.3,0.1-0.5,0.3-0.7l5-5.1l-5-5.1c-0.4-0.4-0.4-1,0-1.4c0.4-0.4,1-0.4,1.4,0
	l5.7,5.8c0.4,0.4,0.4,1,0,1.4l-5.7,5.8C319.8,15.4,319.5,15.5,319.2,15.5z"/>
<path class="st0" d="M427.3,5.5h-84.8c-1.5,0-2.7,1.2-2.7,2.7c0,1.5,1.2,2.7,2.7,2.7h84.8c1.5,0,2.7-1.2,2.7-2.7
	C430,6.7,428.8,5.5,427.3,5.5z"/>
<circle class="st0" cx="415.7" cy="194.1" r="20.8"/>
<polygon class="st0" points="463.5,242.1 370.5,241.7 399.8,234.4 403.4,222.3 431.6,222.2 440,234.1 461.2,239.6 463.2,240.1 "/>
<path class="st0" d="M403.9,207.3c4.5-3.5-1.6-18.8,5.7-15.5c0,0,9-5.7,10.8-2c2.1,4.4,9.5,2.4,14.1,0.8c-0.4-0.8-0.6-1.7-0.8-2.6
	c0.8,0.7,1.7,1.3,2.7,1.8c0.6-0.3,1.2-0.8,1.6-1.3c0.9-1,1.1-2.6,0.4-3.8c-0.8-1.2-2.3-1.5-3.3-2.6c-0.2-0.3-0.3-0.7-0.2-1
	c0.4-1.6-0.5-3.2-2.1-3.6c-0.2,0-0.4-0.1-0.5-0.1c-0.2,0-0.3,0-0.5-0.1c-0.8-0.5-1.5-1-2.1-1.7c1.1,0-0.2-6.5-10.9-5.3
	c-2.7-0.1-4.1,2.9-6.7,3.3c-6.4-3.6-12.1,1.6-14.9,6.6S391.6,201.6,403.9,207.3z"/>
</svg>
