<?xml version="1.0" encoding="utf-8"?>
<!-- Generator: Adobe Illustrator 27.7.0, SVG Export Plug-In . SVG Version: 6.00 Build 0)  -->
<svg version="1.1" xmlns="http://www.w3.org/2000/svg" xmlns:xlink="http://www.w3.org/1999/xlink" x="0px" y="0px"
	 viewBox="0 0 240 64" style="enable-background:new 0 0 240 64;" xml:space="preserve">
<style type="text/css">
	.st0{display:none;}
	.st1{display:inline;}
	.st2{fill:#2F2E41;}
	.st3{fill:#E5261F;}
	.st4{fill:url(#SVGID_1_);}
	.st5{fill:url(#SVGID_00000173138800464017760620000004477256584150833068_);}
</style>
<g id="Ebene_4" class="st0">
	<g class="st1">
		<g>
			<path class="st2" d="M31.7,19.8c0,2,0.1,3.7,0.2,5h-1.4c-0.3-3.1-0.7-5.5-1.2-7s-1.3-2.7-2.6-3.4c-1.2-0.7-3-1-5.6-1h-3.8
				c-1.4,0-2.6,0.1-3.1,0.3c-0.7,0.2-1.2,0.7-1.4,1.4c-0.2,0.7-0.3,1.7-0.3,3.4v14.9H17c1.4,0,2.4-0.3,3.3-1
				c0.8-0.7,1.3-1.4,1.5-2.3c0.2-0.9,0.5-2.1,0.6-3.4l0.2-1.2H24c-0.1,1.7-0.2,3.6-0.2,5.7v2.9c0,2.1,0.1,4.9,0.3,8.6h-1.4
				c0-0.2-0.1-1.3-0.3-2.9c-0.2-1.6-0.7-2.9-1.6-3.7c-0.9-0.8-2.2-1.3-3.7-1.3h-4.4v13.9c0,1.5,0.1,2.7,0.5,3.4
				c0.3,0.7,0.9,1.2,1.7,1.4s2.1,0.3,3.9,0.5v1.2c-2.1-0.1-5.1-0.2-8.8-0.2c-3.5,0-6,0.1-7.8,0.2v-1.2c1.4-0.1,2.6-0.2,3.1-0.5
				c0.7-0.2,1.2-0.7,1.4-1.4C6.9,51.4,7,50.3,7,48.7V18.5c0-1.5-0.1-2.7-0.3-3.4C6.4,14.5,6,14,5.3,13.8c-0.7-0.2-1.7-0.3-3.3-0.5
				v-1.2c3.9,0.1,9.8,0.2,17.5,0.2c5.9,0,10.1-0.1,12.7-0.2C31.9,14.9,31.7,17.5,31.7,19.8z"/>
			<path class="st2" d="M58.3,24.3c1,0.9,1.5,2.1,1.5,3.4c0,1-0.3,2-0.9,2.7c-0.6,0.7-1.5,1.2-2.6,1.2c-0.9,0-1.6-0.2-2.3-0.8
				c-0.6-0.6-0.9-1.3-0.9-2.3c0-1.3,0.7-2.4,2.1-3.3c-0.2-0.3-0.7-0.6-1.3-0.6c-1.6,0-3,0.6-4.3,1.9c-1.3,1.3-2.3,2.7-3,4.5
				c-0.7,1.9-1,3.5-1,5v12.8c0,1.9,0.6,3.1,1.6,3.8c1,0.7,2.7,1,4.8,1v1.3l-1.4-0.1c-4.1-0.1-6.7-0.2-7.9-0.2c-1,0-3.4,0.1-7.1,0.2
				v-1.3c1.7,0,2.9-0.3,3.6-0.9c0.7-0.6,1-1.7,1-3.4V30.4c0-1.9-0.3-3.3-1-4.1c-0.7-0.8-1.9-1.3-3.6-1.3v-1.3
				c1.3,0.1,2.6,0.2,3.7,0.2c2.6,0,4.6-0.2,6.3-0.8v7.5c0.7-2,1.9-3.8,3.5-5.3c1.6-1.6,3.4-2.3,5.3-2.3C56,22.9,57.3,23.4,58.3,24.3
				z"/>
			<path class="st2" d="M64.9,53.4c-1.3-1.3-1.9-3-1.9-5.3c0-1.9,0.5-3.3,1.5-4.4c0.9-1.2,2.2-2.1,3.5-2.8c1.4-0.7,3.1-1.4,5.3-2.2
				c2.2-0.8,3.9-1.5,5-2.1c1-0.7,1.6-1.5,1.6-2.6v-3.7c0-2.3-0.5-3.9-1.5-4.8s-2.3-1.3-4.2-1.3c-2.8,0-4.8,0.7-5.9,2.2
				c0.8,0.2,1.5,0.6,2,1.3c0.6,0.7,0.8,1.4,0.8,2.4s-0.3,1.9-0.9,2.4c-0.7,0.6-1.5,0.9-2.4,0.9c-1.2,0-2-0.3-2.6-1
				c-0.6-0.7-0.8-1.5-0.8-2.6c0-0.9,0.2-1.7,0.7-2.4c0.5-0.7,1.2-1.3,2.1-2c0.9-0.7,2.2-1.3,3.7-1.7c1.5-0.5,3.1-0.7,4.9-0.7
				c3.1,0,5.5,0.7,7.1,2.2c1,0.9,1.6,2.1,2,3.4c0.3,1.3,0.5,3,0.5,5.1v16.7c0,1,0.1,1.7,0.5,2.2c0.2,0.5,0.8,0.7,1.4,0.7
				c0.5,0,0.9-0.1,1.4-0.3c0.5-0.2,0.9-0.6,1.4-0.9l0.7,1c-1,0.8-2,1.4-2.7,1.7c-0.7,0.3-1.6,0.5-2.8,0.5c-2,0-3.3-0.5-4.1-1.4
				C80.4,53,80,51.6,80,50c-1.2,2-2.6,3.4-4.2,4.2c-1.6,0.8-3.4,1.2-5.3,1.2C68.1,55.2,66.1,54.6,64.9,53.4z M80,48.3V36.4
				c-0.3,0.6-0.8,1-1.5,1.4c-0.7,0.3-1.6,0.8-2.9,1.4c-1.5,0.7-2.8,1.3-3.7,1.9c-0.9,0.6-1.7,1.4-2.4,2.4c-0.7,1-1,2.3-1,3.8
				c0,1.9,0.5,3.1,1.3,4.1c0.9,0.9,2.1,1.4,3.5,1.4C75.9,52.9,78.2,51.3,80,48.3z"/>
			<path class="st2" d="M119.3,25.2c0.8,0.8,1.3,1.9,1.6,3c0.3,1.2,0.5,2.8,0.5,4.9v16.1c0,1.6,0.3,2.8,1,3.4
				c0.7,0.6,1.9,0.9,3.6,0.9v1.3c-3.7-0.1-6.2-0.2-7.2-0.2c-1.2,0-3.4,0.1-6.7,0.2v-1.3c1.5,0,2.6-0.3,3.1-0.9
				c0.6-0.6,0.9-1.7,0.9-3.4V31.8c0-2.2-0.3-3.9-0.9-5.1c-0.7-1.2-2-1.7-3.9-1.7c-1.6,0-3.1,0.5-4.4,1.4c-1.3,0.9-2.3,2.3-3,3.9
				c-0.7,1.6-1,3.5-1,5.6v13.3c0,1.6,0.3,2.8,0.9,3.4c0.6,0.6,1.6,0.9,3.1,0.9v1.3c-3.4-0.1-5.7-0.2-6.7-0.2c-1.2,0-3.6,0.1-7.2,0.2
				v-1.3c1.7,0,2.9-0.3,3.6-0.9c0.7-0.6,1-1.7,1-3.4V30.4c0-1.9-0.3-3.3-1-4.1c-0.7-0.8-1.9-1.3-3.6-1.3v-1.3
				c1.3,0.1,2.6,0.2,3.7,0.2c2.6,0,4.6-0.2,6.3-0.8v7.1c1-2.6,2.4-4.4,4.2-5.6s3.8-1.7,6-1.7C115.7,22.9,117.8,23.6,119.3,25.2z"/>
			<path class="st2" d="M135.9,53.9h6.6c2.4,0,4.4-0.8,5.8-2.3s2.2-4.1,2.6-7.4h1.4c0,5.2,0.1,8.9,0.2,10.9c-3.1-0.1-7-0.2-11.3-0.2
				c-3.8,0-7.9,0.1-12.2,0.3l17.4-30.5h-6.6c-2.7,0-4.6,0.7-6,2.3c-1.3,1.5-2.1,3.9-2.4,7.4H130c0-5.2-0.1-8.9-0.2-10.9
				c3.1,0.1,7,0.2,11.3,0.2c3.8,0,7.9-0.1,12.2-0.3L135.9,53.9z"/>
			<path class="st2" d="M167.3,49.2c0,1.6,0.3,2.8,1,3.4c0.7,0.6,1.9,0.9,3.6,0.9v1.3c-3.7-0.1-6.2-0.2-7.3-0.2
				c-1.2,0-3.6,0.1-7.3,0.2v-1.3c1.7,0,2.9-0.3,3.6-0.9c0.7-0.6,1-1.7,1-3.4V30.4c0-1.9-0.3-3.3-1-4.1s-1.9-1.3-3.6-1.3v-1.3
				c1.3,0.1,2.6,0.2,3.7,0.2c2.6,0,4.6-0.2,6.3-0.8L167.3,49.2L167.3,49.2z M166.9,9.8c0.8,0.8,1.2,1.6,1.2,2.7s-0.3,2-1.2,2.7
				c-0.8,0.8-1.6,1.2-2.7,1.2c-1,0-2-0.3-2.7-1.2c-0.8-0.8-1.2-1.6-1.2-2.7s0.3-2,1.2-2.7c0.8-0.8,1.6-1.2,2.7-1.2
				C165.2,8.7,166.2,9,166.9,9.8z"/>
		</g>
	</g>
</g>
<g id="Ebene_1">
	<g>
		<g>
			<path class="st2" d="M22.2,9c0,1.1,0.1,2.1,0.1,2.9h-0.8c-0.2-1.8-0.4-3.1-0.7-4c-0.3-0.9-0.7-1.5-1.5-1.9
				c-0.7-0.4-1.7-0.6-3.2-0.6H14c-0.8,0-1.5,0.1-1.8,0.2c-0.4,0.1-0.7,0.4-0.8,0.8c-0.1,0.4-0.2,1-0.2,1.9v8.5h2.5
				c0.8,0,1.4-0.2,1.9-0.6c0.5-0.4,0.7-0.8,0.9-1.3c0.1-0.5,0.3-1.2,0.3-1.9l0.1-0.7h0.8c-0.1,1-0.1,2.1-0.1,3.3v1.7
				c0,1.2,0.1,2.8,0.2,4.9H17c0-0.1-0.1-0.7-0.2-1.7c-0.1-0.9-0.4-1.7-0.9-2.1c-0.5-0.5-1.3-0.7-2.1-0.7h-2.5v8
				c0,0.9,0.1,1.5,0.3,1.9c0.2,0.4,0.5,0.7,1,0.8c0.5,0.1,1.2,0.2,2.3,0.3v0.7c-1.2-0.1-2.9-0.1-5.1-0.1c-2,0-3.5,0.1-4.5,0.1v-0.7
				C6,28.5,6.7,28.4,7,28.3c0.4-0.1,0.7-0.4,0.8-0.8C8,27.1,8,26.5,8,25.5V8.2C8,7.4,8,6.7,7.8,6.3C7.7,5.9,7.4,5.6,7,5.5
				C6.6,5.4,6,5.3,5.2,5.2V4.6c2.3,0.1,5.6,0.1,10,0.1c3.4,0,5.8-0.1,7.3-0.1C22.3,6.2,22.2,7.6,22.2,9z"/>
			<path class="st2" d="M37.4,11.6c0.6,0.5,0.9,1.2,0.9,1.9c0,0.6-0.2,1.1-0.5,1.5c-0.3,0.4-0.9,0.7-1.5,0.7c-0.5,0-0.9-0.1-1.3-0.5
				c-0.3-0.3-0.5-0.7-0.5-1.3c0-0.7,0.4-1.4,1.2-1.9c-0.1-0.2-0.4-0.3-0.7-0.3c-0.9,0-1.7,0.3-2.5,1.1c-0.7,0.7-1.3,1.5-1.7,2.6
				c-0.4,1.1-0.6,2-0.6,2.9v7.3c0,1.1,0.3,1.8,0.9,2.2c0.6,0.4,1.5,0.6,2.7,0.6v0.7L33,29c-2.3-0.1-3.9-0.1-4.5-0.1
				c-0.6,0-1.9,0.1-4.1,0.1v-0.7c1,0,1.7-0.2,2.1-0.5c0.4-0.3,0.6-1,0.6-1.9V15c0-1.1-0.2-1.9-0.6-2.3c-0.4-0.5-1.1-0.7-2.1-0.7
				v-0.7c0.7,0.1,1.5,0.1,2.1,0.1c1.5,0,2.7-0.1,3.6-0.5v4.3c0.4-1.1,1.1-2.2,2-3.1c0.9-0.9,1.9-1.3,3.1-1.3
				C36.1,10.8,36.8,11,37.4,11.6z"/>
			<path class="st2" d="M41.2,28.2c-0.7-0.7-1.1-1.7-1.1-3.1c0-1.1,0.3-1.9,0.9-2.5c0.5-0.7,1.3-1.2,2-1.6c0.8-0.4,1.8-0.8,3.1-1.3
				c1.3-0.5,2.3-0.9,2.9-1.2c0.6-0.4,0.9-0.9,0.9-1.5V15c0-1.3-0.3-2.3-0.9-2.7s-1.3-0.7-2.4-0.7c-1.6,0-2.7,0.4-3.4,1.3
				c0.5,0.1,0.9,0.3,1.1,0.7c0.3,0.4,0.5,0.8,0.5,1.4s-0.2,1.1-0.5,1.4c-0.4,0.3-0.9,0.5-1.4,0.5c-0.7,0-1.1-0.2-1.5-0.6
				c-0.3-0.4-0.5-0.9-0.5-1.5c0-0.5,0.1-1,0.4-1.4c0.3-0.4,0.7-0.7,1.2-1.1c0.5-0.4,1.3-0.7,2.1-1c0.9-0.3,1.8-0.4,2.8-0.4
				c1.8,0,3.1,0.4,4.1,1.3c0.6,0.5,0.9,1.2,1.1,1.9c0.2,0.7,0.3,1.7,0.3,2.9v9.6c0,0.6,0.1,1,0.3,1.3c0.1,0.3,0.5,0.4,0.8,0.4
				c0.3,0,0.5-0.1,0.8-0.2c0.3-0.1,0.5-0.3,0.8-0.5l0.4,0.6c-0.6,0.5-1.1,0.8-1.5,1c-0.4,0.2-0.9,0.3-1.6,0.3
				c-1.1,0-1.9-0.3-2.3-0.8c-0.5-0.5-0.7-1.3-0.7-2.3c-0.7,1.1-1.5,1.9-2.4,2.4c-0.9,0.5-1.9,0.7-3.1,0.7
				C43,29.3,41.9,28.9,41.2,28.2z M49.9,25.3v-6.8c-0.2,0.3-0.5,0.6-0.9,0.8c-0.4,0.2-0.9,0.5-1.7,0.8c-0.9,0.4-1.6,0.7-2.1,1.1
				s-1,0.8-1.4,1.4c-0.4,0.6-0.6,1.3-0.6,2.2c0,1.1,0.3,1.8,0.7,2.3c0.5,0.5,1.2,0.8,2,0.8C47.5,27.9,48.8,27,49.9,25.3z"/>
			<path class="st2" d="M72.4,12c0.5,0.5,0.7,1.1,0.9,1.7s0.3,1.6,0.3,2.8v9.2c0,0.9,0.2,1.6,0.6,1.9c0.4,0.3,1.1,0.5,2.1,0.5V29
				c-2.1-0.1-3.5-0.1-4.1-0.1c-0.7,0-1.9,0.1-3.9,0.1v-0.7c0.9,0,1.5-0.2,1.8-0.5c0.3-0.3,0.5-1,0.5-1.9v-10c0-1.3-0.2-2.3-0.5-2.9
				c-0.4-0.7-1.1-1-2.3-1c-0.9,0-1.8,0.3-2.5,0.8c-0.7,0.5-1.3,1.3-1.7,2.3c-0.4,0.9-0.6,2-0.6,3.2v7.7c0,0.9,0.2,1.6,0.5,1.9
				c0.3,0.3,0.9,0.5,1.8,0.5V29c-1.9-0.1-3.3-0.1-3.9-0.1c-0.7,0-2.1,0.1-4.1,0.1v-0.7c1,0,1.7-0.2,2.1-0.5c0.4-0.3,0.6-1,0.6-1.9
				V15c0-1.1-0.2-1.9-0.6-2.3c-0.4-0.5-1.1-0.7-2.1-0.7v-0.7c0.7,0.1,1.5,0.1,2.1,0.1c1.5,0,2.7-0.1,3.6-0.5V15
				c0.6-1.5,1.4-2.5,2.4-3.2c1-0.7,2.2-1,3.5-1C70.3,10.8,71.5,11.2,72.4,12z"/>
			<path class="st2" d="M81.9,28.5h3.8c1.4,0,2.5-0.5,3.3-1.3s1.3-2.3,1.5-4.3h0.8c0,3,0.1,5.1,0.1,6.3c-1.8-0.1-4-0.1-6.5-0.1
				c-2.2,0-4.5,0.1-7,0.2l10-17.5h-3.8c-1.5,0-2.7,0.4-3.5,1.3c-0.7,0.9-1.2,2.3-1.4,4.3h-0.8c0-3-0.1-5.1-0.1-6.3
				c1.8,0.1,4,0.1,6.5,0.1c2.2,0,4.5-0.1,7-0.2L81.9,28.5z"/>
			<path class="st2" d="M99.9,25.8c0,0.9,0.2,1.6,0.6,1.9c0.4,0.3,1.1,0.5,2.1,0.5V29c-2.1-0.1-3.5-0.1-4.2-0.1s-2.1,0.1-4.2,0.1
				v-0.7c1,0,1.7-0.2,2.1-0.5c0.4-0.3,0.6-1,0.6-1.9V15c0-1.1-0.2-1.9-0.6-2.3c-0.4-0.5-1.1-0.7-2.1-0.7v-0.7
				c0.7,0.1,1.5,0.1,2.1,0.1c1.5,0,2.7-0.1,3.6-0.5L99.9,25.8L99.9,25.8z M99.6,3.2c0.5,0.5,0.7,0.9,0.7,1.5s-0.2,1.1-0.7,1.5
				C99.2,6.8,98.7,7,98.1,7S97,6.8,96.6,6.3c-0.5-0.5-0.7-0.9-0.7-1.5c0-0.6,0.2-1.1,0.7-1.5c0.5-0.5,0.9-0.7,1.5-0.7
				S99.3,2.8,99.6,3.2z"/>
			<path class="st2" d="M112.7,11.1c0.7,0.3,1.2,0.5,1.5,0.9c0.3,0.2,0.5,0.3,0.6,0.3c0.4,0,0.7-0.5,0.7-1.5h0.8
				c-0.1,1.1-0.1,3.1-0.1,5.9h-0.8c-0.3-1.5-0.7-2.8-1.5-3.8s-1.8-1.5-3.3-1.5c-0.8,0-1.5,0.3-2.1,0.7c-0.5,0.5-0.8,1.1-0.8,1.9
				c0,0.8,0.3,1.5,0.8,2c0.5,0.5,1.5,1.2,2.7,1.9c0.2,0.1,0.5,0.3,0.9,0.6c1.1,0.7,1.9,1.3,2.5,1.9c0.7,0.5,1.2,1.1,1.6,1.9
				c0.4,0.7,0.6,1.5,0.6,2.4c0,1.5-0.6,2.7-1.7,3.6c-1.1,0.9-2.5,1.3-4.2,1.3c-1.1,0-1.9-0.1-2.7-0.5c-0.5-0.3-1-0.5-1.4-0.9
				c-0.1-0.1-0.2-0.1-0.3-0.1c-0.1,0-0.3,0.1-0.5,0.3c-0.1,0.2-0.2,0.5-0.3,1H105c0.1-1.3,0.1-3.6,0.1-6.9h0.8
				c0.3,2.2,0.7,3.8,1.4,4.9c0.7,1.1,1.8,1.6,3.4,1.6c0.8,0,1.5-0.3,2.1-0.8c0.6-0.5,0.9-1.3,0.9-2.5c0-0.9-0.3-1.7-0.9-2.3
				s-1.6-1.4-3-2.3c-1.1-0.7-2-1.3-2.6-1.8s-1.1-1-1.5-1.7s-0.6-1.5-0.6-2.3c0-1.5,0.5-2.5,1.5-3.3c1-0.8,2.2-1.1,3.7-1.1
				C111.4,10.8,112.1,10.9,112.7,11.1z"/>
			<path class="st2" d="M136.3,27.8c0.3,0.3,0.7,0.5,1.3,0.5v0.7c-1.4-0.1-2.3-0.1-2.8-0.1c-0.6,0-1.9,0.1-3.9,0.1v-0.7
				c0.3,0,0.6-0.1,0.8-0.2c0.2-0.1,0.3-0.3,0.3-0.5s-0.1-0.3-0.2-0.5l-4-5.8c-0.4-0.6-0.8-0.9-1.1-1.1c-0.3-0.2-0.9-0.3-1.5-0.3v6
				c0,0.9,0.2,1.6,0.5,1.9c0.3,0.3,0.9,0.5,1.8,0.5v0.7c-1.9-0.1-3.2-0.1-3.9-0.1s-2.1,0.1-4.2,0.1v-0.7c1,0,1.7-0.2,2.1-0.5
				c0.4-0.3,0.6-1,0.6-1.9V6c0-1.1-0.2-1.9-0.6-2.3c-0.4-0.5-1.1-0.7-2.1-0.7V2.2c0.7,0.1,1.5,0.1,2.1,0.1c1.5,0,2.7-0.1,3.6-0.5
				v17.2c0.7-0.1,1.2-0.3,1.7-0.5s0.9-0.5,1.3-0.9l2.5-2.7c0.7-0.7,1.1-1.4,1.1-1.9c0-0.4-0.3-0.7-0.7-0.9S130,12,129.2,12v-0.7
				c1.6,0.1,2.9,0.1,3.9,0.1c1.1,0,2.1-0.1,3-0.1V12c-1.1,0.1-2.2,0.7-3.1,1.6l-4.2,4.5l6.3,8.5C135.6,27.1,136,27.5,136.3,27.8z"/>
			<path class="st2" d="M140.2,28.2c-0.7-0.7-1.1-1.7-1.1-3.1c0-1.1,0.3-1.9,0.9-2.5c0.5-0.7,1.3-1.2,2-1.6c0.8-0.4,1.8-0.8,3.1-1.3
				s2.3-0.9,2.9-1.2c0.6-0.4,0.9-0.9,0.9-1.5V15c0-1.3-0.3-2.3-0.9-2.7c-0.5-0.5-1.3-0.7-2.4-0.7c-1.6,0-2.7,0.4-3.4,1.3
				c0.5,0.1,0.9,0.3,1.1,0.7c0.3,0.4,0.5,0.8,0.5,1.4s-0.2,1.1-0.5,1.4c-0.4,0.3-0.9,0.5-1.4,0.5c-0.7,0-1.1-0.2-1.5-0.6
				c-0.3-0.4-0.5-0.9-0.5-1.5c0-0.5,0.1-1,0.4-1.4c0.3-0.4,0.7-0.7,1.2-1.1c0.5-0.4,1.3-0.7,2.1-1c0.9-0.3,1.8-0.4,2.8-0.4
				c1.8,0,3.1,0.4,4.1,1.3c0.6,0.5,0.9,1.2,1.1,1.9c0.2,0.7,0.3,1.7,0.3,2.9v9.6c0,0.6,0.1,1,0.3,1.3c0.1,0.3,0.5,0.4,0.8,0.4
				c0.3,0,0.5-0.1,0.8-0.2c0.3-0.1,0.5-0.3,0.8-0.5l0.4,0.6c-0.6,0.5-1.1,0.8-1.5,1c-0.4,0.2-0.9,0.3-1.6,0.3
				c-1.1,0-1.9-0.3-2.3-0.8c-0.5-0.5-0.7-1.3-0.7-2.3c-0.7,1.1-1.5,1.9-2.4,2.4c-0.9,0.5-1.9,0.7-3.1,0.7
				C142,29.3,140.9,28.9,140.2,28.2z M148.9,25.3v-6.8c-0.2,0.3-0.5,0.6-0.9,0.8s-0.9,0.5-1.7,0.8c-0.9,0.4-1.6,0.7-2.1,1.1
				s-1,0.8-1.4,1.4c-0.4,0.6-0.6,1.3-0.6,2.2c0,1.1,0.3,1.8,0.7,2.3c0.5,0.5,1.2,0.8,2,0.8C146.5,27.9,147.8,27,148.9,25.3z"/>
		</g>
	</g>
</g>
<g id="Ebene_2">
	<path class="st3" d="M11,51.5v6.3c0,0.9,0.1,1.5,0.3,1.9c0.2,0.4,0.5,0.7,1,0.8c0.5,0.1,1.2,0.2,2.3,0.3v0.7
		c-1.2-0.1-2.9-0.1-5.1-0.1c-2,0-3.5,0.1-4.5,0.1v-0.7c0.8-0.1,1.5-0.1,1.8-0.3c0.3-0.1,0.7-0.4,0.8-0.8c0.1-0.4,0.2-1,0.2-1.9V40.6
		c0-0.9-0.1-1.5-0.2-1.9c-0.1-0.4-0.4-0.7-0.8-0.8c-0.4-0.1-1-0.2-1.8-0.3V37c1,0.1,2.4,0.1,4.2,0.1l3.7-0.1c0.5,0,0.9-0.1,1.5-0.1
		c2.7,0,4.8,0.6,6.2,1.9c1.4,1.3,2.1,2.9,2.1,5c0,1.3-0.3,2.5-0.9,3.7c-0.5,1.2-1.5,2.1-2.9,2.9c-1.3,0.8-3.1,1.2-5.4,1.2L11,51.5
		L11,51.5z M11.9,37.9c-0.3,0.1-0.6,0.5-0.7,0.9c-0.1,0.4-0.2,1.1-0.2,1.9v10.2h2.3c2.3,0,3.8-0.6,4.7-1.8c0.9-1.2,1.3-2.9,1.3-4.9
		c0-2.3-0.5-3.9-1.3-4.9c-0.9-1.1-2.3-1.6-4.4-1.6C12.8,37.6,12.3,37.7,11.9,37.9z"/>
	<path class="st3" d="M26.2,60.6c-0.7-0.7-1.1-1.7-1.1-3.1c0-1.1,0.3-1.9,0.9-2.5c0.5-0.7,1.3-1.2,2-1.6c0.8-0.4,1.8-0.8,3.1-1.3
		c1.3-0.5,2.3-0.9,2.9-1.2c0.6-0.4,0.9-0.9,0.9-1.5v-2.1c0-1.3-0.3-2.3-0.9-2.7c-0.5-0.5-1.3-0.7-2.4-0.7c-1.6,0-2.7,0.4-3.4,1.3
		c0.5,0.1,0.9,0.3,1.1,0.7c0.3,0.4,0.5,0.8,0.5,1.4c0,0.6-0.2,1.1-0.5,1.4c-0.4,0.3-0.9,0.5-1.4,0.5c-0.7,0-1.1-0.2-1.5-0.6
		c-0.3-0.4-0.5-0.9-0.5-1.5c0-0.5,0.1-1,0.4-1.4c0.3-0.4,0.7-0.7,1.2-1.1s1.3-0.7,2.1-1c0.9-0.3,1.8-0.4,2.8-0.4
		c1.8,0,3.1,0.4,4.1,1.3c0.6,0.5,0.9,1.2,1.1,1.9c0.2,0.7,0.3,1.7,0.3,2.9v9.6c0,0.6,0.1,1,0.3,1.3c0.1,0.3,0.5,0.4,0.8,0.4
		c0.3,0,0.5-0.1,0.8-0.2c0.3-0.1,0.5-0.3,0.8-0.5l0.4,0.6c-0.6,0.5-1.1,0.8-1.5,1c-0.4,0.2-0.9,0.3-1.6,0.3c-1.1,0-1.9-0.3-2.3-0.8
		c-0.5-0.5-0.7-1.3-0.7-2.3c-0.7,1.1-1.5,1.9-2.4,2.4c-0.9,0.5-1.9,0.7-3.1,0.7C28,61.6,26.9,61.3,26.2,60.6z M30,36.3
		c0.4,0.4,0.6,0.9,0.6,1.4s-0.2,1-0.6,1.4s-0.9,0.6-1.4,0.6c-0.5,0-1-0.2-1.4-0.6s-0.6-0.9-0.6-1.4s0.2-1,0.6-1.4s0.9-0.6,1.4-0.6
		C29.1,35.7,29.6,35.9,30,36.3z M34.8,57.7v-6.8c-0.2,0.3-0.5,0.6-0.9,0.8c-0.4,0.2-0.9,0.5-1.7,0.8c-0.9,0.4-1.6,0.7-2.1,1.1
		c-0.5,0.3-1,0.8-1.4,1.4c-0.4,0.6-0.6,1.3-0.6,2.2c0,1.1,0.3,1.8,0.7,2.3c0.5,0.5,1.2,0.8,2,0.8C32.5,60.3,33.7,59.4,34.8,57.7z
		 M37.4,36.3c0.4,0.4,0.6,0.9,0.6,1.4s-0.2,1-0.6,1.4c-0.4,0.4-0.9,0.6-1.4,0.6c-0.5,0-1-0.2-1.4-0.6S34,38.2,34,37.7s0.2-1,0.6-1.4
		s0.9-0.6,1.4-0.6S37,35.9,37.4,36.3z"/>
	<path class="st3" d="M47.6,43.6h5.1v0.7h-5.1v13.4c0,1.1,0.2,1.8,0.6,2.3c0.4,0.5,0.9,0.7,1.7,0.7c0.7,0,1.3-0.3,1.9-0.9
		c0.5-0.6,0.9-1.5,1.3-2.9l0.7,0.2c-0.6,3.2-2.1,4.8-4.5,4.8c-0.8,0-1.4-0.1-1.9-0.3c-0.5-0.2-0.9-0.5-1.3-0.9
		c-0.5-0.5-0.9-1.1-1.1-1.9c-0.2-0.7-0.3-1.7-0.3-3V44.4h-3.3v-0.7h3.3v-5.3c1.3-0.1,2.3-0.2,3.1-0.5L47.6,43.6L47.6,43.6z"/>
	<path class="st3" d="M58.4,60.9h3.8c1.4,0,2.5-0.5,3.3-1.3c0.8-0.9,1.3-2.3,1.5-4.3h0.8c0,3,0.1,5.1,0.1,6.3
		c-1.8-0.1-4-0.1-6.5-0.1c-2.2,0-4.5,0.1-7,0.2l10-17.5h-3.8c-1.5,0-2.7,0.4-3.5,1.3c-0.7,0.9-1.2,2.3-1.4,4.3H55
		c0-3-0.1-5.1-0.1-6.3c1.8,0.1,4,0.1,6.5,0.1c2.2,0,4.5-0.1,7-0.2L58.4,60.9z"/>
	<path class="st3" d="M84.9,45.5c1.5,1.5,2.1,3.9,2.1,7.1c0,3.1-0.7,5.5-2.1,7.1c-1.5,1.5-3.3,2.3-5.7,2.3c-2.4,0-4.3-0.8-5.7-2.3
		c-1.5-1.5-2.1-3.9-2.1-7.1c0-3.2,0.7-5.5,2.1-7.1c1.5-1.5,3.3-2.3,5.7-2.3C81.6,43.2,83.4,43.9,84.9,45.5z M75.9,45.9
		c-0.8,1.4-1.2,3.6-1.2,6.6s0.4,5.2,1.2,6.6c0.8,1.4,1.9,2.1,3.3,2.1c1.3,0,2.5-0.7,3.3-2.1c0.8-1.4,1.2-3.6,1.2-6.6
		s-0.4-5.2-1.2-6.6c-0.8-1.4-1.9-2.1-3.3-2.1C77.8,43.8,76.7,44.6,75.9,45.9z"/>
	<path class="st3" d="M95.1,58.2c0,0.9,0.2,1.6,0.6,1.9s1.1,0.5,2.1,0.5v0.7c-2.1-0.1-3.5-0.1-4.2-0.1c-0.7,0-2.1,0.1-4.2,0.1v-0.7
		c1,0,1.7-0.2,2.1-0.5s0.6-1,0.6-1.9V38.4c0-1.1-0.2-1.9-0.6-2.3s-1.1-0.7-2.1-0.7v-0.7c0.7,0.1,1.4,0.1,2.1,0.1
		c1.5,0,2.7-0.1,3.6-0.5L95.1,58.2L95.1,58.2z"/>
	<path class="st3" d="M115.9,60c0.4,0.5,1.1,0.7,2.1,0.7v0.7c-0.7-0.1-1.5-0.1-2.1-0.1c-1.5,0-2.7,0.1-3.6,0.5v-3.1
		c-0.4,1.1-1.1,1.8-1.9,2.4c-0.8,0.5-1.9,0.8-3.1,0.8c-2.2,0-3.9-0.8-5.2-2.4s-1.9-3.9-1.9-7c0-2,0.3-3.7,1.1-5.1
		c0.7-1.4,1.7-2.5,2.9-3.2c1.2-0.7,2.5-1.1,3.9-1.1c0.9,0,1.7,0.2,2.4,0.5c0.7,0.3,1.3,0.9,1.7,1.5v-6.8c0-1.1-0.2-1.9-0.6-2.3
		s-1.1-0.7-2.1-0.7v-0.7c0.7,0.1,1.5,0.1,2.1,0.1c1.5,0,2.7-0.1,3.6-0.5v23.4C115.3,58.7,115.5,59.5,115.9,60z M110.7,59.9
		c0.7-0.7,1.2-1.7,1.5-2.9V46.6c-0.6-1.8-1.9-2.7-3.9-2.7c-1.5,0-2.6,0.7-3.5,2.2c-0.9,1.5-1.3,3.6-1.3,6.4c0,2.8,0.4,4.9,1.2,6.3
		c0.8,1.4,2,2.1,3.5,2.1C109.2,60.8,110,60.5,110.7,59.9z"/>
</g>
<g id="Ebene_3">
	<g>
		<path class="st2" d="M230.9,16.4c-0.3,3.3-1.5,6.5-2.8,8.5c-0.1,0.1-0.2,0.3-0.3,0.4c-0.5-0.8-1.1-1.7-1.6-2.5
			c-0.1-0.2-0.1-0.5,0-0.7c0.6-1.4,1.1-2.8,1.4-4.3c0.3-1.8,0.2-3.6,0-5.4c-0.2-1.9-0.7-3.8-1.4-5.7c-0.3-1-1-1.5-2-1.4
			c-1.3,0.2-2.5,0.5-3.8,0.8c-2.6,0.8-5,1.9-7,3.6c-0.5,0.4-1,0.9-1.4,1.3c-0.3,0.3-0.5,0.4-0.9,0.2c-0.8-0.3-1.6-0.5-2.4-0.7
			c-0.1,0-0.2-0.1-0.2-0.1c2.1-2.6,4.7-4.6,7.7-6c2.1-1,4.2-1.7,6.4-2.2c1.2-0.3,2.4-0.4,3.6-0.5c0.9-0.1,1.6,0.4,1.9,1.2
			c1,2.3,1.8,4.6,2.3,7c0.2,0.7,0.3,1.4,0.4,2.1C230.9,13.4,231,14.6,230.9,16.4z"/>
		<linearGradient id="SVGID_1_" gradientUnits="userSpaceOnUse" x1="213.6712" y1="14.1286" x2="225.7262" y2="14.1286">
			<stop  offset="0" style="stop-color:#2AEAFF"/>
			<stop  offset="1" style="stop-color:#FFEC15"/>
		</linearGradient>
		<path class="st4" d="M224.5,20.8c2-4.5,1.3-8.9-0.2-13.3c-4,0.7-7.6,2.1-10.6,4.8C217.9,14.3,221.5,17.1,224.5,20.8z"/>
		<path class="st2" d="M193.7,10.5c-1.2,0.4-2.2,0.7-3.2,1c-0.1,0-0.3-0.1-0.4-0.2c-1.9-2-4.3-3.4-6.9-4.3c-1.5-0.5-3.1-1-4.7-1.4
			c-1.5-0.4-2.6,0.2-3,2c-0.5,1.7-0.9,3.4-1.2,5.1c-0.2,1.3,0,2.7,0,4.1c0,1.7,0.6,3.3,1.3,4.9c0,0,0,0,0,0.1
			c0.7,0.8,0.2,1.5-0.2,2.2c-0.3,0.4-0.5,0.9-0.8,1.3c-0.2,0.3-0.3,0.4-0.5,0c-1.2-1.8-2-3.8-2.5-5.8c-0.6-2.4-0.5-4.8-0.3-7.1
			c0.3-3,1.2-5.9,2.4-8.7c0.7-1.4,1.4-1.7,2.9-1.4c1.3,0.2,2.6,0.5,3.9,0.8c1.7,0.5,3.3,1,5,1.6c1.8,0.7,3.5,1.7,5,3
			C191.6,8.5,192.5,9.4,193.7,10.5z"/>
		
			<linearGradient id="SVGID_00000119805050943328548560000014473782286792159920_" gradientUnits="userSpaceOnUse" x1="176.1908" y1="14.1442" x2="188.2458" y2="14.1442">
			<stop  offset="0" style="stop-color:#EC2AFF"/>
			<stop  offset="3.285784e-02" style="stop-color:#E335F7"/>
			<stop  offset="0.2294" style="stop-color:#B272CE"/>
			<stop  offset="0.4183" style="stop-color:#89A4AB"/>
			<stop  offset="0.5946" style="stop-color:#69CC90"/>
			<stop  offset="0.7556" style="stop-color:#52E87C"/>
			<stop  offset="0.8959" style="stop-color:#44F970"/>
			<stop  offset="1" style="stop-color:#3FFF6C"/>
		</linearGradient>
		<path style="fill:url(#SVGID_00000119805050943328548560000014473782286792159920_);" d="M177.4,20.8c-2-4.5-1.3-8.9,0.2-13.3
			c4,0.7,7.6,2.1,10.6,4.8C184,14.3,180.4,17.1,177.4,20.8z"/>
	</g>
	<g>
		<g>
			<path class="st2" d="M172.4,37.9c0.1-0.5,0.2-0.9,0.2-1.4c0.3-2.6,1-5,2-7.4c1-2.3,2.2-4.4,3.7-6.4c1.3-1.7,2.7-3.2,4.4-4.5
				c1.7-1.4,3.6-2.7,5.7-3.7c2.4-1.2,4.9-2,7.5-2.5c1.2-0.2,2.5-0.3,3.7-0.3c1.2-0.1,2.5-0.1,3.8,0c1.9,0.2,3.7,0.5,5.6,1
				c3,0.7,5.7,2.1,8.2,3.8c1.9,1.3,3.6,2.8,5.2,4.5c1.9,2.1,3.5,4.5,4.7,7.1c1,2.1,1.7,4.3,2.2,6.5c0.3,1.5,0.4,3.1,0.5,4.7
				c0.1,4.6,0.1,9.2,0.1,13.9c0,1.5-0.4,2.9-1.4,3.9c-0.9,0.9-2,1.4-3.3,1.6c-0.7,0-1.3,0-2,0c0-5.6,0-11.2,0-16.9
				c1.1,0.1,2.2,0.2,3.3,0.2c0.3-8.4-2.4-15.6-8.9-21c-8.5-6.9-17.9-7.9-27.9-3.4c-9.5,5.3-14.1,13.5-13.8,24.3
				c1.2-0.1,2.3-0.2,3.4-0.2c0,5.7,0,11.2,0,16.8c-1.6,0.1-3.1,0.2-4.5-0.9c-1-0.8-1.7-1.7-2.1-3c0-0.1-0.1-0.1-0.1-0.2
				C172.4,49,172.4,43.4,172.4,37.9z"/>
		</g>
		<g>
			<path class="st2" d="M189.2,50.2c0,3.2,0,6.5,0,9.7c0,0.6-0.1,1.3-0.7,1.7c-0.3,0.2-0.7,0.4-1,0.4c-1,0-1.9,0.2-2.9-0.2
				c-1.1-0.4-2.1-1.7-2.1-3c0-5.7,0-11.5,0-17.2c0-1.4,1.2-2.9,2.6-3c0.8-0.1,1.7-0.1,2.6,0c1.1,0.2,1.5,0.7,1.5,1.9
				C189.2,43.7,189.2,47,189.2,50.2z"/>
		</g>
		<g>
			<path class="st2" d="M213,50.2c0-3.3,0-6.6,0-9.9c0-1.1,0.4-1.7,1.4-1.8c1.2-0.1,2.5-0.2,3.7,0.5c0.9,0.5,1.5,1.3,1.5,2.3
				c0.1,4.7,0.1,9.4,0.1,14.1c0,1.2-0.1,2.5-0.1,3.7c0,1-1.1,2.2-2.1,2.6c-1.1,0.4-2.2,0.2-3.2,0.2c-0.7,0-1.2-0.9-1.2-1.5
				C213,57,213,53.6,213,50.2L213,50.2z"/>
		</g>
	</g>
</g>
</svg>
