<?xml version="1.0" encoding="utf-8"?>
<!-- Generator: Adobe Illustrator 27.7.0, SVG Export Plug-In . SVG Version: 6.00 Build 0)  -->
<svg version="1.1" id="Ebene_1" xmlns="http://www.w3.org/2000/svg" xmlns:xlink="http://www.w3.org/1999/xlink" x="0px" y="0px"
	 viewBox="0 0 412.5 64" style="enable-background:new 0 0 412.5 64;" xml:space="preserve">
<style type="text/css">
	.st0{display:none;}
	.st1{display:inline;}
	.st2{fill:#2F2F41;}
	.st3{fill:#E5261F;}
	.st4{fill:#2F2E41;}
	.st5{fill:#BB1C16;}
</style>
<g id="Page-1" class="st0">
	<g id="logo" transform="translate(2.000000, 0.000000)" class="st1">
		<path id="Jekyll" class="st2" d="M48.3,61c3.7,0,6.6-0.8,8.7-2.3c2.1-1.5,3.5-3.4,4.2-5.6c0.3-1.1,0.5-2.4,0.6-3.8
			c0.1-1.4,0.2-2.9,0.2-4.4l0,0V23.1c0-1.2,0.1-2.1,0.3-2.6c0.2-0.6,0.5-0.9,1.1-1.2s1.3-0.3,2.3-0.4l0,0v-1c-0.9,0-2,0.1-3.4,0.1
			s-2.8,0-4.2,0s-2.8,0-4.1,0S51.5,18,50.7,18l0,0v1c1,0,1.8,0.2,2.3,0.4s0.9,0.6,1,1.2c0.2,0.6,0.3,1.4,0.3,2.6l0,0v26.3
			c0,2.7-0.2,4.8-0.7,6.3c-0.5,1.5-1.2,2.6-2.1,3.2s-2,1-3.3,1.1l0,0V61z M79.7,52.7c1.8,0,3.3-0.4,4.6-1.1s2.3-1.7,3.2-2.8
			s1.4-2.3,1.8-3.6l0,0l-0.9-0.3c-1,1.6-2.1,2.6-3.2,3.1c-1.1,0.5-2.2,0.7-3.1,0.7c-1,0-2-0.3-2.9-0.9s-1.8-1.6-2.4-3
			s-0.9-3.2-0.9-5.4c0-0.4,0-0.9,0-1.3c0-0.4,0-0.8,0.1-1.2l0,0.2h13.5c0-3.6-0.7-6.3-2.2-8L87,29c-1.6-1.7-3.8-2.5-6.6-2.5
			c-2.3,0-4.3,0.5-6.1,1.5c-1.8,1-3.2,2.5-4.2,4.4c-1,2-1.5,4.5-1.5,7.4c0,2.9,0.5,5.3,1.4,7.2s2.2,3.3,3.9,4.2
			C75.6,52.2,77.5,52.7,79.7,52.7z M75.8,36.2c0.2-3,0.6-5.2,1.4-6.6c0.8-1.4,1.7-2.1,2.9-2.1c0.8,0,1.4,0.4,1.9,1.2
			c0.5,0.8,0.8,1.9,1.1,3.2s0.3,2.8,0.3,4.3l0,0L75.8,36.2L75.8,36.2z M119.1,52v-1c-0.5-0.2-1-0.5-1.4-1c-0.4-0.4-0.8-1-1.1-1.5
			l0,0L108.5,35l3.1-3.2c0.9-0.9,1.8-1.6,2.7-2.2l0.4-0.2c1-0.6,2-1.1,3-1.2l0,0v-1c-0.4,0-0.9,0.1-1.5,0.1c-0.6,0-1.3,0-2,0
			c-0.7,0-1.4,0-2,0c-0.7,0-1.6,0-2.7,0c-1.1,0-2-0.1-2.9-0.1l0,0v1c1.1,0,2,0.3,2.7,0.8c0.7,0.5,1,1.1,1,1.9c0,0.8-0.5,1.7-1.6,2.7
			l0,0l-3.6,3.6c-0.4,0.4-0.9,0.8-1.4,0.9s-1.1,0.3-1.8,0.3l0.2,0l0-23.9c-0.8,0.2-1.7,0.3-2.7,0.4l-0.6,0.1
			c-1.2,0.1-2.4,0.2-3.7,0.2c-1,0-2,0-3-0.1l0,0v1c1.2,0,2,0.3,2.4,1c0.4,0.7,0.6,1.8,0.6,3.2l0,0v27.4c0,1.3-0.2,2.3-0.7,2.7
			C93.9,50.8,93.1,51,92,51l0,0v1c0.6,0,1.6-0.1,2.9-0.1s2.5-0.1,3.8-0.1c1.2,0,2.4,0,3.6,0.1s2.1,0.1,2.7,0.1l0,0v-1
			c-1.1,0-1.8-0.2-2.2-0.7s-0.6-1.4-0.6-2.7l0,0l0-8.2l0,0c0.4,0,0.8,0.1,1,0.2l0.2,0.1c0.4,0.2,0.7,0.6,1.1,1.2l0,0l4.8,8.6
			c0.3,0.5,0.3,0.9,0.1,1.2c-0.2,0.3-0.7,0.5-1.3,0.5l0,0v1c0.6,0,1.5-0.1,2.6-0.1s2.4-0.1,3.6-0.1c1,0,1.9,0,2.9,0.1
			S118.6,52,119.1,52L119.1,52z M125.6,61c0.9,0,1.7-0.1,2.4-0.3c0.7-0.2,1.3-0.5,1.7-0.9c0.8-0.6,1.5-1.8,2.1-3.4l0,0l1.8-5.1
			l6.8-19c0.5-1.4,1-2.4,1.6-3c0.5-0.6,1.1-1,1.7-1.1l0,0v-1c-0.4,0-1,0.1-1.7,0.1c-0.7,0-1.4,0-2,0s-1.4,0-2.3,0
			c-0.9,0-1.7-0.1-2.4-0.1l0,0v1c1.5,0.1,2.6,0.8,3.2,2c0.6,1.2,0.5,3.1-0.4,5.7l0,0l-3.3,9.2L129,30.9c-0.4-0.8-0.5-1.4-0.3-1.8
			l0-0.1c0.2-0.4,0.6-0.6,1.2-0.7c0.6-0.1,1.2-0.1,1.8-0.1l0,0v-1c-1,0.1-2,0.1-3.1,0.2c-1.1,0.1-2.3,0.1-3.6,0.1
			c-1.1,0-2.2,0-3.3-0.1s-2.2-0.1-3.3-0.2l0,0v1c0.4,0,0.8,0.1,1.4,0.4c0.5,0.3,1.1,1,1.6,2.3l0,0L131.6,54l-0.8,2.3
			c-0.4,1.2-1,2.1-1.7,2.7l-0.2,0.1c-0.7,0.6-1.6,0.9-2.5,0.9l0,0H126c-0.2,0-0.4,0-0.6,0c0.8-0.3,1.4-0.7,1.8-1.3
			c0.4-0.6,0.6-1.2,0.6-1.8c0-1-0.3-1.7-1-2.3s-1.5-0.8-2.6-0.8c-1.2,0-2.1,0.3-2.8,0.9c-0.7,0.6-1.1,1.4-1.1,2.4
			c0,0.9,0.3,1.6,0.8,2.2c0.5,0.6,1.2,1,2,1.2C124,60.9,124.8,61,125.6,61z M158.1,52v-1c-1.1,0-1.9-0.2-2.4-0.7
			c-0.5-0.5-0.7-1.4-0.7-2.7l0,0V14.4c-1,0.2-2.1,0.4-3.3,0.5c-1.2,0.1-2.4,0.2-3.7,0.2c-1,0-2,0-3-0.1l0,0v1c1.2,0,2,0.3,2.4,1
			c0.4,0.7,0.6,1.8,0.6,3.2l0,0v27.4c0,1.3-0.2,2.3-0.7,2.7c-0.5,0.5-1.3,0.7-2.4,0.7l0,0v1c0.6,0,1.6-0.1,2.9-0.1
			c1.3,0,2.5-0.1,3.8-0.1c1.2,0,2.5,0,3.7,0.1C156.6,51.9,157.5,52,158.1,52L158.1,52z M173,52v-1c-1.1,0-1.9-0.2-2.4-0.7
			s-0.7-1.4-0.7-2.7l0,0V14.4c-1,0.2-2.1,0.4-3.3,0.5c-1.2,0.1-2.4,0.2-3.7,0.2c-1,0-2,0-3-0.1l0,0v1c1.2,0,2,0.3,2.4,1
			c0.4,0.7,0.6,1.8,0.6,3.2l0,0v27.4c0,1.3-0.2,2.3-0.7,2.7S161.1,51,160,51l0,0v1c0.6,0,1.6-0.1,2.9-0.1c1.3,0,2.5-0.1,3.8-0.1
			s2.5,0,3.7,0.1S172.4,52,173,52L173,52z"/>
		<path id="Serif" class="st3" d="M190.5,52.7c2.1,0,4.1-0.3,5.9-1c1.8-0.7,3.2-1.7,4.3-3.1c1.1-1.4,1.7-3.1,1.7-5.2
			c0-1.7-0.4-3.2-1.1-4.5c-0.7-1.2-1.7-2.4-2.9-3.4s-2.6-2-4.1-3c-1.8-1.2-3.3-2.3-4.5-3.1s-2.2-1.8-2.8-2.7c-0.6-0.9-1-2-1-3.3
			c0-1.5,0.5-2.7,1.5-3.6s2.3-1.3,3.8-1.3c1.7,0,3.1,0.5,4.3,1.5s2.1,2.3,2.7,3.9s1,3.2,1.2,4.8l0,0h1.1c0-2.2,0-4,0-5.4
			c0-1.4,0-2.5,0.1-3.3c0-0.8,0.1-1.6,0.1-2.2l0,0h-1.1c-0.2,1.4-0.5,2.1-1.1,2.1c-0.2,0-0.5-0.1-0.7-0.2c-0.2-0.1-0.6-0.3-0.9-0.5
			c-0.7-0.4-1.6-0.9-2.6-1.3c-1-0.4-2.5-0.6-4.4-0.6c-1.9,0-3.6,0.3-5.3,0.9c-1.6,0.6-3,1.6-4,2.9s-1.5,3-1.5,5
			c0,1.8,0.4,3.3,1.2,4.6c0.8,1.3,1.8,2.4,3.1,3.4s2.7,2,4.2,3c2.1,1.4,3.8,2.7,5.2,4c1.3,1.3,2,2.9,2,4.9c0,1.8-0.6,3.1-1.7,4
			c-1.2,0.9-2.6,1.3-4.2,1.3c-2,0-3.7-0.6-4.9-1.7s-2.1-2.6-2.7-4.4c-0.6-1.8-1-3.8-1.1-5.9l0,0h-1.1c0,2.5,0,4.6,0,6.3
			c0,1.6,0,3,0,4c0,1-0.1,1.9-0.1,2.7l0,0h1.1c0.2-1.4,0.5-2.1,1.1-2.1c0.4,0,0.9,0.2,1.6,0.7c0.8,0.4,1.8,0.8,3,1.2
			C186.9,52.5,188.5,52.7,190.5,52.7z M217.2,52.7c1.8,0,3.3-0.4,4.6-1.1s2.3-1.7,3.2-2.8s1.4-2.3,1.8-3.6l0,0l-0.9-0.3
			c-1,1.6-2.1,2.6-3.2,3.1s-2.2,0.7-3.1,0.7c-1,0-2-0.3-2.9-0.9c-1-0.6-1.8-1.6-2.4-3c-0.6-1.4-0.9-3.2-0.9-5.4c0-0.4,0-0.9,0-1.3
			c0-0.4,0-0.8,0.1-1.2l0,0.2h13.5c0-3.6-0.7-6.3-2.2-8l-0.2-0.2c-1.6-1.7-3.8-2.5-6.6-2.5c-2.3,0-4.3,0.5-6.1,1.5s-3.2,2.5-4.2,4.4
			c-1,2-1.5,4.5-1.5,7.4c0,2.9,0.5,5.3,1.4,7.2s2.2,3.3,3.9,4.2C213.1,52.2,215.1,52.7,217.2,52.7z M213.4,36.2
			c0.2-3,0.6-5.2,1.4-6.6c0.8-1.4,1.7-2.1,2.9-2.1c0.8,0,1.4,0.4,1.9,1.2c0.5,0.8,0.8,1.9,1.1,3.2s0.3,2.8,0.3,4.3l0,0L213.4,36.2
			L213.4,36.2z M244.2,52v-1c-1.5,0-2.6-0.3-3.4-0.8c-0.8-0.5-1.1-1.6-1.1-3.1l0,0V34.3c0-0.9,0.2-1.7,0.6-2.6s0.9-1.7,1.6-2.3
			c0.7-0.7,1.4-1,2.2-1.2c0.4-0.2,0.9-0.2,1.3,0c-0.6,0.4-1.1,0.9-1.5,1.5c-0.4,0.6-0.6,1.3-0.6,2.2c0,0.9,0.3,1.7,0.9,2.2
			c0.6,0.6,1.5,0.8,2.6,0.8s2-0.4,2.7-1.1c0.7-0.8,1-1.7,1-2.9c0-0.7-0.2-1.4-0.5-2.1s-0.8-1.2-1.4-1.7s-1.5-0.6-2.5-0.6
			c-1,0-2,0.2-2.8,0.6s-1.6,1-2.2,1.7s-1.2,1.5-1.5,2.4l0,0v-4.5c-1,0.2-2.1,0.4-3.2,0.5s-2.4,0.2-3.8,0.2c-1,0-2,0-3-0.1l0,0v1
			c1.2,0,2,0.3,2.4,1c0.4,0.7,0.6,1.8,0.6,3.2l0,0v15.1c0,1.3-0.2,2.3-0.7,2.7c-0.5,0.5-1.3,0.7-2.4,0.7l0,0v1c0.7,0,1.7-0.1,3-0.1
			c1.3,0,2.6-0.1,3.9-0.1c1.5,0,3,0,4.4,0.1C242.4,51.9,243.5,52,244.2,52L244.2,52z M258.4,22.2c1.3,0,2.4-0.3,3.2-1
			c0.8-0.7,1.2-1.6,1.2-2.7s-0.4-2.1-1.2-2.7c-0.8-0.7-1.8-1-3.2-1s-2.4,0.3-3.2,1s-1.2,1.6-1.2,2.7s0.4,2.1,1.2,2.7
			S257,22.2,258.4,22.2z M265.2,52v-1c-1.1,0-1.9-0.2-2.4-0.7s-0.7-1.4-0.7-2.7l0,0V26.7c-1,0.2-2.1,0.4-3.2,0.5s-2.4,0.2-3.8,0.2
			c-1,0-2,0-3-0.1l0,0v1c1.2,0,2,0.3,2.4,1c0.4,0.7,0.6,1.8,0.6,3.2l0,0v15.1c0,1.3-0.2,2.3-0.7,2.7c-0.5,0.5-1.3,0.7-2.4,0.7l0,0v1
			c0.6,0,1.6-0.1,2.9-0.1c1.3,0,2.5-0.1,3.8-0.1c1.2,0,2.5,0,3.7,0.1C263.7,51.9,264.6,52,265.2,52L265.2,52z M281.8,52v-1
			c-1.4,0-2.5-0.3-3.3-0.8c-0.8-0.5-1.2-1.6-1.2-3.1l0,0V28.2h5.1v-1h-5.1v-4.4c0-1.9,0.1-3.3,0.2-4.2c0.1-0.9,0.4-1.6,0.7-2.1
			c0.3-0.4,0.6-0.7,1-0.9c0.4-0.2,0.9-0.3,1.6-0.3c0.5,0,0.9,0.1,1.2,0.2c0.3,0.1,0.5,0.3,0.6,0.5c-0.9,0.3-1.6,0.7-2.1,1.3
			s-0.7,1.4-0.7,2.2c0,1.1,0.3,1.9,1,2.5c0.7,0.6,1.6,0.9,2.6,0.9c1,0,1.8-0.3,2.5-1c0.6-0.7,0.9-1.4,0.9-2.3c0-0.8-0.2-1.5-0.5-2.1
			c-0.3-0.6-0.7-1.1-1.2-1.5c-0.6-0.5-1.4-0.9-2.2-1.2s-1.8-0.4-2.9-0.4c-1.3,0-2.6,0.2-3.8,0.7s-2.1,1-2.8,1.7
			c-1.1,1.1-1.9,2.4-2.4,3.9c-0.4,1.5-0.7,3.7-0.7,6.5l0,0h-3.3v1h3.3v19.3c0,1.3-0.2,2.3-0.7,2.7s-1.3,0.7-2.4,0.7l0,0v1
			c0.6,0,1.5-0.1,2.7-0.1s2.4-0.1,3.6-0.1c1.7,0,3.2,0,4.8,0.1S280.9,52,281.8,52L281.8,52z"/>
	</g>
</g>
<g>
	<g>
		<path class="st4" d="M27.3,21.6c0,1.7,0.1,3.2,0.2,4.3h-1.2c-0.3-2.7-0.6-4.7-1-6c-0.4-1.3-1.1-2.3-2.2-2.9
			c-1-0.6-2.6-0.9-4.8-0.9H15c-1.2,0-2.2,0.1-2.7,0.3c-0.6,0.2-1,0.6-1.2,1.2c-0.2,0.6-0.3,1.5-0.3,2.9v12.8h3.8
			c1.2,0,2.1-0.3,2.8-0.9c0.7-0.6,1.1-1.2,1.3-2c0.2-0.8,0.4-1.8,0.5-2.9l0.2-1h1.2c-0.1,1.5-0.2,3.1-0.2,4.9v2.5
			c0,1.8,0.1,4.2,0.3,7.4h-1.2c0-0.2-0.1-1.1-0.3-2.5c-0.2-1.4-0.6-2.5-1.4-3.2c-0.8-0.7-1.9-1.1-3.2-1.1h-3.8v12
			c0,1.3,0.1,2.3,0.4,2.9c0.3,0.6,0.8,1,1.5,1.2c0.7,0.2,1.8,0.3,3.4,0.4v1c-1.8-0.1-4.4-0.2-7.6-0.2c-3,0-5.2,0.1-6.7,0.2v-1
			c1.2-0.1,2.2-0.2,2.7-0.4c0.6-0.2,1-0.6,1.2-1.2s0.3-1.5,0.3-2.9V20.5c0-1.3-0.1-2.3-0.3-2.9c-0.2-0.6-0.6-1-1.2-1.2
			C3.9,16.2,3,16.1,1.7,16v-1c3.4,0.1,8.4,0.2,15.1,0.2c5.1,0,8.7-0.1,10.9-0.2C27.4,17.4,27.3,19.6,27.3,21.6z"/>
		<path class="st4" d="M50.2,25.5c0.9,0.8,1.3,1.8,1.3,2.9c0,0.9-0.3,1.7-0.8,2.3c-0.5,0.6-1.3,1-2.2,1c-0.8,0-1.4-0.2-2-0.7
			c-0.5-0.5-0.8-1.1-0.8-2c0-1.1,0.6-2.1,1.8-2.8c-0.2-0.3-0.6-0.5-1.1-0.5c-1.4,0-2.6,0.5-3.7,1.6c-1.1,1.1-2,2.3-2.6,3.9
			s-0.9,3-0.9,4.3v11c0,1.6,0.5,2.7,1.4,3.3c0.9,0.6,2.3,0.9,4.1,0.9v1.1l-1.2-0.1c-3.5-0.1-5.8-0.2-6.8-0.2c-0.9,0-2.9,0.1-6.1,0.2
			v-1.1c1.5,0,2.5-0.3,3.1-0.8c0.6-0.5,0.9-1.5,0.9-2.9V30.7c0-1.6-0.3-2.8-0.9-3.5c-0.6-0.7-1.6-1.1-3.1-1.1V25
			c1.1,0.1,2.2,0.2,3.2,0.2c2.2,0,4-0.2,5.4-0.7v6.5c0.6-1.7,1.6-3.3,3-4.6c1.4-1.4,2.9-2,4.6-2C48.2,24.3,49.3,24.7,50.2,25.5z"/>
		<path class="st4" d="M55.9,50.5c-1.1-1.1-1.6-2.6-1.6-4.6c0-1.6,0.4-2.8,1.3-3.8c0.8-1,1.9-1.8,3-2.4c1.2-0.6,2.7-1.2,4.6-1.9
			c1.9-0.7,3.4-1.3,4.3-1.8c0.9-0.6,1.4-1.3,1.4-2.2v-3.2c0-2-0.4-3.4-1.3-4.1c-0.9-0.7-2-1.1-3.6-1.1c-2.4,0-4.1,0.6-5.1,1.9
			c0.7,0.2,1.3,0.5,1.7,1.1c0.5,0.6,0.7,1.2,0.7,2.1c0,0.9-0.3,1.6-0.8,2.1c-0.6,0.5-1.3,0.8-2.1,0.8c-1,0-1.7-0.3-2.2-0.9
			c-0.5-0.6-0.7-1.3-0.7-2.2c0-0.8,0.2-1.5,0.6-2.1c0.4-0.6,1-1.1,1.8-1.7c0.8-0.6,1.9-1.1,3.2-1.5c1.3-0.4,2.7-0.6,4.2-0.6
			c2.7,0,4.7,0.6,6.1,1.9c0.9,0.8,1.4,1.8,1.7,2.9c0.3,1.1,0.4,2.6,0.4,4.4V48c0,0.9,0.1,1.5,0.4,1.9c0.2,0.4,0.7,0.6,1.2,0.6
			c0.4,0,0.8-0.1,1.2-0.3c0.4-0.2,0.8-0.5,1.2-0.8l0.6,0.9c-0.9,0.7-1.7,1.2-2.3,1.5c-0.6,0.3-1.4,0.4-2.4,0.4
			c-1.7,0-2.8-0.4-3.5-1.2c-0.7-0.8-1-2-1-3.4c-1,1.7-2.2,2.9-3.6,3.6c-1.4,0.7-2.9,1-4.6,1C58.6,52.1,56.9,51.6,55.9,50.5z
			 M68.9,46.1V35.9c-0.3,0.5-0.7,0.9-1.3,1.2c-0.6,0.3-1.4,0.7-2.5,1.2c-1.3,0.6-2.4,1.1-3.2,1.6c-0.8,0.5-1.5,1.2-2.1,2.1
			c-0.6,0.9-0.9,2-0.9,3.3c0,1.6,0.4,2.7,1.1,3.5c0.8,0.8,1.8,1.2,3,1.2C65.3,50.1,67.3,48.7,68.9,46.1z"/>
		<path class="st4" d="M102.7,26.2c0.7,0.7,1.1,1.6,1.4,2.6c0.3,1,0.4,2.4,0.4,4.2v13.9c0,1.4,0.3,2.4,0.9,2.9
			c0.6,0.5,1.6,0.8,3.1,0.8v1.1c-3.2-0.1-5.3-0.2-6.2-0.2c-1,0-2.9,0.1-5.8,0.2v-1.1c1.3,0,2.2-0.3,2.7-0.8c0.5-0.5,0.8-1.5,0.8-2.9
			v-15c0-1.9-0.3-3.4-0.8-4.4c-0.6-1-1.7-1.5-3.4-1.5c-1.4,0-2.7,0.4-3.8,1.2c-1.1,0.8-2,2-2.6,3.4c-0.6,1.4-0.9,3-0.9,4.8v11.5
			c0,1.4,0.3,2.4,0.8,2.9c0.5,0.5,1.4,0.8,2.7,0.8v1.1c-2.9-0.1-4.9-0.2-5.8-0.2c-1,0-3.1,0.1-6.2,0.2v-1.1c1.5,0,2.5-0.3,3.1-0.8
			c0.6-0.5,0.9-1.5,0.9-2.9V30.7c0-1.6-0.3-2.8-0.9-3.5c-0.6-0.7-1.6-1.1-3.1-1.1V25c1.1,0.1,2.2,0.2,3.2,0.2c2.2,0,4-0.2,5.4-0.7
			v6.1c0.9-2.2,2.1-3.8,3.6-4.8c1.5-1,3.3-1.5,5.2-1.5C99.6,24.3,101.4,24.9,102.7,26.2z"/>
		<path class="st4" d="M117,51h5.7c2.1,0,3.8-0.7,5-2c1.2-1.3,1.9-3.5,2.2-6.4h1.2c0,4.5,0.1,7.7,0.2,9.4c-2.7-0.1-6-0.2-9.7-0.2
			c-3.3,0-6.8,0.1-10.5,0.3l15-26.3h-5.7c-2.3,0-4,0.6-5.2,2c-1.1,1.3-1.8,3.4-2.1,6.4h-1.2c0-4.5-0.1-7.7-0.2-9.4
			c2.7,0.1,6,0.2,9.7,0.2c3.3,0,6.8-0.1,10.5-0.3L117,51z"/>
		<path class="st4" d="M144.1,46.9c0,1.4,0.3,2.4,0.9,2.9c0.6,0.5,1.6,0.8,3.1,0.8v1.1c-3.2-0.1-5.3-0.2-6.3-0.2
			c-1,0-3.1,0.1-6.3,0.2v-1.1c1.5,0,2.5-0.3,3.1-0.8c0.6-0.5,0.9-1.5,0.9-2.9V30.7c0-1.6-0.3-2.8-0.9-3.5c-0.6-0.7-1.6-1.1-3.1-1.1
			V25c1.1,0.1,2.2,0.2,3.2,0.2c2.2,0,4-0.2,5.4-0.7V46.9z M143.7,13c0.7,0.7,1,1.4,1,2.3c0,0.9-0.3,1.7-1,2.3c-0.7,0.7-1.4,1-2.3,1
			s-1.7-0.3-2.3-1c-0.7-0.7-1-1.4-1-2.3c0-0.9,0.3-1.7,1-2.3c0.7-0.7,1.4-1,2.3-1S143.1,12.3,143.7,13z"/>
		<path class="st4" d="M163.3,24.8c1,0.4,1.8,0.8,2.3,1.4c0.4,0.3,0.7,0.4,0.9,0.4c0.6,0,1-0.8,1.1-2.3h1.2
			c-0.1,1.7-0.2,4.6-0.2,8.8h-1.2c-0.4-2.3-1.1-4.2-2.2-5.7c-1.1-1.5-2.7-2.2-4.9-2.2c-1.2,0-2.3,0.4-3.1,1.1
			c-0.8,0.7-1.2,1.7-1.2,2.9c0,1.2,0.4,2.2,1.2,3c0.8,0.8,2.2,1.8,4,2.9c0.3,0.2,0.8,0.5,1.4,0.9c1.6,1,2.9,2,3.8,2.8
			c1,0.8,1.8,1.7,2.4,2.8c0.6,1,0.9,2.2,0.9,3.6c0,2.3-0.9,4.1-2.6,5.4c-1.7,1.3-3.8,1.9-6.3,1.9c-1.6,0-2.9-0.2-4.1-0.7
			c-0.8-0.4-1.5-0.8-2.1-1.4c-0.1-0.1-0.3-0.2-0.5-0.2c-0.2,0-0.5,0.2-0.7,0.5c-0.2,0.3-0.3,0.8-0.4,1.5h-1.2
			c0.1-2,0.2-5.4,0.2-10.4h1.2c0.4,3.3,1.1,5.7,2.1,7.3c1,1.6,2.7,2.4,5.1,2.4c1.2,0,2.3-0.4,3.2-1.2c0.9-0.8,1.4-2,1.4-3.7
			c0-1.4-0.5-2.5-1.4-3.4c-0.9-0.9-2.4-2.1-4.5-3.4c-1.7-1.1-3-2-3.9-2.7c-0.9-0.7-1.7-1.5-2.3-2.5c-0.6-1-0.9-2.2-0.9-3.5
			c0-2.2,0.7-3.8,2.2-5s3.3-1.7,5.5-1.7C161.3,24.3,162.4,24.5,163.3,24.8z"/>
		<path class="st4" d="M198.8,49.9c0.5,0.4,1.1,0.7,1.9,0.8v1.1c-2.1-0.1-3.5-0.2-4.2-0.2c-0.9,0-2.9,0.1-5.8,0.2v-1.1
			c0.5,0,0.9-0.1,1.2-0.3c0.3-0.2,0.4-0.4,0.4-0.7c0-0.3-0.1-0.5-0.3-0.8l-6-8.7c-0.6-0.9-1.2-1.4-1.7-1.7c-0.5-0.3-1.3-0.5-2.2-0.5
			v9c0,1.4,0.3,2.4,0.8,2.9c0.5,0.5,1.4,0.8,2.7,0.8v1.1c-2.9-0.1-4.8-0.2-5.8-0.2c-1,0-3.1,0.1-6.3,0.2v-1.1c1.5,0,2.5-0.3,3.1-0.8
			c0.6-0.5,0.9-1.5,0.9-2.9V17.2c0-1.6-0.3-2.8-0.9-3.5c-0.6-0.7-1.6-1.1-3.1-1.1v-1.1c1.1,0.1,2.2,0.2,3.2,0.2c2.2,0,4-0.2,5.4-0.7
			v25.8c1-0.1,1.8-0.4,2.5-0.7c0.7-0.3,1.3-0.8,1.9-1.4l3.8-4c1.1-1.1,1.7-2.1,1.7-2.9c0-0.6-0.4-1-1.1-1.3
			c-0.7-0.3-1.6-0.4-2.8-0.4v-1c2.4,0.1,4.4,0.2,5.9,0.2c1.6,0,3.1-0.1,4.5-0.2v1c-1.7,0.1-3.3,1-4.7,2.4l-6.3,6.7L197,48
			C197.7,48.8,198.3,49.5,198.8,49.9z"/>
		<path class="st4" d="M204.7,50.5c-1.1-1.1-1.6-2.6-1.6-4.6c0-1.6,0.4-2.8,1.3-3.8c0.8-1,1.9-1.8,3-2.4c1.2-0.6,2.7-1.2,4.6-1.9
			c1.9-0.7,3.4-1.3,4.3-1.8c0.9-0.6,1.4-1.3,1.4-2.2v-3.2c0-2-0.4-3.4-1.3-4.1c-0.8-0.7-2-1.1-3.6-1.1c-2.4,0-4.1,0.6-5.1,1.9
			c0.7,0.2,1.3,0.5,1.7,1.1c0.5,0.6,0.7,1.2,0.7,2.1c0,0.9-0.3,1.6-0.8,2.1c-0.6,0.5-1.3,0.8-2.1,0.8c-1,0-1.7-0.3-2.2-0.9
			c-0.5-0.6-0.7-1.3-0.7-2.2c0-0.8,0.2-1.5,0.6-2.1c0.4-0.6,1-1.1,1.8-1.7c0.8-0.6,1.9-1.1,3.2-1.5c1.3-0.4,2.7-0.6,4.2-0.6
			c2.7,0,4.7,0.6,6.1,1.9c0.9,0.8,1.4,1.8,1.7,2.9c0.3,1.1,0.4,2.6,0.4,4.4V48c0,0.9,0.1,1.5,0.4,1.9c0.2,0.4,0.7,0.6,1.2,0.6
			c0.4,0,0.8-0.1,1.2-0.3c0.4-0.2,0.8-0.5,1.2-0.8l0.6,0.9c-0.9,0.7-1.7,1.2-2.3,1.5c-0.6,0.3-1.4,0.4-2.4,0.4
			c-1.7,0-2.8-0.4-3.5-1.2c-0.7-0.8-1-2-1-3.4c-1,1.7-2.2,2.9-3.6,3.6c-1.4,0.7-2.9,1-4.6,1C207.3,52.1,205.7,51.6,204.7,50.5z
			 M217.7,46.1V35.9c-0.3,0.5-0.7,0.9-1.3,1.2c-0.6,0.3-1.4,0.7-2.5,1.2c-1.3,0.6-2.4,1.1-3.2,1.6c-0.8,0.5-1.5,1.2-2.1,2.1
			c-0.6,0.9-0.9,2-0.9,3.3c0,1.6,0.4,2.7,1.1,3.5c0.8,0.8,1.8,1.2,3,1.2C214.1,50.1,216.1,48.7,217.7,46.1z"/>
		<path class="st5" d="M251.1,36.9v9.4c0,1.3,0.1,2.3,0.4,2.9c0.3,0.6,0.8,1,1.5,1.2s1.8,0.3,3.4,0.4v1c-1.8-0.1-4.4-0.2-7.6-0.2
			c-3,0-5.2,0.1-6.7,0.2v-1c1.2-0.1,2.2-0.2,2.7-0.4s1-0.6,1.2-1.2s0.3-1.5,0.3-2.9V20.5c0-1.3-0.1-2.3-0.3-2.9
			c-0.2-0.6-0.6-1-1.2-1.2s-1.5-0.3-2.7-0.4v-1c1.5,0.1,3.6,0.2,6.3,0.2l5.6-0.1c0.7,0,1.4-0.1,2.2-0.1c4.1,0,7.2,0.9,9.3,2.8
			c2.1,1.9,3.2,4.3,3.2,7.5c0,1.9-0.4,3.7-1.3,5.5c-0.8,1.8-2.3,3.2-4.3,4.4c-2,1.2-4.7,1.8-8.1,1.8H251.1z M252.5,16.4
			c-0.5,0.2-0.9,0.7-1.1,1.3s-0.3,1.6-0.3,2.8v15.4h3.5c3.4,0,5.7-0.9,7-2.7c1.3-1.8,2-4.3,2-7.3c0-3.4-0.7-5.8-2-7.4
			c-1.3-1.6-3.5-2.4-6.6-2.4C253.9,16,253.1,16.1,252.5,16.4z"/>
		<path class="st5" d="M273.9,50.5c-1.1-1.1-1.6-2.6-1.6-4.6c0-1.6,0.4-2.8,1.3-3.8c0.8-1,1.9-1.8,3-2.4c1.2-0.6,2.7-1.2,4.6-1.9
			c1.9-0.7,3.4-1.3,4.3-1.8c0.9-0.6,1.4-1.3,1.4-2.2v-3.2c0-2-0.4-3.4-1.3-4.1c-0.8-0.7-2-1.1-3.6-1.1c-2.4,0-4.1,0.6-5.1,1.9
			c0.7,0.2,1.3,0.5,1.7,1.1c0.5,0.6,0.7,1.2,0.7,2.1c0,0.9-0.3,1.6-0.8,2.1c-0.6,0.5-1.3,0.8-2.1,0.8c-1,0-1.7-0.3-2.2-0.9
			c-0.5-0.6-0.7-1.3-0.7-2.2c0-0.8,0.2-1.5,0.6-2.1c0.4-0.6,1-1.1,1.8-1.7c0.8-0.6,1.9-1.1,3.2-1.5c1.3-0.4,2.7-0.6,4.2-0.6
			c2.7,0,4.7,0.6,6.1,1.9c0.9,0.8,1.4,1.8,1.7,2.9c0.3,1.1,0.4,2.6,0.4,4.4V48c0,0.9,0.1,1.5,0.4,1.9c0.2,0.4,0.7,0.6,1.2,0.6
			c0.4,0,0.8-0.1,1.2-0.3c0.4-0.2,0.8-0.5,1.2-0.8l0.6,0.9c-0.9,0.7-1.7,1.2-2.3,1.5c-0.6,0.3-1.4,0.4-2.4,0.4
			c-1.7,0-2.8-0.4-3.5-1.2c-0.7-0.8-1-2-1-3.4c-1,1.7-2.2,2.9-3.6,3.6c-1.4,0.7-2.9,1-4.6,1C276.6,52.1,275,51.6,273.9,50.5z
			 M279.7,14c0.6,0.6,0.9,1.3,0.9,2.1c0,0.8-0.3,1.5-0.9,2.1c-0.6,0.6-1.3,0.9-2.1,0.9c-0.8,0-1.5-0.3-2.1-0.9
			c-0.6-0.6-0.9-1.3-0.9-2.1c0-0.8,0.3-1.5,0.9-2.1c0.6-0.6,1.3-0.9,2.1-0.9C278.4,13.1,279.1,13.4,279.7,14z M286.9,46.1V35.9
			c-0.3,0.5-0.7,0.9-1.3,1.2c-0.6,0.3-1.4,0.7-2.5,1.2c-1.3,0.6-2.4,1.1-3.2,1.6c-0.8,0.5-1.5,1.2-2.1,2.1c-0.6,0.9-0.9,2-0.9,3.3
			c0,1.6,0.4,2.7,1.1,3.5c0.8,0.8,1.8,1.2,3,1.2C283.4,50.1,285.3,48.7,286.9,46.1z M290.8,14c0.6,0.6,0.9,1.3,0.9,2.1
			c0,0.8-0.3,1.5-0.9,2.1c-0.6,0.6-1.3,0.9-2.1,0.9c-0.8,0-1.5-0.3-2.1-0.9c-0.6-0.6-0.9-1.3-0.9-2.1c0-0.8,0.3-1.5,0.9-2.1
			c0.6-0.6,1.3-0.9,2.1-0.9C289.5,13.1,290.2,13.4,290.8,14z"/>
		<path class="st5" d="M306.1,25h7.7v1h-7.7v20.1c0,1.6,0.3,2.7,0.9,3.4c0.6,0.7,1.4,1,2.5,1c1.1,0,2-0.4,2.8-1.3s1.4-2.3,1.9-4.3
			l1,0.3c-0.9,4.8-3.1,7.2-6.8,7.2c-1.2,0-2.1-0.1-2.9-0.4c-0.8-0.3-1.4-0.7-2-1.3c-0.8-0.8-1.3-1.7-1.6-2.8
			c-0.3-1.1-0.4-2.6-0.4-4.5V26.1h-5v-1h5v-8c1.9-0.1,3.5-0.3,4.7-0.7V25z"/>
		<path class="st5" d="M322.4,51h5.7c2.1,0,3.8-0.7,5-2c1.2-1.3,1.9-3.5,2.2-6.4h1.2c0,4.5,0.1,7.7,0.2,9.4c-2.7-0.1-6-0.2-9.7-0.2
			c-3.3,0-6.8,0.1-10.5,0.3l15-26.3h-5.7c-2.3,0-4,0.6-5.2,2c-1.1,1.3-1.8,3.4-2.1,6.4h-1.2c0-4.5-0.1-7.7-0.2-9.4
			c2.7,0.1,6,0.2,9.7,0.2c3.3,0,6.8-0.1,10.5-0.3L322.4,51z"/>
		<path class="st5" d="M362.2,27.8c2.2,2.3,3.2,5.9,3.2,10.6c0,4.7-1.1,8.3-3.2,10.6c-2.2,2.3-5,3.5-8.6,3.5s-6.4-1.2-8.6-3.5
			c-2.2-2.3-3.2-5.9-3.2-10.6c0-4.8,1.1-8.3,3.2-10.6c2.2-2.3,5-3.5,8.6-3.5S360,25.4,362.2,27.8z M348.7,28.5
			c-1.2,2.1-1.8,5.4-1.8,9.9c0,4.5,0.6,7.8,1.8,9.9s2.9,3.2,4.9,3.2s3.7-1.1,4.9-3.2c1.2-2.1,1.8-5.4,1.8-9.9c0-4.5-0.6-7.8-1.8-9.9
			c-1.2-2.1-2.9-3.2-4.9-3.2S349.9,26.4,348.7,28.5z"/>
		<path class="st5" d="M377.6,46.9c0,1.4,0.3,2.4,0.9,2.9c0.6,0.5,1.6,0.8,3.1,0.8v1.1c-3.2-0.1-5.3-0.2-6.3-0.2s-3.1,0.1-6.3,0.2
			v-1.1c1.5,0,2.5-0.3,3.1-0.8c0.6-0.5,0.9-1.5,0.9-2.9V17.2c0-1.6-0.3-2.8-0.9-3.5c-0.6-0.7-1.6-1.1-3.1-1.1v-1.1
			c1.1,0.1,2.1,0.2,3.2,0.2c2.2,0,4-0.2,5.4-0.7V46.9z"/>
		<path class="st5" d="M408.8,49.6c0.6,0.7,1.6,1.1,3.1,1.1v1.1c-1.1-0.1-2.2-0.2-3.2-0.2c-2.2,0-4,0.2-5.4,0.7v-4.6
			c-0.6,1.6-1.6,2.7-2.8,3.6c-1.2,0.8-2.8,1.2-4.6,1.2c-3.3,0-5.9-1.2-7.8-3.6c-1.9-2.4-2.8-5.9-2.8-10.5c0-3,0.5-5.6,1.6-7.7
			c1.1-2.1,2.5-3.7,4.3-4.8c1.8-1.1,3.8-1.6,5.9-1.6c1.3,0,2.5,0.3,3.6,0.8c1.1,0.5,2,1.3,2.6,2.3V17.2c0-1.6-0.3-2.8-0.9-3.5
			s-1.6-1.1-3.1-1.1v-1.1c1.1,0.1,2.2,0.2,3.2,0.2c2.2,0,4-0.2,5.4-0.7v35.1C407.9,47.7,408.2,48.9,408.8,49.6z M401,49.4
			c1.1-1,1.8-2.5,2.2-4.4V29.5c-0.9-2.7-2.9-4-5.8-4c-2.2,0-3.9,1.1-5.2,3.3c-1.3,2.2-2,5.4-1.9,9.6c0,4.2,0.6,7.3,1.8,9.4
			s3,3.1,5.3,3.1C398.7,50.9,399.9,50.4,401,49.4z"/>
	</g>
</g>
</svg>
