<?xml version="1.0" encoding="UTF-8"?><svg xmlns="http://www.w3.org/2000/svg" xmlns:xlink="http://www.w3.org/1999/xlink" viewBox="0 0 246.78 60.36"><defs><style>.cls-1{fill:#2f2e41;}.cls-2{fill:#e5261f;}.cls-3{fill:url(#Unbenannter_Verlauf_2);}.cls-4{fill:url(#Unbenannter_Verlauf);}</style><linearGradient id="Unbenannter_Verlauf" x1="42.53" y1="48.16" x2="54.58" y2="48.16" gradientTransform="translate(0 60.63) scale(1 -1)" gradientUnits="userSpaceOnUse"><stop offset="0" stop-color="#2aeaff"/><stop offset="1" stop-color="#ffec15"/></linearGradient><linearGradient id="Unbenannter_Verlauf_2" x1="5.05" y1="48.16" x2="17.1" y2="48.16" gradientTransform="translate(0 60.63) scale(1 -1)" gradientUnits="userSpaceOnUse"><stop offset="0" stop-color="#ec2aff"/><stop offset=".03" stop-color="#e335f7"/><stop offset=".23" stop-color="#b272ce"/><stop offset=".42" stop-color="#89a4ab"/><stop offset=".59" stop-color="#69cc90"/><stop offset=".76" stop-color="#52e87c"/><stop offset=".9" stop-color="#44f970"/><stop offset="1" stop-color="#3fff6c"/></linearGradient></defs><g id="Ebene_1"><g id="Ebene_1-2"><path class="cls-1" d="m97.08,7.31c0,1.1.1,2.1.1,2.9h-.8c-.2-1.8-.4-3.1-.7-4-.3-.9-.7-1.5-1.5-1.9-.7-.4-1.7-.6-3.2-.6h-2.1c-.8,0-1.5.1-1.8.2-.4.1-.7.4-.8.8s-.2,1-.2,1.9v8.5h2.5c.8,0,1.4-.2,1.9-.6.5-.4.7-.8.9-1.3.1-.5.3-1.2.3-1.9l.1-.7h.8c-.1,1-.1,2.1-.1,3.3v1.7c0,1.2.1,2.8.2,4.9h-.8c0-.1-.1-.7-.2-1.7-.1-.9-.4-1.7-.9-2.1-.5-.5-1.3-.7-2.1-.7h-2.5v8c0,.9.1,1.5.3,1.9s.5.7,1,.8c.5.1,1.2.2,2.3.3v.7c-1.2-.1-2.9-.1-5.1-.1-2,0-3.5.1-4.5.1v-.7c.7-.2,1.4-.3,1.7-.4.4-.1.7-.4.8-.8.2-.4.2-1,.2-2V6.51c0-.8,0-1.5-.2-1.9-.1-.4-.4-.7-.8-.8s-1-.2-1.8-.3v-.6c2.3.1,5.6.1,10,.1,3.4,0,5.8-.1,7.3-.1-.2,1.6-.3,3-.3,4.4Z"/><path class="cls-1" d="m112.28,9.91c.6.5.9,1.2.9,1.9,0,.6-.2,1.1-.5,1.5s-.9.7-1.5.7c-.5,0-.9-.1-1.3-.5-.3-.3-.5-.7-.5-1.3,0-.7.4-1.4,1.2-1.9-.1-.2-.4-.3-.7-.3-.9,0-1.7.3-2.5,1.1-.7.7-1.3,1.5-1.7,2.6-.4,1.1-.6,2-.6,2.9v7.3c0,1.1.3,1.8.9,2.2.6.4,1.5.6,2.7.6v.7l-.8-.1c-2.3-.1-3.9-.1-4.5-.1s-1.9.1-4.1.1v-.7c1,0,1.7-.2,2.1-.5s.6-1,.6-1.9v-10.9c0-1.1-.2-1.9-.6-2.3-.4-.5-1.1-.7-2.1-.7v-.7c.7.1,1.5.1,2.1.1,1.5,0,2.7-.1,3.6-.5v4.3c.4-1.1,1.1-2.2,2-3.1.9-.9,1.9-1.3,3.1-1.3.9,0,1.6.2,2.2.8Z"/><path class="cls-1" d="m116.08,26.51c-.7-.7-1.1-1.7-1.1-3.1,0-1.1.3-1.9.9-2.5.5-.7,1.3-1.2,2-1.6.8-.4,1.8-.8,3.1-1.3s2.3-.9,2.9-1.2c.6-.4.9-.9.9-1.5v-2c0-1.3-.3-2.3-.9-2.7s-1.3-.7-2.4-.7c-1.6,0-2.7.4-3.4,1.3.5.1.9.3,1.1.7.3.4.5.8.5,1.4s-.2,1.1-.5,1.4c-.4.3-.9.5-1.4.5-.7,0-1.1-.2-1.5-.6-.3-.4-.5-.9-.5-1.5,0-.5.1-1,.4-1.4.3-.4.7-.7,1.2-1.1.5-.4,1.3-.7,2.1-1,.9-.3,1.8-.4,2.8-.4,1.8,0,3.1.4,4.1,1.3.6.5.9,1.2,1.1,1.9.2.7.3,1.7.3,2.9v9.6c0,.6.1,1,.3,1.3.1.3.5.4.8.4s.5-.1.8-.2.5-.3.8-.5l.4.6c-.6.5-1.1.8-1.5,1s-.9.3-1.6.3c-1.1,0-1.9-.3-2.3-.8-.5-.5-.7-1.3-.7-2.3-.7,1.1-1.5,1.9-2.4,2.4s-1.9.7-3.1.7c-1.4-.2-2.5-.6-3.2-1.3Zm8.7-2.9v-6.8c-.2.3-.5.6-.9.8-.4.2-.9.5-1.7.8-.9.4-1.6.7-2.1,1.1s-1,.8-1.4,1.4-.6,1.3-.6,2.2c0,1.1.3,1.8.7,2.3.5.5,1.2.8,2,.8,1.6,0,2.9-.9,4-2.6Z"/><path class="cls-1" d="m147.28,10.31c.5.5.7,1.1.9,1.7s.3,1.6.3,2.8v9.2c0,.9.2,1.6.6,1.9s1.1.5,2.1.5v.9c-2.1-.1-3.5-.1-4.1-.1-.7,0-1.9.1-3.9.1v-.7c.9,0,1.5-.2,1.8-.5s.5-1,.5-1.9v-10c0-1.3-.2-2.3-.5-2.9-.4-.7-1.1-1-2.3-1-.9,0-1.8.3-2.5.8s-1.3,1.3-1.7,2.3c-.4.9-.6,2-.6,3.2v7.7c0,.9.2,1.6.5,1.9s.9.5,1.8.5v.6c-1.9-.1-3.3-.1-3.9-.1-.7,0-2.1.1-4.1.1v-.7c1,0,1.7-.2,2.1-.5.4-.3.6-1,.6-1.9v-10.9c0-1.1-.2-1.9-.6-2.3-.4-.5-1.1-.7-2.1-.7v-.7c.7.1,1.5.1,2.1.1,1.5,0,2.7-.1,3.6-.5v4.1c.6-1.5,1.4-2.5,2.4-3.2s2.2-1,3.5-1c1.4,0,2.6.4,3.5,1.2Z"/><path class="cls-1" d="m156.78,26.81h3.8c1.4,0,2.5-.5,3.3-1.3s1.3-2.3,1.5-4.3h.8c0,3,.1,5.1.1,6.3-1.8-.1-4-.1-6.5-.1-2.2,0-4.5.1-7,.2l10-17.5h-3.8c-1.5,0-2.7.4-3.5,1.3-.7.9-1.2,2.3-1.4,4.3h-.8c0-3-.1-5.1-.1-6.3,1.8.1,4,.1,6.5.1,2.2,0,4.5-.1,7-.2l-9.9,17.5Z"/><path class="cls-1" d="m174.78,24.11c0,.9.2,1.6.6,1.9s1.1.5,2.1.5v.8c-2.1-.1-3.5-.1-4.2-.1s-2.1.1-4.2.1v-.7c1,0,1.7-.2,2.1-.5s.6-1,.6-1.9v-10.9c0-1.1-.2-1.9-.6-2.3-.4-.5-1.1-.7-2.1-.7v-.7c.7.1,1.5.1,2.1.1,1.5,0,2.7-.1,3.6-.5v14.9h0Zm-.3-22.6c.5.5.7.9.7,1.5s-.2,1.1-.7,1.5c-.4.6-.9.8-1.5.8s-1.1-.2-1.5-.7c-.5-.5-.7-.9-.7-1.5s.2-1.1.7-1.5c.5-.5.9-.7,1.5-.7s1.2.2,1.5.6Z"/><path class="cls-1" d="m187.58,9.41c.7.3,1.2.5,1.5.9.3.2.5.3.6.3.4,0,.7-.5.7-1.5h.8c-.1,1.1-.1,3.1-.1,5.9h-.8c-.3-1.5-.7-2.8-1.5-3.8s-1.8-1.5-3.3-1.5c-.8,0-1.5.3-2.1.7-.5.5-.8,1.1-.8,1.9s.3,1.5.8,2,1.5,1.2,2.7,1.9c.2.1.5.3.9.6,1.1.7,1.9,1.3,2.5,1.9.7.5,1.2,1.1,1.6,1.9.4.7.6,1.5.6,2.4,0,1.5-.6,2.7-1.7,3.6s-2.5,1.3-4.2,1.3c-1.1,0-1.9-.1-2.7-.5-.5-.3-1-.5-1.4-.9-.1-.1-.2-.1-.3-.1s-.3.1-.5.3c-.1.2-.2.5-.3,1h-.7c.1-1.3.1-3.6.1-6.9h.8c.3,2.2.7,3.8,1.4,4.9.7,1.1,1.8,1.6,3.4,1.6.8,0,1.5-.3,2.1-.8s.9-1.3.9-2.5c0-.9-.3-1.7-.9-2.3s-1.6-1.4-3-2.3c-1.1-.7-2-1.3-2.6-1.8s-1.1-1-1.5-1.7-.6-1.5-.6-2.3c0-1.5.5-2.5,1.5-3.3s2.2-1.1,3.7-1.1c1.1-.1,1.8,0,2.4.2Z"/><path class="cls-1" d="m211.18,26.11c.3.3.7.5,1.3.5v.7c-1.4-.1-2.3-.1-2.8-.1-.6,0-1.9.1-3.9.1v-.7c.3,0,.6-.1.8-.2s.3-.3.3-.5-.1-.3-.2-.5l-4-5.8c-.4-.6-.8-.9-1.1-1.1-.3-.2-.9-.3-1.5-.3v6c0,.9.2,1.6.5,1.9s.9.5,1.8.5v.7c-1.9-.1-3.2-.1-3.9-.1s-2.1.1-4.2.1v-.7c1,0,1.7-.2,2.1-.5s.6-1,.6-1.9V4.31c0-1.1-.2-1.9-.6-2.3-.4-.5-1.1-.7-2.1-.7v-.8c.7.1,1.5.1,2.1.1,1.5,0,2.7-.1,3.6-.5v17.2c.7-.1,1.2-.3,1.7-.5s.9-.5,1.3-.9l2.5-2.7c.7-.7,1.1-1.4,1.1-1.9,0-.4-.3-.7-.7-.9s-1-.1-1.8-.1v-.7c1.6.1,2.9.1,3.9.1,1.1,0,2.1-.1,3-.1v.7c-1.1.1-2.2.7-3.1,1.6l-4.2,4.5,6.3,8.5c.5.5.9.9,1.2,1.2Z"/><path class="cls-1" d="m215.08,26.51c-.7-.7-1.1-1.7-1.1-3.1,0-1.1.3-1.9.9-2.5.5-.7,1.3-1.2,2-1.6.8-.4,1.8-.8,3.1-1.3s2.3-.9,2.9-1.2c.6-.4.9-.9.9-1.5v-2c0-1.3-.3-2.3-.9-2.7-.5-.5-1.3-.7-2.4-.7-1.6,0-2.7.4-3.4,1.3.5.1.9.3,1.1.7.3.4.5.8.5,1.4s-.2,1.1-.5,1.4c-.4.3-.9.5-1.4.5-.7,0-1.1-.2-1.5-.6-.3-.4-.5-.9-.5-1.5,0-.5.1-1,.4-1.4.3-.4.7-.7,1.2-1.1.5-.4,1.3-.7,2.1-1,.9-.3,1.8-.4,2.8-.4,1.8,0,3.1.4,4.1,1.3.6.5.9,1.2,1.1,1.9.2.7.3,1.7.3,2.9v9.6c0,.6.1,1,.3,1.3.1.3.5.4.8.4s.5-.1.8-.2.5-.3.8-.5l.4.6c-.6.5-1.1.8-1.5,1s-.9.3-1.6.3c-1.1,0-1.9-.3-2.3-.8-.5-.5-.7-1.3-.7-2.3-.7,1.1-1.5,1.9-2.4,2.4s-1.9.7-3.1.7c-1.4-.2-2.5-.6-3.2-1.3Zm8.7-2.9v-6.8c-.2.3-.5.6-.9.8s-.9.5-1.7.8c-.9.4-1.6.7-2.1,1.1s-1,.8-1.4,1.4-.6,1.3-.6,2.2c0,1.1.3,1.8.7,2.3.5.5,1.2.8,2,.8,1.6,0,2.9-.9,4-2.6Z"/></g><g id="Ebene_2"><path class="cls-2" d="m85.88,49.81v6.3c0,.9.1,1.5.3,1.9s.5.7,1,.8,1.2.2,2.3.3v.7c-1.2-.1-2.9-.1-5.1-.1-2,0-3.5.1-4.5.1v-.7c.8-.1,1.5-.1,1.8-.3.3-.1.7-.4.8-.8.1-.4.2-1,.2-1.9v-17.2c0-.9-.1-1.5-.2-1.9s-.4-.7-.8-.8-1-.2-1.8-.3v-.6c1,.1,2.4.1,4.2.1l3.7-.1c.5,0,.9-.1,1.5-.1,2.7,0,4.8.6,6.2,1.9,1.4,1.3,2.1,2.9,2.1,5,0,1.3-.3,2.5-.9,3.7-.5,1.2-1.5,2.1-2.9,2.9-1.3.8-3.1,1.2-5.4,1.2l-2.5-.1h0Zm.9-13.6c-.3.1-.6.5-.7.9-.1.4-.2,1.1-.2,1.9v10.2h2.3c2.3,0,3.8-.6,4.7-1.8s1.3-2.9,1.3-4.9c0-2.3-.5-3.9-1.3-4.9-.9-1.1-2.3-1.6-4.4-1.6-.8-.1-1.3,0-1.7.2Z"/><path class="cls-2" d="m101.08,58.91c-.7-.7-1.1-1.7-1.1-3.1,0-1.1.3-1.9.9-2.5.5-.7,1.3-1.2,2-1.6.8-.4,1.8-.8,3.1-1.3s2.3-.9,2.9-1.2c.6-.4.9-.9.9-1.5v-2.1c0-1.3-.3-2.3-.9-2.7-.5-.5-1.3-.7-2.4-.7-1.6,0-2.7.4-3.4,1.3.5.1.9.3,1.1.7.3.4.5.8.5,1.4s-.2,1.1-.5,1.4c-.4.3-.9.5-1.4.5-.7,0-1.1-.2-1.5-.6-.3-.4-.5-.9-.5-1.5,0-.5.1-1,.4-1.4s.7-.7,1.2-1.1,1.3-.7,2.1-1c.9-.3,1.8-.4,2.8-.4,1.8,0,3.1.4,4.1,1.3.6.5.9,1.2,1.1,1.9.2.7.3,1.7.3,2.9v9.6c0,.6.1,1,.3,1.3.1.3.5.4.8.4s.5-.1.8-.2c.3-.1.5-.3.8-.5l.4.6c-.6.5-1.1.8-1.5,1s-.9.3-1.6.3c-1.1,0-1.9-.3-2.3-.8-.5-.5-.7-1.3-.7-2.3-.7,1.1-1.5,1.9-2.4,2.4-.9.5-1.9.7-3.1.7-1.4-.2-2.5-.5-3.2-1.2Zm3.8-24.3c.4.4.6.9.6,1.4s-.2,1-.6,1.4-.9.6-1.4.6-1-.2-1.4-.6-.6-.9-.6-1.4.2-1,.6-1.4.9-.6,1.4-.6,1,.2,1.4.6Zm4.8,21.4v-6.8c-.2.3-.5.6-.9.8s-.9.5-1.7.8c-.9.4-1.6.7-2.1,1.1-.5.3-1,.8-1.4,1.4-.4.6-.6,1.3-.6,2.2,0,1.1.3,1.8.7,2.3.5.5,1.2.8,2,.8,1.7,0,2.9-.9,4-2.6Zm2.6-21.4c.4.4.6.9.6,1.4s-.2,1-.6,1.4c-.4.4-.9.6-1.4.6s-1-.2-1.4-.6-.6-.9-.6-1.4.2-1,.6-1.4.9-.6,1.4-.6,1,.2,1.4.6Z"/><path class="cls-2" d="m122.48,41.91h5.1v.7h-5.1v13.4c0,1.1.2,1.8.6,2.3.4.5.9.7,1.7.7.7,0,1.3-.3,1.9-.9.5-.6.9-1.5,1.3-2.9l.7.2c-.6,3.2-2.1,4.8-4.5,4.8-.8,0-1.4-.1-1.9-.3s-.9-.5-1.3-.9c-.5-.5-.9-1.1-1.1-1.9-.2-.7-.3-1.7-.3-3v-11.4h-3.3v-.7h3.3v-5.3c1.3-.1,2.3-.2,3.1-.5l-.2,5.7h0Z"/><path class="cls-2" d="m133.28,59.21h3.8c1.4,0,2.5-.5,3.3-1.3.8-.9,1.3-2.3,1.5-4.3h.8c0,3,.1,5.1.1,6.3-1.8-.1-4-.1-6.5-.1-2.2,0-4.5.1-7,.2l10-17.5h-3.8c-1.5,0-2.7.4-3.5,1.3-.7.9-1.2,2.3-1.4,4.3h-.7c0-3-.1-5.1-.1-6.3,1.8.1,4,.1,6.5.1,2.2,0,4.5-.1,7-.2l-10,17.5Z"/><path class="cls-2" d="m159.78,43.81c1.5,1.5,2.1,3.9,2.1,7.1s-.7,5.5-2.1,7.1c-1.5,1.5-3.3,2.3-5.7,2.3s-4.3-.8-5.7-2.3c-1.5-1.5-2.1-3.9-2.1-7.1s.7-5.5,2.1-7.1c1.5-1.5,3.3-2.3,5.7-2.3s4.2.7,5.7,2.3Zm-9,.4c-.8,1.4-1.2,3.6-1.2,6.6s.4,5.2,1.2,6.6c.8,1.4,1.9,2.1,3.3,2.1,1.3,0,2.5-.7,3.3-2.1.8-1.4,1.2-3.6,1.2-6.6s-.4-5.2-1.2-6.6c-.8-1.4-1.9-2.1-3.3-2.1-1.4,0-2.5.8-3.3,2.1Z"/><path class="cls-2" d="m169.98,56.51c0,.9.2,1.6.6,1.9s1.1.5,2.1.5v.7c-2.1-.1-3.5-.1-4.2-.1s-2.1.1-4.2.1v-.7c1,0,1.7-.2,2.1-.5s.6-1,.6-1.9v-19.8c0-1.1-.2-1.9-.6-2.3s-1.1-.7-2.1-.7v-.7c.7.1,1.4.1,2.1.1,1.5,0,2.7-.1,3.6-.5v23.9h0Z"/><path class="cls-2" d="m190.78,58.31c.4.5,1.1.7,2.1.7v.7c-.7-.1-1.5-.1-2.1-.1-1.5,0-2.7.1-3.6.5v-3.1c-.4,1.1-1.1,1.8-1.9,2.4-.8.5-1.9.8-3.1.8-2.2,0-3.9-.8-5.2-2.4s-1.9-3.9-1.9-7c0-2,.3-3.7,1.1-5.1.7-1.4,1.7-2.5,2.9-3.2,1.2-.7,2.5-1.1,3.9-1.1.9,0,1.7.2,2.4.5.7.3,1.3.9,1.7,1.5v-6.8c0-1.1-.2-1.9-.6-2.3s-1.1-.7-2.1-.7v-.7c.7.1,1.5.1,2.1.1,1.5,0,2.7-.1,3.6-.5v23.4c.1,1.1.3,1.9.7,2.4Zm-5.2-.1c.7-.7,1.2-1.7,1.5-2.9v-10.4c-.6-1.8-1.9-2.7-3.9-2.7-1.5,0-2.6.7-3.5,2.2s-1.3,3.6-1.3,6.4.4,4.9,1.2,6.3c.8,1.4,2,2.1,3.5,2.1,1-.1,1.8-.4,2.5-1Z"/></g></g><g id="Ebene_2-2"><g id="Ebene_3"><path class="cls-1" d="m59.75,14.71c-.3,3.3-1.5,6.5-2.8,8.5-.1.1-.2.3-.3.4-.5-.8-1.1-1.7-1.6-2.5-.1-.2-.1-.5,0-.7.6-1.4,1.1-2.8,1.4-4.3.3-1.8.2-3.6,0-5.4-.2-1.9-.7-3.8-1.4-5.7-.3-1-1-1.5-2-1.4-1.3.2-2.5.5-3.8.8-2.6.8-5,1.9-7,3.6-.5.4-1,.9-1.4,1.3-.3.3-.5.4-.9.2-.8-.3-1.6-.5-2.4-.7-.1,0-.2-.1-.2-.1,2.1-2.6,4.7-4.6,7.7-6,2.1-1,4.2-1.7,6.4-2.2,1.2-.3,2.4-.4,3.6-.5.9-.1,1.6.4,1.9,1.2,1,2.3,1.8,4.6,2.3,7,.2.7.3,1.4.4,2.1.1,1.4.2,2.6.1,4.4Z"/><path class="cls-4" d="m53.35,19.11c2-4.5,1.3-8.9-.2-13.3-4,.7-7.6,2.1-10.6,4.8,4.2,2,7.8,4.8,10.8,8.5Z"/><path class="cls-1" d="m22.55,8.81c-1.2.4-2.2.7-3.2,1-.1,0-.3-.1-.4-.2-1.9-2-4.3-3.4-6.9-4.3-1.5-.5-3.1-1-4.7-1.4-1.5-.4-2.6.2-3,2-.5,1.7-.9,3.4-1.2,5.1-.2,1.3,0,2.7,0,4.1,0,1.7.6,3.3,1.3,4.9v.1c.7.8.2,1.5-.2,2.2-.3.4-.5.9-.8,1.3-.2.3-.3.4-.5,0-1.2-1.8-2-3.8-2.5-5.8C-.15,15.41-.05,13.01.15,10.71.45,7.71,1.35,4.81,2.55,2.01c.7-1.4,1.4-1.7,2.9-1.4,1.3.2,2.6.5,3.9.8,1.7.5,3.3,1,5,1.6,1.8.7,3.5,1.7,5,3,1.1.8,2,1.7,3.2,2.8Z"/><path class="cls-3" d="m6.25,19.11c-2-4.5-1.3-8.9.2-13.3,4,.7,7.6,2.1,10.6,4.8-4.2,2-7.8,4.8-10.8,8.5Z"/><path class="cls-1" d="m1.25,36.21c.1-.5.2-.9.2-1.4.3-2.6,1-5,2-7.4,1-2.3,2.2-4.4,3.7-6.4,1.3-1.7,2.7-3.2,4.4-4.5,1.7-1.4,3.6-2.7,5.7-3.7,2.4-1.2,4.9-2,7.5-2.5,1.2-.2,2.5-.3,3.7-.3,1.2-.1,2.5-.1,3.8,0,1.9.2,3.7.5,5.6,1,3,.7,5.7,2.1,8.2,3.8,1.9,1.3,3.6,2.8,5.2,4.5,1.9,2.1,3.5,4.5,4.7,7.1,1,2.1,1.7,4.3,2.2,6.5.3,1.5.4,3.1.5,4.7.1,4.6.1,9.2.1,13.9,0,1.5-.4,2.9-1.4,3.9-.9.9-2,1.4-3.3,1.6h-2v-16.9c1.1.1,2.2.2,3.3.2.3-8.4-2.4-15.6-8.9-21-8.5-6.9-17.9-7.9-27.9-3.4-9.5,5.3-14.1,13.5-13.8,24.3,1.2-.1,2.3-.2,3.4-.2v16.8c-1.6.1-3.1.2-4.5-.9-1-.8-1.7-1.7-2.1-3,0-.1-.1-.1-.1-.2-.2-5.4-.2-11-.2-16.5Z"/><path class="cls-1" d="m18.05,48.51v9.7c0,.6-.1,1.3-.7,1.7-.3.2-.7.4-1,.4-1,0-1.9.2-2.9-.2-1.1-.4-2.1-1.7-2.1-3v-17.2c0-1.4,1.2-2.9,2.6-3,.8-.1,1.7-.1,2.6,0,1.1.2,1.5.7,1.5,1.9,0,3.2,0,6.5,0,9.7Z"/><path class="cls-1" d="m41.85,48.51v-9.9c0-1.1.4-1.7,1.4-1.8,1.2-.1,2.5-.2,3.7.5.9.5,1.5,1.3,1.5,2.3.1,4.7.1,9.4.1,14.1,0,1.2-.1,2.5-.1,3.7,0,1-1.1,2.2-2.1,2.6-1.1.4-2.2.2-3.2.2-.7,0-1.2-.9-1.2-1.5-.1-3.4-.1-6.8-.1-10.2h0Z"/></g></g></svg>