<?xml version="1.0" encoding="utf-8"?>
<!-- Generator: Adobe Illustrator 27.7.0, SVG Export Plug-In . SVG Version: 6.00 Build 0)  -->
<svg version="1.1" id="Ebene_1" xmlns="http://www.w3.org/2000/svg" xmlns:xlink="http://www.w3.org/1999/xlink" x="0px" y="0px"
	 viewBox="0 0 54 54" style="enable-background:new 0 0 54 54;" xml:space="preserve">
<style type="text/css">
	.st0{fill:none;stroke:#E5261F;stroke-width:4;}
	.st1{enable-background:new    ;}
	.st2{fill:#E5261F;}
</style>
<g id="Page-1">
	<g id="logo-mobile">
		<rect id="Rectangle-6" x="2" y="2" class="st0" width="50" height="50"/>
	</g>
</g>
<g class="st1">
	<path d="M28.4,16c0,1.1,0,2,0.1,2.7h-0.8c-0.2-1.7-0.4-3-0.7-3.8c-0.3-0.8-0.7-1.4-1.4-1.8c-0.7-0.4-1.7-0.6-3-0.6h-2.1
		c-0.8,0-1.4,0.1-1.7,0.2c-0.4,0.1-0.6,0.4-0.7,0.7c-0.1,0.4-0.2,1-0.2,1.8v8.1h2.4c0.8,0,1.4-0.2,1.8-0.5s0.7-0.8,0.8-1.3
		c0.1-0.5,0.3-1.1,0.3-1.9l0.1-0.7h0.8C24.1,20,24,21,24,22.1v1.6c0,1.1,0.1,2.7,0.2,4.7h-0.8c0-0.2-0.1-0.7-0.2-1.6
		s-0.4-1.6-0.9-2.1c-0.5-0.5-1.2-0.7-2.1-0.7h-2.4v7.6c0,0.8,0.1,1.4,0.3,1.8c0.2,0.4,0.5,0.6,0.9,0.8c0.4,0.1,1.2,0.2,2.1,0.3v0.7
		c-1.1-0.1-2.8-0.1-4.9-0.1c-1.9,0-3.3,0-4.2,0.1v-0.7c0.8,0,1.4-0.1,1.7-0.3c0.4-0.1,0.6-0.4,0.7-0.8c0.1-0.4,0.2-1,0.2-1.8V15.3
		c0-0.8-0.1-1.4-0.2-1.8c-0.1-0.4-0.4-0.6-0.7-0.8c-0.4-0.1-0.9-0.2-1.7-0.3v-0.7c2.2,0.1,5.3,0.1,9.6,0.1c3.2,0,5.5,0,6.9-0.1
		C28.5,13.3,28.4,14.7,28.4,16z"/>
</g>
<g class="st1">
	<path class="st2" d="M29.1,32.6v5.9c0,0.8,0.1,1.4,0.3,1.8c0.2,0.4,0.5,0.6,0.9,0.8c0.4,0.1,1.2,0.2,2.1,0.3V42
		c-1.1-0.1-2.8-0.1-4.9-0.1c-1.9,0-3.3,0-4.2,0.1v-0.7c0.8,0,1.4-0.1,1.7-0.3c0.4-0.1,0.6-0.4,0.7-0.8s0.2-1,0.2-1.8V22.1
		c0-0.8-0.1-1.4-0.2-1.8c-0.1-0.4-0.4-0.6-0.7-0.8c-0.4-0.1-0.9-0.2-1.7-0.3v-0.7c0.9,0.1,2.3,0.1,4,0.1l3.6,0c0.4,0,0.9,0,1.4,0
		c2.6,0,4.5,0.6,5.9,1.8c1.4,1.2,2,2.8,2,4.7c0,1.2-0.3,2.4-0.8,3.5c-0.5,1.1-1.5,2-2.7,2.8s-3,1.1-5.1,1.1H29.1z M30,19.5
		c-0.3,0.2-0.6,0.4-0.7,0.8s-0.2,1-0.2,1.8v9.8h2.2c2.2,0,3.6-0.6,4.5-1.7c0.8-1.2,1.2-2.7,1.2-4.6c0-2.1-0.4-3.7-1.3-4.7
		c-0.8-1-2.2-1.5-4.2-1.5C30.9,19.3,30.4,19.4,30,19.5z"/>
</g>
</svg>
