<?xml version="1.0" encoding="utf-8"?>
<!-- Generator: Adobe Illustrator 27.7.0, SVG Export Plug-In . SVG Version: 6.00 Build 0)  -->
<svg version="1.1" xmlns="http://www.w3.org/2000/svg" xmlns:xlink="http://www.w3.org/1999/xlink" x="0px" y="0px"
	 viewBox="0 0 54 54" style="enable-background:new 0 0 54 54;" xml:space="preserve">
<style type="text/css">
	.st0{fill:none;stroke:#E5261F;stroke-width:4;}
	.st1{display:none;}
	.st2{display:inline;}
	.st3{fill:#010101;}
	.st4{fill:#E5261F;}
	.st5{fill:#2F2E41;}
	.st6{fill:url(#SVGID_1_);}
	.st7{fill:url(#SVGID_00000083780931210375436340000013672096971625944505_);}
</style>
<g id="Ebene_1">
	<g id="Ebene_1_00000115503137132484018550000003336215842802232749_">
		<g id="Page-1">
			<g id="logo-mobile">
				<rect id="Rectangle-6" x="2" y="2" class="st0" width="50" height="50"/>
			</g>
		</g>
	</g>
	<g id="Ebene_2_00000138537243380144370970000017149023759087696261_" class="st1">
		<g class="st2">
			<path class="st3" d="M44.8,17.7c-0.2,2-0.9,3.9-1.7,5.1C43,22.9,43,23,42.9,23.1c-0.3-0.5-0.7-1-1-1.5c-0.1-0.1-0.1-0.3,0-0.4
				c0.4-0.8,0.7-1.7,0.8-2.6c0.2-1.1,0.2-2.2,0-3.2c-0.1-1.2-0.4-2.3-0.8-3.4c-0.2-0.6-0.6-0.9-1.2-0.8c-0.8,0.1-1.5,0.3-2.3,0.5
				c-1.5,0.5-3,1.2-4.3,2.2c-0.3,0.2-0.6,0.5-0.9,0.8c-0.2,0.2-0.3,0.2-0.6,0.1c-0.5-0.2-1-0.3-1.5-0.4c0,0-0.1,0-0.2-0.1
				c1.3-1.6,2.8-2.8,4.7-3.6c1.3-0.6,2.6-1,3.9-1.3c1-0.3,1.7-0.4,2.4-0.4c0.5,0,1,0.3,1.2,0.7c0.6,1.4,1.1,2.8,1.4,4.3
				c0.1,0.4,0.2,0.8,0.3,1.3C44.8,15.9,44.8,16.5,44.8,17.7z"/>
			<path class="st4" d="M40.9,20.3c1.2-2.7,0.8-5.4-0.1-8c-2.4,0.5-4.6,1.3-6.4,2.9C37,16.4,39.1,18.1,40.9,20.3z"/>
			<path d="M22.3,14.1c-0.7,0.2-1.3,0.4-2,0.6c-0.1,0-0.2-0.1-0.2-0.1c-1.2-1.2-2.6-2.1-4.2-2.6c-0.9-0.3-1.9-0.6-2.8-0.8
				c-0.9-0.2-1.5,0.2-1.8,1.2c-0.3,1-0.6,2.1-0.7,3.1c-0.1,0.8,0,1.6,0,2.4c0,1,0.3,2,0.8,3l0,0c0.4,0.5,0.1,0.9-0.2,1.3
				c-0.2,0.3-0.3,0.5-0.5,0.8c-0.1,0.2-0.2,0.2-0.3,0c-0.7-1.1-1.2-2.3-1.5-3.5c-0.3-1.4-0.3-2.9-0.2-4.3c0.2-1.8,0.7-3.6,1.5-5.3
				C10.6,9,11.1,8.8,12,9c0.8,0.2,1.6,0.3,2.4,0.5c1,0.3,2,0.6,3,1c1.1,0.4,2.1,1,3,1.8C21,12.9,21.6,13.5,22.3,14.1z"/>
			<path class="st4" d="M12.5,20.3c-1.2-2.7-0.8-5.4,0.1-8c2.4,0.5,4.6,1.3,6.4,2.9C16.4,16.4,14.3,18.1,12.5,20.3z"/>
		</g>
		<g class="st2">
			<g>
				<path d="M9.5,30.6c0-0.3,0.1-0.5,0.1-0.8c0.2-1.5,0.6-3,1.2-4.4c0.6-1.4,1.3-2.7,2.2-3.9c0.8-1,1.7-1.9,2.6-2.7
					c1.1-0.9,2.2-1.6,3.4-2.2c1.4-0.7,3-1.2,4.5-1.5c0.7-0.1,1.5-0.2,2.2-0.2c0.8,0,1.5-0.1,2.3,0c1.1,0.1,2.3,0.3,3.4,0.6
					c1.8,0.5,3.4,1.3,5,2.3c1.1,0.8,2.2,1.7,3.1,2.7c1.2,1.3,2.1,2.7,2.9,4.3c0.6,1.3,1.1,2.6,1.3,3.9c0.2,0.9,0.3,1.9,0.3,2.8
					c0.1,2.8,0.1,5.6,0.1,8.4c0,0.9-0.2,1.7-0.9,2.4c-0.5,0.5-1.2,0.9-2,0.9c-0.4,0-0.8,0-1.2,0c0-3.4,0-6.7,0-10.2
					c0.7,0,1.3,0.1,2,0.2c0.2-5.1-1.4-9.4-5.4-12.7c-5.1-4.2-10.8-4.8-16.8-2c-5.8,3.2-8.5,8.1-8.4,14.7c0.7,0,1.4-0.1,2-0.1
					c0,3.4,0,6.8,0,10.2c-1,0-1.9,0.1-2.7-0.5c-0.6-0.5-1.1-1-1.2-1.8c0,0,0-0.1-0.1-0.1C9.5,37.3,9.5,34,9.5,30.6z"/>
			</g>
			<g>
				<path d="M19.6,38.1c0,1.9,0,3.9,0,5.9c0,0.4-0.1,0.8-0.4,1c-0.2,0.1-0.4,0.2-0.6,0.2c-0.6,0-1.2,0.1-1.8-0.1
					c-0.7-0.3-1.3-1-1.3-1.8c0-3.5,0-6.9,0-10.4c0-0.8,0.7-1.7,1.6-1.8c0.5,0,1-0.1,1.6,0c0.7,0.1,0.9,0.4,0.9,1.1
					C19.6,34.2,19.6,36.1,19.6,38.1z"/>
			</g>
			<g>
				<path d="M34,38.1c0-2,0-4,0-6c0-0.7,0.2-1,0.8-1.1c0.8-0.1,1.5-0.1,2.2,0.3c0.5,0.3,0.9,0.8,0.9,1.4c0,2.8,0.1,5.7,0.1,8.5
					c0,0.8,0,1.5-0.1,2.2c0,0.6-0.7,1.3-1.3,1.5s-1.3,0.1-2,0.1c-0.4,0-0.7-0.5-0.7-0.9C34,42.2,34,40.1,34,38.1L34,38.1z"/>
			</g>
		</g>
	</g>
</g>
<g id="Ebene_2">
	<g>
		<path class="st5" d="M44.8,17.7c-0.2,2-0.9,3.9-1.7,5.1C43.1,22.9,43,23,43,23.1c-0.3-0.5-0.7-1-1-1.5c-0.1-0.1-0.1-0.3,0-0.4
			c0.4-0.8,0.7-1.7,0.8-2.6c0.2-1.1,0.2-2.2,0-3.2c-0.1-1.2-0.4-2.3-0.8-3.4c-0.2-0.6-0.6-0.9-1.2-0.8c-0.8,0.1-1.5,0.3-2.3,0.5
			c-1.5,0.5-3,1.2-4.3,2.2c-0.3,0.2-0.6,0.5-0.9,0.8c-0.2,0.2-0.3,0.2-0.6,0.1c-0.5-0.2-1-0.3-1.5-0.4c0,0-0.1,0-0.2-0.1
			c1.3-1.6,2.8-2.8,4.7-3.6c1.3-0.6,2.6-1,3.9-1.3c0.7-0.2,1.4-0.2,2.2-0.3c0.5,0,1,0.3,1.2,0.7c0.6,1.4,1.1,2.8,1.4,4.3
			c0.1,0.4,0.2,0.8,0.3,1.3C44.9,15.8,44.9,16.5,44.8,17.7z"/>
		<linearGradient id="SVGID_1_" gradientUnits="userSpaceOnUse" x1="34.4194" y1="16.2594" x2="41.7" y2="16.2594">
			<stop  offset="0" style="stop-color:#2AEAFF"/>
			<stop  offset="1" style="stop-color:#FFEC15"/>
		</linearGradient>
		<path class="st6" d="M41,20.3c1.2-2.7,0.8-5.4-0.1-8c-2.4,0.5-4.6,1.3-6.4,2.9C37,16.4,39.2,18,41,20.3z"/>
		<path class="st5" d="M22.3,14.1c-0.7,0.2-1.3,0.4-2,0.6c-0.1,0-0.2-0.1-0.2-0.1c-1.2-1.2-2.6-2.1-4.2-2.6
			c-0.9-0.3-1.9-0.6-2.8-0.8c-0.9-0.2-1.5,0.2-1.8,1.2c-0.3,1-0.6,2.1-0.7,3.1c-0.1,0.8,0,1.6,0,2.4c0,1,0.3,2,0.8,3c0,0,0,0,0,0
			c0.4,0.5,0.1,0.9-0.2,1.3c-0.2,0.3-0.3,0.5-0.5,0.8c-0.1,0.2-0.2,0.2-0.3,0c-0.7-1.1-1.2-2.3-1.5-3.5c-0.3-1.4-0.3-2.9-0.2-4.3
			c0.2-1.8,0.7-3.6,1.5-5.3C10.7,9,11.1,8.8,12,9c0.8,0.2,1.6,0.3,2.4,0.5c1,0.3,2,0.6,3,1c1.1,0.4,2.1,1,3,1.8
			C21.1,12.8,21.7,13.4,22.3,14.1z"/>
		
			<linearGradient id="SVGID_00000032611955396976963890000011299416835409305513_" gradientUnits="userSpaceOnUse" x1="11.783" y1="16.2688" x2="19.0637" y2="16.2688">
			<stop  offset="0" style="stop-color:#EC2AFF"/>
			<stop  offset="3.285784e-02" style="stop-color:#E335F7"/>
			<stop  offset="0.2294" style="stop-color:#B272CE"/>
			<stop  offset="0.4183" style="stop-color:#89A4AB"/>
			<stop  offset="0.5946" style="stop-color:#69CC90"/>
			<stop  offset="0.7556" style="stop-color:#52E87C"/>
			<stop  offset="0.8959" style="stop-color:#44F970"/>
			<stop  offset="1" style="stop-color:#3FFF6C"/>
		</linearGradient>
		<path style="fill:url(#SVGID_00000032611955396976963890000011299416835409305513_);" d="M12.5,20.3c-1.2-2.7-0.8-5.4,0.1-8
			c2.4,0.5,4.6,1.3,6.4,2.9C16.5,16.4,14.3,18,12.5,20.3z"/>
	</g>
	<g>
		<g>
			<path class="st5" d="M9.5,30.6c0-0.3,0.1-0.5,0.1-0.8c0.2-1.5,0.6-3,1.2-4.4c0.6-1.4,1.3-2.7,2.2-3.9c0.8-1,1.7-1.9,2.6-2.7
				c1.1-0.9,2.2-1.6,3.4-2.2c1.4-0.7,3-1.2,4.5-1.5c0.7-0.1,1.5-0.2,2.2-0.2c0.8,0,1.5-0.1,2.3,0c1.1,0.1,2.3,0.3,3.4,0.6
				c1.8,0.5,3.4,1.3,5,2.3c1.1,0.8,2.2,1.7,3.1,2.7c1.2,1.3,2.1,2.7,2.9,4.3c0.6,1.3,1.1,2.6,1.3,3.9c0.2,0.9,0.3,1.9,0.3,2.8
				c0.1,2.8,0.1,5.6,0.1,8.4c0,0.9-0.2,1.7-0.9,2.4c-0.5,0.5-1.2,0.9-2,0.9c-0.4,0-0.8,0-1.2,0c0-3.4,0-6.7,0-10.2
				c0.7,0,1.3,0.1,2,0.2c0.2-5.1-1.4-9.4-5.4-12.7c-5.1-4.2-10.8-4.8-16.8-2c-5.7,3.2-8.5,8.1-8.4,14.7c0.7,0,1.4-0.1,2-0.1
				c0,3.4,0,6.8,0,10.2c-1,0-1.9,0.1-2.7-0.5c-0.6-0.5-1.1-1-1.2-1.8c0,0,0-0.1-0.1-0.1C9.5,37.3,9.5,34,9.5,30.6z"/>
		</g>
		<g>
			<path class="st5" d="M19.7,38.1c0,1.9,0,3.9,0,5.9c0,0.4-0.1,0.8-0.4,1c-0.2,0.1-0.4,0.2-0.6,0.2c-0.6,0-1.2,0.1-1.8-0.1
				c-0.7-0.3-1.3-1-1.3-1.8c0-3.5,0-6.9,0-10.4c0-0.8,0.7-1.7,1.6-1.8c0.5,0,1-0.1,1.6,0c0.7,0.1,0.9,0.4,0.9,1.1
				C19.7,34.1,19.7,36.1,19.7,38.1z"/>
		</g>
		<g>
			<path class="st5" d="M34,38.1c0-2,0-4,0-6c0-0.7,0.2-1,0.8-1.1c0.8-0.1,1.5-0.1,2.2,0.3c0.5,0.3,0.9,0.8,0.9,1.4
				c0,2.8,0.1,5.7,0.1,8.5c0,0.8,0,1.5-0.1,2.2c0,0.6-0.7,1.3-1.3,1.5c-0.6,0.2-1.3,0.1-2,0.1c-0.4,0-0.7-0.5-0.7-0.9
				C34,42.2,34,40.1,34,38.1L34,38.1z"/>
		</g>
	</g>
</g>
</svg>
