<?xml version="1.0" encoding="utf-8"?>
<!-- Generator: Adobe Illustrator 27.7.0, SVG Export Plug-In . SVG Version: 6.00 Build 0)  -->
<svg version="1.1" id="Ebene_1" xmlns="http://www.w3.org/2000/svg" xmlns:xlink="http://www.w3.org/1999/xlink" x="0px" y="0px"
	 viewBox="0 0 50 50" style="enable-background:new 0 0 50 50;" xml:space="preserve">
<style type="text/css">
	.st0{fill:#F5F5F5;}
</style>
<path class="st0" d="M9,4C6.2,4,4,6.2,4,9v32c0,2.8,2.2,5,5,5h32c2.8,0,5-2.2,5-5V9c0-2.8-2.2-5-5-5H9z M26.2,11
	c2,0,3.8,1.8,3.8,10.5c0,3.1-0.5,7.7-2.4,11.4c0.8,1,1.6,1.4,2.1,1.1c1.5-0.7,2.5-3.2,3.4-6c0.2-0.8,1.1-1.2,1.9-0.9
	c0.8,0.2,1.2,1,1,1.8C35.2,31.2,33,37,29.8,37c-1,0-2.4,0-3.7-1.3c-1.5,2-3.3,3.3-5.5,3.3c-4.6,0-6.7-3.5-6.7-6.9c0-3.7,1.9-8,6.1-8
	c0.7,0,1.4,0.1,1.9,0.3c-0.1-1-0.1-1.8-0.1-3C22,21.3,22,11,26.2,11z M26.3,14.1c-0.6,1-1.3,4.1-1.3,7.3c0,3.5,0.4,6.2,1,8.2
	c0.9-2.6,1-5.6,1-8.1C27,16.7,26.8,14.7,26.3,14.1z M20.1,27c-3.2,0-3.1,4.9-3.1,5.1c0,1.2,0.3,3.9,3.6,3.9c1.3,0,2.6-1,3.7-2.8
	C23.6,31.9,23,30,22.6,28c-0.1-0.1-0.2-0.1-0.2-0.2C22.3,27.8,21.4,27,20.1,27z"/>
</svg>
