<?xml version="1.0" encoding="utf-8"?>
<!-- Generator: Adobe Illustrator 27.7.0, SVG Export Plug-In . SVG Version: 6.00 Build 0)  -->
<svg version="1.1" xmlns="http://www.w3.org/2000/svg" xmlns:xlink="http://www.w3.org/1999/xlink" x="0px" y="0px"
	 viewBox="0 0 32 32" style="enable-background:new 0 0 32 32;" xml:space="preserve">
<style type="text/css">
	.st0{fill-rule:evenodd;clip-rule:evenodd;fill:#E5261F;}
	.st1{display:none;fill:#F5F5F5;enable-background:new    ;}
	.st2{font-family:'PlayfairDisplay-Regular';}
	.st3{font-size:22px;}
	.st4{fill:#FFFFFF;}
</style>
<g id="Ebene_1">
	<g id="Page-1">
		<g id="Group">
			<path id="Rectangle" class="st0" d="M3,0h26c1.7,0,3,1.3,3,3v26c0,1.7-1.3,3-3,3H3c-1.7,0-3-1.3-3-3V3C0,1.3,1.3,0,3,0z"/>
			<text transform="matrix(1 0 0 1 5.8752 21.9763)" class="st1 st2 st3">F</text>
			<text transform="matrix(1 0 0 1 13.336 26.4286)" class="st1 st2 st3">P</text>
		</g>
	</g>
</g>
<g id="Ebene_2">
	<g>
		<path class="st4" d="M25,11c-0.1,1-0.5,2-0.9,2.6c0,0-0.1,0.1-0.1,0.1c-0.2-0.3-0.3-0.5-0.5-0.8c0-0.1,0-0.2,0-0.2
			c0.2-0.4,0.4-0.9,0.4-1.3c0.1-0.6,0.1-1.1,0-1.7c-0.1-0.6-0.2-1.2-0.4-1.8c-0.1-0.3-0.3-0.5-0.6-0.4c-0.4,0.1-0.8,0.1-1.2,0.3
			c-0.8,0.2-1.5,0.6-2.2,1.1c-0.2,0.1-0.3,0.3-0.4,0.4c-0.1,0.1-0.2,0.1-0.3,0.1c-0.2-0.1-0.5-0.1-0.8-0.2c0,0,0,0-0.1,0
			c0.7-0.8,1.5-1.4,2.4-1.8c0.6-0.3,1.3-0.5,2-0.7c0.4-0.1,0.7-0.1,1.1-0.2c0.3,0,0.5,0.1,0.6,0.4c0.3,0.7,0.6,1.4,0.7,2.2
			c0,0.2,0.1,0.4,0.1,0.6C25,10.1,25,10.5,25,11z"/>
		<path class="st4" d="M23,12.4c0.6-1.4,0.4-2.8-0.1-4.1c-1.2,0.2-2.4,0.6-3.3,1.5C20.9,10.4,22,11.2,23,12.4z"/>
		<path class="st4" d="M13.4,9.2c-0.4,0.1-0.7,0.2-1,0.3c0,0-0.1,0-0.1-0.1c-0.6-0.6-1.3-1.1-2.2-1.4c-0.5-0.2-1-0.3-1.5-0.4
			C8.2,7.5,7.9,7.7,7.7,8.3C7.6,8.8,7.4,9.3,7.4,9.9c-0.1,0.4,0,0.8,0,1.3c0,0.5,0.2,1,0.4,1.5c0,0,0,0,0,0c0.2,0.3,0.1,0.5-0.1,0.7
			c-0.1,0.1-0.2,0.3-0.2,0.4c-0.1,0.1-0.1,0.1-0.2,0c-0.4-0.6-0.6-1.2-0.8-1.8c-0.2-0.7-0.2-1.5-0.1-2.2C6.5,8.8,6.8,7.9,7.2,7
			c0.2-0.4,0.4-0.5,0.9-0.5c0.4,0.1,0.8,0.1,1.2,0.3c0.5,0.1,1,0.3,1.5,0.5c0.6,0.2,1.1,0.5,1.6,0.9C12.7,8.6,13,8.9,13.4,9.2z"/>
		<path class="st4" d="M8.3,12.4C7.7,11,7.9,9.6,8.4,8.3c1.2,0.2,2.4,0.6,3.3,1.5C10.4,10.4,9.3,11.2,8.3,12.4z"/>
	</g>
	<g>
		<g>
			<path class="st4" d="M6.8,17.7c0-0.1,0.1-0.3,0.1-0.4c0.1-0.8,0.3-1.5,0.6-2.3c0.3-0.7,0.7-1.4,1.2-2c0.4-0.5,0.9-1,1.4-1.4
				c0.5-0.5,1.1-0.8,1.8-1.2c0.7-0.4,1.5-0.6,2.3-0.8c0.4-0.1,0.8-0.1,1.2-0.1c0.4,0,0.8,0,1.2,0c0.6,0.1,1.2,0.2,1.7,0.3
				c0.9,0.2,1.8,0.6,2.6,1.2c0.6,0.4,1.1,0.9,1.6,1.4c0.6,0.7,1.1,1.4,1.5,2.2c0.3,0.6,0.5,1.3,0.7,2c0.1,0.5,0.1,1,0.1,1.5
				c0,1.4,0,2.9,0,4.3c0,0.5-0.1,0.9-0.4,1.2c-0.3,0.3-0.6,0.5-1,0.5c-0.2,0-0.4,0-0.6,0c0-1.7,0-3.5,0-5.2c0.3,0,0.7,0.1,1,0.1
				c0.1-2.6-0.7-4.9-2.8-6.5c-2.6-2.2-5.6-2.4-8.7-1c-3,1.7-4.4,4.2-4.3,7.6c0.4,0,0.7,0,1.1-0.1c0,1.8,0,3.5,0,5.2
				c-0.5,0-1,0.1-1.4-0.3c-0.3-0.2-0.5-0.5-0.6-0.9c0,0,0,0,0,0C6.8,21.2,6.8,19.4,6.8,17.7z"/>
		</g>
		<g>
			<path class="st4" d="M12,21.5c0,1,0,2,0,3c0,0.2,0,0.4-0.2,0.5c-0.1,0.1-0.2,0.1-0.3,0.1c-0.3,0-0.6,0.1-0.9-0.1
				c-0.3-0.1-0.7-0.5-0.7-0.9c0-1.8,0-3.6,0-5.3c0-0.4,0.4-0.9,0.8-0.9c0.3,0,0.5,0,0.8,0c0.3,0,0.5,0.2,0.5,0.6
				C12,19.5,12,20.5,12,21.5z"/>
		</g>
		<g>
			<path class="st4" d="M19.4,21.5c0-1,0-2.1,0-3.1c0-0.3,0.1-0.5,0.4-0.6c0.4,0,0.8-0.1,1.1,0.2c0.3,0.2,0.5,0.4,0.5,0.7
				c0,1.5,0,2.9,0,4.4c0,0.4,0,0.8,0,1.2c0,0.3-0.3,0.7-0.7,0.8c-0.3,0.1-0.7,0.1-1,0.1c-0.2,0-0.4-0.3-0.4-0.5
				C19.4,23.6,19.4,22.6,19.4,21.5L19.4,21.5z"/>
		</g>
	</g>
</g>
</svg>
